<svg xmlns="http://www.w3.org/2000/svg" width="63" height="63.196" viewBox="0 0 63 63.196">
  <g id="Grupo_872039" data-name="Grupo 872039" transform="translate(-285 -7416)">
    <g id="Grupo_872021" data-name="Grupo 872021">
      <g id="Grupo_870604" data-name="Grupo 870604" transform="translate(0 96)">
        <circle id="Elipse_4720" data-name="Elipse 4720" cx="31.5" cy="31.5" r="31.5" transform="translate(285 7320)" fill="#e1efe3"/>
        <path id="Sustracción_8" data-name="Sustracción 8" d="M8407.5,11782a31.476,31.476,0,0,1-31.5-31.5,31.842,31.842,0,0,1,.514-5.7,38.533,38.533,0,0,0,51.173,29.878A31.38,31.38,0,0,1,8407.5,11782Z" transform="translate(-8091 -4398.805)" fill="#cee8d2"/>
      </g>
      <g id="objetivo_2_" data-name="objetivo(2)" transform="translate(296.044 7427)">
        <g id="Grupo_870609" data-name="Grupo 870609" transform="translate(10.376 11.013)">
          <g id="Grupo_870606" data-name="Grupo 870606">
            <g id="Grupo_870605" data-name="Grupo 870605">
              <path id="Trazado_215062" data-name="Trazado 215062" d="M122.46,142.705a.78.78,0,1,1,.765-.627A.786.786,0,0,1,122.46,142.705Z" transform="translate(-121.681 -141.147)" fill="#03386e"/>
            </g>
          </g>
          <g id="Grupo_870608" data-name="Grupo 870608" transform="translate(14.259 16.022)">
            <g id="Grupo_870607" data-name="Grupo 870607" transform="translate(0 0)">
              <path id="Trazado_215063" data-name="Trazado 215063" d="M305.207,348.052a.78.78,0,1,1,.77-.658A.787.787,0,0,1,305.207,348.052Z" transform="translate(-304.427 -346.494)" fill="#03386e"/>
            </g>
          </g>
        </g>
        <g id="Grupo_870611" data-name="Grupo 870611" transform="translate(0.956 0.001)">
          <g id="Grupo_870610" data-name="Grupo 870610" transform="translate(0 0)">
            <path id="Trazado_215064" data-name="Trazado 215064" d="M40.707,5.8a.78.78,0,0,0-.673-.507L35.78,4.976,35.462.723a.78.78,0,0,0-1.33-.494l-3.4,3.4a3.132,3.132,0,0,0-.918,2.107c0,.014,0,.028,0,.042l.046,2.605A17.774,17.774,0,1,0,32.4,10.9l2.575.042h.041a3.133,3.133,0,0,0,2.107-.918l3.4-3.4a.78.78,0,0,0,.18-.823ZM31.835,4.732l2.2-2.2.215,2.87L31.417,8.24l-.044-2.465a1.577,1.577,0,0,1,.462-1.042ZM18.712,38.389A16.195,16.195,0,1,1,29.518,10.141l-1.807,1.807a13.631,13.631,0,0,0-13.623-2.59.78.78,0,0,0,.53,1.468,12.072,12.072,0,0,1,11.987,2.228l-1.81,1.81a9.528,9.528,0,1,0-1.753,15.818.78.78,0,1,0-.711-1.389,7.866,7.866,0,0,1-3.619.87,7.969,7.969,0,1,1,4.974-14.19l-1.82,1.82a5.424,5.424,0,1,0,1.124,1.083L24.8,17.062A7.961,7.961,0,0,1,26.278,24.7a.78.78,0,0,0,1.481.492,9.522,9.522,0,0,0-1.848-9.237l1.808-1.807a12.082,12.082,0,1,1-18.769.936.78.78,0,0,0-1.26-.92,13.644,13.644,0,1,0,21.134-1.12l1.806-1.806A16.186,16.186,0,0,1,18.712,38.389Zm3.856-16.195a3.86,3.86,0,1,1-1.826-3.277l-2.489,2.489a.78.78,0,1,0,1.1,1.1l2.518-2.518A3.834,3.834,0,0,1,22.568,22.194ZM36.023,8.92a1.578,1.578,0,0,1-1.043.462l-2.457-.04,1.5-1.5c.017-.017.032-.034.047-.052l1.281-1.283,2.87.215Z" transform="translate(-0.956 -0.001)" fill="#03386e"/>
          </g>
        </g>
      </g>
    </g>
  </g>
</svg>
