<svg xmlns="http://www.w3.org/2000/svg" width="63" height="63.196" viewBox="0 0 63 63.196">
  <g id="Grupo_872038" data-name="Grupo 872038" transform="translate(-285 -7262)">
    <g id="Grupo_872023" data-name="Grupo 872023">
      <g id="Grupo_870603" data-name="Grupo 870603" transform="translate(0 -58)">
        <circle id="Elipse_4720" data-name="Elipse 4720" cx="31.5" cy="31.5" r="31.5" transform="translate(285 7320)" fill="#e1efe3"/>
        <path id="Sustracción_8" data-name="Sustracción 8" d="M8407.5,11782a31.476,31.476,0,0,1-31.5-31.5,31.842,31.842,0,0,1,.514-5.7,38.533,38.533,0,0,0,51.173,29.878A31.38,31.38,0,0,1,8407.5,11782Z" transform="translate(-8091 -4398.805)" fill="#bce2c1" opacity="0.5"/>
      </g>
      <g id="logro" transform="translate(296.526 7272.026)">
        <path id="Trazado_215059" data-name="Trazado 215059" d="M246.78,313.56a.78.78,0,1,0-.78-.78A.781.781,0,0,0,246.78,313.56Zm0,0" transform="translate(-226.807 -287.656)" fill="#03386e"/>
        <path id="Trazado_215060" data-name="Trazado 215060" d="M30.012,21.8a.781.781,0,0,0-.665-.39h-.011a.781.781,0,0,0-.664.371l-3,4.875-4.918-7.992v-9.3h11.7A.78.78,0,0,0,33.067,8.1L30.336,4.682l2.731-3.414A.78.78,0,0,0,32.457,0H19.974a.78.78,0,0,0-.78.78V18.662l-4.918,7.992-3-4.875a.78.78,0,0,0-1.34.018L.1,38.778a.78.78,0,0,0,.675,1.171H39.168a.78.78,0,0,0,.675-1.171ZM14.949,28.535l0,0,5.021-8.16L31.061,38.388H8.886ZM28.727,4.194a.78.78,0,0,0,0,.975L30.834,7.8H20.754V1.561h10.08Zm-18.1,19.515,2.728,4.433L7.053,38.388H2.133ZM32.893,38.388,26.588,28.142l2.728-4.433,8.5,14.679Zm0,0" transform="translate(0)" fill="#03386e"/>
        <path id="Trazado_215061" data-name="Trazado 215061" d="M273.83,354.545a.78.78,0,0,0,1.329-.818l-5.137-8.348a.78.78,0,1,0-1.329.818Zm0,0" transform="translate(-247.622 -318.089)" fill="#03386e"/>
      </g>
    </g>
  </g>
</svg>
