<svg xmlns="http://www.w3.org/2000/svg" width="63" height="63.196" viewBox="0 0 63 63.196">
  <g id="Grupo_872040" data-name="Grupo 872040" transform="translate(-285 -7572.804)">
    <g id="Grupo_872022" data-name="Grupo 872022">
      <g id="Grupo_870612" data-name="Grupo 870612" transform="translate(0 252.804)">
        <circle id="Elipse_4720" data-name="Elipse 4720" cx="31.5" cy="31.5" r="31.5" transform="translate(285 7320)" fill="#e1efe3"/>
        <path id="Sustracción_8" data-name="Sustracción 8" d="M8407.5,11782a31.476,31.476,0,0,1-31.5-31.5,31.842,31.842,0,0,1,.514-5.7,38.533,38.533,0,0,0,51.173,29.878A31.38,31.38,0,0,1,8407.5,11782Z" transform="translate(-8091 -4398.805)" fill="#cee8d2"/>
      </g>
      <g id="evaluacion" transform="translate(298.677 7555.092)">
        <path id="Trazado_215065" data-name="Trazado 215065" d="M137.619,196.319q.179.008.357.009a7.39,7.39,0,0,0,4.678-1.663.654.654,0,0,0-.826-1.013,6.1,6.1,0,1,1,1.721-2.24.654.654,0,0,0,1.193.534,7.415,7.415,0,1,0-7.122,4.373Z" transform="translate(-119.186 -138.68)" fill="#03386e"/>
        <path id="Trazado_215066" data-name="Trazado 215066" d="M30.457,30.543a3.363,3.363,0,0,0-2.315-.959H12.873a2.463,2.463,0,0,0-2.46,2.46v1.781H8.632a2.463,2.463,0,0,0-2.46,2.46v1.851a.654.654,0,1,0,1.307,0V36.285a1.154,1.154,0,0,1,1.153-1.153h15.7v3.39A2.379,2.379,0,0,0,26.708,40.9H30.1V64.161a1.176,1.176,0,0,1-1.175,1.174H8.654a1.173,1.173,0,0,1-.742-.264l2.5-2.5a2.805,2.805,0,0,0,.407-3.444l1.263-1.263a10.154,10.154,0,1,0-.924-.924L9.9,58.2a2.812,2.812,0,0,0-2.419-.244v-16.7a.654.654,0,1,0-1.307,0V58.889L.806,64.255a2.837,2.837,0,0,0,0,3.961,2.8,2.8,0,0,0,3.961,0L6.985,66a2.478,2.478,0,0,0,1.668.644h20.27a2.485,2.485,0,0,0,2.482-2.482V62.4h1.759a2.485,2.485,0,0,0,2.482-2.482V37.088a3.348,3.348,0,0,0-.959-2.314ZM12.533,43.978a8.847,8.847,0,1,1,0,12.512,8.82,8.82,0,0,1,0-12.512ZM3.843,67.292a1.5,1.5,0,0,1-2.113,0,1.529,1.529,0,0,1,0-2.112l5.557-5.557a1.53,1.53,0,0,1,2.2-.091,1.5,1.5,0,0,1,0,2.113ZM29.88,31.816l3.534,3.534H30.949a1.07,1.07,0,0,1-1.069-1.069V31.816Zm-3.172,7.775a1.07,1.07,0,0,1-1.069-1.069V36.057l3.534,3.534Zm6.456,21.5H31.405V41.329a3.349,3.349,0,0,0-.959-2.314l-4.231-4.231a3.363,3.363,0,0,0-2.315-.959H11.72V32.044a1.154,1.154,0,0,1,1.153-1.153h15.7v3.39a2.379,2.379,0,0,0,2.376,2.376h3.39V59.92a1.176,1.176,0,0,1-1.175,1.174Z" transform="translate(0)" fill="#03386e"/>
      </g>
    </g>
  </g>
</svg>
