<svg xmlns="http://www.w3.org/2000/svg" xmlns:xlink="http://www.w3.org/1999/xlink" width="190" height="163" viewBox="0 0 190 163">
  <defs>
    <clipPath id="clip-path">
      <rect id="Rectángulo_291291" data-name="Rectángulo 291291" width="129.127" height="129.249" fill="#03386e"/>
    </clipPath>
  </defs>
  <g id="Grupo_872044" data-name="Grupo 872044" transform="translate(6194 2894)">
    <g id="Grupo_870596" data-name="Grupo 870596" transform="translate(426 381)">
      <g id="Grupo_870598" data-name="Grupo 870598">
        <g id="Grupo_870591" data-name="Grupo 870591" transform="translate(0 402)">
          <rect id="Rectángulo_291281" data-name="Rectángulo 291281" width="190" height="163" transform="translate(-6620 -3677)" fill="none"/>
          <rect id="Rectángulo_291283" data-name="Rectángulo 291283" width="50" height="52" transform="translate(-6480 -3677)" fill="#03386e"/>
          <text id="_03" data-name="03" transform="translate(-6453 -3640)" fill="#e1fbff" font-size="30" font-family="Roboto-Bold, Roboto" font-weight="700"><tspan x="-17.212" y="0">03</tspan></text>
        </g>
        <g id="Grupo_870597" data-name="Grupo 870597" transform="translate(-6595 -3254.068)">
          <g id="Grupo_870597-2" data-name="Grupo 870597" clip-path="url(#clip-path)">
            <path id="Trazado_214997" data-name="Trazado 214997" d="M101.561,92.261H91.024a1.956,1.956,0,1,1,0-3.913h10.537a1.956,1.956,0,1,1,0,3.913" transform="translate(-28.216 -27.988)" fill="#03386e"/>
            <path id="Trazado_214998" data-name="Trazado 214998" d="M142.56,55.321h-5.268a1.956,1.956,0,1,1,0-3.913h5.268a1.956,1.956,0,1,1,0,3.913" transform="translate(-42.874 -16.286)" fill="#03386e"/>
            <path id="Trazado_214999" data-name="Trazado 214999" d="M47.454,55.321H42.186a1.956,1.956,0,1,1,0-3.913h5.268a1.956,1.956,0,1,1,0,3.913" transform="translate(-12.744 -16.286)" fill="#03386e"/>
            <path id="Trazado_215000" data-name="Trazado 215000" d="M128.484,90.211a1.948,1.948,0,0,1-1.383-.573l-3.726-3.725,2.767-2.768,3.726,3.726a1.956,1.956,0,0,1-1.384,3.34" transform="translate(-39.085 -26.34)" fill="#03386e"/>
            <path id="Trazado_215001" data-name="Trazado 215001" d="M61.234,22.961a1.95,1.95,0,0,1-1.383-.573l-3.726-3.726L58.892,15.9l3.726,3.725a1.956,1.956,0,0,1-1.383,3.34" transform="translate(-17.78 -5.036)" fill="#03386e"/>
            <path id="Trazado_215002" data-name="Trazado 215002" d="M126.142,22.123l-2.767-2.768L127.1,15.63a1.957,1.957,0,1,1,2.768,2.766Z" transform="translate(-39.085 -4.77)" fill="#03386e"/>
            <path id="Trazado_215003" data-name="Trazado 215003" d="M58.892,89.372l-2.767-2.766,3.726-3.726a1.957,1.957,0,0,1,2.767,2.768Z" transform="translate(-17.78 -26.075)" fill="#03386e"/>
            <path id="Trazado_215004" data-name="Trazado 215004" d="M93.594,9.181a1.956,1.956,0,0,1-1.957-1.956V1.957a1.957,1.957,0,0,1,3.914,0V7.225a1.956,1.956,0,0,1-1.957,1.956" transform="translate(-29.03)" fill="#03386e"/>
            <path id="Trazado_215005" data-name="Trazado 215005" d="M85.8,64.643a1.957,1.957,0,0,1-1.867-1.375L79.542,49.2a7.111,7.111,0,0,1,6.789-9.229h6.95a7.111,7.111,0,0,1,6.884,8.9L96.456,63.177a1.956,1.956,0,1,1-3.788-.982l3.709-14.309a3.2,3.2,0,0,0-3.1-4h-6.95a3.2,3.2,0,0,0-3.053,4.152L87.666,62.1A1.959,1.959,0,0,1,85.8,64.643" transform="translate(-25.094 -12.663)" fill="#03386e"/>
            <path id="Trazado_215006" data-name="Trazado 215006" d="M83.009,78.261A10.749,10.749,0,0,1,72.272,67.524v-.761a2.359,2.359,0,0,0-1.188-2.088A24.791,24.791,0,0,1,81.392,18.2a24.573,24.573,0,0,1,18.575,6.657,24.793,24.793,0,0,1-5.012,39.8,2.382,2.382,0,0,0-1.209,2.1v.762A10.75,10.75,0,0,1,83.009,78.261m.013-56.2q-.688,0-1.381.043a20.879,20.879,0,0,0-8.672,39.138,6.272,6.272,0,0,1,3.216,5.517v.761a6.824,6.824,0,1,0,13.648,0v-.762a6.3,6.3,0,0,1,3.234-5.526,20.894,20.894,0,0,0,10.815-18.3,20.873,20.873,0,0,0-20.86-20.874" transform="translate(-18.445 -5.75)" fill="#03386e"/>
            <path id="Trazado_215007" data-name="Trazado 215007" d="M56.367,176.429a1.956,1.956,0,0,1-1.957-1.956c0-13.847,12.4-25.546,27.077-25.546,14.759,0,27.7,11.885,27.7,25.434a1.956,1.956,0,0,1-3.913,0c0-11.465-11.118-21.522-23.792-21.522-12.556,0-23.163,9.907-23.163,21.633a1.956,1.956,0,0,1-1.957,1.956" transform="translate(-17.237 -47.18)" fill="#03386e"/>
            <path id="Trazado_215008" data-name="Trazado 215008" d="M110.864,187.367H67.822a1.956,1.956,0,1,1,0-3.913h43.042a1.956,1.956,0,1,1,0,3.913" transform="translate(-20.866 -58.118)" fill="#03386e"/>
            <path id="Trazado_215009" data-name="Trazado 215009" d="M87.7,141.209a14.673,14.673,0,1,1,14.673-14.674A14.691,14.691,0,0,1,87.7,141.209m0-25.434a10.761,10.761,0,1,0,10.76,10.76,10.772,10.772,0,0,0-10.76-10.76" transform="translate(-23.133 -35.438)" fill="#03386e"/>
            <path id="Trazado_215010" data-name="Trazado 215010" d="M1.957,164.976A1.956,1.956,0,0,1,0,163.02c0-13.456,11.619-24.9,25.9-25.511.373-.021.771-.031,1.179-.031.445,0,1.036.006,1.651.055a28.327,28.327,0,0,1,10.616,2.737,1.957,1.957,0,0,1-1.682,3.534,24.485,24.485,0,0,0-9.2-2.367c-.523-.041-1.014-.046-1.387-.046-.335,0-.661.008-.988.027-12.24.523-22.177,10.213-22.177,21.6a1.956,1.956,0,0,1-1.957,1.956" transform="translate(0 -43.553)" fill="#03386e"/>
            <path id="Trazado_215011" data-name="Trazado 215011" d="M31.3,175.912H1.956a1.956,1.956,0,0,1,0-3.913H31.3a1.956,1.956,0,1,1,0,3.913" transform="translate(0 -54.489)" fill="#03386e"/>
            <path id="Trazado_215012" data-name="Trazado 215012" d="M33.288,129.754A14.674,14.674,0,1,1,47.962,115.08a14.69,14.69,0,0,1-14.674,14.674m0-25.434a10.761,10.761,0,1,0,10.76,10.76,10.772,10.772,0,0,0-10.76-10.76" transform="translate(-5.897 -31.809)" fill="#03386e"/>
            <path id="Trazado_215013" data-name="Trazado 215013" d="M168.235,164.868a1.956,1.956,0,0,1-1.957-1.956c0-10.943-10.26-20.777-22.406-21.476-.521-.04-1.01-.046-1.384-.046-.335,0-.661.008-.987.027a23.69,23.69,0,0,0-9.091,2.225,1.956,1.956,0,0,1-1.657-3.544,27.545,27.545,0,0,1,10.558-2.589c.372-.021.77-.031,1.179-.031.445,0,1.036.006,1.65.055,14.347.825,26.054,12.211,26.054,25.38a1.956,1.956,0,0,1-1.957,1.956" transform="translate(-41.064 -43.553)" fill="#03386e"/>
            <path id="Trazado_215014" data-name="Trazado 215014" d="M171.624,175.912H142.277a1.956,1.956,0,1,1,0-3.913h29.347a1.956,1.956,0,1,1,0,3.913" transform="translate(-44.453 -54.489)" fill="#03386e"/>
            <path id="Trazado_215015" data-name="Trazado 215015" d="M142.107,129.754a14.674,14.674,0,1,1,14.674-14.674,14.69,14.69,0,0,1-14.674,14.674m0-25.434a10.761,10.761,0,1,0,10.76,10.76,10.772,10.772,0,0,0-10.76-10.76" transform="translate(-40.37 -31.809)" fill="#03386e"/>
          </g>
        </g>
      </g>
    </g>
  </g>
</svg>
