<svg xmlns="http://www.w3.org/2000/svg" xmlns:xlink="http://www.w3.org/1999/xlink" width="190" height="163" viewBox="0 0 190 163">
  <defs>
    <clipPath id="clip-path">
      <rect id="Rectángulo_291297" data-name="Rectángulo 291297" width="121.191" height="120.362" fill="#03386e"/>
    </clipPath>
  </defs>
  <g id="Grupo_872046" data-name="Grupo 872046" transform="translate(6194 2090)">
    <g id="Grupo_870601" data-name="Grupo 870601" transform="translate(426 1185)">
      <g id="Grupo_870598" data-name="Grupo 870598">
        <g id="Grupo_870591" data-name="Grupo 870591" transform="translate(0 402)">
          <rect id="Rectángulo_291281" data-name="Rectángulo 291281" width="190" height="163" transform="translate(-6620 -3677)" fill="none"/>
          <rect id="Rectángulo_291283" data-name="Rectángulo 291283" width="50" height="52" transform="translate(-6480 -3677)" fill="#03386e"/>
          <text id="_05" data-name="05" transform="translate(-6453 -3640)" fill="#e1fbff" font-size="30" font-family="Roboto-Bold, Roboto" font-weight="700"><tspan x="-17.212" y="0">05</tspan></text>
        </g>
        <g id="Grupo_870602" data-name="Grupo 870602" transform="translate(-6595 -3247.36)">
          <g id="Grupo_870602-2" data-name="Grupo 870602" clip-path="url(#clip-path)">
            <path id="Trazado_215040" data-name="Trazado 215040" d="M113.7,60.181H22.52A1.824,1.824,0,0,1,20.7,58.357V1.823A1.824,1.824,0,0,1,22.52,0H113.7a1.823,1.823,0,0,1,1.823,1.823V58.357a1.824,1.824,0,0,1-1.823,1.824m-89.36-3.648H111.88V3.647H24.344Z" transform="translate(-7.516)" fill="#03386e"/>
            <path id="Trazado_215041" data-name="Trazado 215041" d="M1.824,175.466A1.824,1.824,0,0,1,0,173.642V165.7c0-8.1,5.365-13.971,12.756-13.971a1.824,1.824,0,0,1,0,3.648c-5.363,0-9.108,4.244-9.108,10.323v7.941a1.824,1.824,0,0,1-1.824,1.824" transform="translate(0 -55.104)" fill="#03386e"/>
            <path id="Trazado_215042" data-name="Trazado 215042" d="M75.7,175.466a1.824,1.824,0,0,1-1.824-1.824V165.7c0-6.079-3.745-10.323-9.108-10.323a1.824,1.824,0,1,1,0-3.648c7.391,0,12.756,5.875,12.756,13.971v7.941a1.824,1.824,0,0,1-1.824,1.824" transform="translate(-22.858 -55.104)" fill="#03386e"/>
            <path id="Trazado_215043" data-name="Trazado 215043" d="M64.765,182.883a1.824,1.824,0,0,1-1.824-1.824v-7.082a1.824,1.824,0,1,1,3.648,0v7.082a1.824,1.824,0,0,1-1.824,1.824" transform="translate(-22.858 -62.521)" fill="#03386e"/>
            <path id="Trazado_215044" data-name="Trazado 215044" d="M18.99,182.883a1.824,1.824,0,0,1-1.824-1.824v-7.082a1.824,1.824,0,1,1,3.648,0v7.082a1.824,1.824,0,0,1-1.824,1.824" transform="translate(-6.234 -62.521)" fill="#03386e"/>
            <path id="Trazado_215045" data-name="Trazado 215045" d="M35.124,133.288A13.667,13.667,0,1,1,48.79,119.622a13.681,13.681,0,0,1-13.666,13.666m0-23.686a10.019,10.019,0,1,0,10.019,10.019A10.03,10.03,0,0,0,35.124,109.6" transform="translate(-7.793 -38.48)" fill="#03386e"/>
            <path id="Trazado_215046" data-name="Trazado 215046" d="M128.62,175.466a1.824,1.824,0,0,1-1.824-1.824V165.7c0-6.079-3.745-10.323-9.108-10.323a1.824,1.824,0,0,1,0-3.648c7.391,0,12.756,5.875,12.756,13.971v7.941a1.824,1.824,0,0,1-1.824,1.824" transform="translate(-42.078 -55.104)" fill="#03386e"/>
            <path id="Trazado_215047" data-name="Trazado 215047" d="M117.688,182.883a1.824,1.824,0,0,1-1.824-1.824v-7.082a1.824,1.824,0,1,1,3.648,0v7.082a1.824,1.824,0,0,1-1.824,1.824" transform="translate(-42.078 -62.521)" fill="#03386e"/>
            <path id="Trazado_215048" data-name="Trazado 215048" d="M88.046,133.288a13.667,13.667,0,1,1,13.666-13.666,13.682,13.682,0,0,1-13.666,13.666m0-23.686a10.019,10.019,0,1,0,10.019,10.019A10.031,10.031,0,0,0,88.046,109.6" transform="translate(-27.013 -38.48)" fill="#03386e"/>
            <path id="Trazado_215049" data-name="Trazado 215049" d="M180.166,175.466a1.824,1.824,0,0,1-1.824-1.824V165.7c0-6.079-3.745-10.323-9.108-10.323a1.824,1.824,0,0,1,0-3.648c7.391,0,12.756,5.875,12.756,13.971v7.941a1.824,1.824,0,0,1-1.824,1.824" transform="translate(-60.799 -55.104)" fill="#03386e"/>
            <path id="Trazado_215050" data-name="Trazado 215050" d="M169.234,182.883a1.824,1.824,0,0,1-1.824-1.824v-7.082a1.824,1.824,0,1,1,3.648,0v7.082a1.824,1.824,0,0,1-1.824,1.824" transform="translate(-60.798 -62.521)" fill="#03386e"/>
            <path id="Trazado_215051" data-name="Trazado 215051" d="M139.592,133.288a13.667,13.667,0,1,1,13.666-13.666,13.682,13.682,0,0,1-13.666,13.666m0-23.686a10.019,10.019,0,1,0,10.019,10.019A10.03,10.03,0,0,0,139.592,109.6" transform="translate(-45.732 -38.48)" fill="#03386e"/>
            <path id="Trazado_215052" data-name="Trazado 215052" d="M43.35,68.215a5.471,5.471,0,1,1,5.471-5.47,5.477,5.477,0,0,1-5.471,5.47m0-7.295a1.824,1.824,0,1,0,1.823,1.825A1.826,1.826,0,0,0,43.35,60.92" transform="translate(-13.756 -20.8)" fill="#03386e"/>
            <path id="Trazado_215053" data-name="Trazado 215053" d="M77.714,33.851a5.471,5.471,0,1,1,5.47-5.471,5.477,5.477,0,0,1-5.47,5.471m0-7.295a1.824,1.824,0,1,0,1.824,1.824,1.827,1.827,0,0,0-1.824-1.824" transform="translate(-26.236 -8.319)" fill="#03386e"/>
            <path id="Trazado_215054" data-name="Trazado 215054" d="M140.715,33.851a5.471,5.471,0,1,1,5.47-5.471,5.477,5.477,0,0,1-5.47,5.471m0-7.295a1.824,1.824,0,1,0,1.823,1.824,1.826,1.826,0,0,0-1.823-1.824" transform="translate(-49.116 -8.319)" fill="#03386e"/>
            <path id="Trazado_215055" data-name="Trazado 215055" d="M109.214,68.215a5.471,5.471,0,1,1,5.471-5.47,5.477,5.477,0,0,1-5.471,5.47m0-7.295a1.824,1.824,0,1,0,1.824,1.825,1.826,1.826,0,0,0-1.824-1.825" transform="translate(-37.676 -20.8)" fill="#03386e"/>
            <path id="Trazado_215056" data-name="Trazado 215056" d="M51.157,52.08a1.824,1.824,0,0,1-1.29-3.113l15.5-15.5a1.824,1.824,0,0,1,2.579,2.579l-15.5,15.5a1.818,1.818,0,0,1-1.29.534" transform="translate(-17.916 -11.96)" fill="#03386e"/>
            <path id="Trazado_215057" data-name="Trazado 215057" d="M99.59,52.08a1.818,1.818,0,0,1-1.29-.534l-15.5-15.5a1.824,1.824,0,0,1,2.579-2.579l15.5,15.5a1.824,1.824,0,0,1-1.29,3.113" transform="translate(-29.876 -11.96)" fill="#03386e"/>
            <path id="Trazado_215058" data-name="Trazado 215058" d="M115.589,53.512A1.824,1.824,0,0,1,114.3,50.4l15.5-15.5a1.824,1.824,0,0,1,2.579,2.579l-15.5,15.5a1.818,1.818,0,0,1-1.29.534" transform="translate(-41.316 -12.48)" fill="#03386e"/>
          </g>
        </g>
      </g>
    </g>
  </g>
</svg>
