<svg xmlns="http://www.w3.org/2000/svg" xmlns:xlink="http://www.w3.org/1999/xlink" width="325" height="389" viewBox="0 0 325 389">
  <defs>
    <clipPath id="clip-path">
      <rect id="Rectángulo_291369" data-name="Rectángulo 291369" width="263.007" height="269.396" fill="#fff"/>
    </clipPath>
    <clipPath id="clip-path-2">
      <rect id="Rectángulo_291371" data-name="Rectángulo 291371" width="96.416" height="131.071" fill="none"/>
    </clipPath>
    <clipPath id="clip-path-3">
      <rect id="Rectángulo_291404" data-name="Rectángulo 291404" width="199.277" height="253.394" fill="none"/>
    </clipPath>
    <clipPath id="clip-path-5">
      <rect id="Rectángulo_291402" data-name="Rectángulo 291402" width="27.547" height="80.472" fill="none"/>
    </clipPath>
  </defs>
  <g id="Grupo_872047" data-name="Grupo 872047" transform="translate(-990 -9263.5)">
    <path id="Trazado_217940" data-name="Trazado 217940" d="M0,0H325V389H0Z" transform="translate(990 9263.5)" fill="#fef5e5"/>
    <path id="Trazado_217941" data-name="Trazado 217941" d="M128.7,13.061h-4.781V18h-2.49V5.914H129.3V7.931h-5.379v3.121H128.7Zm7.081,4.026a3.008,3.008,0,0,1-2.457,1.079,2.837,2.837,0,0,1-2.2-.83,3.543,3.543,0,0,1-.776-2.432V9.019h2.4v5.809q0,1.4,1.278,1.4a1.732,1.732,0,0,0,1.677-.848V9.019h2.407V18h-2.258Zm6.342-8.068.075,1.038a3.136,3.136,0,0,1,2.582-1.2,2.606,2.606,0,0,1,2.125.838,3.912,3.912,0,0,1,.714,2.507V18h-2.4V12.256a1.556,1.556,0,0,0-.332-1.108,1.486,1.486,0,0,0-1.1-.344,1.65,1.65,0,0,0-1.519.863V18h-2.4V9.019Zm11.048,7.213a1.573,1.573,0,0,0,1.079-.365,1.28,1.28,0,0,0,.432-.971h2.25a3.077,3.077,0,0,1-.5,1.673,3.286,3.286,0,0,1-1.341,1.179,4.2,4.2,0,0,1-1.88.419,3.9,3.9,0,0,1-3.038-1.224,4.845,4.845,0,0,1-1.112-3.383V13.4a4.79,4.79,0,0,1,1.1-3.312,3.854,3.854,0,0,1,3.03-1.237,3.778,3.778,0,0,1,2.7.959,3.4,3.4,0,0,1,1.033,2.552h-2.25a1.648,1.648,0,0,0-.432-1.139,1.6,1.6,0,0,0-2.362.173,3.541,3.541,0,0,0-.427,1.983v.249a3.586,3.586,0,0,0,.423,2A1.463,1.463,0,0,0,153.175,16.232ZM160.837,18H158.43V9.019h2.407ZM158.289,6.694a1.181,1.181,0,0,1,.361-.888,1.556,1.556,0,0,1,1.963,0,1.175,1.175,0,0,1,.365.888,1.178,1.178,0,0,1-.369.9,1.539,1.539,0,0,1-1.951,0A1.178,1.178,0,0,1,158.289,6.694Zm4.15,6.732a5.327,5.327,0,0,1,.515-2.382,3.767,3.767,0,0,1,1.482-1.619,4.323,4.323,0,0,1,2.245-.573,4.09,4.09,0,0,1,2.968,1.112,4.464,4.464,0,0,1,1.282,3.021l.017.614a4.694,4.694,0,0,1-1.154,3.316,4.472,4.472,0,0,1-6.2,0,4.777,4.777,0,0,1-1.158-3.387Zm2.4.17a3.357,3.357,0,0,0,.481,1.958,1.73,1.73,0,0,0,2.739.008,3.674,3.674,0,0,0,.49-2.141,3.324,3.324,0,0,0-.49-1.945,1.592,1.592,0,0,0-1.378-.69,1.566,1.566,0,0,0-1.361.686A3.735,3.735,0,0,0,164.838,13.6Zm9.795-4.578.075,1.038a3.136,3.136,0,0,1,2.582-1.2,2.606,2.606,0,0,1,2.125.838,3.912,3.912,0,0,1,.714,2.507V18h-2.4V12.256a1.556,1.556,0,0,0-.332-1.108,1.486,1.486,0,0,0-1.1-.344,1.65,1.65,0,0,0-1.519.863V18h-2.4V9.019ZM187.15,18a2.664,2.664,0,0,1-.241-.805,2.9,2.9,0,0,1-2.266.971,3.189,3.189,0,0,1-2.187-.764,2.456,2.456,0,0,1-.867-1.926,2.538,2.538,0,0,1,1.058-2.191,5.222,5.222,0,0,1,3.059-.772h1.1V12a1.48,1.48,0,0,0-.32-1,1.257,1.257,0,0,0-1.009-.374,1.429,1.429,0,0,0-.95.291.987.987,0,0,0-.344.8h-2.4a2.41,2.41,0,0,1,.481-1.444,3.182,3.182,0,0,1,1.361-1.042,4.961,4.961,0,0,1,1.976-.378,3.92,3.92,0,0,1,2.635.834,2.918,2.918,0,0,1,.975,2.345v3.893a4.294,4.294,0,0,0,.357,1.934V18Zm-1.984-1.668a2.066,2.066,0,0,0,.979-.237,1.554,1.554,0,0,0,.664-.635V13.916h-.9q-1.8,0-1.917,1.245l-.008.141a.96.96,0,0,0,.315.739A1.225,1.225,0,0,0,185.167,16.332ZM193.592,18h-2.407V5.25h2.407Z" transform="translate(1000 9576.5)" fill="#12263f"/>
    <g id="Grupo_870717" data-name="Grupo 870717" transform="translate(1021 9288.498)">
      <g id="Grupo_870714" data-name="Grupo 870714" clip-path="url(#clip-path)">
        <path id="Trazado_215321" data-name="Trazado 215321" d="M20.023,131.069C52.9,104.227-4.03,60.911,8.574,18.069s54.2,1.2,76.578,22.311S133.76,23.724,151.146,22.71s7.6,15.491,15.444,36.87,65.644,3.624,88.818,24.274-13.745,64.593-16.853,90.8S275.36,230.5,249.788,269.4l-127.04-.769c-12.783-4.024-21.122-7.213-21.122-7.213-118.932-52.6-114.474-103.5-81.6-130.345" transform="translate(0 0)" fill="#fff"/>
      </g>
    </g>
    <path id="Trazado_215324" data-name="Trazado 215324" d="M15.822,0,12.184,3.637,22.9,14.356,12.184,25.074l3.637,3.637L30.177,14.356Z" transform="translate(1137.999 9642.831) rotate(-90)" fill="#fcc15a"/>
    <path id="Trazado_215326" data-name="Trazado 215326" d="M231.347,583.768c0,4.059-45.727,7.35-102.134,7.35S27.08,587.827,27.08,583.768s45.753-4.533,102.16-4.533,102.107.473,102.107,4.533" transform="translate(1022.92 8966.775)" fill="#fcc15a" opacity="0.31"/>
    <g id="Grupo_870720" data-name="Grupo 870720" transform="translate(1028.584 9417.939)">
      <g id="Grupo_870718" data-name="Grupo 870718" clip-path="url(#clip-path-2)">
        <path id="Trazado_215327" data-name="Trazado 215327" d="M192.892,173.158a6.773,6.773,0,0,0,8.918-.322,6.772,6.772,0,0,0-8.918.322" transform="translate(-115.465 -102.549)" fill="#e1efe3"/>
        <path id="Trazado_215328" data-name="Trazado 215328" d="M24.6,123.988a64.584,64.584,0,0,1,7.658,5.077,86.2,86.2,0,0,1,7.006,5.953,91.091,91.091,0,0,1,6.361,6.647,90.339,90.339,0,0,1,5.625,7.29,85.856,85.856,0,0,1,8.784,16.185,89.53,89.53,0,0,1,5.084,17.731l-1.3.218a88.345,88.345,0,0,0-4.743-17.565,85.021,85.021,0,0,0-8.444-16.145,90.033,90.033,0,0,0-5.469-7.319,90.828,90.828,0,0,0-6.219-6.7,86.029,86.029,0,0,0-6.882-6.032,64.4,64.4,0,0,0-7.546-5.172Z" transform="translate(-14.674 -74.219)" fill="#359547"/>
        <path id="Trazado_215329" data-name="Trazado 215329" d="M0,106.406a8.382,8.382,0,0,0,3.767,5.9,8.378,8.378,0,0,0,6.825,1.553,8.38,8.38,0,0,0-3.767-5.9A8.381,8.381,0,0,0,0,106.406" transform="translate(0 -63.566)" fill="#359547"/>
        <path id="Trazado_215330" data-name="Trazado 215330" d="M34.543,102.413a9.218,9.218,0,0,0,.742,12.93,9.219,9.219,0,0,0-.742-12.93" transform="translate(-19.301 -61.304)" fill="#359547"/>
        <path id="Trazado_215331" data-name="Trazado 215331" d="M54.131,113.666A9.218,9.218,0,0,0,51.4,126.327a9.218,9.218,0,0,0,2.727-12.661" transform="translate(-29.891 -68.04)" fill="#359547"/>
        <path id="Trazado_215332" data-name="Trazado 215332" d="M69.251,127.577a9.218,9.218,0,0,0-2.727,12.661,9.219,9.219,0,0,0,2.727-12.661" transform="translate(-38.941 -76.367)" fill="#359547"/>
        <path id="Trazado_215333" data-name="Trazado 215333" d="M83.378,141.875A9.218,9.218,0,0,0,77.5,153.417a9.218,9.218,0,0,0,5.875-11.542" transform="translate(-46.081 -84.926)" fill="#359547"/>
        <path id="Trazado_215334" data-name="Trazado 215334" d="M93.628,159.77a8.233,8.233,0,0,0-7.678,8.652,8.234,8.234,0,0,0,7.678-8.652" transform="translate(-51.411 -95.635)" fill="#359547"/>
        <path id="Trazado_215335" data-name="Trazado 215335" d="M102.522,171.025a8.233,8.233,0,0,0-7.678,8.652,8.233,8.233,0,0,0,7.678-8.652" transform="translate(-56.735 -102.372)" fill="#359547"/>
        <path id="Trazado_215336" data-name="Trazado 215336" d="M109.251,187.625a7.057,7.057,0,0,0-6.581,7.416,7.057,7.057,0,0,0,6.581-7.416" transform="translate(-61.425 -112.31)" fill="#359547"/>
        <path id="Trazado_215337" data-name="Trazado 215337" d="M112.483,204.16a5.975,5.975,0,0,0-7.774,3,5.975,5.975,0,0,0,7.774-3" transform="translate(-62.679 -121.896)" fill="#359547"/>
        <path id="Trazado_215338" data-name="Trazado 215338" d="M116.121,217.4a4.788,4.788,0,0,0-6.671.289,4.788,4.788,0,0,0,6.671-.289" transform="translate(-65.516 -129.406)" fill="#359547"/>
        <path id="Trazado_215339" data-name="Trazado 215339" d="M9.374,136.891a8.378,8.378,0,0,0,6.989.395,8.381,8.381,0,0,0,5.251-4.629,8.382,8.382,0,0,0-6.988-.395,8.378,8.378,0,0,0-5.251,4.628" transform="translate(-5.611 -78.835)" fill="#359547"/>
        <path id="Trazado_215340" data-name="Trazado 215340" d="M23.137,148.217a8.381,8.381,0,0,0,6.989.395,8.382,8.382,0,0,0,5.251-4.629,8.38,8.38,0,0,0-6.989-.395,8.38,8.38,0,0,0-5.251,4.629" transform="translate(-13.85 -85.614)" fill="#359547"/>
        <path id="Trazado_215341" data-name="Trazado 215341" d="M37.808,162.182a8.38,8.38,0,0,0,6.989.395,8.382,8.382,0,0,0,5.251-4.629,8.381,8.381,0,0,0-6.989-.395,8.38,8.38,0,0,0-5.251,4.629" transform="translate(-22.632 -93.974)" fill="#359547"/>
        <path id="Trazado_215342" data-name="Trazado 215342" d="M54.368,172.919a7.5,7.5,0,0,0,9.955-3.444,7.5,7.5,0,0,0-9.955,3.444" transform="translate(-32.545 -100.981)" fill="#359547"/>
        <path id="Trazado_215343" data-name="Trazado 215343" d="M66.769,182.922a5.889,5.889,0,0,0,8.041-2.782,5.889,5.889,0,0,0-8.041,2.782" transform="translate(-39.968 -107.422)" fill="#359547"/>
        <path id="Trazado_215344" data-name="Trazado 215344" d="M74.177,194.331a5.889,5.889,0,0,0,8.041-2.782,5.889,5.889,0,0,0-8.041,2.782" transform="translate(-44.402 -114.251)" fill="#359547"/>
        <path id="Trazado_215345" data-name="Trazado 215345" d="M82.3,206.428a5.872,5.872,0,0,0,7.893-1.279,5.872,5.872,0,0,0-7.893,1.279" transform="translate(-49.262 -122.204)" fill="#359547"/>
        <path id="Trazado_215346" data-name="Trazado 215346" d="M90.144,216.729a5.1,5.1,0,0,0,5.817-3.972,5.1,5.1,0,0,0-5.817,3.972" transform="translate(-53.96 -127.284)" fill="#359547"/>
        <path id="Trazado_215347" data-name="Trazado 215347" d="M98.87,224.894a3.9,3.9,0,0,0,3.808-3.812,3.9,3.9,0,0,0-3.808,3.812" transform="translate(-59.178 -132.333)" fill="#359547"/>
        <path id="Trazado_215348" data-name="Trazado 215348" d="M104.655,229.124a2.183,2.183,0,0,0,2.329-2.331,2.183,2.183,0,0,0-2.329,2.331" transform="translate(-62.636 -135.747)" fill="#359547"/>
        <path id="Trazado_215349" data-name="Trazado 215349" d="M106.524,232.964a2.182,2.182,0,0,0,2.329-2.331,2.182,2.182,0,0,0-2.329,2.331" transform="translate(-63.754 -138.045)" fill="#359547"/>
        <path id="Trazado_215350" data-name="Trazado 215350" d="M172.646,57.347a84.315,84.315,0,0,0-7.344,9.5,112.266,112.266,0,0,0-6.17,10.308,113.373,113.373,0,0,0-8.978,22.282,112.269,112.269,0,0,0-4.073,23.717,117.015,117.015,0,0,0,1.157,24.077l1.7-.278a115.424,115.424,0,0,1-1.507-23.728A111.124,111.124,0,0,1,151.1,99.7a112.55,112.55,0,0,1,8.574-22.262,111.868,111.868,0,0,1,5.982-10.355,84.046,84.046,0,0,1,7.165-9.571Z" transform="translate(-87.337 -34.328)" fill="#b8dabe"/>
        <path id="Trazado_215351" data-name="Trazado 215351" d="M220.632,25.6c.68,2.589-.051,5.962-2.183,8.883s-5.121,4.647-7.794,4.788c-.681-2.589.051-5.962,2.182-8.883s5.121-4.647,7.794-4.789" transform="translate(-125.951 -15.325)" fill="#b8dabe"/>
        <path id="Trazado_215352" data-name="Trazado 215352" d="M184.716,36.212c2.451,1.076,4.64,3.744,5.6,7.23s.459,6.9-1.091,9.082c-2.451-1.076-4.639-3.745-5.6-7.23s-.459-6.9,1.091-9.082" transform="translate(-109.624 -21.676)" fill="#b8dabe"/>
        <path id="Trazado_215353" data-name="Trazado 215353" d="M163.371,59.552c2.649.384,5.469,2.374,7.326,5.477s2.28,6.529,1.366,9.045c-2.649-.384-5.469-2.374-7.326-5.477s-2.279-6.529-1.366-9.045" transform="translate(-97.516 -35.648)" fill="#b8dabe"/>
        <path id="Trazado_215354" data-name="Trazado 215354" d="M150.5,83.117c2.649.384,5.469,2.374,7.326,5.477s2.279,6.529,1.366,9.045c-2.649-.384-5.469-2.374-7.326-5.477s-2.279-6.529-1.366-9.045" transform="translate(-89.813 -49.754)" fill="#b8dabe"/>
        <path id="Trazado_215355" data-name="Trazado 215355" d="M135.619,108.052c2.659-.307,5.895.9,8.484,3.42s3.874,5.728,3.635,8.395c-2.659.306-5.894-.9-8.484-3.421s-3.874-5.728-3.635-8.394" transform="translate(-81.164 -64.652)" fill="#b8dabe"/>
        <path id="Trazado_215356" data-name="Trazado 215356" d="M128.012,134.719a10.759,10.759,0,0,1,13.135,7.481,10.758,10.758,0,0,1-13.135-7.481" transform="translate(-76.628 -80.361)" fill="#b8dabe"/>
        <path id="Trazado_215357" data-name="Trazado 215357" d="M121.731,152.383a10.759,10.759,0,0,1,13.135,7.481,10.759,10.759,0,0,1-13.135-7.481" transform="translate(-72.868 -90.934)" fill="#b8dabe"/>
        <path id="Trazado_215358" data-name="Trazado 215358" d="M122.419,175.158a9.222,9.222,0,0,1,11.259,6.412,9.222,9.222,0,0,1-11.259-6.412" transform="translate(-73.28 -104.607)" fill="#b8dabe"/>
        <path id="Trazado_215359" data-name="Trazado 215359" d="M123.589,196.276a7.808,7.808,0,0,1,10.88.444,7.808,7.808,0,0,1-10.88-.444" transform="translate(-73.98 -116.296)" fill="#b8dabe"/>
        <path id="Trazado_215360" data-name="Trazado 215360" d="M127.119,212.964a6.257,6.257,0,0,1,8.376-2.445,6.257,6.257,0,0,1-8.376,2.445" transform="translate(-76.093 -125.561)" fill="#b8dabe"/>
        <path id="Trazado_215361" data-name="Trazado 215361" d="M214.96,71.194c-1.7,2.066-4.865,3.445-8.482,3.424s-6.764-1.437-8.442-3.522c1.7-2.066,4.865-3.445,8.482-3.424s6.764,1.436,8.442,3.522" transform="translate(-118.544 -40.508)" fill="#b8dabe"/>
        <path id="Trazado_215362" data-name="Trazado 215362" d="M202.686,90.991c-1.7,2.066-4.865,3.445-8.482,3.424s-6.764-1.437-8.442-3.522c1.7-2.066,4.866-3.445,8.482-3.424s6.764,1.437,8.442,3.522" transform="translate(-111.197 -52.358)" fill="#b8dabe"/>
        <path id="Trazado_215363" data-name="Trazado 215363" d="M190.4,114.435c-1.7,2.066-4.865,3.445-8.482,3.424s-6.764-1.437-8.442-3.522c1.7-2.066,4.866-3.445,8.483-3.424s6.764,1.437,8.442,3.522" transform="translate(-103.84 -66.392)" fill="#b8dabe"/>
        <path id="Trazado_215364" data-name="Trazado 215364" d="M178.519,133.867a9.8,9.8,0,0,1-13.765-.08,9.8,9.8,0,0,1,13.765.08" transform="translate(-98.621 -78.417)" fill="#b8dabe"/>
        <path id="Trazado_215365" data-name="Trazado 215365" d="M170.847,150.738a7.7,7.7,0,0,1-11.119-.064,7.7,7.7,0,0,1,11.119.064" transform="translate(-95.613 -88.79)" fill="#b8dabe"/>
        <path id="Trazado_215366" data-name="Trazado 215366" d="M166.472,167.968a7.7,7.7,0,0,1-11.119-.065,7.7,7.7,0,0,1,11.119.065" transform="translate(-92.994 -99.104)" fill="#b8dabe"/>
        <path id="Trazado_215367" data-name="Trazado 215367" d="M161.976,185.836a7.673,7.673,0,0,1-10.3,1.733,7.673,7.673,0,0,1,10.3-1.733" transform="translate(-90.79 -110.474)" fill="#b8dabe"/>
        <path id="Trazado_215368" data-name="Trazado 215368" d="M159.871,202.227A6.661,6.661,0,0,1,151,199.755a6.661,6.661,0,0,1,8.868,2.472" transform="translate(-90.39 -119.082)" fill="#b8dabe"/>
        <path id="Trazado_215369" data-name="Trazado 215369" d="M156.124,215.341a5.1,5.1,0,0,1-6.313-3.118,5.094,5.094,0,0,1,6.313,3.118" transform="translate(-89.676 -126.868)" fill="#b8dabe"/>
        <path id="Trazado_215370" data-name="Trazado 215370" d="M153.463,222.158a2.852,2.852,0,0,1-3.86-1.906,2.852,2.852,0,0,1,3.86,1.906" transform="translate(-89.552 -131.697)" fill="#b8dabe"/>
        <path id="Trazado_215371" data-name="Trazado 215371" d="M152.763,227.694a2.852,2.852,0,0,1-3.861-1.906,2.852,2.852,0,0,1,3.861,1.906" transform="translate(-89.132 -135.011)" fill="#b8dabe"/>
        <path id="Trazado_215372" data-name="Trazado 215372" d="M69.356,35.407a91.024,91.024,0,0,1,7.41,10.615,121.223,121.223,0,0,1,6.1,11.424,128.29,128.29,0,0,1,4.9,12,127.313,127.313,0,0,1,3.6,12.463,121,121,0,0,1,3.141,25.752A126.076,126.076,0,0,1,92,133.527l-1.818-.388a124.458,124.458,0,0,0,2.866-25.471,119.733,119.733,0,0,0-2.715-25.525,126.372,126.372,0,0,0-3.382-12.42,127.667,127.667,0,0,0-4.683-12,120.887,120.887,0,0,0-5.9-11.464,90.737,90.737,0,0,0-7.213-10.681Z" transform="translate(-41.398 -21.195)" fill="#359547"/>
        <path id="Trazado_215373" data-name="Trazado 215373" d="M45.6,0c-.868,2.752-.258,6.422,1.885,9.68s5.271,5.272,8.142,5.565c.868-2.752.257-6.422-1.885-9.68S48.474.293,45.6,0" transform="translate(-27.07)" fill="#359547"/>
        <path id="Trazado_215374" data-name="Trazado 215374" d="M87.513,13.983c-2.7,1.03-5.192,3.788-6.413,7.492s-.855,7.405.7,9.837c2.7-1.03,5.191-3.789,6.413-7.491s.856-7.406-.7-9.837" transform="translate(-48.11 -8.37)" fill="#359547"/>
        <path id="Trazado_215375" data-name="Trazado 215375" d="M106.082,40.322c-2.872.275-6.013,2.27-8.176,5.514s-2.8,6.911-1.946,9.668c2.872-.275,6.013-2.27,8.176-5.514s2.8-6.911,1.946-9.668" transform="translate(-57.223 -24.137)" fill="#359547"/>
        <path id="Trazado_215376" data-name="Trazado 215376" d="M118.7,66.372c-2.872.275-6.013,2.27-8.176,5.514s-2.8,6.911-1.946,9.668c2.872-.275,6.013-2.27,8.176-5.514s2.8-6.911,1.945-9.668" transform="translate(-64.777 -39.73)" fill="#359547"/>
        <path id="Trazado_215377" data-name="Trazado 215377" d="M129.364,93.956c-2.848-.469-6.394.655-9.315,3.239s-4.472,5.965-4.354,8.849c2.848.469,6.394-.655,9.315-3.239s4.472-5.965,4.354-8.849" transform="translate(-69.251 -56.179)" fill="#359547"/>
        <path id="Trazado_215378" data-name="Trazado 215378" d="M134.886,122.925a11.6,11.6,0,0,0-14.536,7.367,11.6,11.6,0,0,0,14.536-7.367" transform="translate(-72.041 -73.188)" fill="#359547"/>
        <path id="Trazado_215379" data-name="Trazado 215379" d="M140.722,142.275a11.6,11.6,0,0,0-14.536,7.367,11.6,11.6,0,0,0,14.536-7.367" transform="translate(-75.535 -84.77)" fill="#359547"/>
        <path id="Trazado_215380" data-name="Trazado 215380" d="M141.891,166.8a9.942,9.942,0,0,0-12.46,6.315,9.942,9.942,0,0,0,12.46-6.315" transform="translate(-77.477 -99.505)" fill="#359547"/>
        <path id="Trazado_215381" data-name="Trazado 215381" d="M140.473,189.249a8.419,8.419,0,0,0-11.739-.092,8.418,8.418,0,0,0,11.739.092" transform="translate(-77.06 -111.829)" fill="#359547"/>
        <path id="Trazado_215382" data-name="Trazado 215382" d="M139.951,207a6.745,6.745,0,0,0-8.891-3.072A6.745,6.745,0,0,0,139.951,207" transform="translate(-78.452 -121.664)" fill="#359547"/>
        <path id="Trazado_215383" data-name="Trazado 215383" d="M38.852,49.507c1.724,2.314,5.058,3.965,8.954,4.132s7.359-1.192,9.275-3.35c-1.725-2.313-5.06-3.965-8.955-4.132s-7.359,1.193-9.275,3.35" transform="translate(-23.257 -27.621)" fill="#359547"/>
        <path id="Trazado_215384" data-name="Trazado 215384" d="M51.03,71.467c1.724,2.314,5.058,3.965,8.954,4.132s7.359-1.193,9.275-3.35c-1.724-2.313-5.058-3.965-8.954-4.132s-7.359,1.193-9.275,3.35" transform="translate(-30.546 -40.767)" fill="#359547"/>
        <path id="Trazado_215385" data-name="Trazado 215385" d="M63.034,97.356c1.724,2.314,5.059,3.965,8.954,4.132s7.359-1.193,9.275-3.351c-1.724-2.313-5.058-3.965-8.954-4.132s-7.359,1.193-9.275,3.35" transform="translate(-37.732 -56.264)" fill="#359547"/>
        <path id="Trazado_215386" data-name="Trazado 215386" d="M79.93,119.031a10.562,10.562,0,0,0,14.827.636,10.562,10.562,0,0,0-14.827-.636" transform="translate(-47.846 -69.614)" fill="#359547"/>
        <path id="Trazado_215387" data-name="Trazado 215387" d="M91.591,137.708a8.3,8.3,0,0,0,11.977.513,8.3,8.3,0,0,0-11.977-.513" transform="translate(-54.826 -81.05)" fill="#359547"/>
        <path id="Trazado_215388" data-name="Trazado 215388" d="M95.4,156.49a8.3,8.3,0,0,0,11.977.514A8.3,8.3,0,0,0,95.4,156.49" transform="translate(-57.106 -92.292)" fill="#359547"/>
        <path id="Trazado_215389" data-name="Trazado 215389" d="M100.7,175.909a8.273,8.273,0,0,0,11,2.406,8.273,8.273,0,0,0-11-2.406" transform="translate(-60.279 -104.594)" fill="#359547"/>
        <path id="Trazado_215390" data-name="Trazado 215390" d="M104.259,193.93a7.181,7.181,0,0,0,9.678-2.2,7.18,7.18,0,0,0-9.678,2.2" transform="translate(-62.409 -114.145)" fill="#359547"/>
        <path id="Trazado_215391" data-name="Trazado 215391" d="M111.7,208.372a5.492,5.492,0,0,0,6.962-3.026,5.492,5.492,0,0,0-6.962,3.026" transform="translate(-66.862 -122.689)" fill="#359547"/>
        <path id="Trazado_215392" data-name="Trazado 215392" d="M118.243,215.886a3.074,3.074,0,0,0,4.256-1.85,3.075,3.075,0,0,0-4.256,1.85" transform="translate(-70.78 -127.93)" fill="#359547"/>
        <path id="Trazado_215393" data-name="Trazado 215393" d="M118.706,221.884a3.074,3.074,0,0,0,4.257-1.85,3.075,3.075,0,0,0-4.257,1.85" transform="translate(-71.057 -131.52)" fill="#359547"/>
        <path id="Trazado_215394" data-name="Trazado 215394" d="M147.66,182.516c4.074-5.97,8.367-11.8,12.946-17.4l-.075-.064c-4.7,5.51-9.11,11.258-13.314,17.157a207.232,207.232,0,0,0-11.708,18.32q-1.287,2.3-2.5,4.649c.317.177.632.354.945.536q1.166-2.378,2.414-4.715a206.434,206.434,0,0,1,11.291-18.483" transform="translate(-79.619 -98.799)" fill="#e1efe3"/>
        <path id="Trazado_215395" data-name="Trazado 215395" d="M205.678,146.242a5.9,5.9,0,0,0-4.6,7.649,5.9,5.9,0,0,0,4.6-7.649" transform="translate(-120.163 -87.54)" fill="#e1efe3"/>
        <path id="Trazado_215396" data-name="Trazado 215396" d="M184.435,154.928a6.772,6.772,0,0,0,3.216,8.323,6.773,6.773,0,0,0-3.216-8.323" transform="translate(-110.123 -92.739)" fill="#e1efe3"/>
        <path id="Trazado_215397" data-name="Trazado 215397" d="M184.189,184.152a6.774,6.774,0,0,0,8.84-1.218,6.772,6.772,0,0,0-8.84,1.218" transform="translate(-110.255 -108.829)" fill="#e1efe3"/>
        <path id="Trazado_215398" data-name="Trazado 215398" d="M172.958,198.651a6.773,6.773,0,0,0,8.839-1.218,6.771,6.771,0,0,0-8.839,1.218" transform="translate(-103.532 -117.508)" fill="#e1efe3"/>
        <path id="Trazado_215399" data-name="Trazado 215399" d="M165.329,210.2a6.773,6.773,0,0,0,8.84-1.218,6.773,6.773,0,0,0-8.84,1.218" transform="translate(-98.965 -124.421)" fill="#e1efe3"/>
        <path id="Trazado_215400" data-name="Trazado 215400" d="M156.87,222.948a6.772,6.772,0,0,0,8.84-1.218,6.772,6.772,0,0,0-8.84,1.218" transform="translate(-93.902 -132.053)" fill="#e1efe3"/>
        <path id="Trazado_215401" data-name="Trazado 215401" d="M174.658,167.368a6.773,6.773,0,0,0,3.216,8.324,6.773,6.773,0,0,0-3.216-8.324" transform="translate(-104.271 -100.186)" fill="#e1efe3"/>
        <path id="Trazado_215402" data-name="Trazado 215402" d="M165.313,180.171a6.772,6.772,0,0,0,3.216,8.323,6.773,6.773,0,0,0-3.216-8.323" transform="translate(-98.677 -107.85)" fill="#e1efe3"/>
        <path id="Trazado_215403" data-name="Trazado 215403" d="M156.42,193.078a6.772,6.772,0,0,0,3.216,8.323,6.773,6.773,0,0,0-3.216-8.323" transform="translate(-93.354 -115.576)" fill="#e1efe3"/>
        <path id="Trazado_215404" data-name="Trazado 215404" d="M147.8,205.724a6.772,6.772,0,0,0,3.216,8.324,6.774,6.774,0,0,0-3.216-8.324" transform="translate(-88.195 -123.146)" fill="#e1efe3"/>
        <path id="Trazado_215405" data-name="Trazado 215405" d="M98.217,263.536h22.3a15.649,15.649,0,0,1-.769,25.287H98.985a15.649,15.649,0,0,1-.769-25.287" transform="translate(-55.167 -157.752)" fill="#c99a48"/>
        <path id="Trazado_215406" data-name="Trazado 215406" d="M103.5,270.381c-2.2-.4-5.144,2.2-5.9,7.443-1.037,10.342,5.548,13.379,9.142,10.754-3.131-1.236-6.556-3.5-6.657-8.586a14.308,14.308,0,0,1,.85-5.311,15.849,15.849,0,0,1,.944-1.989,12.983,12.983,0,0,1,1.626-2.31" transform="translate(-58.357 -161.825)" fill="#f8e000"/>
        <rect id="Rectángulo_291370" data-name="Rectángulo 291370" width="24.634" height="2.433" transform="translate(42.008 104.267)" fill="#0072c5"/>
      </g>
    </g>
    <g id="Grupo_870763" data-name="Grupo 870763" transform="translate(1042.432 9304.5)">
      <g id="Grupo_870762" data-name="Grupo 870762" clip-path="url(#clip-path-3)">
        <g id="Grupo_870761" data-name="Grupo 870761">
          <g id="Grupo_870760" data-name="Grupo 870760" clip-path="url(#clip-path-3)">
            <path id="Trazado_215501" data-name="Trazado 215501" d="M142.455,155.1H44.877a4.915,4.915,0,0,1-4.914-4.914V71.1a4.915,4.915,0,0,1,4.914-4.915h97.578a4.914,4.914,0,0,1,4.914,4.915V150.19a4.914,4.914,0,0,1-4.914,4.914" transform="translate(11.054 18.307)" fill="#778ba0"/>
            <path id="Trazado_215502" data-name="Trazado 215502" d="M139.161,152.154H46.9a4.645,4.645,0,0,1-4.646-4.646V72.729A4.645,4.645,0,0,1,46.9,68.083h92.258a4.645,4.645,0,0,1,4.646,4.646v74.78a4.645,4.645,0,0,1-4.646,4.646" transform="translate(11.689 18.833)" fill="#9fc4d1"/>
            <path id="Trazado_215503" data-name="Trazado 215503" d="M133.474,147.064H50.4a4.183,4.183,0,0,1-4.183-4.183V75.543A4.183,4.183,0,0,1,50.4,71.36h83.076a4.183,4.183,0,0,1,4.183,4.183v67.337a4.183,4.183,0,0,1-4.183,4.183" transform="translate(12.784 19.739)" fill="#e1efe3"/>
            <path id="Trazado_215504" data-name="Trazado 215504" d="M101.977,103.317l-4.026-8.248H73.478l-4.026,8.248Z" transform="translate(19.211 26.297)" fill="#b8dabe"/>
            <path id="Trazado_215505" data-name="Trazado 215505" d="M73.787,94.436H95.244l-4.026-8.248h-13.4Z" transform="translate(20.41 23.841)" fill="#359547"/>
            <path id="Trazado_215506" data-name="Trazado 215506" d="M108.71,112.2l-4.026-8.248H69.143L65.117,112.2Z" transform="translate(18.012 28.754)" fill="#b8dabe"/>
            <path id="Trazado_215507" data-name="Trazado 215507" d="M60.2,121.712l-2.777,5.69h63.231l-2.777-5.69Z" transform="translate(15.885 33.667)" fill="#6c706c"/>
            <path id="Trazado_215508" data-name="Trazado 215508" d="M88.511,86.074,83.316,75.431,78.122,86.074Z" transform="translate(21.61 20.865)" fill="#359547"/>
            <path id="Trazado_215509" data-name="Trazado 215509" d="M111.417,112.831H64.808l-4.026,8.248h54.662Z" transform="translate(16.813 31.21)" fill="#6c706c"/>
            <path id="Trazado_215510" data-name="Trazado 215510" d="M120.556,104.592H5.779A5.78,5.78,0,0,1,0,98.811V5.779A5.78,5.78,0,0,1,5.779,0H120.556a5.78,5.78,0,0,1,5.781,5.779V98.811a5.78,5.78,0,0,1-5.781,5.781" fill="#9fc4d1"/>
            <path id="Trazado_215511" data-name="Trazado 215511" d="M116.682,101.123H8.162A5.465,5.465,0,0,1,2.7,95.658V7.7A5.465,5.465,0,0,1,8.162,2.233h108.52A5.466,5.466,0,0,1,122.147,7.7v87.96a5.466,5.466,0,0,1-5.465,5.465" transform="translate(0.746 0.618)" fill="#778ba0"/>
            <path id="Trazado_215512" data-name="Trazado 215512" d="M109.993,95.136H12.274a4.921,4.921,0,0,1-4.921-4.921v-79.2a4.921,4.921,0,0,1,4.921-4.921h97.718a4.921,4.921,0,0,1,4.921,4.921v79.2a4.921,4.921,0,0,1-4.921,4.921" transform="translate(2.034 1.684)" fill="#eaecef"/>
            <rect id="Rectángulo_291389" data-name="Rectángulo 291389" width="2.358" height="64.051" transform="translate(21.076 23.012)" fill="#b9bcfc"/>
            <rect id="Rectángulo_291390" data-name="Rectángulo 291390" width="5.275" height="49.853" transform="translate(102.715 37.022)" fill="#359547"/>
            <rect id="Rectángulo_291391" data-name="Rectángulo 291391" width="5.275" height="41.813" transform="translate(93.872 45.062)" fill="#b8dabe"/>
            <rect id="Rectángulo_291392" data-name="Rectángulo 291392" width="5.275" height="33.124" transform="translate(85.571 53.75)" fill="#b8dabe"/>
            <rect id="Rectángulo_291393" data-name="Rectángulo 291393" width="5.275" height="33.124" transform="translate(77.271 53.75)" fill="#b8dabe"/>
            <rect id="Rectángulo_291394" data-name="Rectángulo 291394" width="5.275" height="31.194" transform="translate(68.97 55.681)" fill="#b8dabe"/>
            <rect id="Rectángulo_291395" data-name="Rectángulo 291395" width="5.275" height="22.729" transform="translate(60.67 64.146)" fill="#b8dabe"/>
            <rect id="Rectángulo_291396" data-name="Rectángulo 291396" width="5.275" height="15.598" transform="translate(52.369 71.277)" fill="#b8dabe"/>
            <rect id="Rectángulo_291397" data-name="Rectángulo 291397" width="5.275" height="13.11" transform="translate(44.069 73.765)" fill="#b8dabe"/>
            <rect id="Rectángulo_291398" data-name="Rectángulo 291398" width="5.275" height="13.11" transform="translate(35.768 73.765)" fill="#b8dabe"/>
            <rect id="Rectángulo_291399" data-name="Rectángulo 291399" width="5.275" height="6.066" transform="translate(27.468 80.808)" fill="#b8dabe"/>
            <path id="Trazado_215513" data-name="Trazado 215513" d="M104.518,29.14l-1.3-5.085L96.76,34.946l-16.853.987L59.079,54.7H44.244L21.429,78.152,19.2,75.99,42.934,51.6H57.888L78.64,32.9l16.292-.954,5.622-9.472-5.083,1.3,2.279-3.841,7.209-1.84L106.8,25.3Z" transform="translate(5.312 5.004)" fill="#fcc15a"/>
            <rect id="Rectángulo_291400" data-name="Rectángulo 291400" width="78.971" height="3.515" transform="translate(25.408 12.03)" fill="#afb0bc"/>
            <rect id="Rectángulo_291401" data-name="Rectángulo 291401" width="90.337" height="1.806" transform="translate(22.255 85.257)" fill="#b9bcfc"/>
            <path id="Trazado_215514" data-name="Trazado 215514" d="M114.708,68.254c-.454-2.311-2.766-11.911-2.766-15.185a23.489,23.489,0,0,1,1.468-8.694c1.129-3.275,0-8.128,0-8.128-.11-.537-1.411-2.06-1.863-1.609s.677,1.157.452,2.625-.862,1.086-1.214.733-.452-9.765-1.326-9.935-.536,6.943-.678,8.186-1.247.812-1.722,1.287-.226.774-.734,1.282-.62,1.637-.366,3.273,2.484,4.375,2.484,5.617-1.96,31.864,3.839,32.571c1.785.218,5.537-1.688,8.348-5.035a16.719,16.719,0,0,0-2.931-6.489c-.95.79-2.56,1.689-2.99-.5" transform="translate(29.273 7.761)" fill="#e1a082"/>
            <path id="Trazado_215515" data-name="Trazado 215515" d="M131.453,39.155a1.142,1.142,0,0,0-.641.38c-1.275,1.275-6.119,8.409-8.761,14.792l-6.176,11.9L112.483,48.9l-5.2,1.663c-1.386,13.1-1.386,29.879,6.586,27.314s13.1-15.233,13.1-15.233l6.379-20.21s-.388-3.281-1.9-3.278" transform="translate(29.484 10.831)" fill="#131537"/>
            <path id="Trazado_215516" data-name="Trazado 215516" d="M107.469,35.334s4.187,4.089,3.384,4.892-4.164-3.54-4.164-3.54,3.729,3.8,3.07,4.46-3.883-2.553-3.883-2.553,3.4,2.925,2.789,3.26-2.789-2-2.789-2a3.322,3.322,0,0,1-.2-1.4c.115-.526-.074-.747.02-1.072a3.21,3.21,0,0,1,.694-1c.184-.184.257-1.354,1.075-1.051" transform="translate(29.225 9.76)" fill="#ffc2a1"/>
            <path id="Trazado_215517" data-name="Trazado 215517" d="M127.055,89.3l-8.371,1.231L123.39,68.82l4.55,2.339Z" transform="translate(32.83 19.037)" fill="#230044"/>
            <path id="Trazado_215518" data-name="Trazado 215518" d="M139.764,191.593l-.129,8.021.892.027,1.15-9.144Z" transform="translate(38.625 52.694)" fill="#1d1c22"/>
            <path id="Trazado_215519" data-name="Trazado 215519" d="M135.4,136.118s.956,12.544,2.492,16.291-1.21,53.285-2.514,57.28a12.223,12.223,0,0,1-1.085,2.372c-1.423,2.434-1.746,2.931.161,2.937,2.451.008,4.6-.458,5.075-1.463.822-1.732,1.549-7.7,3.226-7.7,0,0,1.146-2.226.86-3.4-.43-1.763-1.629-.857-1.621-3.308s8.133-39.715,6.861-45.138-2.173-6.072-2.152-12.524-11.3-5.352-11.3-5.352" transform="translate(36.822 37.632)" fill="#ffc2a1"/>
            <path id="Trazado_215520" data-name="Trazado 215520" d="M138.153,125.813s-9.148,17.435-8.564,22.6,2.516,9.333.858,16.381-14.778,32.609-15.091,37.282c-.133,1.97.469,2.155.469,2.155-.027,3.4-1.086,7.032-1.792,7.734-.906.9-1.926,5.375-2.787,5.372s-8.129.774-8.129.774c-.188-1.658,2.037-.327,3.338-3.762s2.094-8.6,3.751-15.557,8.458-38.734,8.482-46.046-.647-7.347.486-12.161,5.38-13.831,5.38-13.831Z" transform="translate(28.52 34.801)" fill="#e1a082"/>
            <path id="Trazado_215521" data-name="Trazado 215521" d="M126.251,148.411c-.585-5.164,8.564-22.6,8.564-22.6l-13.6.937s-4.245,9.018-5.38,13.832a21.276,21.276,0,0,0-.568,7.639c2.6.558,6.643,1.375,11.262,2.12-.107-.633-.2-1.274-.278-1.932" transform="translate(31.858 34.802)" fill="#e85553"/>
            <path id="Trazado_215522" data-name="Trazado 215522" d="M146.2,141.47c.022-6.452-11.3-5.352-11.3-5.352s.609,8,1.637,13.129a51.316,51.316,0,0,0,10.441-.384,25.75,25.75,0,0,1-.776-7.393" transform="translate(37.316 37.632)" fill="#e1a082"/>
            <path id="Trazado_215523" data-name="Trazado 215523" d="M125.436,79.346s-1.593,24.558-2.8,30.406-8.086,47.311-8.086,47.311,30.658,2.581,38.056,0c0,0,.826-53.2-.917-60.042s-9.356-19.283-9.356-19.283Z" transform="translate(31.687 21.504)" fill="#0f1d5b"/>
            <g id="Grupo_870759" data-name="Grupo 870759" transform="translate(156.944 99.243)" opacity="0.53">
              <g id="Grupo_870758" data-name="Grupo 870758">
                <g id="Grupo_870757" data-name="Grupo 870757" clip-path="url(#clip-path-5)">
                  <path id="Trazado_215524" data-name="Trazado 215524" d="M140.017,77.739l-16.9,1.607s-.063,1-.177,2.637A41.707,41.707,0,0,1,130.364,93.8c2.286,5.916-.091,54.38-.605,64.276,8.238.273,17.012.213,20.53-1.014,0,0,.826-53.2-.917-60.042s-9.356-19.283-9.356-19.283" transform="translate(-122.938 -77.739)" fill="#1a0033"/>
                </g>
              </g>
            </g>
            <path id="Trazado_215525" data-name="Trazado 215525" d="M138.222,38.5l-9.3-.674-3.294,6.447,13.232,1.379Z" transform="translate(34.75 10.463)" fill="#230044"/>
            <path id="Trazado_215526" data-name="Trazado 215526" d="M126.748,40.288s4.232-3.235,18.582.005c.391.088.753,15.635.753,15.635s-6.659,26.063-5.392,32.568c0,0-7.611,6.424-18.965.832,0,0,1.474-20.468.443-25.027s-3.093-8.694-.169-13.425a53.636,53.636,0,0,0,4.748-10.588" transform="translate(33.331 10.747)" fill="#fff7cf"/>
            <path id="Trazado_215527" data-name="Trazado 215527" d="M126.8,61.392v30a16.46,16.46,0,0,0,12.152-2.962c-1.265-6.5,5.392-32.568,5.392-32.568s-.363-15.547-.753-15.635a63.309,63.309,0,0,0-6.412-1.131Z" transform="translate(35.073 10.814)" fill="#d1ccb2"/>
            <path id="Trazado_215528" data-name="Trazado 215528" d="M137.253,38.354,129.135,61.6v38.579l17.939.867-6.254-8.181-1.5-10.875,4.378-25.922-.754-15.635Z" transform="translate(35.72 10.609)" fill="#2e005b"/>
            <path id="Trazado_215529" data-name="Trazado 215529" d="M130.843,37.826,124.162,60.01l-1.734,39.1h-3.743L122.7,78.45l-2.357-23.293,6.724-15.044Z" transform="translate(32.83 10.463)" fill="#2e005b"/>
            <path id="Trazado_215530" data-name="Trazado 215530" d="M137.253,38.354,129.135,61.6l10.372-13.518,1.729-9.109Z" transform="translate(35.72 10.609)" fill="#4f3369"/>
            <path id="Trazado_215531" data-name="Trazado 215531" d="M129.657,37.826,122.975,60.01l.6-15.87,2.786-5.64Z" transform="translate(34.016 10.463)" fill="#4f3369"/>
            <path id="Trazado_215532" data-name="Trazado 215532" d="M140.493,83.33c.232-.232,2.267-3.23,2.7-2.794s-1.8,3.2-1.8,3.2,2.594-2.625,3.106-2.112-3.465,4.056-3.885,4.056-.121-2.348-.121-2.348" transform="translate(38.834 22.265)" fill="#e1a082"/>
            <path id="Trazado_215533" data-name="Trazado 215533" d="M137.846,81.368s-1.1,1.674-.289,2.482.375,1.644.923,2.193,3,.634,3,.634a16.87,16.87,0,0,1,1.385-5.078,19,19,0,0,1,1.96-2.786,33.416,33.416,0,0,0-3.387-1.938c-2.027,2.634-3.557,4.427-3.594,4.492" transform="translate(37.968 21.265)" fill="#ffc2a1"/>
            <path id="Trazado_215534" data-name="Trazado 215534" d="M140.086,39.982s-1.423,11.311,0,14.427c1.385,3.033,9.484,6.532,10.873,12.677,1.039,4.591-6.778,13.222-11.182,18.941a57.926,57.926,0,0,0,5.027,4.7c4.483-5.705,15.609-19.7,15.893-22.85.346-3.869-14.592-28.295-20.611-27.89" transform="translate(38.575 11.058)" fill="#4f3369"/>
            <path id="Trazado_215535" data-name="Trazado 215535" d="M140.129,39.981c-.214,2.637-.384,5.164-.433,7.854-.045,4.752.241,6.25,1.289,7.443,2.435,2.821,8.95,6.269,10.016,11.807-1.517-5.491-7.818-8.547-10.364-11.512a5.929,5.929,0,0,1-1.265-3.789,58.89,58.89,0,0,1,.756-11.8" transform="translate(38.532 11.059)" fill="#53587d"/>
            <path id="Trazado_215536" data-name="Trazado 215536" d="M142.339,186.445c-.753,4.485-3.272,12.216-5,12.94-2.87.6-2.885.3-2.867-1.264-1.423,2.435-3.036,3.679-1.129,3.686,2.452.009,6.276.17,6.752-.834.822-1.734,1.291-8.3,2.968-8.294l-.549,8.084.891.027s1.356-11.128,1.071-12.24a3.215,3.215,0,0,0-2.133-2.1" transform="translate(36.642 51.573)" fill="#3a3745"/>
            <path id="Trazado_215537" data-name="Trazado 215537" d="M105.97,198.935c-2,1.236-4.471,1.263-4.32,2.592,0,0,9.411-.373,10.272-.369s1.609-5.285,2.515-6.185.323,6.194.323,6.194l.928,0s.646-7.309,1.515-10.145c.692-2.258-.28-3.212-.974-3.785-2.843,5.391-3.146,12.984-10.259,11.7" transform="translate(28.116 51.793)" fill="#3a3745"/>
            <path id="Trazado_215538" data-name="Trazado 215538" d="M132.027,65.726a1.012,1.012,0,1,1-1.012-1.012,1.013,1.013,0,0,1,1.012,1.012" transform="translate(35.96 17.901)" fill="#58337c"/>
            <path id="Trazado_215539" data-name="Trazado 215539" d="M132.027,70.374a1.012,1.012,0,1,1-1.012-1.012,1.012,1.012,0,0,1,1.012,1.012" transform="translate(35.96 19.186)" fill="#58337c"/>
            <path id="Trazado_215540" data-name="Trazado 215540" d="M132.027,74.1a1.012,1.012,0,1,1-1.012-1.012,1.012,1.012,0,0,1,1.012,1.012" transform="translate(35.96 20.218)" fill="#58337c"/>
            <path id="Trazado_215541" data-name="Trazado 215541" d="M134.046,12.382c.578.535,6.1-.272,10.773,4.759,6.184,6.654,5.452,22.2,5.452,22.2a79.9,79.9,0,0,1-9.162,1.6,78.192,78.192,0,0,1-10.69-1.066c-2.876-.425-4.429-16.6-2.491-20.89a15.934,15.934,0,0,1,6.118-6.6" transform="translate(35.149 3.425)" fill="#2e162b"/>
            <path id="Trazado_215542" data-name="Trazado 215542" d="M134.854,12.384s-6.163-.355-7.69,3.627-.881,16.71-3.017,18.031a6.383,6.383,0,0,0,2.968.957s.892,1.569-1.251,3.887a17.54,17.54,0,0,0,5.363.987c.188,0,2.187.559,2.371-1.131.217-2-1.381-6.432-1.174-8.368.876-8.2,2.431-17.99,2.431-17.99" transform="translate(34.341 3.423)" fill="#452140"/>
            <path id="Trazado_215543" data-name="Trazado 215543" d="M134.042,12.957a5.94,5.94,0,0,0-1.619.188s-5.283,2.212-5.524,6.1.3,5.4-.125,7.915c-.669,3.956,1.833,11.313,6.142,11.218.1-2.085-1.39-6.294-1.19-8.166.733-6.862,1.94-14.834,2.316-17.256" transform="translate(35.038 3.584)" fill="#341930"/>
            <path id="Trazado_215544" data-name="Trazado 215544" d="M131.252,32.314s-.989,7.506-2.021,9.487S126.556,52.422,128,52.422s8.159-6.724,8.593-9.447,2.537-13.961,2.537-13.961Z" transform="translate(35.249 8.026)" fill="#ffc2a1"/>
            <path id="Trazado_215545" data-name="Trazado 215545" d="M130.635,31.473c-.056.027-.222,1.582-.23,1.642-.239,1.672-.309,1.569-.237,1.792.559,1.749,2.817,2.846,6.146-.129a16.627,16.627,0,0,0,1.22-1.214c.469-2.533.845-4.55.845-4.55s-7.678,2.431-7.744,2.459" transform="translate(35.999 8.026)" fill="#e1a082"/>
            <path id="Trazado_215546" data-name="Trazado 215546" d="M132.765,13.122s-4.994,2.115-5.219,5.838.285,5.169-.116,7.579.637,8.849,4.415,10.476,8.807-4.607,9.688-7.407a22.45,22.45,0,0,0,.232-11.184c-.956-4.379-6.223-6.072-9-5.3" transform="translate(35.227 3.58)" fill="#ffc2a1"/>
            <path id="Trazado_215547" data-name="Trazado 215547" d="M138.715,33.989a13.636,13.636,0,0,0,2.788-4.381,22.433,22.433,0,0,0,.232-11.184c-.956-4.378-6.223-6.07-9-5.3,0,0-4.993,2.115-5.219,5.838-.075,1.249-.069,2.239-.041,3.1h0l4.7-.161s-.291-3.991.645-5l.156,4.8,3.221.023a9.031,9.031,0,0,0,1.107-3.941,10.745,10.745,0,0,1-.549,3.95s2.626-.133,2.68,1.227c.043,1.112-.343,8.082-.543,9.927a10.416,10.416,0,0,1-.179,1.111" transform="translate(35.256 3.58)" fill="#e1a082"/>
            <path id="Trazado_215548" data-name="Trazado 215548" d="M148.526,19.864c-3.771-7.768-10.609-8.912-14.4-7.352-2.417.125-5.169,1.136-6.381,3.174a6.843,6.843,0,0,0-.374,6.2l4.487-.047s.176-4.6,1.111-5.616l.218,5.563,3.184-.125a15.778,15.778,0,0,0,.963-4.651s.623,3.226-.036,4.615c0,0,2.27.251,2.323,1.611.043,1.112-.343,8.082-.541,9.927a9.489,9.489,0,0,1-2.323,5.415s7.481,1.316,9.026-.354L145,40.558s4.2-.486,5.35-1.088.35-15.134-1.822-19.606" transform="translate(35.073 3.295)" fill="#4c2a54"/>
            <path id="Trazado_215549" data-name="Trazado 215549" d="M127.742,15.555a6.848,6.848,0,0,0-.374,6.2l4.487-.047s.176-4.6,1.111-5.616l.218,5.563,3.184-.125a15.808,15.808,0,0,0,.964-4.651s.622,3.227-.036,4.615c0,0,2.269.251,2.322,1.611.045,1.112-.343,8.082-.541,9.927-.022.2-.049.393-.079.582,4.187-4.187,3.466-14.224,2.348-17.772s-7.223-3.462-7.223-3.462c-2.417.125-5.169,1.136-6.381,3.174" transform="translate(35.073 3.425)" fill="#653870"/>
            <path id="Trazado_215550" data-name="Trazado 215550" d="M132.544,12.635c5.657-.305,9.655.969,11.649,6.3,1.939,5.126,3.853,13.084,2.058,18.263l-1.85-.707c1.717-4.127.686-11.011-.476-15.355-1.45-5.441-3.329-8.444-11.381-8.5" transform="translate(36.663 3.483)" fill="#653870"/>
            <path id="Trazado_215551" data-name="Trazado 215551" d="M132.945,12.858c-1.929.577-4.057,1.547-4.918,3.359-.8,1.672-.426,3.605-.068,5.4l.479-.005c-.911-3.789-1.375-6.766,4.506-8.752" transform="translate(35.283 3.557)" fill="#363a68"/>
            <path id="Trazado_215552" data-name="Trazado 215552" d="M132.683,12.969c-3.984,1.7-3.83,4.782-2.856,8.592l.474-.005c-1.252-3.738-1.554-6.774,2.382-8.586" transform="translate(35.752 3.587)" fill="#363a68"/>
            <path id="Trazado_215553" data-name="Trazado 215553" d="M132.5,12.829c1.266,3.07,1,5.589.231,8.658l.458-.018c.577-3.074.692-5.685-.689-8.64" transform="translate(36.652 3.549)" fill="#363a68"/>
            <path id="Trazado_215554" data-name="Trazado 215554" d="M130.353,26.64A5.159,5.159,0,0,0,131,23.288a10.568,10.568,0,0,1-.979,3.246l-.1.126a2.255,2.255,0,0,0,1.529.674,3.388,3.388,0,0,1-1.093-.694" transform="translate(35.936 6.442)" fill="#452140"/>
            <path id="Trazado_215555" data-name="Trazado 215555" d="M131.264,30.691h0" transform="translate(36.309 8.49)" fill="#fff"/>
            <path id="Trazado_215556" data-name="Trazado 215556" d="M134.293,27.227a14.555,14.555,0,0,1-4.7,1.02,4.973,4.973,0,0,0,.574.785,14.456,14.456,0,0,0,3.746-.8,6.219,6.219,0,0,0,.378-1" transform="translate(35.848 7.531)" fill="#fff"/>
            <path id="Trazado_215557" data-name="Trazado 215557" d="M133.792,28.013a14.41,14.41,0,0,1-3.747.8c1.407,1.56,2.823,1.121,3.747-.8" transform="translate(35.972 7.749)" fill="#2e162b"/>
            <path id="Trazado_215558" data-name="Trazado 215558" d="M131.849,21.056a2.545,2.545,0,0,1,1.277-.645c.859-.189,2.694.807,2.694.807a15.547,15.547,0,0,0-2.34-.465,3.716,3.716,0,0,0-1.311.516Z" transform="translate(36.471 5.639)" fill="#5c2c55"/>
            <path id="Trazado_215559" data-name="Trazado 215559" d="M130.741,21.207a2.334,2.334,0,0,0-1.083-.615,5.22,5.22,0,0,0-2.353.5,13.775,13.775,0,0,1,2.037-.239,3.418,3.418,0,0,1,1.116.509Z" transform="translate(35.214 5.685)" fill="#5c2c55"/>
            <path id="Trazado_215560" data-name="Trazado 215560" d="M131.784,22.875a2.354,2.354,0,0,1,1.925-.543c.807.158,1.261.817,1.764.918-.756.186-1.012-.661-2.752-.573a3.194,3.194,0,0,0-.937.2" transform="translate(36.453 6.169)" fill="#2e162b"/>
            <path id="Trazado_215561" data-name="Trazado 215561" d="M130.679,23.115a2.356,2.356,0,0,0-1.874-.7c-.817.093-1.325.712-1.833.772.738.246,1.062-.577,2.789-.347a3.17,3.17,0,0,1,.918.273" transform="translate(35.122 6.198)" fill="#2e162b"/>
            <path id="Trazado_215562" data-name="Trazado 215562" d="M130.519,24.885c0,.448-.664.813-1.482.813s-1.483-.365-1.483-.813.664-.813,1.483-.813,1.482.364,1.482.813" transform="translate(35.283 6.659)" fill="#e1a082"/>
            <path id="Trazado_215563" data-name="Trazado 215563" d="M136.986,25.005c0,.516-.994.933-2.221.933s-2.221-.417-2.221-.933.995-.933,2.221-.933,2.221.419,2.221.933" transform="translate(36.663 6.659)" fill="#e1a082"/>
          </g>
        </g>
      </g>
    </g>
  </g>
</svg>
