<svg xmlns="http://www.w3.org/2000/svg" xmlns:xlink="http://www.w3.org/1999/xlink" width="83.832" height="87.596" viewBox="0 0 83.832 87.596">
  <defs>
    <linearGradient id="linear-gradient" x1="0.5" x2="0.5" y2="1" gradientUnits="objectBoundingBox">
      <stop offset="0" stop-color="#03386e"/>
      <stop offset="1" stop-color="#3ae3fe"/>
    </linearGradient>
  </defs>
  <g id="Grupo_872047" data-name="Grupo 872047" transform="translate(-390 -10782)">
    <g id="edificios" transform="translate(379.002 10782)">
      <path id="Trazado_216236" data-name="Trazado 216236" d="M67.321,92.282l21.455-6.659a41.921,41.921,0,1,0-66.716,6.659Z" transform="translate(0 -18.233)" fill="url(#linear-gradient)"/>
      <path id="Trazado_216237" data-name="Trazado 216237" d="M306.79,30.568a2.826,2.826,0,0,1,3.575-2.528.754.754,0,0,0,.809-.262,5.12,5.12,0,0,1,8.924,1.556.747.747,0,0,0,.806.5,3.114,3.114,0,0,1,3,1.471.752.752,0,0,0,1.012.258,2.381,2.381,0,1,1,1.15,4.465h-20.08a2.429,2.429,0,0,1-2.439-2.424,2.385,2.385,0,0,1,2.481-2.338.739.739,0,0,0,.761-.7Z" transform="translate(-242.499 -21.376)" fill="#d2e1f1"/>
      <path id="Trazado_216238" data-name="Trazado 216238" d="M229.557,82.46a4.36,4.36,0,0,1,5.515-3.9,1.164,1.164,0,0,0,1.248-.4,7.9,7.9,0,0,1,13.768,2.4,1.152,1.152,0,0,0,1.243.774,4.8,4.8,0,0,1,4.629,2.27,1.16,1.16,0,0,0,1.561.4,3.673,3.673,0,1,1,1.775,6.889H228.318a3.748,3.748,0,0,1-3.762-3.739,3.68,3.68,0,0,1,3.827-3.607,1.142,1.142,0,0,0,1.175-1.081Z" transform="translate(-177.021 -62.24)" fill="#e8e8e8"/>
      <path id="Trazado_216239" data-name="Trazado 216239" d="M43.906,187.78a3.672,3.672,0,0,0-5.425-2.795,1.16,1.16,0,0,1-1.561-.4,4.8,4.8,0,0,0-4.629-2.27,1.152,1.152,0,0,1-1.243-.774,7.9,7.9,0,0,0-13.768-2.4,1.164,1.164,0,0,1-1.248.4,4.265,4.265,0,0,0-3.4.457A41.936,41.936,0,0,0,11,191.63c0,.082,0,.163,0,.245H40.257A3.674,3.674,0,0,0,43.906,187.78Z" transform="translate(-0.001 -145.95)" fill="#e8e8e8"/>
      <path id="Trazado_216240" data-name="Trazado 216240" d="M321.546,181.295h-.261v18.933a42.111,42.111,0,0,0,16.413-15.57V154.362l-26.551-12.639v35.388h10.4a2.092,2.092,0,1,1,0,4.184Z" transform="translate(-248.797 -117.476)" fill="#3c58a0"/>
      <path id="Trazado_216241" data-name="Trazado 216241" d="M311.146,177.111h10.407v-.262a2.922,2.922,0,0,1-1.963-2.915V150.41a1.971,1.971,0,0,1,2.118-2.214l-.258-1.568-10.3-4.9v35.388Z" transform="translate(-248.797 -117.476)" fill="#2a428c"/>
      <path id="Trazado_216242" data-name="Trazado 216242" d="M74.728,268.63a41.828,41.828,0,0,0,25.439,13.348v-23.32h9.846V234.948H74.728Z" transform="translate(-52.827 -194.752)" fill="#dae2fe"/>
      <path id="Trazado_216243" data-name="Trazado 216243" d="M83.971,241.513a6.565,6.565,0,0,1,6.565-6.565H74.728V268.63a42.1,42.1,0,0,0,9.243,7.625Z" transform="translate(-52.827 -194.752)" fill="#bec8f7"/>
      <path id="Trazado_216244" data-name="Trazado 216244" d="M97.843,121.263h27.375v19.624H97.843Z" transform="translate(-71.987 -100.517)" fill="#dae2fe"/>
      <path id="Trazado_216245" data-name="Trazado 216245" d="M105.2,136.248V125.9a4.639,4.639,0,0,1,4.639-4.639h-12v19.624h12A4.639,4.639,0,0,1,105.2,136.248Z" transform="translate(-71.987 -100.517)" fill="#bec8f7"/>
      <g id="Grupo_870969" data-name="Grupo 870969" transform="translate(38.236)">
        <path id="Trazado_216246" data-name="Trazado 216246" d="M171.513,8.013a1.307,1.307,0,0,1-1.307-1.307v-5.4a1.307,1.307,0,1,1,2.615,0v5.4A1.308,1.308,0,0,1,171.513,8.013Z" transform="translate(-170.206)" fill="#dae2fe"/>
      </g>
      <g id="Grupo_870970" data-name="Grupo 870970" transform="translate(25.823 44.725)">
        <path id="Trazado_216247" data-name="Trazado 216247" d="M98.957,261.422a1.307,1.307,0,0,0-1.307,1.307v31.629q1.266,1.073,2.615,2.046V262.729A1.307,1.307,0,0,0,98.957,261.422Z" transform="translate(-97.65 -261.422)" fill="#a8b7ef"/>
        <path id="Trazado_216248" data-name="Trazado 216248" d="M127.979,261.422a1.307,1.307,0,0,0-1.307,1.307v35.25q1.277.8,2.615,1.5V262.73A1.307,1.307,0,0,0,127.979,261.422Z" transform="translate(-121.707 -261.422)" fill="#a8b7ef"/>
        <path id="Trazado_216249" data-name="Trazado 216249" d="M157,261.422a1.307,1.307,0,0,0-1.307,1.307v37.9q1.285.577,2.615,1.069V262.729A1.308,1.308,0,0,0,157,261.422Z" transform="translate(-145.764 -261.422)" fill="#a8b7ef"/>
        <path id="Trazado_216250" data-name="Trazado 216250" d="M186.024,261.422a1.307,1.307,0,0,0-1.307,1.307v39.758q1.291.392,2.615.7V262.729A1.308,1.308,0,0,0,186.024,261.422Z" transform="translate(-169.821 -261.422)" fill="#a8b7ef"/>
      </g>
      <g id="Grupo_870971" data-name="Grupo 870971" transform="translate(45.684 44.725)">
        <path id="Trazado_216251" data-name="Trazado 216251" d="M215.045,274.5a1.307,1.307,0,0,1-1.307-1.307V262.729a1.307,1.307,0,1,1,2.615,0v10.464A1.307,1.307,0,0,1,215.045,274.5Z" transform="translate(-213.738 -261.422)" fill="#a8b7ef"/>
      </g>
      <g id="Grupo_870972" data-name="Grupo 870972" transform="translate(30.788 24.207)">
        <path id="Trazado_216252" data-name="Trazado 216252" d="M127.98,154.518a1.307,1.307,0,0,1-1.307-1.307V142.8a1.307,1.307,0,0,1,2.615,0V153.21A1.308,1.308,0,0,1,127.98,154.518Z" transform="translate(-126.673 -141.492)" fill="#a8b7ef"/>
      </g>
      <g id="Grupo_870973" data-name="Grupo 870973" transform="translate(35.753 24.207)">
        <path id="Trazado_216253" data-name="Trazado 216253" d="M157,154.518a1.307,1.307,0,0,1-1.307-1.307V142.8a1.307,1.307,0,0,1,2.615,0V153.21A1.308,1.308,0,0,1,157,154.518Z" transform="translate(-155.695 -141.492)" fill="#a8b7ef"/>
      </g>
      <g id="Grupo_870974" data-name="Grupo 870974" transform="translate(40.719 24.207)">
        <path id="Trazado_216254" data-name="Trazado 216254" d="M186.024,154.518a1.307,1.307,0,0,1-1.307-1.307V142.8a1.307,1.307,0,0,1,2.615,0V153.21A1.308,1.308,0,0,1,186.024,154.518Z" transform="translate(-184.717 -141.492)" fill="#a8b7ef"/>
      </g>
      <g id="Grupo_870975" data-name="Grupo 870975" transform="translate(45.684 24.207)">
        <path id="Trazado_216255" data-name="Trazado 216255" d="M215.046,154.518a1.307,1.307,0,0,1-1.307-1.307V142.8a1.307,1.307,0,0,1,2.615,0V153.21A1.308,1.308,0,0,1,215.046,154.518Z" transform="translate(-213.739 -141.492)" fill="#a8b7ef"/>
      </g>
      <g id="Grupo_870976" data-name="Grupo 870976" transform="translate(45.684 24.207)">
        <path id="Trazado_216256" data-name="Trazado 216256" d="M215.045,154.518a1.307,1.307,0,0,1-1.307-1.307V142.8a1.307,1.307,0,0,1,2.615,0V153.21A1.307,1.307,0,0,1,215.045,154.518Z" transform="translate(-213.738 -141.492)" fill="#a8b7ef"/>
      </g>
      <g id="Grupo_870977" data-name="Grupo 870977" transform="translate(50.649 44.725)">
        <path id="Trazado_216257" data-name="Trazado 216257" d="M244.068,274.5a1.307,1.307,0,0,1-1.307-1.307V262.729a1.307,1.307,0,1,1,2.615,0v10.464a1.307,1.307,0,0,1-1.307,1.307Z" transform="translate(-242.761 -261.422)" fill="#a8b7ef"/>
      </g>
      <path id="Trazado_216258" data-name="Trazado 216258" d="M135.937,44.867h14.341v13.07H135.937Z" transform="translate(-103.564 -37.191)" fill="#dae2fe"/>
      <path id="Trazado_216259" data-name="Trazado 216259" d="M141.93,53.982v-5.16a3.955,3.955,0,0,1,3.955-3.955h-9.948v13.07h9.948A3.955,3.955,0,0,1,141.93,53.982Z" transform="translate(-103.564 -37.191)" fill="#bec8f7"/>
      <path id="Trazado_216260" data-name="Trazado 216260" d="M221.381,373.53V396.8a42.268,42.268,0,0,0,5.923.418,41.727,41.727,0,0,0,19.842-4.986v-18.7Z" transform="translate(-174.39 -309.625)" fill="#ffc839"/>
      <path id="Trazado_216261" data-name="Trazado 216261" d="M230.65,391.309v-11.87a5.91,5.91,0,0,1,5.91-5.91H221.381V396.8a42.209,42.209,0,0,0,12.683-.125A5.921,5.921,0,0,1,230.65,391.309Z" transform="translate(-174.39 -309.624)" fill="#ffb332"/>
      <g id="Grupo_870978" data-name="Grupo 870978" transform="translate(66.544 41.047)">
        <path id="Trazado_216262" data-name="Trazado 216262" d="M352.349,242.537H336.977a1.307,1.307,0,1,1,0-2.615h15.371a1.307,1.307,0,1,1,0,2.615Z" transform="translate(-335.67 -239.922)" fill="#73c3f9"/>
      </g>
      <g id="Grupo_870979" data-name="Grupo 870979" transform="translate(66.544 46.556)">
        <path id="Trazado_216263" data-name="Trazado 216263" d="M352.349,274.736H336.977a1.307,1.307,0,1,1,0-2.615h15.371a1.307,1.307,0,1,1,0,2.615Z" transform="translate(-335.67 -272.121)" fill="#73c3f9"/>
      </g>
      <g id="Grupo_870980" data-name="Grupo 870980" transform="translate(66.544 52.065)">
        <path id="Trazado_216264" data-name="Trazado 216264" d="M352.349,306.936H336.977a1.307,1.307,0,1,1,0-2.615h15.371a1.307,1.307,0,1,1,0,2.615Z" transform="translate(-335.67 -304.321)" fill="#73c3f9"/>
      </g>
      <g id="Grupo_870981" data-name="Grupo 870981" transform="translate(76.853 57.573)">
        <path id="Trazado_216265" data-name="Trazado 216265" d="M402.294,339.135h-5.063a1.307,1.307,0,1,1,0-2.615h5.063a1.307,1.307,0,1,1,0,2.615Z" transform="translate(-395.924 -336.52)" fill="#73c3f9"/>
      </g>
      <g id="Grupo_870982" data-name="Grupo 870982" transform="translate(76.853 63.082)">
        <path id="Trazado_216266" data-name="Trazado 216266" d="M402.294,371.334h-5.063a1.307,1.307,0,0,1,0-2.615h5.063a1.307,1.307,0,0,1,0,2.615Z" transform="translate(-395.924 -368.719)" fill="#73c3f9"/>
      </g>
      <g id="Grupo_870983" data-name="Grupo 870983" transform="translate(75.807 68.591)">
        <path id="Trazado_216267" data-name="Trazado 216267" d="M397.227,403.534h-6.108a1.307,1.307,0,0,1,0-2.615h6.108a1.307,1.307,0,0,1,0,2.615Z" transform="translate(-389.811 -400.919)" fill="#73c3f9"/>
      </g>
      <path id="Trazado_216268" data-name="Trazado 216268" d="M397.226,433.118h-6.109a1.307,1.307,0,0,0,0,2.615h3.974q1.337-1.214,2.564-2.541A1.3,1.3,0,0,0,397.226,433.118Z" transform="translate(-314.003 -359.018)" fill="#73c3f9"/>
      <g id="Grupo_870984" data-name="Grupo 870984" transform="translate(60.744 22.791)">
        <path id="Trazado_216269" data-name="Trazado 216269" d="M330.083,148.7a1.3,1.3,0,0,1-.561-.127L302.515,135.7a1.307,1.307,0,1,1,1.125-2.361l27.007,12.867a1.308,1.308,0,0,1-.563,2.488Z" transform="translate(-301.769 -133.213)" fill="#4f71b6"/>
      </g>
      <g id="Grupo_870985" data-name="Grupo 870985" transform="translate(51.118 67.75)">
        <path id="Trazado_216270" data-name="Trazado 216270" d="M246.81,400.211A1.307,1.307,0,0,1,245.5,398.9v-1.595a1.307,1.307,0,0,1,2.615,0V398.9A1.308,1.308,0,0,1,246.81,400.211Z" transform="translate(-245.503 -396.001)" fill="#ff9100"/>
      </g>
      <g id="Grupo_870986" data-name="Grupo 870986" transform="translate(56.083 67.75)">
        <path id="Trazado_216271" data-name="Trazado 216271" d="M275.832,400.211a1.307,1.307,0,0,1-1.307-1.307v-1.595a1.307,1.307,0,0,1,2.615,0V398.9A1.307,1.307,0,0,1,275.832,400.211Z" transform="translate(-274.525 -396.001)" fill="#ff9100"/>
      </g>
      <g id="Grupo_870987" data-name="Grupo 870987" transform="translate(61.049 67.75)">
        <path id="Trazado_216272" data-name="Trazado 216272" d="M304.854,400.211a1.307,1.307,0,0,1-1.307-1.307v-1.595a1.307,1.307,0,0,1,2.615,0V398.9A1.307,1.307,0,0,1,304.854,400.211Z" transform="translate(-303.547 -396.001)" fill="#ff9100"/>
      </g>
      <g id="Grupo_870988" data-name="Grupo 870988" transform="translate(66.014 67.75)">
        <path id="Trazado_216273" data-name="Trazado 216273" d="M333.877,400.211a1.307,1.307,0,0,1-1.307-1.307v-1.595a1.307,1.307,0,0,1,2.615,0V398.9A1.308,1.308,0,0,1,333.877,400.211Z" transform="translate(-332.57 -396.001)" fill="#ff9100"/>
      </g>
      <g id="Grupo_870989" data-name="Grupo 870989" transform="translate(51.118 74.513)">
        <path id="Trazado_216274" data-name="Trazado 216274" d="M246.81,439.741a1.307,1.307,0,0,1-1.307-1.307v-1.595a1.307,1.307,0,0,1,2.615,0v1.595A1.307,1.307,0,0,1,246.81,439.741Z" transform="translate(-245.503 -435.531)" fill="#ff9100"/>
      </g>
      <g id="Grupo_870990" data-name="Grupo 870990" transform="translate(56.083 74.513)">
        <path id="Trazado_216275" data-name="Trazado 216275" d="M275.832,439.741a1.307,1.307,0,0,1-1.307-1.307v-1.595a1.307,1.307,0,0,1,2.615,0v1.595A1.307,1.307,0,0,1,275.832,439.741Z" transform="translate(-274.525 -435.531)" fill="#ff9100"/>
      </g>
      <g id="Grupo_870991" data-name="Grupo 870991" transform="translate(61.049 74.513)">
        <path id="Trazado_216276" data-name="Trazado 216276" d="M304.854,439.741a1.307,1.307,0,0,1-1.307-1.307v-1.595a1.307,1.307,0,0,1,2.615,0v1.595A1.307,1.307,0,0,1,304.854,439.741Z" transform="translate(-303.547 -435.531)" fill="#ff9100"/>
      </g>
      <g id="Grupo_870992" data-name="Grupo 870992" transform="translate(66.014 74.513)">
        <path id="Trazado_216277" data-name="Trazado 216277" d="M333.877,439.741a1.307,1.307,0,0,1-1.307-1.307v-1.595a1.307,1.307,0,0,1,2.615,0v1.595A1.308,1.308,0,0,1,333.877,439.741Z" transform="translate(-332.57 -435.531)" fill="#ff9100"/>
      </g>
      <g id="Grupo_870993" data-name="Grupo 870993" transform="translate(51.118 81.276)">
        <path id="Trazado_216278" data-name="Trazado 216278" d="M246.81,479.272a1.307,1.307,0,0,1-1.307-1.307v-1.595a1.307,1.307,0,1,1,2.615,0v1.595A1.308,1.308,0,0,1,246.81,479.272Z" transform="translate(-245.503 -475.062)" fill="#ff9100"/>
      </g>
      <g id="Grupo_870994" data-name="Grupo 870994" transform="translate(56.083 81.276)">
        <path id="Trazado_216279" data-name="Trazado 216279" d="M275.832,479.272a1.307,1.307,0,0,1-1.307-1.307v-1.595a1.307,1.307,0,0,1,2.615,0v1.595A1.307,1.307,0,0,1,275.832,479.272Z" transform="translate(-274.525 -475.062)" fill="#ff9100"/>
      </g>
      <g id="Grupo_870995" data-name="Grupo 870995" transform="translate(61.049 81.276)">
        <path id="Trazado_216280" data-name="Trazado 216280" d="M304.854,479.272a1.307,1.307,0,0,1-1.307-1.307v-1.595a1.307,1.307,0,1,1,2.615,0v1.595A1.307,1.307,0,0,1,304.854,479.272Z" transform="translate(-303.547 -475.062)" fill="#ff9100"/>
      </g>
      <path id="Trazado_216281" data-name="Trazado 216281" d="M333.877,475.062a1.307,1.307,0,0,0-1.307,1.307v1.595a1.305,1.305,0,0,0,.627,1.115q.975-.338,1.927-.721a1.305,1.305,0,0,0,.061-.393v-1.595A1.308,1.308,0,0,0,333.877,475.062Z" transform="translate(-266.556 -393.786)" fill="#ff9100"/>
      <g id="Grupo_870996" data-name="Grupo 870996" transform="translate(44.638 59.373)">
        <path id="Trazado_216282" data-name="Trazado 216282" d="M235.744,351.746H209.979a2.353,2.353,0,1,1,0-4.707h25.764a2.353,2.353,0,0,1,0,4.707Z" transform="translate(-207.626 -347.039)" fill="#ffdd40"/>
      </g>
      <path id="Trazado_216283" data-name="Trazado 216283" d="M220.663,349.392a2.353,2.353,0,0,1,2.353-2.353H209.979a2.353,2.353,0,1,0,0,4.707h13.037A2.353,2.353,0,0,1,220.663,349.392Z" transform="translate(-162.988 -287.666)" fill="#ffc839"/>
      <g id="Grupo_870997" data-name="Grupo 870997" transform="translate(31.066 6.368)">
        <path id="Trazado_216284" data-name="Trazado 216284" d="M143.943,39.839H129.6a1.307,1.307,0,1,1,0-2.615h14.341a1.307,1.307,0,0,1,0,2.615Z" transform="translate(-128.295 -37.224)" fill="#e9efff"/>
      </g>
      <g id="Grupo_870998" data-name="Grupo 870998" transform="translate(24.548 19.439)">
        <path id="Trazado_216285" data-name="Trazado 216285" d="M118.884,116.236H91.508a1.307,1.307,0,1,1,0-2.615h27.375a1.307,1.307,0,0,1,0,2.615Z" transform="translate(-90.201 -113.621)" fill="#e9efff"/>
      </g>
      <g id="Grupo_870999" data-name="Grupo 870999" transform="translate(20.594 38.889)">
        <path id="Trazado_216286" data-name="Trazado 216286" d="M103.678,229.921H68.393a1.307,1.307,0,1,1,0-2.615h35.284a1.307,1.307,0,0,1,0,2.615Z" transform="translate(-67.086 -227.306)" fill="#e9efff"/>
      </g>
      <g id="Grupo_871000" data-name="Grupo 871000" transform="translate(35.753 10.922)">
        <path id="Trazado_216287" data-name="Trazado 216287" d="M157,70.127A1.307,1.307,0,0,1,155.7,68.82V65.145a1.307,1.307,0,1,1,2.615,0V68.82A1.308,1.308,0,0,1,157,70.127Z" transform="translate(-155.695 -63.838)" fill="#a8b7ef"/>
      </g>
      <g id="Grupo_871001" data-name="Grupo 871001" transform="translate(40.719 10.922)">
        <path id="Trazado_216288" data-name="Trazado 216288" d="M186.024,70.127a1.307,1.307,0,0,1-1.307-1.307V65.145a1.307,1.307,0,1,1,2.615,0V68.82A1.308,1.308,0,0,1,186.024,70.127Z" transform="translate(-184.717 -63.838)" fill="#a8b7ef"/>
      </g>
    </g>
  </g>
</svg>
