<svg xmlns="http://www.w3.org/2000/svg" width="86.123" height="86.392" viewBox="0 0 86.123 86.392">
  <g id="Grupo_872049" data-name="Grupo 872049" transform="translate(-390 -12565.141)">
    <g id="Grupo_871109" data-name="Grupo 871109" transform="translate(0 10.937)">
      <circle id="Elipse_4742" data-name="Elipse 4742" cx="43.062" cy="43.062" r="43.062" transform="translate(390 12554.204)" fill="#9bf0fe"/>
      <path id="Sustracción_10" data-name="Sustracción 10" d="M43.061,50.848A42.769,42.769,0,0,1,26.3,47.464a42.9,42.9,0,0,1-13.689-9.229A42.935,42.935,0,0,1,0,7.787,43.58,43.58,0,0,1,.7,0,52.417,52.417,0,0,0,52.629,44.013a52.457,52.457,0,0,0,18.028-3.169,42.9,42.9,0,0,1-27.6,10Z" transform="translate(390 12589.747)" fill="#3ae3fe" opacity="0.37"/>
    </g>
    <g id="rompecabezas_2_" data-name="rompecabezas(2)" transform="translate(400.141 12583.698)">
      <g id="Grupo_871103" data-name="Grupo 871103" transform="translate(35.911 0)">
        <g id="Grupo_871102" data-name="Grupo 871102">
          <g id="Grupo_871101" data-name="Grupo 871101">
            <path id="Trazado_216514" data-name="Trazado 216514" d="M294.044,26.758a4.043,4.043,0,0,1-3.093-1.444,4.158,4.158,0,0,1-.977-3.007h-6.422a1.008,1.008,0,0,1-1.008-1.008V14.5a1.008,1.008,0,0,1,1.19-.992l.06.011a2.073,2.073,0,1,0,0-4.078l-.06.011a1.008,1.008,0,0,1-1.19-.992V1.008A1.009,1.009,0,0,1,283.553,0h16.73a4.575,4.575,0,0,1,4.57,4.57V21.3a1.008,1.008,0,0,1-1.008,1.008h-5.728a4.09,4.09,0,0,1-4.013,4.45Zm-9.483-6.468h6.6a1.008,1.008,0,0,1,.992,1.19l-.137.751a2.148,2.148,0,0,0,.476,1.78,2.011,2.011,0,0,0,1.583.729,2.072,2.072,0,0,0,2.007-2.445l-.149-.815a1.009,1.009,0,0,1,.992-1.19h5.911V4.57a2.556,2.556,0,0,0-2.553-2.553H284.561v5.39a4.091,4.091,0,0,1,0,8.143Z" transform="translate(-282.544 0)"/>
          </g>
        </g>
      </g>
      <g id="Grupo_871108" data-name="Grupo 871108" transform="translate(8.25 9.035)">
        <g id="Grupo_871104" data-name="Grupo 871104" transform="translate(0)">
          <path id="Trazado_216515" data-name="Trazado 216515" d="M49.84,115.547a1.008,1.008,0,0,0,1.008-1.008v-3.651a1.008,1.008,0,0,0-1.008-1.008H42.92a1.009,1.009,0,0,0-.992,1.19l.149.815a2.073,2.073,0,0,1-2.007,2.445,2.013,2.013,0,0,1-1.583-.729,2.148,2.148,0,0,1-.476-1.78l.137-.751a1.008,1.008,0,0,0-.992-1.19h-6.6v-4.741a4.091,4.091,0,0,0,0-8.143V90.6a1.008,1.008,0,0,0-1.008-1.008H12.82a4.575,4.575,0,0,0-4.57,4.57v33.459a4.575,4.575,0,0,0,4.57,4.57H46.279a4.575,4.575,0,0,0,4.57-4.57V124.69a1.008,1.008,0,1,0-2.017,0v2.927a2.556,2.556,0,0,1-2.553,2.553H30.558v-6.5a1.008,1.008,0,0,0-1.19-.992l-.061.011a2.073,2.073,0,1,1,0-4.077l.06.011a1.008,1.008,0,0,0,1.19-.992V111.9h5.413a4.156,4.156,0,0,0,.977,3.007,4.077,4.077,0,0,0,7.165-3.007h4.719v2.643a1.008,1.008,0,0,0,1.008,1.008ZM10.267,94.158A2.556,2.556,0,0,1,12.82,91.6H28.541v6.442a1.009,1.009,0,0,0,1.19.992l.06-.011h0a2.073,2.073,0,1,1,0,4.077l-.061-.011a1.009,1.009,0,0,0-1.19.992v5.792H24.214a4.095,4.095,0,0,0-7.858,0H10.267ZM26.316,117.5a4.09,4.09,0,0,0,2.225,7.213v5.453H12.82a2.556,2.556,0,0,1-2.553-2.553V111.9h6.939a1.009,1.009,0,0,0,1.008-.965,2.074,2.074,0,0,1,4.143,0,1.008,1.008,0,0,0,1.008.965h5.177v4.678a4.078,4.078,0,0,0-2.225.93Z" transform="translate(-8.25 -89.588)"/>
        </g>
        <g id="Grupo_871107" data-name="Grupo 871107" transform="translate(40.583 28.968)">
          <g id="Grupo_871106" data-name="Grupo 871106">
            <g id="Grupo_871105" data-name="Grupo 871105">
              <path id="Trazado_216516" data-name="Trazado 216516" d="M411.684,378.854a1.008,1.008,0,1,1,.989-.811A1.016,1.016,0,0,1,411.684,378.854Z" transform="translate(-410.678 -376.841)"/>
            </g>
          </g>
        </g>
      </g>
    </g>
  </g>
</svg>
