<svg xmlns="http://www.w3.org/2000/svg" width="86.123" height="86.392" viewBox="0 0 86.123 86.392">
  <g id="Grupo_872050" data-name="Grupo 872050" transform="translate(-390 -12696.936)">
    <g id="Grupo_871111" data-name="Grupo 871111" transform="translate(0 142.731)">
      <circle id="Elipse_4742" data-name="Elipse 4742" cx="43.062" cy="43.062" r="43.062" transform="translate(390 12554.204)" fill="#9bf0fe"/>
      <path id="Sustracción_10" data-name="Sustracción 10" d="M43.061,50.848A42.769,42.769,0,0,1,26.3,47.464a42.9,42.9,0,0,1-13.689-9.229A42.935,42.935,0,0,1,0,7.787,43.58,43.58,0,0,1,.7,0,52.417,52.417,0,0,0,52.629,44.013a52.457,52.457,0,0,0,18.028-3.169,42.9,42.9,0,0,1-27.6,10Z" transform="translate(390 12589.747)" fill="#3ae3fe" opacity="0.37"/>
    </g>
    <g id="folder" transform="translate(407 12714.937)">
      <path id="Trazado_216517" data-name="Trazado 216517" d="M48.327,3.515H36.9V1.757A1.757,1.757,0,0,0,35.147,0H17.574a1.757,1.757,0,0,0-1.757,1.757V3.515H4.393A4.4,4.4,0,0,0,0,7.908V36.026a4.4,4.4,0,0,0,4.393,4.393H19.214l-.659,5.272h-1.86a2.636,2.636,0,1,0,0,5.272H36.026a2.636,2.636,0,1,0,0-5.272h-1.86l-.659-5.272H48.327a4.4,4.4,0,0,0,4.393-4.393V7.908a4.4,4.4,0,0,0-4.393-4.393Zm-9.665,12.3H36.9V13.18h.879a.879.879,0,0,1,.879.879ZM15.816,11.423H14.059V9.665a.879.879,0,0,1,.879-.879h.879ZM14.059,13.18h5.87l5.921,4.23a.878.878,0,0,0,.511.163h12.3v9.665a.879.879,0,0,1-.879.879H14.938a.879.879,0,0,1-.879-.879ZM35.147,1.757V15.816H26.641l-5.921-4.23a.878.878,0,0,0-.511-.163H17.574V1.757ZM4.393,5.272H15.816V7.029h-.879A2.636,2.636,0,0,0,12.3,9.665V27.239a2.636,2.636,0,0,0,2.636,2.636H37.783a2.636,2.636,0,0,0,2.636-2.636V14.059a2.636,2.636,0,0,0-2.636-2.636H36.9V5.272H48.327a2.636,2.636,0,0,1,2.636,2.636V31.632H1.757V7.908A2.636,2.636,0,0,1,4.393,5.272ZM36.9,48.327a.879.879,0,0,1-.879.879H16.695a.879.879,0,0,1,0-1.757H36.026A.879.879,0,0,1,36.9,48.327Zm-4.51-2.636H20.326l.659-5.272h10.75Zm15.933-7.029H4.393a2.636,2.636,0,0,1-2.636-2.636V33.39H50.963v2.636A2.636,2.636,0,0,1,48.327,38.662Zm0,0"/>
      <path id="Trazado_216518" data-name="Trazado 216518" d="M416,320h1.757v1.757H416Zm0,0" transform="translate(-370.309 -284.853)"/>
      <path id="Trazado_216519" data-name="Trazado 216519" d="M176,32h1.757v1.757H176Zm0,0" transform="translate(-156.669 -28.485)"/>
      <path id="Trazado_216520" data-name="Trazado 216520" d="M208,32h3.515v1.757H208Zm0,0" transform="translate(-185.154 -28.485)"/>
      <path id="Trazado_216521" data-name="Trazado 216521" d="M176,64h14.059v1.757H176Zm0,0" transform="translate(-156.669 -56.971)"/>
      <path id="Trazado_216522" data-name="Trazado 216522" d="M208,96h7.029v1.757H208Zm0,0" transform="translate(-185.154 -85.456)"/>
      <path id="Trazado_216523" data-name="Trazado 216523" d="M288,96h1.757v1.757H288Zm0,0" transform="translate(-256.368 -85.456)"/>
    </g>
  </g>
</svg>
