<svg xmlns="http://www.w3.org/2000/svg" width="112" height="112" viewBox="0 0 112 112">
  <g id="Grupo_872054" data-name="Grupo 872054" transform="translate(-393 -17819)">
    <g id="Grupo_872003" data-name="Grupo 872003">
      <circle id="Elipse_4779" data-name="Elipse 4779" cx="56" cy="56" r="56" transform="translate(393 17819)" fill="#afd5bc"/>
      <g id="Icons" transform="translate(412 17839)">
        <path id="Trazado_216681" data-name="Trazado 216681" d="M51.893,24.679V8.635A3.635,3.635,0,0,0,48.258,5H4.635A3.635,3.635,0,0,0,1,8.635v55.74A3.635,3.635,0,0,0,4.635,68.01H37.994Z" transform="translate(0 0.847)" fill="#a56a43"/>
        <path id="Trazado_216682" data-name="Trazado 216682" d="M46.2,23.565V10.212A1.212,1.212,0,0,0,44.987,9H6.212A1.212,1.212,0,0,0,5,10.212V61.1a1.212,1.212,0,0,0,1.212,1.212H30.64Z" transform="translate(0.847 1.694)" fill="#ecf0f1"/>
        <path id="Trazado_216683" data-name="Trazado 216683" d="M37.658,5.847v4.847a1.212,1.212,0,0,1-1.212,1.212H12.212A1.212,1.212,0,0,1,11,10.694V5.847a1.212,1.212,0,0,1,1.212-1.212h3.635l.659-1.978A2.423,2.423,0,0,1,18.806,1H29.852a2.423,2.423,0,0,1,2.3,1.658l.657,1.978h3.635a1.212,1.212,0,0,1,1.212,1.212Z" transform="translate(2.117 0)" fill="#95a5a5"/>
        <path id="Trazado_216684" data-name="Trazado 216684" d="M12.423,22.27a1.212,1.212,0,0,1-.857-.355L10.355,20.7a1.212,1.212,0,1,1,1.714-1.714l.224.224,2.8-3.73a1.212,1.212,0,0,1,1.939,1.454l-3.635,4.847a1.212,1.212,0,0,1-.883.485Z" transform="translate(1.906 2.964)" fill="#359547"/>
        <path id="Trazado_216685" data-name="Trazado 216685" d="M36.176,19.423H19.212a1.212,1.212,0,0,1,0-2.423H36.176a1.212,1.212,0,0,1,0,2.423Z" transform="translate(3.6 3.388)" fill="#03386e"/>
        <path id="Trazado_216686" data-name="Trazado 216686" d="M12.423,31.27a1.212,1.212,0,0,1-.857-.355L10.355,29.7a1.212,1.212,0,1,1,1.714-1.714l.224.224,2.8-3.73a1.212,1.212,0,0,1,1.939,1.454l-3.635,4.847a1.212,1.212,0,0,1-.883.485Z" transform="translate(1.906 4.87)" fill="#359547"/>
        <path id="Trazado_216687" data-name="Trazado 216687" d="M30.117,28.423H19.212a1.212,1.212,0,0,1,0-2.423H30.117a1.212,1.212,0,1,1,0,2.423Z" transform="translate(3.6 5.293)" fill="#03386e"/>
        <path id="Trazado_216688" data-name="Trazado 216688" d="M12.423,40.27a1.212,1.212,0,0,1-.857-.355L10.355,38.7a1.212,1.212,0,1,1,1.714-1.714l.224.224,2.8-3.73a1.212,1.212,0,0,1,1.939,1.454l-3.635,4.847a1.212,1.212,0,0,1-.883.485Z" transform="translate(1.906 6.776)" fill="#359547"/>
        <path id="Trazado_216689" data-name="Trazado 216689" d="M25.27,37.423H19.212a1.212,1.212,0,0,1,0-2.423H25.27a1.212,1.212,0,0,1,0,2.423Z" transform="translate(3.6 7.199)" fill="#03386e"/>
        <path id="Trazado_216690" data-name="Trazado 216690" d="M12.423,49.27a1.212,1.212,0,0,1-.857-.355L10.355,47.7a1.212,1.212,0,1,1,1.714-1.714l.224.224,2.8-3.73a1.212,1.212,0,1,1,1.939,1.454l-3.635,4.847a1.212,1.212,0,0,1-.883.485Z" transform="translate(1.906 8.681)" fill="#359547"/>
        <path id="Trazado_216691" data-name="Trazado 216691" d="M25.27,46.423H19.212a1.212,1.212,0,0,1,0-2.423H25.27a1.212,1.212,0,1,1,0,2.423Z" transform="translate(3.6 9.105)" fill="#03386e"/>
        <path id="Trazado_216692" data-name="Trazado 216692" d="M61.869,29.482a23.048,23.048,0,1,1-3.3-3.3Z" transform="translate(4.226 4.235)" fill="#e64c3c"/>
        <circle id="Elipse_4782" data-name="Elipse 4782" cx="16.964" cy="16.964" r="16.964" transform="translate(31.293 31.293)" fill="#ecf0f1"/>
        <circle id="Elipse_4783" data-name="Elipse 4783" cx="10.906" cy="10.906" r="10.906" transform="translate(37.352 37.352)" fill="#e64c3c"/>
        <circle id="Elipse_4784" data-name="Elipse 4784" cx="4.847" cy="4.847" r="4.847" transform="translate(43.411 43.411)" fill="#ecf0f1"/>
        <path id="Trazado_216693" data-name="Trazado 216693" d="M40.212,45.439a1.212,1.212,0,0,1-.857-2.068L62.378,20.347a1.212,1.212,0,0,1,1.717,1.7l-8.11,8.119L41.068,45.087a1.212,1.212,0,0,1-.857.351Z" transform="translate(8.046 4.031)" fill="#a56a43"/>
        <path id="Trazado_216694" data-name="Trazado 216694" d="M60.105,23.423l-2.047-2.047a1.288,1.288,0,0,0-1.818,0l-3.864,3.864a1.289,1.289,0,0,0-.377.911v2.042a1.288,1.288,0,0,0,1.288,1.288H55.33a1.289,1.289,0,0,0,.911-.377l3.864-3.864a1.288,1.288,0,0,0,0-1.818Z" transform="translate(10.799 4.235)" fill="#c03a2b"/>
        <circle id="Elipse_4785" data-name="Elipse 4785" cx="1.212" cy="1.212" r="1.212" transform="translate(25.235 4.635)" fill="#7f8c8d"/>
      </g>
    </g>
  </g>
</svg>
