<svg xmlns="http://www.w3.org/2000/svg" xmlns:xlink="http://www.w3.org/1999/xlink" width="1240" height="265" viewBox="0 0 1240 265">
  <defs>
    <linearGradient id="linear-gradient" x1="0.5" x2="0.5" y2="1" gradientUnits="objectBoundingBox">
      <stop offset="0" stop-color="#fef5e5"/>
      <stop offset="0.137" stop-color="#fffefc"/>
      <stop offset="0.479" stop-color="#fff"/>
      <stop offset="0.773" stop-color="#fffefd"/>
      <stop offset="1" stop-color="#fef7ea"/>
    </linearGradient>
  </defs>
  <g id="Grupo_872030" data-name="Grupo 872030" transform="translate(-180 -14857)">
    <path id="Trazado_217873" data-name="Trazado 217873" d="M0,0H1240V265H0Z" transform="translate(180 14857)" fill="url(#linear-gradient)"/>
    <path id="Trazado_217874" data-name="Trazado 217874" d="M48.16,13.211A4.025,4.025,0,0,1,46.8,16.1a4.76,4.76,0,0,1-3.223,1.055,4.28,4.28,0,0,1-3.441-1.473,6.038,6.038,0,0,1-1.254-4.043v-.7a6.819,6.819,0,0,1,.578-2.891,4.332,4.332,0,0,1,1.652-1.918,5.164,5.164,0,0,1,5.668.387,4.326,4.326,0,0,1,1.391,2.961H45.832a2.376,2.376,0,0,0-.613-1.6,2.271,2.271,0,0,0-1.605-.5,1.991,1.991,0,0,0-1.754.84,4.707,4.707,0,0,0-.6,2.605V11.7a5.038,5.038,0,0,0,.559,2.7,1.954,1.954,0,0,0,1.762.852,2.314,2.314,0,0,0,1.621-.5,2.241,2.241,0,0,0,.613-1.535ZM54.449,17a2.507,2.507,0,0,1-.227-.758,2.732,2.732,0,0,1-2.133.914,3,3,0,0,1-2.059-.719,2.312,2.312,0,0,1-.816-1.812,2.389,2.389,0,0,1,1-2.062,4.915,4.915,0,0,1,2.879-.727h1.039v-.484a1.393,1.393,0,0,0-.3-.937,1.183,1.183,0,0,0-.949-.352,1.345,1.345,0,0,0-.895.273.929.929,0,0,0-.324.75H49.4a2.268,2.268,0,0,1,.453-1.359,3,3,0,0,1,1.281-.98A4.669,4.669,0,0,1,53,8.391a3.689,3.689,0,0,1,2.48.785,2.747,2.747,0,0,1,.918,2.207v3.664a4.041,4.041,0,0,0,.336,1.82V17Zm-1.867-1.57a1.945,1.945,0,0,0,.922-.223,1.462,1.462,0,0,0,.625-.6V13.156h-.844q-1.7,0-1.8,1.172l-.008.133a.9.9,0,0,0,.3.7A1.153,1.153,0,0,0,52.582,15.43ZM60.512,17H58.246V5h2.266Zm4.242,0H62.488V8.547h2.266Zm-2.4-10.641a1.112,1.112,0,0,1,.34-.836,1.465,1.465,0,0,1,1.848,0,1.105,1.105,0,0,1,.344.836,1.108,1.108,0,0,1-.348.844,1.448,1.448,0,0,1-1.836,0A1.108,1.108,0,0,1,62.355,6.359Zm3.906,6.352a5.094,5.094,0,0,1,.887-3.148,2.877,2.877,0,0,1,2.426-1.172,2.589,2.589,0,0,1,2.039.922V5h2.266V17H71.84l-.109-.9a2.657,2.657,0,0,1-2.172,1.055,2.869,2.869,0,0,1-2.395-1.176A5.258,5.258,0,0,1,66.262,12.711Zm2.258.168a3.337,3.337,0,0,0,.414,1.823,1.349,1.349,0,0,0,1.2.634,1.511,1.511,0,0,0,1.477-.884V11.111a1.489,1.489,0,0,0-1.461-.884Q68.52,10.227,68.52,12.879ZM80.527,17a2.507,2.507,0,0,1-.227-.758,2.732,2.732,0,0,1-2.133.914,3,3,0,0,1-2.059-.719,2.312,2.312,0,0,1-.816-1.812,2.389,2.389,0,0,1,1-2.062,4.915,4.915,0,0,1,2.879-.727h1.039v-.484a1.393,1.393,0,0,0-.3-.937,1.183,1.183,0,0,0-.949-.352,1.345,1.345,0,0,0-.895.273.929.929,0,0,0-.324.75H75.48a2.268,2.268,0,0,1,.453-1.359,3,3,0,0,1,1.281-.98,4.669,4.669,0,0,1,1.859-.355,3.689,3.689,0,0,1,2.48.785,2.747,2.747,0,0,1,.918,2.207v3.664a4.041,4.041,0,0,0,.336,1.82V17ZM78.66,15.43a1.945,1.945,0,0,0,.922-.223,1.462,1.462,0,0,0,.625-.6V13.156h-.844q-1.7,0-1.8,1.172l-.008.133a.9.9,0,0,0,.3.7A1.153,1.153,0,0,0,78.66,15.43Zm5.2-2.719a5.094,5.094,0,0,1,.887-3.148,2.877,2.877,0,0,1,2.426-1.172,2.589,2.589,0,0,1,2.039.922V5h2.266V17H89.434l-.109-.9a2.657,2.657,0,0,1-2.172,1.055,2.869,2.869,0,0,1-2.395-1.176A5.258,5.258,0,0,1,83.855,12.711Zm2.258.168a3.337,3.337,0,0,0,.414,1.823,1.349,1.349,0,0,0,1.2.634,1.511,1.511,0,0,0,1.477-.884V11.111a1.489,1.489,0,0,0-1.461-.884Q86.113,10.227,86.113,12.879Zm13.8-6.41V8.547h1.445V10.2H99.91v4.219a1.007,1.007,0,0,0,.18.672.9.9,0,0,0,.688.2,3.6,3.6,0,0,0,.664-.055v1.711a4.648,4.648,0,0,1-1.367.2,2.156,2.156,0,0,1-2.422-2.4V10.2H96.418V8.547h1.234V6.469Zm2.117,6.227a5.013,5.013,0,0,1,.484-2.242,3.546,3.546,0,0,1,1.395-1.523,4.069,4.069,0,0,1,2.113-.539,3.849,3.849,0,0,1,2.793,1.047,4.2,4.2,0,0,1,1.207,2.844l.016.578a4.418,4.418,0,0,1-1.086,3.121,4.209,4.209,0,0,1-5.832,0,4.5,4.5,0,0,1-1.09-3.187Zm2.258.16a3.16,3.16,0,0,0,.453,1.843,1.628,1.628,0,0,0,2.578.008,3.457,3.457,0,0,0,.461-2.015,3.128,3.128,0,0,0-.461-1.831,1.5,1.5,0,0,0-1.3-.649,1.474,1.474,0,0,0-1.281.646A3.516,3.516,0,0,0,104.285,12.856Zm9.844-6.387V8.547h1.445V10.2h-1.445v4.219a1.007,1.007,0,0,0,.18.672.9.9,0,0,0,.688.2,3.6,3.6,0,0,0,.664-.055v1.711a4.648,4.648,0,0,1-1.367.2,2.156,2.156,0,0,1-2.422-2.4V10.2h-1.234V8.547h1.234V6.469ZM121.73,17a2.507,2.507,0,0,1-.227-.758,2.732,2.732,0,0,1-2.133.914,3,3,0,0,1-2.059-.719,2.312,2.312,0,0,1-.816-1.812,2.389,2.389,0,0,1,1-2.062,4.915,4.915,0,0,1,2.879-.727h1.039v-.484a1.393,1.393,0,0,0-.3-.937,1.183,1.183,0,0,0-.949-.352,1.345,1.345,0,0,0-.895.273.929.929,0,0,0-.324.75h-2.258a2.268,2.268,0,0,1,.453-1.359,3,3,0,0,1,1.281-.98,4.669,4.669,0,0,1,1.859-.355,3.689,3.689,0,0,1,2.48.785,2.747,2.747,0,0,1,.918,2.207v3.664a4.041,4.041,0,0,0,.336,1.82V17Zm-1.867-1.57a1.945,1.945,0,0,0,.922-.223,1.462,1.462,0,0,0,.625-.6V13.156h-.844q-1.7,0-1.8,1.172l-.008.133a.9.9,0,0,0,.3.7A1.153,1.153,0,0,0,119.863,15.43Zm7.93,1.57h-2.266V5h2.266Z" transform="translate(285 14979.4)" fill="#12263f"/>
    <path id="Trazado_217875" data-name="Trazado 217875" d="M63.715,12.438,62.5,13.75V17H60.152V5.625H62.5v5.156l1.031-1.414,2.9-3.742h2.883L65.27,10.68,69.426,17H66.637ZM75.059,17a2.507,2.507,0,0,1-.227-.758,2.732,2.732,0,0,1-2.133.914,3,3,0,0,1-2.059-.719,2.312,2.312,0,0,1-.816-1.812,2.389,2.389,0,0,1,1-2.062,4.915,4.915,0,0,1,2.879-.727h1.039v-.484a1.393,1.393,0,0,0-.3-.937,1.183,1.183,0,0,0-.949-.352,1.345,1.345,0,0,0-.895.273.929.929,0,0,0-.324.75H70.012a2.268,2.268,0,0,1,.453-1.359,3,3,0,0,1,1.281-.98,4.669,4.669,0,0,1,1.859-.355,3.689,3.689,0,0,1,2.48.785A2.747,2.747,0,0,1,77,11.383v3.664a4.041,4.041,0,0,0,.336,1.82V17Zm-1.867-1.57a1.945,1.945,0,0,0,.922-.223,1.462,1.462,0,0,0,.625-.6V13.156h-.844q-1.7,0-1.8,1.172l-.008.133a.9.9,0,0,0,.3.7A1.153,1.153,0,0,0,73.191,15.43ZM81.121,17H78.855V8.547h2.266Zm-2.4-10.641a1.112,1.112,0,0,1,.34-.836,1.465,1.465,0,0,1,1.848,0,1.105,1.105,0,0,1,.344.836,1.108,1.108,0,0,1-.348.844,1.448,1.448,0,0,1-1.836,0A1.108,1.108,0,0,1,78.723,6.359Zm6.852,8.82h4.133V17H82.691V15.625l3.977-5.258H82.809V8.547h6.773v1.33Zm9.438,1.977a4.15,4.15,0,0,1-3.027-1.141,4.054,4.054,0,0,1-1.168-3.039v-.219a5.106,5.106,0,0,1,.492-2.277A3.612,3.612,0,0,1,92.7,8.934a3.914,3.914,0,0,1,2.059-.543,3.508,3.508,0,0,1,2.73,1.094,4.444,4.444,0,0,1,1,3.1v.922H93.105a2.1,2.1,0,0,0,.66,1.328,2,2,0,0,0,1.395.5,2.437,2.437,0,0,0,2.039-.945l1.109,1.242a3.389,3.389,0,0,1-1.375,1.121A4.511,4.511,0,0,1,95.012,17.156Zm-.258-6.945a1.411,1.411,0,0,0-1.09.455,2.357,2.357,0,0,0-.535,1.3H96.27v-.181a1.681,1.681,0,0,0-.406-1.165A1.456,1.456,0,0,0,94.754,10.211Zm7.094-1.664.07.977a2.951,2.951,0,0,1,2.43-1.133,2.453,2.453,0,0,1,2,.789,3.682,3.682,0,0,1,.672,2.359V17h-2.258V11.594a1.465,1.465,0,0,0-.312-1.043,1.4,1.4,0,0,0-1.039-.324,1.553,1.553,0,0,0-1.43.813V17H99.723V8.547Z" transform="translate(500 14979.4)" fill="#12263f"/>
    <path id="Trazado_217876" data-name="Trazado 217876" d="M35.559,5.625H37.9V13.5a3.766,3.766,0,0,1-.48,1.918A3.261,3.261,0,0,1,36.066,16.7a4.234,4.234,0,0,1-1.977.453,4.025,4.025,0,0,1-2.812-.918,3.335,3.335,0,0,1-1.008-2.6h2.359a1.829,1.829,0,0,0,.352,1.234,1.407,1.407,0,0,0,1.109.4,1.343,1.343,0,0,0,1.07-.461,1.948,1.948,0,0,0,.4-1.312Zm9.266,10.516a2.831,2.831,0,0,1-2.312,1.016,2.67,2.67,0,0,1-2.074-.781,3.335,3.335,0,0,1-.73-2.289V8.547h2.258v5.467q0,1.322,1.2,1.322a1.63,1.63,0,0,0,1.578-.8V8.547h2.266V17H44.887Zm8.469-1.477a.727.727,0,0,0-.41-.652,4.659,4.659,0,0,0-1.316-.426q-3.016-.633-3.016-2.562a2.323,2.323,0,0,1,.934-1.879,3.766,3.766,0,0,1,2.441-.754,4.053,4.053,0,0,1,2.574.758,2.388,2.388,0,0,1,.965,1.969H53.207a1.092,1.092,0,0,0-.312-.8A1.322,1.322,0,0,0,51.918,10a1.351,1.351,0,0,0-.883.258.814.814,0,0,0-.312.656.7.7,0,0,0,.355.605,3.657,3.657,0,0,0,1.2.4A9.8,9.8,0,0,1,53.7,12.3a2.336,2.336,0,0,1,1.789,2.273,2.2,2.2,0,0,1-.992,1.871,4.28,4.28,0,0,1-2.562.715,4.47,4.47,0,0,1-1.887-.379,3.166,3.166,0,0,1-1.293-1.039,2.414,2.414,0,0,1-.469-1.426h2.141a1.179,1.179,0,0,0,.445.922,1.766,1.766,0,0,0,1.109.32,1.635,1.635,0,0,0,.98-.246A.766.766,0,0,0,53.293,14.664Zm6.352-8.2V8.547H61.09V10.2H59.645v4.219a1.007,1.007,0,0,0,.18.672.9.9,0,0,0,.688.2,3.6,3.6,0,0,0,.664-.055v1.711a4.648,4.648,0,0,1-1.367.2,2.156,2.156,0,0,1-2.422-2.4V10.2H56.152V8.547h1.234V6.469ZM61.762,12.7a5.013,5.013,0,0,1,.484-2.242A3.546,3.546,0,0,1,63.641,8.93a4.069,4.069,0,0,1,2.113-.539,3.849,3.849,0,0,1,2.793,1.047,4.2,4.2,0,0,1,1.207,2.844l.016.578a4.418,4.418,0,0,1-1.086,3.121,4.209,4.209,0,0,1-5.832,0,4.5,4.5,0,0,1-1.09-3.187Zm2.258.16a3.16,3.16,0,0,0,.453,1.843,1.628,1.628,0,0,0,2.578.008,3.457,3.457,0,0,0,.461-2.015,3.128,3.128,0,0,0-.461-1.831,1.5,1.5,0,0,0-1.3-.649,1.474,1.474,0,0,0-1.281.646A3.516,3.516,0,0,0,64.02,12.856ZM80.043,17a2.507,2.507,0,0,1-.227-.758,2.732,2.732,0,0,1-2.133.914,3,3,0,0,1-2.059-.719,2.312,2.312,0,0,1-.816-1.812,2.389,2.389,0,0,1,1-2.062,4.915,4.915,0,0,1,2.879-.727h1.039v-.484a1.393,1.393,0,0,0-.3-.937,1.183,1.183,0,0,0-.949-.352,1.345,1.345,0,0,0-.895.273.929.929,0,0,0-.324.75H75a2.268,2.268,0,0,1,.453-1.359,3,3,0,0,1,1.281-.98,4.669,4.669,0,0,1,1.859-.355,3.689,3.689,0,0,1,2.48.785,2.747,2.747,0,0,1,.918,2.207v3.664a4.041,4.041,0,0,0,.336,1.82V17Zm-1.867-1.57a1.945,1.945,0,0,0,.922-.223,1.462,1.462,0,0,0,.625-.6V13.156h-.844q-1.7,0-1.8,1.172l-.008.133a.9.9,0,0,0,.3.7A1.153,1.153,0,0,0,78.176,15.43ZM90.41,6.469V8.547h1.445V10.2H90.41v4.219a1.007,1.007,0,0,0,.18.672.9.9,0,0,0,.688.2,3.6,3.6,0,0,0,.664-.055v1.711a4.648,4.648,0,0,1-1.367.2,2.156,2.156,0,0,1-2.422-2.4V10.2H86.918V8.547h1.234V6.469ZM95.5,17H93.23V8.547H95.5ZM93.1,6.359a1.112,1.112,0,0,1,.34-.836,1.465,1.465,0,0,1,1.848,0,1.105,1.105,0,0,1,.344.836,1.108,1.108,0,0,1-.348.844,1.448,1.448,0,0,1-1.836,0A1.108,1.108,0,0,1,93.1,6.359Zm8.148,10.8a4.15,4.15,0,0,1-3.027-1.141,4.054,4.054,0,0,1-1.168-3.039v-.219a5.106,5.106,0,0,1,.492-2.277,3.612,3.612,0,0,1,1.395-1.547A3.914,3.914,0,0,1,101,8.391a3.508,3.508,0,0,1,2.73,1.094,4.444,4.444,0,0,1,1,3.1v.922H99.34a2.1,2.1,0,0,0,.66,1.328,2,2,0,0,0,1.395.5,2.437,2.437,0,0,0,2.039-.945l1.109,1.242a3.389,3.389,0,0,1-1.375,1.121A4.511,4.511,0,0,1,101.246,17.156Zm-.258-6.945a1.411,1.411,0,0,0-1.09.455,2.357,2.357,0,0,0-.535,1.3H102.5v-.181a1.681,1.681,0,0,0-.406-1.165A1.456,1.456,0,0,0,100.988,10.211Zm7.133-1.664.07.945a2.971,2.971,0,0,1,2.43-1.1,2.255,2.255,0,0,1,2.242,1.289A2.9,2.9,0,0,1,115.4,8.391a2.521,2.521,0,0,1,2.047.8,3.681,3.681,0,0,1,.672,2.41V17h-2.266V11.609a1.61,1.61,0,0,0-.281-1.051,1.246,1.246,0,0,0-.992-.332,1.409,1.409,0,0,0-1.406.969l.008,5.8h-2.258V11.617a1.59,1.59,0,0,0-.289-1.062,1.259,1.259,0,0,0-.984-.328,1.463,1.463,0,0,0-1.391.8V17H106V8.547Zm19.344,4.3a5.07,5.07,0,0,1-.887,3.129,2.843,2.843,0,0,1-2.395,1.176,2.633,2.633,0,0,1-2.07-.891V20.25h-2.258V8.547h2.094l.078.828a2.654,2.654,0,0,1,2.141-.984,2.862,2.862,0,0,1,2.43,1.156,5.207,5.207,0,0,1,.867,3.188Zm-2.258-.164a3.327,3.327,0,0,0-.418-1.82,1.361,1.361,0,0,0-1.215-.641,1.478,1.478,0,0,0-1.461.813V14.5a1.5,1.5,0,0,0,1.477.836Q125.207,15.336,125.207,12.688Zm3.3.008A5.013,5.013,0,0,1,129,10.453a3.546,3.546,0,0,1,1.395-1.523,4.069,4.069,0,0,1,2.113-.539A3.849,3.849,0,0,1,135.3,9.438a4.2,4.2,0,0,1,1.207,2.844l.016.578a4.418,4.418,0,0,1-1.086,3.121,4.209,4.209,0,0,1-5.832,0,4.5,4.5,0,0,1-1.09-3.187Zm2.258.16a3.16,3.16,0,0,0,.453,1.843,1.628,1.628,0,0,0,2.578.008,3.457,3.457,0,0,0,.461-2.015,3.128,3.128,0,0,0-.461-1.831,1.5,1.5,0,0,0-1.3-.649,1.474,1.474,0,0,0-1.281.646A3.516,3.516,0,0,0,130.77,12.856Z" transform="translate(714 14979.4)" fill="#12263f"/>
    <path id="Trazado_217877" data-name="Trazado 217877" d="M43.48,12.836H41.613V17H39.27V5.625H43.5a4.778,4.778,0,0,1,3.109.9A3.1,3.1,0,0,1,47.7,9.063,3.5,3.5,0,0,1,47.2,11a3.437,3.437,0,0,1-1.527,1.238l2.461,4.648V17H45.613Zm-1.867-1.9H43.5a1.936,1.936,0,0,0,1.367-.449,1.606,1.606,0,0,0,.484-1.238A1.719,1.719,0,0,0,44.9,7.984a1.9,1.9,0,0,0-1.4-.461H41.613Zm11.609,6.219A4.15,4.15,0,0,1,50.2,16.016a4.054,4.054,0,0,1-1.168-3.039v-.219a5.106,5.106,0,0,1,.492-2.277,3.612,3.612,0,0,1,1.395-1.547,3.914,3.914,0,0,1,2.059-.543A3.508,3.508,0,0,1,55.7,9.484a4.444,4.444,0,0,1,1,3.1v.922H51.316a2.1,2.1,0,0,0,.66,1.328,2,2,0,0,0,1.395.5,2.437,2.437,0,0,0,2.039-.945l1.109,1.242a3.389,3.389,0,0,1-1.375,1.121A4.511,4.511,0,0,1,53.223,17.156Zm-.258-6.945a1.411,1.411,0,0,0-1.09.455,2.357,2.357,0,0,0-.535,1.3H54.48v-.181a1.681,1.681,0,0,0-.406-1.165A1.456,1.456,0,0,0,52.965,10.211ZM60.363,17H58.1V8.547h2.266Zm-2.4-10.641a1.112,1.112,0,0,1,.34-.836,1.465,1.465,0,0,1,1.848,0,1.105,1.105,0,0,1,.344.836,1.108,1.108,0,0,1-.348.844,1.448,1.448,0,0,1-1.836,0A1.108,1.108,0,0,1,57.965,6.359ZM64.3,8.547l.07.977A2.951,2.951,0,0,1,66.8,8.391a2.453,2.453,0,0,1,2,.789,3.682,3.682,0,0,1,.672,2.359V17H67.215V11.594a1.465,1.465,0,0,0-.312-1.043,1.4,1.4,0,0,0-1.039-.324,1.553,1.553,0,0,0-1.43.813V17H62.176V8.547Zm6.555,4.164a4.954,4.954,0,0,1,.926-3.133,3,3,0,0,1,2.5-1.187,2.631,2.631,0,0,1,2.164.953l.094-.8h2.047v8.172a3.613,3.613,0,0,1-.5,1.93A3.236,3.236,0,0,1,76.66,19.9a4.985,4.985,0,0,1-2.141.43,4.635,4.635,0,0,1-1.812-.371A3.217,3.217,0,0,1,71.371,19l1-1.375a2.645,2.645,0,0,0,2.047.945,1.936,1.936,0,0,0,1.4-.48,1.8,1.8,0,0,0,.5-1.363v-.453a2.612,2.612,0,0,1-2.055.883A2.992,2.992,0,0,1,71.8,15.965a4.953,4.953,0,0,1-.941-3.16Zm2.258.168a3.085,3.085,0,0,0,.461,1.8,1.466,1.466,0,0,0,1.266.653,1.568,1.568,0,0,0,1.477-.775V11a1.564,1.564,0,0,0-1.461-.775,1.476,1.476,0,0,0-1.277.665A3.477,3.477,0,0,0,73.113,12.879Zm11.094,4.277a4.15,4.15,0,0,1-3.027-1.141,4.054,4.054,0,0,1-1.168-3.039v-.219A5.106,5.106,0,0,1,80.5,10.48,3.612,3.612,0,0,1,81.9,8.934a3.914,3.914,0,0,1,2.059-.543,3.508,3.508,0,0,1,2.73,1.094,4.444,4.444,0,0,1,1,3.1v.922H82.3a2.1,2.1,0,0,0,.66,1.328,2,2,0,0,0,1.395.5,2.437,2.437,0,0,0,2.039-.945L87.5,15.633a3.389,3.389,0,0,1-1.375,1.121A4.511,4.511,0,0,1,84.207,17.156Zm-.258-6.945a1.411,1.411,0,0,0-1.09.455,2.357,2.357,0,0,0-.535,1.3h3.141v-.181a1.681,1.681,0,0,0-.406-1.165A1.456,1.456,0,0,0,83.949,10.211Zm7.094-1.664.07.977a2.951,2.951,0,0,1,2.43-1.133,2.453,2.453,0,0,1,2,.789,3.682,3.682,0,0,1,.672,2.359V17H93.957V11.594a1.465,1.465,0,0,0-.312-1.043,1.4,1.4,0,0,0-1.039-.324,1.553,1.553,0,0,0-1.43.813V17H88.918V8.547ZM100.309,17H98.043V8.547h2.266ZM97.91,6.359a1.112,1.112,0,0,1,.34-.836,1.465,1.465,0,0,1,1.848,0,1.105,1.105,0,0,1,.344.836,1.108,1.108,0,0,1-.348.844,1.448,1.448,0,0,1-1.836,0A1.108,1.108,0,0,1,97.91,6.359Zm8.148,10.8a4.15,4.15,0,0,1-3.027-1.141,4.054,4.054,0,0,1-1.168-3.039v-.219a5.106,5.106,0,0,1,.492-2.277,3.612,3.612,0,0,1,1.395-1.547,3.914,3.914,0,0,1,2.059-.543,3.508,3.508,0,0,1,2.73,1.094,4.444,4.444,0,0,1,1,3.1v.922h-5.383a2.1,2.1,0,0,0,.66,1.328,2,2,0,0,0,1.395.5,2.437,2.437,0,0,0,2.039-.945l1.109,1.242a3.389,3.389,0,0,1-1.375,1.121A4.511,4.511,0,0,1,106.059,17.156Zm-.258-6.945a1.411,1.411,0,0,0-1.09.455,2.357,2.357,0,0,0-.535,1.3h3.141v-.181a1.681,1.681,0,0,0-.406-1.165A1.456,1.456,0,0,0,105.8,10.211Zm9.766.453a6.134,6.134,0,0,0-.812-.062,1.654,1.654,0,0,0-1.68.867V17h-2.258V8.547h2.133l.063,1.008a2.092,2.092,0,0,1,1.883-1.164,2.366,2.366,0,0,1,.7.1ZM119.09,17h-2.258V8.547h2.258Zm-.664-11.883h2.461l-2.164,2.422h-1.836ZM125.934,17a2.507,2.507,0,0,1-.227-.758,2.732,2.732,0,0,1-2.133.914,3,3,0,0,1-2.059-.719,2.312,2.312,0,0,1-.816-1.812,2.389,2.389,0,0,1,1-2.062,4.915,4.915,0,0,1,2.879-.727h1.039v-.484a1.393,1.393,0,0,0-.3-.937,1.183,1.183,0,0,0-.949-.352,1.345,1.345,0,0,0-.895.273.929.929,0,0,0-.324.75h-2.258a2.268,2.268,0,0,1,.453-1.359,3,3,0,0,1,1.281-.98,4.669,4.669,0,0,1,1.859-.355,3.689,3.689,0,0,1,2.48.785,2.747,2.747,0,0,1,.918,2.207v3.664a4.041,4.041,0,0,0,.336,1.82V17Zm-1.867-1.57a1.945,1.945,0,0,0,.922-.223,1.462,1.462,0,0,0,.625-.6V13.156h-.844q-1.7,0-1.8,1.172l-.008.133a.9.9,0,0,0,.3.7A1.153,1.153,0,0,0,124.066,15.43Z" transform="translate(929 14979.4)" fill="#12263f"/>
    <path id="Trazado_217878" data-name="Trazado 217878" d="M32.617,17,34.594,5.625l3.547.008a4.705,4.705,0,0,1,2.969.8,2.488,2.488,0,0,1,.9,2.242A2.865,2.865,0,0,1,40.016,11.2a1.911,1.911,0,0,1,1.055.879,2.63,2.63,0,0,1,.32,1.52,3.291,3.291,0,0,1-1.262,2.5A5,5,0,0,1,36.984,17Zm3.156-4.953-.539,3.07,1.8.008a2.327,2.327,0,0,0,1.414-.418,1.658,1.658,0,0,0,.68-1.129,1.4,1.4,0,0,0-.191-1.1,1.269,1.269,0,0,0-1.012-.426Zm.281-1.656,1.555.016A2.475,2.475,0,0,0,39.027,10a1.575,1.575,0,0,0,.66-1.086q.2-1.375-1.445-1.383l-1.687-.008Zm10.422,6.766a3.677,3.677,0,0,1-1.965-.543,3.292,3.292,0,0,1-1.277-1.469,4.093,4.093,0,0,1-.328-2.059l.023-.312a5.465,5.465,0,0,1,.719-2.266A4.341,4.341,0,0,1,45.2,8.918a3.827,3.827,0,0,1,2.094-.527,2.924,2.924,0,0,1,2.473,1.2,4.117,4.117,0,0,1,.637,2.962l-.125.962h-5.18a1.814,1.814,0,0,0,.4,1.313,1.521,1.521,0,0,0,1.172.508,2.7,2.7,0,0,0,2.109-.937l1.008,1.25a3.135,3.135,0,0,1-1.375,1.121A4.5,4.5,0,0,1,46.477,17.156Zm.7-6.945a1.565,1.565,0,0,0-1.082.383,3.363,3.363,0,0,0-.848,1.383h3.031l.047-.2a2.071,2.071,0,0,0,.008-.594,1.134,1.134,0,0,0-.383-.707A1.2,1.2,0,0,0,47.18,10.211Zm7.234-1.672-.187,1a3.042,3.042,0,0,1,2.461-1.148,2.028,2.028,0,0,1,1.766.875,3.526,3.526,0,0,1,.414,2.359L57.977,17h-2.2l.906-5.4a2.528,2.528,0,0,0,.016-.555.9.9,0,0,0-1-.82,1.9,1.9,0,0,0-1.555.8L53.086,17h-2.2l1.469-8.453Zm8.992,6.8a1.447,1.447,0,0,0,1.016-.332,1.632,1.632,0,0,0,.531-.926l2.07-.008a3.037,3.037,0,0,1-.559,1.6,3.394,3.394,0,0,1-1.344,1.109,3.847,3.847,0,0,1-1.77.375A3.123,3.123,0,0,1,60.914,16.1a3.965,3.965,0,0,1-.867-2.766l.023-.43.008-.086a5.284,5.284,0,0,1,1.391-3.27,3.761,3.761,0,0,1,2.914-1.16,3.047,3.047,0,0,1,2.27.934,3.3,3.3,0,0,1,.824,2.379H65.422a1.73,1.73,0,0,0-.3-1.07,1.128,1.128,0,0,0-.891-.422q-1.578-.047-1.914,2.3a7.782,7.782,0,0,0-.086,1.438Q62.312,15.32,63.406,15.344Zm7.828-5.859a2.946,2.946,0,0,1,2.289-1.094,2.143,2.143,0,0,1,1.848.9,3.548,3.548,0,0,1,.441,2.379L74.922,17h-2.2l.9-5.358a2.6,2.6,0,0,0,.016-.563.885.885,0,0,0-.984-.868,1.9,1.9,0,0,0-1.562.766L70.023,17h-2.2L69.9,5h2.211Zm8.922-.945-.18.961a3.112,3.112,0,0,1,2.477-1.109,2.379,2.379,0,0,1,1.3.359,1.679,1.679,0,0,1,.7.93A3.255,3.255,0,0,1,87.07,8.391a2.126,2.126,0,0,1,1.754.8,3.271,3.271,0,0,1,.5,2.234l-.016.2L88.406,17H86.2l.9-5.4a3.907,3.907,0,0,0,.023-.54.837.837,0,0,0-.937-.845,1.86,1.86,0,0,0-1.555.97l-.023.18L83.617,17h-2.2l.9-5.383a3.9,3.9,0,0,0,.023-.539.836.836,0,0,0-.93-.852,1.867,1.867,0,0,0-1.508.789L78.844,17h-2.2L78.1,8.547ZM95.047,17a2.281,2.281,0,0,1-.086-.766,2.863,2.863,0,0,1-2.156.922,2.594,2.594,0,0,1-1.84-.723,2.186,2.186,0,0,1-.684-1.746,2.527,2.527,0,0,1,1.16-2.121,5.266,5.266,0,0,1,2.965-.738l1.031.016.109-.508a1.764,1.764,0,0,0,.023-.492.846.846,0,0,0-.277-.574.955.955,0,0,0-.629-.215,1.345,1.345,0,0,0-.875.254,1.231,1.231,0,0,0-.461.777l-2.211.008A2.457,2.457,0,0,1,92.23,9.129a4.312,4.312,0,0,1,2.613-.738,3.117,3.117,0,0,1,2.25.855,2.5,2.5,0,0,1,.68,2.121l-.648,4.047-.039.5a2.412,2.412,0,0,0,.133.938L97.211,17Zm-1.7-1.555a2.017,2.017,0,0,0,1.664-.828l.273-1.461-.766-.008a2.139,2.139,0,0,0-1.758.742,1.292,1.292,0,0,0-.242.633.75.75,0,0,0,.176.668A.891.891,0,0,0,93.352,15.445Zm10.992-4.781a4.548,4.548,0,0,0-.742-.078,2.136,2.136,0,0,0-1.867.883L100.758,17h-2.2l1.469-8.453,2.07-.008-.2,1.031a2.325,2.325,0,0,1,1.969-1.2,3.214,3.214,0,0,1,.766.109Zm3.609,2.969-1.023.891L106.5,17h-2.2l2.078-12h2.211l-1.141,6.516.43-.461,2.508-2.508h2.828l-3.7,3.633L111.867,17h-2.414ZM114.992,17h-2.219l1.469-8.453h2.219ZM114.5,6.4a1.1,1.1,0,0,1,.344-.867,1.323,1.323,0,0,1,1.734-.039,1.1,1.1,0,0,1,.383.828,1.132,1.132,0,0,1-.324.844,1.215,1.215,0,0,1-.887.375,1.235,1.235,0,0,1-.863-.3A1.091,1.091,0,0,1,114.5,6.4Zm5.844,2.141-.187,1a3.042,3.042,0,0,1,2.461-1.148,2.028,2.028,0,0,1,1.766.875,3.526,3.526,0,0,1,.414,2.359L123.906,17h-2.2l.906-5.4a2.528,2.528,0,0,0,.016-.555.9.9,0,0,0-1-.82,1.9,1.9,0,0,0-1.555.8L119.016,17h-2.2l1.469-8.453Zm5.711,4.227a5.849,5.849,0,0,1,1.277-3.184,3.242,3.242,0,0,1,2.629-1.2,2.37,2.37,0,0,1,2.016.977l.289-.82,2.023.008-1.383,8.164a3.983,3.983,0,0,1-1.437,2.672,4.471,4.471,0,0,1-3,.953,4.168,4.168,0,0,1-1.672-.379,3.575,3.575,0,0,1-1.312-1l1.094-1.344a2.349,2.349,0,0,0,1.844.961,2.166,2.166,0,0,0,1.469-.449,2.4,2.4,0,0,0,.828-1.355l.125-.508a2.749,2.749,0,0,1-2.07.891,2.428,2.428,0,0,1-1.961-.918,3.947,3.947,0,0,1-.8-2.348A7.89,7.89,0,0,1,126.055,12.766Zm2.164.927a2.02,2.02,0,0,0,.309,1.178,1.08,1.08,0,0,0,.895.466,1.972,1.972,0,0,0,1.594-.767l.656-3.583a1.3,1.3,0,0,0-1.242-.767A1.728,1.728,0,0,0,129,10.9a3.561,3.561,0,0,0-.734,1.87A8.216,8.216,0,0,0,128.219,13.693Z" transform="translate(1143 14979.4)" fill="#12263f"/>
    <path id="Trazado_216612" data-name="Trazado 216612" d="M102.8.5H16.541A16.041,16.041,0,0,0,.5,16.541V60.506A16.041,16.041,0,0,0,16.541,76.547h139a16.041,16.041,0,0,0,16.041-16.041V40.16h16.253" transform="translate(285 14938.354)" fill="none" stroke="#359547" stroke-miterlimit="10" stroke-width="2"/>
    <path id="Trazado_216613" data-name="Trazado 216613" d="M102.8.5H16.541A16.041,16.041,0,0,0,.5,16.541V60.506A16.041,16.041,0,0,0,16.541,76.547h139a16.041,16.041,0,0,0,16.041-16.041V40.16h16.253" transform="translate(500 14938.354)" fill="none" stroke="#03386e" stroke-miterlimit="10" stroke-width="2"/>
    <path id="Trazado_216614" data-name="Trazado 216614" d="M102.8.5H16.541A16.041,16.041,0,0,0,.5,16.541V60.506A16.041,16.041,0,0,0,16.541,76.547h139a16.041,16.041,0,0,0,16.041-16.041V40.16h16.253" transform="translate(714 14938.354)" fill="none" stroke="#359547" stroke-miterlimit="10" stroke-width="2"/>
    <path id="Trazado_216615" data-name="Trazado 216615" d="M102.8.5H16.541A16.041,16.041,0,0,0,.5,16.541V60.506A16.041,16.041,0,0,0,16.541,76.547h139a16.041,16.041,0,0,0,16.041-16.041V40.16h16.253" transform="translate(929 14938.354)" fill="none" stroke="#03386e" stroke-miterlimit="10" stroke-width="2"/>
    <path id="Trazado_216616" data-name="Trazado 216616" d="M102.8.5H16.541A16.041,16.041,0,0,0,.5,16.541V60.506A16.041,16.041,0,0,0,16.541,76.547h139a16.041,16.041,0,0,0,16.041-16.041V40.16" transform="translate(1143 14938.354)" fill="none" stroke="#359547" stroke-miterlimit="10" stroke-width="2"/>
    <g id="Grupo_871143" data-name="Grupo 871143" transform="translate(468.69 14967.359)">
      <path id="Trazado_213857" data-name="Trazado 213857" d="M14.846,0,12.184,2.661,20.026,10.5l-7.842,7.843,2.662,2.661,10.5-10.5Z" transform="translate(-5.633 0)" fill="#359547"/>
      <path id="Trazado_213858" data-name="Trazado 213858" d="M0,9.581,4.122,13.7,0,17.824l2.661,2.661L9.445,13.7,2.661,6.92Z" transform="translate(0 -3.199)" fill="#359547"/>
    </g>
    <g id="Grupo_871144" data-name="Grupo 871144" transform="translate(683.289 14967.359)">
      <path id="Trazado_213857-2" data-name="Trazado 213857" d="M14.846,0,12.184,2.661,20.026,10.5l-7.842,7.843,2.662,2.661,10.5-10.5Z" transform="translate(-5.633 0)" fill="#03386e"/>
      <path id="Trazado_213858-2" data-name="Trazado 213858" d="M0,9.581,4.122,13.7,0,17.824l2.661,2.661L9.445,13.7,2.661,6.92Z" transform="translate(0 -3.199)" fill="#03386e"/>
    </g>
    <g id="Grupo_871145" data-name="Grupo 871145" transform="translate(897.888 14967.359)">
      <path id="Trazado_213857-3" data-name="Trazado 213857" d="M14.846,0,12.184,2.661,20.026,10.5l-7.842,7.843,2.662,2.661,10.5-10.5Z" transform="translate(-5.633 0)" fill="#359547"/>
      <path id="Trazado_213858-3" data-name="Trazado 213858" d="M0,9.581,4.122,13.7,0,17.824l2.661,2.661L9.445,13.7,2.661,6.92Z" transform="translate(0 -3.199)" fill="#359547"/>
    </g>
    <g id="Grupo_871146" data-name="Grupo 871146" transform="translate(1112.486 14967.359)">
      <path id="Trazado_213857-4" data-name="Trazado 213857" d="M14.846,0,12.184,2.661,20.026,10.5l-7.842,7.843,2.662,2.661,10.5-10.5Z" transform="translate(-5.633 0)" fill="#03386e"/>
      <path id="Trazado_213858-4" data-name="Trazado 213858" d="M0,9.581,4.122,13.7,0,17.824l2.661,2.661L9.445,13.7,2.661,6.92Z" transform="translate(0 -3.199)" fill="#03386e"/>
    </g>
    <path id="Trazado_217879" data-name="Trazado 217879" d="M31.5,0A31.5,31.5,0,1,1,0,31.5,31.5,31.5,0,0,1,31.5,0Z" transform="translate(593 14908)" fill="#d8e2ec"/>
    <path id="Trazado_217880" data-name="Trazado 217880" d="M31.5,0A31.5,31.5,0,1,1,0,31.5,31.5,31.5,0,0,1,31.5,0Z" transform="translate(1022 14908)" fill="#d8e2ec"/>
    <path id="empresario_1_" data-name="empresario(1)" d="M37.746,24.282H34.072V22.445a1.84,1.84,0,0,0-1.837-1.837H26.11a1.829,1.829,0,0,0-1.337.585l-6.625-1.1V18.554a6.122,6.122,0,0,0,3.062-5.3h.612a1.837,1.837,0,0,0,0-3.675h-.294l.336-.778a4.946,4.946,0,0,0-2.492-6.461l-1.709-.778a6.279,6.279,0,0,0-6.266.68l-.966.724v0a3.81,3.81,0,0,0-2.458,5.4l.608,1.216H8.349a1.837,1.837,0,1,0,0,3.675h.612a6.122,6.122,0,0,0,3.062,5.3v1.535l-7.442,1.24A4.273,4.273,0,0,0,1,25.558v12.81a.612.612,0,0,0,.612.612H37.746a1.226,1.226,0,0,0,1.225-1.225V25.507A1.226,1.226,0,0,0,37.746,24.282Zm-4.9-1.837v1.837H28.969a4.291,4.291,0,0,0-1.984-2.45h5.249A.613.613,0,0,1,32.847,22.445Zm-7.349.119a3.059,3.059,0,0,1,2.162,1.718H25.5ZM22.435,11.421a.613.613,0,0,1-.612.612H21.21V10.809h.612A.613.613,0,0,1,22.435,11.421ZM9.166,5.329a2.6,2.6,0,0,1,2.221-1.257,2.862,2.862,0,0,1,2.385,1.276l.192.288,1.019-.679-.192-.288A4.079,4.079,0,0,0,12.481,3a5.033,5.033,0,0,1,4.675-.32l1.709.778A3.722,3.722,0,0,1,20.74,8.32l-.041.1L19.921,6.86a.613.613,0,0,0-.916-.216l-.98.735a4.9,4.9,0,0,1-5.879,0l-.98-.735a.613.613,0,0,0-.916.216l-.83,1.66-.35-.7a2.578,2.578,0,0,1,.1-2.491Zm-.817,6.7a.612.612,0,1,1,0-1.225h.612v1.225Zm1.837,1.225V9.728l.832-1.664.393.295a6.124,6.124,0,0,0,7.349,0l.393-.295.832,1.664v3.53a4.9,4.9,0,0,1-9.8,0Zm4.9,6.124a6.1,6.1,0,0,0,1.837-.282v1.254l-1.837,1.837-1.837-1.837V19.1a6.1,6.1,0,0,0,1.837.282Zm-.2,6.737h.4l1,2.5-1.2,5.189-1.2-5.189Zm1.359-2.54-.876,1.315H14.8l-.877-1.315.2-.613.524.524a.613.613,0,0,0,.866,0l.524-.524Zm-7.9,14.176V27.345H7.124V37.756h-4.9v-12.2a3.054,3.054,0,0,1,2.559-3.021l7.643-1.273.734.734-.493,1.478a.61.61,0,0,0,.072.533l1.046,1.569L12.68,28.342a.615.615,0,0,0-.028.365l1.837,7.962a.613.613,0,0,0,1.194,0l1.837-7.962a.616.616,0,0,0-.028-.365l-1.105-2.763,1.046-1.569a.614.614,0,0,0,.072-.533L17.012,22l.734-.734,6.536,1.089c0,.031-.009.061-.009.092v1.837H20.6a1.226,1.226,0,0,0-1.225,1.225V37.756Zm12.861,0H20.6V36.531H37.747v1.225Zm16.536-2.45H20.6V30.339a4.271,4.271,0,0,0,3.062,1.293h3.675v.612a1.837,1.837,0,0,0,3.675,0v-.612h3.675a4.275,4.275,0,0,0,3.063-1.293ZM28.56,32.244V29.182h1.225v3.062a.612.612,0,1,1-1.225,0Zm9.187-4.9a3.066,3.066,0,0,1-3.062,3.062H31.009V28.57a.612.612,0,0,0-.612-.612h-2.45a.612.612,0,0,0-.612.612v1.837H23.66A3.066,3.066,0,0,1,20.6,27.345V25.507H37.746Z" transform="translate(605 14919.975)"/>
    <g id="gestion-de-proyectos" transform="translate(1034 14920.202)">
      <g id="Grupo_871153" data-name="Grupo 871153" transform="translate(0 0.23)">
        <g id="Grupo_871152" data-name="Grupo 871152" transform="translate(0 0)">
          <path id="Trazado_216617" data-name="Trazado 216617" d="M38.884,12.246h0l-2.546-.363a.655.655,0,0,1-.3-1.172l2.058-1.543a.654.654,0,0,0,.131-.916L35.868,5.109a.654.654,0,0,0-.916-.131L32.895,6.521a.655.655,0,0,1-1.043-.616l.364-2.546a.655.655,0,0,0-.555-.741h0l-3.885-.555a.655.655,0,0,0-.741.555h0L26.67,5.165a.655.655,0,0,1-1.172.3L23.955,3.407a.654.654,0,0,0-.916-.131L21.072,4.752a12.664,12.664,0,0,0-2.677,0A12.436,12.436,0,0,0,7.43,15.9c-.018.185-.024.369-.033.553H7.2a.655.655,0,0,0-.64.524l-.452,2.151L4.3,17.881a.655.655,0,0,0-.835.076L1.5,19.921a.655.655,0,0,0-.076.834l1.244,1.808-2.151.452A.655.655,0,0,0,0,23.656v2.618a.655.655,0,0,0,.52.641l2.151.452L1.427,29.176a.655.655,0,0,0,.076.834l1.964,1.964a.655.655,0,0,0,.835.076L6.11,30.8l.452,2.151a.655.655,0,0,0,.64.524H9.82a.655.655,0,0,0,.641-.52l.452-2.151,1.808,1.244a.655.655,0,0,0,.834-.076l1.016-1.02v1.865a2.61,2.61,0,0,0,1.309,2.254V38.71A2.618,2.618,0,0,0,18.5,41.328h2.618a2.618,2.618,0,0,0,2.618-2.618V35.073a2.61,2.61,0,0,0,1.309-2.254V30.229a3.207,3.207,0,0,1,1.514-2.672A12.56,12.56,0,0,0,28.1,26.379l-.873-.975a11.143,11.143,0,0,1-1.379,1.054,4.508,4.508,0,0,0-2.111,3.771v2.591a1.309,1.309,0,0,1-1.309,1.309H17.19a1.309,1.309,0,0,1-1.309-1.309V30.174a4.4,4.4,0,0,0-2.076-3.694A11.093,11.093,0,0,1,19.668,5.994a.711.711,0,0,0-.026.071.654.654,0,0,0,.125.485L21.31,8.607a.641.641,0,0,1,.039.727.651.651,0,0,1-.655.315l-2.546-.364a.655.655,0,0,0-.741.555h0l-.556,3.887a.655.655,0,0,0,.555.741h0l2.546.364a.655.655,0,0,1,.3,1.172L18.2,17.547a.654.654,0,0,0-.131.916L20.422,21.6a.654.654,0,0,0,.916.131L23.4,20.193a.655.655,0,0,1,1.04.616l-.363,2.546a.655.655,0,0,0,.555.741h0l3.888.556a.725.725,0,0,0,.092.006.654.654,0,0,0,.649-.562l.363-2.546a.655.655,0,0,1,1.172-.3l1.543,2.057a.654.654,0,0,0,.916.131l3.142-2.356a.654.654,0,0,0,.131-.916l-1.543-2.057a.643.643,0,0,1-.039-.727.636.636,0,0,1,.655-.314l2.546.363a.655.655,0,0,0,.741-.555h0l.555-3.888A.655.655,0,0,0,38.884,12.246ZM17.19,35.437h5.236v1.309H17.19Zm0,2.618h5.236v.655a1.309,1.309,0,0,1-1.309,1.309H18.5A1.309,1.309,0,0,1,17.19,38.71ZM11.98,26.768a12.371,12.371,0,0,0,1.119.815,3.2,3.2,0,0,1,1.319,1.675l-1.4,1.4-1.359-.937a1.309,1.309,0,0,0-2.024.808l-.343,1.634H7.731l-.343-1.632a1.309,1.309,0,0,0-2.024-.808L4,30.659l-1.193-1.19.937-1.359a1.309,1.309,0,0,0-.808-2.024l-1.632-.344V24.187l1.632-.344a1.309,1.309,0,0,0,.808-2.02l-.937-1.363L4,19.271l1.361.937A1.309,1.309,0,0,0,7.388,19.4l.115-.545a12.464,12.464,0,0,0,.519,2.219,3.927,3.927,0,1,0,3.958,5.694Zm-1.016-.922a2.614,2.614,0,1,1-2.455-3.5h.025A12.4,12.4,0,0,0,10.963,25.846ZM37.677,16.04l-1.9-.271a1.964,1.964,0,0,0-1.848,3.122l1.15,1.534L32.986,22l-1.151-1.533a1.964,1.964,0,0,0-3.515.9l-.265,1.9-2.591-.37.271-1.9a1.964,1.964,0,0,0-3.122-1.849L21.079,20.3,19.509,18.2l1.533-1.151a1.964,1.964,0,0,0-.9-3.515l-1.9-.271.37-2.591,1.9.271a1.964,1.964,0,0,0,1.849-3.122L21.207,6.288,23.3,4.717,24.452,6.25a1.964,1.964,0,0,0,3.515-.9l.271-1.9,2.591.37-.271,1.9A1.964,1.964,0,0,0,33.68,7.569l1.534-1.15,1.571,2.094L35.251,9.664a1.964,1.964,0,0,0,.9,3.515l1.9.271Z" transform="translate(0 -2.057)"/>
        </g>
      </g>
      <g id="Grupo_871155" data-name="Grupo 871155" transform="translate(22.908 6.293)">
        <g id="Grupo_871154" data-name="Grupo 871154">
          <path id="Trazado_216618" data-name="Trazado 216618" d="M285.236,76.171a5.236,5.236,0,1,0,5.236,5.236A5.236,5.236,0,0,0,285.236,76.171Zm0,9.163a3.927,3.927,0,1,1,3.927-3.927A3.927,3.927,0,0,1,285.236,85.334Z" transform="translate(-280 -76.171)"/>
        </g>
      </g>
      <g id="Grupo_871157" data-name="Grupo 871157" transform="translate(19.154 29.028)">
        <g id="Grupo_871156" data-name="Grupo 871156">
          <rect id="Rectángulo_291623" data-name="Rectángulo 291623" width="1.309" height="1.964"/>
        </g>
      </g>
      <g id="Grupo_871159" data-name="Grupo 871159" transform="translate(10.64 7.53)">
        <g id="Grupo_871158" data-name="Grupo 871158">
          <path id="Trazado_216619" data-name="Trazado 216619" d="M136.35,106.361A7.854,7.854,0,0,1,135.024,92.4l-.7-1.107a9.163,9.163,0,0,0,1.551,16.288,4.179,4.179,0,0,1,2.684,3.9h1.309A5.476,5.476,0,0,0,136.35,106.361Z" transform="translate(-130.044 -91.291)"/>
        </g>
      </g>
      <g id="Grupo_871161" data-name="Grupo 871161" transform="translate(32.244 24.447)">
        <g id="Grupo_871160" data-name="Grupo 871160">
          <rect id="Rectángulo_291624" data-name="Rectángulo 291624" width="4.582" height="1.309"/>
        </g>
      </g>
      <g id="Grupo_871163" data-name="Grupo 871163" transform="translate(31.171 27.871)">
        <g id="Grupo_871162" data-name="Grupo 871162" transform="translate(0 0)">
          <rect id="Rectángulo_291625" data-name="Rectángulo 291625" width="1.309" height="5.112" transform="matrix(0.64, -0.768, 0.768, 0.64, 0, 1.006)"/>
        </g>
      </g>
      <g id="Grupo_871165" data-name="Grupo 871165" transform="translate(28.317 29.683)">
        <g id="Grupo_871164" data-name="Grupo 871164">
          <rect id="Rectángulo_291626" data-name="Rectángulo 291626" width="1.309" height="4.582"/>
        </g>
      </g>
      <g id="Grupo_871167" data-name="Grupo 871167" transform="translate(0.668 10.067)">
        <g id="Grupo_871166" data-name="Grupo 871166" transform="translate(0 0)">
          <rect id="Rectángulo_291627" data-name="Rectángulo 291627" width="5.397" height="1.308" transform="translate(0 1.309) rotate(-14.035)"/>
        </g>
      </g>
      <g id="Grupo_871169" data-name="Grupo 871169" transform="translate(1.756 3.625)">
        <g id="Grupo_871168" data-name="Grupo 871168" transform="translate(0 0)">
          <rect id="Rectángulo_291628" data-name="Rectángulo 291628" width="1.308" height="5.63" transform="matrix(0.581, -0.814, 0.814, 0.581, 0, 1.065)"/>
        </g>
      </g>
      <g id="Grupo_871171" data-name="Grupo 871171" transform="translate(7.364 0.067)">
        <g id="Grupo_871170" data-name="Grupo 871170" transform="translate(0 0)">
          <rect id="Rectángulo_291629" data-name="Rectángulo 291629" width="1.309" height="5.404" transform="matrix(0.969, -0.248, 0.248, 0.969, 0, 0.324)"/>
        </g>
      </g>
    </g>
    <path id="Trazado_217881" data-name="Trazado 217881" d="M31.5,0A31.5,31.5,0,1,1,0,31.5,31.5,31.5,0,0,1,31.5,0Z" transform="translate(379 14908)" fill="#cde7d6"/>
    <g id="buena-calidad_1_" data-name="buena-calidad(1)" transform="translate(392 14921)">
      <path id="Trazado_216626" data-name="Trazado 216626" d="M12.9,10.8h8.856a1.9,1.9,0,1,0,0-3.8H12.9a1.9,1.9,0,1,0,0,3.8Zm0-2.53h8.856a.633.633,0,0,1,0,1.265H12.9a.633.633,0,1,1,0-1.265Z" transform="translate(-4.042 -2.572)"/>
      <path id="Trazado_216627" data-name="Trazado 216627" d="M37.41,21.159a2.663,2.663,0,0,0-1.032-2.49,1.392,1.392,0,0,1-.51-.764A2.664,2.664,0,0,0,33.963,16a1.4,1.4,0,0,1-.759-.51,2.651,2.651,0,0,0-2.491-1.032,1.411,1.411,0,0,1-.9-.18,2.668,2.668,0,0,0-2.692,0,1.392,1.392,0,0,1-.55.178V5.32a1.251,1.251,0,0,0-.371-.892L22.14.369A1.251,1.251,0,0,0,21.248,0H1.9A1.9,1.9,0,0,0,0,1.9V33.527a1.9,1.9,0,0,0,1.9,1.9H20.613A1.418,1.418,0,0,0,22.026,36.6h1.655l.931.932a1.467,1.467,0,0,0,1.027.421,1.518,1.518,0,0,0,.271-.025,1.455,1.455,0,0,0,1.056-.832l1.5-3.3,1.5,3.3a1.455,1.455,0,0,0,1.058.836,1.478,1.478,0,0,0,1.3-.4l.928-.929h1.655a1.449,1.449,0,0,0,1.332-2.018L34.5,30.6a2.657,2.657,0,0,0,1.368-1.7,1.4,1.4,0,0,1,.51-.759,2.664,2.664,0,0,0,1.032-2.491,1.432,1.432,0,0,1,.18-.9h0a2.664,2.664,0,0,0,0-2.692A1.4,1.4,0,0,1,37.41,21.159Zm-15.27-19,2.27,2.269H22.773A.633.633,0,0,1,22.14,3.8Zm-1.261,32H1.9a.633.633,0,0,1-.633-.633V1.9A.633.633,0,0,1,1.9,1.265H20.875V3.8a1.9,1.9,0,0,0,1.9,1.9H25.3V14.5a2.661,2.661,0,0,0-1.573.994,1.392,1.392,0,0,1-.764.51,2.664,2.664,0,0,0-1.9,1.905,1.4,1.4,0,0,1-.51.759,2.664,2.664,0,0,0-1.032,2.491,1.4,1.4,0,0,1-.18.9,2.664,2.664,0,0,0,0,2.692,1.4,1.4,0,0,1,.178.9,2.663,2.663,0,0,0,1.032,2.49,1.392,1.392,0,0,1,.51.764A2.657,2.657,0,0,0,22.431,30.6Zm4.934,2.419a.182.182,0,0,1-.137.108.193.193,0,0,1-.173-.05l-.954-.955a1.184,1.184,0,0,0-.834-.345H22.026a.183.183,0,0,1-.154-.084.17.17,0,0,1-.018-.163l1.72-3.946a1.363,1.363,0,0,1,.156.174,2.65,2.65,0,0,0,2.491,1.032,1.4,1.4,0,0,1,.9.18,2.693,2.693,0,0,0,.438.2Zm9.262-1.494a.173.173,0,0,1-.016.169.183.183,0,0,1-.154.083H33.217a1.183,1.183,0,0,0-.833.343l-.949.949a.2.2,0,0,1-.176.054.183.183,0,0,1-.139-.111l-1.745-3.846a2.681,2.681,0,0,0,.443-.2,1.416,1.416,0,0,1,.9-.178,2.657,2.657,0,0,0,2.49-1.032,1.385,1.385,0,0,1,.155-.173ZM36.5,24.109v.006a2.677,2.677,0,0,0-.338,1.708,1.4,1.4,0,0,1-.541,1.306,2.675,2.675,0,0,0-.972,1.455,1.4,1.4,0,0,1-1,1,2.661,2.661,0,0,0-1.455.971,1.414,1.414,0,0,1-1.306.541,2.683,2.683,0,0,0-1.716.341,1.392,1.392,0,0,1-1.414,0,2.673,2.673,0,0,0-1.347-.364,2.7,2.7,0,0,0-.364.025,1.408,1.408,0,0,1-1.306-.541,2.675,2.675,0,0,0-1.455-.972,1.4,1.4,0,0,1-1-1,2.661,2.661,0,0,0-.971-1.455,1.4,1.4,0,0,1-.541-1.306,2.682,2.682,0,0,0-.341-1.716,1.392,1.392,0,0,1,0-1.414,2.677,2.677,0,0,0,.338-1.708,1.4,1.4,0,0,1,.541-1.306,2.675,2.675,0,0,0,.972-1.455,1.4,1.4,0,0,1,1-1,2.661,2.661,0,0,0,1.455-.971,1.413,1.413,0,0,1,1.306-.541,2.688,2.688,0,0,0,1.716-.341,1.392,1.392,0,0,1,1.414,0,2.673,2.673,0,0,0,1.708.338,1.4,1.4,0,0,1,1.306.541,2.675,2.675,0,0,0,1.455.972,1.4,1.4,0,0,1,1,1,2.661,2.661,0,0,0,.971,1.455,1.4,1.4,0,0,1,.541,1.306A2.682,2.682,0,0,0,36.5,22.7a1.392,1.392,0,0,1,0,1.408Z" transform="translate(0 0)"/>
      <path id="Trazado_216628" data-name="Trazado 216628" d="M41.326,27a6.326,6.326,0,1,0,6.326,6.326A6.326,6.326,0,0,0,41.326,27Zm0,11.386a5.061,5.061,0,1,1,5.061-5.061A5.061,5.061,0,0,1,41.326,38.386Z" transform="translate(-12.86 -9.92)"/>
      <path id="Trazado_216629" data-name="Trazado 216629" d="M6.633,18.265H24.345a.633.633,0,0,0,0-1.265H6.633a.633.633,0,0,0,0,1.265Z" transform="translate(-2.205 -6.246)"/>
      <path id="Trazado_216630" data-name="Trazado 216630" d="M6.633,23.265H23.08a.633.633,0,0,0,0-1.265H6.633a.633.633,0,0,0,0,1.265Z" transform="translate(-2.205 -8.083)"/>
      <path id="Trazado_216631" data-name="Trazado 216631" d="M26.061,27H21.633a.633.633,0,1,0,0,1.265h4.428a.633.633,0,1,0,0-1.265Z" transform="translate(-7.716 -9.92)"/>
      <path id="Trazado_216632" data-name="Trazado 216632" d="M6.633,28.265h6.958a.633.633,0,1,0,0-1.265H6.633a.633.633,0,1,0,0,1.265Z" transform="translate(-2.205 -9.92)"/>
      <path id="Trazado_216633" data-name="Trazado 216633" d="M13,32.633a.633.633,0,0,0,.633.633h8.223a.633.633,0,1,0,0-1.265H13.633A.633.633,0,0,0,13,32.633Z" transform="translate(-4.777 -11.758)"/>
      <path id="Trazado_216634" data-name="Trazado 216634" d="M6.633,33.265h1.9A.633.633,0,0,0,8.53,32h-1.9a.633.633,0,0,0,0,1.265Z" transform="translate(-2.205 -11.758)"/>
      <path id="Trazado_216635" data-name="Trazado 216635" d="M6.633,38.265H19.284a.633.633,0,0,0,0-1.265H6.633a.633.633,0,1,0,0,1.265Z" transform="translate(-2.205 -13.595)"/>
      <path id="Trazado_216636" data-name="Trazado 216636" d="M19.917,42H6.633a.633.633,0,1,0,0,1.265H19.917a.633.633,0,1,0,0-1.265Z" transform="translate(-2.205 -15.432)"/>
      <path id="Trazado_216637" data-name="Trazado 216637" d="M13.591,47H6.633a.633.633,0,1,0,0,1.265h6.958a.633.633,0,1,0,0-1.265Z" transform="translate(-2.205 -17.269)"/>
      <path id="Trazado_216638" data-name="Trazado 216638" d="M44.981,34.185,42.265,36.9l-.185-.185a.633.633,0,1,0-.895.895l.633.633a.633.633,0,0,0,.894,0l3.163-3.163a.633.633,0,1,0-.895-.895Z" transform="translate(-15.064 -12.492)"/>
    </g>
    <path id="Trazado_217882" data-name="Trazado 217882" d="M31.5,0A31.5,31.5,0,1,1,0,31.5,31.5,31.5,0,0,1,31.5,0Z" transform="translate(1237 14908)" fill="#cde7d6"/>
    <g id="analisis-de-los-datos" transform="translate(1249 14920)">
      <path id="Trazado_216620" data-name="Trazado 216620" d="M35.975,27.083A1.778,1.778,0,0,0,37.754,25.3V2.778A1.778,1.778,0,0,0,35.975,1H2.778A1.778,1.778,0,0,0,1,2.778V25.3a1.778,1.778,0,0,0,1.778,1.778H13.212a10.123,10.123,0,0,0,4.847,4.034l-1.891,1.894H14.042V31.233a1.778,1.778,0,0,0-1.778-1.778H5.15a1.778,1.778,0,0,0-1.778,1.778v4.742A1.778,1.778,0,0,0,5.15,37.754h7.114a1.778,1.778,0,0,0,1.778-1.778V34.2h2.371a.593.593,0,0,0,.419-.174l2.5-2.5a9.908,9.908,0,0,0,7.743-1.237l1.541,1.541L28.444,32a.593.593,0,0,0,0,.838l4.006,4.006a3.108,3.108,0,1,0,4.4-4.4L32.84,28.443a.593.593,0,0,0-.838,0l-.175.174-1.533-1.533ZM12.856,35.975a.593.593,0,0,1-.593.593H5.15a.593.593,0,0,1-.593-.593V31.233a.593.593,0,0,1,.593-.593h7.114a.593.593,0,0,1,.593.593ZM2.778,25.9a.593.593,0,0,1-.593-.593V2.778a.593.593,0,0,1,.593-.593h33.2a.593.593,0,0,1,.593.593V25.3a.593.593,0,0,1-.593.593H30.921a10.04,10.04,0,0,0-5.068-13.345l3.008-3.008v1.533h1.186V8.114a.593.593,0,0,0-.593-.593H26.491V8.706h1.533l-3.39,3.39a10.026,10.026,0,0,0-2.546-.409l-2.8-4.481a.593.593,0,0,0-.5-.279H16.413V5.15a1.778,1.778,0,0,0-1.778-1.778H7.521A1.778,1.778,0,0,0,5.742,5.15V9.892A1.778,1.778,0,0,0,7.521,11.67h7.114a1.778,1.778,0,0,0,1.778-1.778V8.114h2.043l2.256,3.61a10.06,10.06,0,0,0-6.584,3.449l-.83-.932a.593.593,0,0,0-.439-.2h0a.593.593,0,0,0-.437.192L5.9,21.347l.874.8,6.077-6.63.539.607a9.945,9.945,0,0,0-1.551,7.4H4.557V7.521H3.371v16.6a.593.593,0,0,0,.593.593h8.153a9.9,9.9,0,0,0,.458,1.186ZM15.227,5.15V9.892a.593.593,0,0,1-.593.593H7.521a.593.593,0,0,1-.593-.593V5.15a.593.593,0,0,1,.593-.593h7.114A.593.593,0,0,1,15.227,5.15Zm-2.371,16.6a8.892,8.892,0,1,1,8.892,8.892A8.892,8.892,0,0,1,12.856,21.748ZM36.005,33.287a1.922,1.922,0,1,1-2.719,2.719L29.7,32.419,32.419,29.7Zm-6.55-2.3L28.06,29.593a10.13,10.13,0,0,0,1.533-1.533l1.395,1.395Z"/>
      <path id="Trazado_216621" data-name="Trazado 216621" d="M30.706,23a7.706,7.706,0,1,0,7.706,7.706A7.706,7.706,0,0,0,30.706,23Zm-.258,1.2-3.866,3.866-1.1-1.24A6.507,6.507,0,0,1,30.448,24.2Zm.258,13.029a6.521,6.521,0,0,1-5.8-3.557h6.987V32.485H24.438a6.42,6.42,0,0,1,.4-4.6l1.277,1.437a.593.593,0,0,0,.426.2h.017a.593.593,0,0,0,.419-.174l5.031-5.031a6.521,6.521,0,0,1-1.3,12.911Z" transform="translate(-8.958 -8.958)"/>
      <path id="Trazado_216622" data-name="Trazado 216622" d="M13,9h5.928v1.186H13Z" transform="translate(-4.886 -3.258)"/>
      <path id="Trazado_216623" data-name="Trazado 216623" d="M13,13h5.928v1.186H13Z" transform="translate(-4.886 -4.886)"/>
      <path id="Trazado_216624" data-name="Trazado 216624" d="M9,53h5.928v1.186H9Z" transform="translate(-3.258 -21.174)"/>
      <path id="Trazado_216625" data-name="Trazado 216625" d="M9,57h5.928v1.186H9Z" transform="translate(-3.258 -22.803)"/>
    </g>
    <path id="Trazado_217883" data-name="Trazado 217883" d="M31.5,0A31.5,31.5,0,1,1,0,31.5,31.5,31.5,0,0,1,31.5,0Z" transform="translate(807 14908)" fill="#cde7d6"/>
    <g id="XMLID_1156_" transform="translate(820 14921)">
      <g id="XMLID_416_">
        <path id="XMLID_419_" d="M36.191,26.353V5.228a2.265,2.265,0,0,0-2.262-2.262H28.553V2.225a2.225,2.225,0,1,0-4.45,0v.742H12.088V2.225a2.225,2.225,0,0,0-4.45,0v.742H2.262A2.265,2.265,0,0,0,0,5.228V32.743A2.265,2.265,0,0,0,2.262,35H12.37a.742.742,0,0,0,0-1.483H2.262a.78.78,0,0,1-.779-.779V5.228a.78.78,0,0,1,.779-.779H7.639v.742a2.225,2.225,0,0,0,4.45,0V4.45H24.1v.742a2.225,2.225,0,1,0,4.45,0V4.45h5.377a.78.78,0,0,1,.779.779V8.9H6.675a.742.742,0,0,0,0,1.483H34.708V25.1a6.933,6.933,0,0,0-2.077-.877V13.2a.742.742,0,0,0-.742-.742H4.3a.742.742,0,0,0-.742.742V30.7a.742.742,0,0,0,.742.742H24.043a6.919,6.919,0,0,0,.458,2.077H18.3A.742.742,0,1,0,18.3,35H25.3a6.968,6.968,0,1,0,10.894-8.652ZM10.605,5.191a.742.742,0,0,1-1.483,0V2.225a.742.742,0,0,1,1.483,0Zm16.464,0a.742.742,0,0,1-1.483,0V2.225a.742.742,0,0,1,1.483,0ZM31,24.029a7,7,0,0,0-1.015.074H27.114V19.8h4.034V24.03Zm-6.894,5.933H21.6V25.586h4.034v.973A6.945,6.945,0,0,0,24.106,29.962ZM5.043,19.8H9.077v4.3H5.043Zm5.518,0H14.6v4.3H10.561Zm11.035,0h4.034v4.3H21.6Zm-1.483,4.3H16.078V19.8h4.034ZM21.6,18.318V13.943h4.034v4.376Zm-1.483,0H16.078V13.943h4.034Zm-5.518,0H10.561V13.943H14.6Zm0,7.268v4.376H10.561V25.586Zm1.483,0h4.034v4.376H16.078Zm15.07-7.268H27.114V13.943h4.034ZM9.077,13.943v4.376H5.043V13.943ZM5.043,25.586H9.077v4.376H5.043ZM31,36.488A5.488,5.488,0,1,1,36.488,31,5.494,5.494,0,0,1,31,36.488Z"/>
        <path id="XMLID_1115_" d="M389.747,391.05l-2.294,2.294-1.021-1.021a.742.742,0,0,0-1.049,1.049l1.545,1.545a.742.742,0,0,0,1.049,0L390.8,392.1a.742.742,0,1,0-1.049-1.049Z" transform="translate(-356.601 -361.848)"/>
        <path id="XMLID_1116_" d="M197.542,452a.742.742,0,1,0,.524.217A.747.747,0,0,0,197.542,452Z" transform="translate(-182.205 -418.479)"/>
        <path id="XMLID_1120_" d="M41.266,121.266a.741.741,0,1,0-.524.217A.747.747,0,0,0,41.266,121.266Z" transform="translate(-37.034 -111.101)"/>
      </g>
    </g>
  </g>
</svg>
