<svg xmlns="http://www.w3.org/2000/svg" width="112" height="112" viewBox="0 0 112 112">
  <g id="Grupo_872059" data-name="Grupo 872059" transform="translate(5491.099 -6112.83)">
    <circle id="Elipse_4788" data-name="Elipse 4788" cx="56" cy="56" r="56" transform="translate(-5491.099 6112.83)" fill="#afd5bc"/>
    <g id="layer1" transform="translate(-5473.099 6130.83)">
      <path id="path8381" d="M10.846.528V2.913h3.573a1.172,1.172,0,0,1,1.2,1.2v8.342H18V4.11A3.6,3.6,0,0,0,14.419.528Z" transform="translate(38.022 1.852)" fill="#427096"/>
      <path id="path8480" d="M12.709.528V2.913H9.136a1.172,1.172,0,0,0-1.2,1.2v8.342H5.555V4.11A3.6,3.6,0,0,1,9.136.528Z" transform="translate(19.472 1.852)" fill="#427096"/>
      <path id="rect8331" d="M2.98,0A2.974,2.974,0,0,1,5.96,2.98V5.364a2.98,2.98,0,0,1-5.96,0V2.98A2.974,2.974,0,0,1,2.98,0Z" transform="translate(58.406 8.345) rotate(90)" fill="#ffd1b5"/>
      <path id="path8333" d="M18.274,2.081a10.959,10.959,0,0,1-7.036,3.7,2.965,2.965,0,0,0,2.41,1.234h2.384a2.97,2.97,0,0,0,2.242-4.929Z" transform="translate(39.394 7.295)" fill="#ffb98d"/>
      <path id="rect8335" d="M9.064,0a2.974,2.974,0,0,1,2.98,2.98V6.557a2.98,2.98,0,1,1-5.96,0V2.98A2.974,2.974,0,0,1,9.064,0Z" transform="translate(21.328)" fill="#ffd1b5"/>
      <path id="path8337" d="M9.9.054c.606,3.679-.385,7.151-3.711,7.884a2.976,2.976,0,0,0,5.506-1.572V2.79A2.974,2.974,0,0,0,9.9.054Z" transform="translate(21.681 0.19)" fill="#ffb98d"/>
      <path id="rect8339" d="M10.387,0a2.974,2.974,0,0,1,2.98,2.98V6.557a2.98,2.98,0,1,1-5.96,0V2.98A2.974,2.974,0,0,1,10.387,0Z" transform="translate(25.965)" fill="#ffd1b5"/>
      <path id="path8341" d="M11.219.054c.606,3.679-.385,7.151-3.711,7.884a2.976,2.976,0,0,0,5.506-1.572V2.79a2.974,2.974,0,0,0-1.8-2.736Z" transform="translate(26.318 0.19)" fill="#ffb98d"/>
      <path id="rect8343" d="M11.71,0a2.974,2.974,0,0,1,2.98,2.98V6.557a2.98,2.98,0,1,1-5.96,0V2.98A2.974,2.974,0,0,1,11.71,0Z" transform="translate(30.603)" fill="#ffd1b5"/>
      <path id="path8345" d="M12.542.054c.606,3.679-.385,7.151-3.711,7.884a2.976,2.976,0,0,0,5.506-1.572V2.79a2.974,2.974,0,0,0-1.8-2.736Z" transform="translate(30.956 0.19)" fill="#ffb98d"/>
      <path id="rect8347" d="M13.033,0a2.974,2.974,0,0,1,2.98,2.98V6.557a2.98,2.98,0,1,1-5.96,0V2.98A2.974,2.974,0,0,1,13.033,0Z" transform="translate(35.24)" fill="#ffd1b5"/>
      <path id="rect8349" d="M6.884,6.085H61.719a4.758,4.758,0,0,1,4.768,4.768V43.04a4.758,4.758,0,0,1-4.768,4.768H6.884A4.758,4.758,0,0,1,2.115,43.04V10.854A4.758,4.758,0,0,1,6.884,6.085Z" transform="translate(7.415 21.333)" fill="#427096"/>
      <path id="path8351" d="M3.7,30.906,9.232,27.52l8,6.358L37.4,16.921l2.5,2.227.228-9.121-8.96.119,2.109,2.882-16.3,12.086-6.835-5.224L1.975,23.705Z" transform="translate(6.925 35.153)" fill="#365b7a"/>
      <path id="path8353" d="M65.664,9.572C53.8,28.242,17.934,32.714,2.35,33.785a4.733,4.733,0,0,0,3.709,1.8H60.9a4.758,4.758,0,0,0,4.768-4.768Z" transform="translate(8.24 33.557)" fill="#365b7a"/>
      <path id="path8355" d="M14.7,35.361A13.115,13.115,0,0,1,1.584,22.248V6.751A3.577,3.577,0,0,1,5.161,3.175h60.81a4.769,4.769,0,0,1,4.769,4.768V22.248A13.115,13.115,0,0,1,57.625,35.362Z" transform="translate(5.554 11.13)" fill="#549ad4"/>
      <path id="path8361" d="M65.5,3.316C64.1,26.774,19.071,29.629,2.385,30.769a13.067,13.067,0,0,0,9.506,4.1H54.816A13.114,13.114,0,0,0,67.932,21.754V7.449A4.745,4.745,0,0,0,65.5,3.316Z" transform="translate(8.362 11.625)" fill="#3588cb"/>
      <path id="path8363" d="M33.631,20.14c-1.008-3.5,2.128-2.978-1.186-6.223-3.6-3.53-2.609.464-7.3-1.423s-1.184-4.069-6.239-4.026S17.4,10.632,12.742,12.6s-3.726-2.043-7.27,1.547.465,2.6-1.429,7.266S-.043,22.591,0,27.54C-.044,32.489,2.148,29,4.043,33.669s-2.115,3.675,1.429,7.266,2.616-.419,7.27,1.547,1.114,4.088,6.169,4.131,1.552-2.139,6.239-4.026,3.69,2.106,7.3-1.423-.42-2.606,1.554-7.24,4.1-1.11,4.148-6.383a6.265,6.265,0,0,0-.38-2.552Z" transform="translate(0 29.68)" fill="#d0e5f8"/>
      <path id="path8365" d="M5.556,8.467a8.452,8.452,0,0,0-1.746.159c2.411.527.476,2.3,4.426,3.974,2.476,1.046,3.372.414,4.2.122-.2-.066-.412-.135-.643-.228-4.687-1.887-1.184-4.069-6.239-4.026ZM16.744,12.4c-.8-.064-1.319.579-2.551.613a8.644,8.644,0,0,1,1.311,1.13c3.544,3.59-.467,2.6,1.428,7.264s4.086,1.18,4.043,6.129c.045,4.949-2.149,1.462-4.043,6.129s2.116,3.674-1.428,7.264A8.679,8.679,0,0,1,14.2,42.062c2.057.06,2.095,1.84,4.89-.9,3.6-3.529-.419-2.607,1.555-7.242s4.1-1.109,4.147-6.383a6.261,6.261,0,0,0-.38-2.553L20.275,20.14c-1.008-3.5,2.127-2.978-1.187-6.224-1.126-1.1-1.8-1.47-2.344-1.512ZM10.836,41.915a5.656,5.656,0,0,0-2.6.566C4.285,44.15,6.22,45.928,3.81,46.455a8.607,8.607,0,0,0,1.746.159c5.055.045,1.552-2.139,6.239-4.026.232-.093.438-.162.643-.228a5.325,5.325,0,0,0-1.6-.445Z" transform="translate(13.356 29.68)" fill="#b0d2f0"/>
      <path id="rect8367" d="M13.5,9.26h4.766a2.379,2.379,0,0,1,2.384,2.384v4.768A2.379,2.379,0,0,1,18.263,18.8H13.5a2.379,2.379,0,0,1-2.384-2.384V11.644A2.379,2.379,0,0,1,13.5,9.26Z" transform="translate(38.957 32.463)" fill="#d0e5f8"/>
      <path id="path8369" d="M18.812,9.282a10.532,10.532,0,0,1-7.674,7.744,2.37,2.37,0,0,0,2.272,1.7h4.766a2.379,2.379,0,0,0,2.384-2.384V11.57a2.371,2.371,0,0,0-1.749-2.289Z" transform="translate(39.045 32.537)" fill="#b0d2f0"/>
      <path id="path8482" d="M16.674,5.027V9.8a2.385,2.385,0,0,1-4.769,0V5.027Z" transform="translate(41.732 17.623)" fill="#3588cb"/>
      <path id="path8373" d="M16.41,5.027V9.8a2.385,2.385,0,0,1-4.769,0V5.027Z" transform="translate(40.807 17.623)" fill="#d0e5f8"/>
      <path id="path8383" d="M5.955,4.5a1.192,1.192,0,1,0,0,2.385H44.111a1.192,1.192,0,1,0,0-2.385Z" transform="translate(16.676 15.765)" fill="#427096"/>
      <path id="ellipse8389" d="M22.287,20.615A10.156,10.156,0,1,1,12.131,10.442,10.164,10.164,0,0,1,22.287,20.615Z" transform="translate(6.924 36.606)" fill="#549ad4"/>
      <path id="path8391" d="M12.132,10.442A10.174,10.174,0,0,0,6.368,28.989,10.154,10.154,0,0,1,20.437,14.783a10.151,10.151,0,0,0-8.3-4.341Z" transform="translate(6.923 36.606)" fill="#3588cb"/>
      <path id="path8393" d="M10.071,12.136,1.995,15.91a10.178,10.178,0,0,0,3.224,6.268l3.946-2.414,5.841,4.642a10.05,10.05,0,0,0,7.13-10.925l-5.23,3.877Z" transform="translate(6.993 42.542)" fill="#3588cb"/>
      <path id="path8395" d="M3.826,30.171l5.407-3.3,8,6.358L37.4,16.275,39.9,18.5l.228-9.121-8.96.119,2.109,2.882-16.3,12.086-6.835-5.224L1.975,23.059Z" transform="translate(6.925 32.89)" fill="#ffca28"/>
      <path id="path8397" d="M32.107,9.382l-2.68.032C24.951,20.254,11.08,26.689,4.262,29.292l4.955,3.936L29.383,16.271l2.5,2.228Z" transform="translate(14.942 32.89)" fill="#ecb200"/>
      <path id="path8399" d="M6.393,11.962,2.074,13.981h0A9.93,9.93,0,0,0,3.83,21.146l1.06-.648a10.186,10.186,0,0,1-.268-1.291c0-.014,0-.023,0-.041a10.188,10.188,0,0,1-.1-1.329,10.188,10.188,0,0,1,.109-1.406c.014-.1.027-.2.048-.3A10.187,10.187,0,0,1,5,14.765a.224.224,0,0,1,.018-.05,10.184,10.184,0,0,1,.519-1.284c.032-.071.066-.141.1-.211A10.176,10.176,0,0,1,6.4,11.959Z" transform="translate(6.923 41.923)" fill="#ecb200"/>
      <path id="path8415" d="M13.865.054c.606,3.679-.385,7.151-3.711,7.884A2.976,2.976,0,0,0,15.66,6.366V2.79a2.974,2.974,0,0,0-1.8-2.736Z" transform="translate(35.593 0.19)" fill="#ffb98d"/>
    </g>
  </g>
</svg>
