<svg xmlns="http://www.w3.org/2000/svg" width="112" height="112" viewBox="0 0 112 112">
  <g id="Grupo_872056" data-name="Grupo 872056" transform="translate(-744 -17819)">
    <g id="Grupo_872002" data-name="Grupo 872002">
      <circle id="Elipse_4780" data-name="Elipse 4780" cx="56" cy="56" r="56" transform="translate(744 17819)" fill="#afd5bc"/>
      <g id="layer1" transform="translate(763 17838)">
        <path id="path6830" d="M16.638,15.875v2.307a2.3,2.3,0,0,1-2.307,2.307H9.716a2.3,2.3,0,0,1-2.307-2.307V15.875Z" transform="translate(24.895 53.347)" fill="#afafaf"/>
        <path id="path6988" d="M7.408,15.61v2.307h9.23V15.61Z" transform="translate(24.895 52.458)" fill="#636363" opacity="0.4"/>
        <path id="path6832" d="M24.809,11.692V27.627A2.3,2.3,0,0,1,22.5,29.934H8.657A2.3,2.3,0,0,1,6.35,27.627V11.691Z" transform="translate(21.339 39.288)" fill="#afafaf"/>
        <path id="path6838" d="M14.182,15l11.365-4.426-1.394-5.18L26.18,0,16.95,4.537,18.821,8.9Z" transform="translate(47.657)" fill="#ffca28"/>
        <path id="path6842" d="M7.673.265h3.382c7.868,0,2.1,3.234,9.191,6.088s5.582-3.185,11.034,2.153-.636,3.94,2.35,10.95,6.208,1.678,6.274,9.653c-.065,7.975-3.288,2.644-6.274,9.653s3.1,5.612-2.35,10.95-3.945-.7-11.034,2.153S17.768,57.951,9.9,57.951H7.673Z" transform="translate(25.784 0.889)" fill="#549ad4"/>
        <path id="path6844" d="M7.673.265V.3c6,.344,1.282,3.365,7.956,6.052,3.065,1.234,4.5.8,5.611.352-.316-.1-.638-.207-1-.352C13.156,3.5,18.923.265,11.055.265Z" transform="translate(25.784 0.889)" fill="#3588cb"/>
        <path id="path6846" d="M14.425,1.634c-.956-.075-1.639.517-2.792.8a15.087,15.087,0,0,1,1.724,1.489c5.452,5.338-.636,3.94,2.35,10.949s6.208,1.678,6.273,9.653c-.065,7.975-3.287,2.644-6.273,9.653s3.1,5.614-2.35,10.951a15.086,15.086,0,0,1-1.724,1.489c2.141.525,2.646,2.126,6.339-1.489,5.452-5.338-.636-3.942,2.35-10.951s6.208-1.678,6.273-9.653c-.065-7.975-3.287-2.644-6.273-9.653s3.1-5.611-2.35-10.949c-1.7-1.668-2.727-2.225-3.547-2.289Z" transform="translate(39.092 5.47)" fill="#3588cb"/>
        <path id="path6848" d="M15.629,12.721c-6.212,2.5-3.44,5.294-7.956,5.947v.142H9.9c7.868,0,3.254-3.235,10.343-6.088.358-.144.68-.25,1-.352a5.207,5.207,0,0,0-2.427-.448,10.013,10.013,0,0,0-3.184.8Z" transform="translate(25.784 40.032)" fill="#3588cb"/>
        <path id="path6850" d="M23.394.265a6.341,6.341,0,0,0-6.1,8.08,7.829,7.829,0,0,0-7.015,9.32,9.824,9.824,0,0,0-1.717,18.9,8.948,8.948,0,0,0,9.919,13.993,5.614,5.614,0,0,0-.275,1.71,5.769,5.769,0,0,0,11.537,0V6.61A6.346,6.346,0,0,0,23.394.265Z" transform="translate(7.177 0.889)" fill="#f6d6c3"/>
        <path id="circle6871" d="M39.374,20.216A17.306,17.306,0,1,1,22.068,2.911,17.306,17.306,0,0,1,39.374,20.216Z" transform="translate(16.004 9.782)" fill="#fff"/>
        <path id="path6873" d="M7.673,14.353a3.461,3.461,0,0,1,0,6.922V25.89H19.21a2.3,2.3,0,0,0,2.307-2.307V20.389a3.462,3.462,0,1,0,0-5.149v-3.2A2.3,2.3,0,0,0,19.21,9.738H16.017a3.462,3.462,0,1,0-5.149,0h-3.2Z" transform="translate(25.784 13.338)" fill="#e8e8e8"/>
        <path id="path6875" d="M22.766,12.045a2.3,2.3,0,0,0-2.307-2.307H17.266a3.462,3.462,0,1,0-5.149,0h-3.2a2.3,2.3,0,0,0-2.307,2.307v3.2a3.46,3.46,0,1,1,0,5.149v3.193A2.3,2.3,0,0,0,8.922,25.89H20.459a2.3,2.3,0,0,0,2.307-2.307V20.389a3.462,3.462,0,1,0,0-5.149Z" transform="translate(22.228 13.338)" fill="#359547"/>
        <path id="path6877" d="M20.923,5.3c.66,11.829-9.6,13.607-14.309,13.806a2.3,2.3,0,0,0,2.307,2.3H20.459A2.3,2.3,0,0,0,22.766,19.1V15.907a3.462,3.462,0,1,0,0-5.149q0-1.6,0-3.2A2.3,2.3,0,0,0,20.923,5.3Z" transform="translate(22.228 17.821)" fill="#247032"/>
        <path id="path6879" d="M22.068,2.911a17.3,17.3,0,0,0-11,30.659,17.293,17.293,0,0,1,24.3-24.4,17.306,17.306,0,0,0-13.3-6.26Z" transform="translate(16.004 9.782)" fill="#e8e8e8"/>
        <path id="path6981" d="M6.35,14.817v2.307H24.809V14.817Z" transform="translate(21.339 49.791)" fill="#636363" opacity="0.4"/>
        <path id="path6885" d="M6.975,14.552a1.154,1.154,0,1,0,0,2.308H27.738a1.154,1.154,0,1,0,0-2.308Z" transform="translate(19.562 48.902)" fill="#636363"/>
        <path id="path6976" d="M6.35,13.758v2.307H24.809V13.758Z" transform="translate(21.339 46.234)" fill="#636363" opacity="0.4"/>
        <path id="path6887" d="M6.975,13.494a1.154,1.154,0,1,0,0,2.308H27.738a1.154,1.154,0,1,0,0-2.308Z" transform="translate(19.562 45.345)" fill="#636363"/>
        <g id="Grupo_871243" data-name="Grupo 871243" transform="translate(0.013 29.995)">
          <path id="path6893" d="M17.026,6.879a1.154,1.154,0,1,0,0,2.308h2.308a1.154,1.154,0,0,0,0-2.308Z" transform="translate(53.324 -6.879)" fill="#ffca28"/>
          <path id="path6895" d="M13.977,14.283,15.6,15.918a1.156,1.156,0,1,0,1.635-1.635L15.6,12.648a1.153,1.153,0,1,0-1.627,1.635Z" transform="translate(45.762 11.334)" fill="#ffca28"/>
          <path id="path6897" d="M5.187,12.3a1.154,1.154,0,0,0-.792.349L2.759,14.284a1.156,1.156,0,1,0,1.635,1.635l1.627-1.635A1.154,1.154,0,0,0,5.187,12.3Z" transform="translate(8.052 11.334)" fill="#ffca28"/>
          <path id="path6899" d="M1.157,6.879a1.154,1.154,0,0,0,0,2.308H3.465a1.154,1.154,0,0,0,0-2.308Z" transform="translate(-0.003 -6.879)" fill="#ffca28"/>
        </g>
        <path id="path6939" d="M6.346,2.1c.007.026.008.053.016.079a7.881,7.881,0,0,0-.973.158,4.263,4.263,0,0,0,2.859.775A3.154,3.154,0,0,1,6.346,2.1Z" transform="translate(18.107 7.056)" fill="#ffb98d"/>
        <path id="path6944" d="M4.054,4.015A7.857,7.857,0,0,0,4.18,5.061c-.078.014-.153.034-.23.05a6.589,6.589,0,0,1,3.472.708,10,10,0,0,0-3.369-1.8Z" transform="translate(13.274 13.493)" fill="#ffb98d"/>
        <path id="path6949" d="M8.688,8.1A17.942,17.942,0,0,0,3.262,9.523a9.81,9.81,0,0,0,1.512.721c-.014.018-.026.038-.041.056A11.467,11.467,0,0,1,8.688,8.1Z" transform="translate(10.963 27.207)" fill="#ffb98d"/>
        <path id="path6955" d="M9.589,11.123a18.093,18.093,0,0,0-4.1,3.335,8.948,8.948,0,0,0,1.728-.394c-.031.1-.044.2-.07.293a11.268,11.268,0,0,1,2.443-3.234Z" transform="translate(18.44 37.38)" fill="#ffb98d"/>
        <path id="path6960" d="M26.18,0,24.209.969c-.954,6.255-4.267,8.9-6.985,10.03l-3.042,4,11.366-4.426-1.395-5.18Z" transform="translate(47.656)" fill="#ecb200"/>
        <path id="path6965" d="M12,15,.633,10.572l1.394-5.18L0,0,9.23,4.537,7.359,8.9Z" fill="#ffca28"/>
        <path id="path6967" d="M7,.844A11.211,11.211,0,0,1,.294,7.185l-.149.55,11.366,4.426-4.64-6.1L8.742,1.7Z" transform="translate(0.488 2.838)" fill="#ecb200"/>
      </g>
    </g>
  </g>
</svg>
