<svg xmlns="http://www.w3.org/2000/svg" width="85" height="85" viewBox="0 0 85 85">
  <g id="Grupo_872060" data-name="Grupo 872060" transform="translate(-285 -19995.244)">
    <g id="Grupo_53351" data-name="Grupo 53351" transform="translate(285 19995.244)">
      <g id="Grupo_20664" data-name="Grupo 20664" transform="translate(0 0)">
        <g id="Trazado_99075" data-name="Trazado 99075" fill="#e1efe3">
          <path d="M 42.5 83.5 C 36.96437835693359 83.5 31.59512901306152 82.41617584228516 26.54141235351562 80.27863311767578 C 21.65934181213379 78.21369171142578 17.27448272705078 75.25723266601562 13.50862312316895 71.49138641357422 C 9.742776870727539 67.72553253173828 6.786305904388428 63.34067153930664 4.721364498138428 58.45859909057617 C 2.583823442459106 53.40488052368164 1.5 48.03562164306641 1.5 42.5 C 1.5 36.96437835693359 2.583823442459106 31.59512901306152 4.721364498138428 26.54141235351562 C 6.786305904388428 21.65934181213379 9.742776870727539 17.27448272705078 13.50862312316895 13.50862312316895 C 17.27448272705078 9.742776870727539 21.65934181213379 6.786305904388428 26.54141235351562 4.721364498138428 C 31.59512901306152 2.583823442459106 36.96437835693359 1.5 42.5 1.5 C 48.03562164306641 1.5 53.40488052368164 2.583823442459106 58.45859909057617 4.721364498138428 C 63.34067153930664 6.786305904388428 67.72553253173828 9.742776870727539 71.49138641357422 13.50862312316895 C 75.25723266601562 17.27448272705078 78.21369171142578 21.65934181213379 80.27863311767578 26.54141235351562 C 82.41617584228516 31.59512901306152 83.5 36.96437835693359 83.5 42.5 C 83.5 48.03563690185547 82.41617584228516 53.40488052368164 80.27863311767578 58.45859909057617 C 78.21369171142578 63.34067153930664 75.25723266601562 67.72553253173828 71.49138641357422 71.49138641357422 C 67.72553253173828 75.25723266601562 63.34067153930664 78.21369171142578 58.45859909057617 80.27863311767578 C 53.40488052368164 82.41617584228516 48.03563690185547 83.5 42.5 83.5 Z" stroke="none"/>
          <path d="M 42.5 3 C 37.16621398925781 3 31.99356079101562 4.043960571289062 27.125732421875 6.102882385253906 C 22.42246627807617 8.092185974121094 18.19785308837891 10.94070434570312 14.56928253173828 14.56928253173828 C 10.94070434570312 18.19785308837891 8.092185974121094 22.42246627807617 6.102882385253906 27.125732421875 C 4.043960571289062 31.99356079101562 3 37.16621398925781 3 42.5 C 3 47.83378601074219 4.043960571289062 53.00643920898438 6.102882385253906 57.874267578125 C 8.092185974121094 62.57754516601562 10.94070434570312 66.80214691162109 14.56928253173828 70.43071746826172 C 18.19785308837891 74.05931091308594 22.42246627807617 76.90781402587891 27.125732421875 78.89713287353516 C 31.99356079101562 80.95603942871094 37.16621398925781 82 42.5 82 C 47.83378601074219 82 53.00643920898438 80.95603942871094 57.874267578125 78.89713287353516 C 62.57754516601562 76.90781402587891 66.80214691162109 74.05931091308594 70.43071746826172 70.43071746826172 C 74.05931091308594 66.80214691162109 76.90781402587891 62.57754516601562 78.89713287353516 57.874267578125 C 80.95603942871094 53.00643920898438 82 47.83378601074219 82 42.5 C 82 37.16621398925781 80.95603942871094 31.99356079101562 78.89713287353516 27.125732421875 C 76.90781402587891 22.42246627807617 74.05931091308594 18.19785308837891 70.43071746826172 14.56928253173828 C 66.80214691162109 10.94070434570312 62.57754516601562 8.092185974121094 57.874267578125 6.102882385253906 C 53.00643920898438 4.043960571289062 47.83378601074219 3 42.5 3 M 42.5 0 C 65.97212219238281 0 85 19.02789306640625 85 42.5 C 85 65.97212219238281 65.97212219238281 85 42.5 85 C 19.02789306640625 85 0 65.97212219238281 0 42.5 C 0 19.02789306640625 19.02789306640625 0 42.5 0 Z" stroke="none" fill="#359547"/>
        </g>
      </g>
    </g>
    <g id="notas" transform="translate(306.444 20012.422)">
      <g id="Grupo_871554" data-name="Grupo 871554" transform="translate(11.946 13.937)">
        <g id="Grupo_871553" data-name="Grupo 871553">
          <path id="Trazado_217005" data-name="Trazado 217005" d="M146.914,149.333H129a1,1,0,0,0,0,1.991h17.919a1,1,0,0,0,0-1.991Z" transform="translate(-128 -149.333)" fill="#03386e"/>
        </g>
      </g>
      <g id="Grupo_871556" data-name="Grupo 871556" transform="translate(3.982 35.837)">
        <g id="Grupo_871555" data-name="Grupo 871555">
          <path id="Trazado_217006" data-name="Trazado 217006" d="M45.653,384a2.986,2.986,0,1,0,2.986,2.986A2.99,2.99,0,0,0,45.653,384Zm0,3.982a1,1,0,1,1,1-1A1,1,0,0,1,45.653,387.982Z" transform="translate(-42.667 -384)" fill="#03386e"/>
        </g>
      </g>
      <g id="Grupo_871558" data-name="Grupo 871558" transform="translate(3.982 27.874)">
        <g id="Grupo_871557" data-name="Grupo 871557">
          <path id="Trazado_217007" data-name="Trazado 217007" d="M45.653,298.667a2.986,2.986,0,1,0,2.986,2.986A2.99,2.99,0,0,0,45.653,298.667Zm0,3.982a1,1,0,1,1,1-1A1,1,0,0,1,45.653,302.649Z" transform="translate(-42.667 -298.667)" fill="#03386e"/>
        </g>
      </g>
      <g id="Grupo_871560" data-name="Grupo 871560" transform="translate(3.982 19.91)">
        <g id="Grupo_871559" data-name="Grupo 871559">
          <path id="Trazado_217008" data-name="Trazado 217008" d="M45.653,213.333a2.986,2.986,0,1,0,2.986,2.986A2.99,2.99,0,0,0,45.653,213.333Zm0,3.982a1,1,0,1,1,1-1A1,1,0,0,1,45.653,217.315Z" transform="translate(-42.667 -213.333)" fill="#03386e"/>
        </g>
      </g>
      <g id="Grupo_871562" data-name="Grupo 871562" transform="translate(3.982 11.946)">
        <g id="Grupo_871561" data-name="Grupo 871561">
          <path id="Trazado_217009" data-name="Trazado 217009" d="M45.653,128a2.986,2.986,0,1,0,2.986,2.986A2.99,2.99,0,0,0,45.653,128Zm0,3.982a1,1,0,1,1,1-1A1,1,0,0,1,45.653,131.982Z" transform="translate(-42.667 -128)" fill="#03386e"/>
        </g>
      </g>
      <g id="Grupo_871564" data-name="Grupo 871564" transform="translate(0)">
        <g id="Grupo_871563" data-name="Grupo 871563">
          <path id="Trazado_217010" data-name="Trazado 217010" d="M42.563,9.955a5.184,5.184,0,0,0-3.689,1.529l-2.746,2.746-.291.291V6.968a2.99,2.99,0,0,0-2.986-2.986H27.69a2.981,2.981,0,0,0-2.8-1.991H21.355a3.961,3.961,0,0,0-6.873,0H10.95a2.981,2.981,0,0,0-2.8,1.991H2.986A2.99,2.99,0,0,0,0,6.968V44.8a2.99,2.99,0,0,0,2.986,2.986H32.851A2.99,2.99,0,0,0,35.837,44.8V29.279L43.5,21.614l.006,0s0,0,0-.006l2.742-2.742a5.217,5.217,0,0,0-3.691-8.908ZM9.955,4.977a1,1,0,0,1,1-1h4.165a1,1,0,0,0,.938-.663,1.974,1.974,0,0,1,3.731,0,1,1,0,0,0,.938.663h4.165a1,1,0,0,1,1,1v1H9.955ZM33.846,44.8a1,1,0,0,1-1,1H2.986a1,1,0,0,1-1-1V6.968a1,1,0,0,1,1-1H7.964v1a1,1,0,0,0,1,1H26.878a1,1,0,0,0,1-1v-1h4.977a1,1,0,0,1,1,1v9.543l-5.515,5.515a.973.973,0,0,0-.458-.125H12.941a1,1,0,1,0,0,1.991H26.466l-5.973,5.973H12.941a1,1,0,0,0,0,1.991h6.69l-1.493,5.973h-5.2a1,1,0,0,0,0,1.991h5.973a.9.9,0,0,0,.241-.032L27.119,37.8c.024-.006.04-.028.064-.036a1,1,0,0,0,.336-.189c.018-.016.046-.018.064-.036l6.264-6.266V44.8Zm-12.2-12.788a6.3,6.3,0,0,1,4.083,4.083l-5.447,1.364Zm5.76,2.887a8.231,8.231,0,0,0-4.563-4.563l13.99-13.99L41.4,20.905ZM44.846,17.455,42.8,19.5,38.24,14.934l2.043-2.045a3.227,3.227,0,0,1,4.563,4.565Z" fill="#03386e"/>
        </g>
      </g>
    </g>
  </g>
</svg>
