<svg xmlns="http://www.w3.org/2000/svg" width="85" height="85" viewBox="0 0 85 85">
  <g id="Grupo_872063" data-name="Grupo 872063" transform="translate(-1230 -20696)">
    <g id="Grupo_871567" data-name="Grupo 871567" transform="translate(1230 20696)">
      <g id="Grupo_20664" data-name="Grupo 20664" transform="translate(0 0)">
        <g id="Trazado_99075" data-name="Trazado 99075" fill="#e1efe3">
          <path d="M 42.5 83.5 C 36.96437835693359 83.5 31.59512901306152 82.41617584228516 26.54141235351562 80.27863311767578 C 21.65934181213379 78.21369171142578 17.27448272705078 75.25723266601562 13.50862312316895 71.49138641357422 C 9.742776870727539 67.72553253173828 6.786305904388428 63.34067153930664 4.721364498138428 58.45859909057617 C 2.583823442459106 53.40488052368164 1.5 48.03562164306641 1.5 42.5 C 1.5 36.96437835693359 2.583823442459106 31.59512901306152 4.721364498138428 26.54141235351562 C 6.786305904388428 21.65934181213379 9.742776870727539 17.27448272705078 13.50862312316895 13.50862312316895 C 17.27448272705078 9.742776870727539 21.65934181213379 6.786305904388428 26.54141235351562 4.721364498138428 C 31.59512901306152 2.583823442459106 36.96437835693359 1.5 42.5 1.5 C 48.03562164306641 1.5 53.40488052368164 2.583823442459106 58.45859909057617 4.721364498138428 C 63.34067153930664 6.786305904388428 67.72553253173828 9.742776870727539 71.49138641357422 13.50862312316895 C 75.25723266601562 17.27448272705078 78.21369171142578 21.65934181213379 80.27863311767578 26.54141235351562 C 82.41617584228516 31.59512901306152 83.5 36.96437835693359 83.5 42.5 C 83.5 48.03563690185547 82.41617584228516 53.40488052368164 80.27863311767578 58.45859909057617 C 78.21369171142578 63.34067153930664 75.25723266601562 67.72553253173828 71.49138641357422 71.49138641357422 C 67.72553253173828 75.25723266601562 63.34067153930664 78.21369171142578 58.45859909057617 80.27863311767578 C 53.40488052368164 82.41617584228516 48.03563690185547 83.5 42.5 83.5 Z" stroke="none"/>
          <path d="M 42.5 3 C 37.16621398925781 3 31.99356079101562 4.043960571289062 27.125732421875 6.102882385253906 C 22.42246627807617 8.092185974121094 18.19785308837891 10.94070434570312 14.56928253173828 14.56928253173828 C 10.94070434570312 18.19785308837891 8.092185974121094 22.42246627807617 6.102882385253906 27.125732421875 C 4.043960571289062 31.99356079101562 3 37.16621398925781 3 42.5 C 3 47.83378601074219 4.043960571289062 53.00643920898438 6.102882385253906 57.874267578125 C 8.092185974121094 62.57754516601562 10.94070434570312 66.80214691162109 14.56928253173828 70.43071746826172 C 18.19785308837891 74.05931091308594 22.42246627807617 76.90781402587891 27.125732421875 78.89713287353516 C 31.99356079101562 80.95603942871094 37.16621398925781 82 42.5 82 C 47.83378601074219 82 53.00643920898438 80.95603942871094 57.874267578125 78.89713287353516 C 62.57754516601562 76.90781402587891 66.80214691162109 74.05931091308594 70.43071746826172 70.43071746826172 C 74.05931091308594 66.80214691162109 76.90781402587891 62.57754516601562 78.89713287353516 57.874267578125 C 80.95603942871094 53.00643920898438 82 47.83378601074219 82 42.5 C 82 37.16621398925781 80.95603942871094 31.99356079101562 78.89713287353516 27.125732421875 C 76.90781402587891 22.42246627807617 74.05931091308594 18.19785308837891 70.43071746826172 14.56928253173828 C 66.80214691162109 10.94070434570312 62.57754516601562 8.092185974121094 57.874267578125 6.102882385253906 C 53.00643920898438 4.043960571289062 47.83378601074219 3 42.5 3 M 42.5 0 C 65.97212219238281 0 85 19.02789306640625 85 42.5 C 85 65.97212219238281 65.97212219238281 85 42.5 85 C 19.02789306640625 85 0 65.97212219238281 0 42.5 C 0 19.02789306640625 19.02789306640625 0 42.5 0 Z" stroke="none" fill="#359547"/>
        </g>
      </g>
    </g>
    <path id="hoja-de-papel" d="M67.524,37.346l-8.3-14.379V6.358a.893.893,0,0,0-.893-.892H53.895L53.11,2.539a.9.9,0,0,0-1.1-.631L47.728,3.057,46.215.436A.9.9,0,0,0,45,.11L35.721,5.465H25.008a.893.893,0,0,0-.893.892V9.383l-4.288,1.149a.9.9,0,0,0-.631,1.1l.785,2.926-3.842,2.218a.891.891,0,0,0-.326,1.219l8.3,14.38V48.977a.893.893,0,0,0,.893.893h4.434l.785,2.926a.889.889,0,0,0,1.095.632l4.287-1.15L37.122,54.9a.892.892,0,0,0,1.219.326l9.275-5.356H58.329a.893.893,0,0,0,.893-.893V45.95L63.511,44.8a.9.9,0,0,0,.631-1.1l-.783-2.923,3.84-2.218a.89.89,0,0,0,.326-1.219ZM17.8,17.871l2.654-1.533,3.064,11.438Zm6.311,5.212L21.152,12.027l2.962-.794Zm27.5-19.219.429,1.6h-6.4ZM45.116,2.1l.827,1.434L39.768,5.189ZM31.722,51.471l-.429-1.6h6.4Zm6.5,1.763L37.393,51.8l6.18-1.657Zm19.215-5.15H25.9V7.251H57.436ZM59.222,44.1V32.25l2.963,11.056ZM62.881,39,59.815,27.563l5.717,9.9Z" transform="translate(1230.831 20710.139)" fill="#03386e"/>
  </g>
</svg>
