<svg xmlns="http://www.w3.org/2000/svg" xmlns:xlink="http://www.w3.org/1999/xlink" width="1240" height="370" viewBox="0 0 1240 370">
  <defs>
    <clipPath id="clip-path">
      <rect id="Rectángulo_292103" data-name="Rectángulo 292103" width="180.097" height="188.196" fill="none"/>
    </clipPath>
    <clipPath id="clip-path-3">
      <rect id="Rectángulo_292065" data-name="Rectángulo 292065" width="5.421" height="17.08" fill="none"/>
    </clipPath>
    <clipPath id="clip-path-4">
      <rect id="Rectángulo_292067" data-name="Rectángulo 292067" width="9.932" height="1.362" fill="none"/>
    </clipPath>
    <clipPath id="clip-path-5">
      <rect id="Rectángulo_292069" data-name="Rectángulo 292069" width="9.932" height="1.361" fill="none"/>
    </clipPath>
    <clipPath id="clip-path-6">
      <rect id="Rectángulo_292074" data-name="Rectángulo 292074" width="31.03" height="17.78" fill="none"/>
    </clipPath>
    <clipPath id="clip-path-7">
      <rect id="Rectángulo_292075" data-name="Rectángulo 292075" width="32.061" height="33.739" fill="none"/>
    </clipPath>
    <clipPath id="clip-path-8">
      <rect id="Rectángulo_292079" data-name="Rectángulo 292079" width="62.712" height="2.589" fill="none"/>
    </clipPath>
    <clipPath id="clip-path-9">
      <rect id="Rectángulo_292087" data-name="Rectángulo 292087" width="13.56" height="2.137" fill="none"/>
    </clipPath>
    <clipPath id="clip-path-10">
      <rect id="Rectángulo_292090" data-name="Rectángulo 292090" width="3.42" height="1.307" fill="none"/>
    </clipPath>
    <clipPath id="clip-path-11">
      <rect id="Rectángulo_292091" data-name="Rectángulo 292091" width="61.637" height="45.319" fill="none"/>
    </clipPath>
    <clipPath id="clip-path-12">
      <rect id="Rectángulo_292098" data-name="Rectángulo 292098" width="11.784" height="9.5" fill="none"/>
    </clipPath>
    <clipPath id="clip-path-13">
      <rect id="Rectángulo_292100" data-name="Rectángulo 292100" width="1.37" height="1.37" fill="none"/>
    </clipPath>
    <clipPath id="clip-path-14">
      <rect id="Rectángulo_292101" data-name="Rectángulo 292101" width="10.089" height="10.088" fill="none"/>
    </clipPath>
  </defs>
  <g id="Grupo_872047" data-name="Grupo 872047" transform="translate(-180 -22713)">
    <g id="Grupo_871977" data-name="Grupo 871977" transform="translate(0 143)">
      <rect id="Rectángulo_292152" data-name="Rectángulo 292152" width="1240" height="370" transform="translate(180 22570)" fill="none"/>
      <g id="Grupo_871976" data-name="Grupo 871976" transform="translate(0 38.586)">
        <g id="Grupo_871595" data-name="Grupo 871595" transform="translate(0 16222.998)">
          <g id="Grupo_870556" data-name="Grupo 870556" transform="translate(180 6462)">
            <g id="Grupo_870548" data-name="Grupo 870548" transform="translate(3.457 0.022)">
              <path id="Sustracción_4" data-name="Sustracción 4" d="M307.75,81.99H0V0H3.764c.031,2.571.118,4.374.118,4.39H38.554L40.7,0h302.13V68.648H313.134L307.75,81.989Z" transform="translate(0 0)" fill="#eaeff3"/>
              <path id="Trazado_213850" data-name="Trazado 213850" d="M-.832,1.311H26.013V9.783H-4Z" transform="translate(316.528 72.207)" fill="#03386e" opacity="0.5"/>
            </g>
            <g id="Grupo_870549" data-name="Grupo 870549" transform="translate(41.918 45.848) rotate(-180)">
              <path id="Trazado_213855" data-name="Trazado 213855" d="M0,0,3.93,5.24V42.573H0Z" transform="translate(37.988 0)" fill="#03386e"/>
              <path id="Trazado_213856" data-name="Trazado 213856" d="M0,41.918l3.93-5.24V0H0Z" transform="translate(41.918 41.918) rotate(90)" fill="#03386e"/>
            </g>
          </g>
        </g>
        <g id="Grupo_871603" data-name="Grupo 871603" transform="translate(893.716 16222.998)">
          <g id="Grupo_870556-2" data-name="Grupo 870556" transform="translate(180 6462)">
            <g id="Grupo_870548-2" data-name="Grupo 870548" transform="translate(3.457 0.022)">
              <path id="Sustracción_4-2" data-name="Sustracción 4" d="M307.75,81.99H0V0H3.764c.031,2.571.118,4.374.118,4.39H38.554L40.7,0h302.13V68.648H313.134L307.75,81.989Z" transform="translate(0 0)" fill="#eaeff3"/>
              <path id="Trazado_213850-2" data-name="Trazado 213850" d="M-.832,1.311H26.013V9.783H-4Z" transform="translate(316.528 72.207)" fill="#03386e" opacity="0.5"/>
            </g>
            <g id="Grupo_870549-2" data-name="Grupo 870549" transform="translate(41.918 45.848) rotate(-180)">
              <path id="Trazado_213855-2" data-name="Trazado 213855" d="M0,0,3.93,5.24V42.573H0Z" transform="translate(37.988 0)" fill="#03386e"/>
              <path id="Trazado_213856-2" data-name="Trazado 213856" d="M0,41.918l3.93-5.24V0H0Z" transform="translate(41.918 41.918) rotate(90)" fill="#03386e"/>
            </g>
          </g>
        </g>
        <g id="Grupo_871607" data-name="Grupo 871607" transform="translate(774.841 16112.998)">
          <g id="Grupo_870556-3" data-name="Grupo 870556" transform="translate(180 6462)">
            <g id="Grupo_870548-3" data-name="Grupo 870548" transform="translate(3.457 0.022)">
              <path id="Sustracción_4-3" data-name="Sustracción 4" d="M307.75,81.99H0V0H3.764c.031,2.571.118,4.374.118,4.39H38.554L40.7,0h302.13V68.648H313.134L307.75,81.989Z" transform="translate(0 0)" fill="#e1efe3"/>
              <path id="Trazado_213850-3" data-name="Trazado 213850" d="M-.832,1.311H26.013V9.783H-4Z" transform="translate(316.528 72.207)" fill="#359547" opacity="0.5"/>
            </g>
            <g id="Grupo_870549-3" data-name="Grupo 870549" transform="translate(41.918 45.848) rotate(-180)">
              <path id="Trazado_213855-3" data-name="Trazado 213855" d="M0,0,3.93,5.24V42.573H0Z" transform="translate(37.988 0)" fill="#359547"/>
              <path id="Trazado_213856-3" data-name="Trazado 213856" d="M0,41.918l3.93-5.24V0H0Z" transform="translate(41.918 41.918) rotate(90)" fill="#359547"/>
            </g>
          </g>
        </g>
        <g id="Grupo_871608" data-name="Grupo 871608" transform="translate(118.875 16112.998)">
          <g id="Grupo_870556-4" data-name="Grupo 870556" transform="translate(180 6462)">
            <g id="Grupo_870548-4" data-name="Grupo 870548" transform="translate(3.457 0.022)">
              <path id="Sustracción_4-4" data-name="Sustracción 4" d="M307.75,81.99H0V0H3.764c.031,2.571.118,4.374.118,4.39H38.554L40.7,0h302.13V68.648H313.134L307.75,81.989Z" transform="translate(0 0)" fill="#e1efe3"/>
              <path id="Trazado_213850-4" data-name="Trazado 213850" d="M-.832,1.311H26.013V9.783H-4Z" transform="translate(316.528 72.207)" fill="#359547" opacity="0.5"/>
            </g>
            <g id="Grupo_870549-4" data-name="Grupo 870549" transform="translate(41.918 45.848) rotate(-180)">
              <path id="Trazado_213855-4" data-name="Trazado 213855" d="M0,0,3.93,5.24V42.573H0Z" transform="translate(37.988 0)" fill="#359547"/>
              <path id="Trazado_213856-4" data-name="Trazado 213856" d="M0,41.918l3.93-5.24V0H0Z" transform="translate(41.918 41.918) rotate(90)" fill="#359547"/>
            </g>
          </g>
        </g>
        <g id="Grupo_871604" data-name="Grupo 871604" transform="translate(808.716 16328.172)">
          <g id="Grupo_870556-5" data-name="Grupo 870556" transform="translate(180 6462)">
            <g id="Grupo_870548-5" data-name="Grupo 870548" transform="translate(3.457 0.022)">
              <path id="Sustracción_4-5" data-name="Sustracción 4" d="M307.75,81.99H0V0H3.764c.031,2.571.118,4.374.118,4.39H38.554L40.7,0h302.13V68.648H313.134L307.75,81.989Z" transform="translate(0 0)" fill="#e1fbff"/>
              <path id="Trazado_213850-5" data-name="Trazado 213850" d="M-.832,1.311H26.013V9.783H-4Z" transform="translate(316.528 72.207)" fill="#3ae3fe" opacity="0.5"/>
            </g>
            <g id="Grupo_870549-5" data-name="Grupo 870549" transform="translate(41.918 45.848) rotate(-180)">
              <path id="Trazado_213855-5" data-name="Trazado 213855" d="M0,0,3.93,5.24V42.573H0Z" transform="translate(37.988 0)" fill="#3ae3fe"/>
              <path id="Trazado_213856-5" data-name="Trazado 213856" d="M0,41.918l3.93-5.24V0H0Z" transform="translate(41.918 41.918) rotate(90)" fill="#3ae3fe"/>
            </g>
          </g>
        </g>
        <g id="Grupo_871609" data-name="Grupo 871609" transform="translate(105 16327.998)">
          <g id="Grupo_870556-6" data-name="Grupo 870556" transform="translate(180 6462)">
            <g id="Grupo_870548-6" data-name="Grupo 870548" transform="translate(3.457 0.022)">
              <path id="Sustracción_4-6" data-name="Sustracción 4" d="M307.75,81.99H0V0H3.764c.031,2.571.118,4.374.118,4.39H38.554L40.7,0h302.13V68.648H313.134L307.75,81.989Z" transform="translate(0 0)" fill="#e1fbff"/>
              <path id="Trazado_213850-6" data-name="Trazado 213850" d="M-.832,1.311H26.013V9.783H-4Z" transform="translate(316.528 72.207)" fill="#3ae3fe" opacity="0.5"/>
            </g>
            <g id="Grupo_870549-6" data-name="Grupo 870549" transform="translate(41.918 45.848) rotate(-180)">
              <path id="Trazado_213855-6" data-name="Trazado 213855" d="M0,0,3.93,5.24V42.573H0Z" transform="translate(37.988 0)" fill="#3ae3fe"/>
              <path id="Trazado_213856-6" data-name="Trazado 213856" d="M0,41.918l3.93-5.24V0H0Z" transform="translate(41.918 41.918) rotate(90)" fill="#3ae3fe"/>
            </g>
          </g>
        </g>
        <path id="Trazado_217425" data-name="Trazado 217425" d="M-7691-5184.995h230" transform="translate(8376.5 27934.604)" fill="none" stroke="#03386e" stroke-linecap="round" stroke-width="2" opacity="0.5"/>
        <g id="Grupo_871597" data-name="Grupo 871597" transform="translate(872.469 22789.316) rotate(-90)">
          <path id="Trazado_213857" data-name="Trazado 213857" d="M15.039,0,12.184,2.854,20.6,11.266l-8.411,8.411,2.855,2.854L26.3,11.266Z" transform="translate(-5.158)" fill="#18b8c4"/>
          <path id="Trazado_213858" data-name="Trazado 213858" d="M0,9.774l4.421,4.421L0,18.615l2.854,2.854,7.276-7.275L2.854,6.92Z" transform="translate(0 -2.929)" fill="#18b8c4"/>
        </g>
        <g id="Grupo_871598" data-name="Grupo 871598" transform="translate(965.415 22736.869) rotate(180)">
          <path id="Trazado_213857-2" data-name="Trazado 213857" d="M15.039,0,12.184,2.854,20.6,11.266l-8.411,8.411,2.855,2.854L26.3,11.266Z" transform="translate(-5.158)" fill="#18b8c4"/>
          <path id="Trazado_213858-2" data-name="Trazado 213858" d="M0,9.774l4.421,4.421L0,18.615l2.854,2.854,7.276-7.275L2.854,6.92Z" transform="translate(0 -2.929)" fill="#18b8c4"/>
        </g>
        <g id="Grupo_871599" data-name="Grupo 871599" transform="translate(936.146 22626.869) rotate(180)">
          <path id="Trazado_213857-3" data-name="Trazado 213857" d="M15.039,0,12.184,2.854,20.6,11.266l-8.411,8.411,2.855,2.854L26.3,11.266Z" transform="translate(-5.158)" fill="#18b8c4"/>
          <path id="Trazado_213858-3" data-name="Trazado 213858" d="M0,9.774l4.421,4.421L0,18.615l2.854,2.854,7.276-7.275L2.854,6.92Z" transform="translate(0 -2.929)" fill="#18b8c4"/>
        </g>
        <g id="Grupo_871600" data-name="Grupo 871600" transform="translate(668.172 22604.338)">
          <path id="Trazado_213857-4" data-name="Trazado 213857" d="M15.039,0,12.184,2.854,20.6,11.266l-8.411,8.411,2.855,2.854L26.3,11.266Z" transform="translate(-5.158)" fill="#18b8c4"/>
          <path id="Trazado_213858-4" data-name="Trazado 213858" d="M0,9.774l4.421,4.421L0,18.615l2.854,2.854,7.276-7.275L2.854,6.92Z" transform="translate(0 -2.929)" fill="#18b8c4"/>
        </g>
        <g id="Grupo_871601" data-name="Grupo 871601" transform="translate(634.594 22711.332)">
          <path id="Trazado_213857-5" data-name="Trazado 213857" d="M15.039,0,12.184,2.854,20.6,11.266l-8.411,8.411,2.855,2.854L26.3,11.266Z" transform="translate(-5.158)" fill="#18b8c4"/>
          <path id="Trazado_213858-5" data-name="Trazado 213858" d="M0,9.774l4.421,4.421L0,18.615l2.854,2.854,7.276-7.275L2.854,6.92Z" transform="translate(0 -2.929)" fill="#18b8c4"/>
        </g>
        <g id="Grupo_871602" data-name="Grupo 871602" transform="translate(709.31 22790.219) rotate(-90)">
          <path id="Trazado_213857-6" data-name="Trazado 213857" d="M2.855,22.531,0,19.677l8.411-8.411L0,2.854,2.855,0,14.12,11.265Z" transform="translate(7.026 0)" fill="#18b8c4"/>
          <path id="Trazado_213858-6" data-name="Trazado 213858" d="M0,11.7,4.421,7.275,0,2.854,2.854,0,10.13,7.275,2.854,14.55Z" transform="translate(0 3.991)" fill="#18b8c4"/>
        </g>
        <path id="Trazado_217427" data-name="Trazado 217427" d="M-7417.167-5062.894h-75.418v-46.842" transform="translate(8376.318 27893.17)" fill="none" stroke="#18b8c4" stroke-width="2"/>
        <path id="Trazado_217428" data-name="Trazado 217428" d="M-7492.584-5062.894h75.418v-46.842" transform="translate(8137.743 27894.072)" fill="none" stroke="#18b8c4" stroke-width="2"/>
        <path id="Trazado_217429" data-name="Trazado 217429" d="M-7416.84-5225h100.69" transform="translate(8376 27950.604)" fill="none" stroke="#18b8c4" stroke-width="2"/>
        <path id="Trazado_217430" data-name="Trazado 217430" d="M-7416.84-5225h29.268" transform="translate(8346.732 27840.604)" fill="none" stroke="#18b8c4" stroke-width="2"/>
        <path id="Trazado_217431" data-name="Trazado 217431" d="M-7416.84-5225h29.268" transform="translate(-6742.414 17390.604) rotate(180)" fill="none" stroke="#18b8c4" stroke-width="2"/>
        <path id="Trazado_217432" data-name="Trazado 217432" d="M-7416.84-5225h100.69" transform="translate(-6775.991 17497.598) rotate(180)" fill="none" stroke="#18b8c4" stroke-width="2"/>
        <text id="_Cuenta_con_el_compromiso_del_equipo_de_trabajo." data-name="● Cuenta con el compromiso del equipo de trabajo." transform="translate(213 22703.998)" fill="#03386e" font-size="16" font-family="SegoeUI, Segoe UI"><tspan x="0" y="17">●</tspan><tspan y="17" xml:space="preserve" fill="#12263f" font-family="Roboto-Regular, Roboto"> Cuenta con el </tspan><tspan y="17" fill="#2b7e3b" font-family="Roboto-Medium, Roboto" font-weight="500">compromiso del equipo </tspan><tspan x="0" y="39" fill="#2b7e3b" font-family="Roboto-Medium, Roboto" font-weight="500">de trabajo.</tspan></text>
        <text id="_Obliga_a_plazos_anticipados." data-name="● Obliga a plazos anticipados." transform="translate(1106.717 22714.998)" fill="#12263f" font-size="16" font-family="SegoeUI, Segoe UI"><tspan x="0" y="17">●</tspan><tspan y="17" xml:space="preserve" font-family="Roboto-Regular, Roboto"> Obliga a </tspan><tspan y="17" fill="#2b7e3b" font-family="Roboto-Bold, Roboto" font-weight="700">plazos anticipados.</tspan></text>
        <text id="_Se_prepara_en_tiempo_calendario_no_en_número_de_días_hábiles." data-name="● Se prepara en tiempo calendario, no en número de días hábiles." transform="translate(987.842 22593.998)" fill="#12263f" font-size="16" font-family="SegoeUI, Segoe UI"><tspan x="0" y="17">●</tspan><tspan y="17" xml:space="preserve" font-family="Roboto-Regular, Roboto"> Se </tspan><tspan y="17" fill="#2b7e3b" font-family="Roboto-Medium, Roboto" font-weight="500">prepara en tiempo calendario, </tspan><tspan y="17" font-family="Roboto-Regular, Roboto">no en </tspan><tspan x="0" y="39" font-family="Roboto-Regular, Roboto">número de días hábiles.</tspan></text>
        <text id="_Es_flexible_y_se_comunica_fácilmente." data-name="● Es flexible y se comunica fácilmente." transform="translate(331.875 22604.998)" fill="#12263f" font-size="16" font-family="SegoeUI, Segoe UI"><tspan x="0" y="17">●</tspan><tspan y="17" xml:space="preserve" font-family="Roboto-Regular, Roboto"> Es </tspan><tspan y="17" fill="#2b7e3b" font-family="Roboto-Medium, Roboto" font-weight="500">flexible </tspan><tspan y="17" font-family="Roboto-Regular, Roboto">y se </tspan><tspan y="17" fill="#2b7e3b" font-family="Roboto-Medium, Roboto" font-weight="500">comunica fácilmente.</tspan></text>
        <text id="_Permite_un_tiempo_de_revisión_después_de_cada_revisión." data-name="● Permite un tiempo de revisión después de cada revisión." transform="translate(1021.717 22812.172)" fill="#12263f" font-size="16" font-family="SegoeUI, Segoe UI"><tspan x="0" y="17">●</tspan><tspan y="17" xml:space="preserve" font-family="Roboto-Regular, Roboto"> Permite un</tspan><tspan y="17" xml:space="preserve" fill="#2b7e3b" font-family="Roboto-Bold, Roboto" font-weight="700"> tiempo de revisión</tspan><tspan y="17" xml:space="preserve" font-family="Roboto-Regular, Roboto"> después </tspan><tspan x="0" y="39" font-family="Roboto-Regular, Roboto">de cada revisión.</tspan></text>
        <text id="_Muestra_las_interrelaciones_entre_las_tareas_muy_claramente." data-name="● Muestra las interrelaciones entre las tareas muy claramente." transform="translate(318 22809.998)" fill="#12263f" font-size="16" font-family="SegoeUI, Segoe UI"><tspan x="0" y="17">●</tspan><tspan y="17" xml:space="preserve" font-family="Roboto-Regular, Roboto"> Muestra las</tspan><tspan y="17" xml:space="preserve" fill="#2b7e3b" font-family="Roboto-Medium, Roboto" font-weight="500"> interrelaciones entre las </tspan><tspan x="0" y="39" fill="#2b7e3b" font-family="Roboto-Medium, Roboto" font-weight="500">tareas </tspan><tspan y="39" font-family="Roboto-Regular, Roboto">muy claramente.</tspan></text>
        <g id="Grupo_871705" data-name="Grupo 871705" transform="translate(710 22561.414)">
          <g id="Grupo_871704" data-name="Grupo 871704" clip-path="url(#clip-path)">
            <g id="Grupo_871703" data-name="Grupo 871703">
              <g id="Grupo_871702" data-name="Grupo 871702" clip-path="url(#clip-path)">
                <path id="Trazado_217568" data-name="Trazado 217568" d="M56.4,63.264a7.949,7.949,0,0,1-.384.927.521.521,0,0,0,.094.6l.979.98a.516.516,0,0,1,0,.729l-2.421,2.423a.517.517,0,0,1-.731,0l-.979-.98a.523.523,0,0,0-.6-.092,7.868,7.868,0,0,1-.927.384.521.521,0,0,0-.36.49v1.387a.516.516,0,0,1-.516.516H47.133a.516.516,0,0,1-.516-.516V68.725a.521.521,0,0,0-.36-.49,7.868,7.868,0,0,1-.927-.384.523.523,0,0,0-.6.092l-.979.98a.517.517,0,0,1-.731,0L40.6,66.5a.514.514,0,0,1,0-.729l.979-.98a.519.519,0,0,0,.092-.6,8.153,8.153,0,0,1-.382-.927.522.522,0,0,0-.49-.36H39.409a.516.516,0,0,1-.516-.516V58.962a.516.516,0,0,1,.516-.516H40.8a.522.522,0,0,0,.49-.36,8.152,8.152,0,0,1,.382-.927.519.519,0,0,0-.092-.6l-.979-.98a.514.514,0,0,1,0-.729l2.421-2.423a.517.517,0,0,1,.731,0l.979.98a.521.521,0,0,0,.6.092,7.865,7.865,0,0,1,.927-.384.521.521,0,0,0,.36-.49V51.238a.516.516,0,0,1,.516-.516h3.424a.516.516,0,0,1,.516.516v1.387a.521.521,0,0,0,.36.49,7.865,7.865,0,0,1,.927.384.521.521,0,0,0,.6-.092l.979-.98a.517.517,0,0,1,.731,0l2.421,2.423a.516.516,0,0,1,0,.729l-.979.98a.521.521,0,0,0-.094.6,7.949,7.949,0,0,1,.384.927.522.522,0,0,0,.49.36h1.387a.516.516,0,0,1,.516.516v3.426a.516.516,0,0,1-.516.516H56.895a.522.522,0,0,0-.49.36m-7.559-6.909a4.32,4.32,0,1,0,4.321,4.321,4.321,4.321,0,0,0-4.321-4.321" transform="translate(7.16 9.337)" fill="#81a5d7"/>
                <path id="Trazado_217569" data-name="Trazado 217569" d="M48.3,66.579a6.448,6.448,0,1,1,6.447-6.449A6.456,6.456,0,0,1,48.3,66.579m0-11.56a5.112,5.112,0,1,0,5.11,5.112,5.118,5.118,0,0,0-5.11-5.112" transform="translate(7.704 9.882)" fill="#d6dcf0"/>
                <path id="Trazado_217570" data-name="Trazado 217570" d="M65.529,55.715a5.042,5.042,0,0,1-.316.571.34.34,0,0,0,.015.4l.56.706a.335.335,0,0,1-.053.471l-1.743,1.385a.337.337,0,0,1-.472-.054l-.56-.706a.34.34,0,0,0-.381-.1,5.082,5.082,0,0,1-.628.18.338.338,0,0,0-.269.29l-.1.9a.335.335,0,0,1-.372.295L59,59.787a.337.337,0,0,1-.3-.372l.1-.9a.339.339,0,0,0-.2-.343,5.042,5.042,0,0,1-.571-.316.34.34,0,0,0-.394.015l-.706.561a.335.335,0,0,1-.471-.054l-1.385-1.743a.335.335,0,0,1,.054-.471l.7-.561a.336.336,0,0,0,.1-.381,5.342,5.342,0,0,1-.179-.626.337.337,0,0,0-.29-.269l-.9-.1a.336.336,0,0,1-.3-.372l.253-2.212a.335.335,0,0,1,.372-.295l.9.1a.339.339,0,0,0,.343-.2,5.442,5.442,0,0,1,.316-.571.338.338,0,0,0-.015-.4l-.56-.7a.337.337,0,0,1,.054-.472l1.743-1.385a.335.335,0,0,1,.471.054l.561.706a.339.339,0,0,0,.381.1,5.124,5.124,0,0,1,.626-.18.337.337,0,0,0,.269-.29l.1-.9a.335.335,0,0,1,.372-.295l2.212.253a.334.334,0,0,1,.295.371l-.1.9a.339.339,0,0,0,.2.343,5.041,5.041,0,0,1,.571.316.342.342,0,0,0,.4-.015l.7-.561a.337.337,0,0,1,.472.054L66.6,50.331a.337.337,0,0,1-.053.472l-.706.56a.34.34,0,0,0-.1.381,5.077,5.077,0,0,1,.179.628.34.34,0,0,0,.29.268l.9.1a.336.336,0,0,1,.295.372l-.253,2.212a.335.335,0,0,1-.372.295l-.9-.1a.339.339,0,0,0-.343.2m-4.372-5.021A2.808,2.808,0,1,0,63.628,53.8a2.808,2.808,0,0,0-2.471-3.109" transform="translate(9.992 8.639)" fill="#81a5d7"/>
                <path id="Trazado_217571" data-name="Trazado 217571" d="M59.993,57.282a4.192,4.192,0,1,1,4.642-3.688,4.2,4.2,0,0,1-4.642,3.688m.855-7.467a3.323,3.323,0,1,0,2.924,3.68,3.327,3.327,0,0,0-2.924-3.68" transform="translate(10.36 9.006)" fill="#d6dcf0"/>
                <rect id="Rectángulo_292052" data-name="Rectángulo 292052" width="4.619" height="31.227" transform="translate(50.359 86.967)" fill="#ffc35d"/>
                <rect id="Rectángulo_292053" data-name="Rectángulo 292053" width="17.572" height="31.227" transform="translate(54.978 86.967)" fill="#f1d7a4"/>
                <rect id="Rectángulo_292054" data-name="Rectángulo 292054" width="4.619" height="28.586" transform="translate(58.572 89.608)" fill="#5279bb"/>
                <rect id="Rectángulo_292055" data-name="Rectángulo 292055" width="17.572" height="28.586" transform="translate(63.191 89.608)" fill="#51c3e5"/>
                <path id="Trazado_217572" data-name="Trazado 217572" d="M92.936,100.153H86.2a1.073,1.073,0,0,1,0-2.146h6.735a1.073,1.073,0,0,1,0,2.146" transform="translate(15.671 18.041)" fill="#96b1dc"/>
                <path id="Trazado_217573" data-name="Trazado 217573" d="M107.96,94.907H74.653a2.224,2.224,0,0,1-2.2-1.913L69.778,74a2.223,2.223,0,0,1,2.2-2.533h33.308a2.222,2.222,0,0,1,2.2,1.913l2.672,18.993a2.223,2.223,0,0,1-2.2,2.534" transform="translate(12.841 13.156)" fill="#81a5d7"/>
                <path id="Trazado_217574" data-name="Trazado 217574" d="M106.96,94.78H74.635a2.222,2.222,0,0,1-2.2-1.913L69.876,74.693a2.224,2.224,0,0,1,2.2-2.534H104.4a2.224,2.224,0,0,1,2.2,1.913l2.556,18.173a2.223,2.223,0,0,1-2.2,2.534" transform="translate(12.859 13.283)" fill="#96b1dc"/>
                <path id="Trazado_217575" data-name="Trazado 217575" d="M83.481,86.471h6.6L87.858,100.13H79.1Z" transform="translate(14.562 15.918)" fill="#81a5d7"/>
                <path id="Trazado_217576" data-name="Trazado 217576" d="M87.816,99.193a.96.96,0,0,0,.96.96H79.94a.836.836,0,0,1-.835-.836V98.007h8.711Z" transform="translate(14.562 18.041)" fill="#81a5d7"/>
                <path id="Trazado_217577" data-name="Trazado 217577" d="M88.732,86.471V88.7L87.176,100.13h-.714Z" transform="translate(15.916 15.918)" fill="#96b1dc"/>
                <rect id="Rectángulo_292056" data-name="Rectángulo 292056" width="46.283" height="29.928" transform="translate(39.869 12.824)" fill="#cfddcf"/>
                <rect id="Rectángulo_292057" data-name="Rectángulo 292057" width="37.422" height="3.544" transform="translate(43.008 16.218)" fill="#fff"/>
                <rect id="Rectángulo_292058" data-name="Rectángulo 292058" width="37.422" height="3.544" transform="translate(43.008 23.702)" fill="#fff"/>
                <rect id="Rectángulo_292059" data-name="Rectángulo 292059" width="21.317" height="3.544" transform="translate(43.008 31.233)" fill="#fff"/>
                <rect id="Rectángulo_292060" data-name="Rectángulo 292060" width="46.283" height="18.022" transform="translate(93.666 53.325)" fill="#d6dcf0"/>
                <rect id="Rectángulo_292061" data-name="Rectángulo 292061" width="37.422" height="3.544" transform="translate(96.805 56.69)" fill="#fff"/>
                <rect id="Rectángulo_292062" data-name="Rectángulo 292062" width="15.829" height="3.544" transform="translate(96.805 64.221)" fill="#fff"/>
                <rect id="Rectángulo_292063" data-name="Rectángulo 292063" width="11.222" height="3.544" transform="translate(115.865 64.221)" fill="#fff"/>
                <rect id="Rectángulo_292064" data-name="Rectángulo 292064" width="9.381" height="5.024" transform="translate(80.561 48.641)" fill="#ffc35d"/>
                <path id="Trazado_217578" data-name="Trazado 217578" d="M81.65,38.8A8.353,8.353,0,1,1,73.3,30.448,8.352,8.352,0,0,1,81.65,38.8" transform="translate(11.955 5.605)" fill="#ffc35d"/>
                <path id="Trazado_217579" data-name="Trazado 217579" d="M66.271,37.174a.574.574,0,0,1-.192-.033.566.566,0,0,1-.34-.722,8.734,8.734,0,0,1,5.627-5.462.564.564,0,0,1,.283,1.093A7.593,7.593,0,0,0,66.8,36.8a.564.564,0,0,1-.53.373" transform="translate(12.095 5.695)" fill="#fff"/>
                <g id="Grupo_871668" data-name="Grupo 871668" transform="translate(88.184 36.583)" opacity="0.36" style="mix-blend-mode: multiply;isolation: isolate">
                  <g id="Grupo_871667" data-name="Grupo 871667">
                    <g id="Grupo_871666" data-name="Grupo 871666" clip-path="url(#clip-path-3)">
                      <path id="Trazado_217580" data-name="Trazado 217580" d="M79.9,38.717a8.348,8.348,0,0,1-3.662,6.914v2.346h-1v-2.8A8.354,8.354,0,0,0,74.474,30.9,8.354,8.354,0,0,1,79.9,38.717" transform="translate(-74.474 -30.896)" fill="#fbc167"/>
                    </g>
                  </g>
                </g>
                <path id="Trazado_217581" data-name="Trazado 217581" d="M77.737,45.036v3.958a.528.528,0,0,1-.311.482l-3.311,1.485a1.227,1.227,0,0,1-.5.108H71.929a1.227,1.227,0,0,1-.5-.108l-3.311-1.485a.528.528,0,0,1-.311-.482V45.036Z" transform="translate(12.482 8.29)" fill="#5279bb"/>
                <g id="Grupo_871671" data-name="Grupo 871671" transform="translate(80.287 53.595)" opacity="0.36" style="mix-blend-mode: multiply;isolation: isolate">
                  <g id="Grupo_871670" data-name="Grupo 871670">
                    <g id="Grupo_871669" data-name="Grupo 871669" clip-path="url(#clip-path-4)">
                      <rect id="Rectángulo_292066" data-name="Rectángulo 292066" width="9.932" height="1.362" transform="translate(0)" fill="#6b6f77"/>
                    </g>
                  </g>
                </g>
                <g id="Grupo_871674" data-name="Grupo 871674" transform="translate(80.287 56.004)" opacity="0.36" style="mix-blend-mode: multiply;isolation: isolate">
                  <g id="Grupo_871673" data-name="Grupo 871673">
                    <g id="Grupo_871672" data-name="Grupo 871672" clip-path="url(#clip-path-5)">
                      <rect id="Rectángulo_292068" data-name="Rectángulo 292068" width="9.932" height="1.362" transform="translate(0 -0.001)" fill="#6b6f77"/>
                    </g>
                  </g>
                </g>
                <rect id="Rectángulo_292070" data-name="Rectángulo 292070" width="10.646" height="1.362" transform="translate(79.929 53.325)" fill="#81a5d7"/>
                <rect id="Rectángulo_292071" data-name="Rectángulo 292071" width="10.646" height="1.362" transform="translate(79.929 55.732)" fill="#81a5d7"/>
                <path id="Trazado_217582" data-name="Trazado 217582" d="M19.733,151.41l-.849,8.335h21.19s-.848-2.825-4.8-3.744-7.764-2.346-8.546-3.531a3.721,3.721,0,0,1-.777-1.8Z" transform="translate(3.476 27.736)" fill="#105396"/>
                <path id="Trazado_217583" data-name="Trazado 217583" d="M30.233,158.967h7.751s-.847-2.828-4.8-3.746c-.43-.1-.861-.206-1.282-.321a5.7,5.7,0,0,0-1.665,4.067" transform="translate(5.565 28.514)" fill="#d6dcf0"/>
                <path id="Trazado_217584" data-name="Trazado 217584" d="M28.586,157.413a.673.673,0,0,1-.512-1.109l2.4-2.811a.673.673,0,1,1,1.024.874l-2.4,2.81a.672.672,0,0,1-.513.237" transform="translate(5.138 28.212)" fill="#d6dcf0"/>
                <path id="Trazado_217585" data-name="Trazado 217585" d="M27.306,156.9a.673.673,0,0,1-.512-1.109l2.4-2.811a.673.673,0,1,1,1.024.873l-2.4,2.811a.672.672,0,0,1-.513.237" transform="translate(4.903 28.118)" fill="#d6dcf0"/>
                <path id="Trazado_217586" data-name="Trazado 217586" d="M26.027,156.394a.673.673,0,0,1-.512-1.109l2.4-2.811a.673.673,0,1,1,1.024.874l-2.4,2.81a.672.672,0,0,1-.513.237" transform="translate(4.667 28.024)" fill="#d6dcf0"/>
                <rect id="Rectángulo_292072" data-name="Rectángulo 292072" width="21.189" height="0.72" transform="translate(22.361 187.476)" fill="#105396"/>
                <path id="Trazado_217587" data-name="Trazado 217587" d="M10.751,151.41l.848,8.335H0s2.778-4.515,3.561-5.7a8.971,8.971,0,0,0,.975-3.373Z" transform="translate(0 27.736)" fill="#105396"/>
                <rect id="Rectángulo_292073" data-name="Rectángulo 292073" width="11.598" height="0.72" transform="translate(0.001 187.476)" fill="#105396"/>
                <path id="Trazado_217588" data-name="Trazado 217588" d="M0,158.8s1.464-3.333,6.141-3.021c5.341.356,5.457,3.021,5.457,3.021Z" transform="translate(0 28.673)" fill="#d6dcf0"/>
                <path id="Trazado_217589" data-name="Trazado 217589" d="M9.021,156.47a.7.7,0,0,1-.163-.02l-4.764-1.19a.673.673,0,1,1,.326-1.306l4.764,1.19a.673.673,0,0,1-.162,1.326" transform="translate(0.66 28.337)" fill="#d6dcf0"/>
                <path id="Trazado_217590" data-name="Trazado 217590" d="M9.021,155.465a.7.7,0,0,1-.163-.02l-4.764-1.19a.673.673,0,0,1,.326-1.306l4.764,1.19a.673.673,0,0,1-.162,1.326" transform="translate(0.66 28.152)" fill="#d6dcf0"/>
                <path id="Trazado_217591" data-name="Trazado 217591" d="M9.021,154.46a.7.7,0,0,1-.163-.02l-4.764-1.19a.673.673,0,0,1,.326-1.306l4.764,1.19a.673.673,0,0,1-.162,1.326" transform="translate(0.66 27.967)" fill="#d6dcf0"/>
                <path id="Trazado_217592" data-name="Trazado 217592" d="M18.047,74.76c-.522,26.043-.32,92.15-.32,92.15H28.595c-.144-14.755,6.878-69.295,5.08-92.561-.284-3.675-15.554-3.274-15.628.411" transform="translate(3.256 13.215)" fill="#181e28"/>
                <path id="Trazado_217593" data-name="Trazado 217593" d="M7.014,74.679C4.789,99.9,1.373,166.9,1.373,166.9H12.082c-.144-14.755,11.332-64.509,10.519-92.511-.1-3.571-15.273-3.267-15.587.292" transform="translate(0.253 13.227)" fill="#181e28"/>
                <g id="Grupo_871677" data-name="Grupo 871677" transform="translate(6.134 85.001)" opacity="0.36" style="mix-blend-mode: multiply;isolation: isolate">
                  <g id="Grupo_871676" data-name="Grupo 871676">
                    <g id="Grupo_871675" data-name="Grupo 871675" clip-path="url(#clip-path-6)">
                      <path id="Trazado_217594" data-name="Trazado 217594" d="M5.181,89.567a15.69,15.69,0,0,1,1.612-3.139,7.719,7.719,0,0,1,4.027-3.139,13.78,13.78,0,0,1,4.829-.137,36.763,36.763,0,0,0,4.568.053c.528-.02,1.063-.053,1.593-.1q.586-.05,1.175-.117a40.24,40.24,0,0,0,12.882-3.713c.11-.052.229-.111.346-.163-.046-1.7-.124-3.3-.236-4.764-.242-3.119-11.3-3.3-14.663-1.031-2.8-2.381-14.723-1.775-15,1.377-.353,4.033-.744,9.142-1.136,14.872" transform="translate(-5.181 -71.786)" fill="#5279bb"/>
                    </g>
                  </g>
                </g>
                <path id="Trazado_217595" data-name="Trazado 217595" d="M14.042,32.428s-7.9,1.644-9.916,6.124C1.563,44.264,7.033,55.143,7.47,71.116,7.545,73.9,6.082,79.26,6.24,85.231a87.458,87.458,0,0,0,17.254,2.1c3.956-.012,13.282-1.868,13.282-1.868s-1.409-11.3-1.165-17.361c.258-6.42,1.511-26.885-2.489-30.622-2.791-2.609-10.254-4.6-10.254-4.6Z" transform="translate(0.634 5.969)" fill="#6dbfa0"/>
                <g id="Grupo_871680" data-name="Grupo 871680" transform="translate(4.575 39.846)" opacity="0.36" style="mix-blend-mode: multiply;isolation: isolate">
                  <g id="Grupo_871679" data-name="Grupo 871679">
                    <g id="Grupo_871678" data-name="Grupo 871678" clip-path="url(#clip-path-7)">
                      <path id="Trazado_217596" data-name="Trazado 217596" d="M3.864,52.453A23.273,23.273,0,0,0,5.88,58.235s.052-.059.143-.15c.262,1.494.509,3.048.718,4.679a12.1,12.1,0,0,0,4.4,3.706c2.552,1.149,5.475.972,8.263.777q7.733-.538,15.465-1.089c.242-.02.49-.033.738-.066.124-2.76.3-6.767.314-10.936-1.416-3.336-3.068-6.579-4.713-9.809-.952-1.872-.7-4.176-1.526-6.108a12.937,12.937,0,0,0-3.667-5.051c-.529-.418-1.319-.777-1.828-.333a1.1,1.1,0,0,0-.227,1.162,3.968,3.968,0,0,0,.639,1.07,19.172,19.172,0,0,1,2.511,6.525q1.684,6.724,3.355,13.443a2.288,2.288,0,0,1,0,1.665c-.4.731-1.4.809-2.225.763a63.239,63.239,0,0,1-8.98-1.324A6.043,6.043,0,0,1,16.276,56c-1.05-.934-1.318-2.434-1.645-3.8a23.664,23.664,0,0,0-2.545-6.349c-.8-1.377-2.009-2.813-3.6-2.754A3.187,3.187,0,0,0,6.1,44.551a7.482,7.482,0,0,0-1.03,2.682c-.366,1.638-.881,3.433-1.208,5.221" transform="translate(-3.864 -33.651)" fill="#6dbfa0"/>
                    </g>
                  </g>
                </g>
                <path id="Trazado_217597" data-name="Trazado 217597" d="M12.633,32.428l8.826.451,1.389.54s2.386,6.55-.735,7.125C16.054,41.659,11.1,32.95,11.1,32.95Z" transform="translate(2.044 5.969)" fill="#4ab28c"/>
                <path id="Trazado_217598" data-name="Trazado 217598" d="M27.875,18.336s.094,13.928-2.582,16.329c-1.488,1.336-4.517.264-4.517.264l.435.918s2.272,5.63-.236,6.1c-3.937.732-8.579-6.608-8.579-6.608l.224-3.141S12.528,18,14.05,16.971c1.861-1.256,13.824,1.365,13.824,1.365" transform="translate(2.282 3.061)" fill="#ef8ba7"/>
                <path id="Trazado_217599" data-name="Trazado 217599" d="M20.045,32.48l.433.918a6.1,6.1,0,0,1-4.11-3.461,13.9,13.9,0,0,0,3.677,2.543" transform="translate(3.013 5.511)" fill="#9d4b53"/>
                <path id="Trazado_217600" data-name="Trazado 217600" d="M21.855,27.9a.42.42,0,0,1,0-.841,7.519,7.519,0,0,0,1.562-.155,31.1,31.1,0,0,0-1.157-3.749.42.42,0,0,1,.791-.285c1.455,4.035,1.246,4.34,1.12,4.522-.083.12-.336.487-2.307.508Z" transform="translate(3.946 4.158)" fill="#9d4b53"/>
                <path id="Trazado_217601" data-name="Trazado 217601" d="M22.864,29.5a6.128,6.128,0,0,1-3.572-1.079.421.421,0,1,1,.506-.673,5.51,5.51,0,0,0,3.386.9.421.421,0,0,1,.077.838c-.022,0-.167.014-.4.014" transform="translate(3.52 5.092)" fill="#9d4b53"/>
                <path id="Trazado_217602" data-name="Trazado 217602" d="M17.96,21.719s.848,2.157-.461,3.538c0,0-1.347-1.711-2.47-.427s.655,4.234.655,4.234c-.678,1.179-1.474,2.417-2.765,2.619-.554.086-3.812-11.874-2.211-14.408C11.918,15.362,14.53,15.8,14.53,15.8s6.512-2.311,10.322-2.668c.592-.056-1.52,1.005-.943,1,1.506-.017,3.328-.738,4.62-.147.984.449-2.1-.545.056,2.664.932,1.388,1.106,4.646-.373,5.431,0-.607.038-1.415.038-1.415s-4.015.631-10.29,1.057" transform="translate(1.891 2.416)" fill="#0f1012"/>
                <path id="Trazado_217603" data-name="Trazado 217603" d="M16.215,25.972a.42.42,0,0,1-.419-.391c0-.024-.118-1.432-.961-1.525a.421.421,0,0,1,.094-.836c1.543.171,1.7,2.215,1.707,2.3a.421.421,0,0,1-.391.449h-.03" transform="translate(2.662 4.274)" fill="#9d4b53"/>
                <path id="Trazado_217604" data-name="Trazado 217604" d="M15.214,26.148a.42.42,0,0,1-.41-.328,1.689,1.689,0,0,1,.858-1.887.42.42,0,0,1,.381.75.848.848,0,0,0-.419.953.42.42,0,0,1-.319.5.41.41,0,0,1-.092.011" transform="translate(2.717 4.397)" fill="#9d4b53"/>
                <path id="Trazado_217605" data-name="Trazado 217605" d="M36.723,61.966c-1.3.623-1.739.394-5.48.188-.549-.031-18.634.738-21.029-.54S5.336,54.7,5.581,52.024s4.785-5.492,6.5-3.424c1.059,1.276,1.54,5.7,2.019,5.95s16.073,2.373,16.073,2.373a29.382,29.382,0,0,0,3-1.994c.526-.39,3.086-.7,3.272-.356.451.821-.954,1.031-1.364,1.292s1.2-.192,1.455-.179c.377.019,1.639-.073,1.754.8s-.554,2.828-.472,3.544a1.964,1.964,0,0,1-1.092,1.937" transform="translate(1.024 8.815)" fill="#ef8ba7"/>
                <path id="Trazado_217606" data-name="Trazado 217606" d="M29.134,36.763c1.08.446,6.018,9.878,6.743,15.989l-7.485.818s-7.849-20.356.741-16.807" transform="translate(4.623 6.691)" fill="#4ab28c"/>
                <path id="Trazado_217607" data-name="Trazado 217607" d="M28.174,54.342a2.753,2.753,0,0,0,3.275,2.684c3.254-.257,2.678-1.275,2.678-1.275Z" transform="translate(5.186 10.003)" fill="#9d4b53"/>
                <path id="Trazado_217608" data-name="Trazado 217608" d="M27.257,31.453c.793.954,1.71,2.206,1.5,5.946-.03.549,8.157,14.681,8.479,18.916.377,4.951-5.866,5.866-7.75,2.445-.262-.475-5.959-20.292-5.959-20.292a29.3,29.3,0,0,0-2-3c-.388-.526-.694-3.086-.356-3.272.822-.451,1.033.954,1.293,1.364s-.192-1.2-.179-1.455c.019-.377-.073-1.639.8-1.754s1.241.246,2.295.59c.686.223,1.482.039,1.872.508" transform="translate(3.872 5.584)" fill="#ef8ba7"/>
                <path id="Trazado_217609" data-name="Trazado 217609" d="M4.185,37.838c-1.48,1.383-1.842,12.9,1.827,19.907a9.892,9.892,0,0,1,8.527-2.707s-1.918-25.085-10.354-17.2" transform="translate(0.576 6.683)" fill="#6dbfa0"/>
                <path id="Trazado_217610" data-name="Trazado 217610" d="M14.194,54.754a.673.673,0,0,1-.664-.573c-.019-.122-1.855-12.253-3.117-14.833-1.074-2.2-4.576-1.529-4.612-1.522a.673.673,0,0,1-.266-1.32c.186-.037,4.556-.885,6.089,2.251,1.35,2.765,3.16,14.716,3.237,15.224a.674.674,0,0,1-.566.766.719.719,0,0,1-.1.007" transform="translate(0.92 6.696)" fill="#4ab28c"/>
                <rect id="Rectángulo_292076" data-name="Rectángulo 292076" width="35.054" height="67.612" transform="translate(64.658 120.583)" fill="#c15e1a"/>
                <rect id="Rectángulo_292077" data-name="Rectángulo 292077" width="35.054" height="65.224" transform="translate(36.999 122.972)" fill="#e8953a"/>
                <g id="Grupo_871683" data-name="Grupo 871683" transform="translate(37 122.972)" opacity="0.36" style="mix-blend-mode: multiply;isolation: isolate">
                  <g id="Grupo_871682" data-name="Grupo 871682">
                    <g id="Grupo_871681" data-name="Grupo 871681" clip-path="url(#clip-path-8)">
                      <rect id="Rectángulo_292078" data-name="Rectángulo 292078" width="62.713" height="2.588" transform="translate(0 0.001)" fill="#81a5d7"/>
                    </g>
                  </g>
                </g>
                <path id="Trazado_217611" data-name="Trazado 217611" d="M117.986,126.528a2.288,2.288,0,0,1-2.192-2.932l4.957-16.788a.915.915,0,0,0-.879-1.176h-8.039a2.284,2.284,0,0,1,0-4.568h8.039a5.483,5.483,0,0,1,5.26,7.037l-4.957,16.789a2.285,2.285,0,0,1-2.189,1.638" transform="translate(20.166 18.604)" fill="#326cb4"/>
                <path id="Trazado_217612" data-name="Trazado 217612" d="M119.557,121.028a2.5,2.5,0,1,1-2.5-2.5,2.5,2.5,0,0,1,2.5,2.5" transform="translate(21.09 21.82)" fill="#5279bb"/>
                <path id="Trazado_217613" data-name="Trazado 217613" d="M116.817,106.442H100.462a2.937,2.937,0,0,1,0-5.873h16.356a2.937,2.937,0,0,1,0,5.873" transform="translate(17.953 18.513)" fill="#6291cc"/>
                <path id="Trazado_217614" data-name="Trazado 217614" d="M142.849,126.481a2.285,2.285,0,0,1-2.284-2.284V103.6a2.284,2.284,0,1,1,4.568,0v20.6a2.285,2.285,0,0,1-2.284,2.284" transform="translate(25.876 18.651)" fill="#105396"/>
                <path id="Trazado_217615" data-name="Trazado 217615" d="M131.305,103.392V79.586a6.332,6.332,0,0,1,6.332-6.332H152.7v36.471H137.637a6.332,6.332,0,0,1-6.332-6.332" transform="translate(24.171 13.485)" fill="#398434"/>
                <path id="Trazado_217616" data-name="Trazado 217616" d="M146.912,106.655V76.324a3.07,3.07,0,1,1,6.141,0v30.33a3.07,3.07,0,0,1-6.141,0" transform="translate(27.044 13.485)" fill="#1c451f"/>
                <rect id="Rectángulo_292080" data-name="Rectángulo 292080" width="6.374" height="33.403" transform="translate(144.212 147.57)" fill="#105396"/>
                <rect id="Rectángulo_292081" data-name="Rectángulo 292081" width="8.278" height="4.318" transform="translate(143.259 176.655)" fill="#81a5d7"/>
                <rect id="Rectángulo_292082" data-name="Rectángulo 292082" width="6.374" height="4.196" transform="translate(144.212 147.57)" fill="#105396"/>
                <rect id="Rectángulo_292083" data-name="Rectángulo 292083" width="34.684" height="3.593" transform="translate(130.056 178.341)" fill="#81a5d7"/>
                <path id="Trazado_217617" data-name="Trazado 217617" d="M105.516,155.412a5.116,5.116,0,1,1,5.116,5.116,5.117,5.117,0,0,1-5.116-5.116" transform="translate(19.424 27.667)" fill="#105396"/>
                <path id="Trazado_217618" data-name="Trazado 217618" d="M106.947,155.149a3.422,3.422,0,1,1,3.422,3.422,3.422,3.422,0,0,1-3.422-3.422" transform="translate(19.687 27.93)" fill="#81a5d7"/>
                <path id="Trazado_217619" data-name="Trazado 217619" d="M134.808,155.412a5.116,5.116,0,1,1,5.116,5.116,5.117,5.117,0,0,1-5.116-5.116" transform="translate(24.816 27.667)" fill="#105396"/>
                <path id="Trazado_217620" data-name="Trazado 217620" d="M136.239,155.149a3.422,3.422,0,1,1,3.422,3.422,3.422,3.422,0,0,1-3.422-3.422" transform="translate(25.079 27.93)" fill="#81a5d7"/>
                <path id="Trazado_217621" data-name="Trazado 217621" d="M129.5,124.188H102.471a3.07,3.07,0,0,1,0-6.141H129.5Z" transform="translate(18.298 21.73)" fill="#1c451f"/>
                <path id="Trazado_217622" data-name="Trazado 217622" d="M153.513,124.188H118.567a3.07,3.07,0,0,1,0-6.141h34.946a3.07,3.07,0,0,1,0,6.141" transform="translate(21.261 21.73)" fill="#398434"/>
                <rect id="Rectángulo_292084" data-name="Rectángulo 292084" width="5.446" height="2.137" transform="translate(140.892 145.917)" fill="#81a5d7"/>
                <rect id="Rectángulo_292085" data-name="Rectángulo 292085" width="9.321" height="2.137" transform="translate(145.131 145.917)" fill="#5279bb"/>
                <g id="Grupo_871686" data-name="Grupo 871686" transform="translate(140.892 145.918)" opacity="0.36" style="mix-blend-mode: multiply;isolation: isolate">
                  <g id="Grupo_871685" data-name="Grupo 871685">
                    <g id="Grupo_871684" data-name="Grupo 871684" clip-path="url(#clip-path-9)">
                      <rect id="Rectángulo_292086" data-name="Rectángulo 292086" width="13.559" height="2.137" transform="translate(0.001 -0.001)" fill="#105396"/>
                    </g>
                  </g>
                </g>
                <path id="Trazado_217623" data-name="Trazado 217623" d="M93.3,72.588c2.112,2.179,3.825,1.757,4.783,2.476.409.307,12.054,10.416,14.554,10.7s9.435-1.186,10.657-3.356-.758-6.708-3.157-6.034c-1.48.416-5.05,2.7-5.551,2.644s-13.765-7.361-13.765-7.361-.438-1.14-1.125-3.15c-.2-.573-1.613-1.537-2.1-2.1-.565-.66-.88.992.04,1.864.336.319.123.411.123.411a12.646,12.646,0,0,1-1.854-1.147c-.53-.411-3.233-1.992-3.823-1.519-.9.722,3.192,3.122,3.192,3.122S93.455,65,92.426,65.363c-.779.276,1.9,4.792,1.9,4.792s-1.153-3.471-1.905-3.3,1.037,4.2,1.037,4.2-.856-2.749-1.5-2.117c-.358.35.752,3.036,1.349,3.652" transform="translate(16.914 12.028)" fill="#ef8ba7"/>
                <path id="Trazado_217624" data-name="Trazado 217624" d="M98.591,72.481a.306.306,0,0,1-.22-.094c-1.529-1.58-2.456-1.133-3.437-.661a7.355,7.355,0,0,1-.687.3.306.306,0,0,1-.206-.577,6.772,6.772,0,0,0,.626-.276,2.877,2.877,0,0,1,3.058-.1c-.6-1.563-.182-2.11-.072-2.219a.306.306,0,0,1,.443.423c-.025.039-.393.673.763,2.747a.306.306,0,0,1-.268.455" transform="translate(17.274 12.659)" fill="#9d4b53"/>
                <path id="Trazado_217625" data-name="Trazado 217625" d="M95.438,69.725a.308.308,0,0,1-.263-.148l-1.72-2.863a.306.306,0,0,1,.525-.316l1.72,2.863a.306.306,0,0,1-.262.464" transform="translate(17.195 12.196)" fill="#9d4b53"/>
                <path id="Trazado_217626" data-name="Trazado 217626" d="M94.541,70.694a.308.308,0,0,1-.284-.191L92.951,67.3a.306.306,0,0,1,.567-.231l1.306,3.205a.305.305,0,0,1-.168.4.3.3,0,0,1-.115.022" transform="translate(17.106 12.311)" fill="#9d4b53"/>
                <path id="Trazado_217627" data-name="Trazado 217627" d="M93.748,71.312a.3.3,0,0,1-.274-.169l-.893-1.78a.307.307,0,0,1,.548-.275l.892,1.781a.307.307,0,0,1-.136.411.319.319,0,0,1-.137.032" transform="translate(17.037 12.687)" fill="#9d4b53"/>
                <path id="Trazado_217628" data-name="Trazado 217628" d="M125.673,57.764c-.065,1.211.279,2.41.29,3.623a13.541,13.541,0,0,1-.78,3.968,12.33,12.33,0,0,0-.721,3.977,4.3,4.3,0,0,0,1.749,3.492A3.977,3.977,0,0,0,130.2,72.8a7.044,7.044,0,0,0,2.745-3.08c2.194-4.337,1.376-9.854-1.5-13.773-.686-.937-2.246-2.714-3.577-2.231s-2.129,2.8-2.2,4.046" transform="translate(22.91 9.873)" fill="#0f1012"/>
                <path id="Trazado_217629" data-name="Trazado 217629" d="M115.18,154.792l-.39-4.6-6.458.439s-.049,2.1-.731,2.681a2.514,2.514,0,0,1-1.186.643s-2.494,1.561-2.4,1.934,4.9,3.028,8.138,1.321,3.022-2.414,3.022-2.414" transform="translate(19.148 27.647)" fill="#ef8ba7"/>
                <path id="Trazado_217630" data-name="Trazado 217630" d="M116.506,153.477l.588,5.788H96.418s.826-2.757,4.687-3.653a27.77,27.77,0,0,0,6.711-2.246c-.866.629-1.1,1.72-.213,1.932,2.06.495,8.9-1.821,8.9-1.821" transform="translate(17.749 28.232)" fill="#105396"/>
                <path id="Trazado_217631" data-name="Trazado 217631" d="M103.982,158.967H96.418s.826-2.759,4.688-3.655c.42-.1.841-.2,1.252-.314a5.557,5.557,0,0,1,1.625,3.969" transform="translate(17.749 28.533)" fill="#d6dcf0"/>
                <rect id="Rectángulo_292088" data-name="Rectángulo 292088" width="20.675" height="0.703" transform="translate(114.168 187.492)" fill="#d6dcf0"/>
                <path id="Trazado_217632" data-name="Trazado 217632" d="M94.744,155.044l-.075-.728L95.8,149.14l-6.81-.323s-1.145,4.158-1.827,4.743a2.514,2.514,0,0,1-1.186.643s-2.494,1.561-2.4,1.934,4.9,3.028,8.138,1.321,3.022-2.414,3.022-2.414" transform="translate(15.386 27.395)" fill="#ef8ba7"/>
                <path id="Trazado_217633" data-name="Trazado 217633" d="M96.069,153.477l.588,5.788H75.981s.826-2.757,4.687-3.653a27.77,27.77,0,0,0,6.711-2.246c-.866.629-1.1,1.72-.213,1.932,2.06.495,8.9-1.821,8.9-1.821" transform="translate(13.987 28.232)" fill="#105396"/>
                <path id="Trazado_217634" data-name="Trazado 217634" d="M83.546,158.967H75.982s.826-2.759,4.688-3.655c.42-.1.841-.2,1.252-.314a5.558,5.558,0,0,1,1.625,3.969" transform="translate(13.987 28.533)" fill="#d6dcf0"/>
                <rect id="Rectángulo_292089" data-name="Rectángulo 292089" width="20.675" height="0.703" transform="translate(89.969 187.492)" fill="#d6dcf0"/>
                <path id="Trazado_217635" data-name="Trazado 217635" d="M137.3,109.963c-.683,2.144-2.541,5.6-4.078,6.8s-28.475,1.846-28.475,1.846L96.55,160.381l-9.326-1.6c.27-13,.475-39.147,3.834-45.266,3.589-6.537,22.963-11.02,30.631-11.625,3.607-.284,8.979-2.52,12.705-.706s2.9,8.782,2.9,8.782" transform="translate(16.056 18.496)" fill="#474747"/>
                <path id="Trazado_217636" data-name="Trazado 217636" d="M146.013,111.821c-.105,2.768-.983,8.473-4.01,8.956-1.923.307-26.77.287-26.77.287l2.018,39.1h-8.979c-3.064-11.8-10.393-39.825-7.033-45.944,3.589-6.539,28.266-12.52,28.266-12.52s9.88-.477,13.606,1.337,2.9,8.782,2.9,8.782" transform="translate(18.477 18.711)" fill="#555"/>
                <path id="Trazado_217637" data-name="Trazado 217637" d="M138.95,67.794s5.573,2.336,7.479,6.581c2.429,5.409,2.013,24.54-.491,30.039a4.64,4.64,0,0,1-1.879,1.871l-.983,11.767a12.338,12.338,0,0,0-9.05-8.7c-3.611-1-17.694-1.449-17.694-1.449a13.571,13.571,0,0,0,4.373-8.534c.662-7.147-2.323-26.1,2.2-28.624,2.918-1.628,7.9-2.281,7.9-2.281Z" transform="translate(21.415 12.48)" fill="#ffc35d"/>
                <path id="Trazado_217638" data-name="Trazado 217638" d="M134.8,92.763a.73.73,0,0,1-.133-.013c-7.38-1.477-10.948-8.566-11.1-8.868a.673.673,0,1,1,1.207-.594c.034.067,3.435,6.8,10.154,8.142a.673.673,0,0,1-.131,1.333" transform="translate(22.735 15.263)" fill="#ffb252"/>
                <path id="Trazado_217639" data-name="Trazado 217639" d="M128.672,76.686c-4.354.046-1.263-7.963-1.263-7.963l1.558-.259,8.138-.67a7.155,7.155,0,0,1,1.345.668c-1.117,2.852-5.431,8.178-9.778,8.225" transform="translate(23.258 12.48)" fill="#ffb252"/>
                <path id="Trazado_217640" data-name="Trazado 217640" d="M127.586,53.725s-3.166,12.125-1.3,14.976c.874,1.338,3,.988,3,.988l-.2,1.365s-2.334,5.663-.633,6.673c3.411,2.026,7.869-5.259,7.869-5.259l1.514-3.983s5.975-13.561,4.256-13.828-14.507-.933-14.507-.933" transform="translate(23.138 9.89)" fill="#ef8ba7"/>
                <path id="Trazado_217641" data-name="Trazado 217641" d="M128.758,67.4l-.2,1.366a7.543,7.543,0,0,0,4.238-2.633,13.183,13.183,0,0,1-4.039,1.267" transform="translate(23.666 12.175)" fill="#9d4b53"/>
                <path id="Trazado_217642" data-name="Trazado 217642" d="M127.456,63a.291.291,0,0,1-.071-.008c-.135-.032-.816-.217-.966-.7-.12-.385.368-1.378.8-2.144a.306.306,0,0,1,.534.3,6.667,6.667,0,0,0-.742,1.685,1.077,1.077,0,0,0,.519.26.306.306,0,0,1-.071.6" transform="translate(23.268 11.044)" fill="#9d4b53"/>
                <g id="Grupo_871689" data-name="Grupo 871689" transform="translate(149.904 75.623)" style="mix-blend-mode: screen;isolation: isolate">
                  <g id="Grupo_871688" data-name="Grupo 871688">
                    <g id="Grupo_871687" data-name="Grupo 871687" clip-path="url(#clip-path-10)">
                      <path id="Trazado_217643" data-name="Trazado 217643" d="M126.6,63.867a7.327,7.327,0,0,0,3.418.53s-2.644,2.06-3.418-.53" transform="translate(-126.599 -63.867)" fill="#cfd0d0"/>
                    </g>
                  </g>
                </g>
                <path id="Trazado_217644" data-name="Trazado 217644" d="M140.992,75.519a6.31,6.31,0,0,1-5.206-3.262,4.858,4.858,0,0,1-.934-2.806,7.438,7.438,0,0,1,1.233-3.32c.654-1.044,2.376-2.434,1.756-3.84-.655-1.472-2.353-.308-2.353-.308-.5-.7.037-1.889.038-1.89-.116.257-2.753-.284-3.057-.35a10.763,10.763,0,0,1-3.04-1.113c-1.5-.851-3.331-2.289-3.609-4.1a2.813,2.813,0,0,1,1.79-3.119c1.343-.38,2.753.519,4.135.33,1.279-.175,2.453-.911,3.744-1.138a6.261,6.261,0,0,1,4.478.7,6.017,6.017,0,0,1,2.792,4.311,13.9,13.9,0,0,1-.9,5.457c-.506,1.788-.881,3.749-.165,5.463.754,1.8,2.281,3.09,2.744,5.067a3.311,3.311,0,0,1-.4,2.682,3.567,3.567,0,0,1-3.036,1.236" transform="translate(23.155 9.291)" fill="#0f1012"/>
                <path id="Trazado_217645" data-name="Trazado 217645" d="M133.906,62.528a.309.309,0,0,1-.111-.021.305.305,0,0,1-.174-.4c.028-.073.721-1.808,2.088-1.546a.306.306,0,0,1-.115.6c-.868-.167-1.4,1.153-1.4,1.168a.307.307,0,0,1-.285.194" transform="translate(24.593 11.144)" fill="#9d4b53"/>
                <path id="Trazado_217646" data-name="Trazado 217646" d="M134.585,63a.311.311,0,0,1-.154-.04.307.307,0,0,1-.112-.418.886.886,0,0,0-.127-1.092.307.307,0,0,1,.429-.439,1.51,1.51,0,0,1,.23,1.835.308.308,0,0,1-.265.154" transform="translate(24.686 11.215)" fill="#9d4b53"/>
                <path id="Trazado_217647" data-name="Trazado 217647" d="M135.343,97.447a.672.672,0,0,1-.667-.591c-.064-.52-1.562-12.794-.779-17.779a.673.673,0,1,1,1.33.208c-.753,4.8.77,17.281.785,17.406a.674.674,0,0,1-.586.751.649.649,0,0,1-.083,0" transform="translate(24.607 14.452)" fill="#ffb252"/>
                <g id="Grupo_871692" data-name="Grupo 871692" transform="translate(107.111 111.226)" opacity="0.36" style="mix-blend-mode: multiply;isolation: isolate">
                  <g id="Grupo_871691" data-name="Grupo 871691">
                    <g id="Grupo_871690" data-name="Grupo 871690" clip-path="url(#clip-path-11)">
                      <path id="Trazado_217648" data-name="Trazado 217648" d="M152.1,93.942A22.777,22.777,0,0,1,150.7,99.6a4.716,4.716,0,0,1-1.878,1.87l-.95,11.3c-.015.282-.037.468-.037.468-.1,2.768-.98,8.467-4.008,8.949-1.922.311-26.773.289-26.773.289l.364,7.036c-.943-3.139-2.271-7.888-1.885-8.653.579-1.157,17.8-1.056,19.4-2.115,1.839-1.211,4.61-4.228-1.1-8.755-2.072-1.644-9.417-2.9-14.218-3.437h-.007c-.557-.059-13.541,5.1-16.371,8.779-1.831,2.384-1.543,6.071-.571,12.007-.5,2.286-.824,4.082-1.158,5.9-.007.03-.007.059-.014.089-.327,1.758-.654,3.532-1.136,5.8a.573.573,0,0,0-.03.126c.593-22.025-8.438-24.54-9.878-24.54,3.591-6.539,22.968-11.02,30.633-11.622l.541-3.183c3.488.111,19.472.793,22.136.793,6.012,0,8.319-6.767,8.319-6.767Z" transform="translate(-90.459 -93.934)" fill="#d6dcf0"/>
                    </g>
                  </g>
                </g>
                <path id="Trazado_217649" data-name="Trazado 217649" d="M123.839,70.339c-2.875,1.379-10.087,6.192-12.557,7.718,1.307.719.655,6.2,1.667,7.907,0,0,9.08-2.4,10.89-5.216s4.787-12.708,0-10.409" transform="translate(20.485 12.885)" fill="#ffc35d"/>
                <path id="Trazado_217650" data-name="Trazado 217650" d="M117.029,99.163a8.28,8.28,0,0,0,5.334,1.249c5.546-.8,15.172,1.049,21.6.671,4.9-.289,3.222-9.5-3.233-8.3-2.363.438-21.214,2.3-21.9,2.381a58.989,58.989,0,0,1-6.136.416c-2.3,0-6.034,3.751-6.034,3.751l1.651-.036,2.984-1.944-1.524,1.923Z" transform="translate(19.634 17.059)" fill="#ef8ba7"/>
                <path id="Trazado_217651" data-name="Trazado 217651" d="M113.387,98.793a.326.326,0,0,1-.12-.024.307.307,0,0,1-.162-.4,5.687,5.687,0,0,1,.7-1.273,7.41,7.41,0,0,1,1.908-.779.306.306,0,1,1,.178.585,8.953,8.953,0,0,0-1.655.629,5.548,5.548,0,0,0-.565,1.076.305.305,0,0,1-.282.187" transform="translate(20.816 17.728)" fill="#9d4b53"/>
                <path id="Trazado_217652" data-name="Trazado 217652" d="M111.33,98.838a.3.3,0,0,1-.186-.063.307.307,0,0,1-.057-.43c.094-.122.925-1.208,1.166-1.449a8.5,8.5,0,0,1,2.168-.826.306.306,0,1,1,.168.588,10.943,10.943,0,0,0-1.909.676c-.155.156-.748.914-1.107,1.383a.305.305,0,0,1-.244.121" transform="translate(20.438 17.683)" fill="#9d4b53"/>
                <path id="Trazado_217653" data-name="Trazado 217653" d="M109.336,98.953a.3.3,0,0,1-.189-.066.305.305,0,0,1-.05-.43c.107-.135,1.048-1.321,1.288-1.561a8.486,8.486,0,0,1,2.167-.828.306.306,0,1,1,.168.588,10.992,10.992,0,0,0-1.908.677c-.176.176-.953,1.145-1.236,1.5a.308.308,0,0,1-.24.116" transform="translate(20.071 17.682)" fill="#9d4b53"/>
                <path id="Trazado_217654" data-name="Trazado 217654" d="M108.016,99.048a.306.306,0,0,1-.175-.557c.68-.477,2.021-1.421,2.225-1.584a14.538,14.538,0,0,1,2.741-.841.306.306,0,0,1,.144.6,19.425,19.425,0,0,0-2.509.727c-.264.213-2.17,1.546-2.251,1.6a.3.3,0,0,1-.175.056" transform="translate(19.827 17.683)" fill="#9d4b53"/>
                <path id="Trazado_217655" data-name="Trazado 217655" d="M118.138,98.88a6.4,6.4,0,0,1-2.738-.658c-.12-.052-.261-.116-.347-.144a2.041,2.041,0,0,0-.243.341.306.306,0,0,1-.542-.283,2.549,2.549,0,0,1,.423-.566c.23-.231.535-.095.958.094a5.675,5.675,0,0,0,2.958.585.306.306,0,1,1,.052.61c-.18.015-.353.022-.521.022" transform="translate(21.028 17.938)" fill="#9d4b53"/>
                <path id="Trazado_217656" data-name="Trazado 217656" d="M123.022,98.147H96.792a.964.964,0,1,0,0,1.928h26.23a.964.964,0,0,0,0-1.928" transform="translate(17.64 18.067)" fill="#96b1dc"/>
                <path id="Trazado_217657" data-name="Trazado 217657" d="M113.435,98.147H87.205a.964.964,0,1,0,0,1.928h26.23a.964.964,0,0,0,0-1.928" transform="translate(15.875 18.067)" fill="#81a5d7"/>
                <path id="Trazado_217658" data-name="Trazado 217658" d="M137.9,126.528a2.288,2.288,0,0,1-2.192-2.932l4.957-16.788a.915.915,0,0,0-.879-1.176h-8.039a2.284,2.284,0,0,1,0-4.568h8.039a5.483,5.483,0,0,1,5.26,7.037L140.09,124.89a2.285,2.285,0,0,1-2.189,1.638" transform="translate(23.832 18.604)" fill="#326cb4"/>
                <path id="Trazado_217659" data-name="Trazado 217659" d="M139.472,121.028a2.5,2.5,0,1,1-2.5-2.5,2.5,2.5,0,0,1,2.5,2.5" transform="translate(24.756 21.82)" fill="#5279bb"/>
                <path id="Trazado_217660" data-name="Trazado 217660" d="M136.732,106.442H120.377a2.937,2.937,0,0,1,0-5.873h16.356a2.937,2.937,0,0,1,0,5.873" transform="translate(21.619 18.513)" fill="#6291cc"/>
                <rect id="Rectángulo_292092" data-name="Rectángulo 292092" width="3.062" height="67.612" transform="translate(159.046 120.583)" fill="#c15e1a"/>
                <rect id="Rectángulo_292093" data-name="Rectángulo 292093" width="84.799" height="4.778" transform="translate(79.702 118.194)" fill="#c15e1a"/>
                <rect id="Rectángulo_292094" data-name="Rectángulo 292094" width="95.419" height="4.778" transform="translate(36.999 118.194)" fill="#e8953a"/>
                <path id="Trazado_217661" data-name="Trazado 217661" d="M47.736,9.669A9.674,9.674,0,0,1,33.905,18.4a13.167,13.167,0,0,1-4.719,2.2,8.536,8.536,0,0,0,2.4-3.749,9.672,9.672,0,1,1,16.145-7.19" transform="translate(5.226)" fill="#81a5d7"/>
                <path id="Trazado_217662" data-name="Trazado 217662" d="M38.958,8.359a1.234,1.234,0,1,0,1.235-1.235,1.235,1.235,0,0,0-1.235,1.235" transform="translate(7.172 1.311)" fill="#fff"/>
                <path id="Trazado_217663" data-name="Trazado 217663" d="M35.518,8.359a1.234,1.234,0,1,0,1.235-1.235,1.235,1.235,0,0,0-1.235,1.235" transform="translate(6.538 1.311)" fill="#fff"/>
                <path id="Trazado_217664" data-name="Trazado 217664" d="M32.078,8.359a1.234,1.234,0,1,0,1.235-1.235,1.235,1.235,0,0,0-1.235,1.235" transform="translate(5.905 1.311)" fill="#fff"/>
                <path id="Trazado_217665" data-name="Trazado 217665" d="M107.329,42.046A9.674,9.674,0,0,0,121.16,50.78a13.167,13.167,0,0,0,4.719,2.2,8.536,8.536,0,0,1-2.4-3.749,9.672,9.672,0,1,0-16.145-7.19" transform="translate(19.757 5.96)" fill="#81a5d7"/>
                <path id="Trazado_217666" data-name="Trazado 217666" d="M113.484,40.737a1.234,1.234,0,1,1-1.235-1.235,1.235,1.235,0,0,1,1.235,1.235" transform="translate(20.436 7.272)" fill="#fff"/>
                <path id="Trazado_217667" data-name="Trazado 217667" d="M116.924,40.737a1.234,1.234,0,1,1-1.235-1.235,1.235,1.235,0,0,1,1.235,1.235" transform="translate(21.069 7.272)" fill="#fff"/>
                <path id="Trazado_217668" data-name="Trazado 217668" d="M120.364,40.737a1.234,1.234,0,1,1-1.235-1.235,1.235,1.235,0,0,1,1.235,1.235" transform="translate(21.702 7.272)" fill="#fff"/>
                <rect id="Rectángulo_292095" data-name="Rectángulo 292095" width="53.355" height="18.918" transform="translate(106.61 12.605)" fill="#cfddcf"/>
                <rect id="Rectángulo_292096" data-name="Rectángulo 292096" width="22.305" height="3.544" transform="translate(110.227 15.999)" fill="#fff"/>
                <rect id="Rectángulo_292097" data-name="Rectángulo 292097" width="43.14" height="3.544" transform="translate(110.227 23.483)" fill="#fff"/>
                <g id="Grupo_871695" data-name="Grupo 871695" transform="translate(106.61 12.605)" opacity="0.36" style="mix-blend-mode: multiply;isolation: isolate">
                  <g id="Grupo_871694" data-name="Grupo 871694">
                    <g id="Grupo_871693" data-name="Grupo 871693" clip-path="url(#clip-path-12)">
                      <path id="Trazado_217669" data-name="Trazado 217669" d="M101.351,10.645h-1.4a5.7,5.7,0,0,1-9.142,6.546,5.888,5.888,0,0,1-.77-.953v2a6.983,6.983,0,0,0,11.315-7.59" transform="translate(-90.036 -10.645)" fill="#d1dcea"/>
                    </g>
                  </g>
                </g>
                <rect id="Rectángulo_292099" data-name="Rectángulo 292099" width="3.821" height="1.137" transform="matrix(0.707, -0.707, 0.707, 0.707, 104.335, 21.392)" fill="#cfd0d0"/>
                <path id="Trazado_217670" data-name="Trazado 217670" d="M84.019,23.964a.947.947,0,0,1,0-1.34L89.342,17.3a.948.948,0,0,1,1.34,1.34L85.36,23.964a.947.947,0,0,1-1.34,0" transform="translate(15.415 3.134)" fill="#81a5d7"/>
                <g id="Grupo_871698" data-name="Grupo 871698" transform="translate(106.472 18.69)" opacity="0.36" style="mix-blend-mode: multiply;isolation: isolate">
                  <g id="Grupo_871697" data-name="Grupo 871697">
                    <g id="Grupo_871696" data-name="Grupo 871696" clip-path="url(#clip-path-13)">
                      <path id="Trazado_217671" data-name="Trazado 217671" d="M90.485,15.784l-.566.566c.118.144.247.284.384.42a5.517,5.517,0,0,0,.42.384l.566-.566Z" transform="translate(-89.919 -15.784)" fill="#cfd0d0"/>
                    </g>
                  </g>
                </g>
                <path id="Trazado_217672" data-name="Trazado 217672" d="M90.678,18.1a6.184,6.184,0,1,1,8.746,0,6.192,6.192,0,0,1-8.746,0m7.942-7.942a5.047,5.047,0,1,0,0,7.136,5.053,5.053,0,0,0,0-7.136" transform="translate(16.359 1.39)" fill="#81a5d7"/>
                <g id="Grupo_871701" data-name="Grupo 871701" transform="translate(106.366 10.078)" opacity="0.36" style="mix-blend-mode: screen;isolation: isolate">
                  <g id="Grupo_871700" data-name="Grupo 871700">
                    <g id="Grupo_871699" data-name="Grupo 871699" clip-path="url(#clip-path-14)">
                      <path id="Trazado_217673" data-name="Trazado 217673" d="M98.443,9.986a5.047,5.047,0,1,0,0,7.136,5.053,5.053,0,0,0,0-7.136" transform="translate(-89.83 -8.511)" fill="#d1dcea"/>
                    </g>
                  </g>
                </g>
                <path id="Trazado_217674" data-name="Trazado 217674" d="M96.095,9.933a.372.372,0,0,1-.161-.037,3.915,3.915,0,0,0-2.811-.1.38.38,0,0,1-.279-.706,4.635,4.635,0,0,1,3.416.121.379.379,0,0,1-.165.721" transform="translate(17.047 1.622)" fill="#fff"/>
              </g>
            </g>
          </g>
        </g>
      </g>
    </g>
  </g>
</svg>
