<svg xmlns="http://www.w3.org/2000/svg" xmlns:xlink="http://www.w3.org/1999/xlink" width="1030" height="449" viewBox="0 0 1030 449">
  <defs>
    <linearGradient id="linear-gradient" y1="1.073" x2="0.99" y2="-0.05" gradientUnits="objectBoundingBox">
      <stop offset="0" stop-color="#eaeff3"/>
      <stop offset="1" stop-color="#f9fffa"/>
    </linearGradient>
    <clipPath id="clip-path">
      <rect id="Rectángulo_292110" data-name="Rectángulo 292110" width="610" height="328.16" fill="#03386e"/>
    </clipPath>
  </defs>
  <g id="Grupo_872031" data-name="Grupo 872031" transform="translate(-285 -24876)">
    <path id="Trazado_217873" data-name="Trazado 217873" d="M0,0H1030V449H0Z" transform="translate(285 24876)" fill="url(#linear-gradient)"/>
    <path id="Trazado_217874" data-name="Trazado 217874" d="M8.351,12.762H3.569V16H9.181v2h-8.1V5.914H9.164V7.931H3.569v2.88H8.351Zm1.76.664a5.369,5.369,0,0,1,.942-3.345,3.08,3.08,0,0,1,2.586-1.229,2.758,2.758,0,0,1,2.3,1.1l.158-.938H18.2V21.453H15.8V17.228a2.765,2.765,0,0,1-2.175.938,3.057,3.057,0,0,1-2.557-1.245A5.632,5.632,0,0,1,10.11,13.426Zm2.4.17a3.522,3.522,0,0,0,.452,1.962,1.448,1.448,0,0,0,1.274.673,1.613,1.613,0,0,0,1.561-.881V11.635a1.6,1.6,0,0,0-1.544-.848,1.466,1.466,0,0,0-1.287.673A3.889,3.889,0,0,0,12.509,13.6Zm12.958,3.49a3.008,3.008,0,0,1-2.457,1.079,2.837,2.837,0,0,1-2.2-.83A3.543,3.543,0,0,1,20.03,14.9V9.019h2.4v5.809q0,1.4,1.278,1.4a1.732,1.732,0,0,0,1.677-.848V9.019h2.407V18H25.533ZM32.132,18H29.725V9.019h2.407ZM29.584,6.694a1.181,1.181,0,0,1,.361-.888,1.556,1.556,0,0,1,1.963,0,1.175,1.175,0,0,1,.365.888,1.178,1.178,0,0,1-.369.9,1.539,1.539,0,0,1-1.951,0A1.178,1.178,0,0,1,29.584,6.694Zm12.609,6.9a5.387,5.387,0,0,1-.942,3.324,3.021,3.021,0,0,1-2.544,1.249,2.8,2.8,0,0,1-2.2-.946v4.233h-2.4V9.019h2.225l.083.88A2.819,2.819,0,0,1,38.69,8.853a3.041,3.041,0,0,1,2.582,1.229,5.532,5.532,0,0,1,.921,3.387Zm-2.4-.174a3.535,3.535,0,0,0-.444-1.934,1.446,1.446,0,0,0-1.291-.681,1.571,1.571,0,0,0-1.552.863v3.677a1.6,1.6,0,0,0,1.569.888Q39.794,16.232,39.794,13.418ZM48.883,18a2.664,2.664,0,0,1-.241-.805,2.9,2.9,0,0,1-2.266.971,3.189,3.189,0,0,1-2.187-.764,2.456,2.456,0,0,1-.867-1.926,2.538,2.538,0,0,1,1.058-2.191,5.222,5.222,0,0,1,3.059-.772h1.1V12a1.48,1.48,0,0,0-.32-1,1.257,1.257,0,0,0-1.009-.374,1.429,1.429,0,0,0-.95.291.987.987,0,0,0-.344.8h-2.4A2.41,2.41,0,0,1,44,10.272,3.182,3.182,0,0,1,45.364,9.23a4.961,4.961,0,0,1,1.976-.378,3.92,3.92,0,0,1,2.635.834,2.918,2.918,0,0,1,.975,2.345v3.893a4.294,4.294,0,0,0,.357,1.934V18ZM46.9,16.332a2.066,2.066,0,0,0,.979-.237,1.554,1.554,0,0,0,.664-.635V13.916h-.9q-1.8,0-1.917,1.245l-.008.141a.96.96,0,0,0,.315.739A1.225,1.225,0,0,0,46.9,16.332Zm8.143-7.313.075,1A3.156,3.156,0,0,1,57.7,8.853a2.4,2.4,0,0,1,2.382,1.37,3.084,3.084,0,0,1,2.7-1.37,2.679,2.679,0,0,1,2.175.851,3.911,3.911,0,0,1,.714,2.561V18H63.26V12.272a1.71,1.71,0,0,0-.3-1.116,1.324,1.324,0,0,0-1.054-.353,1.5,1.5,0,0,0-1.494,1.029L60.421,18h-2.4V12.281a1.689,1.689,0,0,0-.307-1.129,1.337,1.337,0,0,0-1.046-.349,1.555,1.555,0,0,0-1.478.847V18h-2.4V9.019Zm15,8.981H67.635V9.019h2.407ZM67.494,6.694a1.181,1.181,0,0,1,.361-.888,1.556,1.556,0,0,1,1.963,0,1.175,1.175,0,0,1,.365.888,1.178,1.178,0,0,1-.369.9,1.539,1.539,0,0,1-1.951,0A1.178,1.178,0,0,1,67.494,6.694Zm8.658,11.472a4.409,4.409,0,0,1-3.217-1.212,4.308,4.308,0,0,1-1.241-3.229v-.232a5.426,5.426,0,0,1,.523-2.42A3.838,3.838,0,0,1,73.7,9.429a4.159,4.159,0,0,1,2.187-.577,3.727,3.727,0,0,1,2.9,1.162,4.722,4.722,0,0,1,1.058,3.3v.979H74.126a2.229,2.229,0,0,0,.7,1.411,2.12,2.12,0,0,0,1.482.531,2.589,2.589,0,0,0,2.167-1l1.179,1.32a3.6,3.6,0,0,1-1.461,1.191A4.793,4.793,0,0,1,76.151,18.166Zm-.274-7.379a1.5,1.5,0,0,0-1.158.484,2.5,2.5,0,0,0-.569,1.384h3.337v-.192a1.786,1.786,0,0,0-.432-1.238A1.547,1.547,0,0,0,75.877,10.787Zm7.537-1.768.075,1.038a3.136,3.136,0,0,1,2.582-1.2,2.606,2.606,0,0,1,2.125.838A3.912,3.912,0,0,1,88.91,12.2V18h-2.4V12.256a1.556,1.556,0,0,0-.332-1.108,1.486,1.486,0,0,0-1.1-.344,1.65,1.65,0,0,0-1.519.863V18h-2.4V9.019ZM93.6,6.811V9.019h1.536v1.76H93.6v4.482a1.07,1.07,0,0,0,.191.714.959.959,0,0,0,.73.216,3.826,3.826,0,0,0,.706-.058V17.95a4.938,4.938,0,0,1-1.453.216A2.29,2.29,0,0,1,91.2,15.618V10.778H89.889V9.019H91.2V6.811Zm2.25,6.616a5.326,5.326,0,0,1,.515-2.382,3.768,3.768,0,0,1,1.482-1.619,4.323,4.323,0,0,1,2.245-.573,4.09,4.09,0,0,1,2.968,1.112,4.464,4.464,0,0,1,1.282,3.021l.017.614a4.694,4.694,0,0,1-1.154,3.316,4.472,4.472,0,0,1-6.2,0,4.777,4.777,0,0,1-1.158-3.387Zm2.4.17a3.357,3.357,0,0,0,.481,1.958,1.73,1.73,0,0,0,2.739.008,3.674,3.674,0,0,0,.49-2.141,3.324,3.324,0,0,0-.49-1.945,1.592,1.592,0,0,0-1.378-.69,1.566,1.566,0,0,0-1.361.686A3.736,3.736,0,0,0,98.248,13.6Z" transform="translate(497 24948)" fill="#12263f"/>
    <path id="Trazado_217875" data-name="Trazado 217875" d="M4.333,5.914l3.1,8.766,3.088-8.766H13.8V18H11.3V14.7l.249-5.7L8.284,18H6.574L3.32,9,3.569,14.7V18H1.079V5.914ZM21.018,18a2.664,2.664,0,0,1-.241-.805,2.9,2.9,0,0,1-2.266.971,3.189,3.189,0,0,1-2.187-.764,2.456,2.456,0,0,1-.867-1.926,2.538,2.538,0,0,1,1.058-2.191,5.222,5.222,0,0,1,3.059-.772h1.1V12a1.48,1.48,0,0,0-.32-1,1.257,1.257,0,0,0-1.009-.374,1.429,1.429,0,0,0-.95.291.987.987,0,0,0-.344.8h-2.4a2.41,2.41,0,0,1,.481-1.444A3.182,3.182,0,0,1,17.5,9.23a4.961,4.961,0,0,1,1.976-.378,3.92,3.92,0,0,1,2.635.834,2.918,2.918,0,0,1,.975,2.345v3.893a4.294,4.294,0,0,0,.357,1.934V18Zm-1.984-1.668a2.066,2.066,0,0,0,.979-.237,1.554,1.554,0,0,0,.664-.635V13.916h-.9q-1.8,0-1.917,1.245l-.008.141a.96.96,0,0,0,.315.739A1.225,1.225,0,0,0,19.034,16.332Zm5.52-2.905a5.369,5.369,0,0,1,.942-3.345,3.08,3.08,0,0,1,2.586-1.229,2.758,2.758,0,0,1,2.3,1.1l.158-.938h2.108V21.453H30.24V17.228a2.765,2.765,0,0,1-2.175.938,3.057,3.057,0,0,1-2.557-1.245A5.632,5.632,0,0,1,24.554,13.426Zm2.4.17a3.522,3.522,0,0,0,.452,1.962,1.448,1.448,0,0,0,1.274.673,1.613,1.613,0,0,0,1.561-.881V11.635a1.6,1.6,0,0,0-1.544-.848,1.466,1.466,0,0,0-1.287.673A3.889,3.889,0,0,0,26.953,13.6Zm12.958,3.49a3.008,3.008,0,0,1-2.457,1.079,2.837,2.837,0,0,1-2.2-.83,3.543,3.543,0,0,1-.776-2.432V9.019h2.4v5.809q0,1.4,1.278,1.4a1.732,1.732,0,0,0,1.677-.848V9.019h2.407V18H39.977ZM46.576,18H44.168V9.019h2.407ZM44.027,6.694a1.181,1.181,0,0,1,.361-.888,1.556,1.556,0,0,1,1.963,0,1.175,1.175,0,0,1,.365.888,1.178,1.178,0,0,1-.369.9,1.539,1.539,0,0,1-1.951,0A1.178,1.178,0,0,1,44.027,6.694Zm6.732,2.324.075,1.038a3.136,3.136,0,0,1,2.582-1.2,2.606,2.606,0,0,1,2.125.838,3.912,3.912,0,0,1,.714,2.507V18h-2.4V12.256a1.556,1.556,0,0,0-.332-1.108,1.486,1.486,0,0,0-1.1-.344,1.65,1.65,0,0,0-1.519.863V18H48.5V9.019ZM63.277,18a2.664,2.664,0,0,1-.241-.805,2.9,2.9,0,0,1-2.266.971,3.189,3.189,0,0,1-2.187-.764,2.456,2.456,0,0,1-.867-1.926,2.538,2.538,0,0,1,1.058-2.191,5.222,5.222,0,0,1,3.059-.772h1.1V12a1.48,1.48,0,0,0-.32-1,1.257,1.257,0,0,0-1.009-.374,1.429,1.429,0,0,0-.95.291.987.987,0,0,0-.344.8h-2.4a2.41,2.41,0,0,1,.481-1.444A3.182,3.182,0,0,1,59.757,9.23a4.961,4.961,0,0,1,1.976-.378,3.92,3.92,0,0,1,2.635.834,2.918,2.918,0,0,1,.975,2.345v3.893a4.294,4.294,0,0,0,.357,1.934V18Zm-1.984-1.668a2.066,2.066,0,0,0,.979-.237,1.554,1.554,0,0,0,.664-.635V13.916h-.9q-1.8,0-1.917,1.245l-.008.141a.96.96,0,0,0,.315.739A1.225,1.225,0,0,0,61.293,16.332Zm10.94-5.063a6.517,6.517,0,0,0-.863-.066,1.757,1.757,0,0,0-1.785.921V18h-2.4V9.019h2.266l.066,1.071a2.223,2.223,0,0,1,2-1.237,2.514,2.514,0,0,1,.747.108ZM75.919,18H73.512V9.019h2.407ZM73.371,6.694a1.181,1.181,0,0,1,.361-.888,1.556,1.556,0,0,1,1.963,0,1.175,1.175,0,0,1,.365.888,1.178,1.178,0,0,1-.369.9,1.539,1.539,0,0,1-1.951,0A1.178,1.178,0,0,1,73.371,6.694ZM83.1,18a2.664,2.664,0,0,1-.241-.805,2.9,2.9,0,0,1-2.266.971,3.189,3.189,0,0,1-2.187-.764,2.456,2.456,0,0,1-.867-1.926A2.538,2.538,0,0,1,78.6,13.285a5.222,5.222,0,0,1,3.059-.772h1.1V12a1.48,1.48,0,0,0-.32-1,1.257,1.257,0,0,0-1.009-.374,1.429,1.429,0,0,0-.95.291.987.987,0,0,0-.344.8h-2.4a2.41,2.41,0,0,1,.481-1.444A3.182,3.182,0,0,1,79.58,9.23a4.961,4.961,0,0,1,1.976-.378,3.92,3.92,0,0,1,2.635.834,2.918,2.918,0,0,1,.975,2.345v3.893a4.294,4.294,0,0,0,.357,1.934V18Zm-1.984-1.668a2.066,2.066,0,0,0,.979-.237,1.554,1.554,0,0,0,.664-.635V13.916h-.9q-1.8,0-1.917,1.245l-.008.141a.96.96,0,0,0,.315.739A1.225,1.225,0,0,0,81.115,16.332Z" transform="translate(516 25223)" fill="#12263f"/>
    <path id="Trazado_217876" data-name="Trazado 217876" d="M4.333,5.914l3.1,8.766,3.088-8.766H13.8V18H11.3V14.7l.249-5.7L8.284,18H6.574L3.32,9,3.569,14.7V18H1.079V5.914ZM19.947,18.166a4.409,4.409,0,0,1-3.217-1.212,4.308,4.308,0,0,1-1.241-3.229v-.232a5.426,5.426,0,0,1,.523-2.42,3.838,3.838,0,0,1,1.482-1.644,4.159,4.159,0,0,1,2.187-.577,3.727,3.727,0,0,1,2.9,1.162,4.722,4.722,0,0,1,1.058,3.3v.979H17.921a2.229,2.229,0,0,0,.7,1.411,2.12,2.12,0,0,0,1.482.531,2.589,2.589,0,0,0,2.167-1l1.179,1.32a3.6,3.6,0,0,1-1.461,1.191A4.793,4.793,0,0,1,19.947,18.166Zm-.274-7.379a1.5,1.5,0,0,0-1.158.484,2.5,2.5,0,0,0-.569,1.384h3.337v-.192a1.786,1.786,0,0,0-.432-1.238A1.547,1.547,0,0,0,19.673,10.787Zm4.956,2.656a5.413,5.413,0,0,1,.942-3.345,3.057,3.057,0,0,1,2.577-1.245,2.751,2.751,0,0,1,2.167.979V5.25h2.407V18H30.555l-.116-.955a2.823,2.823,0,0,1-2.308,1.121,3.049,3.049,0,0,1-2.544-1.249A5.587,5.587,0,0,1,24.628,13.443Zm2.4.179a3.546,3.546,0,0,0,.44,1.937,1.433,1.433,0,0,0,1.278.673,1.605,1.605,0,0,0,1.569-.939v-3.55a1.582,1.582,0,0,0-1.552-.939Q27.027,10.8,27.027,13.621ZM37.113,18H34.706V9.019h2.407ZM34.564,6.694a1.181,1.181,0,0,1,.361-.888,1.556,1.556,0,0,1,1.963,0,1.175,1.175,0,0,1,.365.888,1.178,1.178,0,0,1-.369.9,1.539,1.539,0,0,1-1.951,0A1.178,1.178,0,0,1,34.564,6.694Zm4.15,6.732a5.327,5.327,0,0,1,.515-2.382,3.767,3.767,0,0,1,1.482-1.619,4.323,4.323,0,0,1,2.245-.573,4.09,4.09,0,0,1,2.968,1.112,4.464,4.464,0,0,1,1.282,3.021l.017.614a4.694,4.694,0,0,1-1.154,3.316,4.472,4.472,0,0,1-6.2,0,4.777,4.777,0,0,1-1.158-3.387Zm2.4.17a3.357,3.357,0,0,0,.481,1.958,1.73,1.73,0,0,0,2.739.008,3.674,3.674,0,0,0,.49-2.141,3.324,3.324,0,0,0-.49-1.945,1.592,1.592,0,0,0-1.378-.69,1.566,1.566,0,0,0-1.361.686A3.735,3.735,0,0,0,41.114,13.6ZM53.905,18a2.664,2.664,0,0,1-.241-.805,2.9,2.9,0,0,1-2.266.971,3.189,3.189,0,0,1-2.187-.764,2.456,2.456,0,0,1-.867-1.926A2.538,2.538,0,0,1,49.4,13.285a5.222,5.222,0,0,1,3.059-.772h1.1V12a1.48,1.48,0,0,0-.32-1,1.257,1.257,0,0,0-1.009-.374,1.429,1.429,0,0,0-.95.291.987.987,0,0,0-.344.8h-2.4a2.41,2.41,0,0,1,.481-1.444A3.182,3.182,0,0,1,50.386,9.23a4.961,4.961,0,0,1,1.976-.378A3.92,3.92,0,0,1,55,9.687a2.918,2.918,0,0,1,.975,2.345v3.893a4.294,4.294,0,0,0,.357,1.934V18Zm-1.984-1.668a2.066,2.066,0,0,0,.979-.237,1.554,1.554,0,0,0,.664-.635V13.916h-.9q-1.8,0-1.917,1.245l-.008.141a.96.96,0,0,0,.315.739A1.225,1.225,0,0,0,51.921,16.332Zm8.143-7.313.075,1a3.156,3.156,0,0,1,2.582-1.17,2.4,2.4,0,0,1,2.382,1.37,3.084,3.084,0,0,1,2.7-1.37,2.679,2.679,0,0,1,2.175.851,3.911,3.911,0,0,1,.714,2.561V18H68.282V12.272a1.71,1.71,0,0,0-.3-1.116,1.324,1.324,0,0,0-1.054-.353,1.5,1.5,0,0,0-1.494,1.029L65.443,18h-2.4V12.281a1.689,1.689,0,0,0-.307-1.129,1.337,1.337,0,0,0-1.046-.349,1.555,1.555,0,0,0-1.478.847V18h-2.4V9.019Zm20.561,4.574a5.439,5.439,0,0,1-.921,3.366,3.052,3.052,0,0,1-2.573,1.208A2.8,2.8,0,0,1,74.8,17.045L74.69,18H72.532V5.25h2.4V9.824a2.732,2.732,0,0,1,2.183-.971,3.077,3.077,0,0,1,2.577,1.208,5.446,5.446,0,0,1,.934,3.4Zm-2.4-.174a3.573,3.573,0,0,0-.432-1.988,1.46,1.46,0,0,0-1.287-.627,1.582,1.582,0,0,0-1.577.938v3.544a1.6,1.6,0,0,0,1.594.946,1.481,1.481,0,0,0,1.527-1.146A5.909,5.909,0,0,0,78.227,13.418ZM84.635,18H82.228V9.019h2.407ZM82.086,6.694a1.181,1.181,0,0,1,.361-.888,1.556,1.556,0,0,1,1.963,0,1.175,1.175,0,0,1,.365.888,1.178,1.178,0,0,1-.369.9,1.539,1.539,0,0,1-1.951,0A1.178,1.178,0,0,1,82.086,6.694Zm8.658,11.472a4.409,4.409,0,0,1-3.217-1.212,4.308,4.308,0,0,1-1.241-3.229v-.232a5.426,5.426,0,0,1,.523-2.42,3.838,3.838,0,0,1,1.482-1.644,4.159,4.159,0,0,1,2.187-.577,3.727,3.727,0,0,1,2.9,1.162,4.722,4.722,0,0,1,1.058,3.3v.979H88.719a2.229,2.229,0,0,0,.7,1.411,2.12,2.12,0,0,0,1.482.531,2.589,2.589,0,0,0,2.167-1l1.179,1.32a3.6,3.6,0,0,1-1.461,1.191A4.793,4.793,0,0,1,90.744,18.166Zm-.274-7.379a1.5,1.5,0,0,0-1.158.484,2.5,2.5,0,0,0-.569,1.384h3.337v-.192a1.786,1.786,0,0,0-.432-1.238A1.547,1.547,0,0,0,90.47,10.787Zm7.537-1.768.075,1.038a3.136,3.136,0,0,1,2.582-1.2,2.606,2.606,0,0,1,2.125.838A3.912,3.912,0,0,1,103.5,12.2V18h-2.4V12.256a1.556,1.556,0,0,0-.332-1.108,1.486,1.486,0,0,0-1.1-.344,1.65,1.65,0,0,0-1.519.863V18h-2.4V9.019Zm10.185-2.208V9.019h1.536v1.76h-1.536v4.482a1.07,1.07,0,0,0,.191.714.959.959,0,0,0,.73.216,3.826,3.826,0,0,0,.706-.058V17.95a4.938,4.938,0,0,1-1.453.216,2.29,2.29,0,0,1-2.573-2.548V10.778h-1.312V9.019h1.312V6.811ZM115.2,18.166a4.409,4.409,0,0,1-3.217-1.212,4.308,4.308,0,0,1-1.241-3.229v-.232a5.426,5.426,0,0,1,.523-2.42,3.838,3.838,0,0,1,1.482-1.644,4.159,4.159,0,0,1,2.187-.577,3.727,3.727,0,0,1,2.9,1.162,4.722,4.722,0,0,1,1.058,3.3v.979h-5.719a2.229,2.229,0,0,0,.7,1.411,2.12,2.12,0,0,0,1.482.531,2.589,2.589,0,0,0,2.167-1l1.179,1.32a3.6,3.6,0,0,1-1.461,1.191A4.793,4.793,0,0,1,115.2,18.166Zm-.274-7.379a1.5,1.5,0,0,0-1.158.484,2.5,2.5,0,0,0-.569,1.384h3.337v-.192a1.786,1.786,0,0,0-.432-1.238A1.547,1.547,0,0,0,114.924,10.787Z" transform="translate(570 24908)" fill="#12263f"/>
    <path id="Trazado_217877" data-name="Trazado 217877" d="M4.333,5.914l3.1,8.766,3.088-8.766H13.8V18H11.3V14.7l.249-5.7L8.284,18H6.574L3.32,9,3.569,14.7V18H1.079V5.914ZM21.018,18a2.664,2.664,0,0,1-.241-.805,2.9,2.9,0,0,1-2.266.971,3.189,3.189,0,0,1-2.187-.764,2.456,2.456,0,0,1-.867-1.926,2.538,2.538,0,0,1,1.058-2.191,5.222,5.222,0,0,1,3.059-.772h1.1V12a1.48,1.48,0,0,0-.32-1,1.257,1.257,0,0,0-1.009-.374,1.429,1.429,0,0,0-.95.291.987.987,0,0,0-.344.8h-2.4a2.41,2.41,0,0,1,.481-1.444A3.182,3.182,0,0,1,17.5,9.23a4.961,4.961,0,0,1,1.976-.378,3.92,3.92,0,0,1,2.635.834,2.918,2.918,0,0,1,.975,2.345v3.893a4.294,4.294,0,0,0,.357,1.934V18Zm-1.984-1.668a2.066,2.066,0,0,0,.979-.237,1.554,1.554,0,0,0,.664-.635V13.916h-.9q-1.8,0-1.917,1.245l-.008.141a.96.96,0,0,0,.315.739A1.225,1.225,0,0,0,19.034,16.332ZM27.8,6.811V9.019h1.536v1.76H27.8v4.482a1.07,1.07,0,0,0,.191.714.959.959,0,0,0,.73.216,3.826,3.826,0,0,0,.706-.058V17.95a4.938,4.938,0,0,1-1.453.216A2.29,2.29,0,0,1,25.4,15.618V10.778H24.089V9.019H25.4V6.811Zm7.006,11.355a4.409,4.409,0,0,1-3.217-1.212,4.308,4.308,0,0,1-1.241-3.229v-.232a5.426,5.426,0,0,1,.523-2.42,3.838,3.838,0,0,1,1.482-1.644,4.159,4.159,0,0,1,2.187-.577,3.727,3.727,0,0,1,2.9,1.162,4.722,4.722,0,0,1,1.058,3.3v.979H32.78a2.229,2.229,0,0,0,.7,1.411,2.12,2.12,0,0,0,1.482.531,2.589,2.589,0,0,0,2.167-1l1.179,1.32a3.6,3.6,0,0,1-1.461,1.191A4.793,4.793,0,0,1,34.805,18.166Zm-.274-7.379a1.5,1.5,0,0,0-1.158.484,2.5,2.5,0,0,0-.569,1.384h3.337v-.192a1.786,1.786,0,0,0-.432-1.238A1.547,1.547,0,0,0,34.531,10.787Zm10.376.481a6.517,6.517,0,0,0-.863-.066,1.757,1.757,0,0,0-1.785.921V18h-2.4V9.019h2.266l.066,1.071a2.223,2.223,0,0,1,2-1.237,2.514,2.514,0,0,1,.747.108ZM48.593,18H46.186V9.019h2.407ZM46.044,6.694a1.181,1.181,0,0,1,.361-.888,1.556,1.556,0,0,1,1.963,0,1.175,1.175,0,0,1,.365.888,1.178,1.178,0,0,1-.369.9,1.539,1.539,0,0,1-1.951,0A1.178,1.178,0,0,1,46.044,6.694ZM55.773,18a2.664,2.664,0,0,1-.241-.805,2.9,2.9,0,0,1-2.266.971,3.189,3.189,0,0,1-2.187-.764,2.456,2.456,0,0,1-.867-1.926,2.538,2.538,0,0,1,1.058-2.191,5.222,5.222,0,0,1,3.059-.772h1.1V12a1.48,1.48,0,0,0-.32-1,1.257,1.257,0,0,0-1.009-.374,1.429,1.429,0,0,0-.95.291.987.987,0,0,0-.344.8h-2.4a2.41,2.41,0,0,1,.481-1.444A3.182,3.182,0,0,1,52.253,9.23a4.961,4.961,0,0,1,1.976-.378,3.92,3.92,0,0,1,2.635.834,2.918,2.918,0,0,1,.975,2.345v3.893a4.294,4.294,0,0,0,.357,1.934V18Zm-1.984-1.668a2.066,2.066,0,0,0,.979-.237,1.554,1.554,0,0,0,.664-.635V13.916h-.9q-1.8,0-1.917,1.245l-.008.141a.96.96,0,0,0,.315.739A1.225,1.225,0,0,0,53.789,16.332ZM62.214,18H59.807V5.25h2.407Zm6.109.166a4.409,4.409,0,0,1-3.217-1.212,4.308,4.308,0,0,1-1.241-3.229v-.232a5.426,5.426,0,0,1,.523-2.42,3.838,3.838,0,0,1,1.482-1.644,4.159,4.159,0,0,1,2.187-.577,3.727,3.727,0,0,1,2.9,1.162,4.722,4.722,0,0,1,1.058,3.3v.979H66.3A2.229,2.229,0,0,0,67,15.7a2.12,2.12,0,0,0,1.482.531,2.589,2.589,0,0,0,2.167-1l1.179,1.32a3.6,3.6,0,0,1-1.461,1.191A4.793,4.793,0,0,1,68.324,18.166Zm-.274-7.379a1.5,1.5,0,0,0-1.158.484,2.5,2.5,0,0,0-.569,1.384H69.66v-.192a1.786,1.786,0,0,0-.432-1.238A1.547,1.547,0,0,0,68.05,10.787Zm10.193,4.731a.773.773,0,0,0-.436-.693,4.95,4.95,0,0,0-1.4-.452q-3.2-.672-3.2-2.723a2.468,2.468,0,0,1,.992-2,4,4,0,0,1,2.594-.8,4.307,4.307,0,0,1,2.735.805,2.538,2.538,0,0,1,1.025,2.092h-2.4a1.161,1.161,0,0,0-.332-.851,1.405,1.405,0,0,0-1.038-.336,1.436,1.436,0,0,0-.938.274.865.865,0,0,0-.332.7.739.739,0,0,0,.378.643,3.885,3.885,0,0,0,1.274.423,10.407,10.407,0,0,1,1.511.4,2.482,2.482,0,0,1,1.9,2.416,2.343,2.343,0,0,1-1.054,1.988,4.548,4.548,0,0,1-2.723.76,4.75,4.75,0,0,1-2-.4,3.363,3.363,0,0,1-1.374-1.1,2.565,2.565,0,0,1-.5-1.515H75.2a1.252,1.252,0,0,0,.473.979,1.877,1.877,0,0,0,1.179.34A1.737,1.737,0,0,0,77.89,16.2.814.814,0,0,0,78.243,15.518Z" transform="translate(606 25263)" fill="#12263f"/>
    <path id="Trazado_217878" data-name="Trazado 217878" d="M4.333,5.914l3.1,8.766,3.088-8.766H13.8V18H11.3V14.7l.249-5.7L8.284,18H6.574L3.32,9,3.569,14.7V18H1.079V5.914ZM19.947,18.166a4.409,4.409,0,0,1-3.217-1.212,4.308,4.308,0,0,1-1.241-3.229v-.232a5.426,5.426,0,0,1,.523-2.42,3.838,3.838,0,0,1,1.482-1.644,4.159,4.159,0,0,1,2.187-.577,3.727,3.727,0,0,1,2.9,1.162,4.722,4.722,0,0,1,1.058,3.3v.979H17.921a2.229,2.229,0,0,0,.7,1.411,2.12,2.12,0,0,0,1.482.531,2.589,2.589,0,0,0,2.167-1l1.179,1.32a3.6,3.6,0,0,1-1.461,1.191A4.793,4.793,0,0,1,19.947,18.166Zm-.274-7.379a1.5,1.5,0,0,0-1.158.484,2.5,2.5,0,0,0-.569,1.384h3.337v-.192a1.786,1.786,0,0,0-.432-1.238A1.547,1.547,0,0,0,19.673,10.787Zm.216-5.537H22.5L20.2,7.823H18.253Zm7.985,1.561V9.019H29.41v1.76H27.874v4.482a1.07,1.07,0,0,0,.191.714.959.959,0,0,0,.73.216,3.826,3.826,0,0,0,.706-.058V17.95a4.938,4.938,0,0,1-1.453.216,2.29,2.29,0,0,1-2.573-2.548V10.778H24.164V9.019h1.312V6.811Zm2.25,6.616a5.327,5.327,0,0,1,.515-2.382A3.768,3.768,0,0,1,32.12,9.425a4.323,4.323,0,0,1,2.245-.573,4.09,4.09,0,0,1,2.968,1.112,4.464,4.464,0,0,1,1.282,3.021l.017.614a4.694,4.694,0,0,1-1.154,3.316,4.011,4.011,0,0,1-3.1,1.249,4.031,4.031,0,0,1-3.1-1.245,4.777,4.777,0,0,1-1.158-3.387Zm2.4.17A3.357,3.357,0,0,0,33,15.554a1.73,1.73,0,0,0,2.739.008,3.674,3.674,0,0,0,.49-2.141,3.324,3.324,0,0,0-.49-1.945,1.592,1.592,0,0,0-1.378-.69A1.566,1.566,0,0,0,33,11.472,3.735,3.735,0,0,0,32.522,13.6Zm7.213-.154a5.413,5.413,0,0,1,.942-3.345,3.057,3.057,0,0,1,2.577-1.245,2.751,2.751,0,0,1,2.167.979V5.25h2.407V18H45.663l-.116-.955a2.823,2.823,0,0,1-2.308,1.121,3.049,3.049,0,0,1-2.544-1.249A5.587,5.587,0,0,1,39.736,13.443Zm2.4.179a3.546,3.546,0,0,0,.44,1.937,1.433,1.433,0,0,0,1.278.673,1.605,1.605,0,0,0,1.569-.939v-3.55A1.582,1.582,0,0,0,43.87,10.8Q42.135,10.8,42.135,13.621Zm7.18-.2a5.327,5.327,0,0,1,.515-2.382,3.767,3.767,0,0,1,1.482-1.619,4.323,4.323,0,0,1,2.245-.573,4.09,4.09,0,0,1,2.968,1.112,4.464,4.464,0,0,1,1.282,3.021l.017.614a4.694,4.694,0,0,1-1.154,3.316,4.472,4.472,0,0,1-6.2,0,4.777,4.777,0,0,1-1.158-3.387Zm2.4.17a3.357,3.357,0,0,0,.481,1.958,1.73,1.73,0,0,0,2.739.008,3.674,3.674,0,0,0,.49-2.141,3.324,3.324,0,0,0-.49-1.945,1.592,1.592,0,0,0-1.378-.69,1.566,1.566,0,0,0-1.361.686A3.735,3.735,0,0,0,51.714,13.6Zm12.451,1.922a.773.773,0,0,0-.436-.693,4.95,4.95,0,0,0-1.4-.452q-3.2-.672-3.2-2.723a2.468,2.468,0,0,1,.992-2,4,4,0,0,1,2.594-.8,4.307,4.307,0,0,1,2.735.805,2.538,2.538,0,0,1,1.025,2.092h-2.4a1.161,1.161,0,0,0-.332-.851,1.405,1.405,0,0,0-1.038-.336,1.436,1.436,0,0,0-.938.274.865.865,0,0,0-.332.7.739.739,0,0,0,.378.643,3.885,3.885,0,0,0,1.274.423A10.407,10.407,0,0,1,64.6,13a2.482,2.482,0,0,1,1.9,2.416,2.343,2.343,0,0,1-1.054,1.988,4.548,4.548,0,0,1-2.723.76,4.75,4.75,0,0,1-2-.4,3.363,3.363,0,0,1-1.374-1.1,2.565,2.565,0,0,1-.5-1.515h2.274a1.252,1.252,0,0,0,.473.979,1.877,1.877,0,0,0,1.179.34,1.737,1.737,0,0,0,1.042-.261A.814.814,0,0,0,64.165,15.518Z" transform="translate(751 25260)" fill="#12263f"/>
    <path id="Trazado_217879" data-name="Trazado 217879" d="M3.569,13.742V18H1.079V5.914H5.794a5.455,5.455,0,0,1,2.395.5,3.67,3.67,0,0,1,1.59,1.415,3.946,3.946,0,0,1,.556,2.088,3.47,3.47,0,0,1-1.216,2.8,5.065,5.065,0,0,1-3.366,1.025Zm0-2.017H5.794A2.187,2.187,0,0,0,7.3,11.26a1.691,1.691,0,0,0,.519-1.328A1.994,1.994,0,0,0,7.3,8.5a1.953,1.953,0,0,0-1.444-.564H3.569Zm13.364-.457a6.517,6.517,0,0,0-.863-.066,1.757,1.757,0,0,0-1.785.921V18h-2.4V9.019h2.266l.066,1.071a2.223,2.223,0,0,1,2-1.237,2.514,2.514,0,0,1,.747.108Zm.481,2.158a5.327,5.327,0,0,1,.515-2.382,3.768,3.768,0,0,1,1.482-1.619,4.323,4.323,0,0,1,2.245-.573,4.09,4.09,0,0,1,2.968,1.112,4.464,4.464,0,0,1,1.282,3.021l.017.614a4.694,4.694,0,0,1-1.154,3.316,4.011,4.011,0,0,1-3.1,1.249,4.031,4.031,0,0,1-3.1-1.245,4.777,4.777,0,0,1-1.158-3.387Zm2.4.17a3.357,3.357,0,0,0,.481,1.958,1.73,1.73,0,0,0,2.739.008,3.674,3.674,0,0,0,.49-2.141,3.324,3.324,0,0,0-.49-1.945,1.592,1.592,0,0,0-1.378-.69,1.566,1.566,0,0,0-1.361.686A3.735,3.735,0,0,0,19.814,13.6Zm15.68,0a5.439,5.439,0,0,1-.921,3.366A3.052,3.052,0,0,1,32,18.166a2.8,2.8,0,0,1-2.333-1.121L29.559,18H27.4V5.25h2.4V9.824a2.732,2.732,0,0,1,2.183-.971A3.077,3.077,0,0,1,34.56,10.06a5.446,5.446,0,0,1,.934,3.4Zm-2.4-.174a3.573,3.573,0,0,0-.432-1.988,1.46,1.46,0,0,0-1.287-.627,1.582,1.582,0,0,0-1.577.938v3.544a1.6,1.6,0,0,0,1.594.946,1.481,1.481,0,0,0,1.527-1.146A5.909,5.909,0,0,0,33.1,13.418ZM39.5,18H37.1V5.25H39.5Zm6.109.166A4.409,4.409,0,0,1,42.4,16.954a4.308,4.308,0,0,1-1.241-3.229v-.232a5.426,5.426,0,0,1,.523-2.42A3.838,3.838,0,0,1,43.16,9.429a4.159,4.159,0,0,1,2.187-.577,3.727,3.727,0,0,1,2.9,1.162,4.722,4.722,0,0,1,1.058,3.3v.979H43.587a2.229,2.229,0,0,0,.7,1.411,2.12,2.12,0,0,0,1.482.531,2.589,2.589,0,0,0,2.167-1l1.179,1.32a3.6,3.6,0,0,1-1.461,1.191A4.793,4.793,0,0,1,45.613,18.166Zm-.274-7.379a1.5,1.5,0,0,0-1.158.484,2.5,2.5,0,0,0-.569,1.384h3.337v-.192a1.786,1.786,0,0,0-.432-1.238A1.547,1.547,0,0,0,45.339,10.787Zm7.579-1.768.075,1a3.156,3.156,0,0,1,2.582-1.17,2.4,2.4,0,0,1,2.382,1.37,3.084,3.084,0,0,1,2.7-1.37,2.679,2.679,0,0,1,2.175.851,3.911,3.911,0,0,1,.714,2.561V18H61.135V12.272a1.71,1.71,0,0,0-.3-1.116,1.324,1.324,0,0,0-1.054-.353,1.5,1.5,0,0,0-1.494,1.029L58.3,18H55.9V12.281a1.689,1.689,0,0,0-.307-1.129,1.337,1.337,0,0,0-1.046-.349,1.555,1.555,0,0,0-1.478.847V18h-2.4V9.019ZM70.59,18a2.664,2.664,0,0,1-.241-.805,2.9,2.9,0,0,1-2.266.971A3.189,3.189,0,0,1,65.9,17.4a2.456,2.456,0,0,1-.867-1.926,2.538,2.538,0,0,1,1.058-2.191,5.222,5.222,0,0,1,3.059-.772h1.1V12a1.48,1.48,0,0,0-.32-1,1.257,1.257,0,0,0-1.009-.374,1.429,1.429,0,0,0-.95.291.987.987,0,0,0-.344.8h-2.4a2.41,2.41,0,0,1,.481-1.444A3.182,3.182,0,0,1,67.07,9.23a4.961,4.961,0,0,1,1.976-.378,3.92,3.92,0,0,1,2.635.834,2.918,2.918,0,0,1,.975,2.345v3.893a4.294,4.294,0,0,0,.357,1.934V18Zm-1.984-1.668a2.066,2.066,0,0,0,.979-.237,1.554,1.554,0,0,0,.664-.635V13.916h-.9q-1.8,0-1.917,1.245l-.008.141a.96.96,0,0,0,.315.739A1.225,1.225,0,0,0,68.606,16.332Z" transform="translate(1083 25176)" fill="#12263f"/>
    <path id="Trazado_217880" data-name="Trazado 217880" d="M3.569,13.742V18H1.079V5.914H5.794a5.455,5.455,0,0,1,2.395.5,3.67,3.67,0,0,1,1.59,1.415,3.946,3.946,0,0,1,.556,2.088,3.47,3.47,0,0,1-1.216,2.8,5.065,5.065,0,0,1-3.366,1.025Zm0-2.017H5.794A2.187,2.187,0,0,0,7.3,11.26a1.691,1.691,0,0,0,.519-1.328A1.994,1.994,0,0,0,7.3,8.5a1.953,1.953,0,0,0-1.444-.564H3.569Zm12.451,6.441A4.409,4.409,0,0,1,12.8,16.954a4.308,4.308,0,0,1-1.241-3.229v-.232a5.426,5.426,0,0,1,.523-2.42,3.838,3.838,0,0,1,1.482-1.644,4.159,4.159,0,0,1,2.187-.577,3.727,3.727,0,0,1,2.9,1.162,4.722,4.722,0,0,1,1.058,3.3v.979H14a2.229,2.229,0,0,0,.7,1.411,2.12,2.12,0,0,0,1.482.531,2.589,2.589,0,0,0,2.167-1l1.179,1.32a3.6,3.6,0,0,1-1.461,1.191A4.793,4.793,0,0,1,16.021,18.166Zm-.274-7.379a1.5,1.5,0,0,0-1.158.484,2.5,2.5,0,0,0-.569,1.384h3.337v-.192a1.786,1.786,0,0,0-.432-1.238A1.547,1.547,0,0,0,15.747,10.787Zm10.376.481a6.517,6.517,0,0,0-.863-.066,1.757,1.757,0,0,0-1.785.921V18h-2.4V9.019h2.266l.066,1.071a2.223,2.223,0,0,1,2-1.237,2.514,2.514,0,0,1,.747.108Zm6.018,4.25a.773.773,0,0,0-.436-.693,4.95,4.95,0,0,0-1.4-.452q-3.2-.672-3.2-2.723a2.468,2.468,0,0,1,.992-2,4,4,0,0,1,2.594-.8,4.307,4.307,0,0,1,2.735.805,2.538,2.538,0,0,1,1.025,2.092h-2.4a1.161,1.161,0,0,0-.332-.851,1.405,1.405,0,0,0-1.038-.336,1.436,1.436,0,0,0-.938.274.865.865,0,0,0-.332.7.739.739,0,0,0,.378.643,3.885,3.885,0,0,0,1.274.423,10.407,10.407,0,0,1,1.511.4,2.482,2.482,0,0,1,1.9,2.416,2.343,2.343,0,0,1-1.054,1.988,4.548,4.548,0,0,1-2.723.76,4.75,4.75,0,0,1-2-.4,3.363,3.363,0,0,1-1.374-1.1,2.565,2.565,0,0,1-.5-1.515h2.274a1.252,1.252,0,0,0,.473.979,1.877,1.877,0,0,0,1.179.34,1.737,1.737,0,0,0,1.042-.261A.814.814,0,0,0,32.141,15.518Zm3.5-2.092a5.327,5.327,0,0,1,.515-2.382A3.767,3.767,0,0,1,37.64,9.425a4.323,4.323,0,0,1,2.245-.573,4.09,4.09,0,0,1,2.968,1.112,4.464,4.464,0,0,1,1.282,3.021l.017.614A4.694,4.694,0,0,1,43,16.917a4.472,4.472,0,0,1-6.2,0,4.777,4.777,0,0,1-1.158-3.387Zm2.4.17a3.357,3.357,0,0,0,.481,1.958,1.73,1.73,0,0,0,2.739.008,3.674,3.674,0,0,0,.49-2.141,3.324,3.324,0,0,0-.49-1.945,1.592,1.592,0,0,0-1.378-.69,1.566,1.566,0,0,0-1.361.686A3.735,3.735,0,0,0,38.042,13.6Zm9.795-4.578.075,1.038a3.136,3.136,0,0,1,2.582-1.2,2.606,2.606,0,0,1,2.125.838,3.912,3.912,0,0,1,.714,2.507V18h-2.4V12.256a1.556,1.556,0,0,0-.332-1.108,1.486,1.486,0,0,0-1.1-.344,1.65,1.65,0,0,0-1.519.863V18h-2.4V9.019ZM60.355,18a2.664,2.664,0,0,1-.241-.805,2.9,2.9,0,0,1-2.266.971,3.189,3.189,0,0,1-2.187-.764,2.456,2.456,0,0,1-.867-1.926,2.538,2.538,0,0,1,1.058-2.191,5.222,5.222,0,0,1,3.059-.772h1.1V12a1.48,1.48,0,0,0-.32-1,1.257,1.257,0,0,0-1.009-.374,1.429,1.429,0,0,0-.95.291.987.987,0,0,0-.344.8h-2.4a2.41,2.41,0,0,1,.481-1.444A3.182,3.182,0,0,1,56.835,9.23a4.961,4.961,0,0,1,1.976-.378,3.92,3.92,0,0,1,2.635.834,2.918,2.918,0,0,1,.975,2.345v3.893a4.294,4.294,0,0,0,.357,1.934V18Zm-1.984-1.668a2.066,2.066,0,0,0,.979-.237,1.554,1.554,0,0,0,.664-.635V13.916h-.9q-1.8,0-1.917,1.245l-.008.141a.96.96,0,0,0,.315.739A1.225,1.225,0,0,0,58.371,16.332Zm10.758-.813a.773.773,0,0,0-.436-.693,4.95,4.95,0,0,0-1.4-.452q-3.2-.672-3.2-2.723a2.468,2.468,0,0,1,.992-2,4,4,0,0,1,2.594-.8,4.307,4.307,0,0,1,2.735.805,2.538,2.538,0,0,1,1.025,2.092h-2.4a1.161,1.161,0,0,0-.332-.851,1.405,1.405,0,0,0-1.038-.336,1.436,1.436,0,0,0-.938.274.865.865,0,0,0-.332.7.739.739,0,0,0,.378.643,3.885,3.885,0,0,0,1.274.423,10.407,10.407,0,0,1,1.511.4,2.482,2.482,0,0,1,1.9,2.416,2.343,2.343,0,0,1-1.054,1.988,4.548,4.548,0,0,1-2.723.76,4.75,4.75,0,0,1-2-.4,3.363,3.363,0,0,1-1.374-1.1,2.565,2.565,0,0,1-.5-1.515h2.274a1.252,1.252,0,0,0,.473.979,1.877,1.877,0,0,0,1.179.34,1.737,1.737,0,0,0,1.042-.261A.814.814,0,0,0,69.129,15.518Z" transform="translate(747 24916)" fill="#12263f"/>
    <g id="Grupo_871800" data-name="Grupo 871800" transform="translate(495 24934.398)">
      <g id="Grupo_871759" data-name="Grupo 871759" transform="translate(0 -0.001)" clip-path="url(#clip-path)">
        <path id="Trazado_217719" data-name="Trazado 217719" d="M394.909,311.555c32.1-6.545,63.95-19.771,100.234-41.614,37.512-22.585,68.234-46.8,93.918-74.025,27.773-29.439,27.844-36.73.655-65.024C532.844,71.727,470.971,34.061,400.55,15.752c-7.244-1.879-15.621-1.694-17.591.395-2.988,3.178-1.848,5.176,3.628,10.4a42.91,42.91,0,0,1,3.889,4.05c24.006,30.24,37.871,67.6,42.372,114.221.415,4.252-.387,7.414-2.448,9.664-2.132,2.329-5.416,3.4-10.189,3.407-16.2-.122-33.58-.209-50.879-.059h-.2c-9.708,0-11.563-6.316-12.092-11.831l-.572-6.1c-1.445-15.321-2.933-31.168-5.882-46.39-6.016-31.089-23.466-56.149-38.5-74.759-.083.039-.166.079-.249.114a16.943,16.943,0,0,0-3.048,1.662,43.089,43.089,0,0,0-3.841,3.525c2.527,4.232,5.089,8.413,7.639,12.574,6.463,10.541,13.15,21.444,18.772,32.628,12.574,24.982,14.267,52.415,14.867,76.169.1,4.22-.829,7.268-2.858,9.325-2.736,2.771-6.877,3.052-10.162,3.048-17.181-.193-34-.328-50.8.189-5.061.182-8.519-.872-10.955-3.217-3.253-3.131-3.7-7.9-3.727-11.7C267.372,94.482,252.145,48.7,221.175,3.087,220.5,2.1,219.73,1.172,218.853.107L218.767,0a41.779,41.779,0,0,0-3.893,1.978c-1.263.758-2.456,1.642-3.96,2.756-.174.126-.347.253-.529.387q1.19,2.055,2.365,4.106c2.566,4.473,5.223,9.1,8.034,13.454,22.838,35.337,34.926,74.578,36.951,119.961.261,5.72-.794,9.546-3.308,12.045-3.281,3.257-8.389,3.391-11.974,3.206-6.984-.363-14.161-.268-21.089-.174-3.585.051-7.181.122-10.742.087-17.808-.051-19.344-1.445-20.509-18.618-3.225-47.567-30.88-81.7-55.17-106.266a8.848,8.848,0,0,0-1.978,1.011c-1.571,1.3-3.1,2.779-4.864,4.493l-.675.651q3.275,3.968,6.545,7.892c5.906,7.1,12.017,14.445,17.844,21.788C167.9,89,177.157,113,180.13,142.132c.375,3.664.5,8.93-2.7,12.337-2.424,2.574-6.186,3.644-11.895,3.435-12.266-.505-25.755-.482-41.223.055-8.219.284-14.074-2.59-20.292-9.933C77.1,116.246,46.959,95.75,11.879,85.371c-2.538-.754-5.862-.016-9.388.766-.73.162-1.469.324-2.215.478q.2.865.379,1.729c.707,3.257,1.37,6.332,2.89,8.547a119.33,119.33,0,0,1-.821,135.827c-1.358,1.93-1.871,4.789-2.412,7.821-.1.565-.205,1.133-.312,1.694.707.178,1.4.367,2.092.557,3.206.876,6.23,1.705,8.432,1.066,36.245-10.481,67.894-32.111,96.752-66.133,4.256-5.018,11.287-8.863,17.1-9.356,7.84-.659,15.807-.537,23.5-.434,5.926.083,12.06.17,18.033-.1,5.345-.268,8.969.782,11.35,3.249,3.154,3.265,3.21,8.306,2.846,12.8-2.732,33.836-17.094,64.716-43.919,94.4-2.282,2.527-4.512,5.1-7.011,7.982l-2,2.3,7.493,6.581c34.555-35.372,51.653-68.3,55.352-106.46.245-2.538.415-4.714.561-6.585,1.015-13,2.238-14.184,14.7-14.082,2.088.02,4.579.039,7.568-.02,3.853-.083,7.726-.012,11.6.063,5.878.1,11.962.217,17.828-.237,5.519-.426,9.277.517,11.828,2.981,3.415,3.3,3.675,8.65,3.474,13.454-1.9,45.865-15.827,89.046-41.408,128.335-1.674,2.574-3.233,5.227-4.943,8.14-.411.7-.829,1.417-1.263,2.144l8.74,5.274c27.638-41.187,42.526-78.64,46.8-117.668,1.267-11.591,2.017-21.263,2.353-30.441.3-8.136,4.264-12.1,12.116-12.1h.17c17.844.126,36.292.253,54.416-.063,4.019-.039,6.917.805,8.879,2.756,2.748,2.728,2.941,6.869,2.906,10.537-.466,48.6-14.386,88.363-42.545,121.469l7.951,6.968c22.806-27.627,36.312-56.686,41.246-88.746A381.917,381.917,0,0,0,357.038,180c.391-8.646,4.5-12.289,13.1-12.128,15.637.249,32.463.415,49.62-.032,4.986-.134,8.413.924,10.659,3.32,2.992,3.19,2.933,8,2.629,11.346C428.71,230.259,413.807,268.4,387.487,299.1c-1.757,2.049-2.7,5.128-3.7,8.385-.186.6-.371,1.2-.565,1.808.746.217,1.488.45,2.223.679,3.5,1.086,6.81,2.136,9.463,1.579M99.374,172.092C82.217,194.8,58.806,212.324,27.8,225.659L21.44,228.4l2.42-6.49c14.441-38.775,14.532-76.275.276-114.636l-2.381-6.415,6.3,2.653c30.074,12.649,53.39,30.078,71.265,53.283,2.791,3.628,2.819,11.634.047,15.3M408.726,291c47.283-84.431,47.535-167.694.782-254.545l-1.48-2.744,2.823-1.334c.446-.209.817-.426,1.129-.608a5.036,5.036,0,0,1,3.549-.9,56.753,56.753,0,0,1,8.35,2.144,421.557,421.557,0,0,1,162,106.168c18.03,18.945,18.045,28.215.083,47.227-44.535,47.144-99.014,82.927-161.922,106.345a39.83,39.83,0,0,1-7.319,1.7c-1.421.245-3,.517-4.808.888l-6.348,1.3Z" transform="translate(0 0.002)" fill="#03386e"/>
        <path id="Trazado_217720" data-name="Trazado 217720" d="M126.668,44.8c.008,8.2,8.729,16.707,17.193,16.778,8.673.067,16.885-8.061,16.924-16.762.04-8.729-7.907-17.05-16.517-17.291-8.444-.237-17.607,8.76-17.6,17.276m5.14,1.934q.124-2.641.245-5.282c4.406-2.527,9.033-7.307,13.15-6.9,3.656.363,9.917,7.145,9.34,9.9-.892,4.26-6.34,9.976-10.406,10.458-3.731.442-8.192-5.211-12.329-8.18" transform="translate(373.39 81.116)" fill="#03386e"/>
      </g>
    </g>
    <g id="Grupo_871803" data-name="Grupo 871803" transform="translate(0 131)">
      <path id="Trazado_217721" data-name="Trazado 217721" d="M-7768,13152.692h41.275" transform="translate(8376 11713)" fill="none" stroke="#03386e" stroke-width="1"/>
      <path id="Trazado_217722" data-name="Trazado 217722" d="M-7768,13152.692h54.408" transform="translate(8376 11729.692)" fill="none" stroke="#03386e" stroke-width="1"/>
      <path id="Trazado_217723" data-name="Trazado 217723" d="M-7768,13152.692h54.408" transform="translate(8376 11746.385)" fill="none" stroke="#03386e" stroke-width="1"/>
      <path id="Trazado_217724" data-name="Trazado 217724" d="M-7768,13152.692h64.7" transform="translate(8376 11763.077)" fill="none" stroke="#03386e" stroke-width="1"/>
      <path id="Trazado_217725" data-name="Trazado 217725" d="M-7768,13152.692h69.082" transform="translate(8376 11779.77)" fill="none" stroke="#03386e" stroke-width="1"/>
      <path id="Trazado_217726" data-name="Trazado 217726" d="M-7768,13152.692h71.359" transform="translate(8376 11796.462)" fill="none" stroke="#03386e" stroke-width="1"/>
    </g>
    <g id="Grupo_871804" data-name="Grupo 871804" transform="translate(678.359 25200) rotate(180)">
      <path id="Trazado_217721-2" data-name="Trazado 217721" d="M-7726.725,13152.692H-7768" transform="translate(7798.084 -13152.691)" fill="none" stroke="#03386e" stroke-width="1"/>
      <path id="Trazado_217722-2" data-name="Trazado 217722" d="M-7713.592,13152.692H-7768" transform="translate(7784.951 -13135.999)" fill="none" stroke="#03386e" stroke-width="1"/>
      <path id="Trazado_217723-2" data-name="Trazado 217723" d="M-7713.592,13152.692H-7768" transform="translate(7784.951 -13119.307)" fill="none" stroke="#03386e" stroke-width="1"/>
      <path id="Trazado_217724-2" data-name="Trazado 217724" d="M-7703.3,13152.692H-7768" transform="translate(7774.664 -13102.614)" fill="none" stroke="#03386e" stroke-width="1"/>
      <path id="Trazado_217725-2" data-name="Trazado 217725" d="M-7698.918,13152.692H-7768" transform="translate(7770.277 -13085.922)" fill="none" stroke="#03386e" stroke-width="1"/>
      <path id="Trazado_217726-2" data-name="Trazado 217726" d="M-7696.641,13152.692H-7768" transform="translate(7768 -13069.229)" fill="none" stroke="#03386e" stroke-width="1"/>
    </g>
    <g id="Grupo_871805" data-name="Grupo 871805" transform="translate(82 131)">
      <path id="Trazado_217721-3" data-name="Trazado 217721" d="M-7768,13152.692h48.217" transform="translate(8376 11713)" fill="none" stroke="#03386e" stroke-width="1"/>
      <path id="Trazado_217722-3" data-name="Trazado 217722" d="M-7768,13152.692h54.408" transform="translate(8376 11729.692)" fill="none" stroke="#03386e" stroke-width="1"/>
      <path id="Trazado_217723-3" data-name="Trazado 217723" d="M-7768,13152.692h62.664" transform="translate(8376 11746.385)" fill="none" stroke="#03386e" stroke-width="1"/>
      <path id="Trazado_217724-3" data-name="Trazado 217724" d="M-7768,13152.692h64.7" transform="translate(8376 11763.077)" fill="none" stroke="#03386e" stroke-width="1"/>
      <path id="Trazado_217725-3" data-name="Trazado 217725" d="M-7768,13152.692h69.082" transform="translate(8376 11779.77)" fill="none" stroke="#03386e" stroke-width="1"/>
      <path id="Trazado_217726-3" data-name="Trazado 217726" d="M-7768,13152.692h71.359" transform="translate(8376 11796.462)" fill="none" stroke="#03386e" stroke-width="1"/>
    </g>
    <g id="Grupo_871806" data-name="Grupo 871806" transform="translate(760.359 25200) rotate(180)">
      <path id="Trazado_217721-4" data-name="Trazado 217721" d="M-7719.783,13152.692H-7768" transform="translate(7791.142 -13152.691)" fill="none" stroke="#03386e" stroke-width="1"/>
      <path id="Trazado_217722-4" data-name="Trazado 217722" d="M-7713.592,13152.692H-7768" transform="translate(7784.951 -13135.999)" fill="none" stroke="#03386e" stroke-width="1"/>
      <path id="Trazado_217723-4" data-name="Trazado 217723" d="M-7705.335,13152.692H-7768" transform="translate(7776.694 -13119.307)" fill="none" stroke="#03386e" stroke-width="1"/>
      <path id="Trazado_217724-4" data-name="Trazado 217724" d="M-7703.3,13152.692H-7768" transform="translate(7774.664 -13102.614)" fill="none" stroke="#03386e" stroke-width="1"/>
      <path id="Trazado_217725-4" data-name="Trazado 217725" d="M-7698.918,13152.692H-7768" transform="translate(7770.277 -13085.922)" fill="none" stroke="#03386e" stroke-width="1"/>
      <path id="Trazado_217726-4" data-name="Trazado 217726" d="M-7696.641,13152.692H-7768" transform="translate(7768 -13069.229)" fill="none" stroke="#03386e" stroke-width="1"/>
    </g>
    <g id="Grupo_871807" data-name="Grupo 871807" transform="translate(171.32 131)">
      <path id="Trazado_217721-5" data-name="Trazado 217721" d="M-7768,13152.692h48.217" transform="translate(8376 11713)" fill="none" stroke="#03386e" stroke-width="1"/>
      <path id="Trazado_217722-5" data-name="Trazado 217722" d="M-7768,13152.692h54.408" transform="translate(8376 11729.692)" fill="none" stroke="#03386e" stroke-width="1"/>
      <path id="Trazado_217723-5" data-name="Trazado 217723" d="M-7768,13152.692h62.664" transform="translate(8376 11746.385)" fill="none" stroke="#03386e" stroke-width="1"/>
      <path id="Trazado_217724-5" data-name="Trazado 217724" d="M-7768,13152.692h64.7" transform="translate(8376 11763.077)" fill="none" stroke="#03386e" stroke-width="1"/>
      <path id="Trazado_217725-5" data-name="Trazado 217725" d="M-7768,13152.692h69.082" transform="translate(8376 11779.77)" fill="none" stroke="#03386e" stroke-width="1"/>
      <path id="Trazado_217726-5" data-name="Trazado 217726" d="M-7768,13152.692h71.359" transform="translate(8376 11796.462)" fill="none" stroke="#03386e" stroke-width="1"/>
    </g>
    <g id="Grupo_871808" data-name="Grupo 871808" transform="translate(849.68 25200) rotate(180)">
      <path id="Trazado_217721-6" data-name="Trazado 217721" d="M-7719.783,13152.692H-7768" transform="translate(7791.142 -13152.691)" fill="none" stroke="#03386e" stroke-width="1"/>
      <path id="Trazado_217722-6" data-name="Trazado 217722" d="M-7713.592,13152.692H-7768" transform="translate(7784.951 -13135.999)" fill="none" stroke="#03386e" stroke-width="1"/>
      <path id="Trazado_217723-6" data-name="Trazado 217723" d="M-7705.335,13152.692H-7768" transform="translate(7776.694 -13119.307)" fill="none" stroke="#03386e" stroke-width="1"/>
      <path id="Trazado_217724-6" data-name="Trazado 217724" d="M-7703.3,13152.692H-7768" transform="translate(7774.664 -13102.614)" fill="none" stroke="#03386e" stroke-width="1"/>
      <path id="Trazado_217725-6" data-name="Trazado 217725" d="M-7698.918,13152.692H-7768" transform="translate(7770.277 -13085.922)" fill="none" stroke="#03386e" stroke-width="1"/>
      <path id="Trazado_217726-6" data-name="Trazado 217726" d="M-7696.641,13152.692H-7768" transform="translate(7768 -13069.229)" fill="none" stroke="#03386e" stroke-width="1"/>
    </g>
    <g id="Grupo_871809" data-name="Grupo 871809" transform="translate(285 25150.652)">
      <path id="Trazado_214670" data-name="Trazado 214670" d="M0,0H14.81L29.62,19.932H14.81Z" transform="translate(0 140.694) rotate(-90)" fill="#3ae3fe"/>
      <path id="Trazado_214675" data-name="Trazado 214675" d="M0,0H14.81L29.62,19.932H14.81Z" transform="translate(0 74.05) rotate(-90)" fill="#3ae3fe"/>
      <path id="Trazado_214671" data-name="Trazado 214671" d="M0,0H14.81L29.62,19.932H14.81Z" transform="translate(0 118.479) rotate(-90)" fill="#3ae3fe"/>
      <path id="Trazado_214674" data-name="Trazado 214674" d="M0,0H14.81L29.62,19.932H14.81Z" transform="translate(0 51.835) rotate(-90)" fill="#3ae3fe"/>
      <path id="Trazado_214672" data-name="Trazado 214672" d="M0,0H14.81L29.62,19.932H14.81Z" transform="translate(0 96.265) rotate(-90)" fill="#3ae3fe"/>
      <path id="Trazado_214673" data-name="Trazado 214673" d="M0,0H14.81L29.62,19.932H14.81Z" transform="translate(0 29.62) rotate(-90)" fill="#3ae3fe"/>
    </g>
    <path id="Trazado_217729" data-name="Trazado 217729" d="M-7519.044-7060.186h-284.6l10.013-11.449h266.49Z" transform="translate(-6519.043 17815.814) rotate(180)" fill="#2b7e3b"/>
    <g id="Grupo_871813" data-name="Grupo 871813" transform="translate(10003 11815)">
      <g id="Grupo_871793" data-name="Grupo 871793" transform="matrix(0.643, 0.766, -0.766, 0.643, -9205.563, 13118)">
        <path id="Trazado_213857" data-name="Trazado 213857" d="M14.466,0,12.184,2.282l6.723,6.724L12.184,15.73l2.282,2.281,9.005-9.005Z" transform="translate(-6.568 0)" fill="#18b8c4"/>
        <path id="Trazado_213858" data-name="Trazado 213858" d="M0,9.2l3.534,3.534L0,16.269,2.281,18.55,8.1,12.735,2.281,6.92Z" transform="translate(0 -3.73)" fill="#18b8c4"/>
      </g>
      <g id="Grupo_871795" data-name="Grupo 871795" transform="matrix(0.643, 0.766, -0.766, 0.643, -9383.575, 13134.474)">
        <path id="Trazado_213857-2" data-name="Trazado 213857" d="M14.466,0,12.184,2.282l6.723,6.724L12.184,15.73l2.282,2.281,9.005-9.005Z" transform="translate(-6.568 0)" fill="#18b8c4"/>
        <path id="Trazado_213858-2" data-name="Trazado 213858" d="M0,9.2l3.534,3.534L0,16.269,2.281,18.55,8.1,12.735,2.281,6.92Z" transform="translate(0 -3.73)" fill="#18b8c4"/>
      </g>
      <g id="Grupo_871794" data-name="Grupo 871794" transform="matrix(0.643, 0.766, -0.766, 0.643, -9299.563, 13100)">
        <path id="Trazado_213857-3" data-name="Trazado 213857" d="M14.466,0,12.184,2.282l6.723,6.724L12.184,15.73l2.282,2.281,9.005-9.005Z" transform="translate(-6.568 0)" fill="#18b8c4"/>
        <path id="Trazado_213858-3" data-name="Trazado 213858" d="M0,9.2l3.534,3.534L0,16.269,2.281,18.55,8.1,12.735,2.281,6.92Z" transform="translate(0 -3.73)" fill="#18b8c4"/>
      </g>
    </g>
    <g id="Grupo_871811" data-name="Grupo 871811" transform="translate(808.302 25280) rotate(180)">
      <g id="Grupo_871793-2" data-name="Grupo 871793" transform="translate(24.662 29.577) rotate(130)">
        <path id="Trazado_213857-4" data-name="Trazado 213857" d="M2.282,18.011,0,15.729,6.723,9.005,0,2.281,2.282,0l9.005,9.005Z" transform="translate(5.617 0)" fill="#18b8c4"/>
        <path id="Trazado_213858-4" data-name="Trazado 213858" d="M0,9.349,3.534,5.815,0,2.281,2.281,0,8.1,5.815,2.281,11.631Z" transform="translate(0 3.19)" fill="#18b8c4"/>
      </g>
      <g id="Grupo_871795-2" data-name="Grupo 871795" transform="translate(202.674 46.051) rotate(130)">
        <path id="Trazado_213857-5" data-name="Trazado 213857" d="M2.282,18.011,0,15.729,6.723,9.005,0,2.281,2.282,0l9.005,9.005Z" transform="translate(5.617 0)" fill="#18b8c4"/>
        <path id="Trazado_213858-5" data-name="Trazado 213858" d="M0,9.349,3.534,5.815,0,2.281,2.281,0,8.1,5.815,2.281,11.631Z" transform="translate(0 3.19)" fill="#18b8c4"/>
      </g>
      <g id="Grupo_871794-2" data-name="Grupo 871794" transform="translate(118.662 11.577) rotate(130)">
        <path id="Trazado_213857-6" data-name="Trazado 213857" d="M2.282,18.011,0,15.729,6.723,9.005,0,2.281,2.282,0l9.005,9.005Z" transform="translate(5.617 0)" fill="#18b8c4"/>
        <path id="Trazado_213858-6" data-name="Trazado 213858" d="M0,9.349,3.534,5.815,0,2.281,2.281,0,8.1,5.815,2.281,11.631Z" transform="translate(0 3.19)" fill="#18b8c4"/>
      </g>
    </g>
  </g>
</svg>
