<svg xmlns="http://www.w3.org/2000/svg" width="85" height="85" viewBox="0 0 85 85">
  <g id="Grupo_872062" data-name="Grupo 872062" transform="translate(-285 -20512)">
    <g id="Grupo_871565" data-name="Grupo 871565" transform="translate(285 20512)">
      <g id="Grupo_20664" data-name="Grupo 20664" transform="translate(0 0)">
        <g id="Trazado_99075" data-name="Trazado 99075" fill="#e1efe3">
          <path d="M 42.5 83.5 C 36.96437835693359 83.5 31.59512901306152 82.41617584228516 26.54141235351562 80.27863311767578 C 21.65934181213379 78.21369171142578 17.27448272705078 75.25723266601562 13.50862312316895 71.49138641357422 C 9.742776870727539 67.72553253173828 6.786305904388428 63.34067153930664 4.721364498138428 58.45859909057617 C 2.583823442459106 53.40488052368164 1.5 48.03562164306641 1.5 42.5 C 1.5 36.96437835693359 2.583823442459106 31.59512901306152 4.721364498138428 26.54141235351562 C 6.786305904388428 21.65934181213379 9.742776870727539 17.27448272705078 13.50862312316895 13.50862312316895 C 17.27448272705078 9.742776870727539 21.65934181213379 6.786305904388428 26.54141235351562 4.721364498138428 C 31.59512901306152 2.583823442459106 36.96437835693359 1.5 42.5 1.5 C 48.03562164306641 1.5 53.40488052368164 2.583823442459106 58.45859909057617 4.721364498138428 C 63.34067153930664 6.786305904388428 67.72553253173828 9.742776870727539 71.49138641357422 13.50862312316895 C 75.25723266601562 17.27448272705078 78.21369171142578 21.65934181213379 80.27863311767578 26.54141235351562 C 82.41617584228516 31.59512901306152 83.5 36.96437835693359 83.5 42.5 C 83.5 48.03563690185547 82.41617584228516 53.40488052368164 80.27863311767578 58.45859909057617 C 78.21369171142578 63.34067153930664 75.25723266601562 67.72553253173828 71.49138641357422 71.49138641357422 C 67.72553253173828 75.25723266601562 63.34067153930664 78.21369171142578 58.45859909057617 80.27863311767578 C 53.40488052368164 82.41617584228516 48.03563690185547 83.5 42.5 83.5 Z" stroke="none"/>
          <path d="M 42.5 3 C 37.16621398925781 3 31.99356079101562 4.043960571289062 27.125732421875 6.102882385253906 C 22.42246627807617 8.092185974121094 18.19785308837891 10.94070434570312 14.56928253173828 14.56928253173828 C 10.94070434570312 18.19785308837891 8.092185974121094 22.42246627807617 6.102882385253906 27.125732421875 C 4.043960571289062 31.99356079101562 3 37.16621398925781 3 42.5 C 3 47.83378601074219 4.043960571289062 53.00643920898438 6.102882385253906 57.874267578125 C 8.092185974121094 62.57754516601562 10.94070434570312 66.80214691162109 14.56928253173828 70.43071746826172 C 18.19785308837891 74.05931091308594 22.42246627807617 76.90781402587891 27.125732421875 78.89713287353516 C 31.99356079101562 80.95603942871094 37.16621398925781 82 42.5 82 C 47.83378601074219 82 53.00643920898438 80.95603942871094 57.874267578125 78.89713287353516 C 62.57754516601562 76.90781402587891 66.80214691162109 74.05931091308594 70.43071746826172 70.43071746826172 C 74.05931091308594 66.80214691162109 76.90781402587891 62.57754516601562 78.89713287353516 57.874267578125 C 80.95603942871094 53.00643920898438 82 47.83378601074219 82 42.5 C 82 37.16621398925781 80.95603942871094 31.99356079101562 78.89713287353516 27.125732421875 C 76.90781402587891 22.42246627807617 74.05931091308594 18.19785308837891 70.43071746826172 14.56928253173828 C 66.80214691162109 10.94070434570312 62.57754516601562 8.092185974121094 57.874267578125 6.102882385253906 C 53.00643920898438 4.043960571289062 47.83378601074219 3 42.5 3 M 42.5 0 C 65.97212219238281 0 85 19.02789306640625 85 42.5 C 85 65.97212219238281 65.97212219238281 85 42.5 85 C 19.02789306640625 85 0 65.97212219238281 0 42.5 C 0 19.02789306640625 19.02789306640625 0 42.5 0 Z" stroke="none" fill="#359547"/>
        </g>
      </g>
    </g>
    <g id="Budget" transform="translate(300 20527)">
      <path id="Trazado_217026" data-name="Trazado 217026" d="M45,14.836v.836a.836.836,0,0,0,1.672,0v-.836a.836.836,0,0,0-1.672,0Z" transform="translate(-6.89 -1.805)" fill="#03386e"/>
      <path id="Trazado_217027" data-name="Trazado 217027" d="M20.819,26.852c.56,0,1.254-.134,1.254.418s-.46.418-2.3.418a.836.836,0,0,0,0,1.672h.836V30.2a.836.836,0,1,0,1.672,0v-.945a2.082,2.082,0,0,0-.627-4.071h-.836a.418.418,0,1,1,0-.836h2.3a.836.836,0,0,0,0-1.672h-.836v-.836a.836.836,0,0,0-1.672,0v.836a2.092,2.092,0,1,0,.209,4.18Z" transform="translate(-2.563 -2.953)" fill="#03386e"/>
      <path id="Trazado_217028" data-name="Trazado 217028" d="M20.359,33.719A8.359,8.359,0,1,0,12,25.359,8.359,8.359,0,0,0,20.359,33.719Zm0-15.047a6.688,6.688,0,1,1-6.688,6.688,6.688,6.688,0,0,1,6.688-6.688Z" transform="translate(-1.476 -2.297)" fill="#03386e"/>
      <path id="Trazado_217029" data-name="Trazado 217029" d="M47.305,21.391H39.782v-4.18a.836.836,0,1,0-1.672,0v4.18H34.766c0-6.362,0-5.952-.067-6.169s.5.4-8.535-8.635c-.351-.351.844-.242-16.476-.242V5.508a.836.836,0,0,1,.836-.836h26.75a.836.836,0,0,1,.836.836v4.18a.836.836,0,0,0,1.672,0V5.508A2.508,2.508,0,0,0,37.274,3H10.524A2.508,2.508,0,0,0,8.016,5.508v.836H5.508A2.508,2.508,0,0,0,3,8.852V48.977a2.508,2.508,0,0,0,2.508,2.508h41.8a4.18,4.18,0,0,0,4.18-4.18V25.571A4.18,4.18,0,0,0,47.305,21.391Zm-20.9-12.2L31.915,14.7H27.242a.836.836,0,0,1-.836-.894ZM4.672,48.977V8.852a.836.836,0,0,1,.836-.836H24.735v5.793a2.508,2.508,0,0,0,2.508,2.566h5.852v5.016h-.836a4.18,4.18,0,0,0-4.18,4.18V35.6H9.688a.836.836,0,1,0,0,1.672H28.078v3.344H9.688a.836.836,0,1,0,0,1.672H28.078v3.344H9.688a.836.836,0,1,0,0,1.672H28.078a4.113,4.113,0,0,0,.836,2.508H5.508A.836.836,0,0,1,4.672,48.977Zm45.141-1.672a2.508,2.508,0,0,1-2.508,2.508H32.258a2.508,2.508,0,0,1-2.508-2.508V25.571a2.508,2.508,0,0,1,2.508-2.508H47.305a2.508,2.508,0,0,1,2.508,2.508Z" fill="#03386e"/>
      <path id="Trazado_217030" data-name="Trazado 217030" d="M50.539,29H40.508A2.508,2.508,0,0,0,38,31.508v3.344a2.508,2.508,0,0,0,2.508,2.508H50.539a2.508,2.508,0,0,0,2.508-2.508V31.508A2.508,2.508,0,0,0,50.539,29Zm.836,5.852a.836.836,0,0,1-.836.836H40.508a.836.836,0,0,1-.836-.836V31.508a.836.836,0,0,1,.836-.836H50.539a.836.836,0,0,1,.836.836Z" transform="translate(-5.742 -4.265)" fill="#03386e"/>
      <path id="Trazado_217031" data-name="Trazado 217031" d="M41.508,42a2.508,2.508,0,1,0,2.508,2.508A2.508,2.508,0,0,0,41.508,42Zm0,3.344a.836.836,0,1,1,.836-.836A.836.836,0,0,1,41.508,45.344Z" transform="translate(-5.906 -6.398)" fill="#03386e"/>
      <path id="Trazado_217032" data-name="Trazado 217032" d="M51.508,42a2.508,2.508,0,1,0,2.508,2.508A2.508,2.508,0,0,0,51.508,42Zm0,3.344a.836.836,0,1,1,.836-.836A.836.836,0,0,1,51.508,45.344Z" transform="translate(-7.546 -6.398)" fill="#03386e"/>
      <path id="Trazado_217033" data-name="Trazado 217033" d="M41.508,51a2.508,2.508,0,1,0,2.508,2.508A2.508,2.508,0,0,0,41.508,51Zm0,3.344a.836.836,0,1,1,.836-.836A.836.836,0,0,1,41.508,54.344Z" transform="translate(-5.906 -7.875)" fill="#03386e"/>
      <path id="Trazado_217034" data-name="Trazado 217034" d="M51.508,51a2.508,2.508,0,1,0,2.508,2.508A2.508,2.508,0,0,0,51.508,51Zm0,3.344a.836.836,0,1,1,.836-.836A.836.836,0,0,1,51.508,54.344Z" transform="translate(-7.546 -7.875)" fill="#03386e"/>
    </g>
  </g>
</svg>
