<svg xmlns="http://www.w3.org/2000/svg" width="85" height="85" viewBox="0 0 85 85">
  <g id="Grupo_872061" data-name="Grupo 872061" transform="translate(-1230 -20268)">
    <g id="Grupo_871566" data-name="Grupo 871566" transform="translate(1230 20268)">
      <g id="Grupo_20664" data-name="Grupo 20664" transform="translate(0 0)">
        <g id="Trazado_99075" data-name="Trazado 99075" fill="#e1efe3">
          <path d="M 42.5 83.5 C 36.96437835693359 83.5 31.59512901306152 82.41617584228516 26.54141235351562 80.27863311767578 C 21.65934181213379 78.21369171142578 17.27448272705078 75.25723266601562 13.50862312316895 71.49138641357422 C 9.742776870727539 67.72553253173828 6.786305904388428 63.34067153930664 4.721364498138428 58.45859909057617 C 2.583823442459106 53.40488052368164 1.5 48.03562164306641 1.5 42.5 C 1.5 36.96437835693359 2.583823442459106 31.59512901306152 4.721364498138428 26.54141235351562 C 6.786305904388428 21.65934181213379 9.742776870727539 17.27448272705078 13.50862312316895 13.50862312316895 C 17.27448272705078 9.742776870727539 21.65934181213379 6.786305904388428 26.54141235351562 4.721364498138428 C 31.59512901306152 2.583823442459106 36.96437835693359 1.5 42.5 1.5 C 48.03562164306641 1.5 53.40488052368164 2.583823442459106 58.45859909057617 4.721364498138428 C 63.34067153930664 6.786305904388428 67.72553253173828 9.742776870727539 71.49138641357422 13.50862312316895 C 75.25723266601562 17.27448272705078 78.21369171142578 21.65934181213379 80.27863311767578 26.54141235351562 C 82.41617584228516 31.59512901306152 83.5 36.96437835693359 83.5 42.5 C 83.5 48.03563690185547 82.41617584228516 53.40488052368164 80.27863311767578 58.45859909057617 C 78.21369171142578 63.34067153930664 75.25723266601562 67.72553253173828 71.49138641357422 71.49138641357422 C 67.72553253173828 75.25723266601562 63.34067153930664 78.21369171142578 58.45859909057617 80.27863311767578 C 53.40488052368164 82.41617584228516 48.03563690185547 83.5 42.5 83.5 Z" stroke="none"/>
          <path d="M 42.5 3 C 37.16621398925781 3 31.99356079101562 4.043960571289062 27.125732421875 6.102882385253906 C 22.42246627807617 8.092185974121094 18.19785308837891 10.94070434570312 14.56928253173828 14.56928253173828 C 10.94070434570312 18.19785308837891 8.092185974121094 22.42246627807617 6.102882385253906 27.125732421875 C 4.043960571289062 31.99356079101562 3 37.16621398925781 3 42.5 C 3 47.83378601074219 4.043960571289062 53.00643920898438 6.102882385253906 57.874267578125 C 8.092185974121094 62.57754516601562 10.94070434570312 66.80214691162109 14.56928253173828 70.43071746826172 C 18.19785308837891 74.05931091308594 22.42246627807617 76.90781402587891 27.125732421875 78.89713287353516 C 31.99356079101562 80.95603942871094 37.16621398925781 82 42.5 82 C 47.83378601074219 82 53.00643920898438 80.95603942871094 57.874267578125 78.89713287353516 C 62.57754516601562 76.90781402587891 66.80214691162109 74.05931091308594 70.43071746826172 70.43071746826172 C 74.05931091308594 66.80214691162109 76.90781402587891 62.57754516601562 78.89713287353516 57.874267578125 C 80.95603942871094 53.00643920898438 82 47.83378601074219 82 42.5 C 82 37.16621398925781 80.95603942871094 31.99356079101562 78.89713287353516 27.125732421875 C 76.90781402587891 22.42246627807617 74.05931091308594 18.19785308837891 70.43071746826172 14.56928253173828 C 66.80214691162109 10.94070434570312 62.57754516601562 8.092185974121094 57.874267578125 6.102882385253906 C 53.00643920898438 4.043960571289062 47.83378601074219 3 42.5 3 M 42.5 0 C 65.97212219238281 0 85 19.02789306640625 85 42.5 C 85 65.97212219238281 65.97212219238281 85 42.5 85 C 19.02789306640625 85 0 65.97212219238281 0 42.5 C 0 19.02789306640625 19.02789306640625 0 42.5 0 Z" stroke="none" fill="#359547"/>
        </g>
      </g>
    </g>
    <g id="lupa_1_" data-name="lupa(1)" transform="translate(1247.073 20285.074)">
      <path id="Trazado_217011" data-name="Trazado 217011" d="M39.379,34.638a21.829,21.829,0,1,0-4.741,4.741L44.564,49.3a3.348,3.348,0,0,0,4.745.005,3.421,3.421,0,0,0,0-4.74ZM1.665,21.786A20.121,20.121,0,1,1,21.786,41.907,20.121,20.121,0,0,1,1.665,21.786ZM38.328,35.955l1.657,1.657-2.369,2.369-1.661-1.652a21.966,21.966,0,0,0,2.373-2.37Zm9.791,12.173a1.708,1.708,0,0,1-2.364-.005L38.805,41.17l2.365-2.365,6.954,6.953A1.707,1.707,0,0,1,48.119,48.128Z" transform="translate(0 0)" fill="#03386e"/>
      <path id="Trazado_217012" data-name="Trazado 217012" d="M26.843,4.527a.838.838,0,1,0-.4,1.629,16.784,16.784,0,1,1-3.993-.479.838.838,0,1,0,0-1.677,18.423,18.423,0,1,0,4.391.526Z" transform="translate(-0.666 -0.658)" fill="#03386e"/>
      <path id="Trazado_217013" data-name="Trazado 217013" d="M25.838,10.515a.838.838,0,0,0,.838-.838V8.838a.838.838,0,0,0-1.677,0v.838A.838.838,0,0,0,25.838,10.515Z" transform="translate(-4.052 -1.305)" fill="#03386e"/>
      <path id="Trazado_217014" data-name="Trazado 217014" d="M18.484,11.424l-.419-.727a.838.838,0,1,0-1.452.838l.419.727a.838.838,0,1,0,1.452-.838Z" transform="translate(-2.678 -1.673)" fill="#03386e"/>
      <path id="Trazado_217015" data-name="Trazado 217015" d="M12.261,17.033l-.727-.419a.838.838,0,1,0-.838,1.452l.727.419a.838.838,0,0,0,.838-1.452Z" transform="translate(-1.673 -2.679)" fill="#03386e"/>
      <path id="Trazado_217016" data-name="Trazado 217016" d="M10.515,25.838A.838.838,0,0,0,9.677,25H8.838a.838.838,0,0,0,0,1.677h.838A.838.838,0,0,0,10.515,25.838Z" transform="translate(-1.305 -4.052)" fill="#03386e"/>
      <path id="Trazado_217017" data-name="Trazado 217017" d="M11.116,35.1a.832.832,0,0,0,.419-.112l.727-.419a.838.838,0,1,0-.838-1.452l-.727.419a.838.838,0,0,0,.419,1.564Z" transform="translate(-1.673 -5.345)" fill="#03386e"/>
      <path id="Trazado_217018" data-name="Trazado 217018" d="M18.177,38.969a.838.838,0,0,0-1.145.308L16.612,40a.838.838,0,1,0,1.452.838l.419-.726a.838.838,0,0,0-.307-1.146Z" transform="translate(-2.678 -6.292)" fill="#03386e"/>
      <path id="Trazado_217019" data-name="Trazado 217019" d="M25,41.838v.838a.838.838,0,0,0,1.677,0v-.838a.838.838,0,0,0-1.677,0Z" transform="translate(-4.052 -6.638)" fill="#03386e"/>
      <path id="Trazado_217020" data-name="Trazado 217020" d="M33.112,40.116l.419.726A.838.838,0,1,0,34.984,40l-.419-.726a.838.838,0,1,0-1.452.838Z" transform="translate(-5.345 -6.292)" fill="#03386e"/>
      <path id="Trazado_217021" data-name="Trazado 217021" d="M39.275,34.565l.727.419a.838.838,0,0,0,.838-1.452l-.727-.419a.838.838,0,1,0-.838,1.452Z" transform="translate(-6.292 -5.345)" fill="#03386e"/>
      <path id="Trazado_217022" data-name="Trazado 217022" d="M41,25.838a.838.838,0,0,0,.838.838h.838a.838.838,0,0,0,0-1.677h-.838A.838.838,0,0,0,41,25.838Z" transform="translate(-6.638 -4.052)" fill="#03386e"/>
      <path id="Trazado_217023" data-name="Trazado 217023" d="M40,16.613l-.727.419a.838.838,0,1,0,.838,1.452l.727-.419A.838.838,0,1,0,40,16.613Z" transform="translate(-6.292 -2.679)" fill="#03386e"/>
      <path id="Trazado_217024" data-name="Trazado 217024" d="M33.419,12.569a.838.838,0,0,0,1.145-.307l.419-.727a.838.838,0,1,0-1.452-.838l-.419.727a.838.838,0,0,0,.307,1.145Z" transform="translate(-5.345 -1.673)" fill="#03386e"/>
      <path id="Trazado_217025" data-name="Trazado 217025" d="M26.192,13.838a.838.838,0,1,0-1.677,0v6.826a3.347,3.347,0,0,0,.838,6.588,3.309,3.309,0,0,0,1.693-.475l1.906,1.906A.838.838,0,1,0,30.139,27.5l-1.907-1.906a3.309,3.309,0,0,0,.475-1.694,3.354,3.354,0,0,0-2.515-3.234ZM27.031,23.9a1.677,1.677,0,1,1-1.349-1.646A1.672,1.672,0,0,1,27.031,23.9Z" transform="translate(-3.568 -2.113)" fill="#03386e"/>
    </g>
  </g>
</svg>
