<svg xmlns="http://www.w3.org/2000/svg" width="295" height="161" viewBox="0 0 295 161">
  <g id="Grupo_872071" data-name="Grupo 872071" transform="translate(6534 -15226)">
    <g id="Grupo_871996" data-name="Grupo 871996" transform="translate(-6 329)">
      <rect id="Rectángulo_292176" data-name="Rectángulo 292176" width="295" height="161" transform="translate(-6528 14897)" fill="none"/>
      <g id="pregunta-y-respuesta" transform="translate(-6516.925 14871.514)">
        <path id="Trazado_217826" data-name="Trazado 217826" d="M138.466,2.434H27.663A11.677,11.677,0,0,0,16,14.1V81.545A5.832,5.832,0,0,0,25.067,86.4l12.227-8.151H138.467A11.677,11.677,0,0,0,150.13,66.583V14.1A11.677,11.677,0,0,0,138.467,2.434ZM144.3,66.583a5.838,5.838,0,0,1-5.832,5.832H36.411a2.919,2.919,0,0,0-1.617.49L21.832,81.545V14.1a5.838,5.838,0,0,1,5.832-5.832h110.8A5.838,5.838,0,0,1,144.3,14.1Z" transform="translate(125.07 40.835)" fill="#03386e"/>
        <path id="Trazado_217827" data-name="Trazado 217827" d="M64.743,6.434A26.273,26.273,0,0,0,38.5,32.676c1.378,34.789,51.113,34.78,52.486,0A26.273,26.273,0,0,0,64.743,6.434Zm0,46.654A20.434,20.434,0,0,1,44.332,32.676c.958-27.014,39.868-27.007,40.822,0A20.434,20.434,0,0,1,64.743,53.087Z" transform="translate(168.177 48.499)" fill="#03386e"/>
        <path id="Trazado_217828" data-name="Trazado 217828" d="M56.339,9.546A10.929,10.929,0,0,0,43.525,21.209a2.916,2.916,0,1,0,5.832,0,4.915,4.915,0,0,1,4.681-5.832h2.3a4.687,4.687,0,0,1,4.681,4.681c.162,2.6-2.325,4.159-4.259,5.345-3.364,1.845-7.462,10.428-1.573,11.3A2.916,2.916,0,0,0,58.1,33.791,4.241,4.241,0,0,1,60,30.256c10.7-5.3,8.351-20.065-3.658-20.71Z" transform="translate(177.732 54.135)" fill="#03386e"/>
        <path id="Trazado_217829" data-name="Trazado 217829" d="M49.416,19.43a2.916,2.916,0,1,0,2.916,2.916,2.916,2.916,0,0,0-2.916-2.916Z" transform="translate(183.504 73.398)" fill="#03386e"/>
        <path id="Trazado_217830" data-name="Trazado 217830" d="M57.907,8.434H22.916a2.916,2.916,0,1,0,0,5.832h34.99a2.916,2.916,0,1,0,0-5.832Z" transform="translate(132.733 52.33)" fill="#03386e"/>
        <path id="Trazado_217831" data-name="Trazado 217831" d="M57.907,13.434H22.916a2.916,2.916,0,1,0,0,5.832h34.99a2.916,2.916,0,1,0,0-5.832Z" transform="translate(132.733 61.91)" fill="#03386e"/>
        <path id="Trazado_217832" data-name="Trazado 217832" d="M57.907,18.434H22.916a2.916,2.916,0,1,0,0,5.832h34.99a2.916,2.916,0,1,0,0-5.832Z" transform="translate(132.733 71.489)" fill="#03386e"/>
        <path id="Trazado_217833" data-name="Trazado 217833" d="M124.466,32.434H13.663A11.677,11.677,0,0,0,2,44.1V96.583a11.677,11.677,0,0,0,11.663,11.663H114.836l12.227,8.151a5.871,5.871,0,0,0,9.067-4.852V44.1a11.677,11.677,0,0,0-11.663-11.663Zm5.832,79.111L117.336,102.9a2.919,2.919,0,0,0-1.617-.49H13.663a5.838,5.838,0,0,1-5.832-5.832V44.1a5.838,5.838,0,0,1,5.832-5.832h110.8A5.838,5.838,0,0,1,130.3,44.1s.016,67.457,0,67.448Z" transform="translate(0 46.208)" fill="#03386e"/>
        <path id="Trazado_217834" data-name="Trazado 217834" d="M52.243,36.434A26.273,26.273,0,0,0,26,62.676c1.378,34.789,51.113,34.78,52.486,0A26.273,26.273,0,0,0,52.243,36.434Zm0,46.654A20.434,20.434,0,0,1,31.832,62.676c.958-27.014,39.868-27.007,40.822,0A20.434,20.434,0,0,1,52.243,83.087Z" transform="translate(45.981 53.871)" fill="#03386e"/>
        <path id="Trazado_217835" data-name="Trazado 217835" d="M45.407,38.434H10.416a2.916,2.916,0,1,0,0,5.832h34.99a2.916,2.916,0,1,0,0-5.832Z" transform="translate(10.537 57.703)" fill="#03386e"/>
        <path id="Trazado_217836" data-name="Trazado 217836" d="M45.407,43.434H10.416a2.916,2.916,0,1,0,0,5.832h34.99a2.916,2.916,0,1,0,0-5.832Z" transform="translate(10.537 67.282)" fill="#03386e"/>
        <path id="Trazado_217837" data-name="Trazado 217837" d="M45.407,48.434H10.416a2.916,2.916,0,1,0,0,5.832h34.99a2.916,2.916,0,1,0,0-5.832Z" transform="translate(10.537 76.861)" fill="#03386e"/>
        <path id="Trazado_217838" data-name="Trazado 217838" d="M49.35,43.288l-9.6,9.6-3.77-3.77a2.916,2.916,0,1,0-4.123,4.124l5.832,5.831a2.915,2.915,0,0,0,4.123,0L53.473,47.411a2.916,2.916,0,1,0-4.124-4.124Z" transform="translate(55.56 65.366)" fill="#03386e"/>
      </g>
    </g>
  </g>
</svg>
