<svg xmlns="http://www.w3.org/2000/svg" width="82" height="82.001" viewBox="0 0 82 82.001">
  <g id="Grupo_872034" data-name="Grupo 872034" transform="translate(-1173 -2011)">
    <circle id="Elipse_4713" data-name="Elipse 4713" cx="41" cy="41" r="41" transform="translate(1173 2011)" fill="#fff"/>
    <g id="businessman_1_" data-name="businessman(1)" transform="translate(1178.5 2021.75)">
      <path id="Trazado_213958" data-name="Trazado 213958" d="M50.725,403v9.084H10.894V403a7.067,7.067,0,0,1,7.066-7.067h25.7A7.067,7.067,0,0,1,50.725,403Zm0,0" transform="translate(-8.948 -340.835)" fill="#3b485b"/>
      <path id="Trazado_213959" data-name="Trazado 213959" d="M65.7,403v9.084H28.293V403a7.067,7.067,0,0,1,7.067-7.067H58.636A7.067,7.067,0,0,1,65.7,403Zm0,0" transform="translate(-23.925 -340.835)" fill="#515f75"/>
      <path id="Trazado_213960" data-name="Trazado 213960" d="M60.448,395.938l-.428,10.868,4.568,1.142-4.1,4.1H85.711l-4.1-4.1,4.569-1.142-.429-10.868" transform="translate(-51.237 -340.838)" fill="#3b485b"/>
      <path id="Trazado_213961" data-name="Trazado 213961" d="M108.844,395.938l-4.6,16.15H96.027l-4.6-16.15" transform="translate(-78.272 -340.838)" fill="#f2f2f2"/>
      <path id="Trazado_213962" data-name="Trazado 213962" d="M113.559,418.152l5.629,7.046,5.573-7.02-5.573-1.042Z" transform="translate(-97.325 -359.087)" fill="#f74866"/>
      <path id="Trazado_213963" data-name="Trazado 213963" d="M94.012,405.012l6.123-6.124,6.123,6.124,2.586-9.074H91.426Zm0,0" transform="translate(-78.273 -340.838)" fill="#e6e6e6"/>
      <path id="Trazado_213964" data-name="Trazado 213964" d="M126.858,330.7v9.074l-5.235,2.95L120,341.814l-3.618-2.039v-9.08H120Zm0,0" transform="translate(-99.76 -284.674)" fill="#f9c2af"/>
      <path id="Trazado_213965" data-name="Trazado 213965" d="M124.7,480.2l4.079-5.139,4.107,5.139" transform="translate(-106.915 -408.951)" fill="#f74866"/>
      <path id="Trazado_213966" data-name="Trazado 213966" d="M120,330.7h-3.618v9.08L120,341.813v-4.2c.535.052,1.076.083,1.625.083a16.4,16.4,0,0,0,5.228-.85V330.7Zm0,0" transform="translate(-99.76 -284.675)" fill="#ea9e8f"/>
      <path id="Trazado_213967" data-name="Trazado 213967" d="M5.436,207.419a4.446,4.446,0,1,1,0-8.837H38.3a4.446,4.446,0,1,1,0,8.837" transform="translate(0 -170.947)" fill="#ea9e8f"/>
      <path id="Trazado_213968" data-name="Trazado 213968" d="M68.837,129.09v16.435a16.434,16.434,0,1,1-32.869,0V129.09Zm0,0" transform="translate(-30.532 -111.125)" fill="#f9c2af"/>
      <path id="Trazado_213969" data-name="Trazado 213969" d="M52.286,161.961a16.432,16.432,0,0,1-16.317-16.433V129.093h7.4v16.435a24.627,24.627,0,0,0,2.646,11.621C47.623,160.076,49.838,161.9,52.286,161.961Zm0,0" transform="translate(-30.533 -111.128)" fill="#ea9e8f"/>
      <path id="Trazado_213970" data-name="Trazado 213970" d="M189.328,218.291a1.09,1.09,0,0,1-1.09-1.09v-2.284a1.09,1.09,0,1,1,2.18,0V217.2A1.09,1.09,0,0,1,189.328,218.291Zm0,0" transform="translate(-161.612 -184.071)" fill="#293544"/>
      <path id="Trazado_213971" data-name="Trazado 213971" d="M105.309,218.291a1.09,1.09,0,0,1-1.09-1.09v-2.284a1.09,1.09,0,1,1,2.18,0V217.2A1.09,1.09,0,0,1,105.309,218.291Zm0,0" transform="translate(-89.285 -184.071)" fill="#293544"/>
      <path id="Trazado_213972" data-name="Trazado 213972" d="M68.837,129.09v4.119a16.683,16.683,0,0,1-4.074,2.091,26.028,26.028,0,0,1-15.8.286s0,0,0,0a27.648,27.648,0,0,1-5.822-2.293s-1.5,7.213-7.174,7.213V129.09Zm0,0" transform="translate(-30.532 -111.125)" fill="#ea9e8f"/>
      <path id="Trazado_213973" data-name="Trazado 213973" d="M42.116,22.43a26.022,26.022,0,0,1-15.8.287,0,0,0,0,1,0,0A27.686,27.686,0,0,1,20.5,20.422S19,27.634,13.32,27.634c0,0-3.776-6.68-3.658-12.861a5.709,5.709,0,0,1,7.414-5.341A10.464,10.464,0,0,1,27.537,2.658c.717.045,1.438.1,2.161.167l.417.038.043,0C37.67,3.572,45.278,4.946,49.748,0c0,0,7.388,17.02-7.633,22.43Zm0,0" transform="translate(-7.885)" fill="#515f75"/>
      <path id="Trazado_213974" data-name="Trazado 213974" d="M27.538,18.981c.717.045,1.438.1,2.162.167-6.628-.279-11.893,14.316-3.382,19.891A27.686,27.686,0,0,1,20.5,36.744s-1.5,7.213-7.176,7.213c0,0-3.776-6.68-3.658-12.861a5.709,5.709,0,0,1,7.414-5.341,10.464,10.464,0,0,1,10.461-6.774Zm0,0" transform="translate(-7.885 -16.322)" fill="#3b485b"/>
      <path id="Trazado_213975" data-name="Trazado 213975" d="M156.7,20.576l-.046-.005.043,0Zm0,0" transform="translate(-134.425 -17.708)" fill="#f4af9d"/>
      <path id="Trazado_213976" data-name="Trazado 213976" d="M122.379,284.861a6.769,6.769,0,0,1-4.8-1.986,1.09,1.09,0,1,1,1.541-1.542,4.618,4.618,0,0,0,6.523,0,1.09,1.09,0,1,1,1.541,1.542A6.772,6.772,0,0,1,122.379,284.861Zm0,0" transform="translate(-100.509 -241.908)" fill="#e06e86"/>
      <path id="Trazado_213977" data-name="Trazado 213977" d="M272.246,228.855h32.836v39.4H272.246Zm0,0" transform="translate(-233.929 -197.007)" fill="#fef5e5"/>
      <path id="Trazado_213978" data-name="Trazado 213978" d="M357.478,198.458v4.8a2.274,2.274,0,0,1-2.275,2.273h-8.081a2.273,2.273,0,0,1-2.273-2.273v-4.8a2.275,2.275,0,0,1,2.273-2.275H355.2A2.275,2.275,0,0,1,357.478,198.458Zm0,0" transform="translate(-296.428 -168.882)" fill="#f4af9d"/>
      <path id="Trazado_213979" data-name="Trazado 213979" d="M381.09,198.458v4.8a2.274,2.274,0,0,1-2.275,2.273h-4.264a2.272,2.272,0,0,1-2.273-2.273v-4.8a2.274,2.274,0,0,1,2.273-2.275h4.264A2.275,2.275,0,0,1,381.09,198.458Zm0,0" transform="translate(-320.04 -168.882)" fill="#f9c2af"/>
      <g id="Grupo_154247" data-name="Grupo 154247" transform="translate(44.275 42.595)">
        <path id="Trazado_213980" data-name="Trazado 213980" d="M335.182,308.258H316.153a1.09,1.09,0,1,1,0-2.18h19.029a1.09,1.09,0,1,1,0,2.18Zm0,0" transform="translate(-315.063 -306.078)" fill="#515f75"/>
        <path id="Trazado_213981" data-name="Trazado 213981" d="M335.182,353.836H316.153a1.09,1.09,0,1,1,0-2.18h19.029a1.09,1.09,0,1,1,0,2.18Zm0,0" transform="translate(-315.063 -345.313)" fill="#515f75"/>
        <path id="Trazado_213982" data-name="Trazado 213982" d="M335.182,399.414H316.153a1.09,1.09,0,1,1,0-2.18h19.029a1.09,1.09,0,1,1,0,2.18Zm0,0" transform="translate(-315.063 -384.548)" fill="#515f75"/>
        <path id="Trazado_213983" data-name="Trazado 213983" d="M350.106,445H336.832a1.09,1.09,0,1,1,0-2.18h13.274a1.09,1.09,0,1,1,0,2.18Zm0,0" transform="translate(-332.864 -423.787)" fill="#515f75"/>
      </g>
      <path id="Trazado_213984" data-name="Trazado 213984" d="M245.921,429.215l-5.356,5.356h-.452l-6.473-6.472,5.582-5.582a1.579,1.579,0,0,1,2.233,0l2.7,2.7,1.768,1.768A1.576,1.576,0,0,1,245.921,429.215Zm0,0" transform="translate(-200.696 -363.32)" fill="#f4af9d"/>
      <path id="Trazado_213985" data-name="Trazado 213985" d="M262.62,445.91l-5.356,5.356h-.452l-3.773-3.773,5.582-5.582a1.576,1.576,0,0,1,2.231,0l1.768,1.768A1.576,1.576,0,0,1,262.62,445.91Zm0,0" transform="translate(-217.395 -380.015)" fill="#f9c2af"/>
      <path id="Trazado_213986" data-name="Trazado 213986" d="M200.081,471.958H187.137l6.473-6.473Zm0,0" transform="translate(-160.664 -400.706)" fill="#515f75"/>
      <path id="Trazado_213987" data-name="Trazado 213987" d="M196.289,468.164l-3.794,3.794h-5.358l6.473-6.473Zm0,0" transform="translate(-160.664 -400.706)" fill="#3b485b"/>
      <path id="Trazado_213988" data-name="Trazado 213988" d="M272.55,394.436a1.09,1.09,0,0,1-.771-1.861l4.983-4.983a1.09,1.09,0,0,1,1.542,1.541l-4.984,4.983A1.085,1.085,0,0,1,272.55,394.436Zm0,0" transform="translate(-233.253 -333.379)" fill="#f4af9d"/>
    </g>
  </g>
</svg>
