<svg xmlns="http://www.w3.org/2000/svg" xmlns:xlink="http://www.w3.org/1999/xlink" width="82" height="82" viewBox="0 0 82 82">
  <defs>
    <clipPath id="clip-path">
      <rect id="Rectángulo_43540" data-name="Rectángulo 43540" width="82" height="82" transform="translate(759 2011)" fill="#fff"/>
    </clipPath>
  </defs>
  <g id="Grupo_872033" data-name="Grupo 872033" transform="translate(-759 -2011)">
    <circle id="Elipse_4712" data-name="Elipse 4712" cx="41" cy="41" r="41" transform="translate(759 2011)" fill="#fff"/>
    <g id="Enmascarar_grupo_71" data-name="Enmascarar grupo 71" clip-path="url(#clip-path)">
      <g id="leader" transform="translate(770 2018.587)">
        <path id="Trazado_213919" data-name="Trazado 213919" d="M50.506,337.032v24.5H8.653v-24.5a7.425,7.425,0,0,1,7.425-7.426h27a7.426,7.426,0,0,1,7.426,7.426Zm0,0" transform="translate(-7.133 -271.709)" fill="#3b485b"/>
        <path id="Trazado_213920" data-name="Trazado 213920" d="M62.446,337.032v24.5H23.137v-24.5a7.426,7.426,0,0,1,7.426-7.426H55.02a7.426,7.426,0,0,1,7.426,7.426Zm0,0" transform="translate(-19.073 -271.709)" fill="#515f75"/>
        <path id="Trazado_213921" data-name="Trazado 213921" d="M50,329.609l-.451,11.419,4.8,1.2-4.31,4.31,13.254,15,13.252-15-4.31-4.31,4.8-1.2-.45-11.419" transform="translate(-40.844 -271.712)" fill="#3b485b"/>
        <path id="Trazado_213922" data-name="Trazado 213922" d="M93.991,329.605l-4.857,16.948L84.84,361.539,80.55,346.575l-4.863-16.97Zm0,0" transform="translate(-62.393 -271.709)" fill="#f2f2f2"/>
        <path id="Trazado_213923" data-name="Trazado 213923" d="M111.954,400.854,107.66,415.84l-4.289-14.964,4.286-5.4Zm0,0" transform="translate(-85.213 -326.01)" fill="#f74866"/>
        <path id="Trazado_213924" data-name="Trazado 213924" d="M94.121,348.323l5.915,7.4,5.856-7.375-5.856-1.094Z" transform="translate(-77.588 -286.261)" fill="#f74866"/>
        <path id="Trazado_213925" data-name="Trazado 213925" d="M78.412,339.144l6.435-6.434,6.434,6.434L94,329.61H75.7Zm0,0" transform="translate(-62.4 -271.713)" fill="#e6e6e6"/>
        <path id="Trazado_213926" data-name="Trazado 213926" d="M107.475,275.3v9.535l-5.5,3.1-1.7-.958-3.8-2.142v-9.541h3.8Zm0,0" transform="translate(-79.527 -226.937)" fill="#f9c2af"/>
        <path id="Trazado_213927" data-name="Trazado 213927" d="M100.274,275.295h-3.8v9.541l3.8,2.142v-4.411c.561.055,1.13.086,1.707.086a17.236,17.236,0,0,0,5.493-.893V275.3Zm0,0" transform="translate(-79.527 -226.937)" fill="#ea9e8f"/>
        <path id="Trazado_213928" data-name="Trazado 213928" d="M5.187,174.6a4.671,4.671,0,1,1,0-9.286H39.723a4.671,4.671,0,1,1,0,9.286" transform="translate(0 -136.275)" fill="#ea9e8f"/>
        <path id="Trazado_213929" data-name="Trazado 213929" d="M64.064,107.465v17.27a17.269,17.269,0,1,1-34.537,0v-17.27Zm0,0" transform="translate(-24.34 -88.588)" fill="#f9c2af"/>
        <path id="Trazado_213930" data-name="Trazado 213930" d="M46.673,142a17.267,17.267,0,0,1-17.145-17.268V107.465H37.3v17.269a25.869,25.869,0,0,0,2.781,12.211c1.691,3.077,4.017,5,6.59,5.057Zm0,0" transform="translate(-24.341 -88.588)" fill="#ea9e8f"/>
        <path id="Trazado_213931" data-name="Trazado 213931" d="M157.435,182.694a1.145,1.145,0,0,1-1.145-1.145v-2.4a1.145,1.145,0,1,1,2.29,0v2.4A1.145,1.145,0,0,1,157.435,182.694Zm0,0" transform="translate(-128.837 -146.737)" fill="#293544"/>
        <path id="Trazado_213932" data-name="Trazado 213932" d="M87.489,182.694a1.145,1.145,0,0,1-1.145-1.145v-2.4a1.146,1.146,0,1,1,2.291,0v2.4A1.146,1.146,0,0,1,87.489,182.694Zm0,0" transform="translate(-71.177 -146.737)" fill="#293544"/>
        <path id="Trazado_213933" data-name="Trazado 213933" d="M64.064,107.465v4.327a17.456,17.456,0,0,1-4.28,2.2,27.353,27.353,0,0,1-16.6.3s0,0,0,0a29.031,29.031,0,0,1-6.117-2.41s-1.575,7.579-7.539,7.579V107.465Zm0,0" transform="translate(-24.34 -88.588)" fill="#ea9e8f"/>
        <path id="Trazado_213934" data-name="Trazado 213934" d="M41.731,23.569a27.343,27.343,0,0,1-16.6.3,0,0,0,0,1,0,0,29.1,29.1,0,0,1-6.116-2.41s-1.575,7.578-7.539,7.578c0,0-3.968-7.019-3.844-13.514a6,6,0,0,1,7.79-5.612A10.994,10.994,0,0,1,26.413,2.794q1.129.07,2.271.176c.145.012.292.025.438.039l.045,0C37.059,3.754,45.054,5.2,49.75,0c0,0,7.764,17.884-8.02,23.569Zm0,0" transform="translate(-6.288)" fill="#515f75"/>
        <path id="Trazado_213935" data-name="Trazado 213935" d="M26.413,15.8q1.13.07,2.271.176c-6.964-.294-12.5,15.042-3.554,20.9a29.076,29.076,0,0,1-6.116-2.411s-1.575,7.579-7.539,7.579c0,0-3.968-7.019-3.844-13.514a6,6,0,0,1,7.79-5.612A10.994,10.994,0,0,1,26.413,15.8Zm0,0" transform="translate(-6.288 -13.011)" fill="#3b485b"/>
        <path id="Trazado_213936" data-name="Trazado 213936" d="M130.045,17.131a.384.384,0,0,0-.048-.006l.045,0Zm0,0" transform="translate(-107.162 -14.117)" fill="#f4af9d"/>
        <path id="Trazado_213937" data-name="Trazado 213937" d="M102.577,237.979a7.116,7.116,0,0,1-5.047-2.087,1.146,1.146,0,1,1,1.62-1.62,4.851,4.851,0,0,0,6.853,0,1.146,1.146,0,0,1,1.62,1.62,7.118,7.118,0,0,1-5.047,2.087Zm0,0" transform="translate(-80.123 -192.845)" fill="#e06e86"/>
        <g id="Grupo_154246" data-name="Grupo 154246" transform="translate(8.039 45.134)">
          <path id="Trazado_213938" data-name="Trazado 213938" d="M143.2,416h-10.3V400.4l4.958-4.857L143.2,400.4Zm0,0" transform="translate(-132.895 -375.114)" fill="#515f75"/>
          <path id="Trazado_213939" data-name="Trazado 213939" d="M405.071,425.907h-10.3v-15.6l5.3-2.747,5,2.747Zm0,0" transform="translate(-348.77 -385.02)" fill="#515f75"/>
          <path id="Trazado_213940" data-name="Trazado 213940" d="M394.77,423.2h4.12v15.6h-4.12Zm0,0" transform="translate(-348.771 -397.909)" fill="#3b485b"/>
          <g id="Grupo_154245" data-name="Grupo 154245" transform="translate(4.958 0.001)">
            <path id="Trazado_213941" data-name="Trazado 213941" d="M256.41,348.884a9.943,9.943,0,1,1-9.943-9.943A9.943,9.943,0,0,1,256.41,348.884Zm0,0" transform="translate(-223.278 -328.453)" fill="#d68316"/>
            <path id="Trazado_213942" data-name="Trazado 213942" d="M241.422,289.59l3.722-6.445a2.61,2.61,0,0,0-4.52-2.61l-3.722,6.446-13.136,22.753-3.72,6.444a2.61,2.61,0,1,0,4.52,2.61l3.72-6.444Zm0,0" transform="translate(-209.406 -279.23)" fill="#d68316"/>
            <path id="Trazado_213943" data-name="Trazado 213943" d="M207.5,383.3a2.61,2.61,0,0,1-2.611,2.608H163.73a2.61,2.61,0,0,1,0-5.221h33.716l7.441,0a2.606,2.606,0,0,1,2.4,1.571,2.579,2.579,0,0,1,.216,1.038Zm0,0" transform="translate(-161.12 -362.863)" fill="#d68316"/>
          </g>
          <path id="Trazado_213944" data-name="Trazado 213944" d="M208.288,382.257a2.611,2.611,0,0,1-2.4,1.571H164.735a1.714,1.714,0,1,1,0-3.146h33.716l7.441,0a2.606,2.606,0,0,1,2.4,1.571Zm0,0" transform="translate(-157.168 -362.862)" fill="#efa233"/>
          <path id="Trazado_213945" data-name="Trazado 213945" d="M241.416,309.732l3.72,6.446a2.61,2.61,0,1,1-4.522,2.609l-3.722-6.446-13.137-22.753-3.72-6.442a2.61,2.61,0,0,1,4.52-2.611l3.722,6.446Zm0,0" transform="translate(-204.441 -279.227)" fill="#d68316"/>
          <path id="Trazado_213946" data-name="Trazado 213946" d="M230.444,279.24a2.611,2.611,0,0,0-.163,2.86L234,288.546,247.139,311.3l3.719,6.443a1.714,1.714,0,1,0,2.725-1.573l-16.858-29.2L233,280.529a2.606,2.606,0,0,0-2.559-1.289Zm0,0" transform="translate(-212.887 -279.224)" fill="#efa233"/>
          <path id="Trazado_213947" data-name="Trazado 213947" d="M253.419,285.156a2.61,2.61,0,0,0-2.559,1.289l-3.721,6.446L234,315.644l-3.719,6.442a1.714,1.714,0,1,0,2.725,1.573l16.858-29.2,3.718-6.445a2.606,2.606,0,0,0-.163-2.861Zm0,0" transform="translate(-212.888 -284.1)" fill="#efa233"/>
          <path id="Trazado_213948" data-name="Trazado 213948" d="M223.581,321.1a13.391,13.391,0,1,0,18.293,4.9A13.391,13.391,0,0,0,223.581,321.1Zm10.953,18.972a8.517,8.517,0,1,1,3.119-11.634A8.516,8.516,0,0,1,234.534,340.067Zm0,0" transform="translate(-202.131 -312.26)" fill="#efa233"/>
          <path id="Trazado_213949" data-name="Trazado 213949" d="M143.2,366.275v8.585h-10.3v-8.585a1.716,1.716,0,0,1,1.716-1.716h6.869A1.716,1.716,0,0,1,143.2,366.275Zm0,0" transform="translate(-132.895 -349.569)" fill="#f4af9d"/>
          <path id="Trazado_213950" data-name="Trazado 213950" d="M162.677,366.275v8.585h-6.15v-8.585a1.715,1.715,0,0,1,1.716-1.716h2.718a1.716,1.716,0,0,1,1.716,1.716Zm0,0" transform="translate(-152.376 -349.569)" fill="#f9c2af"/>
          <path id="Trazado_213951" data-name="Trazado 213951" d="M132.895,423.2h4.12v15.6h-4.12Zm0,0" transform="translate(-132.895 -397.909)" fill="#3b485b"/>
          <path id="Trazado_213952" data-name="Trazado 213952" d="M132.895,423.2h10.3v5.814h-10.3Zm0,0" transform="translate(-132.895 -397.909)" fill="#e6e6e6"/>
          <path id="Trazado_213953" data-name="Trazado 213953" d="M132.895,423.2h4.12v5.814h-4.12Zm0,0" transform="translate(-132.895 -397.909)" fill="#ccc"/>
          <path id="Trazado_213954" data-name="Trazado 213954" d="M405.071,366.275v8.585h-10.3v-8.585a1.716,1.716,0,0,1,1.715-1.716h6.87A1.716,1.716,0,0,1,405.071,366.275Zm0,0" transform="translate(-348.77 -349.569)" fill="#f4af9d"/>
          <path id="Trazado_213955" data-name="Trazado 213955" d="M424.555,366.275v8.585h-6.149v-8.585a1.715,1.715,0,0,1,1.716-1.716h2.717A1.716,1.716,0,0,1,424.555,366.275Zm0,0" transform="translate(-368.256 -349.569)" fill="#f9c2af"/>
          <path id="Trazado_213956" data-name="Trazado 213956" d="M394.77,423.2h10.3v5.814h-10.3Zm0,0" transform="translate(-348.771 -397.909)" fill="#e6e6e6"/>
          <path id="Trazado_213957" data-name="Trazado 213957" d="M394.77,423.2h4.12v5.814h-4.12Zm0,0" transform="translate(-348.771 -397.909)" fill="#ccc"/>
        </g>
      </g>
    </g>
  </g>
</svg>
