<svg xmlns="http://www.w3.org/2000/svg" width="82" height="82" viewBox="0 0 82 82">
  <g id="Grupo_872032" data-name="Grupo 872032" transform="translate(-346 -2011)">
    <circle id="Elipse_4711" data-name="Elipse 4711" cx="41" cy="41" r="41" transform="translate(346 2011)" fill="#fff"/>
    <g id="businessman" transform="translate(360 2018.587)">
      <path id="Trazado_213892" data-name="Trazado 213892" d="M277.6,311.522a8.593,8.593,0,1,1,8.593-8.593A8.6,8.6,0,0,1,277.6,311.522Zm0-14.909a6.316,6.316,0,1,0,6.316,6.316A6.323,6.323,0,0,0,277.6,296.612Zm0,0" transform="translate(-229.911 -251.557)" fill="#ffc627"/>
      <path id="Trazado_213893" data-name="Trazado 213893" d="M51.994,403.315V412.8h-41.6v-9.488a7.38,7.38,0,0,1,7.379-7.381H44.613a7.38,7.38,0,0,1,7.381,7.381Zm0,0" transform="translate(-8.883 -338.389)" fill="#3b485b"/>
      <path id="Trazado_213894" data-name="Trazado 213894" d="M66.864,403.315l3.415,9.488H27.793v-9.488a7.38,7.38,0,0,1,7.381-7.381H59.483a7.38,7.38,0,0,1,7.381,7.381Zm0,0" transform="translate(-23.754 -338.389)" fill="#515f75"/>
      <path id="Trazado_213895" data-name="Trazado 213895" d="M59.968,395.941l-.448,11.35,4.771,1.193-4.284,4.283H86.351l-4.284-4.283,4.771-1.193-.448-11.35" transform="translate(-50.869 -338.395)" fill="#3b485b"/>
      <path id="Trazado_213896" data-name="Trazado 213896" d="M109.12,395.941l-4.806,16.867H95.735L90.93,395.941" transform="translate(-77.714 -338.395)" fill="#f2f2f2"/>
      <path id="Trazado_213897" data-name="Trazado 213897" d="M113.063,418.2l5.878,7.358,5.82-7.33-5.82-1.088Z" transform="translate(-96.631 -356.514)" fill="#f74866"/>
      <path id="Trazado_213898" data-name="Trazado 213898" d="M93.63,405.418l6.395-6.395,6.4,6.395,2.7-9.476H90.93Zm0,0" transform="translate(-77.714 -338.396)" fill="#e6e6e6"/>
      <path id="Trazado_213899" data-name="Trazado 213899" d="M126.826,330.7v9.478l-5.468,3.08-1.689-.952-3.778-2.129v-9.483l3.778,0Zm0,0" transform="translate(-99.047 -282.632)" fill="#f9c2af"/>
      <path id="Trazado_213900" data-name="Trazado 213900" d="M124.2,480.43l4.26-5.368,4.29,5.368" transform="translate(-106.148 -406.017)" fill="#f74866"/>
      <path id="Trazado_213901" data-name="Trazado 213901" d="M119.669,330.7l-3.778,0v9.483l3.778,2.13v-4.385c.559.055,1.124.086,1.7.086a17.126,17.126,0,0,0,5.46-.887V330.7Zm0,0" transform="translate(-99.048 -282.632)" fill="#ea9e8f"/>
      <path id="Trazado_213902" data-name="Trazado 213902" d="M5.155,207.811a4.643,4.643,0,1,1,0-9.229H33.5c2.847,0,2.847,9.229,0,9.229" transform="translate(0 -169.72)" fill="#ea9e8f"/>
      <path id="Trazado_213903" data-name="Trazado 213903" d="M69.8,129.09v17.165a17.164,17.164,0,1,1-34.328,0V129.09Zm0,0" transform="translate(-30.313 -110.328)" fill="#f9c2af"/>
      <path id="Trazado_213904" data-name="Trazado 213904" d="M52.511,163.42a17.162,17.162,0,0,1-17.041-17.163V129.093H43.2v17.164a25.713,25.713,0,0,0,2.764,12.137c1.681,3.058,3.993,4.966,6.55,5.026Zm0,0" transform="translate(-30.314 -110.331)" fill="#ea9e8f"/>
      <path id="Trazado_213905" data-name="Trazado 213905" d="M220.208,218.489a1.138,1.138,0,0,1-1.138-1.138v-2.385a1.138,1.138,0,0,1,2.277,0v2.385A1.138,1.138,0,0,1,220.208,218.489Zm0,0" transform="translate(-187.231 -182.75)" fill="#293544"/>
      <path id="Trazado_213906" data-name="Trazado 213906" d="M136.189,218.489a1.138,1.138,0,0,1-1.138-1.138v-2.385a1.138,1.138,0,0,1,2.277,0v2.385A1.138,1.138,0,0,1,136.189,218.489Zm0,0" transform="translate(-115.423 -182.75)" fill="#293544"/>
      <path id="Trazado_213907" data-name="Trazado 213907" d="M69.8,129.09v4.3a17.379,17.379,0,0,1-4.254,2.184,27.189,27.189,0,0,1-16.5.3,0,0,0,0,1,0,0,28.878,28.878,0,0,1-6.08-2.4s-1.565,7.533-7.493,7.533V129.09Zm0,0" transform="translate(-30.313 -110.328)" fill="#ea9e8f"/>
      <path id="Trazado_213908" data-name="Trazado 213908" d="M43.056,23.426a27.184,27.184,0,0,1-16.5.3,0,0,0,0,1,0,0,28.915,28.915,0,0,1-6.079-2.4s-1.565,7.533-7.494,7.533c0,0-3.943-6.977-3.82-13.432a5.962,5.962,0,0,1,7.743-5.578A10.928,10.928,0,0,1,27.831,2.776c.748.047,1.5.106,2.257.174l.435.039.045,0C38.413,3.731,46.359,5.165,51.028,0c0,0,7.716,17.775-7.971,23.426Zm0,0" transform="translate(-7.829 0)" fill="#515f75"/>
      <path id="Trazado_213909" data-name="Trazado 213909" d="M27.832,18.982c.748.047,1.5.106,2.257.174-6.921-.292-12.421,14.951-3.532,20.774a28.915,28.915,0,0,1-6.079-2.4s-1.565,7.533-7.494,7.533c0,0-3.943-6.977-3.82-13.432a5.962,5.962,0,0,1,7.743-5.578,10.929,10.929,0,0,1,10.925-7.075Zm0,0" transform="translate(-7.829 -16.205)" fill="#3b485b"/>
      <path id="Trazado_213910" data-name="Trazado 213910" d="M156.2,20.576l-.048-.006.045,0Zm0,0" transform="translate(-133.46 -17.58)" fill="#f4af9d"/>
      <path id="Trazado_213911" data-name="Trazado 213911" d="M171.972,270.2a2.732,2.732,0,0,1-2.732,2.732h-.114a2.731,2.731,0,0,1-2.732-2.732,2.681,2.681,0,0,1,.14-.861,2.731,2.731,0,0,1,2.592-1.871h.114a2.727,2.727,0,0,1,2.592,1.871A2.7,2.7,0,0,1,171.972,270.2Zm0,0" transform="translate(-142.211 -228.592)" fill="#3b485b"/>
      <path id="Trazado_213912" data-name="Trazado 213912" d="M172.655,269.336h-5.3a2.731,2.731,0,0,1,2.592-1.871h.114a2.727,2.727,0,0,1,2.592,1.871Zm0,0" transform="translate(-143.033 -228.592)" fill="#fff"/>
      <path id="Trazado_213913" data-name="Trazado 213913" d="M264.9,211.539v21.616l-25.549-6.075v-9.466Zm0,0" transform="translate(-204.562 -180.794)" fill="#ffc627"/>
      <path id="Trazado_213914" data-name="Trazado 213914" d="M264.9,296.08v8.142l-25.549-6.075v-3.456Zm0,0" transform="translate(-204.562 -251.861)" fill="#eaad18"/>
      <path id="Trazado_213915" data-name="Trazado 213915" d="M305.158,368.793v7.115h-8.537v-7.115a1.422,1.422,0,0,1,1.422-1.422h5.693A1.422,1.422,0,0,1,305.158,368.793Zm0,0" transform="translate(-253.511 -313.978)" fill="#f4af9d"/>
      <path id="Trazado_213916" data-name="Trazado 213916" d="M325.39,368.793v7.115h-5.1v-7.115a1.421,1.421,0,0,1,1.422-1.422h2.253A1.422,1.422,0,0,1,325.39,368.793Zm0,0" transform="translate(-273.742 -313.978)" fill="#f9c2af"/>
      <path id="Trazado_213917" data-name="Trazado 213917" d="M296.621,426.109h8.537v12.483h-8.537Zm0,0" transform="translate(-253.511 -364.179)" fill="#515f75"/>
      <path id="Trazado_213918" data-name="Trazado 213918" d="M296.621,426.109h3.415v12.483h-3.415Zm0,0" transform="translate(-253.511 -364.179)" fill="#3b485b"/>
    </g>
  </g>
</svg>
