<svg xmlns="http://www.w3.org/2000/svg" xmlns:xlink="http://www.w3.org/1999/xlink" width="170" height="119" viewBox="0 0 170 119">
  <defs>
    <clipPath id="clip-path">
      <rect id="Rectángulo_291220" data-name="Rectángulo 291220" width="170" height="108.353" fill="none"/>
    </clipPath>
  </defs>
  <g id="Grupo_872036" data-name="Grupo 872036" transform="translate(-978 -4520)">
    <g id="Grupo_870536" data-name="Grupo 870536">
      <rect id="Rectángulo_291222" data-name="Rectángulo 291222" width="170" height="119" transform="translate(978 4520)" fill="none"/>
      <g id="Grupo_870534" data-name="Grupo 870534" transform="translate(978 4530.647)">
        <g id="Grupo_870534-2" data-name="Grupo 870534" clip-path="url(#clip-path)">
          <path id="Trazado_214695" data-name="Trazado 214695" d="M57.011,2.123H12.485A6.362,6.362,0,0,0,6.122,8.482V62.548a6.363,6.363,0,0,0,6.363,6.363H57.01a6.362,6.362,0,0,0,6.359-6.363V8.482A6.36,6.36,0,0,0,57.01,2.123" fill="#969696"/>
          <path id="Trazado_214696" data-name="Trazado 214696" d="M57.011,0H12.486A8.49,8.49,0,0,0,4,8.482V62.548a8.489,8.489,0,0,0,8.482,8.481H57.011a8.491,8.491,0,0,0,8.481-8.481V8.479A8.491,8.491,0,0,0,57.011,0M63.37,62.545a6.362,6.362,0,0,1-6.359,6.363H12.486a6.363,6.363,0,0,1-6.363-6.363V8.479A6.362,6.362,0,0,1,12.486,2.12H57.011A6.36,6.36,0,0,1,63.37,8.479Z" fill="#969696"/>
          <rect id="Rectángulo_291189" data-name="Rectángulo 291189" width="46.647" height="14.313" transform="translate(11.424 8.34)" fill="#fff"/>
          <rect id="Rectángulo_291190" data-name="Rectángulo 291190" width="12.959" height="7.157" transform="translate(45.111 28.217)" fill="#444"/>
          <rect id="Rectángulo_291191" data-name="Rectángulo 291191" width="12.959" height="7.157" transform="translate(28.269 28.217)" fill="#444"/>
          <rect id="Rectángulo_291192" data-name="Rectángulo 291192" width="12.962" height="7.157" transform="translate(11.424 28.217)" fill="#444"/>
          <rect id="Rectángulo_291193" data-name="Rectángulo 291193" width="12.962" height="7.157" transform="translate(11.424 40.938)" fill="#444"/>
          <rect id="Rectángulo_291194" data-name="Rectángulo 291194" width="12.959" height="7.157" transform="translate(28.269 40.938)" fill="#444"/>
          <rect id="Rectángulo_291195" data-name="Rectángulo 291195" width="12.959" height="19.876" transform="translate(45.111 40.938)" fill="#444"/>
          <rect id="Rectángulo_291196" data-name="Rectángulo 291196" width="12.962" height="7.154" transform="translate(11.424 53.661)" fill="#444"/>
          <rect id="Rectángulo_291197" data-name="Rectángulo 291197" width="12.959" height="7.154" transform="translate(28.269 53.661)" fill="#444"/>
          <rect id="Rectángulo_291198" data-name="Rectángulo 291198" width="4.89" height="8.041" transform="translate(49.146 11.476)" fill="#969696"/>
          <rect id="Rectángulo_291199" data-name="Rectángulo 291199" width="4.894" height="8.041" transform="translate(41.807 11.476)" fill="#969696"/>
          <rect id="Rectángulo_291200" data-name="Rectángulo 291200" width="2.224" height="4.022" transform="translate(33.637 29.895)" fill="#444"/>
          <rect id="Rectángulo_291201" data-name="Rectángulo 291201" width="2.227" height="4.022" transform="translate(16.791 29.895)" fill="#444"/>
          <rect id="Rectángulo_291202" data-name="Rectángulo 291202" width="2.224" height="4.022" transform="translate(50.479 29.895)" fill="#444"/>
          <rect id="Rectángulo_291203" data-name="Rectángulo 291203" width="2.224" height="4.019" transform="translate(33.637 42.506)" fill="#444"/>
          <rect id="Rectángulo_291204" data-name="Rectángulo 291204" width="2.227" height="4.019" transform="translate(16.791 42.506)" fill="#444"/>
          <rect id="Rectángulo_291205" data-name="Rectángulo 291205" width="2.224" height="4.019" transform="translate(33.637 55.228)" fill="#444"/>
          <rect id="Rectángulo_291206" data-name="Rectángulo 291206" width="2.224" height="4.019" transform="translate(50.479 55.228)" fill="#444"/>
          <rect id="Rectángulo_291207" data-name="Rectángulo 291207" width="2.227" height="4.019" transform="translate(16.791 55.228)" fill="#444"/>
          <path id="Trazado_214697" data-name="Trazado 214697" d="M85,85.353c46.944,0,85,5.149,85,11.5s-38.056,11.5-85,11.5S0,103.2,0,96.853s38.056-11.5,85-11.5" fill="#eadfcc"/>
          <path id="Trazado_214698" data-name="Trazado 214698" d="M144.277,31.172l-.447-4.447.447-.692-.745-7.978-1.293-.8H133.5l-1.061.8-.744,7.978.466.516-.466,4.85-.542.439L129.2,52.709l.96.714h15.765l.839-.714-1.947-20.871Z" fill="#e0d9d9"/>
          <path id="Trazado_214699" data-name="Trazado 214699" d="M137.281,31.838l.542-.438.466-4.851-.466-.516.744-7.978,1.061-.8H133.5l-1.061.8-.744,7.978.466.516-.466,4.851-.542.438L129.2,52.709l.959.714h6.131l-.96-.714Z" fill="#afafaf"/>
          <path id="Trazado_214700" data-name="Trazado 214700" d="M152.573,52.709H122.268L120.7,54.238v34.9h32.541l.463-.415V53.836a1.127,1.127,0,0,0-1.127-1.127" fill="#e0d9d9"/>
          <path id="Trazado_214701" data-name="Trazado 214701" d="M129.2,53.836a1.128,1.128,0,0,1,1.127-1.127h-8.061L120.7,54.238v34.9h8.969l-.463-.414Z" fill="#afafaf"/>
          <rect id="Rectángulo_291208" data-name="Rectángulo 291208" width="14.417" height="5.805" rx="1.054" transform="translate(130.775 12.25)" fill="#e0d9d9"/>
          <path id="Trazado_214702" data-name="Trazado 214702" d="M136.7,17V13.3a1.054,1.054,0,0,1,1.054-1.054H131.83a1.054,1.054,0,0,0-1.055,1.054V17a1.054,1.054,0,0,0,1.055,1.054h5.928A1.054,1.054,0,0,1,136.7,17" fill="#afafaf"/>
          <path id="Trazado_214703" data-name="Trazado 214703" d="M131.15,31.838h13.669l-.542-5.8H131.692Z" fill="#afafaf"/>
          <path id="Trazado_214704" data-name="Trazado 214704" d="M131.691,26.033l-.542,5.805h6.131l.542-5.805Z" fill="#636363"/>
          <rect id="Rectángulo_291209" data-name="Rectángulo 291209" width="18.106" height="6.077" transform="translate(128.931 82.91)" fill="#bdbdbd"/>
          <rect id="Rectángulo_291210" data-name="Rectángulo 291210" width="8.517" height="6.077" transform="translate(128.931 82.91)" fill="#9f9f9f"/>
          <rect id="Rectángulo_291211" data-name="Rectángulo 291211" width="18.106" height="6.077" transform="translate(128.931 71.811)" fill="#bdbdbd"/>
          <rect id="Rectángulo_291212" data-name="Rectángulo 291212" width="8.517" height="6.077" transform="translate(128.931 71.811)" fill="#9f9f9f"/>
          <path id="Trazado_214705" data-name="Trazado 214705" d="M120.482,18.7,102.655,32.189a2.094,2.094,0,0,0-.677,1.653l-.685,1.072V88.585h20.144l.831-.622V20.355c0-1.378-.967-2.273-1.786-1.653" fill="#e8e8e8"/>
          <rect id="Rectángulo_291213" data-name="Rectángulo 291213" width="18.106" height="5.55" transform="translate(128.931 77.624)" fill="#f1f1f1"/>
          <rect id="Rectángulo_291214" data-name="Rectángulo 291214" width="8.517" height="5.55" transform="translate(128.931 77.624)" fill="#bdbdbd"/>
          <path id="Trazado_214706" data-name="Trazado 214706" d="M146.766,65.955H129.2a.943.943,0,0,1-.271-.044v6.164h18.106V65.911A.943.943,0,0,1,146.766,65.955Z" fill="#f1f1f1"/>
          <path id="Trazado_214707" data-name="Trazado 214707" d="M137.32,65.955h-8.262a.24.24,0,0,1-.127-.044v6.164h8.517V65.911A.244.244,0,0,1,137.32,65.955Z" fill="#bdbdbd"/>
          <path id="Trazado_214708" data-name="Trazado 214708" d="M146.766,60.759H129.2a1.054,1.054,0,0,0-1.054,1.054v3.7a1.054,1.054,0,0,0,1.054,1.054h17.564a1.054,1.054,0,0,0,1.054-1.054v-3.7a1.054,1.054,0,0,0-1.054-1.054" fill="#f3f3f3"/>
          <path id="Trazado_214709" data-name="Trazado 214709" d="M136.393,65.51v-3.7a1.054,1.054,0,0,1,1.054-1.054H129.2a1.054,1.054,0,0,0-1.055,1.054v3.7a1.054,1.054,0,0,0,1.055,1.054h8.245a1.054,1.054,0,0,1-1.054-1.054" fill="#9f9f9f"/>
          <path id="Trazado_214710" data-name="Trazado 214710" d="M107.657,30.672a1.231,1.231,0,0,1,.678-1.1l13.933-7.015V19.735a1.231,1.231,0,0,0-1.785-1.1l-17.827,8.974a1.231,1.231,0,0,0-.678,1.1V88.722h5.679Z" fill="#afafaf"/>
          <path id="Trazado_214711" data-name="Trazado 214711" d="M100.192,18.7,82.365,32.032a2.059,2.059,0,0,0-.677,1.634l-.876,1.06V88.585h19.605l1.561-1.417V20.334c0-1.363-.967-2.248-1.786-1.635" fill="#e8e8e8"/>
          <path id="Trazado_214712" data-name="Trazado 214712" d="M87.366,30.672a1.231,1.231,0,0,1,.678-1.1l13.933-7.015V19.735a1.231,1.231,0,0,0-1.785-1.1L82.365,27.609a1.231,1.231,0,0,0-.678,1.1V64.722h5.679Z" fill="#afafaf"/>
          <path id="Trazado_214713" data-name="Trazado 214713" d="M79.9,22.692,62.075,35.523A1.948,1.948,0,0,0,61.4,37.1V88.585h20.29V24.265c0-1.311-.967-2.163-1.786-1.573" fill="#e8e8e8"/>
          <path id="Trazado_214714" data-name="Trazado 214714" d="M67.076,34.672a1.231,1.231,0,0,1,.678-1.1l13.933-7.015V23.735a1.231,1.231,0,0,0-1.785-1.1L62.075,31.609a1.231,1.231,0,0,0-.678,1.1V68.722h5.679Z" fill="#afafaf"/>
          <rect id="Rectángulo_291215" data-name="Rectángulo 291215" width="100.451" height="6.127" rx="1.465" transform="translate(57.323 88.521)" fill="#afafaf"/>
          <path id="Trazado_214715" data-name="Trazado 214715" d="M156.309,91.584H58.788a1.465,1.465,0,0,1-1.465-1.465v3.063a1.465,1.465,0,0,0,1.465,1.465h97.521a1.465,1.465,0,0,0,1.465-1.465V90.119A1.465,1.465,0,0,1,156.309,91.584Z" fill="#636363"/>
          <path id="Rectángulo_291216" data-name="Rectángulo 291216" d="M1.252,0H8.085A1.252,1.252,0,0,1,9.337,1.252V8.893a1.252,1.252,0,0,1-1.252,1.252H1.251A1.251,1.251,0,0,1,0,8.894V1.252A1.252,1.252,0,0,1,1.252,0Z" transform="translate(107.455 33.228)" fill="#fff"/>
          <path id="Trazado_214716" data-name="Trazado 214716" d="M95.249,33.228H88.416a1.251,1.251,0,0,0-1.252,1.252v7.642a1.251,1.251,0,0,0,1.252,1.251h6.833A1.252,1.252,0,0,0,96.5,42.122V34.48a1.252,1.252,0,0,0-1.252-1.252" fill="#fff"/>
          <path id="Trazado_214717" data-name="Trazado 214717" d="M74.959,33.228H68.126a1.251,1.251,0,0,0-1.252,1.252v7.642a1.251,1.251,0,0,0,1.252,1.251h6.833a1.252,1.252,0,0,0,1.252-1.251V34.48a1.252,1.252,0,0,0-1.252-1.252" fill="#fff"/>
          <path id="Trazado_214718" data-name="Trazado 214718" d="M112.123,42.121V34.479a1.252,1.252,0,0,1,1.252-1.251h-4.669a1.251,1.251,0,0,0-1.251,1.251v7.642a1.252,1.252,0,0,0,1.251,1.252h4.669a1.252,1.252,0,0,1-1.252-1.252" fill="#f6f6f6"/>
          <path id="Trazado_214719" data-name="Trazado 214719" d="M91.833,42.121V34.479a1.252,1.252,0,0,1,1.252-1.251H88.416a1.251,1.251,0,0,0-1.251,1.251v7.642a1.252,1.252,0,0,0,1.251,1.252h4.669a1.253,1.253,0,0,1-1.252-1.252" fill="#f6f6f6"/>
          <path id="Trazado_214720" data-name="Trazado 214720" d="M71.542,42.121V34.479a1.251,1.251,0,0,1,1.252-1.251H68.125a1.251,1.251,0,0,0-1.251,1.251v7.642a1.252,1.252,0,0,0,1.251,1.252h4.669a1.252,1.252,0,0,1-1.252-1.252" fill="#f6f6f6"/>
          <rect id="Rectángulo_291217" data-name="Rectángulo 291217" width="63.361" height="34.547" transform="translate(29.745 65.854)" fill="#afafaf"/>
          <path id="Trazado_214721" data-name="Trazado 214721" d="M75.343,83.014A13.917,13.917,0,1,1,61.428,69.1,13.92,13.92,0,0,1,75.343,83.014" fill="#fff"/>
          <path id="Trazado_214722" data-name="Trazado 214722" d="M64.907,82.673a8.4,8.4,0,0,0-2.424-1.22l-.678-.227c-.137-.046-.253-.1-.377-.143a3.682,3.682,0,0,1-1.181-.685,1.544,1.544,0,0,1-.438-1.142,1.676,1.676,0,0,1,.432-1.191,1.489,1.489,0,0,1,1.132-.464c.02,0,.036,0,.055,0a1.722,1.722,0,0,1,1.182.442,1.792,1.792,0,0,1,.551,1.21l3.031,0a5.047,5.047,0,0,0-.682-2.324,4.356,4.356,0,0,0-1.664-1.609,4.52,4.52,0,0,0-1.084-.419V72.188H60.247l0,2.729a4.645,4.645,0,0,0-2.758,2.067,4.311,4.311,0,0,0-.623,2.249,4.458,4.458,0,0,0,2.054,3.732,8.185,8.185,0,0,0,1.314.616c.081.023.3.091.636.2.2.065.38.129.555.194a5.145,5.145,0,0,1,1.483.8,2.056,2.056,0,0,1,.724,1.652,1.965,1.965,0,0,1-.591,1.463,2.1,2.1,0,0,1-1.5.578c-.043,0-.075-.007-.111-.01a2.009,2.009,0,0,1-2.077-2.009H56.275a4.767,4.767,0,0,0,.367,1.759,4.4,4.4,0,0,0,1.016,1.545,4.966,4.966,0,0,0,2.589,1.437l0,2.652h2.512V91.155a4.98,4.98,0,0,0,1.262-.512,5.027,5.027,0,0,0,2.554-4.417,4.387,4.387,0,0,0-1.671-3.553" fill="#636363"/>
          <path id="Trazado_214723" data-name="Trazado 214723" d="M87.4,83.017a4.209,4.209,0,1,1-4.209-4.209A4.207,4.207,0,0,1,87.4,83.017" fill="#636363"/>
          <path id="Trazado_214724" data-name="Trazado 214724" d="M43.7,83.127a4.207,4.207,0,1,1-4.209-4.209A4.206,4.206,0,0,1,43.7,83.127" fill="#22662c"/>
          <path id="Trazado_214725" data-name="Trazado 214725" d="M27.531,63.641v38.973H95.32l0-38.973ZM39.148,98.178a7.192,7.192,0,0,0-7.188-7.194V75.223a7.19,7.19,0,0,0,7.081-7.152H83.706a7.2,7.2,0,0,0,7.187,7.041V90.99a7.188,7.188,0,0,0-7.09,7.188Z" fill="#636363"/>
          <rect id="Rectángulo_291218" data-name="Rectángulo 291218" width="63.359" height="34.546" transform="translate(16.77 67.12) rotate(-20.529)" fill="#afafaf"/>
          <path id="Trazado_214726" data-name="Trazado 214726" d="M65.488,67.2a13.915,13.915,0,1,1-17.913-8.151A13.913,13.913,0,0,1,65.488,67.2" fill="#fff"/>
          <path id="Trazado_214727" data-name="Trazado 214727" d="M55.594,70.546a8.247,8.247,0,0,0-2.7-.3l-.717.027c-.143.006-.269,0-.4,0a3.631,3.631,0,0,1-1.344-.227,1.524,1.524,0,0,1-.811-.915,1.671,1.671,0,0,1-.013-1.269,1.478,1.478,0,0,1,.9-.827.245.245,0,0,1,.052-.017,1.713,1.713,0,0,1,1.262,0,1.763,1.763,0,0,1,.935.938L55.6,66.886a4.976,4.976,0,0,0-1.453-1.934,4.424,4.424,0,0,0-3.281-.938l-.954-2.541-1.25.47-1.106.413.96,2.557v0a4.5,4.5,0,0,0-.84.782,4.437,4.437,0,0,0-1.016,2.123,4.266,4.266,0,0,0,.2,2.323A4.425,4.425,0,0,0,50.1,72.915a8.156,8.156,0,0,0,1.447.114c.081-.007.305-.02.665-.033.208-.01.4-.013.585-.01a5.112,5.112,0,0,1,1.671.224A2.081,2.081,0,0,1,55.724,74.5a1.961,1.961,0,0,1-.042,1.577,2.085,2.085,0,0,1-1.207,1.071c-.04.013-.075.019-.108.032a2.012,2.012,0,0,1-2.648-1.155l-2.881,1.077a4.878,4.878,0,0,0,.957,1.523,4.482,4.482,0,0,0,1.5,1.087,4.968,4.968,0,0,0,2.93.438l.928,2.482,1.1-.412,1.252-.471-.944-2.518a4.99,4.99,0,0,0,1-.921,5.046,5.046,0,0,0,1.1-2.382,4.945,4.945,0,0,0-.263-2.648,4.365,4.365,0,0,0-2.81-2.739" fill="#636363"/>
          <path id="Trazado_214728" data-name="Trazado 214728" d="M76.777,62.976a4.209,4.209,0,1,1-5.416-2.466,4.209,4.209,0,0,1,5.416,2.466" fill="#636363"/>
          <path id="Trazado_214729" data-name="Trazado 214729" d="M35.89,78.406a4.207,4.207,0,1,1-5.416-2.466,4.2,4.2,0,0,1,5.416,2.466" fill="#22662c"/>
          <path id="Trazado_214730" data-name="Trazado 214730" d="M13.918,65.824l13.668,36.5L91.072,78.551,77.4,42.051ZM36.909,94.1a7.192,7.192,0,0,0-9.255-4.215L22.128,75.115a7.188,7.188,0,0,0,4.121-9.181L68.078,50.271a7.194,7.194,0,0,0,9.2,4.075l5.569,14.872a7.184,7.184,0,0,0-4.118,9.216Z" fill="#636363"/>
          <rect id="Rectángulo_291219" data-name="Rectángulo 291219" width="63.361" height="34.544" transform="matrix(0.787, -0.617, 0.617, 0.787, 6.432, 72.325)" fill="#afafaf"/>
          <path id="Trazado_214731" data-name="Trazado 214731" d="M52.9,57.683a13.915,13.915,0,1,1-19.535-2.359A13.913,13.913,0,0,1,52.9,57.683" fill="#fff"/>
          <path id="Trazado_214732" data-name="Trazado 214732" d="M44.479,63.858a8.262,8.262,0,0,0-2.661.532l-.678.24c-.133.049-.256.082-.383.12a3.657,3.657,0,0,1-1.353.192,1.524,1.524,0,0,1-1.048-.63,1.674,1.674,0,0,1-.4-1.207,1.492,1.492,0,0,1,.607-1.061.352.352,0,0,0,.042-.029,1.726,1.726,0,0,1,1.207-.383,1.794,1.794,0,0,1,1.175.613l2.385-1.872a5.023,5.023,0,0,0-1.97-1.408,4.3,4.3,0,0,0-2.3-.237,4.4,4.4,0,0,0-1.11.334L36.318,56.93l-1.052.824-.928.727,1.688,2.148v0a4.536,4.536,0,0,0-.568,1,4.472,4.472,0,0,0-.328,2.333,4.418,4.418,0,0,0,4.819,3.823,7.723,7.723,0,0,0,1.415-.328c.075-.032.285-.107.626-.233.195-.068.377-.13.555-.185a5.121,5.121,0,0,1,1.658-.289A2.077,2.077,0,0,1,45.8,67.6a1.983,1.983,0,0,1,.438,1.516A2.106,2.106,0,0,1,45.4,70.5c-.032.023-.062.039-.091.062a2.007,2.007,0,0,1-2.872-.3l-2.421,1.9a4.8,4.8,0,0,0,1.373,1.158,4.465,4.465,0,0,0,1.749.588,5,5,0,0,0,2.927-.468l1.636,2.084.928-.727,1.051-.824-1.658-2.116a5.045,5.045,0,0,0-.042-6.234,4.38,4.38,0,0,0-3.505-1.762" fill="#636363"/>
          <path id="Trazado_214733" data-name="Trazado 214733" d="M62.386,50.245a4.208,4.208,0,1,1-5.909-.714,4.214,4.214,0,0,1,5.909.714" fill="#636363"/>
          <path id="Trazado_214734" data-name="Trazado 214734" d="M28.069,77.3a4.208,4.208,0,1,1-5.909-.711,4.207,4.207,0,0,1,5.909.711" fill="#636363"/>
          <path id="Trazado_214735" data-name="Trazado 214735" d="M3.323,71.948l24.052,30.666L80.714,60.772,56.662,30.107ZM33.781,91.954a7.194,7.194,0,0,0-10.1-1.223l-9.725-12.4a7.19,7.19,0,0,0,1.155-10L50.256,40.763a7.192,7.192,0,0,0,10,1.1l9.8,12.5a7.188,7.188,0,0,0-1.142,10.031h0Z" fill="#636363"/>
        </g>
      </g>
    </g>
  </g>
</svg>
