<svg xmlns="http://www.w3.org/2000/svg" xmlns:xlink="http://www.w3.org/1999/xlink" width="820" height="323" viewBox="0 0 820 323">
  <defs>
    <clipPath id="clip-path">
      <rect id="Rectángulo_291324" data-name="Rectángulo 291324" width="98.586" height="80.167" fill="#e1efe3"/>
    </clipPath>
    <clipPath id="clip-path-2">
      <rect id="Rectángulo_291316" data-name="Rectángulo 291316" width="236.363" height="173.296" fill="none"/>
    </clipPath>
    <clipPath id="clip-path-4">
      <rect id="Rectángulo_291299" data-name="Rectángulo 291299" width="6.716" height="27.587" fill="none"/>
    </clipPath>
    <clipPath id="clip-path-6">
      <rect id="Rectángulo_291301" data-name="Rectángulo 291301" width="11.598" height="17.304" fill="none"/>
    </clipPath>
    <clipPath id="clip-path-8">
      <rect id="Rectángulo_291304" data-name="Rectángulo 291304" width="7.49" height="16.382" fill="none"/>
    </clipPath>
    <clipPath id="clip-path-9">
      <rect id="Rectángulo_291309" data-name="Rectángulo 291309" width="15.523" height="129.57" fill="none"/>
    </clipPath>
    <clipPath id="clip-path-10">
      <rect id="Rectángulo_291314" data-name="Rectángulo 291314" width="24.777" height="18.729" fill="none"/>
    </clipPath>
  </defs>
  <g id="Grupo_872042" data-name="Grupo 872042" transform="translate(-390 -8440)">
    <path id="Trazado_217930" data-name="Trazado 217930" d="M167.34,50.02H-36V6.092H-9.965L-4.83,0H202.363V40.925h-30.02l-5,9.095Z" transform="translate(950.999 8482.431)" fill="#359547"/>
    <path id="Trazado_217931" data-name="Trazado 217931" d="M9.409,15.51H5.043L4.213,18H1.565l4.5-12.086H8.372L12.9,18H10.248ZM5.715,13.493H8.737L7.218,8.969Zm16.236.1a5.387,5.387,0,0,1-.942,3.324,3.021,3.021,0,0,1-2.544,1.249,2.8,2.8,0,0,1-2.2-.946v4.233h-2.4V9.019h2.225l.083.88a2.819,2.819,0,0,1,2.274-1.046,3.041,3.041,0,0,1,2.582,1.229,5.532,5.532,0,0,1,.921,3.387Zm-2.4-.174a3.535,3.535,0,0,0-.444-1.934,1.446,1.446,0,0,0-1.291-.681,1.571,1.571,0,0,0-1.552.863v3.677a1.6,1.6,0,0,0,1.569.888Q19.553,16.232,19.553,13.418Zm8.932-2.15a6.517,6.517,0,0,0-.863-.066,1.757,1.757,0,0,0-1.785.921V18h-2.4V9.019H25.7l.066,1.071a2.223,2.223,0,0,1,2-1.237,2.514,2.514,0,0,1,.747.108Zm5.288,6.9a4.409,4.409,0,0,1-3.217-1.212,4.308,4.308,0,0,1-1.241-3.229v-.232a5.426,5.426,0,0,1,.523-2.42,3.838,3.838,0,0,1,1.482-1.644,4.159,4.159,0,0,1,2.187-.577,3.727,3.727,0,0,1,2.9,1.162,4.722,4.722,0,0,1,1.058,3.3v.979H31.747a2.229,2.229,0,0,0,.7,1.411,2.12,2.12,0,0,0,1.482.531,2.589,2.589,0,0,0,2.167-1l1.179,1.32a3.6,3.6,0,0,1-1.461,1.191A4.793,4.793,0,0,1,33.772,18.166ZM33.5,10.787a1.5,1.5,0,0,0-1.158.484,2.5,2.5,0,0,0-.569,1.384h3.337v-.192a1.786,1.786,0,0,0-.432-1.238A1.547,1.547,0,0,0,33.5,10.787Zm7.537-1.768.075,1.038a3.136,3.136,0,0,1,2.582-1.2,2.606,2.606,0,0,1,2.125.838A3.912,3.912,0,0,1,46.53,12.2V18h-2.4V12.256a1.556,1.556,0,0,0-.332-1.108,1.486,1.486,0,0,0-1.1-.344,1.65,1.65,0,0,0-1.519.863V18h-2.4V9.019Zm6.939,4.424a5.413,5.413,0,0,1,.942-3.345,3.057,3.057,0,0,1,2.577-1.245,2.751,2.751,0,0,1,2.167.979V5.25h2.407V18H53.9l-.116-.955a2.823,2.823,0,0,1-2.308,1.121,3.049,3.049,0,0,1-2.544-1.249A5.587,5.587,0,0,1,47.975,13.443Zm2.4.179a3.546,3.546,0,0,0,.44,1.937,1.433,1.433,0,0,0,1.278.673,1.605,1.605,0,0,0,1.569-.939v-3.55a1.582,1.582,0,0,0-1.552-.939Q50.374,10.8,50.374,13.621ZM60.459,18H58.052V9.019h2.407ZM57.911,6.694a1.181,1.181,0,0,1,.361-.888,1.556,1.556,0,0,1,1.963,0,1.175,1.175,0,0,1,.365.888,1.178,1.178,0,0,1-.369.9,1.539,1.539,0,0,1-1.951,0A1.178,1.178,0,0,1,57.911,6.694Zm7.28,9.372h4.391V18H62.127V16.539l4.225-5.586h-4.1V9.019h7.2v1.413ZM76.289,18a2.664,2.664,0,0,1-.241-.805,2.9,2.9,0,0,1-2.266.971,3.189,3.189,0,0,1-2.187-.764,2.456,2.456,0,0,1-.867-1.926,2.538,2.538,0,0,1,1.058-2.191,5.222,5.222,0,0,1,3.059-.772h1.1V12a1.48,1.48,0,0,0-.32-1,1.257,1.257,0,0,0-1.009-.374,1.429,1.429,0,0,0-.95.291.987.987,0,0,0-.344.8h-2.4a2.41,2.41,0,0,1,.481-1.444A3.182,3.182,0,0,1,72.769,9.23a4.961,4.961,0,0,1,1.976-.378,3.92,3.92,0,0,1,2.635.834,2.918,2.918,0,0,1,.975,2.345v3.893a4.294,4.294,0,0,0,.357,1.934V18ZM74.3,16.332a2.066,2.066,0,0,0,.979-.237,1.554,1.554,0,0,0,.664-.635V13.916h-.9q-1.8,0-1.917,1.245l-.008.141a.96.96,0,0,0,.315.739A1.225,1.225,0,0,0,74.3,16.332Zm8.434-7.313V18.49A3.213,3.213,0,0,1,81.95,20.8a3,3,0,0,1-2.274.826,4.878,4.878,0,0,1-1.187-.141v-1.9a4.5,4.5,0,0,0,.755.075q1.087,0,1.087-1.154V9.019Zm-2.6-2.324a1.181,1.181,0,0,1,.361-.888,1.562,1.562,0,0,1,1.967,0,1.181,1.181,0,0,1,.361.888,1.178,1.178,0,0,1-.369.9,1.539,1.539,0,0,1-1.951,0A1.178,1.178,0,0,1,80.14,6.694Zm8.608,11.472a4.409,4.409,0,0,1-3.217-1.212,4.308,4.308,0,0,1-1.241-3.229v-.232a5.426,5.426,0,0,1,.523-2.42A3.838,3.838,0,0,1,86.3,9.429a4.159,4.159,0,0,1,2.187-.577,3.727,3.727,0,0,1,2.9,1.162,4.722,4.722,0,0,1,1.058,3.3v.979H86.723a2.229,2.229,0,0,0,.7,1.411,2.12,2.12,0,0,0,1.482.531,2.589,2.589,0,0,0,2.167-1l1.179,1.32a3.6,3.6,0,0,1-1.461,1.191A4.793,4.793,0,0,1,88.748,18.166Zm-.274-7.379a1.5,1.5,0,0,0-1.158.484,2.5,2.5,0,0,0-.569,1.384h3.337v-.192a1.786,1.786,0,0,0-.432-1.238A1.547,1.547,0,0,0,88.474,10.787ZM101.39,14.6l1.66-5.586h2.573l-3.611,10.376-.2.473a2.738,2.738,0,0,1-2.656,1.76,3.775,3.775,0,0,1-1.062-.158V19.652l.365.008a1.974,1.974,0,0,0,1.017-.208,1.363,1.363,0,0,0,.527-.689l.282-.739L97.14,9.019h2.582Zm13.148,1.627a1.573,1.573,0,0,0,1.079-.365,1.28,1.28,0,0,0,.432-.971h2.25a3.077,3.077,0,0,1-.5,1.673,3.286,3.286,0,0,1-1.341,1.179,4.2,4.2,0,0,1-1.88.419,3.9,3.9,0,0,1-3.038-1.224,4.845,4.845,0,0,1-1.112-3.383V13.4a4.79,4.79,0,0,1,1.1-3.312,3.854,3.854,0,0,1,3.03-1.237,3.778,3.778,0,0,1,2.7.959,3.4,3.4,0,0,1,1.033,2.552h-2.25a1.648,1.648,0,0,0-.432-1.139,1.6,1.6,0,0,0-2.362.173,3.541,3.541,0,0,0-.427,1.983v.249a3.586,3.586,0,0,0,.423,2A1.463,1.463,0,0,0,114.539,16.232Zm10.177-4.964a6.517,6.517,0,0,0-.863-.066,1.757,1.757,0,0,0-1.785.921V18h-2.4V9.019h2.266L122,10.089a2.223,2.223,0,0,1,2-1.237,2.514,2.514,0,0,1,.747.108Zm5.288,6.9a4.409,4.409,0,0,1-3.217-1.212,4.308,4.308,0,0,1-1.241-3.229v-.232a5.426,5.426,0,0,1,.523-2.42,3.838,3.838,0,0,1,1.482-1.644,4.159,4.159,0,0,1,2.187-.577,3.727,3.727,0,0,1,2.9,1.162,4.722,4.722,0,0,1,1.058,3.3v.979h-5.719a2.228,2.228,0,0,0,.7,1.411,2.12,2.12,0,0,0,1.482.531,2.589,2.589,0,0,0,2.167-1l1.179,1.32a3.6,3.6,0,0,1-1.461,1.191A4.793,4.793,0,0,1,130,18.166Zm-.274-7.379a1.5,1.5,0,0,0-1.158.484A2.5,2.5,0,0,0,128,12.654h3.337v-.192a1.786,1.786,0,0,0-.432-1.238A1.547,1.547,0,0,0,129.729,10.787Zm9.064,5.445a1.573,1.573,0,0,0,1.079-.365,1.28,1.28,0,0,0,.432-.971h2.25a3.077,3.077,0,0,1-.5,1.673,3.286,3.286,0,0,1-1.341,1.179,4.2,4.2,0,0,1-1.88.419,3.9,3.9,0,0,1-3.038-1.224,4.845,4.845,0,0,1-1.112-3.383V13.4a4.79,4.79,0,0,1,1.1-3.312,3.854,3.854,0,0,1,3.03-1.237,3.778,3.778,0,0,1,2.7.959,3.4,3.4,0,0,1,1.033,2.552H140.3a1.648,1.648,0,0,0-.432-1.139,1.6,1.6,0,0,0-2.362.173,3.541,3.541,0,0,0-.427,1.983v.249a3.586,3.586,0,0,0,.423,2A1.463,1.463,0,0,0,138.793,16.232ZM146.455,18h-2.407V9.019h2.407ZM143.907,6.694a1.181,1.181,0,0,1,.361-.888,1.556,1.556,0,0,1,1.963,0,1.175,1.175,0,0,1,.365.888,1.178,1.178,0,0,1-.369.9,1.539,1.539,0,0,1-1.951,0A1.178,1.178,0,0,1,143.907,6.694Zm6.773,2.324.075,1a3.156,3.156,0,0,1,2.582-1.17,2.4,2.4,0,0,1,2.382,1.37,3.084,3.084,0,0,1,2.7-1.37,2.679,2.679,0,0,1,2.175.851,3.911,3.911,0,0,1,.714,2.561V18H158.9V12.272a1.71,1.71,0,0,0-.3-1.116,1.324,1.324,0,0,0-1.054-.353,1.5,1.5,0,0,0-1.494,1.029L156.059,18h-2.4V12.281a1.689,1.689,0,0,0-.307-1.129,1.337,1.337,0,0,0-1.046-.349,1.555,1.555,0,0,0-1.478.847V18h-2.4V9.019Zm15,8.981h-2.407V9.019h2.407ZM163.131,6.694a1.181,1.181,0,0,1,.361-.888,1.556,1.556,0,0,1,1.963,0,1.175,1.175,0,0,1,.365.888,1.178,1.178,0,0,1-.369.9,1.539,1.539,0,0,1-1.951,0A1.178,1.178,0,0,1,163.131,6.694Zm8.658,11.472a4.409,4.409,0,0,1-3.217-1.212,4.308,4.308,0,0,1-1.241-3.229v-.232a5.426,5.426,0,0,1,.523-2.42,3.838,3.838,0,0,1,1.482-1.644,4.159,4.159,0,0,1,2.187-.577,3.727,3.727,0,0,1,2.9,1.162,4.722,4.722,0,0,1,1.058,3.3v.979h-5.719a2.228,2.228,0,0,0,.7,1.411,2.12,2.12,0,0,0,1.482.531,2.589,2.589,0,0,0,2.167-1l1.179,1.32a3.6,3.6,0,0,1-1.461,1.191A4.793,4.793,0,0,1,171.789,18.166Zm-.274-7.379a1.5,1.5,0,0,0-1.158.484,2.5,2.5,0,0,0-.569,1.384h3.337v-.192a1.786,1.786,0,0,0-.432-1.238A1.547,1.547,0,0,0,171.515,10.787Zm7.537-1.768.075,1.038a3.136,3.136,0,0,1,2.582-1.2,2.606,2.606,0,0,1,2.125.838,3.912,3.912,0,0,1,.714,2.507V18h-2.4V12.256a1.556,1.556,0,0,0-.332-1.108,1.486,1.486,0,0,0-1.1-.344,1.65,1.65,0,0,0-1.519.863V18h-2.4V9.019Zm10.185-2.208V9.019h1.536v1.76h-1.536v4.482a1.07,1.07,0,0,0,.191.714.959.959,0,0,0,.73.216,3.826,3.826,0,0,0,.706-.058V17.95a4.939,4.939,0,0,1-1.453.216,2.29,2.29,0,0,1-2.573-2.548V10.778h-1.312V9.019h1.312V6.811Zm2.25,6.616A5.327,5.327,0,0,1,192,11.044a3.767,3.767,0,0,1,1.482-1.619,4.323,4.323,0,0,1,2.245-.573A4.09,4.09,0,0,1,198.7,9.965a4.464,4.464,0,0,1,1.282,3.021L200,13.6a4.694,4.694,0,0,1-1.154,3.316,4.472,4.472,0,0,1-6.2,0,4.777,4.777,0,0,1-1.158-3.387Zm2.4.17a3.357,3.357,0,0,0,.481,1.958,1.73,1.73,0,0,0,2.739.008,3.674,3.674,0,0,0,.49-2.141,3.324,3.324,0,0,0-.49-1.945,1.592,1.592,0,0,0-1.378-.69,1.566,1.566,0,0,0-1.361.686A3.735,3.735,0,0,0,193.886,13.6Z" transform="translate(933.999 8496.071)" fill="#fff"/>
    <path id="Trazado_214008" data-name="Trazado 214008" d="M-.808,1.311H26.244V7.625H-4Z" transform="translate(1127.119 8524.825)" fill="#7f8a9c"/>
    <path id="Trazado_217932" data-name="Trazado 217932" d="M167.34,50.02H-36V6.092H-9.965L-4.83,0H202.363V40.925h-30.02l-5,9.095Z" transform="translate(1007.636 8603.431)" fill="#03386e" opacity="0.26"/>
    <path id="Trazado_217933" data-name="Trazado 217933" d="M19.993,13.742V18H17.5V5.914h4.715a5.455,5.455,0,0,1,2.395.5A3.67,3.67,0,0,1,26.2,7.827a3.946,3.946,0,0,1,.556,2.088,3.47,3.47,0,0,1-1.216,2.8,5.065,5.065,0,0,1-3.366,1.025Zm0-2.017h2.225a2.187,2.187,0,0,0,1.507-.465,1.691,1.691,0,0,0,.519-1.328A1.994,1.994,0,0,0,23.72,8.5a1.953,1.953,0,0,0-1.444-.564H19.993Zm13.364-.457a6.517,6.517,0,0,0-.863-.066,1.757,1.757,0,0,0-1.785.921V18h-2.4V9.019h2.266l.066,1.071a2.223,2.223,0,0,1,2-1.237,2.514,2.514,0,0,1,.747.108Zm.481,2.158a5.327,5.327,0,0,1,.515-2.382,3.767,3.767,0,0,1,1.482-1.619,4.323,4.323,0,0,1,2.245-.573,4.09,4.09,0,0,1,2.968,1.112,4.464,4.464,0,0,1,1.282,3.021l.017.614a4.694,4.694,0,0,1-1.154,3.316,4.472,4.472,0,0,1-6.2,0,4.777,4.777,0,0,1-1.158-3.387Zm2.4.17a3.357,3.357,0,0,0,.481,1.958,1.73,1.73,0,0,0,2.739.008,3.674,3.674,0,0,0,.49-2.141,3.324,3.324,0,0,0-.49-1.945,1.592,1.592,0,0,0-1.378-.69,1.566,1.566,0,0,0-1.361.686A3.735,3.735,0,0,0,36.237,13.6ZM47.56,16.232a1.573,1.573,0,0,0,1.079-.365,1.28,1.28,0,0,0,.432-.971h2.25a3.077,3.077,0,0,1-.5,1.673,3.286,3.286,0,0,1-1.341,1.179,4.2,4.2,0,0,1-1.88.419,3.9,3.9,0,0,1-3.038-1.224,4.845,4.845,0,0,1-1.112-3.383V13.4a4.79,4.79,0,0,1,1.1-3.312,3.854,3.854,0,0,1,3.03-1.237,3.778,3.778,0,0,1,2.7.959,3.4,3.4,0,0,1,1.033,2.552H49.07a1.648,1.648,0,0,0-.432-1.139,1.6,1.6,0,0,0-2.362.173,3.541,3.541,0,0,0-.427,1.983v.249a3.586,3.586,0,0,0,.423,2A1.463,1.463,0,0,0,47.56,16.232Zm9.264,1.934a4.409,4.409,0,0,1-3.217-1.212,4.308,4.308,0,0,1-1.241-3.229v-.232a5.426,5.426,0,0,1,.523-2.42A3.838,3.838,0,0,1,54.37,9.429a4.159,4.159,0,0,1,2.187-.577,3.727,3.727,0,0,1,2.9,1.162,4.722,4.722,0,0,1,1.058,3.3v.979H54.8a2.229,2.229,0,0,0,.7,1.411,2.12,2.12,0,0,0,1.482.531,2.589,2.589,0,0,0,2.167-1l1.179,1.32a3.6,3.6,0,0,1-1.461,1.191A4.793,4.793,0,0,1,56.823,18.166Zm-.274-7.379a1.5,1.5,0,0,0-1.158.484,2.5,2.5,0,0,0-.569,1.384H58.16v-.192a1.786,1.786,0,0,0-.432-1.238A1.547,1.547,0,0,0,56.549,10.787Zm10.193,4.731a.773.773,0,0,0-.436-.693,4.95,4.95,0,0,0-1.4-.452q-3.2-.672-3.2-2.723a2.468,2.468,0,0,1,.992-2,4,4,0,0,1,2.594-.8,4.307,4.307,0,0,1,2.735.805A2.538,2.538,0,0,1,69.05,11.75h-2.4a1.161,1.161,0,0,0-.332-.851,1.405,1.405,0,0,0-1.038-.336,1.436,1.436,0,0,0-.938.274.865.865,0,0,0-.332.7.739.739,0,0,0,.378.643,3.885,3.885,0,0,0,1.274.423,10.407,10.407,0,0,1,1.511.4,2.482,2.482,0,0,1,1.9,2.416,2.343,2.343,0,0,1-1.054,1.988,4.548,4.548,0,0,1-2.723.76,4.75,4.75,0,0,1-2-.4,3.363,3.363,0,0,1-1.374-1.1,2.565,2.565,0,0,1-.5-1.515H63.7a1.252,1.252,0,0,0,.473.979,1.877,1.877,0,0,0,1.179.34A1.737,1.737,0,0,0,66.39,16.2.814.814,0,0,0,66.743,15.518Zm3.5-2.092a5.326,5.326,0,0,1,.515-2.382,3.768,3.768,0,0,1,1.482-1.619,4.323,4.323,0,0,1,2.245-.573,4.09,4.09,0,0,1,2.968,1.112,4.464,4.464,0,0,1,1.282,3.021l.017.614A4.694,4.694,0,0,1,77.6,16.917a4.472,4.472,0,0,1-6.2,0,4.777,4.777,0,0,1-1.158-3.387Zm2.4.17a3.357,3.357,0,0,0,.481,1.958,1.73,1.73,0,0,0,2.739.008,3.674,3.674,0,0,0,.49-2.141,3.324,3.324,0,0,0-.49-1.945,1.592,1.592,0,0,0-1.378-.69,1.566,1.566,0,0,0-1.361.686A3.736,3.736,0,0,0,72.645,13.6ZM85.1,15.518a.773.773,0,0,0-.436-.693,4.95,4.95,0,0,0-1.4-.452q-3.2-.672-3.2-2.723a2.468,2.468,0,0,1,.992-2,4,4,0,0,1,2.594-.8,4.307,4.307,0,0,1,2.735.805A2.538,2.538,0,0,1,87.4,11.75H85a1.161,1.161,0,0,0-.332-.851,1.405,1.405,0,0,0-1.038-.336,1.436,1.436,0,0,0-.938.274.865.865,0,0,0-.332.7.739.739,0,0,0,.378.643,3.885,3.885,0,0,0,1.274.423,10.407,10.407,0,0,1,1.511.4,2.482,2.482,0,0,1,1.9,2.416,2.343,2.343,0,0,1-1.054,1.988,4.548,4.548,0,0,1-2.723.76,4.75,4.75,0,0,1-2-.4,3.363,3.363,0,0,1-1.374-1.1,2.565,2.565,0,0,1-.5-1.515h2.274a1.252,1.252,0,0,0,.473.979,1.877,1.877,0,0,0,1.179.34,1.737,1.737,0,0,0,1.042-.261A.814.814,0,0,0,85.1,15.518Zm11.845.714a1.573,1.573,0,0,0,1.079-.365,1.28,1.28,0,0,0,.432-.971h2.25a3.077,3.077,0,0,1-.5,1.673,3.286,3.286,0,0,1-1.341,1.179,4.2,4.2,0,0,1-1.88.419,3.9,3.9,0,0,1-3.038-1.224,4.845,4.845,0,0,1-1.112-3.383V13.4a4.79,4.79,0,0,1,1.1-3.312,3.854,3.854,0,0,1,3.03-1.237,3.778,3.778,0,0,1,2.7.959,3.4,3.4,0,0,1,1.033,2.552h-2.25a1.648,1.648,0,0,0-.432-1.139,1.6,1.6,0,0,0-2.362.173,3.541,3.541,0,0,0-.427,1.983v.249a3.586,3.586,0,0,0,.423,2A1.463,1.463,0,0,0,96.941,16.232Zm4.756-2.806a5.326,5.326,0,0,1,.515-2.382,3.768,3.768,0,0,1,1.482-1.619,4.323,4.323,0,0,1,2.245-.573,4.09,4.09,0,0,1,2.968,1.112,4.464,4.464,0,0,1,1.282,3.021l.017.614a4.694,4.694,0,0,1-1.154,3.316,4.472,4.472,0,0,1-6.2,0,4.777,4.777,0,0,1-1.158-3.387Zm2.4.17a3.357,3.357,0,0,0,.481,1.958,1.73,1.73,0,0,0,2.739.008,3.674,3.674,0,0,0,.49-2.141,3.324,3.324,0,0,0-.49-1.945,1.592,1.592,0,0,0-1.378-.69,1.566,1.566,0,0,0-1.361.686A3.736,3.736,0,0,0,104.1,13.6Zm9.836-4.578.075,1a3.156,3.156,0,0,1,2.582-1.17,2.4,2.4,0,0,1,2.382,1.37,3.084,3.084,0,0,1,2.7-1.37,2.679,2.679,0,0,1,2.175.851,3.911,3.911,0,0,1,.714,2.561V18H122.15V12.272a1.71,1.71,0,0,0-.3-1.116A1.324,1.324,0,0,0,120.8,10.8a1.5,1.5,0,0,0-1.494,1.029L119.312,18h-2.4V12.281a1.689,1.689,0,0,0-.307-1.129,1.337,1.337,0,0,0-1.046-.349,1.555,1.555,0,0,0-1.478.847V18h-2.4V9.019Zm16.6,9.147a4.409,4.409,0,0,1-3.217-1.212,4.308,4.308,0,0,1-1.241-3.229v-.232a5.426,5.426,0,0,1,.523-2.42,3.838,3.838,0,0,1,1.482-1.644,4.159,4.159,0,0,1,2.187-.577,3.727,3.727,0,0,1,2.9,1.162,4.722,4.722,0,0,1,1.058,3.3v.979h-5.719a2.228,2.228,0,0,0,.7,1.411,2.12,2.12,0,0,0,1.482.531,2.589,2.589,0,0,0,2.167-1l1.179,1.32a3.6,3.6,0,0,1-1.461,1.191A4.793,4.793,0,0,1,130.534,18.166Zm-.274-7.379a1.5,1.5,0,0,0-1.158.484,2.5,2.5,0,0,0-.569,1.384h3.337v-.192a1.786,1.786,0,0,0-.432-1.238A1.547,1.547,0,0,0,130.26,10.787Zm10.376.481a6.517,6.517,0,0,0-.863-.066,1.757,1.757,0,0,0-1.785.921V18h-2.4V9.019h2.266l.066,1.071a2.223,2.223,0,0,1,2-1.237,2.514,2.514,0,0,1,.747.108Zm4.731,4.964a1.573,1.573,0,0,0,1.079-.365,1.28,1.28,0,0,0,.432-.971h2.25a3.077,3.077,0,0,1-.5,1.673,3.286,3.286,0,0,1-1.341,1.179,4.2,4.2,0,0,1-1.88.419,3.9,3.9,0,0,1-3.038-1.224,4.845,4.845,0,0,1-1.112-3.383V13.4a4.79,4.79,0,0,1,1.1-3.312,3.854,3.854,0,0,1,3.03-1.237,3.778,3.778,0,0,1,2.7.959,3.4,3.4,0,0,1,1.033,2.552h-2.25a1.648,1.648,0,0,0-.432-1.139,1.6,1.6,0,0,0-2.362.173,3.541,3.541,0,0,0-.427,1.983v.249a3.586,3.586,0,0,0,.423,2A1.463,1.463,0,0,0,145.368,16.232ZM153.029,18h-2.407V9.019h2.407ZM150.481,6.694a1.181,1.181,0,0,1,.361-.888,1.556,1.556,0,0,1,1.963,0,1.175,1.175,0,0,1,.365.888,1.178,1.178,0,0,1-.369.9,1.539,1.539,0,0,1-1.951,0A1.178,1.178,0,0,1,150.481,6.694ZM160.209,18a2.664,2.664,0,0,1-.241-.805,2.9,2.9,0,0,1-2.266.971,3.189,3.189,0,0,1-2.187-.764,2.456,2.456,0,0,1-.867-1.926,2.538,2.538,0,0,1,1.058-2.191,5.222,5.222,0,0,1,3.059-.772h1.1V12a1.48,1.48,0,0,0-.32-1,1.257,1.257,0,0,0-1.009-.374,1.429,1.429,0,0,0-.95.291.987.987,0,0,0-.344.8h-2.4a2.41,2.41,0,0,1,.481-1.444A3.182,3.182,0,0,1,156.69,9.23a4.961,4.961,0,0,1,1.976-.378,3.92,3.92,0,0,1,2.635.834,2.918,2.918,0,0,1,.975,2.345v3.893a4.294,4.294,0,0,0,.357,1.934V18Zm-1.984-1.668a2.066,2.066,0,0,0,.979-.237,1.554,1.554,0,0,0,.664-.635V13.916h-.9q-1.8,0-1.917,1.245l-.008.141a.96.96,0,0,0,.315.739A1.225,1.225,0,0,0,158.226,16.332ZM166.651,18h-2.407V5.25h2.407Zm6.109.166a4.409,4.409,0,0,1-3.217-1.212,4.308,4.308,0,0,1-1.241-3.229v-.232a5.426,5.426,0,0,1,.523-2.42,3.838,3.838,0,0,1,1.482-1.644,4.159,4.159,0,0,1,2.187-.577,3.727,3.727,0,0,1,2.9,1.162,4.722,4.722,0,0,1,1.058,3.3v.979h-5.719a2.228,2.228,0,0,0,.7,1.411,2.12,2.12,0,0,0,1.482.531,2.589,2.589,0,0,0,2.167-1l1.179,1.32a3.6,3.6,0,0,1-1.461,1.191A4.793,4.793,0,0,1,172.76,18.166Zm-.274-7.379a1.5,1.5,0,0,0-1.158.484,2.5,2.5,0,0,0-.569,1.384H174.1v-.192a1.786,1.786,0,0,0-.432-1.238A1.547,1.547,0,0,0,172.486,10.787Zm10.193,4.731a.773.773,0,0,0-.436-.693,4.95,4.95,0,0,0-1.4-.452q-3.2-.672-3.2-2.723a2.468,2.468,0,0,1,.992-2,4,4,0,0,1,2.594-.8,4.307,4.307,0,0,1,2.735.805,2.538,2.538,0,0,1,1.025,2.092h-2.4a1.161,1.161,0,0,0-.332-.851,1.405,1.405,0,0,0-1.038-.336,1.436,1.436,0,0,0-.938.274.865.865,0,0,0-.332.7.739.739,0,0,0,.378.643,3.885,3.885,0,0,0,1.274.423,10.407,10.407,0,0,1,1.511.4,2.482,2.482,0,0,1,1.9,2.416,2.343,2.343,0,0,1-1.054,1.988,4.548,4.548,0,0,1-2.723.76,4.75,4.75,0,0,1-2-.4,3.363,3.363,0,0,1-1.374-1.1,2.565,2.565,0,0,1-.5-1.515h2.274a1.252,1.252,0,0,0,.473.979,1.877,1.877,0,0,0,1.179.34,1.737,1.737,0,0,0,1.042-.261A.814.814,0,0,0,182.68,15.518Z" transform="translate(990.636 8617.071)" fill="#12263f"/>
    <path id="Trazado_214008-2" data-name="Trazado 214008" d="M-.808,1.311H26.244V7.625H-4Z" transform="translate(1183.756 8645.825)" fill="#7f8a9c"/>
    <path id="Trazado_217934" data-name="Trazado 217934" d="M167.34,50.02H-36V6.092H-9.965L-4.83,0H202.363V40.925h-30.02l-5,9.095Z" transform="translate(716.999 8688.431)" fill="#3ae3fe"/>
    <path id="Trazado_217935" data-name="Trazado 217935" d="M80.335,13.974a4.277,4.277,0,0,1-1.44,3.071,5.058,5.058,0,0,1-3.424,1.121A4.548,4.548,0,0,1,71.814,16.6a6.416,6.416,0,0,1-1.332-4.3v-.739A7.245,7.245,0,0,1,71.1,8.5a4.6,4.6,0,0,1,1.756-2.038,5.486,5.486,0,0,1,6.022.411,4.6,4.6,0,0,1,1.478,3.146h-2.49a2.524,2.524,0,0,0-.652-1.7A2.413,2.413,0,0,0,75.5,7.79a2.116,2.116,0,0,0-1.864.892,5,5,0,0,0-.635,2.768v.913a5.352,5.352,0,0,0,.594,2.864,2.077,2.077,0,0,0,1.872.9,2.458,2.458,0,0,0,1.722-.527,2.381,2.381,0,0,0,.652-1.631ZM84.344,18H81.937V5.25h2.407Zm4.507,0H86.445V9.019h2.407ZM86.3,6.694a1.181,1.181,0,0,1,.361-.888,1.556,1.556,0,0,1,1.963,0,1.175,1.175,0,0,1,.365.888,1.178,1.178,0,0,1-.369.9,1.539,1.539,0,0,1-1.951,0A1.178,1.178,0,0,1,86.3,6.694Zm8.658,11.472a4.409,4.409,0,0,1-3.217-1.212A4.308,4.308,0,0,1,90.5,13.725v-.232a5.426,5.426,0,0,1,.523-2.42,3.838,3.838,0,0,1,1.482-1.644A4.159,4.159,0,0,1,94.7,8.853a3.727,3.727,0,0,1,2.9,1.162,4.722,4.722,0,0,1,1.058,3.3v.979H92.936a2.229,2.229,0,0,0,.7,1.411,2.12,2.12,0,0,0,1.482.531,2.589,2.589,0,0,0,2.167-1l1.179,1.32A3.6,3.6,0,0,1,97,17.739,4.793,4.793,0,0,1,94.961,18.166Zm-.274-7.379a1.5,1.5,0,0,0-1.158.484,2.5,2.5,0,0,0-.569,1.384H96.3v-.192a1.786,1.786,0,0,0-.432-1.238A1.547,1.547,0,0,0,94.687,10.787Zm7.537-1.768.075,1.038a3.136,3.136,0,0,1,2.582-1.2,2.606,2.606,0,0,1,2.125.838,3.912,3.912,0,0,1,.714,2.507V18h-2.4V12.256a1.556,1.556,0,0,0-.332-1.108,1.486,1.486,0,0,0-1.1-.344,1.65,1.65,0,0,0-1.519.863V18h-2.4V9.019Zm10.185-2.208V9.019h1.536v1.76h-1.536v4.482a1.07,1.07,0,0,0,.191.714.959.959,0,0,0,.73.216,3.826,3.826,0,0,0,.706-.058V17.95a4.938,4.938,0,0,1-1.453.216,2.29,2.29,0,0,1-2.573-2.548V10.778H108.7V9.019h1.312V6.811Zm7.006,11.355a4.409,4.409,0,0,1-3.217-1.212,4.308,4.308,0,0,1-1.241-3.229v-.232a5.426,5.426,0,0,1,.523-2.42,3.838,3.838,0,0,1,1.482-1.644,4.159,4.159,0,0,1,2.187-.577,3.727,3.727,0,0,1,2.9,1.162,4.722,4.722,0,0,1,1.058,3.3v.979H117.39a2.229,2.229,0,0,0,.7,1.411,2.12,2.12,0,0,0,1.482.531,2.589,2.589,0,0,0,2.167-1l1.179,1.32a3.6,3.6,0,0,1-1.461,1.191A4.793,4.793,0,0,1,119.415,18.166Zm-.274-7.379a1.5,1.5,0,0,0-1.158.484,2.5,2.5,0,0,0-.569,1.384h3.337v-.192a1.786,1.786,0,0,0-.432-1.238A1.547,1.547,0,0,0,119.141,10.787Zm10.193,4.731a.773.773,0,0,0-.436-.693,4.95,4.95,0,0,0-1.4-.452q-3.2-.672-3.2-2.723a2.468,2.468,0,0,1,.992-2,4,4,0,0,1,2.594-.8,4.307,4.307,0,0,1,2.735.805,2.538,2.538,0,0,1,1.025,2.092h-2.4a1.161,1.161,0,0,0-.332-.851,1.405,1.405,0,0,0-1.038-.336,1.436,1.436,0,0,0-.938.274.865.865,0,0,0-.332.7.739.739,0,0,0,.378.643,3.885,3.885,0,0,0,1.274.423,10.407,10.407,0,0,1,1.511.4,2.482,2.482,0,0,1,1.9,2.416,2.343,2.343,0,0,1-1.054,1.988,4.548,4.548,0,0,1-2.723.76,4.75,4.75,0,0,1-2-.4,3.363,3.363,0,0,1-1.374-1.1,2.565,2.565,0,0,1-.5-1.515h2.274a1.252,1.252,0,0,0,.473.979,1.877,1.877,0,0,0,1.179.34,1.737,1.737,0,0,0,1.042-.261A.814.814,0,0,0,129.335,15.518Z" transform="translate(699.999 8702.071)" fill="#12263f"/>
    <path id="Trazado_214008-3" data-name="Trazado 214008" d="M-.808,1.311H26.244V7.625H-4Z" transform="translate(893.119 8730.825)" fill="#7f8a9c"/>
    <path id="Trazado_217928" data-name="Trazado 217928" d="M167.34,50.02H-36V6.092H-9.965L-4.83,0H202.363V40.925h-30.02l-5,9.095Z" transform="translate(425.999 8603.431)" fill="#2b7e3b" opacity="0.39"/>
    <path id="Trazado_217929" data-name="Trazado 217929" d="M75.139,13.061H70.358V18h-2.49V5.914h7.869V7.931H70.358v3.121h4.781ZM79.555,18H77.148V9.019h2.407ZM77.007,6.694a1.181,1.181,0,0,1,.361-.888,1.556,1.556,0,0,1,1.963,0,1.175,1.175,0,0,1,.365.888,1.178,1.178,0,0,1-.369.9,1.539,1.539,0,0,1-1.951,0A1.178,1.178,0,0,1,77.007,6.694Zm6.732,2.324.075,1.038a3.136,3.136,0,0,1,2.582-1.2,2.606,2.606,0,0,1,2.125.838,3.912,3.912,0,0,1,.714,2.507V18h-2.4V12.256a1.556,1.556,0,0,0-.332-1.108,1.486,1.486,0,0,0-1.1-.344,1.65,1.65,0,0,0-1.519.863V18h-2.4V9.019ZM96.256,18a2.664,2.664,0,0,1-.241-.805,2.9,2.9,0,0,1-2.266.971,3.189,3.189,0,0,1-2.187-.764,2.456,2.456,0,0,1-.867-1.926,2.538,2.538,0,0,1,1.058-2.191,5.222,5.222,0,0,1,3.059-.772h1.1V12a1.48,1.48,0,0,0-.32-1,1.257,1.257,0,0,0-1.009-.374,1.429,1.429,0,0,0-.95.291.987.987,0,0,0-.344.8h-2.4a2.41,2.41,0,0,1,.481-1.444A3.182,3.182,0,0,1,92.737,9.23a4.961,4.961,0,0,1,1.976-.378,3.92,3.92,0,0,1,2.635.834,2.918,2.918,0,0,1,.975,2.345v3.893a4.294,4.294,0,0,0,.357,1.934V18Zm-1.984-1.668a2.066,2.066,0,0,0,.979-.237,1.554,1.554,0,0,0,.664-.635V13.916h-.9q-1.8,0-1.917,1.245l-.008.141a.96.96,0,0,0,.315.739A1.225,1.225,0,0,0,94.272,16.332Zm8.1-7.313.075,1.038a3.136,3.136,0,0,1,2.582-1.2,2.606,2.606,0,0,1,2.125.838,3.912,3.912,0,0,1,.714,2.507V18h-2.4V12.256a1.556,1.556,0,0,0-.332-1.108,1.486,1.486,0,0,0-1.1-.344,1.65,1.65,0,0,0-1.519.863V18h-2.4V9.019Zm10.069,7.047h4.391V18H109.38V16.539l4.225-5.586h-4.1V9.019h7.2v1.413ZM123.541,18a2.664,2.664,0,0,1-.241-.805,2.9,2.9,0,0,1-2.266.971,3.189,3.189,0,0,1-2.187-.764,2.456,2.456,0,0,1-.867-1.926,2.538,2.538,0,0,1,1.058-2.191,5.222,5.222,0,0,1,3.059-.772h1.1V12a1.48,1.48,0,0,0-.32-1,1.257,1.257,0,0,0-1.009-.374,1.429,1.429,0,0,0-.95.291.987.987,0,0,0-.344.8h-2.4a2.41,2.41,0,0,1,.481-1.444,3.182,3.182,0,0,1,1.361-1.042A4.961,4.961,0,0,1,122,8.853a3.92,3.92,0,0,1,2.635.834,2.918,2.918,0,0,1,.975,2.345v3.893a4.294,4.294,0,0,0,.357,1.934V18Zm-1.984-1.668a2.066,2.066,0,0,0,.979-.237,1.554,1.554,0,0,0,.664-.635V13.916h-.9q-1.8,0-1.917,1.245l-.008.141a.96.96,0,0,0,.315.739A1.225,1.225,0,0,0,121.557,16.332Zm10.758-.813a.773.773,0,0,0-.436-.693,4.95,4.95,0,0,0-1.4-.452q-3.2-.672-3.2-2.723a2.468,2.468,0,0,1,.992-2,4,4,0,0,1,2.594-.8,4.307,4.307,0,0,1,2.735.805,2.538,2.538,0,0,1,1.025,2.092h-2.4a1.161,1.161,0,0,0-.332-.851,1.405,1.405,0,0,0-1.038-.336,1.436,1.436,0,0,0-.938.274.865.865,0,0,0-.332.7.739.739,0,0,0,.378.643,3.885,3.885,0,0,0,1.274.423,10.407,10.407,0,0,1,1.511.4,2.482,2.482,0,0,1,1.9,2.416,2.343,2.343,0,0,1-1.054,1.988,4.548,4.548,0,0,1-2.723.76,4.75,4.75,0,0,1-2-.4,3.363,3.363,0,0,1-1.374-1.1,2.565,2.565,0,0,1-.5-1.515h2.274a1.252,1.252,0,0,0,.473.979,1.877,1.877,0,0,0,1.179.34,1.737,1.737,0,0,0,1.042-.261A.814.814,0,0,0,132.315,15.518Z" transform="translate(408.999 8617.071)" fill="#12263f"/>
    <path id="Trazado_214008-4" data-name="Trazado 214008" d="M-.808,1.311H26.244V7.625H-4Z" transform="translate(602.119 8645.825)" fill="#7f8a9c"/>
    <path id="Trazado_217926" data-name="Trazado 217926" d="M167.34,50.02H-36V6.092H-9.965L-4.83,0H202.363V40.925h-30.02l-5,9.095Z" transform="translate(482.636 8482.431)" fill="#03386e"/>
    <path id="Trazado_217927" data-name="Trazado 217927" d="M70.694,12.762H65.913V16h5.611v2h-8.1V5.914h8.085V7.931H65.913v2.88h4.781Zm7,2.756a.773.773,0,0,0-.436-.693,4.95,4.95,0,0,0-1.4-.452q-3.2-.672-3.2-2.723a2.468,2.468,0,0,1,.992-2,4,4,0,0,1,2.594-.8,4.307,4.307,0,0,1,2.735.805A2.538,2.538,0,0,1,80,11.75H77.6a1.161,1.161,0,0,0-.332-.851,1.405,1.405,0,0,0-1.038-.336,1.436,1.436,0,0,0-.938.274.865.865,0,0,0-.332.7.739.739,0,0,0,.378.643,3.885,3.885,0,0,0,1.274.423,10.407,10.407,0,0,1,1.511.4,2.482,2.482,0,0,1,1.9,2.416,2.343,2.343,0,0,1-1.054,1.988,4.548,4.548,0,0,1-2.723.76,4.75,4.75,0,0,1-2-.4,3.363,3.363,0,0,1-1.374-1.1,2.565,2.565,0,0,1-.5-1.515h2.274a1.252,1.252,0,0,0,.473.979,1.877,1.877,0,0,0,1.179.34,1.737,1.737,0,0,0,1.042-.261A.814.814,0,0,0,77.691,15.518ZM84.44,6.811V9.019h1.536v1.76H84.44v4.482a1.07,1.07,0,0,0,.191.714.959.959,0,0,0,.73.216,3.826,3.826,0,0,0,.706-.058V17.95a4.938,4.938,0,0,1-1.453.216,2.29,2.29,0,0,1-2.573-2.548V10.778H80.73V9.019h1.312V6.811Zm7.919,4.458A6.517,6.517,0,0,0,91.5,11.2a1.757,1.757,0,0,0-1.785.921V18h-2.4V9.019h2.266l.066,1.071a2.223,2.223,0,0,1,2-1.237,2.514,2.514,0,0,1,.747.108ZM98.468,18a2.664,2.664,0,0,1-.241-.805,2.9,2.9,0,0,1-2.266.971,3.189,3.189,0,0,1-2.187-.764,2.456,2.456,0,0,1-.867-1.926,2.538,2.538,0,0,1,1.058-2.191,5.222,5.222,0,0,1,3.059-.772h1.1V12a1.48,1.48,0,0,0-.32-1,1.257,1.257,0,0,0-1.009-.374,1.429,1.429,0,0,0-.95.291.987.987,0,0,0-.344.8h-2.4a2.41,2.41,0,0,1,.481-1.444A3.182,3.182,0,0,1,94.949,9.23a4.961,4.961,0,0,1,1.976-.378,3.92,3.92,0,0,1,2.635.834,2.918,2.918,0,0,1,.975,2.345v3.893a4.294,4.294,0,0,0,.357,1.934V18Zm-1.984-1.668a2.066,2.066,0,0,0,.979-.237,1.554,1.554,0,0,0,.664-.635V13.916h-.9q-1.8,0-1.917,1.245l-.008.141a.96.96,0,0,0,.315.739A1.225,1.225,0,0,0,96.484,16.332Zm8.766-9.521V9.019h1.536v1.76H105.25v4.482a1.07,1.07,0,0,0,.191.714.959.959,0,0,0,.73.216,3.826,3.826,0,0,0,.706-.058V17.95a4.938,4.938,0,0,1-1.453.216,2.29,2.29,0,0,1-2.573-2.548V10.778H101.54V9.019h1.312V6.811Zm7.006,11.355a4.409,4.409,0,0,1-3.217-1.212,4.308,4.308,0,0,1-1.241-3.229v-.232a5.426,5.426,0,0,1,.523-2.42A3.838,3.838,0,0,1,109.8,9.429a4.159,4.159,0,0,1,2.187-.577,3.727,3.727,0,0,1,2.9,1.162,4.722,4.722,0,0,1,1.058,3.3v.979H110.23a2.229,2.229,0,0,0,.7,1.411,2.12,2.12,0,0,0,1.482.531,2.589,2.589,0,0,0,2.167-1l1.179,1.32a3.6,3.6,0,0,1-1.461,1.191A4.793,4.793,0,0,1,112.256,18.166Zm-.274-7.379a1.5,1.5,0,0,0-1.158.484,2.5,2.5,0,0,0-.569,1.384h3.337v-.192a1.786,1.786,0,0,0-.432-1.238A1.547,1.547,0,0,0,111.982,10.787Zm4.98,2.656a5.264,5.264,0,0,1,.984-3.329A3.187,3.187,0,0,1,120.6,8.853a2.8,2.8,0,0,1,2.3,1.013l.1-.847h2.175V17.7a3.839,3.839,0,0,1-.535,2.05,3.439,3.439,0,0,1-1.507,1.328,5.3,5.3,0,0,1-2.274.457,4.925,4.925,0,0,1-1.926-.394,3.418,3.418,0,0,1-1.419-1.017l1.063-1.461a2.81,2.81,0,0,0,2.175,1,2.057,2.057,0,0,0,1.486-.51,1.915,1.915,0,0,0,.531-1.448v-.481a2.775,2.775,0,0,1-2.183.938,3.179,3.179,0,0,1-2.619-1.266,5.262,5.262,0,0,1-1-3.358Zm2.4.179a3.278,3.278,0,0,0,.49,1.916,1.558,1.558,0,0,0,1.345.694,1.666,1.666,0,0,0,1.569-.823V11.626a1.662,1.662,0,0,0-1.552-.823,1.568,1.568,0,0,0-1.357.707A3.694,3.694,0,0,0,119.361,13.621ZM129.546,18h-2.407V9.019h2.407ZM127,6.694a1.181,1.181,0,0,1,.361-.888,1.556,1.556,0,0,1,1.963,0,1.175,1.175,0,0,1,.365.888,1.178,1.178,0,0,1-.369.9,1.539,1.539,0,0,1-1.951,0A1.178,1.178,0,0,1,127,6.694ZM136.727,18a2.664,2.664,0,0,1-.241-.805,2.9,2.9,0,0,1-2.266.971,3.189,3.189,0,0,1-2.187-.764,2.456,2.456,0,0,1-.867-1.926,2.538,2.538,0,0,1,1.058-2.191,5.222,5.222,0,0,1,3.059-.772h1.1V12a1.48,1.48,0,0,0-.32-1,1.257,1.257,0,0,0-1.009-.374,1.429,1.429,0,0,0-.95.291.987.987,0,0,0-.344.8h-2.4a2.41,2.41,0,0,1,.481-1.444,3.182,3.182,0,0,1,1.361-1.042,4.961,4.961,0,0,1,1.976-.378,3.92,3.92,0,0,1,2.635.834,2.918,2.918,0,0,1,.975,2.345v3.893a4.294,4.294,0,0,0,.357,1.934V18Zm-1.984-1.668a2.066,2.066,0,0,0,.979-.237,1.554,1.554,0,0,0,.664-.635V13.916h-.9q-1.8,0-1.917,1.245l-.008.141a.96.96,0,0,0,.315.739A1.225,1.225,0,0,0,134.743,16.332Z" transform="translate(465.636 8496.071)" fill="#fff"/>
    <path id="Trazado_214008-5" data-name="Trazado 214008" d="M-.808,1.311H26.244V7.625H-4Z" transform="translate(658.756 8524.825)" fill="#7f8a9c"/>
    <g id="Grupo_870645" data-name="Grupo 870645" transform="translate(790 8464)">
      <g id="Grupo_870644" data-name="Grupo 870644" clip-path="url(#clip-path)">
        <path id="Trazado_215148" data-name="Trazado 215148" d="M92.1,0H6.489A6.489,6.489,0,0,0,0,6.489V57.98a6.489,6.489,0,0,0,6.489,6.489H22.62l-1.9,15.7,11.386-15.7H92.1a6.489,6.489,0,0,0,6.489-6.489V6.489A6.489,6.489,0,0,0,92.1,0" fill="#e1efe3"/>
        <rect id="Rectángulo_291317" data-name="Rectángulo 291317" width="43.118" height="5.024" transform="translate(10.256 14.443)" fill="#afafaf"/>
        <rect id="Rectángulo_291318" data-name="Rectángulo 291318" width="78.388" height="5.024" transform="translate(10.256 35.583)" fill="#afafaf"/>
        <rect id="Rectángulo_291319" data-name="Rectángulo 291319" width="78.388" height="5.024" transform="translate(10.256 46.677)" fill="#afafaf"/>
        <rect id="Rectángulo_291320" data-name="Rectángulo 291320" width="28.676" height="5.024" transform="translate(59.968 14.443)" fill="#afafaf"/>
        <rect id="Rectángulo_291321" data-name="Rectángulo 291321" width="16.85" height="5.024" transform="translate(71.794 25.013)" fill="#afafaf"/>
        <rect id="Rectángulo_291322" data-name="Rectángulo 291322" width="21.768" height="5.024" transform="translate(46.153 25.013)" fill="#afafaf"/>
        <rect id="Rectángulo_291323" data-name="Rectángulo 291323" width="32.443" height="5.024" transform="translate(10.256 25.013)" fill="#afafaf"/>
      </g>
    </g>
    <g id="Grupo_870643" data-name="Grupo 870643" transform="translate(658.637 8493.271)">
      <g id="Grupo_870642" data-name="Grupo 870642" clip-path="url(#clip-path-2)">
        <g id="Grupo_870641" data-name="Grupo 870641" transform="translate(0 0)">
          <g id="Grupo_870640" data-name="Grupo 870640" clip-path="url(#clip-path-2)">
            <path id="Trazado_215067" data-name="Trazado 215067" d="M602.765,33.312c.02-.018.039-.043.058-.065l.192-.5,0,.217c.021-.043.043-.086.063-.133A89.784,89.784,0,0,0,601.821,8.1c-.506-2.407-1.2-4.861-2.624-6.513s-3.786-2.228-5.388-.679a6.727,6.727,0,0,0-1.611,4.93,16.193,16.193,0,0,0,1.234,5.148c2.81,7.428,6.987,14.092,8.652,22.069.2.33.429.484.681.257" transform="translate(-558.337 -0.001)" fill="#4a620c"/>
            <g id="Grupo_870621" data-name="Grupo 870621" transform="translate(37.848 5.886)" opacity="0.44">
              <g id="Grupo_870620" data-name="Grupo 870620">
                <g id="Grupo_870619" data-name="Grupo 870619" clip-path="url(#clip-path-4)">
                  <path id="Trazado_215068" data-name="Trazado 215068" d="M668.585,130.539a.145.145,0,0,1-.111-.161c.158-5.173-1.6-12.285-3.1-17.341-1.631-5.487-3.322-9.8-3.339-9.845a.191.191,0,0,1,.057-.219.11.11,0,0,1,.169.064c.017.043,1.712,4.37,3.348,9.871,1.511,5.084,3.28,12.242,3.119,17.47a.153.153,0,0,1-.131.162h-.01" transform="translate(-662.02 -102.952)" fill="#e2e7ed"/>
                </g>
              </g>
            </g>
            <path id="Trazado_215069" data-name="Trazado 215069" d="M768.324,38.2a.842.842,0,0,1-.058-.065l-.192-.5,0,.217c-.021-.043-.043-.085-.063-.133a89.779,89.779,0,0,1,1.253-24.726c.506-2.407,1.2-4.861,2.624-6.514s3.786-2.228,5.388-.679a6.727,6.727,0,0,1,1.611,4.93,16.2,16.2,0,0,1-1.234,5.148c-2.81,7.428-6.987,14.092-8.652,22.069-.2.33-.429.484-.681.257" transform="translate(-723.812 -4.61)" fill="#5d7d1a"/>
            <g id="Grupo_870624" data-name="Grupo 870624" transform="translate(44.376 6.165)" opacity="0.44">
              <g id="Grupo_870623" data-name="Grupo 870623">
                <g id="Grupo_870622" data-name="Grupo 870622" clip-path="url(#clip-path-4)">
                  <path id="Trazado_215070" data-name="Trazado 215070" d="M776.352,135.429a.144.144,0,0,0,.111-.161c-.158-5.173,1.6-12.286,3.1-17.341,1.631-5.487,3.322-9.8,3.338-9.845a.191.191,0,0,0-.057-.219.111.111,0,0,0-.169.064c-.017.043-1.712,4.37-3.348,9.871-1.512,5.084-3.28,12.242-3.12,17.47a.153.153,0,0,0,.131.162h.01" transform="translate(-776.201 -107.843)" fill="#e2e7ed"/>
                </g>
              </g>
            </g>
            <path id="Trazado_215071" data-name="Trazado 215071" d="M527.682,229.7a.619.619,0,0,0,.024-.06l0-.4.053.151c0-.035.008-.07.009-.108a65.464,65.464,0,0,0-7.175-16.712,10.558,10.558,0,0,0-3.472-3.788,2.714,2.714,0,0,0-3.888.975,5,5,0,0,0,.148,3.831,11.723,11.723,0,0,0,2.165,3.219c3.833,4.369,8.415,7.845,11.6,12.9.223.173.419.219.535-.005" transform="translate(-483.593 -196.452)" fill="#5d7d1a"/>
            <g id="Grupo_870627" data-name="Grupo 870627" transform="translate(32.585 16.063)" opacity="0.44">
              <g id="Grupo_870626" data-name="Grupo 870626">
                <g id="Grupo_870625" data-name="Grupo 870625" clip-path="url(#clip-path-6)">
                  <path id="Trazado_215072" data-name="Trazado 215072" d="M581.5,298.273a.1.1,0,0,1-.117-.081c-1.211-3.609-4.239-8.042-6.565-11.125-2.525-3.347-4.792-5.869-4.815-5.894a.142.142,0,0,1-.016-.167.081.081,0,0,1,.133,0c.023.025,2.3,2.554,4.828,5.909,2.34,3.1,5.386,7.562,6.61,11.209a.115.115,0,0,1-.049.147l-.007,0" transform="translate(-569.964 -280.971)" fill="#e2e7ed"/>
                </g>
              </g>
            </g>
            <path id="Trazado_215073" data-name="Trazado 215073" d="M781.949,229.7a.619.619,0,0,1-.023-.06l0-.4-.053.151c0-.035-.008-.07-.01-.108a65.466,65.466,0,0,1,7.175-16.712,10.557,10.557,0,0,1,3.472-3.788,2.714,2.714,0,0,1,3.888.975,4.994,4.994,0,0,1-.148,3.831,11.724,11.724,0,0,1-2.165,3.219c-3.833,4.369-8.414,7.845-11.6,12.9-.223.173-.419.219-.535-.005" transform="translate(-737.161 -196.452)" fill="#4a620c"/>
            <g id="Grupo_870630" data-name="Grupo 870630" transform="translate(44.694 16.063)" opacity="0.44">
              <g id="Grupo_870629" data-name="Grupo 870629">
                <g id="Grupo_870628" data-name="Grupo 870628" clip-path="url(#clip-path-6)">
                  <path id="Trazado_215074" data-name="Trazado 215074" d="M781.828,298.273a.1.1,0,0,0,.117-.081c1.211-3.609,4.239-8.042,6.565-11.125,2.525-3.347,4.792-5.869,4.815-5.894a.141.141,0,0,0,.017-.167.081.081,0,0,0-.133,0c-.023.025-2.3,2.554-4.828,5.909-2.34,3.1-5.386,7.562-6.61,11.209a.115.115,0,0,0,.049.147l.007,0" transform="translate(-781.764 -280.971)" fill="#e2e7ed"/>
                </g>
              </g>
            </g>
            <path id="Trazado_215075" data-name="Trazado 215075" d="M625.033,382.372v11.021c0,2.091-3.147,3.8-6.993,3.8h-5.117c-3.846,0-6.993-1.711-6.993-3.8V382.372Z" transform="translate(-571.29 -360.512)" fill="#fff"/>
            <path id="Trazado_215076" data-name="Trazado 215076" d="M670.012,641.658h9.073c.788,0,1.433.351,1.433.779s-.645.779-1.433.779h-9.073c-.788,0-1.433-.35-1.433-.779s.645-.779,1.433-.779" transform="translate(-630.356 -604.974)" fill="#fff"/>
            <rect id="Rectángulo_291303" data-name="Rectángulo 291303" width="19.102" height="2.382" transform="translate(34.642 21.86)" fill="#fe6b52"/>
            <path id="Trazado_215077" data-name="Trazado 215077" d="M630.505,595.844c-.921,1.516-3.553,2.619-6.639,2.619h-5.117c-3.086,0-5.718-1.1-6.639-2.619Z" transform="translate(-577.115 -561.779)" fill="#fe6b52"/>
            <path id="Trazado_215078" data-name="Trazado 215078" d="M670.012,641.658h9.073c.788,0,1.433.351,1.433.779s-.645.779-1.433.779h-9.073c-.788,0-1.433-.35-1.433-.779s.645-.779,1.433-.779" transform="translate(-630.356 -604.974)" fill="#fe6b52"/>
            <g id="Grupo_870633" data-name="Grupo 870633" transform="translate(34.642 21.86)" opacity="0.22" style="mix-blend-mode: multiply;isolation: isolate">
              <g id="Grupo_870632" data-name="Grupo 870632">
                <g id="Grupo_870631" data-name="Grupo 870631" clip-path="url(#clip-path-8)">
                  <path id="Trazado_215079" data-name="Trazado 215079" d="M610.55,382.372a20.06,20.06,0,0,0-.267,9.483,21.583,21.583,0,0,0,2.209,5.329c-3.646-.123-6.56-1.778-6.56-3.79V382.372Z" transform="translate(-605.932 -382.372)" fill="#33435c"/>
                  <path id="Trazado_215080" data-name="Trazado 215080" d="M670.012,641.658h1.553q.438.782.923,1.558h-2.476c-.788,0-1.433-.35-1.433-.779s.645-.779,1.433-.779" transform="translate(-664.997 -626.834)" fill="#33435c"/>
                </g>
              </g>
            </g>
            <rect id="Rectángulo_291305" data-name="Rectángulo 291305" width="69.18" height="133.365" transform="translate(14.342 39.01)" fill="#fff"/>
            <rect id="Rectángulo_291306" data-name="Rectángulo 291306" width="53.663" height="34.929" transform="translate(22.1 46.631)" fill="#e2e7ed"/>
            <rect id="Rectángulo_291307" data-name="Rectángulo 291307" width="53.663" height="34.929" transform="translate(22.1 86.641)" fill="#e2e7ed"/>
            <rect id="Rectángulo_291308" data-name="Rectángulo 291308" width="53.663" height="34.929" transform="translate(22.1 126.65)" fill="#e2e7ed"/>
            <path id="Trazado_215081" data-name="Trazado 215081" d="M674.332,897.22h21.73a.127.127,0,0,0,.126-.126v-3.558a.127.127,0,0,0-.126-.126h-21.73a.127.127,0,0,0-.126.126v3.558a.127.127,0,0,0,.126.126" transform="translate(-635.661 -842.333)" fill="#7c9ed1"/>
            <path id="Trazado_215082" data-name="Trazado 215082" d="M674.332,1597.043h21.73a.127.127,0,0,0,.126-.126v-3.558a.127.127,0,0,0-.126-.126h-21.73a.127.127,0,0,0-.126.126v3.558a.127.127,0,0,0,.126.126" transform="translate(-635.661 -1502.147)" fill="#7c9ed1"/>
            <path id="Trazado_215083" data-name="Trazado 215083" d="M674.332,2296.867h21.73a.127.127,0,0,0,.126-.126v-3.558a.126.126,0,0,0-.126-.126h-21.73a.127.127,0,0,0-.126.126v3.558a.127.127,0,0,0,.126.126" transform="translate(-635.661 -2161.961)" fill="#7c9ed1"/>
            <path id="Trazado_215084" data-name="Trazado 215084" d="M129.922,672.182l6.751-.164.163,133.955-6.914-8.452Z" transform="translate(-122.494 -633.598)" fill="#60718f"/>
            <g id="Grupo_870636" data-name="Grupo 870636" transform="translate(0 41.032)" opacity="0.11" style="mix-blend-mode: multiply;isolation: isolate">
              <g id="Grupo_870635" data-name="Grupo 870635">
                <g id="Grupo_870634" data-name="Grupo 870634" clip-path="url(#clip-path-9)">
                  <path id="Trazado_215085" data-name="Trazado 215085" d="M8.271,717.715,0,838.971l3.545,7.9,11.979.419L15.36,719.408Z" transform="translate(0 -717.716)" fill="#33435c"/>
                </g>
              </g>
            </g>
            <path id="Trazado_215086" data-name="Trazado 215086" d="M2367.988,2850.426s1.793-1.9,6,0c6,2.708,14.978,9.5,14.249,9.5-1.24,0-21.486-.826-21.486-.826Z" transform="translate(-2231.44 -2686.67)" fill="#464749"/>
            <path id="Trazado_215087" data-name="Trazado 215087" d="M1911.9,2864.336l9.613,9.5-8.657.019a56.627,56.627,0,0,0-3.44-9.405Z" transform="translate(-1800.257 -2700.58)" fill="#464749"/>
            <path id="Trazado_215088" data-name="Trazado 215088" d="M1816.815,2866.522l3.759-.174a56.6,56.6,0,0,1,3.44,9.405l-8.828.019Z" transform="translate(-1711.411 -2702.477)" fill="#323338"/>
            <path id="Trazado_215089" data-name="Trazado 215089" d="M2378.934,999.9c3.737.63,6.859,4.7,6.315,5.924-1.628,1.9-5.971-2.036-5.971-2.036Z" transform="translate(-2242.929 -942.739)" fill="#8b0071"/>
            <path id="Trazado_215090" data-name="Trazado 215090" d="M2385.635,776.677c.336-3.441.676-6.712,1.489-11.337.446-.047,1.013-.03,1.193.381a1.1,1.1,0,0,1,.015.62,18.035,18.035,0,0,0-.1,5.054,38.69,38.69,0,0,0,4.2-4.984c1.031-1.456,1.587-2.018,2.573-3.542.468-1.063.933-.969,1.22-.89a27.1,27.1,0,0,1-3.335,7.441,66.98,66.98,0,0,1,5.736-6.758c.363-.2.828.175.875.588a1.927,1.927,0,0,1-.388,1.159,46.548,46.548,0,0,1-3.824,5.681l4.871-5.062a1.173,1.173,0,0,1,.439,1.243,3.443,3.443,0,0,1-.644,1.238l-3.774,5.326a15.664,15.664,0,0,0,3.581-2.1,1.67,1.67,0,0,1,.678-.408.574.574,0,0,1,.669.3c.1.269-.1.548-.276.769-1.672,2.044-3.692,3.1-5.894,4.521-1.271.821-2.581,2.082-4.117,2.228-.753,1.58-2.193,3.387-2.946,4.967a35.226,35.226,0,0,0-2.936-5.418Z" transform="translate(-2248.597 -718.376)" fill="#f99381"/>
            <path id="Trazado_215091" data-name="Trazado 215091" d="M1724.228,959.432c5.644,7.294,22.866,17.9,22.866,17.9s5.232-.138,5.782-.825c3.053-3.814,11.744-20.883,13.134-23.4-1.382.015-3.3-1.1-4.66-2.648a6.338,6.338,0,0,1-1.657-3.278l-13.155,19.407-16.766-22.577a5.583,5.583,0,0,0-4.154,1.831c-3.061,2.858-5.29,8.546-1.389,13.589" transform="translate(-1623.689 -890.019)" fill="#8b0071"/>
            <path id="Trazado_215092" data-name="Trazado 215092" d="M1782.862,945.842a11.523,11.523,0,0,0,2.432,3.85c2.12,1.9,18.633,20.985,18.633,20.985v2.692l1.65-1.816,13.018-21.093a6.338,6.338,0,0,1-1.657-3.278l-13.155,19.407-16.766-22.577a5.582,5.582,0,0,0-4.153,1.831" transform="translate(-1680.935 -890.019)" fill="#9a0087"/>
            <path id="Trazado_215093" data-name="Trazado 215093" d="M1044.075,2105.894l-8.481,52.464,1.938.36,8.481-52.463Z" transform="translate(-976.389 -1985.498)" fill="#00298b"/>
            <path id="Trazado_215094" data-name="Trazado 215094" d="M1610.586,2105.894l-8.481,52.464,1.938.36,8.481-52.463Z" transform="translate(-1510.511 -1985.498)" fill="#00298b"/>
            <path id="Trazado_215095" data-name="Trazado 215095" d="M2062.155,2105.894l-1.938.36,8.481,52.463,1.938-.36Z" transform="translate(-1942.433 -1985.498)" fill="#00298b"/>
            <path id="Trazado_215096" data-name="Trazado 215096" d="M1495.643,2105.894l-1.938.36,8.481,52.463,1.938-.36Z" transform="translate(-1408.31 -1985.498)" fill="#00298b"/>
            <path id="Trazado_215097" data-name="Trazado 215097" d="M930.39,1109.06c.21,25.739,4.595,36.043,12.757,39.683a17.55,17.55,0,0,0,3.191,1.057c23.677,5.528,56.977-1.758,55.8-9.052s-14.067-2.012-19.928-4.53-3.987-29.422-12.656-41.239c-2.988-4.067-8.582-7.091-14.624-8.126-11.52-1.99-24.69,3.242-24.538,22.208" transform="translate(-877.198 -1024.343)" fill="#ce4d3c"/>
            <path id="Trazado_215098" data-name="Trazado 215098" d="M930.39,1109.06c.21,25.739,4.595,36.043,12.757,39.683a33.134,33.134,0,0,1-6.744-11.932c-2.685-9.24-3.727-31.9,0-39.676,2.706-5.651,9.66-9.089,18.524-10.283-11.52-1.99-24.69,3.242-24.538,22.208" transform="translate(-877.198 -1024.343)" fill="#ef6a51"/>
            <path id="Trazado_215099" data-name="Trazado 215099" d="M1428.836,1724.427a15.344,15.344,0,0,0,.8,1.578c2.577,4.531,7.152,7.789,12.052,9.692a62.824,62.824,0,0,0,17.076,3.5c.825.072,10.9-.123,11.256-.927a30.7,30.7,0,0,0-1.23,6.189c0,2.063,13.637,41.318,13.637,41.318l5.045-.116,4.835-.109s-6.573-57.213-13.6-58.864c-7.137-1.679-14.253-3.424-21.383-5.154-5.6-1.354-10.872-2.772-16.243-2.9a27.96,27.96,0,0,0-10.887,1.824,3.219,3.219,0,0,0-1.455.912c-.652.854-.34,2.078.094,3.062" transform="translate(-1346.708 -1620.365)" fill="#674253"/>
            <path id="Trazado_215100" data-name="Trazado 215100" d="M1450.6,1847.81c2.577,4.531,7.152,7.789,12.052,9.692a62.822,62.822,0,0,0,17.076,3.5c.825.072,10.9-.123,11.256-.927a30.706,30.706,0,0,0-1.23,6.189c0,2.063,13.637,41.318,13.637,41.318l5.045-.116-12.566-52.545s-6.24-1.071-11.307-1.433c-4.517-.326-28.144-4.379-33.963-5.675" transform="translate(-1367.673 -1742.17)" fill="#513343"/>
            <path id="Trazado_215101" data-name="Trazado 215101" d="M1121.473,1763.916c10.163,1.31,19.862,2.4,19.862,2.4a22.036,22.036,0,0,0-1.4,8.455c.673,8.122,9.9,34.2,9.9,34.2l3.344-.065,4.922-.1s-4.133-46.283-4.133-47.521-24.213-18.683-43.352-16.779a15.56,15.56,0,0,0-1.607,5.2c-.883,7.412,4.705,13.2,12.465,14.2" transform="translate(-1045.519 -1644.638)" fill="#674253"/>
            <path id="Trazado_215102" data-name="Trazado 215102" d="M1121.473,1852.137c10.163,1.31,19.862,2.4,19.862,2.4a22.036,22.036,0,0,0-1.4,8.455c.673,8.121,9.9,34.2,9.9,34.2l3.344-.065c-.919-3.677-2.5-10.308-3.88-17.467-2.085-10.836-2.808-28.795-2.808-28.795s-34.057-11.878-37.481-12.935c-.883,7.412,4.705,13.2,12.465,14.2" transform="translate(-1045.519 -1732.859)" fill="#513343"/>
            <path id="Trazado_215103" data-name="Trazado 215103" d="M1109.377,943.012a14.275,14.275,0,0,1-3.387-.307c1.335-6.813,2.846-13.48,3.776-20.387a95.3,95.3,0,0,1,4-18.546c1.207-3.495,2.774-8.1,5.409-10.743,5.139-5.165,13.4-4.985,20.074-3.936,2.784.437,7.3.744,9.573,2.525,2.555,2,2.194,6.013,2.192,8.865,0,4.637-1.266,7.688-3.2,11.816-1.528,3.263-3.634,6.132-4.974,9.53a95.541,95.541,0,0,0-4.383,14.124,20.633,20.633,0,0,0-2.872,1.384c-1.145.862-2.192,1.914-3.276,2.854a7.7,7.7,0,0,1-2.416,1.609c-1.245.431-1.823-.212-2.922-.464a17.547,17.547,0,0,0-5.034-.254c-4.217.294-8.412,1.84-12.565,1.93" transform="translate(-1042.76 -837.704)" fill="#8b0071"/>
            <path id="Trazado_215104" data-name="Trazado 215104" d="M1841.818,1458.956a52.581,52.581,0,0,0,5.3-.831,7.433,7.433,0,0,1,1.773-.2,6.654,6.654,0,0,1,1.847.427,31.749,31.749,0,0,1,8.515,4.485c-.553,1-1.845,1.277-2.982,1.392a69.557,69.557,0,0,1-7.638.212c-2.513-.022-5.271.462-7.742.189-.325-1.835.459-3.908.932-5.671" transform="translate(-1735.57 -1374.567)" fill="#f99381"/>
            <path id="Trazado_215105" data-name="Trazado 215105" d="M1311.836,968.691c.637,0,17.49-.167,24.183-.239a12.5,12.5,0,0,1,.47-3.857c.159-.644.34-1.266.5-1.867l-19.168-3.784c-.55-3.111-.434-18.155-2.091-23.127a6.549,6.549,0,0,0-2.352-3.582,4.267,4.267,0,0,0-3.488-.449,3.99,3.99,0,0,0-.745.275,5.179,5.179,0,0,0-1.5,1.093,6.376,6.376,0,0,0-1.346,2.156,13.7,13.7,0,0,0-.528,1.939c-1.86,8.452,3.177,31.441,6.064,31.441" transform="translate(-1230.741 -878.344)" fill="#9a0087"/>
            <path id="Trazado_215106" data-name="Trazado 215106" d="M2068.79,1208.21l2.686-19.9a2.576,2.576,0,0,1,2.552-2.231h30.614a1.521,1.521,0,0,1,1.5,1.762l-3.335,20.753Z" transform="translate(-1950.516 -1118.275)" fill="#50374b"/>
            <path id="Trazado_215107" data-name="Trazado 215107" d="M1384.419,931.786c3.032,7.641,3.785,30.073,3.785,30.073v2.706l2.822-2.033,19.993,2.062c.159-.644.34-1.266.5-1.867l-19.168-3.785c-.55-3.111-.434-18.155-2.091-23.126a6.549,6.549,0,0,0-2.352-3.582,4.267,4.267,0,0,0-3.488-.449" transform="translate(-1305.271 -878.344)" fill="#a51b94"/>
            <path id="Trazado_215108" data-name="Trazado 215108" d="M873.148,1706.671l-2.831-.972,36.54-79.121,32.588,79.167-2.872.879-29.88-72.589Z" transform="translate(-820.56 -1533.586)" fill="#33435c"/>
            <rect id="Rectángulo_291310" data-name="Rectángulo 291310" width="42.046" height="2.627" transform="translate(64.571 144.974)" fill="#33435c"/>
            <path id="Trazado_215109" data-name="Trazado 215109" d="M2639.769,1706.671l-2.831-.972,36.54-79.121,32.587,79.167-2.872.879-29.879-72.589Z" transform="translate(-2486.183 -1533.586)" fill="#33435c"/>
            <rect id="Rectángulo_291311" data-name="Rectángulo 291311" width="42.046" height="2.627" transform="translate(165.57 144.974)" fill="#33435c"/>
            <rect id="Rectángulo_291312" data-name="Rectángulo 291312" width="176.833" height="5.612" transform="translate(48.547 96.761)" fill="#33435c"/>
            <rect id="Rectángulo_291313" data-name="Rectángulo 291313" width="176.833" height="3.915" transform="translate(48.547 94.764)" fill="#33435c"/>
            <path id="Trazado_215110" data-name="Trazado 215110" d="M855.742,1561.353H657.182a.119.119,0,0,1-.119-.119v-7.673a.119.119,0,0,1,.119-.119H855.742a.119.119,0,0,1,.119.119v7.673a.119.119,0,0,1-.119.119" transform="translate(-619.498 -1464.632)" fill="#fcf6f0"/>
            <path id="Trazado_215111" data-name="Trazado 215111" d="M1566.048,756.59,1569,746.318l8.6,2.492-2.949,10.272a4.478,4.478,0,1,1-8.6-2.492" transform="translate(-1476.349 -703.651)" fill="#f99381"/>
            <path id="Trazado_215112" data-name="Trazado 215112" d="M1612.9,739.725s-2.011,10.594,6.136,12.277l1.476-5.172Z" transform="translate(-1520.48 -697.435)" fill="#f1726d"/>
            <path id="Trazado_215113" data-name="Trazado 215113" d="M1638.1,445.533s8.053-10.1,17.057-3.152c7.018,5.414-4.024,15.645-4.024,15.645Z" transform="translate(-1544.453 -414.791)" fill="#000e2b"/>
            <path id="Trazado_215114" data-name="Trazado 215114" d="M1558.2,512.63s-4.6-4.54-8.3-1.647c-4.083,3.192,1.413,12.527,1.413,12.527Z" transform="translate(-1459.875 -480.861)" fill="#000e2b"/>
            <path id="Trazado_215115" data-name="Trazado 215115" d="M1617.025,570.789l-.313-.036a8.49,8.49,0,0,1-7.434-9.417l1.1-9.532a2.192,2.192,0,0,1,2.426-1.933l11.062,1.282a3.925,3.925,0,0,1,3.437,4.353l-.9,7.814a8.469,8.469,0,0,1-9.375,7.468" transform="translate(-1517.22 -518.421)" fill="#f99381"/>
            <path id="Trazado_215116" data-name="Trazado 215116" d="M1617.864,536.126l1.653-5.286s8.121,1.461,13.768-.907c0,0,2.506-4.94-7.845-5.08s-9.615,3.069-9.615,3.069l.191,5.291Z" transform="translate(-1523.438 -494.842)" fill="#000e2b"/>
            <path id="Trazado_215117" data-name="Trazado 215117" d="M1557.854,669.426a2.854,2.854,0,1,1-2.508-3.176,2.856,2.856,0,0,1,2.508,3.176" transform="translate(-1463.427 -628.142)" fill="#f99381"/>
            <path id="Trazado_215118" data-name="Trazado 215118" d="M3025.916,517.562a2.246,2.246,0,0,0,.8.767,1.216,1.216,0,0,0,.21.072h.007a3.01,3.01,0,0,0,.673.08,9.6,9.6,0,0,0,3.721-.333,6.854,6.854,0,0,0,2.07-1.288c.34-.3.666-.615.977-.927,2.07-2.063,5.1-4.654,5.921-7.514.854-2.953.4-6.24-.362-9.164-1.665-6.334-7.34-9.49-13.42-6.688-2.143.984-3.67,2.3-4.184,4.466a6.391,6.391,0,0,0-.152.869c-.68,6.377-.145,14.253,3.742,19.66" transform="translate(-2849.158 -463.438)" fill="#f99381"/>
            <path id="Trazado_215119" data-name="Trazado 215119" d="M3040.557,496.753c.065.188.148.372.229.546a22.018,22.018,0,0,1,2.329,9.342,84.124,84.124,0,0,0,.911,9.161c.087.847.181,1.737.347,2.6a3.008,3.008,0,0,0,.673.08,9.6,9.6,0,0,0,3.72-.333,6.851,6.851,0,0,0,2.07-1.289c.34-.3.666-.615.977-.926,2.07-2.063,5.1-4.654,5.921-7.514.854-2.953.4-6.24-.362-9.164-1.665-6.334-7.34-9.49-13.42-6.688a7.316,7.316,0,0,0-3.394,2.984,1.432,1.432,0,0,0,0,1.2" transform="translate(-2866.602 -463.438)" fill="#f1726d"/>
            <path id="Trazado_215120" data-name="Trazado 215120" d="M3161.225,810.724c-.375,3.2,1.086,6.7.543,6.515s-9.048,1.267-9.048,1.267l-.181-6.334Z" transform="translate(-2972.306 -764.375)" fill="#f1726d"/>
            <path id="Trazado_215121" data-name="Trazado 215121" d="M2114.084,1230.9l-8.162-19.594a2.31,2.31,0,0,0-2.154-1.476h-31.051a1.348,1.348,0,0,0-1.246,1.864l7.961,19.113Z" transform="translate(-1952.947 -1140.659)" fill="#674253"/>
            <path id="Trazado_215122" data-name="Trazado 215122" d="M2146.345,1253.694l-15.487-.092-7.542-.044-3.751-.023-3.984-.023-1.657-4.062-5.943-14.577h30.945Z" transform="translate(-1987.467 -1164.276)" fill="#51dbf2"/>
            <path id="Trazado_215123" data-name="Trazado 215123" d="M2155.38,2889.339c-2.929,2.755-6.027,5.308-9.049,7.788-4.017.157-7.493.286-7.984.286-.936,0,11.092-5.421,17.033-8.074" transform="translate(-2016.047 -2724.154)" fill="#464749"/>
            <path id="Trazado_215124" data-name="Trazado 215124" d="M2291.115,2864.336l1.24,8.677s-7.38.3-13.5.54c3.022-2.48,6.12-5.033,9.049-7.788,1.923-.859,3.213-1.429,3.213-1.429" transform="translate(-2148.569 -2700.58)" fill="#323338"/>
            <path id="Trazado_215125" data-name="Trazado 215125" d="M2402.355,1698.17l6.03-.015s13.637-39.255,13.637-41.318a30.951,30.951,0,0,0-1.245-6.2s26.58,2.946,32.088,2.5c2.3-.181,4.582-2.374,6.392-5.624a32.054,32.054,0,0,0,3.67-17.126c-.825-10.329-13.225-.413-13.225-.413s-30.576,7.441-37.6,9.092-9.75,59.1-9.75,59.1" transform="translate(-2265.011 -1532.747)" fill="#c15668"/>
            <path id="Trazado_215126" data-name="Trazado 215126" d="M2443.5,1855.131l3.677-.2s13.638-39.255,13.638-41.318a30.946,30.946,0,0,0-1.245-6.2s26.58,2.946,32.088,2.5c2.3-.181,4.582-2.374,6.392-5.625-4.3-5.11-16.909-12.32-16.909-12.32-.543,0-24.611,8.143-27.687,9.048-2.758.811-9.294,44.691-9.953,54.108" transform="translate(-2303.808 -1689.527)" fill="#a8414f"/>
            <path id="Trazado_215127" data-name="Trazado 215127" d="M2783.747,2820.972l.254.031c-1.188,3.8-3.061,7.628-3.8,11.777l-6.787.174Z" transform="translate(-2614.859 -2659.695)" fill="#464749"/>
            <path id="Trazado_215128" data-name="Trazado 215128" d="M2898.981,2821.907l2.479,11.156-9.327.239c.736-4.15,2.609-7.974,3.8-11.777Z" transform="translate(-2726.788 -2660.218)" fill="#323338"/>
            <path id="Trazado_215129" data-name="Trazado 215129" d="M2912.531,2023.583s4.132-46.278,4.132-47.517c0-.424,2.509-2,5.809-3.9-3.95,16.977-5.056,34.427-8.926,51.417Z" transform="translate(-2746.02 -1859.414)" fill="#c15668"/>
            <path id="Trazado_215130" data-name="Trazado 215130" d="M2939.208,1690.963c6.363-3.658,15.677-8.494,15.677-8.494s13.223-14.462,19.833-5.785,6.2,16.941-4.459,21.924-22.4-.851-22.4-.851,2.893,2.892-1.239,9.917-11.233,34.7-11.233,34.7l-5.106.01c3.87-16.99,4.976-34.44,8.926-51.417" transform="translate(-2762.755 -1578.213)" fill="#a8414f"/>
            <path id="Trazado_215131" data-name="Trazado 215131" d="M3021.789,939.07c.477-6.377-1.508-13.663-2.354-19.951-1.344-9.984-2.361-19.266-6.728-28.521a4.8,4.8,0,0,0-3.853-3.224c-9.375-2.727-18.4-3.159-27.771-.389-12.1,3.579,11,56.459,11,56.459s28.6,10.338,29.7-4.374" transform="translate(-2807.347 -834.504)" fill="#c8d4ff"/>
            <path id="Trazado_215132" data-name="Trazado 215132" d="M3082.9,927.727c3.257-2.443,5.972-3.8,13.21-4.434a22.851,22.851,0,0,1,12.577,2.534l5.338,11.22-.271,29.406-18.277.453-11.22-25.245Z" transform="translate(-2906.649 -870.43)" fill="#acbeff"/>
            <path id="Trazado_215133" data-name="Trazado 215133" d="M2671.466,961.439a9.275,9.275,0,0,0,1.252,3.525c3.931-.022,6.746-.116,7.079-.326,1.245-.76,14.875-16.714,20.246-22.787,3.011-3.4,1.093-8.476-1.9-11.611-2.353-2.461-5.364-3.728-7.18-2.063-6.616,6.08-14.463,28.484-14.463,28.484l-4.785,1.26a8.605,8.605,0,0,0-.246,3.518" transform="translate(-2518.66 -874.402)" fill="#acbeff"/>
            <g id="Grupo_870639" data-name="Grupo 870639" transform="translate(126.458 70.598)" opacity="0.25">
              <g id="Grupo_870638" data-name="Grupo 870638">
                <g id="Grupo_870637" data-name="Grupo 870637" clip-path="url(#clip-path-10)">
                  <path id="Trazado_215134" data-name="Trazado 215134" d="M2225.4,1234.874l-7.815,18.662-3.984-.023-1.657-4.062,6.85-14.577Z" transform="translate(-2211.939 -1234.874)" fill="#f3feff"/>
                  <path id="Trazado_215135" data-name="Trazado 215135" d="M2391.607,1234.874l-7.843,18.728-7.542-.044,8.779-18.685Z" transform="translate(-2366.83 -1234.874)" fill="#f3feff"/>
                </g>
              </g>
            </g>
            <path id="Trazado_215136" data-name="Trazado 215136" d="M2186.11,1463.776a15.121,15.121,0,0,1,7.024,1.139l15.462-4.06a8.852,8.852,0,0,0,1.009,7.048c-10.443.072-28.515.041-29.416.041.543-1.595,2.2-3.788,5.921-4.167" transform="translate(-2055.546 -1377.337)" fill="#f99381"/>
            <path id="Trazado_215137" data-name="Trazado 215137" d="M3597.59,2105.894l8.481,52.464-1.938.36-8.481-52.463Z" transform="translate(-3390.087 -1985.498)" fill="#00298b"/>
            <path id="Trazado_215138" data-name="Trazado 215138" d="M3031.08,2105.894l8.48,52.464-1.937.36-8.48-52.463Z" transform="translate(-2855.964 -1985.498)" fill="#00298b"/>
            <path id="Trazado_215139" data-name="Trazado 215139" d="M2579.512,2105.894l1.938.36-8.481,52.463-1.937-.36Z" transform="translate(-2424.043 -1985.498)" fill="#00298b"/>
            <path id="Trazado_215140" data-name="Trazado 215140" d="M3146.023,2105.894l1.938.36-8.481,52.463-1.937-.36Z" transform="translate(-2958.167 -1985.498)" fill="#00298b"/>
            <path id="Trazado_215141" data-name="Trazado 215141" d="M2627.645,1141.29c.68,7.079,32.791,13.826,55.816,8.44,10.206-2.381,15.708-11.813,15.947-40.739.058-7.152-1.781-12.356-4.712-15.947-8.9-10.937-27.919-7.029-34.448,1.868-8.672,11.821-6.8,38.726-12.66,41.238s-18.755-2.765-19.927,4.531a2.439,2.439,0,0,0-.015.608" transform="translate(-2477.409 -1024.277)" fill="#ef6a51"/>
            <path id="Trazado_215142" data-name="Trazado 215142" d="M2627.853,1188.594c.681,7.079,32.791,13.826,55.816,8.44,10.207-2.381,15.708-11.813,15.947-40.739.058-7.152-1.781-12.356-4.712-15.947a24.366,24.366,0,0,0-13.239-3.786,21.306,21.306,0,0,0-17.886,10.257,38.652,38.652,0,0,0-3.54,10.25q-2.758,11.357-5.523,22.707a13.463,13.463,0,0,1-1.773,4.676c-2.063,2.946-6.095,3.779-9.685,3.569s-7.151-1.194-10.735-.9a11.17,11.17,0,0,0-4.669,1.469" transform="translate(-2477.617 -1071.582)" fill="#ce4d3c"/>
            <path id="Trazado_215143" data-name="Trazado 215143" d="M2988.142,457.3a6.556,6.556,0,0,1,.442-2.62c1.317,2.353,4.032,3.909,3.612,6.935a3.01,3.01,0,0,0-.029,1.245c.123.4.572.738.948.565a6.242,6.242,0,0,1,.847-3.952c2.114,1.346,1.506,3.294,2,5.313.594,2.432,2.012,4.893,4.459,5.805a7.066,7.066,0,0,0,2.4.318,4.255,4.255,0,0,0,1.839-.29c1.9-.912,2.765-4.625,3.135-6.471.217-1.086.405-2.186.543-3.294a25.371,25.371,0,0,0,.007-7.1,6.652,6.652,0,0,0-.984-3,2.278,2.278,0,0,0-2.794-.832c0-.007,0-.014,0-.021a2.875,2.875,0,0,0-2.21-2.733,16.263,16.263,0,0,0-7.5-.213,13.24,13.24,0,0,0-7.123,4.835,5.51,5.51,0,0,0-.586,1.115c-.043.123-.087.253-.123.376a4.021,4.021,0,0,0,1.122,4.025" transform="translate(-2816.118 -421.069)" fill="#82472e"/>
            <path id="Trazado_215144" data-name="Trazado 215144" d="M2671.466,959.544c1.368-.109,5.168-.514,5.168-.514v-1.267l2.534,1.267-.9-2.352s10.858-21.354,14.3-24.973a13.476,13.476,0,0,1,5.067-3.8c-2.353-2.461-4.85-3.286-6.667-1.621-6.616,6.08-14.463,28.484-14.463,28.484l-4.785,1.26a8.605,8.605,0,0,0-.246,3.518" transform="translate(-2518.66 -872.507)" fill="#c8d4ff"/>
            <path id="Trazado_215145" data-name="Trazado 215145" d="M1537.254,888.644l3.34,7.864-4.13,2.012-1.783-9.83Z" transform="translate(-1446.942 -837.84)" fill="#9a0087"/>
            <path id="Trazado_215146" data-name="Trazado 215146" d="M1665.745,920.9l3.971-6.214.942,1.328s-2.684,7.821-2.743,7.7-2.171-2.818-2.171-2.818" transform="translate(-1570.513 -862.389)" fill="#9a0087"/>
            <path id="Trazado_215147" data-name="Trazado 215147" d="M1542.391,1024.793l1.4,3.083-4.484,17.779,5.177,1.022,1.141-18.372,2.284-3.16-1.373-1.765-1.58.161Z" transform="translate(-1451.308 -964.873)" fill="#ffad40"/>
          </g>
        </g>
      </g>
    </g>
    <g id="bombilla" transform="translate(882.89 8556.473)">
      <path id="Trazado_215149" data-name="Trazado 215149" d="M114.708,0a19.792,19.792,0,0,0-10.081,36.839,3.4,3.4,0,0,1,1.661,2.934v4.821a1.609,1.609,0,0,1,.622-.125h15.543a1.609,1.609,0,0,1,.622.125V39.773a3.44,3.44,0,0,1,1.7-2.954A19.792,19.792,0,0,0,114.708,0Z" transform="translate(-62.963)" fill="#ffe181"/>
      <g id="Grupo_870646" data-name="Grupo 870646" transform="translate(31.928 0)">
        <path id="Trazado_215150" data-name="Trazado 215150" d="M111.519,39.773a3.4,3.4,0,0,0-1.661-2.934A19.792,19.792,0,0,1,117.3.173,19.8,19.8,0,0,0,94.891,19.791a19.78,19.78,0,0,0,9.736,17.048,3.4,3.4,0,0,1,1.661,2.934v4.821a1.609,1.609,0,0,1,.622-.125h4.608Z" transform="translate(-94.891 0)" fill="#fec458"/>
      </g>
      <g id="Grupo_870647" data-name="Grupo 870647" transform="translate(53.248 20.821)">
        <path id="Trazado_215151" data-name="Trazado 215151" d="M269.4,194.1a.949.949,0,0,1-.949-.949v-8.494a3.9,3.9,0,0,1,.809-2.371l1.358-1.758a1.991,1.991,0,0,0,.413-1.211v-8.864a.949.949,0,0,1,1.9,0v8.864a3.9,3.9,0,0,1-.809,2.371l-1.358,1.758a1.991,1.991,0,0,0-.413,1.211v8.494A.949.949,0,0,1,269.4,194.1Z" transform="translate(-268.453 -169.5)" fill="#ffb640"/>
      </g>
      <g id="Grupo_870648" data-name="Grupo 870648" transform="translate(45.71 20.821)">
        <path id="Trazado_215152" data-name="Trazado 215152" d="M210.617,194.1a.949.949,0,0,1-.949-.949v-8.494a1.992,1.992,0,0,0-.413-1.211l-1.358-1.758a3.9,3.9,0,0,1-.809-2.371v-8.864a.949.949,0,1,1,1.9,0v8.864a1.991,1.991,0,0,0,.413,1.211l1.358,1.758a3.9,3.9,0,0,1,.809,2.371v8.494A.949.949,0,0,1,210.617,194.1Z" transform="translate(-207.087 -169.5)" fill="#ffb640"/>
      </g>
      <g id="Grupo_870649" data-name="Grupo 870649" transform="translate(57.754 5.334)">
        <path id="Trazado_215153" data-name="Trazado 215153" d="M312.9,54.007a13.756,13.756,0,0,0-7.239-8.78.949.949,0,0,1,.836-1.7,15.654,15.654,0,0,1,8.237,9.992.949.949,0,1,1-1.833.492Z" transform="translate(-305.13 -43.426)" fill="#ffeac8"/>
      </g>
      <path id="Trazado_215154" data-name="Trazado 215154" d="M224.8,475.139v.7a3.833,3.833,0,1,0,7.665,0v-.7Z" transform="translate(-176.913 -416.773)" fill="#8479c2"/>
      <path id="Trazado_215155" data-name="Trazado 215155" d="M228.23,475.834v-.7H224.8v.7a3.844,3.844,0,0,0,3.833,3.833,3.8,3.8,0,0,0,1.715-.409A3.843,3.843,0,0,1,228.23,475.834Z" transform="translate(-176.913 -416.773)" fill="#6e60b8"/>
      <g id="Grupo_870650" data-name="Grupo 870650" transform="translate(44.761 21.874)">
        <path id="Trazado_215156" data-name="Trazado 215156" d="M212.329,179.967H200.313a.949.949,0,0,1,0-1.9h12.016a.949.949,0,0,1,0,1.9Z" transform="translate(-199.364 -178.069)" fill="#fec458"/>
      </g>
      <g id="Grupo_870651" data-name="Grupo 870651" transform="translate(23.11 18.335)">
        <path id="Trazado_215157" data-name="Trazado 215157" d="M27.324,151.157H24.059a.949.949,0,1,1,0-1.9h3.265a.949.949,0,1,1,0,1.9Z" transform="translate(-23.11 -149.259)" fill="#fec458"/>
      </g>
      <g id="Grupo_870652" data-name="Grupo 870652" transform="translate(24.591 11.215)">
        <path id="Trazado_215158" data-name="Trazado 215158" d="M38.828,94.294l-3.053-1.159a.949.949,0,1,1,.674-1.775L39.5,92.519a.949.949,0,0,1-.674,1.775Z" transform="translate(-35.163 -91.299)" fill="#fec458"/>
      </g>
      <g id="Grupo_870653" data-name="Grupo 870653" transform="translate(24.591 24.296)">
        <path id="Trazado_215159" data-name="Trazado 215159" d="M35.225,200.228A.949.949,0,0,1,35.776,199l3.053-1.159a.949.949,0,1,1,.674,1.775l-3.053,1.159A.949.949,0,0,1,35.225,200.228Z" transform="translate(-35.163 -197.783)" fill="#fec458"/>
      </g>
      <g id="Grupo_870654" data-name="Grupo 870654" transform="translate(75.164 18.335)">
        <path id="Trazado_215160" data-name="Trazado 215160" d="M451.073,151.157h-3.265a.949.949,0,0,1,0-1.9h3.265a.949.949,0,1,1,0,1.9Z" transform="translate(-446.859 -149.259)" fill="#fec458"/>
      </g>
      <g id="Grupo_870655" data-name="Grupo 870655" transform="translate(73.895 11.215)">
        <path id="Trazado_215161" data-name="Trazado 215161" d="M436.591,93.742a.949.949,0,0,1,.551-1.224l3.053-1.159a.949.949,0,0,1,.674,1.775l-3.052,1.159A.949.949,0,0,1,436.591,93.742Z" transform="translate(-436.529 -91.298)" fill="#fec458"/>
      </g>
      <g id="Grupo_870656" data-name="Grupo 870656" transform="translate(73.895 24.296)">
        <path id="Trazado_215162" data-name="Trazado 215162" d="M440.2,200.779l-3.053-1.159a.949.949,0,1,1,.674-1.775L440.869,199a.949.949,0,1,1-.674,1.775Z" transform="translate(-436.53 -197.784)" fill="#fec458"/>
      </g>
      <path id="Trazado_215163" data-name="Trazado 215163" d="M204.285,437.171H191.272a1.649,1.649,0,0,0-1.647,1.647v1.4a1.649,1.649,0,0,0,1.647,1.647h13.013a1.649,1.649,0,0,0,1.647-1.647v-1.4A1.649,1.649,0,0,0,204.285,437.171Z" transform="translate(-146.06 -383.469)" fill="#efecef"/>
      <path id="Trazado_215164" data-name="Trazado 215164" d="M204.285,447.9H191.272a1.649,1.649,0,0,1-1.577-1.174,1.64,1.64,0,0,0-.07.473v1.4a1.649,1.649,0,0,0,1.647,1.647h13.013a1.649,1.649,0,0,0,1.647-1.647v-1.4a1.639,1.639,0,0,0-.07-.473,1.649,1.649,0,0,1-1.577,1.174Z" transform="translate(-146.06 -391.852)" fill="#e2dfe2"/>
      <path id="Trazado_215165" data-name="Trazado 215165" d="M196.519,399.461H180.976a1.649,1.649,0,0,0-1.647,1.647v1.4a1.649,1.649,0,0,0,1.647,1.647h15.543a1.649,1.649,0,0,0,1.647-1.647v-1.4A1.649,1.649,0,0,0,196.519,399.461Z" transform="translate(-137.029 -350.391)" fill="#efecef"/>
      <path id="Trazado_215166" data-name="Trazado 215166" d="M196.518,410.191H180.975a1.649,1.649,0,0,1-1.577-1.174,1.639,1.639,0,0,0-.07.473v1.4a1.649,1.649,0,0,0,1.647,1.647h15.543a1.649,1.649,0,0,0,1.647-1.647v-1.4a1.64,1.64,0,0,0-.07-.473A1.649,1.649,0,0,1,196.518,410.191Z" transform="translate(-137.028 -358.773)" fill="#e2dfe2"/>
      <path id="Trazado_215167" data-name="Trazado 215167" d="M196.519,361.75H180.976a1.649,1.649,0,0,0-1.647,1.647v1.4a1.649,1.649,0,0,0,1.647,1.647h15.543a1.649,1.649,0,0,0,1.647-1.647v-1.4A1.649,1.649,0,0,0,196.519,361.75Z" transform="translate(-137.029 -317.312)" fill="#efecef"/>
      <path id="Trazado_215168" data-name="Trazado 215168" d="M196.518,372.481H180.975a1.649,1.649,0,0,1-1.577-1.174,1.639,1.639,0,0,0-.07.473v1.4a1.649,1.649,0,0,0,1.647,1.647h15.543a1.649,1.649,0,0,0,1.647-1.647v-1.4a1.639,1.639,0,0,0-.07-.473A1.649,1.649,0,0,1,196.518,372.481Z" transform="translate(-137.028 -325.695)" fill="#e2dfe2"/>
    </g>
    <g id="confrontacion" transform="translate(599.998 8671.791)">
      <path id="Trazado_215169" data-name="Trazado 215169" d="M283.033,199.937l2.584,14.2,5.539-.62-.264-9.173-4.186-6.117Z" transform="translate(-255.034 -178.619)" fill="#4cb05f"/>
      <g id="Grupo_870658" data-name="Grupo 870658" transform="translate(31.672 19.608)">
        <g id="Grupo_870657" data-name="Grupo 870657">
          <path id="Trazado_215170" data-name="Trazado 215170" d="M320.163,198.227l4.45,15.29,5.207-2.393L324.7,198.36Z" transform="translate(-320.163 -198.227)" fill="#359547"/>
        </g>
      </g>
      <g id="Grupo_870660" data-name="Grupo 870660" transform="translate(23.841)">
        <g id="Grupo_870659" data-name="Grupo 870659">
          <path id="Trazado_215171" data-name="Trazado 215171" d="M242.486,0l.9,3.653-.9,4.755A1.484,1.484,0,0,1,241,6.924V1.484A1.484,1.484,0,0,1,242.486,0Z" transform="translate(-241.002 0)" fill="#e6f2f2"/>
        </g>
      </g>
      <g id="Grupo_870662" data-name="Grupo 870662" transform="translate(14.246 1.483)">
        <g id="Grupo_870661" data-name="Grupo 870661">
          <path id="Trazado_215172" data-name="Trazado 215172" d="M147.958,22.12a1.483,1.483,0,0,1-1.276-.725l-2.473-4.155a1.484,1.484,0,0,1,2.55-1.518l2.473,4.155a1.484,1.484,0,0,1-1.274,2.243Z" transform="translate(-143.999 -14.997)" fill="#e6f2f2"/>
        </g>
      </g>
      <g id="Grupo_870664" data-name="Grupo 870664" transform="translate(30.963 1.483)">
        <g id="Grupo_870663" data-name="Grupo 870663">
          <path id="Trazado_215173" data-name="Trazado 215173" d="M314.482,22.119a1.484,1.484,0,0,1-1.274-2.243l2.473-4.155a1.484,1.484,0,0,1,2.55,1.518l-2.473,4.155A1.483,1.483,0,0,1,314.482,22.119Z" transform="translate(-312.999 -14.996)" fill="#b9d9d9"/>
        </g>
      </g>
      <path id="Trazado_215174" data-name="Trazado 215174" d="M434.32,47.543a1.5,1.5,0,0,0-1.3-2.206h-2.66l2.133-2.992a1.484,1.484,0,0,0-2.416-1.723l-3.8,5.337a1.484,1.484,0,0,0,1.208,2.345h2.66L428.012,51.3a1.484,1.484,0,1,0,2.416,1.723c.087-.137,3.828-5.34,3.892-5.476Z" transform="translate(-383.86 -36.043)" fill="#ffc34d"/>
      <path id="Trazado_215175" data-name="Trazado 215175" d="M8.321,47.543a1.5,1.5,0,0,0-1.3-2.206H4.366L6.5,42.345a1.484,1.484,0,1,0-2.416-1.723l-3.8,5.337A1.484,1.484,0,0,0,1.486,48.3h2.66L2.013,51.3a1.484,1.484,0,0,0,2.416,1.723c.087-.137,3.828-5.34,3.892-5.476Z" transform="translate(0 -36.043)" fill="#ffea80"/>
      <g id="Grupo_870670" data-name="Grupo 870670" transform="translate(0.002 12.565)">
        <g id="Grupo_870666" data-name="Grupo 870666" transform="translate(9.319 7.046)">
          <g id="Grupo_870665" data-name="Grupo 870665">
            <path id="Trazado_215176" data-name="Trazado 215176" d="M103.869,198.25l.2,8.588-4.646,6.7-5.207-2.393,5.116-12.764Z" transform="translate(-94.212 -198.25)" fill="#b9d9d9"/>
          </g>
        </g>
        <path id="Trazado_215177" data-name="Trazado 215177" d="M154.975,199.96l-2.584,14.2-5.539-.62,4.45-15.29Z" transform="translate(-132.326 -191.204)" fill="#8fbfbf"/>
        <path id="Trazado_215178" data-name="Trazado 215178" d="M141.2,127.265l-.233,5.324-3.155,6.318a6.062,6.062,0,0,1,3.388-11.642Z" transform="translate(-120.243 -127.022)" fill="#e6f2f2"/>
        <g id="Grupo_870668" data-name="Grupo 870668" transform="translate(5.411 19.302)">
          <g id="Grupo_870667" data-name="Grupo 870667">
            <path id="Trazado_215179" data-name="Trazado 215179" d="M64.174,323.979l1.874,5.359-4.231,2.738L55.731,330.3a1.421,1.421,0,0,1-.965-1.76l1.563-5.372a1.421,1.421,0,0,1,1.76-.965Z" transform="translate(-54.708 -322.15)" fill="#e6f2f2"/>
          </g>
        </g>
        <g id="Grupo_870669" data-name="Grupo 870669" transform="translate(0 24.969)">
          <path id="Trazado_215180" data-name="Trazado 215180" d="M13.178,381.448l2.672,6.212-5.064,2.006-9.745-2.838a1.437,1.437,0,0,1-.98-1.784l.553-1.9a5.137,5.137,0,0,1,6.37-3.5Z" transform="translate(-0.003 -379.436)" fill="#b9d9d9"/>
        </g>
        <path id="Trazado_215181" data-name="Trazado 215181" d="M135.981,344.171l-1.564,5.373a1.42,1.42,0,0,1-1.363,1.021,1.431,1.431,0,0,1-.4-.055l-6.086-1.773,2.357-8.1,6.086,1.774A1.418,1.418,0,0,1,135.981,344.171Z" transform="translate(-114.052 -319.509)" fill="#b9d9d9"/>
        <path id="Trazado_215182" data-name="Trazado 215182" d="M185.114,137a6.059,6.059,0,0,1-7.512,4.126l3.388-11.642A6.063,6.063,0,0,1,185.114,137Z" transform="translate(-160.034 -129.237)" fill="#b9d9d9"/>
        <path id="Trazado_215183" data-name="Trazado 215183" d="M121.05,407.931l-.554,1.9a1.449,1.449,0,0,1-1.785.98l-9.7-2.826,2.392-8.218,6.15,1.79a5.145,5.145,0,0,1,3.5,6.37Z" transform="translate(-98.229 -372.79)" fill="#8fbfbf"/>
      </g>
      <path id="Trazado_215184" data-name="Trazado 215184" d="M289.8,344.148l1.564,5.373a1.42,1.42,0,0,0,1.363,1.021,1.43,1.43,0,0,0,.4-.055l6.086-1.773,1.737-5.782-4.094-2.316-6.086,1.774a1.418,1.418,0,0,0-.965,1.758Z" transform="translate(-261.077 -306.924)" fill="#63c074"/>
      <g id="Grupo_870672" data-name="Grupo 870672" transform="translate(35.771 31.865)">
        <g id="Grupo_870671" data-name="Grupo 870671">
          <path id="Trazado_215185" data-name="Trazado 215185" d="M361.6,323.956l2.357,8.1,6.087-1.773a1.421,1.421,0,0,0,.965-1.76l-1.563-5.372a1.421,1.421,0,0,0-1.76-.965Z" transform="translate(-361.603 -322.127)" fill="#4cb05f"/>
        </g>
      </g>
      <path id="Trazado_215186" data-name="Trazado 215186" d="M279.421,407.908l.554,1.9a1.449,1.449,0,0,0,1.785.98l9.7-2.826,2.381-5.484-4.773-2.734-6.15,1.79A5.144,5.144,0,0,0,279.421,407.908Z" transform="translate(-251.594 -360.204)" fill="#4cb05f"/>
      <g id="Grupo_870674" data-name="Grupo 870674" transform="translate(37.474 37.531)">
        <g id="Grupo_870673" data-name="Grupo 870673">
          <path id="Trazado_215187" data-name="Trazado 215187" d="M378.813,381.425l2.392,8.218,9.745-2.838a1.437,1.437,0,0,0,.98-1.785l-.553-1.9a5.137,5.137,0,0,0-6.37-3.5Z" transform="translate(-378.813 -379.413)" fill="#359547"/>
        </g>
      </g>
      <path id="Trazado_215188" data-name="Trazado 215188" d="M256.247,136.973a6.059,6.059,0,0,0,7.512,4.126l.49-7.188-3.878-4.453A6.063,6.063,0,0,0,256.247,136.973Z" transform="translate(-230.679 -116.651)" fill="#63c074"/>
      <path id="Trazado_215189" data-name="Trazado 215189" d="M300.153,127.242l3.388,11.642a6.062,6.062,0,0,0-3.388-11.642Z" transform="translate(-270.46 -114.436)" fill="#4cb05f"/>
      <path id="Trazado_215190" data-name="Trazado 215190" d="M257.486,1.484V6.924A1.484,1.484,0,0,1,256,8.408V0A1.484,1.484,0,0,1,257.486,1.484Z" transform="translate(-230.677)" fill="#b9d9d9"/>
    </g>
    <path id="Trazado_217925" data-name="Trazado 217925" d="M0,0H820V323H0Z" transform="translate(390 8440)" fill="none"/>
  </g>
</svg>
