<svg xmlns="http://www.w3.org/2000/svg" xmlns:xlink="http://www.w3.org/1999/xlink" width="190" height="163" viewBox="0 0 190 163">
  <defs>
    <clipPath id="clip-path">
      <rect id="Rectángulo_291294" data-name="Rectángulo 291294" width="127.166" height="127.166" fill="#03386e"/>
    </clipPath>
  </defs>
  <g id="Grupo_872045" data-name="Grupo 872045" transform="translate(6217 2536)">
    <g id="Grupo_870599" data-name="Grupo 870599" transform="translate(403 739)">
      <g id="Grupo_870598" data-name="Grupo 870598">
        <g id="Grupo_870591" data-name="Grupo 870591" transform="translate(0 402)">
          <rect id="Rectángulo_291281" data-name="Rectángulo 291281" width="190" height="163" transform="translate(-6620 -3677)" fill="none"/>
          <rect id="Rectángulo_291283" data-name="Rectángulo 291283" width="50" height="52" transform="translate(-6480 -3677)" fill="#03386e"/>
          <text id="_04" data-name="04" transform="translate(-6453 -3640)" fill="#e1fbff" font-size="30" font-family="Roboto-Bold, Roboto" font-weight="700"><tspan x="-17.212" y="0">04</tspan></text>
        </g>
        <g id="Grupo_870600" data-name="Grupo 870600" transform="translate(-6598.164 -3251.985)">
          <g id="Grupo_870600-2" data-name="Grupo 870600" clip-path="url(#clip-path)">
            <path id="Trazado_215016" data-name="Trazado 215016" d="M88.381,82.447a12.587,12.587,0,1,1,12.587-12.587A12.6,12.6,0,0,1,88.381,82.447m0-21.32a8.734,8.734,0,1,0,8.733,8.733,8.743,8.743,0,0,0-8.733-8.733" transform="translate(-24.797 -18.738)" fill="#03386e"/>
            <path id="Trazado_215017" data-name="Trazado 215017" d="M76.7,113.308A36.609,36.609,0,1,1,113.308,76.7,36.65,36.65,0,0,1,76.7,113.308m0-69.364A32.755,32.755,0,1,0,109.455,76.7,32.793,32.793,0,0,0,76.7,43.944" transform="translate(-13.117 -13.117)" fill="#03386e"/>
            <path id="Trazado_215018" data-name="Trazado 215018" d="M96,179.01H80.586a1.927,1.927,0,0,1-1.894-1.572l-3.131-16.695a1.927,1.927,0,1,1,3.787-.71l2.837,15.123H94.4l2.837-15.123a1.927,1.927,0,1,1,3.787.71l-3.131,16.695A1.926,1.926,0,0,1,96,179.01" transform="translate(-24.711 -51.844)" fill="#03386e"/>
            <path id="Trazado_215019" data-name="Trazado 215019" d="M57.7,36.854h0a1.931,1.931,0,0,1-.767-3.7,1.933,1.933,0,0,1,2.185,3.089,1.92,1.92,0,0,1-1.348.611H57.7" transform="translate(-18.246 -10.795)" fill="#03386e"/>
            <path id="Trazado_215020" data-name="Trazado 215020" d="M30.263,47.519a1.92,1.92,0,0,1-1.362-.564,1.94,1.94,0,0,1-.307-.4l-9.516-13.9a1.926,1.926,0,0,1,.227-2.45l10.9-10.9a1.928,1.928,0,0,1,2.451-.227l13.9,9.514a1.919,1.919,0,0,1,.956,1.662v.009a1.926,1.926,0,0,1-3.015,1.591L31.8,23.163,23.162,31.8l8.692,12.7a1.932,1.932,0,0,1-1.591,3.024" transform="translate(-6.132 -6.132)" fill="#03386e"/>
            <path id="Trazado_215021" data-name="Trazado 215021" d="M143.443,156.272a1.918,1.918,0,0,1-1.087-.336l-13.9-9.516a1.924,1.924,0,0,1-.4-3.032,1.914,1.914,0,0,1,1.3-.563,1.874,1.874,0,0,1,1.164.335l12.7,8.692,8.634-8.634-8.692-12.7a1.927,1.927,0,0,1,3.18-2.177l9.6,14.017a1.928,1.928,0,0,1-.227,2.451l-10.9,10.9a1.925,1.925,0,0,1-1.363.564" transform="translate(-41.711 -41.716)" fill="#03386e"/>
            <path id="Trazado_215022" data-name="Trazado 215022" d="M152.207,131.354h-.081c-.005,0-.011,0-.015,0a1.925,1.925,0,0,1-1.84-1.924c0-.03,0-.061,0-.091a1.931,1.931,0,1,1,1.934,2.017" transform="translate(-49.164 -41.711)" fill="#03386e"/>
            <path id="Trazado_215023" data-name="Trazado 215023" d="M18.624,101.06a1.95,1.95,0,0,1-.357-.034L1.572,97.9A1.927,1.927,0,0,1,0,96V80.588a1.927,1.927,0,0,1,1.572-1.893l16.7-3.131a1.927,1.927,0,1,1,.709,3.787L3.853,82.187V94.4l15.123,2.837a1.927,1.927,0,0,1-.353,3.821" transform="translate(0 -24.711)" fill="#03386e"/>
            <path id="Trazado_215024" data-name="Trazado 215024" d="M160.385,101.06a1.927,1.927,0,0,1-.353-3.821L175.156,94.4V82.187L160.032,79.35a1.927,1.927,0,1,1,.709-3.787l16.7,3.131a1.927,1.927,0,0,1,1.572,1.893V96a1.927,1.927,0,0,1-1.572,1.894l-16.7,3.131a1.95,1.95,0,0,1-.357.034" transform="translate(-51.843 -24.711)" fill="#03386e"/>
            <path id="Trazado_215025" data-name="Trazado 215025" d="M31.565,156.267A1.925,1.925,0,0,1,30.2,155.7l-10.9-10.9a1.928,1.928,0,0,1-.227-2.451l9.516-13.9a1.929,1.929,0,1,1,3.261,2.059l-8.692,12.7,8.634,8.634,12.7-8.692a1.872,1.872,0,0,1,1.165-.335,1.927,1.927,0,0,1,1.3,3.287,1.955,1.955,0,0,1-.4.307l-13.9,9.516a1.918,1.918,0,0,1-1.087.336" transform="translate(-6.132 -41.711)" fill="#03386e"/>
            <path id="Trazado_215026" data-name="Trazado 215026" d="M144.745,47.519a1.934,1.934,0,0,1-1.59-3.024l8.692-12.7-8.634-8.634-12.7,8.692a1.93,1.93,0,1,1-2.06-3.26l13.9-9.516a1.929,1.929,0,0,1,2.451.227l10.9,10.9a1.926,1.926,0,0,1,.227,2.45l-9.516,13.9a1.92,1.92,0,0,1-1.669.965" transform="translate(-41.711 -6.132)" fill="#03386e"/>
            <path id="Trazado_215027" data-name="Trazado 215027" d="M70.993,159.635a1.946,1.946,0,0,1-.449-.052,47.394,47.394,0,0,1-13.673-5.637,1.931,1.931,0,0,1,.825-3.675,1.827,1.827,0,0,1,1.02.285,43.523,43.523,0,0,0,12.723,5.278,1.927,1.927,0,0,1-.445,3.8" transform="translate(-18.246 -49.164)" fill="#03386e"/>
            <path id="Trazado_215028" data-name="Trazado 215028" d="M26.741,72.919a1.928,1.928,0,0,1-1.875-2.374A47.39,47.39,0,0,1,30.5,56.872a1.931,1.931,0,0,1,3.674.826v.015a1.923,1.923,0,0,1-.286,1A43.56,43.56,0,0,0,28.614,71.44a1.927,1.927,0,0,1-1.872,1.48" transform="translate(-8.118 -18.247)" fill="#03386e"/>
            <path id="Trazado_215029" data-name="Trazado 215029" d="M32.25,124.893a1.934,1.934,0,0,1-1.737-1.082,47.381,47.381,0,0,1-5.648-13.692,1.927,1.927,0,0,1,3.748-.894,43.521,43.521,0,0,0,5.278,12.723,1.935,1.935,0,0,1-1.641,2.946" transform="translate(-8.118 -35.251)" fill="#03386e"/>
            <path id="Trazado_215030" data-name="Trazado 215030" d="M122.966,34.177h-.01a1.927,1.927,0,0,1-1.01-.285,43.539,43.539,0,0,0-12.723-5.278,1.927,1.927,0,1,1,.895-3.748,47.413,47.413,0,0,1,13.8,5.71,1.926,1.926,0,0,1-.947,3.6" transform="translate(-35.251 -8.118)" fill="#03386e"/>
            <path id="Trazado_215031" data-name="Trazado 215031" d="M57.705,26.059A1.928,1.928,0,0,1,56.85,22.4a47.372,47.372,0,0,1,12.474-5.341l2.9-15.485A1.927,1.927,0,0,1,74.121,0H89.536A1.927,1.927,0,0,1,91.43,1.572l3.131,16.7a1.927,1.927,0,0,1-3.788.71L87.936,3.854H75.72L72.884,18.978A1.925,1.925,0,0,1,71.438,20.5a43.566,43.566,0,0,0-12.723,5.278,1.923,1.923,0,0,1-1.009.285" transform="translate(-18.246 0)" fill="#03386e"/>
            <path id="Trazado_215032" data-name="Trazado 215032" d="M157.706,72.919a1.926,1.926,0,0,1-1.872-1.48,43.561,43.561,0,0,0-5.278-12.723,1.929,1.929,0,0,1-.285-1V57.7a1.931,1.931,0,0,1,3.672-.828,47.39,47.39,0,0,1,5.638,13.676,1.928,1.928,0,0,1-1.875,2.374" transform="translate(-49.164 -18.247)" fill="#03386e"/>
            <path id="Trazado_215033" data-name="Trazado 215033" d="M152.2,124.889a1.922,1.922,0,0,1-1.926-1.922,1.957,1.957,0,0,1,.285-1.019,43.554,43.554,0,0,0,5.277-12.723,1.927,1.927,0,0,1,3.748.895,47.419,47.419,0,0,1-5.711,13.8,1.927,1.927,0,0,1-1.673.974" transform="translate(-49.164 -35.251)" fill="#03386e"/>
            <path id="Trazado_215034" data-name="Trazado 215034" d="M129.431,36.848a1.922,1.922,0,0,1-1.926-1.922v-.009a1.926,1.926,0,1,1,1.926,1.931" transform="translate(-41.716 -10.794)" fill="#03386e"/>
            <path id="Trazado_215035" data-name="Trazado 215035" d="M109.67,159.635a1.927,1.927,0,0,1-.446-3.8,43.524,43.524,0,0,0,12.723-5.278,1.932,1.932,0,1,1,1.845,3.389,47.378,47.378,0,0,1-13.673,5.637,1.945,1.945,0,0,1-.449.052" transform="translate(-35.251 -49.164)" fill="#03386e"/>
            <path id="Trazado_215036" data-name="Trazado 215036" d="M152.207,131.359H152.2a1.926,1.926,0,1,1,.009,0" transform="translate(-49.164 -41.716)" fill="#03386e"/>
            <path id="Trazado_215037" data-name="Trazado 215037" d="M103.463,113.821a1.926,1.926,0,0,1-1.926-1.926V100.335a7.716,7.716,0,0,0-7.707-7.707H74.562a7.716,7.716,0,0,0-7.707,7.707V111.9a1.927,1.927,0,0,1-3.853,0V100.335A11.573,11.573,0,0,1,74.562,88.774H93.829a11.573,11.573,0,0,1,11.56,11.561V111.9a1.926,1.926,0,0,1-1.926,1.926" transform="translate(-20.612 -29.044)" fill="#03386e"/>
            <path id="Trazado_215038" data-name="Trazado 215038" d="M79.246,125.224A1.926,1.926,0,0,1,77.32,123.3V107.883a1.926,1.926,0,1,1,3.853,0V123.3a1.926,1.926,0,0,1-1.926,1.926" transform="translate(-25.297 -34.666)" fill="#03386e"/>
            <path id="Trazado_215039" data-name="Trazado 215039" d="M107.882,125.224a1.926,1.926,0,0,1-1.926-1.926V107.883a1.926,1.926,0,1,1,3.853,0V123.3a1.926,1.926,0,0,1-1.926,1.926" transform="translate(-34.666 -34.666)" fill="#03386e"/>
          </g>
        </g>
      </g>
    </g>
  </g>
</svg>
