<svg xmlns="http://www.w3.org/2000/svg" xmlns:xlink="http://www.w3.org/1999/xlink" width="190" height="163" viewBox="0 0 190 163">
  <defs>
    <clipPath id="clip-path">
      <rect id="Rectángulo_291287" data-name="Rectángulo 291287" width="131" height="131" transform="translate(0 0)" fill="#03386e"/>
    </clipPath>
  </defs>
  <g id="Grupo_872043" data-name="Grupo 872043" transform="translate(6194 3296)">
    <g id="Grupo_870595" data-name="Grupo 870595" transform="translate(426 -21)">
      <g id="Grupo_870591" data-name="Grupo 870591" transform="translate(0 402)">
        <rect id="Rectángulo_291281" data-name="Rectángulo 291281" width="190" height="163" transform="translate(-6620 -3677)" fill="none"/>
        <rect id="Rectángulo_291283" data-name="Rectángulo 291283" width="50" height="52" transform="translate(-6480 -3677)" fill="#03386e"/>
        <text id="_02" data-name="02" transform="translate(-6453 -3640)" fill="#e1fbff" font-size="30" font-family="Roboto-Bold, Roboto" font-weight="700"><tspan x="-17.212" y="0">02</tspan></text>
      </g>
      <g id="Grupo_870593" data-name="Grupo 870593" transform="translate(-6597 -3251.837)">
        <g id="Grupo_870592" data-name="Grupo 870592" transform="translate(0 -0.163)" clip-path="url(#clip-path)">
          <path id="Trazado_214970" data-name="Trazado 214970" d="M97.031,132.463H1.98A1.979,1.979,0,0,1,0,130.483V7.708a1.979,1.979,0,0,1,1.98-1.98H27.722a1.98,1.98,0,1,1,0,3.96H3.96V128.5H95.051V9.688H71.288a1.98,1.98,0,1,1,0-3.96H97.031a1.979,1.979,0,0,1,1.98,1.98V130.483a1.979,1.979,0,0,1-1.98,1.98" transform="translate(0 -1.571)" fill="#03386e"/>
          <path id="Trazado_214971" data-name="Trazado 214971" d="M92.644,128.075H13.435a1.979,1.979,0,0,1-1.98-1.98V19.162a1.979,1.979,0,0,1,1.98-1.98H31.257a1.98,1.98,0,0,1,0,3.96H15.415V124.115h75.25V21.142H74.822a1.98,1.98,0,1,1,0-3.96H92.644a1.979,1.979,0,0,1,1.98,1.98V126.1a1.979,1.979,0,0,1-1.98,1.98" transform="translate(-3.534 -5.104)" fill="#03386e"/>
          <path id="Trazado_214972" data-name="Trazado 214972" d="M82.773,19.8H39.208a1.979,1.979,0,0,1-1.98-1.98V1.98A1.979,1.979,0,0,1,39.208,0H82.773a1.979,1.979,0,0,1,1.98,1.98V17.822a1.979,1.979,0,0,1-1.98,1.98m-41.586-3.96H80.793V3.96H41.188Z" transform="translate(-11.485 0.196)" fill="#03386e"/>
          <path id="Trazado_214973" data-name="Trazado 214973" d="M37.009,68.062a1.972,1.972,0,0,1-1.347-.53l-6.393-5.94a1.98,1.98,0,0,1,2.7-2.9l6.393,5.941a1.98,1.98,0,0,1-1.348,3.431" transform="translate(-8.834 -17.746)" fill="#03386e"/>
          <path id="Trazado_214974" data-name="Trazado 214974" d="M39.865,64.254a1.98,1.98,0,0,1-1.6-3.138L48.7,46.64a1.98,1.98,0,1,1,3.213,2.317L41.473,63.433a1.977,1.977,0,0,1-1.608.822" transform="translate(-11.688 -13.939)" fill="#03386e"/>
          <path id="Trazado_214975" data-name="Trazado 214975" d="M37.009,107.266a1.972,1.972,0,0,1-1.347-.53l-6.393-5.94a1.98,1.98,0,0,1,2.7-2.9l6.393,5.941a1.98,1.98,0,0,1-1.348,3.431" transform="translate(-8.834 -29.84)" fill="#03386e"/>
          <path id="Trazado_214976" data-name="Trazado 214976" d="M39.865,103.459a1.98,1.98,0,0,1-1.6-3.139L48.7,85.844a1.98,1.98,0,0,1,3.213,2.317L41.473,102.637a1.977,1.977,0,0,1-1.608.822" transform="translate(-11.688 -26.033)" fill="#03386e"/>
          <path id="Trazado_214977" data-name="Trazado 214977" d="M37.009,150.221a1.972,1.972,0,0,1-1.347-.53l-6.393-5.94a1.98,1.98,0,1,1,2.7-2.9l6.393,5.941a1.98,1.98,0,0,1-1.348,3.431" transform="translate(-8.834 -43.092)" fill="#03386e"/>
          <path id="Trazado_214978" data-name="Trazado 214978" d="M39.865,146.414a1.98,1.98,0,0,1-1.6-3.139L48.7,128.8a1.98,1.98,0,0,1,3.213,2.317L41.473,145.592a1.977,1.977,0,0,1-1.608.822" transform="translate(-11.688 -39.284)" fill="#03386e"/>
          <path id="Trazado_214979" data-name="Trazado 214979" d="M97.548,69.824h-29.7a1.98,1.98,0,0,1,0-3.96h29.7a1.98,1.98,0,0,1,0,3.96" transform="translate(-20.319 -20.123)" fill="#03386e"/>
          <path id="Trazado_214980" data-name="Trazado 214980" d="M97.548,109.916h-29.7a1.98,1.98,0,0,1,0-3.96h29.7a1.98,1.98,0,0,1,0,3.96" transform="translate(-20.319 -32.491)" fill="#03386e"/>
          <path id="Trazado_214981" data-name="Trazado 214981" d="M97.548,152.871h-29.7a1.98,1.98,0,0,1,0-3.96h29.7a1.98,1.98,0,0,1,0,3.96" transform="translate(-20.319 -45.742)" fill="#03386e"/>
          <path id="Trazado_214982" data-name="Trazado 214982" d="M83.687,52.642H67.845a1.98,1.98,0,0,1,0-3.96H83.687a1.98,1.98,0,0,1,0,3.96" transform="translate(-20.319 -14.822)" fill="#03386e"/>
          <path id="Trazado_214983" data-name="Trazado 214983" d="M83.687,92.733H67.845a1.98,1.98,0,0,1,0-3.96H83.687a1.98,1.98,0,0,1,0,3.96" transform="translate(-20.319 -27.19)" fill="#03386e"/>
          <path id="Trazado_214984" data-name="Trazado 214984" d="M83.687,135.688H67.845a1.98,1.98,0,0,1,0-3.96H83.687a1.98,1.98,0,0,1,0,3.96" transform="translate(-20.319 -40.441)" fill="#03386e"/>
          <path id="Trazado_214985" data-name="Trazado 214985" d="M160.4,89.291a5.766,5.766,0,0,1-5.76-5.76V5.761a5.76,5.76,0,1,1,11.521,0V83.53a5.766,5.766,0,0,1-5.76,5.76m0-86.41a2.884,2.884,0,0,0-2.881,2.881V83.53a2.881,2.881,0,1,0,5.761,0V5.761A2.884,2.884,0,0,0,160.4,2.88" transform="translate(-47.706 35.84)" fill="#03386e"/>
          <path id="Trazado_214986" data-name="Trazado 214986" d="M164.72,54.426h-8.641a1.44,1.44,0,0,1,0-2.88h8.641a1.44,1.44,0,0,1,0,2.88" transform="translate(-47.706 10.217)" fill="#03386e"/>
          <path id="Trazado_214987" data-name="Trazado 214987" d="M179.022,50.306a1.439,1.439,0,0,1-1.44-1.44V24.383a4.326,4.326,0,0,0-4.321-4.321,1.44,1.44,0,0,1,0-2.88,7.209,7.209,0,0,1,7.2,7.2V48.866a1.439,1.439,0,0,1-1.44,1.44" transform="translate(-56.247 27.299)" fill="#03386e"/>
          <path id="Trazado_214988" data-name="Trazado 214988" d="M164.72,160.382h-8.641a1.44,1.44,0,0,1,0-2.88h8.641a1.44,1.44,0,0,1,0,2.88" transform="translate(-47.706 -42.452)" fill="#03386e"/>
          <path id="Trazado_214989" data-name="Trazado 214989" d="M164.67,180.461a1.439,1.439,0,0,1-1.44-1.44V173.26a1.44,1.44,0,1,1,2.88,0v5.761a1.439,1.439,0,0,1-1.44,1.44" transform="translate(-51.976 -49.569)" fill="#03386e"/>
        </g>
      </g>
    </g>
  </g>
</svg>
