<svg xmlns="http://www.w3.org/2000/svg" xmlns:xlink="http://www.w3.org/1999/xlink" width="86.123" height="86.392" viewBox="0 0 86.123 86.392">
  <defs>
    <clipPath id="clip-path">
      <rect id="Rectangle_377658" data-name="Rectangle 377658" width="56.423" height="56.316" fill="none"/>
    </clipPath>
  </defs>
  <g id="Group_1072253" data-name="Group 1072253" transform="translate(-390 -11282)">
    <path id="Path_609194" data-name="Path 609194" d="M43.062,0A43.062,43.062,0,1,1,0,43.062,43.062,43.062,0,0,1,43.062,0Z" transform="translate(390 11282)" fill="#e1efe3"/>
    <path id="Subtraction_10" data-name="Subtraction 10" d="M43.061,50.848A42.769,42.769,0,0,1,26.3,47.464a42.9,42.9,0,0,1-13.689-9.229A42.935,42.935,0,0,1,0,7.787,43.58,43.58,0,0,1,.7,0,52.417,52.417,0,0,0,52.629,44.013a52.457,52.457,0,0,0,18.028-3.169,42.9,42.9,0,0,1-27.6,10Z" transform="translate(390 11317.543)" fill="#bed8ca"/>
    <g id="Group_1072153" data-name="Group 1072153" transform="translate(405 11297)" clip-path="url(#clip-path)">
      <path id="Path_609214" data-name="Path 609214" d="M51.846,16.324H66.415V54.546l1.873.1v1.669H19.065V54.648l1.8-.1V53.386c0-5.85.012-11.7-.016-17.55a1.241,1.241,0,0,1,.812-1.377c.949-.411,2.191-.735,2.66-1.5s.166-2.017.167-3.055c.006-7.3,0-14.609.014-21.914,0-.583-.048-1.057-.683-1.259-.057-.018-.1-.078-.153-.11-1.469-.882-1.491-5.22.039-6.069A3.5,3.5,0,0,1,25.278.025q12.9-.049,25.8-.019a2.542,2.542,0,0,1,2.571,2.2,8.24,8.24,0,0,1-.028,2.824,3.287,3.287,0,0,1-1.171,1.73,1.323,1.323,0,0,0-.616,1.221c.02,2.743.009,5.487.009,8.346M42.752,36.558V16.286h7.265V7.263H26.4V32.1a16.11,16.11,0,0,0,1.5-.755,2.2,2.2,0,0,1,2.294-.069c3.664,1.6,7.362,3.131,11.049,4.682.454.191.917.362,1.506.594m21.882,17.99V18.269H44.714a.852.852,0,0,0-.083.22q-.011,9.2,0,18.393a.818.818,0,0,0,.369.643,7.954,7.954,0,0,0,2.336.6c4.8.054,9.608.027,14.411.027h1.034v7.385H53.787V47.3h5.466v7.247Zm-34.57-21.3V54.533h1.717V45.572h7.347v8.96h3.618V45.594h7.412v8.955h1.615a4.8,4.8,0,0,0,.057-.5c0-3.668-.011-7.337.018-11,0-.572-.283-.742-.719-.924q-6.757-2.832-13.5-5.687c-2.491-1.05-4.983-2.1-7.561-3.183M28.04,54.541V33.365c-1.608.8-3.108,1.591-4.653,2.287a1.19,1.19,0,0,0-.776,1.3c.022,5.533.013,11.066.013,16.6v.986Zm10.112-49.1H49.9c1.915,0,1.936-.022,1.934-1.974,0-.031,0-.063,0-.095,0-1.469-.146-1.614-1.635-1.614q-12.034,0-24.068,0c-.158,0-.316,0-.474,0-.753.027-1.186.37-1.159,1.172.008.252,0,.505,0,.758,0,1.585.161,1.751,1.712,1.751q5.97,0,11.939,0M60.9,43.608v-3.5H51.362c1.827.469,2.914,1.409,2.3,3.5Zm-23.715,3.7H33.66v7.229h3.526Zm10.985.012H44.677v7.2h3.495Zm5.623,7.229h3.477V49.192H53.794Z" transform="translate(-15.447 0)" fill="#161615"/>
      <rect id="Rectangle_377656" data-name="Rectangle 377656" width="1.666" height="1.652" transform="translate(0 54.661)" fill="#161615"/>
      <rect id="Rectangle_377657" data-name="Rectangle 377657" width="1.666" height="1.619" transform="translate(54.757 54.67)" fill="#161615"/>
      <path id="Path_609215" data-name="Path 609215" d="M67.084,86.192h5.373v5.422H67.084Zm3.534,1.929H68.981v1.587h1.637Z" transform="translate(-54.354 -69.837)" fill="#161615"/>
      <path id="Path_609216" data-name="Path 609216" d="M72.43,53.643H67.013V48.322H72.43Zm-1.878-3.565H68.9v1.744h1.648Z" transform="translate(-54.297 -39.153)" fill="#161615"/>
      <path id="Path_609217" data-name="Path 609217" d="M149.448,53.655H144.04v-5.31h5.408ZM145.9,51.834h1.639V50.1H145.9Z" transform="translate(-116.708 -39.171)" fill="#161615"/>
      <path id="Path_609218" data-name="Path 609218" d="M105.982,86.186h5.32v5.4h-5.32Zm1.744,3.54h1.759V88.095h-1.759Z" transform="translate(-85.871 -69.832)" fill="#161615"/>
      <path id="Path_609219" data-name="Path 609219" d="M72.352,130.2h-5.42v-5.3h5.42Zm-3.5-1.757h1.636V126.68H68.851Z" transform="translate(-54.231 -101.202)" fill="#161615"/>
      <path id="Path_609220" data-name="Path 609220" d="M111.336,130.213h-5.351V124.89h5.351Zm-3.626-1.767h1.76v-1.773h-1.76Z" transform="translate(-85.874 -101.191)" fill="#161615"/>
      <path id="Path_609221" data-name="Path 609221" d="M111.37,48.326c0,1.658.016,3.263-.022,4.867a.713.713,0,0,1-.488.5c-1.606.039-3.213.023-4.892.023V48.326Zm-1.889,1.755h-1.775v1.713h1.775Z" transform="translate(-85.859 -39.156)" fill="#161615"/>
      <path id="Path_609222" data-name="Path 609222" d="M163.239,105.391H179.59v7.252H163.239Zm14.5,1.9H165.113v3.5h12.631Z" transform="translate(-132.263 -85.392)" fill="#161615"/>
      <path id="Path_609223" data-name="Path 609223" d="M163.256,153.324h16.352v7.262H163.256Zm14.5,1.906H165.125v3.5H177.76Z" transform="translate(-132.277 -124.23)" fill="#161615"/>
      <path id="Path_609224" data-name="Path 609224" d="M114.7,201.081l-.7,1.687-9.959-4.2.7-1.7,9.959,4.21" transform="translate(-84.297 -159.514)" fill="#161615"/>
      <path id="Path_609225" data-name="Path 609225" d="M86.118,191.095l-1.844-.772L85,188.656l1.813.754-.7,1.685" transform="translate(-68.283 -152.857)" fill="#161615"/>
    </g>
  </g>
</svg>
