<svg xmlns="http://www.w3.org/2000/svg" xmlns:xlink="http://www.w3.org/1999/xlink" width="325" height="389" viewBox="0 0 325 389">
  <defs>
    <clipPath id="clip-path">
      <rect id="Rectángulo_291369" data-name="Rectángulo 291369" width="263.007" height="269.396" fill="#fff"/>
    </clipPath>
    <clipPath id="clip-path-2">
      <rect id="Rectángulo_291371" data-name="Rectángulo 291371" width="96.416" height="131.071" fill="none"/>
    </clipPath>
    <clipPath id="clip-path-3">
      <rect id="Rectángulo_291388" data-name="Rectángulo 291388" width="158.299" height="231.846" fill="none"/>
    </clipPath>
    <clipPath id="clip-path-5">
      <rect id="Rectángulo_291372" data-name="Rectángulo 291372" width="24.928" height="17.703" fill="none"/>
    </clipPath>
    <clipPath id="clip-path-6">
      <path id="Trazado_215436" data-name="Trazado 215436" d="M64.69,302.6,52,391.636l6.024-1.009,10.348-48.262s6.819-44.79,6.819-60.961Z" transform="translate(-51.996 -281.404)" fill="none"/>
    </clipPath>
    <linearGradient id="linear-gradient" x1="0.208" y1="2.028" x2="0.211" y2="2.028" gradientUnits="objectBoundingBox">
      <stop offset="0" stop-color="#29002c"/>
      <stop offset="1" stop-color="#330065"/>
    </linearGradient>
    <clipPath id="clip-path-8">
      <path id="Trazado_215440" data-name="Trazado 215440" d="M96.026,114.334c0,4.22,1.059,65.769,1.059,65.769h9.778s-2.959-43.085-5.107-64.187-9.168-24.243-9.168-24.243,3.438,18.44,3.438,22.66" transform="translate(-92.588 -91.674)" fill="none"/>
    </clipPath>
    <linearGradient id="linear-gradient-2" x1="-2.657" y1="2.197" x2="-2.628" y2="2.197" gradientUnits="objectBoundingBox">
      <stop offset="0" stop-color="#290051"/>
      <stop offset="1" stop-color="#330065"/>
    </linearGradient>
    <clipPath id="clip-path-10">
      <path id="Trazado_215442" data-name="Trazado 215442" d="M17.257,250.27l-2.051,13.394-.8,56.992S2.41,360.822,0,374.161c0,0,6.854-.418,6.461-.418l20.17-47.651,9.106-43.532L43.2,265.637,42.044,249.65Z" transform="translate(0 -249.65)" fill="none"/>
    </clipPath>
    <linearGradient id="linear-gradient-3" x1="0.335" y1="1.477" x2="0.338" y2="1.477" xlink:href="#linear-gradient-2"/>
    <clipPath id="clip-path-12">
      <rect id="Rectángulo_291379" data-name="Rectángulo 291379" width="22.43" height="26.245" fill="none"/>
    </clipPath>
    <clipPath id="clip-path-13">
      <rect id="Rectángulo_291381" data-name="Rectángulo 291381" width="6.56" height="3.644" fill="none"/>
    </clipPath>
    <clipPath id="clip-path-14">
      <path id="Trazado_215447" data-name="Trazado 215447" d="M40.315,120.049v0M26.547,94.662,21.552,110.5s-2.062,28.9-2.062,31.194c0,1.234-2.483,19.7-4.78,36.5L43,180.358c-.424-23.344-2.67-60.019-2.688-60.309C40.3,120.163,32.6,92.1,32.6,92.1a32.537,32.537,0,0,0-6.053,2.557" transform="translate(-14.71 -92.105)" fill="none"/>
    </clipPath>
    <linearGradient id="linear-gradient-4" x1="-0.213" y1="2.2" x2="-0.198" y2="2.2" xlink:href="#linear-gradient-2"/>
    <clipPath id="clip-path-16">
      <rect id="Rectángulo_291384" data-name="Rectángulo 291384" width="21.934" height="48.827" fill="none"/>
    </clipPath>
    <clipPath id="clip-path-17">
      <path id="Trazado_215495" data-name="Trazado 215495" d="M30.393,115.406c.518,8.782,21.832,35.483,21.832,35.483l29.653-5.336-.8-10.19-21.553.992L35.769,98.349s-6.12,4.442-5.376,17.057" transform="translate(-30.33 -98.349)" fill="none"/>
    </clipPath>
    <linearGradient id="linear-gradient-5" x1="-0.022" y1="2.781" x2="-0.016" y2="2.781" xlink:href="#linear-gradient-2"/>
  </defs>
  <g id="Grupo_872046" data-name="Grupo 872046" transform="translate(-638 -9263.5)">
    <path id="Trazado_217938" data-name="Trazado 217938" d="M0,0H325V389H0Z" transform="translate(638 9263.5)" fill="#fef5e5"/>
    <path id="Trazado_217939" data-name="Trazado 217939" d="M123.309,13.974a4.277,4.277,0,0,1-1.44,3.071,5.058,5.058,0,0,1-3.424,1.121,4.548,4.548,0,0,1-3.656-1.565,6.416,6.416,0,0,1-1.332-4.3v-.739A7.245,7.245,0,0,1,114.07,8.5a4.6,4.6,0,0,1,1.756-2.038,5.486,5.486,0,0,1,6.022.411,4.6,4.6,0,0,1,1.478,3.146h-2.49a2.524,2.524,0,0,0-.652-1.7,2.413,2.413,0,0,0-1.706-.527,2.116,2.116,0,0,0-1.864.892,5,5,0,0,0-.635,2.768v.913a5.352,5.352,0,0,0,.594,2.864,2.077,2.077,0,0,0,1.872.9,2.458,2.458,0,0,0,1.722-.527,2.381,2.381,0,0,0,.652-1.631Zm1.1-.548a5.326,5.326,0,0,1,.515-2.382,3.768,3.768,0,0,1,1.482-1.619,4.323,4.323,0,0,1,2.245-.573,4.09,4.09,0,0,1,2.968,1.112,4.464,4.464,0,0,1,1.282,3.021l.017.614a4.694,4.694,0,0,1-1.154,3.316,4.472,4.472,0,0,1-6.2,0,4.777,4.777,0,0,1-1.158-3.387Zm2.4.17a3.357,3.357,0,0,0,.481,1.958,1.73,1.73,0,0,0,2.739.008,3.674,3.674,0,0,0,.49-2.141,3.324,3.324,0,0,0-.49-1.945,1.592,1.592,0,0,0-1.378-.69,1.566,1.566,0,0,0-1.361.686A3.736,3.736,0,0,0,126.812,13.6Zm12.634-2.328a6.517,6.517,0,0,0-.863-.066,1.757,1.757,0,0,0-1.785.921V18h-2.4V9.019h2.266l.066,1.071a2.223,2.223,0,0,1,2-1.237,2.514,2.514,0,0,1,.747.108Zm9.239,2.324a5.387,5.387,0,0,1-.942,3.324,3.021,3.021,0,0,1-2.544,1.249,2.8,2.8,0,0,1-2.2-.946v4.233h-2.4V9.019h2.225l.083.88a2.819,2.819,0,0,1,2.274-1.046,3.041,3.041,0,0,1,2.582,1.229,5.532,5.532,0,0,1,.921,3.387Zm-2.4-.174a3.535,3.535,0,0,0-.444-1.934,1.446,1.446,0,0,0-1.291-.681,1.571,1.571,0,0,0-1.552.863v3.677a1.6,1.6,0,0,0,1.569.888Q146.286,16.232,146.286,13.418Zm3.511.008a5.327,5.327,0,0,1,.515-2.382,3.767,3.767,0,0,1,1.482-1.619,4.323,4.323,0,0,1,2.245-.573,4.09,4.09,0,0,1,2.968,1.112,4.464,4.464,0,0,1,1.282,3.021l.017.614a4.694,4.694,0,0,1-1.154,3.316,4.472,4.472,0,0,1-6.2,0,4.777,4.777,0,0,1-1.158-3.387Zm2.4.17a3.357,3.357,0,0,0,.481,1.958,1.73,1.73,0,0,0,2.739.008,3.674,3.674,0,0,0,.49-2.141,3.324,3.324,0,0,0-.49-1.945,1.592,1.592,0,0,0-1.378-.69,1.566,1.566,0,0,0-1.361.686A3.735,3.735,0,0,0,152.2,13.6Zm12.634-2.328a6.517,6.517,0,0,0-.863-.066,1.757,1.757,0,0,0-1.785.921V18h-2.4V9.019h2.266l.066,1.071a2.223,2.223,0,0,1,2-1.237,2.514,2.514,0,0,1,.747.108ZM170.939,18a2.664,2.664,0,0,1-.241-.805,2.9,2.9,0,0,1-2.266.971,3.189,3.189,0,0,1-2.187-.764,2.456,2.456,0,0,1-.867-1.926,2.538,2.538,0,0,1,1.058-2.191,5.222,5.222,0,0,1,3.059-.772h1.1V12a1.48,1.48,0,0,0-.32-1,1.257,1.257,0,0,0-1.009-.374,1.429,1.429,0,0,0-.95.291.987.987,0,0,0-.344.8h-2.4a2.41,2.41,0,0,1,.481-1.444,3.182,3.182,0,0,1,1.361-1.042,4.961,4.961,0,0,1,1.976-.378,3.92,3.92,0,0,1,2.635.834,2.918,2.918,0,0,1,.975,2.345v3.893a4.294,4.294,0,0,0,.357,1.934V18Zm-1.984-1.668a2.066,2.066,0,0,0,.979-.237,1.554,1.554,0,0,0,.664-.635V13.916h-.9q-1.8,0-1.917,1.245l-.008.141a.96.96,0,0,0,.315.739A1.225,1.225,0,0,0,168.955,16.332Zm8.766-9.521V9.019h1.536v1.76h-1.536v4.482a1.07,1.07,0,0,0,.191.714.959.959,0,0,0,.73.216,3.826,3.826,0,0,0,.706-.058V17.95a4.939,4.939,0,0,1-1.453.216,2.29,2.29,0,0,1-2.573-2.548V10.778H174.01V9.019h1.312V6.811ZM183.125,18h-2.407V9.019h2.407ZM180.576,6.694a1.181,1.181,0,0,1,.361-.888,1.556,1.556,0,0,1,1.963,0,1.175,1.175,0,0,1,.365.888,1.178,1.178,0,0,1-.369.9,1.539,1.539,0,0,1-1.951,0A1.178,1.178,0,0,1,180.576,6.694Zm7.886,8.375,1.668-6.051h2.507L189.607,18h-2.291l-3.03-8.981h2.507Zm4.731-1.644a5.327,5.327,0,0,1,.515-2.382,3.767,3.767,0,0,1,1.482-1.619,4.323,4.323,0,0,1,2.245-.573A4.09,4.09,0,0,1,200.4,9.965a4.464,4.464,0,0,1,1.282,3.021l.017.614a4.694,4.694,0,0,1-1.154,3.316,4.472,4.472,0,0,1-6.2,0,4.777,4.777,0,0,1-1.158-3.387Zm2.4.17a3.357,3.357,0,0,0,.481,1.958,1.73,1.73,0,0,0,2.739.008,3.674,3.674,0,0,0,.49-2.141,3.324,3.324,0,0,0-.49-1.945,1.592,1.592,0,0,0-1.378-.69,1.566,1.566,0,0,0-1.361.686A3.735,3.735,0,0,0,195.592,13.6Z" transform="translate(646 9576.5)" fill="#12263f"/>
    <g id="Grupo_870716" data-name="Grupo 870716" transform="translate(669 9288.498)">
      <g id="Grupo_870714" data-name="Grupo 870714" clip-path="url(#clip-path)">
        <path id="Trazado_215321" data-name="Trazado 215321" d="M20.023,131.069C52.9,104.227-4.03,60.911,8.574,18.069s54.2,1.2,76.578,22.311S133.76,23.724,151.146,22.71s7.6,15.491,15.444,36.87,65.644,3.624,88.818,24.274-13.745,64.593-16.853,90.8S275.36,230.5,249.788,269.4l-127.04-.769c-12.783-4.024-21.122-7.213-21.122-7.213-118.932-52.6-114.474-103.5-81.6-130.345" transform="translate(0 0)" fill="#fff"/>
      </g>
    </g>
    <path id="Trazado_215323" data-name="Trazado 215323" d="M15.822,0,12.184,3.637,22.9,14.356,12.184,25.074l3.637,3.637L30.177,14.356Z" transform="translate(786 9642.831) rotate(-90)" fill="#fcc15a"/>
    <path id="Trazado_215325" data-name="Trazado 215325" d="M231.347,583.768c0,4.059-45.727,7.35-102.134,7.35S27.08,587.827,27.08,583.768s45.753-4.533,102.16-4.533,102.107.473,102.107,4.533" transform="translate(670.92 8966.775)" fill="#fcc15a" opacity="0.31"/>
    <g id="Grupo_870719" data-name="Grupo 870719" transform="translate(676 9417.939)">
      <g id="Grupo_870718" data-name="Grupo 870718" clip-path="url(#clip-path-2)">
        <path id="Trazado_215327" data-name="Trazado 215327" d="M192.892,173.158a6.773,6.773,0,0,0,8.918-.322,6.772,6.772,0,0,0-8.918.322" transform="translate(-115.465 -102.549)" fill="#e1efe3"/>
        <path id="Trazado_215328" data-name="Trazado 215328" d="M24.6,123.988a64.584,64.584,0,0,1,7.658,5.077,86.2,86.2,0,0,1,7.006,5.953,91.091,91.091,0,0,1,6.361,6.647,90.339,90.339,0,0,1,5.625,7.29,85.856,85.856,0,0,1,8.784,16.185,89.53,89.53,0,0,1,5.084,17.731l-1.3.218a88.345,88.345,0,0,0-4.743-17.565,85.021,85.021,0,0,0-8.444-16.145,90.033,90.033,0,0,0-5.469-7.319,90.828,90.828,0,0,0-6.219-6.7,86.029,86.029,0,0,0-6.882-6.032,64.4,64.4,0,0,0-7.546-5.172Z" transform="translate(-14.674 -74.219)" fill="#359547"/>
        <path id="Trazado_215329" data-name="Trazado 215329" d="M0,106.406a8.382,8.382,0,0,0,3.767,5.9,8.378,8.378,0,0,0,6.825,1.553,8.38,8.38,0,0,0-3.767-5.9A8.381,8.381,0,0,0,0,106.406" transform="translate(0 -63.566)" fill="#359547"/>
        <path id="Trazado_215330" data-name="Trazado 215330" d="M34.543,102.413a9.218,9.218,0,0,0,.742,12.93,9.219,9.219,0,0,0-.742-12.93" transform="translate(-19.301 -61.304)" fill="#359547"/>
        <path id="Trazado_215331" data-name="Trazado 215331" d="M54.131,113.666A9.218,9.218,0,0,0,51.4,126.327a9.218,9.218,0,0,0,2.727-12.661" transform="translate(-29.891 -68.04)" fill="#359547"/>
        <path id="Trazado_215332" data-name="Trazado 215332" d="M69.251,127.577a9.218,9.218,0,0,0-2.727,12.661,9.219,9.219,0,0,0,2.727-12.661" transform="translate(-38.941 -76.367)" fill="#359547"/>
        <path id="Trazado_215333" data-name="Trazado 215333" d="M83.378,141.875A9.218,9.218,0,0,0,77.5,153.417a9.218,9.218,0,0,0,5.875-11.542" transform="translate(-46.081 -84.926)" fill="#359547"/>
        <path id="Trazado_215334" data-name="Trazado 215334" d="M93.628,159.77a8.233,8.233,0,0,0-7.678,8.652,8.234,8.234,0,0,0,7.678-8.652" transform="translate(-51.411 -95.635)" fill="#359547"/>
        <path id="Trazado_215335" data-name="Trazado 215335" d="M102.522,171.025a8.233,8.233,0,0,0-7.678,8.652,8.233,8.233,0,0,0,7.678-8.652" transform="translate(-56.735 -102.372)" fill="#359547"/>
        <path id="Trazado_215336" data-name="Trazado 215336" d="M109.251,187.625a7.057,7.057,0,0,0-6.581,7.416,7.057,7.057,0,0,0,6.581-7.416" transform="translate(-61.425 -112.31)" fill="#359547"/>
        <path id="Trazado_215337" data-name="Trazado 215337" d="M112.483,204.16a5.975,5.975,0,0,0-7.774,3,5.975,5.975,0,0,0,7.774-3" transform="translate(-62.679 -121.896)" fill="#359547"/>
        <path id="Trazado_215338" data-name="Trazado 215338" d="M116.121,217.4a4.788,4.788,0,0,0-6.671.289,4.788,4.788,0,0,0,6.671-.289" transform="translate(-65.516 -129.406)" fill="#359547"/>
        <path id="Trazado_215339" data-name="Trazado 215339" d="M9.374,136.891a8.378,8.378,0,0,0,6.989.395,8.381,8.381,0,0,0,5.251-4.629,8.382,8.382,0,0,0-6.988-.395,8.378,8.378,0,0,0-5.251,4.628" transform="translate(-5.611 -78.835)" fill="#359547"/>
        <path id="Trazado_215340" data-name="Trazado 215340" d="M23.137,148.217a8.381,8.381,0,0,0,6.989.395,8.382,8.382,0,0,0,5.251-4.629,8.38,8.38,0,0,0-6.989-.395,8.38,8.38,0,0,0-5.251,4.629" transform="translate(-13.85 -85.614)" fill="#359547"/>
        <path id="Trazado_215341" data-name="Trazado 215341" d="M37.808,162.182a8.38,8.38,0,0,0,6.989.395,8.382,8.382,0,0,0,5.251-4.629,8.381,8.381,0,0,0-6.989-.395,8.38,8.38,0,0,0-5.251,4.629" transform="translate(-22.632 -93.974)" fill="#359547"/>
        <path id="Trazado_215342" data-name="Trazado 215342" d="M54.368,172.919a7.5,7.5,0,0,0,9.955-3.444,7.5,7.5,0,0,0-9.955,3.444" transform="translate(-32.545 -100.981)" fill="#359547"/>
        <path id="Trazado_215343" data-name="Trazado 215343" d="M66.769,182.922a5.889,5.889,0,0,0,8.041-2.782,5.889,5.889,0,0,0-8.041,2.782" transform="translate(-39.968 -107.422)" fill="#359547"/>
        <path id="Trazado_215344" data-name="Trazado 215344" d="M74.177,194.331a5.889,5.889,0,0,0,8.041-2.782,5.889,5.889,0,0,0-8.041,2.782" transform="translate(-44.402 -114.251)" fill="#359547"/>
        <path id="Trazado_215345" data-name="Trazado 215345" d="M82.3,206.428a5.872,5.872,0,0,0,7.893-1.279,5.872,5.872,0,0,0-7.893,1.279" transform="translate(-49.262 -122.204)" fill="#359547"/>
        <path id="Trazado_215346" data-name="Trazado 215346" d="M90.144,216.729a5.1,5.1,0,0,0,5.817-3.972,5.1,5.1,0,0,0-5.817,3.972" transform="translate(-53.96 -127.284)" fill="#359547"/>
        <path id="Trazado_215347" data-name="Trazado 215347" d="M98.87,224.894a3.9,3.9,0,0,0,3.808-3.812,3.9,3.9,0,0,0-3.808,3.812" transform="translate(-59.178 -132.333)" fill="#359547"/>
        <path id="Trazado_215348" data-name="Trazado 215348" d="M104.655,229.124a2.183,2.183,0,0,0,2.329-2.331,2.183,2.183,0,0,0-2.329,2.331" transform="translate(-62.636 -135.747)" fill="#359547"/>
        <path id="Trazado_215349" data-name="Trazado 215349" d="M106.524,232.964a2.182,2.182,0,0,0,2.329-2.331,2.182,2.182,0,0,0-2.329,2.331" transform="translate(-63.754 -138.045)" fill="#359547"/>
        <path id="Trazado_215350" data-name="Trazado 215350" d="M172.646,57.347a84.315,84.315,0,0,0-7.344,9.5,112.266,112.266,0,0,0-6.17,10.308,113.373,113.373,0,0,0-8.978,22.282,112.269,112.269,0,0,0-4.073,23.717,117.015,117.015,0,0,0,1.157,24.077l1.7-.278a115.424,115.424,0,0,1-1.507-23.728A111.124,111.124,0,0,1,151.1,99.7a112.55,112.55,0,0,1,8.574-22.262,111.868,111.868,0,0,1,5.982-10.355,84.046,84.046,0,0,1,7.165-9.571Z" transform="translate(-87.337 -34.328)" fill="#b8dabe"/>
        <path id="Trazado_215351" data-name="Trazado 215351" d="M220.632,25.6c.68,2.589-.051,5.962-2.183,8.883s-5.121,4.647-7.794,4.788c-.681-2.589.051-5.962,2.182-8.883s5.121-4.647,7.794-4.789" transform="translate(-125.951 -15.325)" fill="#b8dabe"/>
        <path id="Trazado_215352" data-name="Trazado 215352" d="M184.716,36.212c2.451,1.076,4.64,3.744,5.6,7.23s.459,6.9-1.091,9.082c-2.451-1.076-4.639-3.745-5.6-7.23s-.459-6.9,1.091-9.082" transform="translate(-109.624 -21.676)" fill="#b8dabe"/>
        <path id="Trazado_215353" data-name="Trazado 215353" d="M163.371,59.552c2.649.384,5.469,2.374,7.326,5.477s2.28,6.529,1.366,9.045c-2.649-.384-5.469-2.374-7.326-5.477s-2.279-6.529-1.366-9.045" transform="translate(-97.516 -35.648)" fill="#b8dabe"/>
        <path id="Trazado_215354" data-name="Trazado 215354" d="M150.5,83.117c2.649.384,5.469,2.374,7.326,5.477s2.279,6.529,1.366,9.045c-2.649-.384-5.469-2.374-7.326-5.477s-2.279-6.529-1.366-9.045" transform="translate(-89.813 -49.754)" fill="#b8dabe"/>
        <path id="Trazado_215355" data-name="Trazado 215355" d="M135.619,108.052c2.659-.307,5.895.9,8.484,3.42s3.874,5.728,3.635,8.395c-2.659.306-5.894-.9-8.484-3.421s-3.874-5.728-3.635-8.394" transform="translate(-81.164 -64.652)" fill="#b8dabe"/>
        <path id="Trazado_215356" data-name="Trazado 215356" d="M128.012,134.719a10.759,10.759,0,0,1,13.135,7.481,10.758,10.758,0,0,1-13.135-7.481" transform="translate(-76.628 -80.361)" fill="#b8dabe"/>
        <path id="Trazado_215357" data-name="Trazado 215357" d="M121.731,152.383a10.759,10.759,0,0,1,13.135,7.481,10.759,10.759,0,0,1-13.135-7.481" transform="translate(-72.868 -90.934)" fill="#b8dabe"/>
        <path id="Trazado_215358" data-name="Trazado 215358" d="M122.419,175.158a9.222,9.222,0,0,1,11.259,6.412,9.222,9.222,0,0,1-11.259-6.412" transform="translate(-73.28 -104.607)" fill="#b8dabe"/>
        <path id="Trazado_215359" data-name="Trazado 215359" d="M123.589,196.276a7.808,7.808,0,0,1,10.88.444,7.808,7.808,0,0,1-10.88-.444" transform="translate(-73.98 -116.296)" fill="#b8dabe"/>
        <path id="Trazado_215360" data-name="Trazado 215360" d="M127.119,212.964a6.257,6.257,0,0,1,8.376-2.445,6.257,6.257,0,0,1-8.376,2.445" transform="translate(-76.093 -125.561)" fill="#b8dabe"/>
        <path id="Trazado_215361" data-name="Trazado 215361" d="M214.96,71.194c-1.7,2.066-4.865,3.445-8.482,3.424s-6.764-1.437-8.442-3.522c1.7-2.066,4.865-3.445,8.482-3.424s6.764,1.436,8.442,3.522" transform="translate(-118.544 -40.508)" fill="#b8dabe"/>
        <path id="Trazado_215362" data-name="Trazado 215362" d="M202.686,90.991c-1.7,2.066-4.865,3.445-8.482,3.424s-6.764-1.437-8.442-3.522c1.7-2.066,4.866-3.445,8.482-3.424s6.764,1.437,8.442,3.522" transform="translate(-111.197 -52.358)" fill="#b8dabe"/>
        <path id="Trazado_215363" data-name="Trazado 215363" d="M190.4,114.435c-1.7,2.066-4.865,3.445-8.482,3.424s-6.764-1.437-8.442-3.522c1.7-2.066,4.866-3.445,8.483-3.424s6.764,1.437,8.442,3.522" transform="translate(-103.84 -66.392)" fill="#b8dabe"/>
        <path id="Trazado_215364" data-name="Trazado 215364" d="M178.519,133.867a9.8,9.8,0,0,1-13.765-.08,9.8,9.8,0,0,1,13.765.08" transform="translate(-98.621 -78.417)" fill="#b8dabe"/>
        <path id="Trazado_215365" data-name="Trazado 215365" d="M170.847,150.738a7.7,7.7,0,0,1-11.119-.064,7.7,7.7,0,0,1,11.119.064" transform="translate(-95.613 -88.79)" fill="#b8dabe"/>
        <path id="Trazado_215366" data-name="Trazado 215366" d="M166.472,167.968a7.7,7.7,0,0,1-11.119-.065,7.7,7.7,0,0,1,11.119.065" transform="translate(-92.994 -99.104)" fill="#b8dabe"/>
        <path id="Trazado_215367" data-name="Trazado 215367" d="M161.976,185.836a7.673,7.673,0,0,1-10.3,1.733,7.673,7.673,0,0,1,10.3-1.733" transform="translate(-90.79 -110.474)" fill="#b8dabe"/>
        <path id="Trazado_215368" data-name="Trazado 215368" d="M159.871,202.227A6.661,6.661,0,0,1,151,199.755a6.661,6.661,0,0,1,8.868,2.472" transform="translate(-90.39 -119.082)" fill="#b8dabe"/>
        <path id="Trazado_215369" data-name="Trazado 215369" d="M156.124,215.341a5.1,5.1,0,0,1-6.313-3.118,5.094,5.094,0,0,1,6.313,3.118" transform="translate(-89.676 -126.868)" fill="#b8dabe"/>
        <path id="Trazado_215370" data-name="Trazado 215370" d="M153.463,222.158a2.852,2.852,0,0,1-3.86-1.906,2.852,2.852,0,0,1,3.86,1.906" transform="translate(-89.552 -131.697)" fill="#b8dabe"/>
        <path id="Trazado_215371" data-name="Trazado 215371" d="M152.763,227.694a2.852,2.852,0,0,1-3.861-1.906,2.852,2.852,0,0,1,3.861,1.906" transform="translate(-89.132 -135.011)" fill="#b8dabe"/>
        <path id="Trazado_215372" data-name="Trazado 215372" d="M69.356,35.407a91.024,91.024,0,0,1,7.41,10.615,121.223,121.223,0,0,1,6.1,11.424,128.29,128.29,0,0,1,4.9,12,127.313,127.313,0,0,1,3.6,12.463,121,121,0,0,1,3.141,25.752A126.076,126.076,0,0,1,92,133.527l-1.818-.388a124.458,124.458,0,0,0,2.866-25.471,119.733,119.733,0,0,0-2.715-25.525,126.372,126.372,0,0,0-3.382-12.42,127.667,127.667,0,0,0-4.683-12,120.887,120.887,0,0,0-5.9-11.464,90.737,90.737,0,0,0-7.213-10.681Z" transform="translate(-41.398 -21.195)" fill="#359547"/>
        <path id="Trazado_215373" data-name="Trazado 215373" d="M45.6,0c-.868,2.752-.258,6.422,1.885,9.68s5.271,5.272,8.142,5.565c.868-2.752.257-6.422-1.885-9.68S48.474.293,45.6,0" transform="translate(-27.07)" fill="#359547"/>
        <path id="Trazado_215374" data-name="Trazado 215374" d="M87.513,13.983c-2.7,1.03-5.192,3.788-6.413,7.492s-.855,7.405.7,9.837c2.7-1.03,5.191-3.789,6.413-7.491s.856-7.406-.7-9.837" transform="translate(-48.11 -8.37)" fill="#359547"/>
        <path id="Trazado_215375" data-name="Trazado 215375" d="M106.082,40.322c-2.872.275-6.013,2.27-8.176,5.514s-2.8,6.911-1.946,9.668c2.872-.275,6.013-2.27,8.176-5.514s2.8-6.911,1.946-9.668" transform="translate(-57.223 -24.137)" fill="#359547"/>
        <path id="Trazado_215376" data-name="Trazado 215376" d="M118.7,66.372c-2.872.275-6.013,2.27-8.176,5.514s-2.8,6.911-1.946,9.668c2.872-.275,6.013-2.27,8.176-5.514s2.8-6.911,1.945-9.668" transform="translate(-64.777 -39.73)" fill="#359547"/>
        <path id="Trazado_215377" data-name="Trazado 215377" d="M129.364,93.956c-2.848-.469-6.394.655-9.315,3.239s-4.472,5.965-4.354,8.849c2.848.469,6.394-.655,9.315-3.239s4.472-5.965,4.354-8.849" transform="translate(-69.251 -56.179)" fill="#359547"/>
        <path id="Trazado_215378" data-name="Trazado 215378" d="M134.886,122.925a11.6,11.6,0,0,0-14.536,7.367,11.6,11.6,0,0,0,14.536-7.367" transform="translate(-72.041 -73.188)" fill="#359547"/>
        <path id="Trazado_215379" data-name="Trazado 215379" d="M140.722,142.275a11.6,11.6,0,0,0-14.536,7.367,11.6,11.6,0,0,0,14.536-7.367" transform="translate(-75.535 -84.77)" fill="#359547"/>
        <path id="Trazado_215380" data-name="Trazado 215380" d="M141.891,166.8a9.942,9.942,0,0,0-12.46,6.315,9.942,9.942,0,0,0,12.46-6.315" transform="translate(-77.477 -99.505)" fill="#359547"/>
        <path id="Trazado_215381" data-name="Trazado 215381" d="M140.473,189.249a8.419,8.419,0,0,0-11.739-.092,8.418,8.418,0,0,0,11.739.092" transform="translate(-77.06 -111.829)" fill="#359547"/>
        <path id="Trazado_215382" data-name="Trazado 215382" d="M139.951,207a6.745,6.745,0,0,0-8.891-3.072A6.745,6.745,0,0,0,139.951,207" transform="translate(-78.452 -121.664)" fill="#359547"/>
        <path id="Trazado_215383" data-name="Trazado 215383" d="M38.852,49.507c1.724,2.314,5.058,3.965,8.954,4.132s7.359-1.192,9.275-3.35c-1.725-2.313-5.06-3.965-8.955-4.132s-7.359,1.193-9.275,3.35" transform="translate(-23.257 -27.621)" fill="#359547"/>
        <path id="Trazado_215384" data-name="Trazado 215384" d="M51.03,71.467c1.724,2.314,5.058,3.965,8.954,4.132s7.359-1.193,9.275-3.35c-1.724-2.313-5.058-3.965-8.954-4.132s-7.359,1.193-9.275,3.35" transform="translate(-30.546 -40.767)" fill="#359547"/>
        <path id="Trazado_215385" data-name="Trazado 215385" d="M63.034,97.356c1.724,2.314,5.059,3.965,8.954,4.132s7.359-1.193,9.275-3.351c-1.724-2.313-5.058-3.965-8.954-4.132s-7.359,1.193-9.275,3.35" transform="translate(-37.732 -56.264)" fill="#359547"/>
        <path id="Trazado_215386" data-name="Trazado 215386" d="M79.93,119.031a10.562,10.562,0,0,0,14.827.636,10.562,10.562,0,0,0-14.827-.636" transform="translate(-47.846 -69.614)" fill="#359547"/>
        <path id="Trazado_215387" data-name="Trazado 215387" d="M91.591,137.708a8.3,8.3,0,0,0,11.977.513,8.3,8.3,0,0,0-11.977-.513" transform="translate(-54.826 -81.05)" fill="#359547"/>
        <path id="Trazado_215388" data-name="Trazado 215388" d="M95.4,156.49a8.3,8.3,0,0,0,11.977.514A8.3,8.3,0,0,0,95.4,156.49" transform="translate(-57.106 -92.292)" fill="#359547"/>
        <path id="Trazado_215389" data-name="Trazado 215389" d="M100.7,175.909a8.273,8.273,0,0,0,11,2.406,8.273,8.273,0,0,0-11-2.406" transform="translate(-60.279 -104.594)" fill="#359547"/>
        <path id="Trazado_215390" data-name="Trazado 215390" d="M104.259,193.93a7.181,7.181,0,0,0,9.678-2.2,7.18,7.18,0,0,0-9.678,2.2" transform="translate(-62.409 -114.145)" fill="#359547"/>
        <path id="Trazado_215391" data-name="Trazado 215391" d="M111.7,208.372a5.492,5.492,0,0,0,6.962-3.026,5.492,5.492,0,0,0-6.962,3.026" transform="translate(-66.862 -122.689)" fill="#359547"/>
        <path id="Trazado_215392" data-name="Trazado 215392" d="M118.243,215.886a3.074,3.074,0,0,0,4.256-1.85,3.075,3.075,0,0,0-4.256,1.85" transform="translate(-70.78 -127.93)" fill="#359547"/>
        <path id="Trazado_215393" data-name="Trazado 215393" d="M118.706,221.884a3.074,3.074,0,0,0,4.257-1.85,3.075,3.075,0,0,0-4.257,1.85" transform="translate(-71.057 -131.52)" fill="#359547"/>
        <path id="Trazado_215394" data-name="Trazado 215394" d="M147.66,182.516c4.074-5.97,8.367-11.8,12.946-17.4l-.075-.064c-4.7,5.51-9.11,11.258-13.314,17.157a207.232,207.232,0,0,0-11.708,18.32q-1.287,2.3-2.5,4.649c.317.177.632.354.945.536q1.166-2.378,2.414-4.715a206.434,206.434,0,0,1,11.291-18.483" transform="translate(-79.619 -98.799)" fill="#e1efe3"/>
        <path id="Trazado_215395" data-name="Trazado 215395" d="M205.678,146.242a5.9,5.9,0,0,0-4.6,7.649,5.9,5.9,0,0,0,4.6-7.649" transform="translate(-120.163 -87.54)" fill="#e1efe3"/>
        <path id="Trazado_215396" data-name="Trazado 215396" d="M184.435,154.928a6.772,6.772,0,0,0,3.216,8.323,6.773,6.773,0,0,0-3.216-8.323" transform="translate(-110.123 -92.739)" fill="#e1efe3"/>
        <path id="Trazado_215397" data-name="Trazado 215397" d="M184.189,184.152a6.774,6.774,0,0,0,8.84-1.218,6.772,6.772,0,0,0-8.84,1.218" transform="translate(-110.255 -108.829)" fill="#e1efe3"/>
        <path id="Trazado_215398" data-name="Trazado 215398" d="M172.958,198.651a6.773,6.773,0,0,0,8.839-1.218,6.771,6.771,0,0,0-8.839,1.218" transform="translate(-103.532 -117.508)" fill="#e1efe3"/>
        <path id="Trazado_215399" data-name="Trazado 215399" d="M165.329,210.2a6.773,6.773,0,0,0,8.84-1.218,6.773,6.773,0,0,0-8.84,1.218" transform="translate(-98.965 -124.421)" fill="#e1efe3"/>
        <path id="Trazado_215400" data-name="Trazado 215400" d="M156.87,222.948a6.772,6.772,0,0,0,8.84-1.218,6.772,6.772,0,0,0-8.84,1.218" transform="translate(-93.902 -132.053)" fill="#e1efe3"/>
        <path id="Trazado_215401" data-name="Trazado 215401" d="M174.658,167.368a6.773,6.773,0,0,0,3.216,8.324,6.773,6.773,0,0,0-3.216-8.324" transform="translate(-104.271 -100.186)" fill="#e1efe3"/>
        <path id="Trazado_215402" data-name="Trazado 215402" d="M165.313,180.171a6.772,6.772,0,0,0,3.216,8.323,6.773,6.773,0,0,0-3.216-8.323" transform="translate(-98.677 -107.85)" fill="#e1efe3"/>
        <path id="Trazado_215403" data-name="Trazado 215403" d="M156.42,193.078a6.772,6.772,0,0,0,3.216,8.323,6.773,6.773,0,0,0-3.216-8.323" transform="translate(-93.354 -115.576)" fill="#e1efe3"/>
        <path id="Trazado_215404" data-name="Trazado 215404" d="M147.8,205.724a6.772,6.772,0,0,0,3.216,8.324,6.774,6.774,0,0,0-3.216-8.324" transform="translate(-88.195 -123.146)" fill="#e1efe3"/>
        <path id="Trazado_215405" data-name="Trazado 215405" d="M98.217,263.536h22.3a15.649,15.649,0,0,1-.769,25.287H98.985a15.649,15.649,0,0,1-.769-25.287" transform="translate(-55.167 -157.752)" fill="#c99a48"/>
        <path id="Trazado_215406" data-name="Trazado 215406" d="M103.5,270.381c-2.2-.4-5.144,2.2-5.9,7.443-1.037,10.342,5.548,13.379,9.142,10.754-3.131-1.236-6.556-3.5-6.657-8.586a14.308,14.308,0,0,1,.85-5.311,15.849,15.849,0,0,1,.944-1.989,12.983,12.983,0,0,1,1.626-2.31" transform="translate(-58.357 -161.825)" fill="#f8e000"/>
        <rect id="Rectángulo_291370" data-name="Rectángulo 291370" width="24.634" height="2.433" transform="translate(42.008 104.267)" fill="#0072c5"/>
      </g>
    </g>
    <g id="Grupo_870756" data-name="Grupo 870756" transform="translate(738.992 9320.105)">
      <g id="Grupo_870755" data-name="Grupo 870755" clip-path="url(#clip-path-3)">
        <g id="Grupo_870725" data-name="Grupo 870725">
          <g id="Grupo_870724" data-name="Grupo 870724" clip-path="url(#clip-path-3)">
            <path id="Trazado_215407" data-name="Trazado 215407" d="M53.794,550.309H65.276l-7.344-4.538.8-3.6c-1.677,0-2.082,1.135-3.775,1.135-.479,2.649-1.162,7-1.162,7" transform="translate(-31.761 -320.104)" fill="#432c47"/>
            <path id="Trazado_215408" data-name="Trazado 215408" d="M158.732,181.937l8.721-4.571-.264,3-1.657,8.282-6.313-1.735Z" transform="translate(-93.717 -104.719)" fill="#e1a082"/>
            <path id="Trazado_215409" data-name="Trazado 215409" d="M179.329,183.5c-2.292.929-10.312.7-10.312.7s-6.146,4.851-5.886,5.961.649.816,1.381,1.765a9.352,9.352,0,0,0,2.473,1.865,3.479,3.479,0,0,0,2.92.946c1.593-.373,5.442-4.38,7.18-4.787.357-.084,1.9-.435,4.149-.956Z" transform="translate(-96.31 -108.343)" fill="#ffc2a1"/>
            <path id="Trazado_215410" data-name="Trazado 215410" d="M178.717,177.366s4.809,3.781,4.365,4.5-5.271-1.281-5.271-1.281Z" transform="translate(-104.982 -104.719)" fill="#e1a082"/>
            <path id="Trazado_215411" data-name="Trazado 215411" d="M186.1,197.886s-4.729-2.22-5.222-1.425,2.012,2.177,2.012,2.177-2.682-1.231-3.137-.9,1.881,2.055,1.881,2.055-2.6-1.442-3.273-1.036,1.663,2.922,1.663,2.922,6.353-1.417,6.076-3.8" transform="translate(-105.237 -115.891)" fill="#e1a082"/>
            <path id="Trazado_215412" data-name="Trazado 215412" d="M282.6,199.331l-8,1.176,4.5-20.755,4.348,2.235Z" transform="translate(-162.128 -106.128)" fill="#230044"/>
            <path id="Trazado_215413" data-name="Trazado 215413" d="M237.218,93.824s-14.421,20.842-17.412,23.834-22.387,12.675-22.387,12.675l3.3,6.94,23.268-11.886,14.163-12.99Z" transform="translate(-116.559 -55.395)" fill="#131537"/>
            <path id="Trazado_215414" data-name="Trazado 215414" d="M337.139,543.284l-.123,7.667.854.025,1.1-8.74Z" transform="translate(-198.978 -320.143)" fill="#1d1c22"/>
            <path id="Trazado_215415" data-name="Trazado 215415" d="M319.778,380.094s.913,11.989,2.381,15.571-1.156,50.931-2.4,54.75a11.63,11.63,0,0,1-1.038,2.267c-1.36,2.327-1.669,2.8.154,2.808,2.343.008,4.4-.438,4.851-1.4.786-1.656,1.48-7.364,3.083-7.359,0,0,1.1-2.127.822-3.248-.411-1.685-1.557-.819-1.549-3.162s7.773-37.959,6.557-43.143-2.077-5.8-2.057-11.97-10.8-5.115-10.8-5.115" transform="translate(-187.516 -224.372)" fill="#ffc2a1"/>
            <path id="Trazado_215416" data-name="Trazado 215416" d="M261.69,349.54s-8.745,16.664-8.186,21.6,2.405,8.921.82,15.657S240.2,417.965,239.9,422.431c-.126,1.883.448,2.059.448,2.059-.025,3.245-1.037,6.721-1.712,7.392-.866.861-1.842,5.137-2.664,5.135s-7.77.74-7.77.74c-.179-1.584,1.946-.312,3.191-3.6s2-8.216,3.585-14.87,8.083-37.021,8.106-44.01-.619-7.023.466-11.624,5.142-13.22,5.142-13.22Z" transform="translate(-134.727 -206.373)" fill="#e1a082"/>
            <path id="Trazado_215417" data-name="Trazado 215417" d="M274.731,371.139c-.559-4.935,8.185-21.6,8.185-21.6l-13,.9s-4.057,8.619-5.142,13.22a20.338,20.338,0,0,0-.543,7.3c2.485.534,6.35,1.315,10.765,2.027-.1-.6-.195-1.218-.266-1.846" transform="translate(-155.953 -206.373)" fill="#ce9073"/>
            <path id="Trazado_215418" data-name="Trazado 215418" d="M333.717,385.209c.02-6.166-10.8-5.115-10.8-5.115s.582,7.645,1.565,12.549a49.1,49.1,0,0,0,9.979-.367,24.679,24.679,0,0,1-.741-7.067" transform="translate(-190.653 -224.372)" fill="#e1a082"/>
            <path id="Trazado_215419" data-name="Trazado 215419" d="M272.7,207.857s-1.523,23.472-2.674,29.063-7.728,45.221-7.728,45.221,29.3,2.467,36.374,0c0,0,.79-50.852-.875-57.389s-8.943-18.431-8.943-18.431Z" transform="translate(-154.861 -121.814)" fill="#0f1d5b"/>
            <g id="Grupo_870723" data-name="Grupo 870723" transform="translate(117.622 84.507)" opacity="0.53">
              <g id="Grupo_870722" data-name="Grupo 870722">
                <g id="Grupo_870721" data-name="Grupo 870721" clip-path="url(#clip-path-5)">
                  <path id="Trazado_215420" data-name="Trazado 215420" d="M287.384,207.857s-.078,1.2-.212,3.129c2.2,2.185,5.257,5.729,6.473,9.548,1.387,4.352,12.069,3.71,18.454,2.914-2.178-6.693-8.562-17.127-8.562-17.127Z" transform="translate(-287.172 -206.321)" fill="#1a0033"/>
                </g>
              </g>
            </g>
            <path id="Trazado_215421" data-name="Trazado 215421" d="M307.326,88.06l-8.889-.644-3.148,6.162L307.936,94.9Z" transform="translate(-174.342 -51.611)" fill="#230044"/>
            <path id="Trazado_215422" data-name="Trazado 215422" d="M285.974,91.85s4.048-3.087,17.764.009c.374.085.716,14.939.716,14.939s-6.364,24.912-5.153,31.129c0,0-7.275,6.139-18.128.795,0,0,1.41-19.564.423-23.921s-2.956-8.309-.161-12.832a51.285,51.285,0,0,0,4.538-10.12" transform="translate(-165.314 -53.421)" fill="#fff7cf"/>
            <path id="Trazado_215423" data-name="Trazado 215423" d="M300.729,112.6v28.759a15.615,15.615,0,0,0,10.81-2.917c-1.21-6.217,5.154-31.129,5.154-31.129s-.341-14.884-.715-14.968c-2.177-.492-4.11-.826-5.822-1.042Z" transform="translate(-177.554 -53.906)" fill="#d1ccb2"/>
            <path id="Trazado_215424" data-name="Trazado 215424" d="M313.493,88.989,305.735,111.2v36.874l17.146.828-5.977-7.819-2.025-9.806,4.772-25.365-.72-14.944Z" transform="translate(-180.509 -52.54)" fill="#2e005b"/>
            <path id="Trazado_215425" data-name="Trazado 215425" d="M286.224,87.416l-6.387,21.2-1.657,37.371H274.6l3.843-19.746-2.253-22.264L282.62,89.6Z" transform="translate(-162.128 -51.612)" fill="#2e005b"/>
            <path id="Trazado_215426" data-name="Trazado 215426" d="M313.493,88.989,305.735,111.2l9.914-12.921,1.652-8.706Z" transform="translate(-180.509 -52.54)" fill="#4f3369"/>
            <path id="Trazado_215427" data-name="Trazado 215427" d="M293.769,87.416l-6.387,21.2.576-15.168,2.662-5.391Z" transform="translate(-169.674 -51.612)" fill="#4f3369"/>
            <path id="Trazado_215428" data-name="Trazado 215428" d="M339.366,217.235c.223-.223,2.167-3.087,2.582-2.671s-1.722,3.057-1.722,3.057,2.478-2.508,2.968-2.018-3.312,3.876-3.713,3.876-.116-2.244-.116-2.244" transform="translate(-200.308 -126.657)" fill="#e1a082"/>
            <path id="Trazado_215429" data-name="Trazado 215429" d="M330.5,208.044s-1.048,1.6-.276,2.372.359,1.572.883,2.1,2.868.607,2.868.607a16.108,16.108,0,0,1,1.324-4.854,18.078,18.078,0,0,1,1.873-2.662,31.779,31.779,0,0,0-3.237-1.853c-1.938,2.517-3.4,4.231-3.435,4.294" transform="translate(-194.801 -120.296)" fill="#ffc2a1"/>
            <path id="Trazado_215430" data-name="Trazado 215430" d="M336.81,93.828s-1.361,10.811,0,13.79c1.324,2.9,9.065,6.244,10.393,12.117.992,4.387-6.974,13.287-11.184,18.753a49.143,49.143,0,0,0,5.3,3.839c4.285-5.453,15.093-18.293,15.362-21.3.332-3.7-14.119-27.58-19.872-27.194" transform="translate(-198.39 -55.395)" fill="#4f3369"/>
            <path id="Trazado_215431" data-name="Trazado 215431" d="M336.81,93.835c-.2,2.521-.367,4.936-.414,7.507-.043,4.542.231,5.974,1.233,7.113,2.327,2.7,8.555,5.992,9.574,11.286-1.449-5.249-7.473-8.17-9.906-11a5.667,5.667,0,0,1-1.208-3.622,56.347,56.347,0,0,1,.722-11.281" transform="translate(-198.39 -55.401)" fill="#53587d"/>
            <path id="Trazado_215432" data-name="Trazado 215432" d="M325.1,530.166c-.72,4.286-3.128,11.675-4.783,12.368-2.743.575-2.757.29-2.741-1.208-1.361,2.327-2.9,3.517-1.078,3.523,2.343.008,6,.162,6.453-.8.786-1.656,1.233-7.932,2.837-7.927l-.524,7.726.851.025s1.3-10.636,1.024-11.7a3.073,3.073,0,0,0-2.039-2.01" transform="translate(-186.371 -313.016)" fill="#3a3745"/>
            <path id="Trazado_215433" data-name="Trazado 215433" d="M227.971,543.71c-1.91,1.181-4.273,1.207-4.129,2.477,0,0,9-.356,9.818-.354s1.538-5.051,2.4-5.912.309,5.921.309,5.921l.886,0s.617-6.987,1.448-9.7c.662-2.159-.267-3.071-.931-3.619-2.716,5.153-3.006,12.411-9.805,11.18" transform="translate(-132.155 -314.412)" fill="#3a3745"/>
            <path id="Trazado_215434" data-name="Trazado 215434" d="M128.091,294.422s3.822,11.587,4.5,12.777.7,6.63-.391,7.37-.3-2.206-.586-3.762a12.362,12.362,0,0,0-1.71-3.629,10.1,10.1,0,0,1,1.563,3.561c.294,1.5-.085,3.4-.6,3.695-1.177.679-.213-1.142-.617-3.312a5.757,5.757,0,0,0-1.59-3.191s.983,4.047-.059,4.624-4.659-15.76-4.659-15.76Z" transform="translate(-73.182 -173.83)" fill="#e1a082"/>
            <path id="Trazado_215435" data-name="Trazado 215435" d="M97.657,100.592s6.227,9.153,7.1,20.087c.362,4.553.043,27.117,2.246,36.51,2.852,12.161,6.825,23.788,6.825,23.788l-9.237,5.589-7.262-28.975-1.974-20.64Z" transform="translate(-56.296 -59.391)" fill="#341102"/>
          </g>
        </g>
        <g id="Grupo_870727" data-name="Grupo 870727" transform="translate(21.297 115.26)">
          <g id="Grupo_870726" data-name="Grupo 870726" clip-path="url(#clip-path-6)">
            <rect id="Rectángulo_291374" data-name="Rectángulo 291374" width="112.507" height="40.237" transform="matrix(0.157, -0.988, 0.988, 0.157, -17.119, 107.506)" fill="url(#linear-gradient)"/>
          </g>
        </g>
        <g id="Grupo_870729" data-name="Grupo 870729">
          <g id="Grupo_870728" data-name="Grupo 870728" clip-path="url(#clip-path-3)">
            <path id="Trazado_215437" data-name="Trazado 215437" d="M2.376,551.845H14.1l-7.344-4.537.8-3.6c-1.677,0-2.082,1.135-3.775,1.135-.479,2.649-1.4,7-1.4,7" transform="translate(-1.403 -321.011)" fill="#432c47"/>
            <path id="Trazado_215438" data-name="Trazado 215438" d="M60.923,83.538l-.448,7,16.591-1.885L73.19,83.9Z" transform="translate(-35.705 -49.322)" fill="#375866"/>
            <path id="Trazado_215439" data-name="Trazado 215439" d="M67.168,141.3c-.043-23.751-3.681-47.376-8.87-50.381,0,0-6.033-.416-9.135-.519-4.63-.155-8.233,2.183-12.078,15.283-2.424,8.259-2.761,26.683-2.5,44.055.115,7.7.829,15.419.994,20.872,13.077,0,18.719.557,31.409.557.8-23.5.195-22.806.182-29.867" transform="translate(-20.375 -53.367)" fill="#d1fedf"/>
          </g>
        </g>
        <g id="Grupo_870731" data-name="Grupo 870731" transform="translate(37.923 37.549)">
          <g id="Grupo_870730" data-name="Grupo 870730" clip-path="url(#clip-path-8)">
            <rect id="Rectángulo_291376" data-name="Rectángulo 291376" width="14.275" height="88.43" transform="translate(0 0)" fill="url(#linear-gradient-2)"/>
          </g>
        </g>
        <g id="Grupo_870733" data-name="Grupo 870733">
          <g id="Grupo_870732" data-name="Grupo 870732" clip-path="url(#clip-path-3)">
            <path id="Trazado_215441" data-name="Trazado 215441" d="M50.167,164.647l-.02-.021c.177-.013.165,0,.02.021" transform="translate(-29.607 -97.193)" fill="#ffc2a1"/>
          </g>
        </g>
        <g id="Grupo_870735" data-name="Grupo 870735" transform="translate(0 102.254)">
          <g id="Grupo_870734" data-name="Grupo 870734" clip-path="url(#clip-path-10)">
            <rect id="Rectángulo_291378" data-name="Rectángulo 291378" width="130.888" height="68.969" transform="translate(-26.157 118.749) rotate(-77.578)" fill="url(#linear-gradient-3)"/>
          </g>
        </g>
        <g id="Grupo_870743" data-name="Grupo 870743">
          <g id="Grupo_870742" data-name="Grupo 870742" clip-path="url(#clip-path-3)">
            <g id="Grupo_870738" data-name="Grupo 870738" transform="translate(15.054 102.392)" opacity="0.57">
              <g id="Grupo_870737" data-name="Grupo 870737">
                <g id="Grupo_870736" data-name="Grupo 870736" clip-path="url(#clip-path-12)">
                  <path id="Trazado_215443" data-name="Trazado 215443" d="M59.185,276.232c-.154-7.875-.526-17.223-.957-26.245l-19.272.482-2.05,13.394-.152,10.776Z" transform="translate(-36.755 -249.987)" fill="#262943"/>
                </g>
              </g>
            </g>
            <path id="Trazado_215444" data-name="Trazado 215444" d="M41.233,250.257l-.623,3.982H66.359l-.338-4.589Z" transform="translate(-23.977 -147.397)" fill="#3b1b36"/>
            <rect id="Rectángulo_291380" data-name="Rectángulo 291380" width="6.56" height="3.644" transform="translate(35.147 102.563)" fill="#a07fc0"/>
            <g id="Grupo_870741" data-name="Grupo 870741" transform="translate(35.147 102.563)" opacity="0.53" style="mix-blend-mode: screen;isolation: isolate">
              <g id="Grupo_870740" data-name="Grupo 870740">
                <g id="Grupo_870739" data-name="Grupo 870739" clip-path="url(#clip-path-13)">
                  <path id="Trazado_215445" data-name="Trazado 215445" d="M92.37,250.4H85.81v.342c1.266-.036,4.556.016,5.169,1.48a10.55,10.55,0,0,1,.587,1.822h.8Z" transform="translate(-85.81 -250.405)" fill="#a992c0"/>
                </g>
              </g>
            </g>
            <path id="Trazado_215446" data-name="Trazado 215446" d="M45.05,330,34.142,372.911,15.774,421.182l20.17-47.651Z" transform="translate(-9.313 -194.835)" fill="#73557a"/>
          </g>
        </g>
        <g id="Grupo_870745" data-name="Grupo 870745" transform="translate(6.025 37.725)">
          <g id="Grupo_870744" data-name="Grupo 870744" clip-path="url(#clip-path-14)">
            <rect id="Rectángulo_291383" data-name="Rectángulo 291383" width="28.293" height="88.253" transform="translate(0 0)" fill="url(#linear-gradient-4)"/>
          </g>
        </g>
        <g id="Grupo_870750" data-name="Grupo 870750">
          <g id="Grupo_870749" data-name="Grupo 870749" clip-path="url(#clip-path-3)">
            <g id="Grupo_870748" data-name="Grupo 870748" transform="translate(11.742 56.815)" opacity="0.57">
              <g id="Grupo_870747" data-name="Grupo 870747">
                <g id="Grupo_870746" data-name="Grupo 870746" clip-path="url(#clip-path-16)">
                  <path id="Trazado_215448" data-name="Trazado 215448" d="M49.089,156.759s-17.513-20.406-19.362-17.82c-.167,2.348-.625,8.818-1.06,15.191,4.421,11.162,18.729,29.4,21.934,33.41-.472-11.518-1.082-23.076-1.513-30.78" transform="translate(-28.668 -138.712)" fill="#262943"/>
                </g>
              </g>
            </g>
            <path id="Trazado_215449" data-name="Trazado 215449" d="M77.223,160.324l2.688,60.311s-1.037-59.571-2.688-60.311" transform="translate(-45.593 -94.657)" fill="#70497a"/>
            <path id="Trazado_215450" data-name="Trazado 215450" d="M63.31,38.094c-.287-.182-3.849-9.045-3.849-9.045s-2.377-6.655-.842-7.781S63.8,16.235,67,16.165a12.143,12.143,0,0,1,5.629,1.069c.286.182,2.359,3.68,2.359,3.68s-.965-1.178-1.462,3.194S63.31,38.094,63.31,38.094" transform="translate(-34.305 -9.542)" fill="#381a3f"/>
            <path id="Trazado_215451" data-name="Trazado 215451" d="M75.82,58.878c-.38,1.133-.216,9.214-.516,11.249-.3,2.009-9.467,5.122-9.647-2.185s.542-15.9.542-15.9Z" transform="translate(-38.748 -30.726)" fill="#ffc2a1"/>
            <path id="Trazado_215452" data-name="Trazado 215452" d="M76.152,58.877h0l-3.193-2.269L66.531,52.04v.024c0,.031-.007.088-.014.17-.021.266-.062.8-.113,1.531v0q-.015.222-.032.47c0,.011,0,.021,0,.032-.035.531-.074,1.142-.112,1.814,0,.038,0,.075-.007.113q-.014.24-.027.488v.006c0,.086-.009.173-.014.26,0,.009,0,.018,0,.028l0,.1c0,.013,0,.025,0,.038,0,.057-.006.115-.009.173,1.194,3.917,5.708,8.171,9.613,8.676.008-.27.023-.543.042-.817a45.953,45.953,0,0,1,.306-6.27" transform="translate(-39.08 -30.725)" fill="#e1a082"/>
            <path id="Trazado_215453" data-name="Trazado 215453" d="M65.04,30.175A14.091,14.091,0,0,0,66.6,42.482c2.8,4.041,6.665,6.125,9.434,4.087S79.6,31.741,77.6,28.451,66.83,25.722,65.04,30.175" transform="translate(-37.949 -15.555)" fill="#ffc2a1"/>
            <path id="Trazado_215454" data-name="Trazado 215454" d="M52.148,27.469s-.623-4.182-2.228-5.2-2.329-1.641-2.619-3.118-5.644-2.465-4.77-4.894,5.067-3.565,7.2-7.788,4.432-6.56,9.4-5.022,5.661,4.57,5.661,4.57,2.192-.381,3.532,2.243a4.482,4.482,0,0,1-.484,5.345s.185-3.463-1-3.223.009,4.05.009,4.05a31.392,31.392,0,0,1-3.685-3.717c-1.9-2.258-1.432.383-.871,3.245s-3.655.165-5.529-1.9-4.555-.135-5.534,2.8,3.241,7.543.924,12.617" transform="translate(-25.054 -0.573)" fill="#653870"/>
            <path id="Trazado_215455" data-name="Trazado 215455" d="M64,43.985s-1.752-2.992-2.664-1.691-.16,5.185,1.772,5.223S64,43.985,64,43.985" transform="translate(-35.987 -24.777)" fill="#ffc2a1"/>
            <path id="Trazado_215456" data-name="Trazado 215456" d="M64.157,45.587s.067-1.733-.874-1.159.007,3.359.874,3.3,0-2.144,0-2.144" transform="translate(-37.132 -26.162)" fill="#e1a082"/>
            <path id="Trazado_215457" data-name="Trazado 215457" d="M89,45.469a10.868,10.868,0,0,1,.7,2.469,6.464,6.464,0,0,1-.026,2.736c-.214-.04-.781-.124-1.532-.321.484-.014.964,0,1.441.025l-.161.119A33.205,33.205,0,0,0,89,45.469" transform="translate(-52.04 -26.845)" fill="#172866"/>
            <path id="Trazado_215458" data-name="Trazado 215458" d="M82.422,45.383a.867.867,0,0,1-.506,1.08c-.381.077-.773-.281-.875-.8a.867.867,0,0,1,.506-1.08c.381-.077.773.281.875.8" transform="translate(-47.834 -26.316)" fill="#2f499f"/>
            <path id="Trazado_215459" data-name="Trazado 215459" d="M95.233,43.564a.867.867,0,0,1-.506,1.08c-.381.077-.773-.281-.875-.8a.867.867,0,0,1,.506-1.08c.381-.077.773.281.875.8" transform="translate(-55.397 -25.242)" fill="#2f499f"/>
            <path id="Trazado_215460" data-name="Trazado 215460" d="M77.164,40.846a3.731,3.731,0,0,1,2.149-1.687c1.343-.272.938.858.624.922s-2.825.5-2.773.765" transform="translate(-45.558 -23.095)" fill="#172866"/>
            <path id="Trazado_215461" data-name="Trazado 215461" d="M92.5,37.626s1.591.471,1.891,1.2c0,0-1.683-.139-1.986-.534a.448.448,0,0,1,.095-.667" transform="translate(-54.487 -22.215)" fill="#172866"/>
            <path id="Trazado_215462" data-name="Trazado 215462" d="M79.89,62.85s4.105,1.543,6.332.06c0,0-.624,2.067-1.191,2.44-1.194.784-4.132.189-5.141-2.5" transform="translate(-47.168 -37.107)" fill="#fff"/>
            <path id="Trazado_215463" data-name="Trazado 215463" d="M306.247,11.616c.553.511,5.828-.26,10.3,4.549,5.91,6.359,5.212,21.217,5.212,21.217A76.383,76.383,0,0,1,313,38.91,74.7,74.7,0,0,1,302.78,37.89c-2.75-.405-4.233-15.871-2.381-19.967a15.235,15.235,0,0,1,5.848-6.307" transform="translate(-176.874 -6.858)" fill="#2e162b"/>
            <path id="Trazado_215464" data-name="Trazado 215464" d="M301.109,11.6s-5.891-.339-7.35,3.466-.843,15.971-2.884,17.235a6.1,6.1,0,0,0,2.837.914s.853,1.5-1.2,3.716a16.775,16.775,0,0,0,5.126.943c.179,0,2.09.536,2.265-1.08.208-1.912-1.32-6.148-1.123-8,.838-7.839,2.324-17.2,2.324-17.2" transform="translate(-171.736 -6.847)" fill="#452140"/>
            <path id="Trazado_215465" data-name="Trazado 215465" d="M305.431,13.328a5.665,5.665,0,0,0-1.547.18s-5.05,2.114-5.28,5.832.286,5.16-.12,7.566c-.639,3.781,1.753,10.813,5.871,10.721.1-1.991-1.329-6.014-1.137-7.805.7-6.558,1.855-14.179,2.214-16.494" transform="translate(-176.168 -7.869)" fill="#341930"/>
            <path id="Trazado_215466" data-name="Trazado 215466" d="M304.313,64.319s-.946,7.175-1.932,9.067-2.556,10.153-1.176,10.153,7.8-6.428,8.213-9.029,2.424-13.344,2.424-13.344Z" transform="translate(-177.515 -36.113)" fill="#ffc2a1"/>
            <path id="Trazado_215467" data-name="Trazado 215467" d="M309.2,63.515c-.053.025-.212,1.512-.22,1.57-.228,1.6-.294,1.5-.227,1.712.535,1.672,2.693,2.72,5.874-.124a15.78,15.78,0,0,0,1.166-1.16c.447-2.42.808-4.348.808-4.348s-7.339,2.323-7.4,2.349" transform="translate(-182.28 -36.113)" fill="#e1a082"/>
            <path id="Trazado_215468" data-name="Trazado 215468" d="M305.593,13.459s-4.773,2.022-4.988,5.581.273,4.94-.111,7.244.608,8.458,4.22,10.013,8.418-4.4,9.26-7.08a21.441,21.441,0,0,0,.222-10.69c-.914-4.186-5.948-5.8-8.6-5.067" transform="translate(-177.37 -7.845)" fill="#ffc2a1"/>
            <path id="Trazado_215469" data-name="Trazado 215469" d="M311.5,33.4a13.025,13.025,0,0,0,2.665-4.187,21.449,21.449,0,0,0,.222-10.69c-.914-4.186-5.948-5.8-8.6-5.067,0,0-4.773,2.022-4.988,5.581-.072,1.192-.065,2.14-.039,2.961l4.494-.152s-.278-3.815.616-4.782l.149,4.585,3.08.023a8.628,8.628,0,0,0,1.058-3.767,10.268,10.268,0,0,1-.524,3.775s2.51-.128,2.561,1.172c.042,1.063-.329,7.725-.518,9.489A10.126,10.126,0,0,1,311.5,33.4" transform="translate(-177.557 -7.845)" fill="#e1a082"/>
            <path id="Trazado_215470" data-name="Trazado 215470" d="M319.536,17.814c-3.6-7.425-10.141-8.518-13.767-7.027-2.31.119-4.94,1.085-6.1,3.033a6.543,6.543,0,0,0-.358,5.927L303.6,19.7s.168-4.4,1.062-5.368l.209,5.318,3.043-.119a15.117,15.117,0,0,0,.92-4.446s.595,3.084-.034,4.411c0,0,2.169.24,2.22,1.54.042,1.062-.329,7.725-.518,9.489a9.061,9.061,0,0,1-2.22,5.176s7.151,1.258,8.626-.338l-.747,2.23a25.633,25.633,0,0,0,5.115-1.04c1.1-.576.334-14.465-1.742-18.739" transform="translate(-176.395 -6.029)" fill="#4c2a54"/>
            <path id="Trazado_215471" data-name="Trazado 215471" d="M299.671,14.648a6.544,6.544,0,0,0-.357,5.927l4.289-.045s.168-4.4,1.062-5.368l.208,5.318,3.043-.119a15.108,15.108,0,0,0,.92-4.446s.595,3.084-.034,4.411c0,0,2.17.24,2.22,1.54.042,1.063-.329,7.725-.518,9.489q-.031.286-.075.556c4-4,3.313-13.6,2.243-16.986s-6.9-3.309-6.9-3.309c-2.31.119-4.94,1.085-6.1,3.033" transform="translate(-176.395 -6.858)" fill="#653870"/>
            <path id="Trazado_215472" data-name="Trazado 215472" d="M315.89,12.284c5.407-.292,9.229.926,11.135,6.023,1.853,4.9,3.683,12.505,1.966,17.456l-1.767-.676c1.641-3.945.655-10.524-.455-14.677-1.386-5.2-3.182-8.07-10.879-8.126" transform="translate(-186.505 -7.229)" fill="#653870"/>
            <path id="Trazado_215473" data-name="Trazado 215473" d="M306.176,13.034c-1.844.551-3.878,1.479-4.7,3.21-.763,1.6-.408,3.446-.066,5.16l.457,0c-.871-3.622-1.313-6.468,4.308-8.366" transform="translate(-177.727 -7.695)" fill="#363a68"/>
            <path id="Trazado_215474" data-name="Trazado 215474" d="M309.356,13.367c-3.808,1.624-3.66,4.571-2.729,8.211l.453,0c-1.2-3.574-1.485-6.474,2.277-8.206" transform="translate(-180.709 -7.892)" fill="#363a68"/>
            <path id="Trazado_215475" data-name="Trazado 215475" d="M315.769,12.949c1.211,2.935.953,5.341.221,8.276l.437-.017c.552-2.939.662-5.434-.659-8.259" transform="translate(-186.434 -7.645)" fill="#363a68"/>
            <path id="Trazado_215476" data-name="Trazado 215476" d="M308.479,47.311a4.932,4.932,0,0,0,.616-3.2,10.1,10.1,0,0,1-.937,3.1l-.1.12a2.159,2.159,0,0,0,1.462.645,3.256,3.256,0,0,1-1.044-.664" transform="translate(-181.883 -26.041)" fill="#452140"/>
            <path id="Trazado_215477" data-name="Trazado 215477" d="M312.077,66.162h0Z" transform="translate(-184.253 -39.063)" fill="#fff"/>
            <path id="Trazado_215478" data-name="Trazado 215478" d="M311.6,55.841a13.9,13.9,0,0,1-4.491.975,4.748,4.748,0,0,0,.549.75,13.806,13.806,0,0,0,3.581-.767,5.971,5.971,0,0,0,.36-.958" transform="translate(-181.318 -32.969)" fill="#fff"/>
            <path id="Trazado_215479" data-name="Trazado 215479" d="M312.027,58.182a13.807,13.807,0,0,1-3.581.767c1.344,1.491,2.7,1.071,3.581-.767" transform="translate(-182.11 -34.351)" fill="#2e162b"/>
            <path id="Trazado_215480" data-name="Trazado 215480" d="M313.821,36.1a2.436,2.436,0,0,1,1.22-.616c.821-.18,2.575.772,2.575.772a14.888,14.888,0,0,0-2.237-.444,3.544,3.544,0,0,0-1.253.493Z" transform="translate(-185.284 -20.939)" fill="#5c2c55"/>
            <path id="Trazado_215481" data-name="Trazado 215481" d="M303.57,36.583A2.23,2.23,0,0,0,302.535,36a4.973,4.973,0,0,0-2.248.478,13.186,13.186,0,0,1,1.946-.228,3.265,3.265,0,0,1,1.067.487Z" transform="translate(-177.293 -21.23)" fill="#5c2c55"/>
            <path id="Trazado_215482" data-name="Trazado 215482" d="M313.626,41.716a2.252,2.252,0,0,1,1.84-.52c.771.152,1.206.782,1.687.878-.722.177-.968-.632-2.63-.547a3.009,3.009,0,0,0-.9.189" transform="translate(-185.169 -24.306)" fill="#2e162b"/>
            <path id="Trazado_215483" data-name="Trazado 215483" d="M302.835,42.16a2.251,2.251,0,0,0-1.791-.668c-.781.088-1.266.681-1.753.738.7.236,1.016-.552,2.666-.331a3.017,3.017,0,0,1,.877.261" transform="translate(-176.705 -24.493)" fill="#2e162b"/>
            <path id="Trazado_215484" data-name="Trazado 215484" d="M320.812,45.742c0,.439-.909.8-2.03.8s-2.03-.356-2.03-.8.909-.8,2.03-.8,2.03.356,2.03.8" transform="translate(-187.014 -26.537)" fill="#e1a082"/>
            <path id="Trazado_215485" data-name="Trazado 215485" d="M303.644,45.742c0,.439-.66.8-1.475.8s-1.474-.356-1.474-.8.66-.8,1.474-.8,1.475.356,1.475.8" transform="translate(-177.534 -26.537)" fill="#e1a082"/>
            <path id="Trazado_215486" data-name="Trazado 215486" d="M91.518,84.43l3.926,29.958L96.75,99.6l-1.356-1.645V89.18Z" transform="translate(-54.033 -49.849)" fill="#284758"/>
            <path id="Trazado_215487" data-name="Trazado 215487" d="M59.153,81.712l4.67,6.977-2.249,4.279-6.924-8.306,2.834-2.2Z" transform="translate(-32.265 -48.244)" fill="#e3feec"/>
            <path id="Trazado_215488" data-name="Trazado 215488" d="M88.685,84.43l-1.965,5.5,1.965,3.131.946-5.3Z" transform="translate(-51.201 -49.849)" fill="#f4fff7"/>
            <path id="Trazado_215489" data-name="Trazado 215489" d="M58.426,114.988,52.014,83.537l-6.628,5.152,5.8,10.769-.432,3.372Z" transform="translate(-26.797 -49.321)" fill="#284758"/>
            <path id="Trazado_215490" data-name="Trazado 215490" d="M79.146,97.851l-1.571,1.277-2.391-.91-1.292,2.458s5.258.283,6.455-.913Z" transform="translate(-43.626 -57.772)" fill="#a4c1ad"/>
            <path id="Trazado_215491" data-name="Trazado 215491" d="M77.56,98.367l3.622-.259-.111,3.174-2.888.134Z" transform="translate(-45.792 -57.924)" fill="#c38c2b"/>
            <path id="Trazado_215492" data-name="Trazado 215492" d="M79.082,105.992l2.888-.134,5.573,53.009-2.426,3.777L80.59,159.6Z" transform="translate(-46.691 -62.5)" fill="#fcc15a"/>
            <path id="Trazado_215493" data-name="Trazado 215493" d="M149.388,189l4.075-.793.5,6.006-4.572,2.7Z" transform="translate(-88.201 -111.121)" fill="#d1fedf"/>
            <path id="Trazado_215494" data-name="Trazado 215494" d="M151.731,189.031l-2.343.455v7.91l3.421-2.018Z" transform="translate(-88.2 -111.606)" fill="#9dbfa7"/>
          </g>
        </g>
        <g id="Grupo_870752" data-name="Grupo 870752" transform="translate(12.423 40.283)">
          <g id="Grupo_870751" data-name="Grupo 870751" clip-path="url(#clip-path-17)">
            <rect id="Rectángulo_291386" data-name="Rectángulo 291386" width="72.544" height="72.453" transform="translate(-24.728 36.845) rotate(-56.869)" fill="url(#linear-gradient-5)"/>
          </g>
        </g>
        <g id="Grupo_870754" data-name="Grupo 870754">
          <g id="Grupo_870753" data-name="Grupo 870753" clip-path="url(#clip-path-3)">
            <path id="Trazado_215496" data-name="Trazado 215496" d="M67.558,136C59.379,122.827,52.22,111.321,43.61,98.35c8.1,13.771,15.247,25.12,23.575,38.362,10.152-.58,13.348-.727,21.739-1.348-3.6.065-17.94.483-21.366.636" transform="translate(-25.748 -58.067)" fill="#70497a"/>
            <path id="Trazado_215497" data-name="Trazado 215497" d="M174.065,212.982a.4.4,0,0,1-.033-.794c16.37-1.382,18.71-9.9,18.731-9.985a.4.4,0,0,1,.772.192c-.092.373-2.451,9.152-19.436,10.585h-.034" transform="translate(-102.535 -119.206)" fill="#58307d"/>
            <path id="Trazado_215498" data-name="Trazado 215498" d="M206.768,211.228a.4.4,0,0,1-.152-.765c10.222-4.245,10.609-11.08,10.612-11.148a.41.41,0,0,1,.412-.382.4.4,0,0,1,.383.41c-.01.3-.377,7.4-11.1,11.854a.392.392,0,0,1-.152.031" transform="translate(-121.843 -117.452)" fill="#58307d"/>
            <path id="Trazado_215499" data-name="Trazado 215499" d="M367.234,21.815a.4.4,0,0,1-.4-.4c0-11.388-4.379-18.605-4.423-18.677a.4.4,0,1,1,.677-.418c.045.073,4.542,7.484,4.542,19.095a.4.4,0,0,1-.4.4" transform="translate(-213.938 -1.26)" fill="#58307d"/>
            <path id="Trazado_215500" data-name="Trazado 215500" d="M30.649,23.865a.4.4,0,0,1-.344-.2c-5.62-9.718.636-22.887.906-23.442a.4.4,0,0,1,.716.347c-.064.132-6.34,13.347-.933,22.7a.4.4,0,0,1-.344.6" transform="translate(-16.514 0)" fill="#58307d"/>
          </g>
        </g>
      </g>
    </g>
  </g>
</svg>
