<svg xmlns="http://www.w3.org/2000/svg" width="112" height="112" viewBox="0 0 112 112">
  <g id="Group_1072264" data-name="Group 1072264" transform="translate(6565 -6790.83)">
    <path id="Path_609205" data-name="Path 609205" d="M56,0A56,56,0,1,1,0,56,56,56,0,0,1,56,0Z" transform="translate(-6565 6790.83)" fill="#fff"/>
    <path id="Path_216711" data-name="Path 216711" d="M66.923,33.536A33.462,33.462,0,1,1,33.536,0,33.4,33.4,0,0,1,66.923,33.536Z" transform="translate(-6547 6808.83)" fill="#2167ae"/>
    <path id="Path_216712" data-name="Path 216712" d="M259.387,33.536A33.4,33.4,0,0,1,226,66.923V0A33.527,33.527,0,0,1,259.387,33.536Z" transform="translate(-6739.464 6808.83)" fill="#03386e"/>
    <path id="Path_216713" data-name="Path 216713" d="M88.02,59.084A29.01,29.01,0,1,1,59.084,30,28.935,28.935,0,0,1,88.02,59.084Z" transform="translate(-6572.548 6783.281)" fill="#f9f5f3"/>
    <path id="Path_216714" data-name="Path 216714" d="M254.936,59.084A28.935,28.935,0,0,1,226,88.02V30A29.062,29.062,0,0,1,254.936,59.084Z" transform="translate(-6739.464 6783.281)" fill="#f0dbd8"/>
    <path id="Path_216715" data-name="Path 216715" d="M211,61h4.452v4.452H211Z" transform="translate(-6726.69 6756.881)" fill="#80664d"/>
    <path id="Path_216716" data-name="Path 216716" d="M211,361h4.452v4.452H211Z" transform="translate(-6726.69 6501.397)" fill="#80664d"/>
    <path id="Path_216717" data-name="Path 216717" d="M0,0H4.451V4.451H0Z" transform="translate(-6532.354 6826.626) rotate(-45)" fill="#80664d"/>
    <path id="Path_216718" data-name="Path 216718" d="M0,0H4.451V4.451H0Z" transform="translate(-6532.358 6858.102) rotate(-45)" fill="#80664d"/>
    <path id="Path_216719" data-name="Path 216719" d="M0,0H4.451V4.451H0Z" transform="translate(-6500.879 6826.629) rotate(-45)" fill="#594135"/>
    <path id="Path_216720" data-name="Path 216720" d="M61,211h4.452v4.452H61Z" transform="translate(-6598.948 6629.14)" fill="#80664d"/>
    <path id="Path_216721" data-name="Path 216721" d="M361,211h4.452v4.452H361Z" transform="translate(-6854.432 6629.14)" fill="#594135"/>
    <path id="Path_216722" data-name="Path 216722" d="M224.355,134.355v4.452H211V121h4.452v13.355Z" transform="translate(-6726.69 6705.785)" fill="#80664d"/>
    <path id="Path_216723" data-name="Path 216723" d="M288.807,271a17.881,17.881,0,0,0,0,35.762,17.881,17.881,0,1,0,0-35.762Z" transform="translate(-6777.787 6578.042)" fill="#57d9ad"/>
    <path id="Path_216724" data-name="Path 216724" d="M408.955,288.807A18.056,18.056,0,0,1,391,306.762V271A17.929,17.929,0,0,1,408.955,288.807Z" transform="translate(-6879.98 6578.042)" fill="#26bfa6"/>
    <path id="Path_216725" data-name="Path 216725" d="M351.972,353.615l-8.235,8.28-2.226,2.226-6.01-6.054,3.116-3.116,2.894,2.849,2.226-2.226,5.12-5.075Z" transform="translate(-6832.717 6510.34)" fill="#f9f5f3"/>
    <path id="Path_216726" data-name="Path 216726" d="M399.235,353.615,391,361.9v-6.321l5.12-5.075Z" transform="translate(-6879.98 6510.34)" fill="#f0dbd8"/>
    <path id="Path_216727" data-name="Path 216727" d="M226,61h2.226v4.452H226Z" transform="translate(-6739.464 6756.881)" fill="#594135"/>
    <path id="Path_216728" data-name="Path 216728" d="M226,361h2.226v4.452H226Z" transform="translate(-6739.464 6501.397)" fill="#594135"/>
    <path id="Path_216729" data-name="Path 216729" d="M237.129,134.355v4.452H226V121h2.226v13.355Z" transform="translate(-6739.464 6705.785)" fill="#594135"/>
  </g>
</svg>
