<svg xmlns="http://www.w3.org/2000/svg" width="112" height="112" viewBox="0 0 112 112">
  <g id="Group_1072263" data-name="Group 1072263" transform="translate(-1095 -18463.924)">
    <circle id="Ellipse_4781" data-name="Ellipse 4781" cx="56" cy="56" r="56" transform="translate(1095 18463.924)" fill="#fff"/>
    <g id="objetivo_3_" data-name="objetivo(3)" transform="translate(1111.413 18481.094)">
      <path id="Path_216695" data-name="Path 216695" d="M332.99,50.607,345.3,42.889h11.063c.692,0,.937.49.576,1.053l-3.59,5.607a1.649,1.649,0,0,0,0,2.111l3.59,5.607c.357.563.086,1.058-.576,1.058H334.245c-.9,0-1.255-.417-1.255-1.255Z" transform="translate(-282.482 -36.384)" fill="#d29936" fill-rule="evenodd"/>
      <path id="Path_216696" data-name="Path 216696" d="M275.345,15.436H251.8V0h23.54a1.118,1.118,0,0,1,1.088,1.139V14.3A1.118,1.118,0,0,1,275.345,15.436Z" transform="translate(-213.611)" fill="#eba325" fill-rule="evenodd"/>
      <path id="Path_216697" data-name="Path 216697" d="M244.321,1.139a1.137,1.137,0,1,1,2.274,0V76.525a1.137,1.137,0,0,1-2.274,0Z" transform="translate(-207.263)" fill="#477b9e"/>
      <g id="Group_871244" data-name="Group 871244" transform="translate(0 6.506)">
        <path id="Path_216698" data-name="Path 216698" d="M1.5,373.7H21.674a1.5,1.5,0,0,1,1.5,1.5v10.19a1.5,1.5,0,0,1-1.5,1.5H1.5a1.5,1.5,0,0,1-1.5-1.5v-10.19a1.5,1.5,0,0,1,1.5-1.5Z" transform="translate(0 -323.519)" fill="#ccf49f" fill-rule="evenodd"/>
        <path id="Path_216699" data-name="Path 216699" d="M164.82,368.8l4.33-.606,3.711.606a2.113,2.113,0,0,1,2.12,1.974v9.7a1.974,1.974,0,0,1-1.969,1.969h-8.8a10.957,10.957,0,0,1-5.233-1.281c-.989-.542-.753-.443-1.922-.443h-4.3v-10.19h6.14c1.557,0,1.131-.1,2.459-.718A6.221,6.221,0,0,1,164.82,368.8Z" transform="translate(-129.589 -318.854)" fill="#ffcbbe" fill-rule="evenodd"/>
        <path id="Path_216700" data-name="Path 216700" d="M222.9,278.915l-4.682-.606-3.5.606a1.978,1.978,0,0,0-1.973,1.969v9.7a1.978,1.978,0,0,0,1.973,1.969h8.8a10.9,10.9,0,0,0,5.34-1.341c.774-.439.555-.378,1.475-.378h3.878l1.819-5.62-1.819-4.571h-5.254c-1.608,0-1.135-.026-2.494-.68A6.314,6.314,0,0,0,222.9,278.915Z" transform="translate(-180.474 -242.601)" fill="#ffcbbe" fill-rule="evenodd"/>
        <path id="Path_216701" data-name="Path 216701" d="M1.5,193.892H22.431a1.5,1.5,0,0,1,1.5,1.5l.606,4.751-.606,5.439a1.5,1.5,0,0,1-1.5,1.5H1.5a1.5,1.5,0,0,1-1.5-1.5v-10.19a1.5,1.5,0,0,1,1.5-1.5Z" transform="translate(0 -170.988)" fill="#2b6bac" fill-rule="evenodd"/>
        <path id="Path_216702" data-name="Path 216702" d="M177.269,170.892a1.974,1.974,0,0,1,1.969,1.969v9.7a1.978,1.978,0,0,1-1.969,1.974h-8.8a11.174,11.174,0,0,1-4.334-.851c-2.292-.967-1.587-.873-4.269-.873h-2.09v-10.19h6.458c.8-2.726,4.252-5.19,8.56-5.546a2.1,2.1,0,0,1,.284-.022,1.922,1.922,0,1,1,0,3.844Z" transform="translate(-133.847 -148.216)" fill="#ffcbbe" fill-rule="evenodd"/>
        <path id="Path_216703" data-name="Path 216703" d="M376.682,283.779H355.747a1.5,1.5,0,0,0-1.5,1.5v10.19a1.5,1.5,0,0,0,1.5,1.5h20.935a1.5,1.5,0,0,0,1.5-1.5V285.28A1.5,1.5,0,0,0,376.682,283.779Z" transform="translate(-300.519 -247.241)" fill="#65bd75" fill-rule="evenodd"/>
        <path id="Path_216704" data-name="Path 216704" d="M440.1,49.55a1.649,1.649,0,0,0,0,2.111l3.59,5.607c.357.563.086,1.058-.576,1.058h3.792c.662,0,.933-.494.576-1.058l-3.59-5.607a1.649,1.649,0,0,1,0-2.111l3.59-5.607c.361-.563.116-1.053-.576-1.053h-3.792c.692,0,.937.49.576,1.053Z" transform="translate(-373.023 -42.89)" fill="#b37b19" fill-rule="evenodd"/>
        <path id="Path_216705" data-name="Path 216705" d="M374.385,291.677a1.5,1.5,0,0,1-1.5,1.5H354.25v2.3a1.5,1.5,0,0,0,1.5,1.5h20.935a1.5,1.5,0,0,0,1.5-1.5v-10.19a1.5,1.5,0,0,0-1.5-1.5h-2.3v7.9Z" transform="translate(-300.518 -247.24)" fill="#0c5e46" fill-rule="evenodd"/>
        <path id="Path_216706" data-name="Path 216706" d="M20.139,201.785a1.5,1.5,0,0,1-1.5,1.5H0v2.3a1.5,1.5,0,0,0,1.5,1.5H22.431a1.5,1.5,0,0,0,1.5-1.5v-10.19a1.5,1.5,0,0,0-1.5-1.5H20.139Z" transform="translate(0 -170.987)" fill="#03386e" fill-rule="evenodd"/>
        <path id="Path_216707" data-name="Path 216707" d="M20.139,381.589a1.5,1.5,0,0,1-1.5,1.5H0v2.292a1.5,1.5,0,0,0,1.5,1.5H22.431a1.5,1.5,0,0,0,1.5-1.5v-10.19a1.5,1.5,0,0,0-1.5-1.5H20.139Z" transform="translate(0 -323.519)" fill="#b3e59f" fill-rule="evenodd"/>
        <path id="Path_216708" data-name="Path 216708" d="M230.328,335.853a5.185,5.185,0,0,0-3.345.868,7.127,7.127,0,0,1-3.47.856H212.743V339.4a1.978,1.978,0,0,0,1.973,1.969h.989c2.666,0,5.362.047,8.027,0a10.826,10.826,0,0,0,5.121-1.341c.774-.439.555-.378,1.475-.378h3.878v-3.792Z" transform="translate(-180.474 -291.417)" fill="#f7beaf" fill-rule="evenodd"/>
        <path id="Path_216709" data-name="Path 216709" d="M173.222,381.942h-4.751a7.124,7.124,0,0,1-3.41-.817,5.579,5.579,0,0,0-3.491-.9h-3.792v3.788h3.539c1.169,0,.933-.1,1.922.443a10.955,10.955,0,0,0,5.233,1.281h8.8a1.974,1.974,0,0,0,1.969-1.969v-9.7a2.113,2.113,0,0,0-2.12-1.974c-.292-.047-1.3.017-1.673.017v7.9A2,2,0,0,1,173.222,381.942Z" transform="translate(-133.846 -322.148)" fill="#f7beaf" fill-rule="evenodd"/>
        <path id="Path_216710" data-name="Path 216710" d="M175.445,200.263c0,1.6-.77,1.973-2.266,1.973h-4.708a7.334,7.334,0,0,1-2.859-.555,9.631,9.631,0,0,0-4.042-1.148h-3.792V204.3h2.09c2.683,0,1.978-.094,4.269.873a11.188,11.188,0,0,0,4.334.851h8.8a1.978,1.978,0,0,0,1.969-1.974v-9.7a1.974,1.974,0,0,0-1.969-1.969h-1.823Z" transform="translate(-133.846 -169.714)" fill="#f7beaf" fill-rule="evenodd"/>
      </g>
    </g>
  </g>
</svg>
