<svg xmlns="http://www.w3.org/2000/svg" width="112" height="112" viewBox="0 0 112 112">
  <g id="Group_1072265" data-name="Group 1072265" transform="translate(6214 -6790.83)">
    <path id="Path_609206" data-name="Path 609206" d="M56,0A56,56,0,1,1,0,56,56,56,0,0,1,56,0Z" transform="translate(-6214 6790.83)" fill="#fff"/>
    <path id="Path_216730" data-name="Path 216730" d="M74.664,36.517H73.243A34.184,34.184,0,0,0,41.778,5.052V3.631A2.572,2.572,0,0,0,41,1.776,2.572,2.572,0,0,0,39.147,1a2.639,2.639,0,0,0-2.631,2.631V5.052A34.184,34.184,0,0,0,5.052,36.517H3.631a2.572,2.572,0,0,0-1.855.776A2.572,2.572,0,0,0,1,39.147a2.639,2.639,0,0,0,2.631,2.631H5.052A34.184,34.184,0,0,0,36.517,73.243v1.421a2.631,2.631,0,1,0,5.262,0V73.243A34.184,34.184,0,0,0,73.243,41.778h1.421a2.631,2.631,0,1,0,0-5.262Zm-7.893,5.262h1.2a29,29,0,0,1-26.19,26.19v-1.2a2.631,2.631,0,0,0-5.262,0v1.2a29,29,0,0,1-26.19-26.19h1.2a2.631,2.631,0,0,0,0-5.262h-1.2a29,29,0,0,1,26.19-26.19v1.2a2.631,2.631,0,0,0,5.262,0v-1.2a29,29,0,0,1,26.19,26.19h-1.2a2.631,2.631,0,0,0,0,5.262Z" transform="translate(-6197 6807.83)" fill="#03386e"/>
    <path id="Path_216731" data-name="Path 216731" d="M45.309,54.463H21.631A2.631,2.631,0,0,1,19,51.832v-34.2A2.631,2.631,0,0,1,21.631,15H38.958a2.631,2.631,0,0,1,1.86.77l6.351,6.351a2.631,2.631,0,0,1,.771,1.86v27.85A2.631,2.631,0,0,1,45.309,54.463Z" transform="translate(-6191.322 6812.246)" fill="#f2f8ff"/>
    <path id="Path_216732" data-name="Path 216732" d="M42.656,22.836H37.631A2.639,2.639,0,0,1,35,20.2V15.18a2.653,2.653,0,0,1,.776.539l6.34,6.34a2.653,2.653,0,0,1,.539.776Z" transform="translate(-6186.275 6812.302)" fill="#9fbace"/>
    <g id="Group_871256" data-name="Group 871256" transform="translate(-6159.168 6833.823)">
      <path id="Path_216733" data-name="Path 216733" d="M32.946,22.631H30.315a1.315,1.315,0,1,1,0-2.631h2.631a1.315,1.315,0,1,1,0,2.631Z" transform="translate(-29 -20)" fill="#b1cbdd"/>
      <path id="Path_216734" data-name="Path 216734" d="M39.523,28.631H30.315a1.315,1.315,0,0,1,0-2.631h9.208a1.315,1.315,0,0,1,0,2.631Z" transform="translate(-29 -18.107)" fill="#b1cbdd"/>
      <path id="Path_216735" data-name="Path 216735" d="M39.43,35.631H30.315a1.315,1.315,0,0,1,0-2.631H39.43a1.315,1.315,0,0,1,0,2.631Z" transform="translate(-29 -15.899)" fill="#b1cbdd"/>
    </g>
    <path id="Path_216736" data-name="Path 216736" d="M23.7,24.19a1.315,1.315,0,0,0,.93.385h.132A1.315,1.315,0,0,0,25.726,24l2.631-3.946a1.316,1.316,0,0,0-2.189-1.46L24.428,21.2l-.182-.182a1.315,1.315,0,1,0-1.86,1.86Z" transform="translate(-6190.375 6813.193)" fill="#66caa4"/>
    <path id="Path_216737" data-name="Path 216737" d="M27.149,27.289l1.043-1.043a1.315,1.315,0,1,0-1.86-1.86l-1.043,1.043-1.043-1.043a1.315,1.315,0,1,0-1.86,1.86l1.043,1.043-1.043,1.043a1.315,1.315,0,1,0,1.86,1.86l1.043-1.043,1.043,1.043a1.315,1.315,0,1,0,1.86-1.86Z" transform="translate(-6190.376 6815.084)" fill="#eb6374"/>
    <path id="Path_216738" data-name="Path 216738" d="M23.7,37.192a1.315,1.315,0,0,0,.93.385.908.908,0,0,0,.132-.007,1.315,1.315,0,0,0,.964-.579l2.631-3.946a1.316,1.316,0,1,0-2.189-1.46L24.428,34.2l-.182-.182a1.315,1.315,0,1,0-1.86,1.86Z" transform="translate(-6190.375 6817.292)" fill="#66caa4"/>
    <path id="Path_216739" data-name="Path 216739" d="M28.192,37.385a1.315,1.315,0,0,0-1.86,0l-1.043,1.043-1.043-1.043a1.315,1.315,0,1,0-1.86,1.86l1.043,1.043-1.043,1.043a1.315,1.315,0,1,0,1.86,1.86l1.043-1.043,1.043,1.043a1.315,1.315,0,1,0,1.86-1.86l-1.043-1.043,1.043-1.043A1.315,1.315,0,0,0,28.192,37.385Z" transform="translate(-6190.376 6819.185)" fill="#eb6374"/>
    <path id="Path_216740" data-name="Path 216740" d="M39.523,39H30.315a1.315,1.315,0,1,0,0,2.631h9.208a1.315,1.315,0,1,0,0-2.631Z" transform="translate(-6188.168 6819.816)" fill="#b1cbdd"/>
  </g>
</svg>
