<svg xmlns="http://www.w3.org/2000/svg" xmlns:xlink="http://www.w3.org/1999/xlink" width="1240" height="265" viewBox="0 0 1240 265">
  <defs>
    <linearGradient id="linear-gradient" x1="0.5" x2="0.5" y2="1" gradientUnits="objectBoundingBox">
      <stop offset="0" stop-color="#fef5e5"/>
      <stop offset="0.137" stop-color="#fffefc"/>
      <stop offset="0.479" stop-color="#fff"/>
      <stop offset="0.773" stop-color="#fffefd"/>
      <stop offset="1" stop-color="#fef7ea"/>
    </linearGradient>
  </defs>
  <g id="Group_1072269" data-name="Group 1072269" transform="translate(-180 -23994.023)">
    <path id="Path_609512" data-name="Path 609512" d="M0,0H1240V265H0Z" transform="translate(180 23994.023)" fill="url(#linear-gradient)"/>
    <path id="Path_609513" data-name="Path 609513" d="M11.016,15H8.672V10.125H4.1V15H1.758V3.625H4.1V8.234h4.57V3.625h2.344Zm6.8,0a2.507,2.507,0,0,1-.227-.758,2.732,2.732,0,0,1-2.133.914,3,3,0,0,1-2.059-.719,2.312,2.312,0,0,1-.816-1.812,2.389,2.389,0,0,1,1-2.062,4.915,4.915,0,0,1,2.879-.727h1.039V9.352a1.393,1.393,0,0,0-.3-.937,1.183,1.183,0,0,0-.949-.352,1.345,1.345,0,0,0-.895.273.929.929,0,0,0-.324.75H12.766a2.268,2.268,0,0,1,.453-1.359,3,3,0,0,1,1.281-.98,4.669,4.669,0,0,1,1.859-.355,3.689,3.689,0,0,1,2.48.785,2.747,2.747,0,0,1,.918,2.207v3.664a4.041,4.041,0,0,0,.336,1.82V15Zm-1.867-1.57a1.945,1.945,0,0,0,.922-.223,1.462,1.462,0,0,0,.625-.6V11.156h-.844q-1.7,0-1.8,1.172l-.008.133a.9.9,0,0,0,.3.7A1.153,1.153,0,0,0,15.945,13.43Zm9.063-.094a1.481,1.481,0,0,0,1.016-.344,1.2,1.2,0,0,0,.406-.914h2.117a2.9,2.9,0,0,1-.469,1.574,3.093,3.093,0,0,1-1.262,1.109,3.949,3.949,0,0,1-1.77.395A3.67,3.67,0,0,1,22.188,14a4.56,4.56,0,0,1-1.047-3.184v-.148A4.508,4.508,0,0,1,22.18,7.555a3.627,3.627,0,0,1,2.852-1.164,3.555,3.555,0,0,1,2.543.9,3.2,3.2,0,0,1,.973,2.4H26.43a1.551,1.551,0,0,0-.406-1.072,1.51,1.51,0,0,0-2.223.163,3.333,3.333,0,0,0-.4,1.866v.235a3.375,3.375,0,0,0,.4,1.878A1.377,1.377,0,0,0,25.008,13.336Zm8.719,1.82A4.15,4.15,0,0,1,30.7,14.016a4.054,4.054,0,0,1-1.168-3.039v-.219a5.106,5.106,0,0,1,.492-2.277,3.612,3.612,0,0,1,1.395-1.547,3.914,3.914,0,0,1,2.059-.543,3.508,3.508,0,0,1,2.73,1.094,4.444,4.444,0,0,1,1,3.1v.922H31.82a2.1,2.1,0,0,0,.66,1.328,2,2,0,0,0,1.395.5,2.437,2.437,0,0,0,2.039-.945l1.109,1.242a3.389,3.389,0,0,1-1.375,1.121A4.511,4.511,0,0,1,33.727,15.156Zm-.258-6.945a1.411,1.411,0,0,0-1.09.455,2.357,2.357,0,0,0-.535,1.3h3.141V9.788a1.681,1.681,0,0,0-.406-1.165A1.456,1.456,0,0,0,33.469,8.211Zm9.766.453a6.134,6.134,0,0,0-.812-.062,1.654,1.654,0,0,0-1.68.867V15H38.484V6.547h2.133l.063,1.008a2.092,2.092,0,0,1,1.883-1.164,2.366,2.366,0,0,1,.7.1Zm10.133,5.477a2.831,2.831,0,0,1-2.312,1.016,2.67,2.67,0,0,1-2.074-.781,3.335,3.335,0,0,1-.73-2.289V6.547h2.258v5.467q0,1.322,1.2,1.322a1.63,1.63,0,0,0,1.578-.8V6.547h2.266V15H53.43Zm5.969-7.594.07.977a2.951,2.951,0,0,1,2.43-1.133,2.453,2.453,0,0,1,2,.789,3.682,3.682,0,0,1,.672,2.359V15H62.25V9.594a1.465,1.465,0,0,0-.312-1.043A1.4,1.4,0,0,0,60.9,8.227a1.553,1.553,0,0,0-1.43.813V15H57.211V6.547ZM71.117,15a2.507,2.507,0,0,1-.227-.758,2.732,2.732,0,0,1-2.133.914,3,3,0,0,1-2.059-.719,2.312,2.312,0,0,1-.816-1.812,2.389,2.389,0,0,1,1-2.062,4.915,4.915,0,0,1,2.879-.727H70.8V9.352a1.393,1.393,0,0,0-.3-.937,1.183,1.183,0,0,0-.949-.352,1.345,1.345,0,0,0-.895.273.929.929,0,0,0-.324.75H66.07a2.268,2.268,0,0,1,.453-1.359,3,3,0,0,1,1.281-.98,4.669,4.669,0,0,1,1.859-.355,3.689,3.689,0,0,1,2.48.785,2.747,2.747,0,0,1,.918,2.207v3.664a4.041,4.041,0,0,0,.336,1.82V15ZM69.25,13.43a1.945,1.945,0,0,0,.922-.223,1.462,1.462,0,0,0,.625-.6V11.156h-.844q-1.7,0-1.8,1.172l-.008.133a.9.9,0,0,0,.3.7A1.153,1.153,0,0,0,69.25,13.43ZM81.164,15H78.9V3h2.266Zm4.242,0H83.141V6.547h2.266Zm-2.4-10.641a1.112,1.112,0,0,1,.34-.836,1.465,1.465,0,0,1,1.848,0,1.105,1.105,0,0,1,.344.836,1.108,1.108,0,0,1-.348.844,1.448,1.448,0,0,1-1.836,0A1.108,1.108,0,0,1,83.008,4.359Zm8.836,8.3a.727.727,0,0,0-.41-.652,4.659,4.659,0,0,0-1.316-.426Q87.1,10.953,87.1,9.023a2.323,2.323,0,0,1,.934-1.879,3.766,3.766,0,0,1,2.441-.754,4.053,4.053,0,0,1,2.574.758,2.388,2.388,0,0,1,.965,1.969H91.758a1.092,1.092,0,0,0-.312-.8A1.322,1.322,0,0,0,90.469,8a1.351,1.351,0,0,0-.883.258.814.814,0,0,0-.312.656.7.7,0,0,0,.355.605,3.657,3.657,0,0,0,1.2.4,9.8,9.8,0,0,1,1.422.379,2.336,2.336,0,0,1,1.789,2.273,2.2,2.2,0,0,1-.992,1.871,4.28,4.28,0,0,1-2.562.715,4.47,4.47,0,0,1-1.887-.379A3.166,3.166,0,0,1,87.3,13.738a2.414,2.414,0,0,1-.469-1.426h2.141a1.179,1.179,0,0,0,.445.922,1.766,1.766,0,0,0,1.109.32,1.635,1.635,0,0,0,.98-.246A.766.766,0,0,0,91.844,12.664Zm6.352-8.2V6.547h1.445V8.2H98.2v4.219a1.007,1.007,0,0,0,.18.672.9.9,0,0,0,.688.2,3.6,3.6,0,0,0,.664-.055v1.711a4.648,4.648,0,0,1-1.367.2,2.156,2.156,0,0,1-2.422-2.4V8.2H94.7V6.547h1.234V4.469ZM105.8,15a2.507,2.507,0,0,1-.227-.758,2.732,2.732,0,0,1-2.133.914,3,3,0,0,1-2.059-.719,2.312,2.312,0,0,1-.816-1.812,2.389,2.389,0,0,1,1-2.062,4.915,4.915,0,0,1,2.879-.727h1.039V9.352a1.393,1.393,0,0,0-.3-.937,1.183,1.183,0,0,0-.949-.352,1.345,1.345,0,0,0-.895.273.929.929,0,0,0-.324.75H100.75a2.268,2.268,0,0,1,.453-1.359,3,3,0,0,1,1.281-.98,4.669,4.669,0,0,1,1.859-.355,3.689,3.689,0,0,1,2.48.785,2.747,2.747,0,0,1,.918,2.207v3.664a4.041,4.041,0,0,0,.336,1.82V15Zm-1.867-1.57a1.945,1.945,0,0,0,.922-.223,1.462,1.462,0,0,0,.625-.6V11.156h-.844q-1.7,0-1.8,1.172l-.008.133a.9.9,0,0,0,.3.7A1.153,1.153,0,0,0,103.93,13.43Zm9.18-2.719A5.094,5.094,0,0,1,114,7.563a2.877,2.877,0,0,1,2.426-1.172,2.589,2.589,0,0,1,2.039.922V3h2.266V15h-2.039l-.109-.9a2.657,2.657,0,0,1-2.172,1.055,2.869,2.869,0,0,1-2.395-1.176A5.258,5.258,0,0,1,113.109,10.711Zm2.258.168a3.337,3.337,0,0,0,.414,1.823,1.349,1.349,0,0,0,1.2.634,1.511,1.511,0,0,0,1.477-.884V9.111A1.489,1.489,0,0,0,117,8.227Q115.367,8.227,115.367,10.879Zm11,4.277a4.15,4.15,0,0,1-3.027-1.141,4.054,4.054,0,0,1-1.168-3.039v-.219a5.106,5.106,0,0,1,.492-2.277,3.612,3.612,0,0,1,1.395-1.547,3.914,3.914,0,0,1,2.059-.543,3.508,3.508,0,0,1,2.73,1.094,4.444,4.444,0,0,1,1,3.1v.922h-5.383a2.1,2.1,0,0,0,.66,1.328,2,2,0,0,0,1.395.5,2.437,2.437,0,0,0,2.039-.945l1.109,1.242a3.389,3.389,0,0,1-1.375,1.121A4.511,4.511,0,0,1,126.367,15.156Zm-.258-6.945a1.411,1.411,0,0,0-1.09.455,2.357,2.357,0,0,0-.535,1.3h3.141V9.788a1.681,1.681,0,0,0-.406-1.165A1.456,1.456,0,0,0,126.109,8.211ZM15.043,35H12.777V23h2.266ZM21.8,35a2.507,2.507,0,0,1-.227-.758,2.732,2.732,0,0,1-2.133.914,3,3,0,0,1-2.059-.719,2.312,2.312,0,0,1-.816-1.812,2.389,2.389,0,0,1,1-2.062,4.915,4.915,0,0,1,2.879-.727H21.48v-.484a1.393,1.393,0,0,0-.3-.937,1.183,1.183,0,0,0-.949-.352,1.345,1.345,0,0,0-.895.273.929.929,0,0,0-.324.75H16.754a2.268,2.268,0,0,1,.453-1.359,3,3,0,0,1,1.281-.98,4.669,4.669,0,0,1,1.859-.355,3.689,3.689,0,0,1,2.48.785,2.747,2.747,0,0,1,.918,2.207v3.664a4.041,4.041,0,0,0,.336,1.82V35Zm-1.867-1.57a1.945,1.945,0,0,0,.922-.223,1.462,1.462,0,0,0,.625-.6V31.156h-.844q-1.7,0-1.8,1.172l-.008.133a.9.9,0,0,0,.3.7A1.153,1.153,0,0,0,19.934,33.43Zm10.125-.766a.727.727,0,0,0-.41-.652,4.659,4.659,0,0,0-1.316-.426q-3.016-.633-3.016-2.562a2.323,2.323,0,0,1,.934-1.879,3.766,3.766,0,0,1,2.441-.754,4.053,4.053,0,0,1,2.574.758,2.388,2.388,0,0,1,.965,1.969H29.973a1.092,1.092,0,0,0-.312-.8A1.322,1.322,0,0,0,28.684,28a1.351,1.351,0,0,0-.883.258.814.814,0,0,0-.312.656.7.7,0,0,0,.355.605,3.657,3.657,0,0,0,1.2.4,9.8,9.8,0,0,1,1.422.379,2.336,2.336,0,0,1,1.789,2.273,2.2,2.2,0,0,1-.992,1.871,4.28,4.28,0,0,1-2.562.715,4.47,4.47,0,0,1-1.887-.379,3.166,3.166,0,0,1-1.293-1.039,2.414,2.414,0,0,1-.469-1.426h2.141a1.179,1.179,0,0,0,.445.922,1.766,1.766,0,0,0,1.109.32,1.635,1.635,0,0,0,.98-.246A.766.766,0,0,0,30.059,32.664ZM42.59,35a2.507,2.507,0,0,1-.227-.758,2.732,2.732,0,0,1-2.133.914,3,3,0,0,1-2.059-.719,2.312,2.312,0,0,1-.816-1.812,2.389,2.389,0,0,1,1-2.062,4.915,4.915,0,0,1,2.879-.727H42.27v-.484a1.393,1.393,0,0,0-.3-.937,1.183,1.183,0,0,0-.949-.352,1.345,1.345,0,0,0-.895.273.929.929,0,0,0-.324.75H37.543A2.268,2.268,0,0,1,38,27.727a3,3,0,0,1,1.281-.98,4.669,4.669,0,0,1,1.859-.355,3.689,3.689,0,0,1,2.48.785,2.747,2.747,0,0,1,.918,2.207v3.664a4.041,4.041,0,0,0,.336,1.82V35Zm-1.867-1.57a1.945,1.945,0,0,0,.922-.223,1.462,1.462,0,0,0,.625-.6V31.156h-.844q-1.7,0-1.8,1.172l-.008.133a.9.9,0,0,0,.3.7A1.153,1.153,0,0,0,40.723,33.43Zm9.063-.094a1.481,1.481,0,0,0,1.016-.344,1.2,1.2,0,0,0,.406-.914h2.117a2.9,2.9,0,0,1-.469,1.574,3.093,3.093,0,0,1-1.262,1.109,3.949,3.949,0,0,1-1.77.395A3.67,3.67,0,0,1,46.965,34a4.56,4.56,0,0,1-1.047-3.184v-.148a4.508,4.508,0,0,1,1.039-3.117,3.627,3.627,0,0,1,2.852-1.164,3.555,3.555,0,0,1,2.543.9,3.2,3.2,0,0,1,.973,2.4H51.207a1.551,1.551,0,0,0-.406-1.072,1.51,1.51,0,0,0-2.223.163,3.333,3.333,0,0,0-.4,1.866v.235a3.375,3.375,0,0,0,.4,1.878A1.377,1.377,0,0,0,49.785,33.336Zm7.531-8.867v2.078h1.445V28.2H57.316v4.219a1.007,1.007,0,0,0,.18.672.9.9,0,0,0,.688.2,3.6,3.6,0,0,0,.664-.055v1.711a4.648,4.648,0,0,1-1.367.2,2.156,2.156,0,0,1-2.422-2.4V28.2H53.824V26.547h1.234V24.469ZM62.4,35H60.137V26.547H62.4ZM60,24.359a1.112,1.112,0,0,1,.34-.836,1.465,1.465,0,0,1,1.848,0,1.193,1.193,0,0,1,0,1.68,1.448,1.448,0,0,1-1.836,0A1.108,1.108,0,0,1,60,24.359Zm7.422,7.883,1.57-5.7h2.359L68.5,35H66.348L63.5,26.547h2.359ZM74.73,35H72.465V26.547H74.73Zm-2.4-10.641a1.112,1.112,0,0,1,.34-.836,1.465,1.465,0,0,1,1.848,0,1.193,1.193,0,0,1,0,1.68,1.448,1.448,0,0,1-1.836,0A1.108,1.108,0,0,1,72.332,24.359Zm3.906,6.352a5.094,5.094,0,0,1,.887-3.148,2.877,2.877,0,0,1,2.426-1.172,2.589,2.589,0,0,1,2.039.922V23h2.266V35H81.816l-.109-.9a2.657,2.657,0,0,1-2.172,1.055,2.869,2.869,0,0,1-2.395-1.176A5.258,5.258,0,0,1,76.238,30.711Zm2.258.168A3.337,3.337,0,0,0,78.91,32.7a1.349,1.349,0,0,0,1.2.634,1.511,1.511,0,0,0,1.477-.884V29.111a1.489,1.489,0,0,0-1.461-.884Q78.5,28.227,78.5,30.879ZM90.5,35a2.507,2.507,0,0,1-.227-.758,2.732,2.732,0,0,1-2.133.914,3,3,0,0,1-2.059-.719,2.312,2.312,0,0,1-.816-1.812,2.389,2.389,0,0,1,1-2.062,4.915,4.915,0,0,1,2.879-.727h1.039v-.484a1.393,1.393,0,0,0-.3-.937,1.183,1.183,0,0,0-.949-.352,1.345,1.345,0,0,0-.895.273.929.929,0,0,0-.324.75H85.457a2.268,2.268,0,0,1,.453-1.359,3,3,0,0,1,1.281-.98,4.669,4.669,0,0,1,1.859-.355,3.689,3.689,0,0,1,2.48.785,2.747,2.747,0,0,1,.918,2.207v3.664a4.041,4.041,0,0,0,.336,1.82V35Zm-1.867-1.57a1.945,1.945,0,0,0,.922-.223,1.462,1.462,0,0,0,.625-.6V31.156H89.34q-1.7,0-1.8,1.172l-.008.133a.9.9,0,0,0,.3.7A1.153,1.153,0,0,0,88.637,33.43Zm5.2-2.719a5.094,5.094,0,0,1,.887-3.148,2.877,2.877,0,0,1,2.426-1.172,2.589,2.589,0,0,1,2.039.922V23h2.266V35H99.41l-.109-.9a2.657,2.657,0,0,1-2.172,1.055,2.869,2.869,0,0,1-2.395-1.176A5.258,5.258,0,0,1,93.832,30.711Zm2.258.168A3.337,3.337,0,0,0,96.5,32.7a1.349,1.349,0,0,0,1.2.634,1.511,1.511,0,0,0,1.477-.884V29.111a1.489,1.489,0,0,0-1.461-.884Q96.09,28.227,96.09,30.879Zm11,4.277a4.15,4.15,0,0,1-3.027-1.141,4.054,4.054,0,0,1-1.168-3.039v-.219a5.106,5.106,0,0,1,.492-2.277,3.612,3.612,0,0,1,1.395-1.547,3.914,3.914,0,0,1,2.059-.543,3.508,3.508,0,0,1,2.73,1.094,4.444,4.444,0,0,1,1,3.1v.922h-5.383a2.1,2.1,0,0,0,.66,1.328,2,2,0,0,0,1.395.5,2.437,2.437,0,0,0,2.039-.945l1.109,1.242a3.389,3.389,0,0,1-1.375,1.121A4.511,4.511,0,0,1,107.09,35.156Zm-.258-6.945a1.411,1.411,0,0,0-1.09.455,2.357,2.357,0,0,0-.535,1.3h3.141v-.181a1.681,1.681,0,0,0-.406-1.165A1.456,1.456,0,0,0,106.832,28.211Zm9.594,4.453a.727.727,0,0,0-.41-.652,4.659,4.659,0,0,0-1.316-.426q-3.016-.633-3.016-2.562a2.323,2.323,0,0,1,.934-1.879,3.766,3.766,0,0,1,2.441-.754,4.053,4.053,0,0,1,2.574.758,2.388,2.388,0,0,1,.965,1.969H116.34a1.092,1.092,0,0,0-.312-.8,1.322,1.322,0,0,0-.977-.316,1.351,1.351,0,0,0-.883.258.814.814,0,0,0-.312.656.7.7,0,0,0,.355.605,3.657,3.657,0,0,0,1.2.4,9.8,9.8,0,0,1,1.422.379,2.336,2.336,0,0,1,1.789,2.273,2.2,2.2,0,0,1-.992,1.871,4.28,4.28,0,0,1-2.562.715,4.47,4.47,0,0,1-1.887-.379,3.166,3.166,0,0,1-1.293-1.039,2.414,2.414,0,0,1-.469-1.426h2.141a1.179,1.179,0,0,0,.445.922,1.766,1.766,0,0,0,1.109.32,1.635,1.635,0,0,0,.98-.246A.766.766,0,0,0,116.426,32.664Z" transform="translate(306 24115.023)" fill="#12263f"/>
    <path id="Path_609514" data-name="Path 609514" d="M30.939,10.992V15H28.595V3.625h4.438a5.134,5.134,0,0,1,2.254.469,3.454,3.454,0,0,1,1.5,1.332,3.714,3.714,0,0,1,.523,1.965,3.266,3.266,0,0,1-1.145,2.637,4.767,4.767,0,0,1-3.168.965Zm0-1.9h2.094a2.059,2.059,0,0,0,1.418-.437,1.591,1.591,0,0,0,.488-1.25,1.876,1.876,0,0,0-.492-1.352,1.839,1.839,0,0,0-1.359-.531H30.939ZM41.15,15H38.884V3H41.15Zm6.758,0a2.507,2.507,0,0,1-.227-.758,2.732,2.732,0,0,1-2.133.914,3,3,0,0,1-2.059-.719,2.312,2.312,0,0,1-.816-1.812,2.389,2.389,0,0,1,1-2.062,4.915,4.915,0,0,1,2.879-.727h1.039V9.352a1.393,1.393,0,0,0-.3-.937,1.183,1.183,0,0,0-.949-.352,1.345,1.345,0,0,0-.895.273.929.929,0,0,0-.324.75H42.861a2.268,2.268,0,0,1,.453-1.359,3,3,0,0,1,1.281-.98,4.669,4.669,0,0,1,1.859-.355,3.689,3.689,0,0,1,2.48.785,2.747,2.747,0,0,1,.918,2.207v3.664a4.041,4.041,0,0,0,.336,1.82V15ZM46.04,13.43a1.945,1.945,0,0,0,.922-.223,1.462,1.462,0,0,0,.625-.6V11.156h-.844q-1.7,0-1.8,1.172l-.008.133a.9.9,0,0,0,.3.7A1.153,1.153,0,0,0,46.04,13.43Zm7.625-6.883.07.977a2.951,2.951,0,0,1,2.43-1.133,2.453,2.453,0,0,1,2,.789,3.682,3.682,0,0,1,.672,2.359V15H56.579V9.594a1.465,1.465,0,0,0-.312-1.043,1.4,1.4,0,0,0-1.039-.324,1.553,1.553,0,0,0-1.43.813V15H51.54V6.547ZM62.931,15H60.665V6.547h2.266Zm-2.4-10.641a1.112,1.112,0,0,1,.34-.836,1.465,1.465,0,0,1,1.848,0,1.105,1.105,0,0,1,.344.836,1.108,1.108,0,0,1-.348.844,1.448,1.448,0,0,1-1.836,0A1.108,1.108,0,0,1,60.532,4.359ZM65.337,15V8.2H64.079V6.547h1.258V6.156a3.17,3.17,0,0,1,.98-2.457,3.945,3.945,0,0,1,2.723-.863A9.031,9.031,0,0,1,71.6,3.3l-.328,1.867a10,10,0,0,0-1.187-.293,5.835,5.835,0,0,0-.906-.066Q67.6,4.8,67.6,6.2v.344h1.664V8.2H67.6V15Zm7.32,0H70.392V6.547h2.266Zm5.383-1.664a1.481,1.481,0,0,0,1.016-.344,1.2,1.2,0,0,0,.406-.914h2.117a2.9,2.9,0,0,1-.469,1.574,3.093,3.093,0,0,1-1.262,1.109,3.949,3.949,0,0,1-1.77.395A3.67,3.67,0,0,1,75.22,14a4.56,4.56,0,0,1-1.047-3.184v-.148a4.508,4.508,0,0,1,1.039-3.117,3.627,3.627,0,0,1,2.852-1.164,3.555,3.555,0,0,1,2.543.9,3.2,3.2,0,0,1,.973,2.4H79.462a1.551,1.551,0,0,0-.406-1.072,1.51,1.51,0,0,0-2.223.163,3.333,3.333,0,0,0-.4,1.866v.235a3.375,3.375,0,0,0,.4,1.878A1.377,1.377,0,0,0,78.04,13.336ZM87.767,15a2.507,2.507,0,0,1-.227-.758,2.732,2.732,0,0,1-2.133.914,3,3,0,0,1-2.059-.719,2.312,2.312,0,0,1-.816-1.812,2.389,2.389,0,0,1,1-2.062,4.915,4.915,0,0,1,2.879-.727h1.039V9.352a1.393,1.393,0,0,0-.3-.937,1.183,1.183,0,0,0-.949-.352,1.345,1.345,0,0,0-.895.273.929.929,0,0,0-.324.75H82.72a2.268,2.268,0,0,1,.453-1.359,3,3,0,0,1,1.281-.98,4.669,4.669,0,0,1,1.859-.355,3.689,3.689,0,0,1,2.48.785,2.747,2.747,0,0,1,.918,2.207v3.664a4.041,4.041,0,0,0,.336,1.82V15ZM85.9,13.43a1.945,1.945,0,0,0,.922-.223,1.462,1.462,0,0,0,.625-.6V11.156H86.6q-1.7,0-1.8,1.172l-.008.133a.9.9,0,0,0,.3.7A1.153,1.153,0,0,0,85.9,13.43ZM96.2,8.664a6.134,6.134,0,0,0-.812-.062,1.654,1.654,0,0,0-1.68.867V15H91.447V6.547h2.133l.063,1.008a2.092,2.092,0,0,1,1.883-1.164,2.366,2.366,0,0,1,.7.1Zm9.648,4a.727.727,0,0,0-.41-.652,4.659,4.659,0,0,0-1.316-.426q-3.016-.633-3.016-2.562a2.323,2.323,0,0,1,.934-1.879,3.766,3.766,0,0,1,2.441-.754,4.053,4.053,0,0,1,2.574.758,2.388,2.388,0,0,1,.965,1.969h-2.258a1.092,1.092,0,0,0-.312-.8A1.322,1.322,0,0,0,104.47,8a1.351,1.351,0,0,0-.883.258.814.814,0,0,0-.312.656.7.7,0,0,0,.355.605,3.657,3.657,0,0,0,1.2.4,9.8,9.8,0,0,1,1.422.379,2.336,2.336,0,0,1,1.789,2.273,2.2,2.2,0,0,1-.992,1.871,4.28,4.28,0,0,1-2.562.715,4.47,4.47,0,0,1-1.887-.379,3.166,3.166,0,0,1-1.293-1.039,2.414,2.414,0,0,1-.469-1.426h2.141a1.179,1.179,0,0,0,.445.922,1.766,1.766,0,0,0,1.109.32,1.635,1.635,0,0,0,.98-.246A.766.766,0,0,0,105.845,12.664Zm8.711,1.477a2.831,2.831,0,0,1-2.312,1.016,2.67,2.67,0,0,1-2.074-.781,3.335,3.335,0,0,1-.73-2.289V6.547H111.7v5.467q0,1.322,1.2,1.322a1.63,1.63,0,0,0,1.578-.8V6.547h2.266V15h-2.125ZM42.665,35.156a4.15,4.15,0,0,1-3.027-1.141,4.054,4.054,0,0,1-1.168-3.039v-.219a5.106,5.106,0,0,1,.492-2.277,3.612,3.612,0,0,1,1.395-1.547,3.914,3.914,0,0,1,2.059-.543,3.508,3.508,0,0,1,2.73,1.094,4.444,4.444,0,0,1,1,3.1v.922H40.759a2.1,2.1,0,0,0,.66,1.328,2,2,0,0,0,1.395.5,2.437,2.437,0,0,0,2.039-.945l1.109,1.242a3.389,3.389,0,0,1-1.375,1.121A4.511,4.511,0,0,1,42.665,35.156Zm-.258-6.945a1.411,1.411,0,0,0-1.09.455,2.357,2.357,0,0,0-.535,1.3h3.141v-.181a1.681,1.681,0,0,0-.406-1.165A1.456,1.456,0,0,0,42.407,28.211Zm7.406-1.664v8.914a3.024,3.024,0,0,1-.742,2.176,2.821,2.821,0,0,1-2.141.777,4.591,4.591,0,0,1-1.117-.133V36.492a4.238,4.238,0,0,0,.711.07q1.023,0,1.023-1.086v-8.93Zm-2.445-2.187a1.112,1.112,0,0,1,.34-.836,1.47,1.47,0,0,1,1.852,0,1.2,1.2,0,0,1-.008,1.68,1.448,1.448,0,0,1-1.836,0A1.108,1.108,0,0,1,47.368,24.359Zm8.1,10.8a4.15,4.15,0,0,1-3.027-1.141,4.054,4.054,0,0,1-1.168-3.039v-.219a5.106,5.106,0,0,1,.492-2.277,3.612,3.612,0,0,1,1.395-1.547,3.914,3.914,0,0,1,2.059-.543,3.508,3.508,0,0,1,2.73,1.094,4.444,4.444,0,0,1,1,3.1v.922H53.564a2.1,2.1,0,0,0,.66,1.328,2,2,0,0,0,1.395.5,2.437,2.437,0,0,0,2.039-.945l1.109,1.242a3.389,3.389,0,0,1-1.375,1.121A4.511,4.511,0,0,1,55.47,35.156Zm-.258-6.945a1.411,1.411,0,0,0-1.09.455,2.357,2.357,0,0,0-.535,1.3h3.141v-.181a1.681,1.681,0,0,0-.406-1.165A1.456,1.456,0,0,0,55.212,28.211Zm8.531,5.125a1.481,1.481,0,0,0,1.016-.344,1.2,1.2,0,0,0,.406-.914h2.117a2.9,2.9,0,0,1-.469,1.574,3.093,3.093,0,0,1-1.262,1.109,3.949,3.949,0,0,1-1.77.395A3.67,3.67,0,0,1,60.923,34a4.56,4.56,0,0,1-1.047-3.184v-.148a4.508,4.508,0,0,1,1.039-3.117,3.627,3.627,0,0,1,2.852-1.164,3.555,3.555,0,0,1,2.543.9,3.2,3.2,0,0,1,.973,2.4H65.165a1.551,1.551,0,0,0-.406-1.072,1.51,1.51,0,0,0-2.223.163,3.333,3.333,0,0,0-.4,1.866v.235a3.375,3.375,0,0,0,.4,1.878A1.377,1.377,0,0,0,63.743,33.336Zm9.891.8a2.831,2.831,0,0,1-2.312,1.016,2.67,2.67,0,0,1-2.074-.781,3.335,3.335,0,0,1-.73-2.289V26.547h2.258v5.467q0,1.322,1.2,1.322a1.63,1.63,0,0,0,1.578-.8V26.547h2.266V35H73.7Zm7.406-.8a1.481,1.481,0,0,0,1.016-.344,1.2,1.2,0,0,0,.406-.914h2.117a2.9,2.9,0,0,1-.469,1.574,3.093,3.093,0,0,1-1.262,1.109,3.949,3.949,0,0,1-1.77.395A3.67,3.67,0,0,1,78.22,34a4.56,4.56,0,0,1-1.047-3.184v-.148a4.508,4.508,0,0,1,1.039-3.117,3.627,3.627,0,0,1,2.852-1.164,3.555,3.555,0,0,1,2.543.9,3.2,3.2,0,0,1,.973,2.4H82.462a1.551,1.551,0,0,0-.406-1.072,1.51,1.51,0,0,0-2.223.163,3.333,3.333,0,0,0-.4,1.866v.235a3.375,3.375,0,0,0,.4,1.878A1.377,1.377,0,0,0,81.04,33.336ZM88.251,35H85.986V26.547h2.266Zm-2.4-10.641a1.112,1.112,0,0,1,.34-.836,1.465,1.465,0,0,1,1.848,0,1.193,1.193,0,0,1,0,1.68,1.448,1.448,0,0,1-1.836,0A1.108,1.108,0,0,1,85.853,24.359ZM89.759,30.7a5.013,5.013,0,0,1,.484-2.242,3.546,3.546,0,0,1,1.395-1.523,4.069,4.069,0,0,1,2.113-.539,3.849,3.849,0,0,1,2.793,1.047,4.2,4.2,0,0,1,1.207,2.844l.016.578a4.418,4.418,0,0,1-1.086,3.121,4.209,4.209,0,0,1-5.832,0,4.5,4.5,0,0,1-1.09-3.187Zm2.258.16A3.16,3.16,0,0,0,92.47,32.7a1.628,1.628,0,0,0,2.578.008,3.457,3.457,0,0,0,.461-2.015,3.128,3.128,0,0,0-.461-1.831,1.5,1.5,0,0,0-1.3-.649,1.474,1.474,0,0,0-1.281.646A3.516,3.516,0,0,0,92.017,30.856ZM94.2,23h2.461l-2.164,2.422H92.657Zm7.039,3.547.07.977a2.951,2.951,0,0,1,2.43-1.133,2.453,2.453,0,0,1,2,.789,3.682,3.682,0,0,1,.672,2.359V35H104.15V29.594a1.465,1.465,0,0,0-.312-1.043,1.4,1.4,0,0,0-1.039-.324,1.553,1.553,0,0,0-1.43.813V35H99.111V26.547Z" transform="translate(511 24115.023)" fill="#12263f"/>
    <path id="Path_609515" data-name="Path 609515" d="M64.973,9.57a6.867,6.867,0,0,1-.594,2.945,4.472,4.472,0,0,1-1.7,1.953,5.021,5.021,0,0,1-5.059.008A4.515,4.515,0,0,1,55.9,12.535a6.67,6.67,0,0,1-.617-2.9V9.07a6.831,6.831,0,0,1,.605-2.957A4.508,4.508,0,0,1,57.6,4.152a5.014,5.014,0,0,1,5.055,0,4.508,4.508,0,0,1,1.711,1.961,6.811,6.811,0,0,1,.605,2.949ZM62.6,9.055a4.787,4.787,0,0,0-.641-2.719,2.263,2.263,0,0,0-3.648-.012,4.732,4.732,0,0,0-.648,2.691V9.57a4.847,4.847,0,0,0,.641,2.7,2.243,2.243,0,0,0,3.656.035,4.819,4.819,0,0,0,.641-2.7Zm8.68-.391a6.134,6.134,0,0,0-.812-.062,1.654,1.654,0,0,0-1.68.867V15H66.527V6.547H68.66l.063,1.008a2.092,2.092,0,0,1,1.883-1.164,2.366,2.366,0,0,1,.7.1Zm.586,2.047a5.094,5.094,0,0,1,.887-3.148,2.877,2.877,0,0,1,2.426-1.172,2.589,2.589,0,0,1,2.039.922V3H79.48V15H77.441l-.109-.9a2.657,2.657,0,0,1-2.172,1.055,2.869,2.869,0,0,1-2.395-1.176A5.258,5.258,0,0,1,71.863,10.711Zm2.258.168a3.337,3.337,0,0,0,.414,1.823,1.349,1.349,0,0,0,1.2.634,1.511,1.511,0,0,0,1.477-.884V9.111a1.489,1.489,0,0,0-1.461-.884Q74.121,8.227,74.121,10.879Zm11,4.277a4.15,4.15,0,0,1-3.027-1.141,4.054,4.054,0,0,1-1.168-3.039v-.219a5.106,5.106,0,0,1,.492-2.277,3.612,3.612,0,0,1,1.395-1.547,3.914,3.914,0,0,1,2.059-.543A3.508,3.508,0,0,1,87.6,7.484a4.444,4.444,0,0,1,1,3.1v.922H83.215a2.1,2.1,0,0,0,.66,1.328,2,2,0,0,0,1.395.5,2.437,2.437,0,0,0,2.039-.945l1.109,1.242a3.389,3.389,0,0,1-1.375,1.121A4.511,4.511,0,0,1,85.121,15.156Zm-.258-6.945a1.411,1.411,0,0,0-1.09.455,2.357,2.357,0,0,0-.535,1.3h3.141V9.788a1.681,1.681,0,0,0-.406-1.165A1.456,1.456,0,0,0,84.863,8.211Zm7.094-1.664.07.977a2.951,2.951,0,0,1,2.43-1.133,2.453,2.453,0,0,1,2,.789,3.682,3.682,0,0,1,.672,2.359V15H94.871V9.594a1.465,1.465,0,0,0-.312-1.043,1.4,1.4,0,0,0-1.039-.324,1.553,1.553,0,0,0-1.43.813V15H89.832V6.547ZM103.738,15a2.507,2.507,0,0,1-.227-.758,2.732,2.732,0,0,1-2.133.914,3,3,0,0,1-2.059-.719,2.312,2.312,0,0,1-.816-1.812,2.389,2.389,0,0,1,1-2.062,4.915,4.915,0,0,1,2.879-.727h1.039V9.352a1.393,1.393,0,0,0-.3-.937,1.183,1.183,0,0,0-.949-.352,1.345,1.345,0,0,0-.895.273.929.929,0,0,0-.324.75H98.691a2.268,2.268,0,0,1,.453-1.359,3,3,0,0,1,1.281-.98,4.669,4.669,0,0,1,1.859-.355,3.689,3.689,0,0,1,2.48.785,2.747,2.747,0,0,1,.918,2.207v3.664a4.041,4.041,0,0,0,.336,1.82V15Zm-1.867-1.57a1.945,1.945,0,0,0,.922-.223,1.462,1.462,0,0,0,.625-.6V11.156h-.844q-1.7,0-1.8,1.172l-.008.133a.9.9,0,0,0,.3.7A1.153,1.153,0,0,0,101.871,13.43Zm10.3-4.766a6.134,6.134,0,0,0-.812-.062,1.654,1.654,0,0,0-1.68.867V15h-2.258V6.547h2.133l.063,1.008A2.092,2.092,0,0,1,111.5,6.391a2.366,2.366,0,0,1,.7.1Z" transform="translate(714 24125.023)" fill="#12263f"/>
    <path id="Path_609516" data-name="Path 609516" d="M6.148,10.836H4.281V15H1.938V3.625H6.164a4.778,4.778,0,0,1,3.109.9,3.1,3.1,0,0,1,1.094,2.539A3.5,3.5,0,0,1,9.863,9a3.437,3.437,0,0,1-1.527,1.238L10.8,14.891V15H8.281Zm-1.867-1.9H6.172a1.936,1.936,0,0,0,1.367-.449A1.606,1.606,0,0,0,8.023,7.25a1.719,1.719,0,0,0-.457-1.266,1.9,1.9,0,0,0-1.4-.461H4.281Zm11.609,6.219a4.15,4.15,0,0,1-3.027-1.141A4.054,4.054,0,0,1,11.7,10.977v-.219a5.106,5.106,0,0,1,.492-2.277,3.612,3.612,0,0,1,1.395-1.547,3.914,3.914,0,0,1,2.059-.543,3.508,3.508,0,0,1,2.73,1.094,4.444,4.444,0,0,1,1,3.1v.922H13.984a2.1,2.1,0,0,0,.66,1.328,2,2,0,0,0,1.395.5,2.437,2.437,0,0,0,2.039-.945l1.109,1.242a3.389,3.389,0,0,1-1.375,1.121A4.511,4.511,0,0,1,15.891,15.156Zm-.258-6.945a1.411,1.411,0,0,0-1.09.455,2.357,2.357,0,0,0-.535,1.3h3.141V9.788a1.681,1.681,0,0,0-.406-1.165A1.456,1.456,0,0,0,15.633,8.211ZM25.547,15a2.507,2.507,0,0,1-.227-.758,2.732,2.732,0,0,1-2.133.914,3,3,0,0,1-2.059-.719,2.312,2.312,0,0,1-.816-1.812,2.389,2.389,0,0,1,1-2.062,4.915,4.915,0,0,1,2.879-.727h1.039V9.352a1.393,1.393,0,0,0-.3-.937,1.183,1.183,0,0,0-.949-.352,1.345,1.345,0,0,0-.895.273.929.929,0,0,0-.324.75H20.5a2.268,2.268,0,0,1,.453-1.359,3,3,0,0,1,1.281-.98,4.669,4.669,0,0,1,1.859-.355,3.689,3.689,0,0,1,2.48.785,2.747,2.747,0,0,1,.918,2.207v3.664a4.041,4.041,0,0,0,.336,1.82V15ZM23.68,13.43a1.945,1.945,0,0,0,.922-.223,1.462,1.462,0,0,0,.625-.6V11.156h-.844q-1.7,0-1.8,1.172l-.008.133a.9.9,0,0,0,.3.7A1.153,1.153,0,0,0,23.68,13.43ZM31.609,15H29.344V3h2.266Zm4.242,0H33.586V6.547h2.266Zm-2.4-10.641a1.112,1.112,0,0,1,.34-.836,1.465,1.465,0,0,1,1.848,0,1.105,1.105,0,0,1,.344.836,1.108,1.108,0,0,1-.348.844,1.448,1.448,0,0,1-1.836,0A1.108,1.108,0,0,1,33.453,4.359ZM40.3,13.18h4.133V15H37.422V13.625L41.4,8.367H37.539V6.547h6.773v1.33ZM50.75,15a2.507,2.507,0,0,1-.227-.758,2.732,2.732,0,0,1-2.133.914,3,3,0,0,1-2.059-.719,2.312,2.312,0,0,1-.816-1.812,2.389,2.389,0,0,1,1-2.062,4.915,4.915,0,0,1,2.879-.727H50.43V9.352a1.393,1.393,0,0,0-.3-.937,1.183,1.183,0,0,0-.949-.352,1.345,1.345,0,0,0-.895.273.929.929,0,0,0-.324.75H45.7a2.268,2.268,0,0,1,.453-1.359,3,3,0,0,1,1.281-.98A4.669,4.669,0,0,1,49.3,6.391a3.689,3.689,0,0,1,2.48.785A2.747,2.747,0,0,1,52.7,9.383v3.664a4.041,4.041,0,0,0,.336,1.82V15Zm-1.867-1.57a1.945,1.945,0,0,0,.922-.223,1.462,1.462,0,0,0,.625-.6V11.156h-.844q-1.7,0-1.8,1.172l-.008.133a.9.9,0,0,0,.3.7A1.153,1.153,0,0,0,48.883,13.43Zm10.3-4.766a6.134,6.134,0,0,0-.812-.062,1.654,1.654,0,0,0-1.68.867V15H54.43V6.547h2.133l.063,1.008a2.092,2.092,0,0,1,1.883-1.164,2.366,2.366,0,0,1,.7.1Zm8.586,4.672a1.481,1.481,0,0,0,1.016-.344,1.2,1.2,0,0,0,.406-.914H71.3a2.9,2.9,0,0,1-.469,1.574,3.093,3.093,0,0,1-1.262,1.109,3.949,3.949,0,0,1-1.77.395A3.67,3.67,0,0,1,64.945,14,4.56,4.56,0,0,1,63.9,10.82v-.148a4.508,4.508,0,0,1,1.039-3.117,3.627,3.627,0,0,1,2.852-1.164,3.555,3.555,0,0,1,2.543.9A3.2,3.2,0,0,1,71.3,9.7H69.188a1.551,1.551,0,0,0-.406-1.072,1.51,1.51,0,0,0-2.223.163,3.333,3.333,0,0,0-.4,1.866v.235a3.375,3.375,0,0,0,.4,1.878A1.377,1.377,0,0,0,67.766,13.336Zm9.578-4.672a6.134,6.134,0,0,0-.812-.062,1.654,1.654,0,0,0-1.68.867V15H72.594V6.547h2.133l.063,1.008a2.092,2.092,0,0,1,1.883-1.164,2.366,2.366,0,0,1,.7.1ZM77.8,10.7a5.013,5.013,0,0,1,.484-2.242A3.546,3.546,0,0,1,79.676,6.93a4.069,4.069,0,0,1,2.113-.539,3.849,3.849,0,0,1,2.793,1.047,4.2,4.2,0,0,1,1.207,2.844l.016.578a4.418,4.418,0,0,1-1.086,3.121,4.209,4.209,0,0,1-5.832,0A4.5,4.5,0,0,1,77.8,10.8Zm2.258.16a3.16,3.16,0,0,0,.453,1.843,1.628,1.628,0,0,0,2.578.008,3.457,3.457,0,0,0,.461-2.015,3.128,3.128,0,0,0-.461-1.831,1.5,1.5,0,0,0-1.3-.649,1.474,1.474,0,0,0-1.281.646A3.516,3.516,0,0,0,80.055,10.856Zm9.219-4.309.07.977a2.951,2.951,0,0,1,2.43-1.133,2.453,2.453,0,0,1,2,.789,3.682,3.682,0,0,1,.672,2.359V15H92.188V9.594a1.465,1.465,0,0,0-.312-1.043,1.4,1.4,0,0,0-1.039-.324,1.553,1.553,0,0,0-1.43.813V15H87.148V6.547ZM95.8,10.7a5.013,5.013,0,0,1,.484-2.242A3.546,3.546,0,0,1,97.684,6.93,4.069,4.069,0,0,1,99.8,6.391a3.849,3.849,0,0,1,2.793,1.047,4.2,4.2,0,0,1,1.207,2.844l.016.578a4.418,4.418,0,0,1-1.086,3.121,4.209,4.209,0,0,1-5.832,0A4.5,4.5,0,0,1,95.8,10.8Zm2.258.16a3.16,3.16,0,0,0,.453,1.843,1.628,1.628,0,0,0,2.578.008,3.457,3.457,0,0,0,.461-2.015,3.128,3.128,0,0,0-.461-1.831,1.5,1.5,0,0,0-1.3-.649,1.474,1.474,0,0,0-1.281.646A3.516,3.516,0,0,0,98.063,10.856Zm6.813-.145a4.954,4.954,0,0,1,.926-3.133,3,3,0,0,1,2.5-1.187,2.631,2.631,0,0,1,2.164.953l.094-.8H112.6v8.172a3.613,3.613,0,0,1-.5,1.93,3.236,3.236,0,0,1-1.418,1.25,4.985,4.985,0,0,1-2.141.43,4.635,4.635,0,0,1-1.812-.371A3.217,3.217,0,0,1,105.391,17l1-1.375a2.645,2.645,0,0,0,2.047.945,1.936,1.936,0,0,0,1.4-.48,1.8,1.8,0,0,0,.5-1.363v-.453a2.612,2.612,0,0,1-2.055.883,2.992,2.992,0,0,1-2.465-1.191,4.953,4.953,0,0,1-.941-3.16Zm2.258.168a3.085,3.085,0,0,0,.461,1.8,1.466,1.466,0,0,0,1.266.653,1.568,1.568,0,0,0,1.477-.775V9a1.564,1.564,0,0,0-1.461-.775,1.476,1.476,0,0,0-1.277.665A3.477,3.477,0,0,0,107.133,10.879Zm11.953-2.215a6.134,6.134,0,0,0-.812-.062,1.654,1.654,0,0,0-1.68.867V15h-2.258V6.547h2.133l.063,1.008a2.092,2.092,0,0,1,1.883-1.164,2.366,2.366,0,0,1,.7.1ZM124.836,15a2.507,2.507,0,0,1-.227-.758,2.732,2.732,0,0,1-2.133.914,3,3,0,0,1-2.059-.719,2.312,2.312,0,0,1-.816-1.812,2.389,2.389,0,0,1,1-2.062,4.915,4.915,0,0,1,2.879-.727h1.039V9.352a1.393,1.393,0,0,0-.3-.937,1.183,1.183,0,0,0-.949-.352,1.345,1.345,0,0,0-.895.273.929.929,0,0,0-.324.75h-2.258a2.268,2.268,0,0,1,.453-1.359,3,3,0,0,1,1.281-.98,4.669,4.669,0,0,1,1.859-.355,3.689,3.689,0,0,1,2.48.785,2.747,2.747,0,0,1,.918,2.207v3.664a4.041,4.041,0,0,0,.336,1.82V15Zm-1.867-1.57a1.945,1.945,0,0,0,.922-.223,1.462,1.462,0,0,0,.625-.6V11.156h-.844q-1.7,0-1.8,1.172l-.008.133a.9.9,0,0,0,.3.7A1.153,1.153,0,0,0,122.969,13.43Zm7.664-6.883.07.945a2.971,2.971,0,0,1,2.43-1.1,2.255,2.255,0,0,1,2.242,1.289,2.9,2.9,0,0,1,2.539-1.289,2.521,2.521,0,0,1,2.047.8,3.681,3.681,0,0,1,.672,2.41V15h-2.266V9.609a1.61,1.61,0,0,0-.281-1.051,1.246,1.246,0,0,0-.992-.332,1.409,1.409,0,0,0-1.406.969L135.7,15h-2.258V9.617a1.59,1.59,0,0,0-.289-1.062,1.259,1.259,0,0,0-.984-.328,1.463,1.463,0,0,0-1.391.8V15h-2.258V6.547ZM147.266,15a2.507,2.507,0,0,1-.227-.758,2.732,2.732,0,0,1-2.133.914,3,3,0,0,1-2.059-.719,2.312,2.312,0,0,1-.816-1.812,2.389,2.389,0,0,1,1-2.062,4.915,4.915,0,0,1,2.879-.727h1.039V9.352a1.393,1.393,0,0,0-.3-.937,1.183,1.183,0,0,0-.949-.352,1.345,1.345,0,0,0-.895.273.929.929,0,0,0-.324.75h-2.258a2.268,2.268,0,0,1,.453-1.359,3,3,0,0,1,1.281-.98,4.669,4.669,0,0,1,1.859-.355,3.689,3.689,0,0,1,2.48.785,2.747,2.747,0,0,1,.918,2.207v3.664a4.041,4.041,0,0,0,.336,1.82V15ZM145.4,13.43a1.945,1.945,0,0,0,.922-.223,1.462,1.462,0,0,0,.625-.6V11.156H146.1q-1.7,0-1.8,1.172l-.008.133a.9.9,0,0,0,.3.7A1.153,1.153,0,0,0,145.4,13.43ZM24,30.711a5.094,5.094,0,0,1,.887-3.148,2.877,2.877,0,0,1,2.426-1.172,2.589,2.589,0,0,1,2.039.922V23h2.266V35H29.578l-.109-.9A2.657,2.657,0,0,1,27.3,35.156,2.869,2.869,0,0,1,24.9,33.98,5.258,5.258,0,0,1,24,30.711Zm2.258.168a3.337,3.337,0,0,0,.414,1.823,1.349,1.349,0,0,0,1.2.634,1.511,1.511,0,0,0,1.477-.884V29.111a1.489,1.489,0,0,0-1.461-.884Q26.258,28.227,26.258,30.879Zm11,4.277a4.15,4.15,0,0,1-3.027-1.141,4.054,4.054,0,0,1-1.168-3.039v-.219a5.106,5.106,0,0,1,.492-2.277,3.612,3.612,0,0,1,1.395-1.547,3.914,3.914,0,0,1,2.059-.543,3.508,3.508,0,0,1,2.73,1.094,4.444,4.444,0,0,1,1,3.1v.922H35.352a2.1,2.1,0,0,0,.66,1.328,2,2,0,0,0,1.395.5,2.437,2.437,0,0,0,2.039-.945l1.109,1.242a3.389,3.389,0,0,1-1.375,1.121A4.511,4.511,0,0,1,37.258,35.156ZM37,28.211a1.411,1.411,0,0,0-1.09.455,2.357,2.357,0,0,0-.535,1.3h3.141v-.181a1.681,1.681,0,0,0-.406-1.165A1.456,1.456,0,0,0,37,28.211ZM50.9,35a2.507,2.507,0,0,1-.227-.758,2.732,2.732,0,0,1-2.133.914,3,3,0,0,1-2.059-.719,2.312,2.312,0,0,1-.816-1.812,2.389,2.389,0,0,1,1-2.062,4.915,4.915,0,0,1,2.879-.727h1.039v-.484a1.393,1.393,0,0,0-.3-.937,1.183,1.183,0,0,0-.949-.352,1.345,1.345,0,0,0-.895.273.929.929,0,0,0-.324.75H45.852a2.268,2.268,0,0,1,.453-1.359,3,3,0,0,1,1.281-.98,4.669,4.669,0,0,1,1.859-.355,3.689,3.689,0,0,1,2.48.785,2.747,2.747,0,0,1,.918,2.207v3.664a4.041,4.041,0,0,0,.336,1.82V35Zm-1.867-1.57a1.945,1.945,0,0,0,.922-.223,1.462,1.462,0,0,0,.625-.6V31.156h-.844q-1.7,0-1.8,1.172l-.008.133a.9.9,0,0,0,.3.7A1.153,1.153,0,0,0,49.031,33.43Zm9.063-.094a1.481,1.481,0,0,0,1.016-.344,1.2,1.2,0,0,0,.406-.914h2.117a2.9,2.9,0,0,1-.469,1.574A3.093,3.093,0,0,1,59.9,34.762a3.949,3.949,0,0,1-1.77.395A3.67,3.67,0,0,1,55.273,34a4.56,4.56,0,0,1-1.047-3.184v-.148a4.508,4.508,0,0,1,1.039-3.117,3.627,3.627,0,0,1,2.852-1.164,3.555,3.555,0,0,1,2.543.9,3.2,3.2,0,0,1,.973,2.4H59.516a1.551,1.551,0,0,0-.406-1.072,1.51,1.51,0,0,0-2.223.163,3.333,3.333,0,0,0-.4,1.866v.235a3.375,3.375,0,0,0,.4,1.878A1.377,1.377,0,0,0,58.094,33.336Zm7.531-8.867v2.078H67.07V28.2H65.625v4.219a1.007,1.007,0,0,0,.18.672.9.9,0,0,0,.688.2,3.6,3.6,0,0,0,.664-.055v1.711a4.648,4.648,0,0,1-1.367.2,2.156,2.156,0,0,1-2.422-2.4V28.2H62.133V26.547h1.234V24.469ZM70.711,35H68.445V26.547h2.266Zm-2.4-10.641a1.112,1.112,0,0,1,.34-.836,1.465,1.465,0,0,1,1.848,0,1.193,1.193,0,0,1,0,1.68,1.448,1.448,0,0,1-1.836,0A1.108,1.108,0,0,1,68.313,24.359Zm7.422,7.883,1.57-5.7h2.359L76.813,35H74.656L71.8,26.547h2.359ZM83.039,35H80.773V26.547h2.266Zm-2.4-10.641a1.112,1.112,0,0,1,.34-.836,1.465,1.465,0,0,1,1.848,0,1.193,1.193,0,0,1,0,1.68,1.448,1.448,0,0,1-1.836,0A1.108,1.108,0,0,1,80.641,24.359Zm3.906,6.352a5.094,5.094,0,0,1,.887-3.148,2.877,2.877,0,0,1,2.426-1.172,2.589,2.589,0,0,1,2.039.922V23h2.266V35H90.125l-.109-.9a2.657,2.657,0,0,1-2.172,1.055,2.869,2.869,0,0,1-2.395-1.176A5.258,5.258,0,0,1,84.547,30.711Zm2.258.168a3.337,3.337,0,0,0,.414,1.823,1.349,1.349,0,0,0,1.2.634,1.511,1.511,0,0,0,1.477-.884V29.111a1.489,1.489,0,0,0-1.461-.884Q86.8,28.227,86.8,30.879ZM98.813,35a2.507,2.507,0,0,1-.227-.758,2.732,2.732,0,0,1-2.133.914,3,3,0,0,1-2.059-.719,2.312,2.312,0,0,1-.816-1.812,2.389,2.389,0,0,1,1-2.062,4.915,4.915,0,0,1,2.879-.727h1.039v-.484a1.393,1.393,0,0,0-.3-.937,1.183,1.183,0,0,0-.949-.352,1.345,1.345,0,0,0-.895.273.929.929,0,0,0-.324.75H93.766a2.268,2.268,0,0,1,.453-1.359,3,3,0,0,1,1.281-.98,4.669,4.669,0,0,1,1.859-.355,3.689,3.689,0,0,1,2.48.785,2.747,2.747,0,0,1,.918,2.207v3.664a4.041,4.041,0,0,0,.336,1.82V35Zm-1.867-1.57a1.945,1.945,0,0,0,.922-.223,1.462,1.462,0,0,0,.625-.6V31.156h-.844q-1.7,0-1.8,1.172l-.008.133a.9.9,0,0,0,.3.7A1.153,1.153,0,0,0,96.945,33.43Zm5.2-2.719a5.094,5.094,0,0,1,.887-3.148,2.877,2.877,0,0,1,2.426-1.172,2.589,2.589,0,0,1,2.039.922V23h2.266V35h-2.039l-.109-.9a2.657,2.657,0,0,1-2.172,1.055,2.869,2.869,0,0,1-2.395-1.176A5.258,5.258,0,0,1,102.141,30.711Zm2.258.168a3.337,3.337,0,0,0,.414,1.823,1.349,1.349,0,0,0,1.2.634,1.511,1.511,0,0,0,1.477-.884V29.111a1.489,1.489,0,0,0-1.461-.884Q104.4,28.227,104.4,30.879Zm11,4.277a4.15,4.15,0,0,1-3.027-1.141,4.054,4.054,0,0,1-1.168-3.039v-.219a5.106,5.106,0,0,1,.492-2.277,3.612,3.612,0,0,1,1.395-1.547,3.914,3.914,0,0,1,2.059-.543,3.508,3.508,0,0,1,2.73,1.094,4.444,4.444,0,0,1,1,3.1v.922h-5.383a2.1,2.1,0,0,0,.66,1.328,2,2,0,0,0,1.395.5,2.437,2.437,0,0,0,2.039-.945l1.109,1.242a3.389,3.389,0,0,1-1.375,1.121A4.511,4.511,0,0,1,115.4,35.156Zm-.258-6.945a1.411,1.411,0,0,0-1.09.455,2.357,2.357,0,0,0-.535,1.3h3.141v-.181a1.681,1.681,0,0,0-.406-1.165A1.456,1.456,0,0,0,115.141,28.211Zm9.594,4.453a.727.727,0,0,0-.41-.652,4.659,4.659,0,0,0-1.316-.426q-3.016-.633-3.016-2.562a2.323,2.323,0,0,1,.934-1.879,3.766,3.766,0,0,1,2.441-.754,4.053,4.053,0,0,1,2.574.758,2.388,2.388,0,0,1,.965,1.969h-2.258a1.092,1.092,0,0,0-.312-.8,1.322,1.322,0,0,0-.977-.316,1.351,1.351,0,0,0-.883.258.814.814,0,0,0-.312.656.7.7,0,0,0,.355.605,3.657,3.657,0,0,0,1.2.4,9.8,9.8,0,0,1,1.422.379,2.336,2.336,0,0,1,1.789,2.273,2.2,2.2,0,0,1-.992,1.871,4.28,4.28,0,0,1-2.562.715,4.47,4.47,0,0,1-1.887-.379,3.166,3.166,0,0,1-1.293-1.039,2.414,2.414,0,0,1-.469-1.426h2.141a1.179,1.179,0,0,0,.445.922,1.766,1.766,0,0,0,1.109.32,1.635,1.635,0,0,0,.98-.246A.766.766,0,0,0,124.734,32.664Z" transform="translate(940 24111.422)" fill="#12263f"/>
    <path id="Path_609517" data-name="Path 609517" d="M10.75,12.656H6.641L5.859,15H3.367L7.6,3.625H9.773L14.031,15H11.539Zm-3.477-1.9h2.844L8.688,6.5Zm7.32-.047a5.094,5.094,0,0,1,.887-3.148,2.877,2.877,0,0,1,2.426-1.172,2.589,2.589,0,0,1,2.039.922V3h2.266V15H20.172l-.109-.9a2.657,2.657,0,0,1-2.172,1.055A2.869,2.869,0,0,1,15.5,13.98,5.258,5.258,0,0,1,14.594,10.711Zm2.258.168a3.337,3.337,0,0,0,.414,1.823,1.349,1.349,0,0,0,1.2.634,1.511,1.511,0,0,0,1.477-.884V9.111a1.489,1.489,0,0,0-1.461-.884Q16.852,8.227,16.852,10.879Zm9.227-4.332.07.945a2.971,2.971,0,0,1,2.43-1.1A2.255,2.255,0,0,1,30.82,7.68a2.9,2.9,0,0,1,2.539-1.289,2.521,2.521,0,0,1,2.047.8,3.681,3.681,0,0,1,.672,2.41V15H33.813V9.609a1.61,1.61,0,0,0-.281-1.051,1.246,1.246,0,0,0-.992-.332,1.409,1.409,0,0,0-1.406.969l.008,5.8H28.883V9.617a1.59,1.59,0,0,0-.289-1.062,1.259,1.259,0,0,0-.984-.328,1.463,1.463,0,0,0-1.391.8V15H23.961V6.547ZM40.2,15H37.93V6.547H40.2ZM37.8,4.359a1.112,1.112,0,0,1,.34-.836,1.465,1.465,0,0,1,1.848,0,1.105,1.105,0,0,1,.344.836,1.108,1.108,0,0,1-.348.844,1.448,1.448,0,0,1-1.836,0A1.108,1.108,0,0,1,37.8,4.359Zm6.336,2.188.07.977a2.951,2.951,0,0,1,2.43-1.133,2.453,2.453,0,0,1,2,.789A3.682,3.682,0,0,1,49.3,9.539V15H47.047V9.594a1.465,1.465,0,0,0-.312-1.043A1.4,1.4,0,0,0,45.7,8.227a1.553,1.553,0,0,0-1.43.813V15H42.008V6.547ZM53.4,15H51.133V6.547H53.4ZM51,4.359a1.112,1.112,0,0,1,.34-.836,1.465,1.465,0,0,1,1.848,0,1.105,1.105,0,0,1,.344.836,1.108,1.108,0,0,1-.348.844,1.448,1.448,0,0,1-1.836,0A1.108,1.108,0,0,1,51,4.359Zm8.836,8.3a.727.727,0,0,0-.41-.652,4.659,4.659,0,0,0-1.316-.426q-3.016-.633-3.016-2.562a2.323,2.323,0,0,1,.934-1.879,3.766,3.766,0,0,1,2.441-.754,4.053,4.053,0,0,1,2.574.758,2.388,2.388,0,0,1,.965,1.969H59.75a1.092,1.092,0,0,0-.312-.8A1.322,1.322,0,0,0,58.461,8a1.351,1.351,0,0,0-.883.258.814.814,0,0,0-.312.656.7.7,0,0,0,.355.605,3.657,3.657,0,0,0,1.2.4,9.8,9.8,0,0,1,1.422.379,2.336,2.336,0,0,1,1.789,2.273,2.2,2.2,0,0,1-.992,1.871,4.28,4.28,0,0,1-2.562.715,4.47,4.47,0,0,1-1.887-.379A3.166,3.166,0,0,1,55.3,13.738a2.414,2.414,0,0,1-.469-1.426h2.141a1.179,1.179,0,0,0,.445.922,1.766,1.766,0,0,0,1.109.32,1.635,1.635,0,0,0,.98-.246A.766.766,0,0,0,59.836,12.664Zm6.352-8.2V6.547h1.445V8.2H66.188v4.219a1.007,1.007,0,0,0,.18.672.9.9,0,0,0,.688.2,3.6,3.6,0,0,0,.664-.055v1.711a4.648,4.648,0,0,1-1.367.2,2.156,2.156,0,0,1-2.422-2.4V8.2H62.7V6.547H63.93V4.469Zm7.453,4.2a6.134,6.134,0,0,0-.812-.062,1.654,1.654,0,0,0-1.68.867V15H68.891V6.547h2.133l.063,1.008a2.092,2.092,0,0,1,1.883-1.164,2.366,2.366,0,0,1,.7.1ZM79.391,15a2.507,2.507,0,0,1-.227-.758,2.732,2.732,0,0,1-2.133.914,3,3,0,0,1-2.059-.719,2.312,2.312,0,0,1-.816-1.812,2.389,2.389,0,0,1,1-2.062,4.915,4.915,0,0,1,2.879-.727H79.07V9.352a1.393,1.393,0,0,0-.3-.937,1.183,1.183,0,0,0-.949-.352,1.345,1.345,0,0,0-.895.273.929.929,0,0,0-.324.75H74.344A2.268,2.268,0,0,1,74.8,7.727a3,3,0,0,1,1.281-.98,4.669,4.669,0,0,1,1.859-.355,3.689,3.689,0,0,1,2.48.785,2.747,2.747,0,0,1,.918,2.207v3.664a4.041,4.041,0,0,0,.336,1.82V15Zm-1.867-1.57a1.945,1.945,0,0,0,.922-.223,1.462,1.462,0,0,0,.625-.6V11.156h-.844q-1.7,0-1.8,1.172l-.008.133a.9.9,0,0,0,.3.7A1.153,1.153,0,0,0,77.523,13.43Zm10.3-4.766a6.134,6.134,0,0,0-.812-.062,1.654,1.654,0,0,0-1.68.867V15H83.07V6.547H85.2l.063,1.008a2.092,2.092,0,0,1,1.883-1.164,2.366,2.366,0,0,1,.7.1Zm8.961,6.492a4.15,4.15,0,0,1-3.027-1.141,4.054,4.054,0,0,1-1.168-3.039v-.219a5.106,5.106,0,0,1,.492-2.277,3.612,3.612,0,0,1,1.395-1.547,3.914,3.914,0,0,1,2.059-.543,3.508,3.508,0,0,1,2.73,1.094,4.444,4.444,0,0,1,1,3.1v.922H94.875a2.1,2.1,0,0,0,.66,1.328,2,2,0,0,0,1.395.5,2.437,2.437,0,0,0,2.039-.945l1.109,1.242A3.389,3.389,0,0,1,98.7,14.754,4.511,4.511,0,0,1,96.781,15.156Zm-.258-6.945a1.411,1.411,0,0,0-1.09.455,2.357,2.357,0,0,0-.535,1.3h3.141V9.788a1.681,1.681,0,0,0-.406-1.165A1.456,1.456,0,0,0,96.523,8.211Zm7.4,6.789h-2.266V3h2.266Zm13.453-4.148a5.07,5.07,0,0,1-.887,3.129,2.843,2.843,0,0,1-2.395,1.176,2.633,2.633,0,0,1-2.07-.891V18.25h-2.258V6.547h2.094l.078.828a2.654,2.654,0,0,1,2.141-.984,2.862,2.862,0,0,1,2.43,1.156,5.207,5.207,0,0,1,.867,3.188Zm-2.258-.164a3.327,3.327,0,0,0-.418-1.82,1.361,1.361,0,0,0-1.215-.641,1.478,1.478,0,0,0-1.461.813V12.5a1.5,1.5,0,0,0,1.477.836Q115.117,13.336,115.117,10.688ZM121.156,15h-2.266V3h2.266Zm6.758,0a2.507,2.507,0,0,1-.227-.758,2.732,2.732,0,0,1-2.133.914,3,3,0,0,1-2.059-.719,2.312,2.312,0,0,1-.816-1.812,2.389,2.389,0,0,1,1-2.062,4.915,4.915,0,0,1,2.879-.727h1.039V9.352a1.393,1.393,0,0,0-.3-.937,1.183,1.183,0,0,0-.949-.352,1.345,1.345,0,0,0-.895.273.929.929,0,0,0-.324.75h-2.258a2.268,2.268,0,0,1,.453-1.359,3,3,0,0,1,1.281-.98,4.669,4.669,0,0,1,1.859-.355,3.689,3.689,0,0,1,2.48.785,2.747,2.747,0,0,1,.918,2.207v3.664a4.041,4.041,0,0,0,.336,1.82V15Zm-1.867-1.57a1.945,1.945,0,0,0,.922-.223,1.462,1.462,0,0,0,.625-.6V11.156h-.844q-1.7,0-1.8,1.172l-.008.133a.9.9,0,0,0,.3.7A1.153,1.153,0,0,0,126.047,13.43Zm7.625-6.883.07.977a2.951,2.951,0,0,1,2.43-1.133,2.453,2.453,0,0,1,2,.789,3.682,3.682,0,0,1,.672,2.359V15h-2.258V9.594a1.465,1.465,0,0,0-.312-1.043,1.4,1.4,0,0,0-1.039-.324,1.553,1.553,0,0,0-1.43.813V15h-2.258V6.547ZM11.219,30.711a5.094,5.094,0,0,1,.887-3.148,2.877,2.877,0,0,1,2.426-1.172,2.589,2.589,0,0,1,2.039.922V23h2.266V35H16.8l-.109-.9a2.657,2.657,0,0,1-2.172,1.055,2.869,2.869,0,0,1-2.395-1.176A5.258,5.258,0,0,1,11.219,30.711Zm2.258.168a3.337,3.337,0,0,0,.414,1.823,1.349,1.349,0,0,0,1.2.634,1.511,1.511,0,0,0,1.477-.884V29.111a1.489,1.489,0,0,0-1.461-.884Q13.477,28.227,13.477,30.879Zm11,4.277a4.15,4.15,0,0,1-3.027-1.141,4.054,4.054,0,0,1-1.168-3.039v-.219a5.106,5.106,0,0,1,.492-2.277,3.612,3.612,0,0,1,1.395-1.547,3.914,3.914,0,0,1,2.059-.543,3.508,3.508,0,0,1,2.73,1.094,4.444,4.444,0,0,1,1,3.1v.922H22.57a2.1,2.1,0,0,0,.66,1.328,2,2,0,0,0,1.395.5,2.437,2.437,0,0,0,2.039-.945l1.109,1.242A3.389,3.389,0,0,1,26.4,34.754,4.511,4.511,0,0,1,24.477,35.156Zm-.258-6.945a1.411,1.411,0,0,0-1.09.455,2.357,2.357,0,0,0-.535,1.3h3.141v-.181a1.681,1.681,0,0,0-.406-1.165A1.456,1.456,0,0,0,24.219,28.211Zm16.609,2.641a5.07,5.07,0,0,1-.887,3.129,2.843,2.843,0,0,1-2.395,1.176,2.633,2.633,0,0,1-2.07-.891V38.25H33.219v-11.7h2.094l.078.828a2.654,2.654,0,0,1,2.141-.984,2.862,2.862,0,0,1,2.43,1.156,5.207,5.207,0,0,1,.867,3.188Zm-2.258-.164a3.327,3.327,0,0,0-.418-1.82,1.361,1.361,0,0,0-1.215-.641,1.478,1.478,0,0,0-1.461.813V32.5a1.5,1.5,0,0,0,1.477.836Q38.57,33.336,38.57,30.688Zm8.406-2.023a6.134,6.134,0,0,0-.812-.062,1.654,1.654,0,0,0-1.68.867V35H42.227V26.547h2.133l.063,1.008A2.092,2.092,0,0,1,46.3,26.391a2.366,2.366,0,0,1,.7.1ZM47.43,30.7a5.013,5.013,0,0,1,.484-2.242,3.546,3.546,0,0,1,1.395-1.523,4.069,4.069,0,0,1,2.113-.539,3.849,3.849,0,0,1,2.793,1.047,4.2,4.2,0,0,1,1.207,2.844l.016.578a4.418,4.418,0,0,1-1.086,3.121,4.209,4.209,0,0,1-5.832,0A4.5,4.5,0,0,1,47.43,30.8Zm2.258.16a3.16,3.16,0,0,0,.453,1.843,1.628,1.628,0,0,0,2.578.008,3.457,3.457,0,0,0,.461-2.015,3.128,3.128,0,0,0-.461-1.831,1.5,1.5,0,0,0-1.3-.649,1.474,1.474,0,0,0-1.281.646A3.516,3.516,0,0,0,49.688,30.856Zm6.813-.145a4.954,4.954,0,0,1,.926-3.133,3,3,0,0,1,2.5-1.187,2.631,2.631,0,0,1,2.164.953l.094-.8h2.047v8.172a3.613,3.613,0,0,1-.5,1.93A3.236,3.236,0,0,1,62.3,37.9a4.985,4.985,0,0,1-2.141.43,4.635,4.635,0,0,1-1.812-.371A3.217,3.217,0,0,1,57.016,37l1-1.375a2.645,2.645,0,0,0,2.047.945,1.936,1.936,0,0,0,1.4-.48,1.8,1.8,0,0,0,.5-1.363v-.453a2.612,2.612,0,0,1-2.055.883,2.992,2.992,0,0,1-2.465-1.191A4.953,4.953,0,0,1,56.5,30.8Zm2.258.168a3.085,3.085,0,0,0,.461,1.8,1.466,1.466,0,0,0,1.266.653,1.568,1.568,0,0,0,1.477-.775V29a1.564,1.564,0,0,0-1.461-.775,1.476,1.476,0,0,0-1.277.665A3.477,3.477,0,0,0,58.758,30.879Zm11.953-2.215A6.134,6.134,0,0,0,69.9,28.6a1.654,1.654,0,0,0-1.68.867V35H65.961V26.547h2.133l.063,1.008a2.092,2.092,0,0,1,1.883-1.164,2.366,2.366,0,0,1,.7.1ZM76.461,35a2.507,2.507,0,0,1-.227-.758,2.732,2.732,0,0,1-2.133.914,3,3,0,0,1-2.059-.719,2.312,2.312,0,0,1-.816-1.812,2.389,2.389,0,0,1,1-2.062,4.915,4.915,0,0,1,2.879-.727h1.039v-.484a1.393,1.393,0,0,0-.3-.937,1.183,1.183,0,0,0-.949-.352,1.345,1.345,0,0,0-.895.273.929.929,0,0,0-.324.75H71.414a2.268,2.268,0,0,1,.453-1.359,3,3,0,0,1,1.281-.98,4.669,4.669,0,0,1,1.859-.355,3.689,3.689,0,0,1,2.48.785,2.747,2.747,0,0,1,.918,2.207v3.664a4.041,4.041,0,0,0,.336,1.82V35Zm-1.867-1.57a1.945,1.945,0,0,0,.922-.223,1.462,1.462,0,0,0,.625-.6V31.156H75.3q-1.7,0-1.8,1.172l-.008.133a.9.9,0,0,0,.3.7A1.153,1.153,0,0,0,74.594,33.43Zm7.664-6.883.07.945a2.971,2.971,0,0,1,2.43-1.1A2.255,2.255,0,0,1,87,27.68a2.9,2.9,0,0,1,2.539-1.289,2.521,2.521,0,0,1,2.047.8,3.681,3.681,0,0,1,.672,2.41V35H89.992V29.609a1.61,1.61,0,0,0-.281-1.051,1.246,1.246,0,0,0-.992-.332,1.409,1.409,0,0,0-1.406.969L87.32,35H85.063V29.617a1.59,1.59,0,0,0-.289-1.062,1.259,1.259,0,0,0-.984-.328,1.463,1.463,0,0,0-1.391.8V35H80.141V26.547ZM98.891,35a2.507,2.507,0,0,1-.227-.758,2.732,2.732,0,0,1-2.133.914,3,3,0,0,1-2.059-.719,2.312,2.312,0,0,1-.816-1.812,2.389,2.389,0,0,1,1-2.062,4.915,4.915,0,0,1,2.879-.727H98.57v-.484a1.393,1.393,0,0,0-.3-.937,1.183,1.183,0,0,0-.949-.352,1.345,1.345,0,0,0-.895.273.929.929,0,0,0-.324.75H93.844a2.268,2.268,0,0,1,.453-1.359,3,3,0,0,1,1.281-.98,4.669,4.669,0,0,1,1.859-.355,3.689,3.689,0,0,1,2.48.785,2.747,2.747,0,0,1,.918,2.207v3.664a4.041,4.041,0,0,0,.336,1.82V35Zm-1.867-1.57a1.945,1.945,0,0,0,.922-.223,1.462,1.462,0,0,0,.625-.6V31.156h-.844q-1.7,0-1.8,1.172l-.008.133a.9.9,0,0,0,.3.7A1.153,1.153,0,0,0,97.023,33.43Zm9.063-.094a1.481,1.481,0,0,0,1.016-.344,1.2,1.2,0,0,0,.406-.914h2.117a2.9,2.9,0,0,1-.469,1.574,3.093,3.093,0,0,1-1.262,1.109,3.949,3.949,0,0,1-1.77.395A3.67,3.67,0,0,1,103.266,34a4.56,4.56,0,0,1-1.047-3.184v-.148a4.508,4.508,0,0,1,1.039-3.117,3.627,3.627,0,0,1,2.852-1.164,3.555,3.555,0,0,1,2.543.9,3.2,3.2,0,0,1,.973,2.4h-2.117a1.551,1.551,0,0,0-.406-1.072,1.51,1.51,0,0,0-2.223.163,3.333,3.333,0,0,0-.4,1.866v.235a3.375,3.375,0,0,0,.4,1.878A1.377,1.377,0,0,0,106.086,33.336ZM113.3,35h-2.266V26.547H113.3Zm-2.4-10.641a1.112,1.112,0,0,1,.34-.836,1.465,1.465,0,0,1,1.848,0,1.193,1.193,0,0,1,0,1.68,1.448,1.448,0,0,1-1.836,0A1.108,1.108,0,0,1,110.9,24.359ZM114.8,30.7a5.013,5.013,0,0,1,.484-2.242,3.546,3.546,0,0,1,1.395-1.523,4.069,4.069,0,0,1,2.113-.539,3.849,3.849,0,0,1,2.793,1.047,4.2,4.2,0,0,1,1.207,2.844l.016.578a4.418,4.418,0,0,1-1.086,3.121,4.209,4.209,0,0,1-5.832,0A4.5,4.5,0,0,1,114.8,30.8Zm2.258.16a3.16,3.16,0,0,0,.453,1.843,1.628,1.628,0,0,0,2.578.008,3.457,3.457,0,0,0,.461-2.015,3.128,3.128,0,0,0-.461-1.831,1.5,1.5,0,0,0-1.3-.649,1.474,1.474,0,0,0-1.281.646A3.516,3.516,0,0,0,117.063,30.856ZM119.242,23H121.7l-2.164,2.422H117.7Zm7.039,3.547.07.977a2.951,2.951,0,0,1,2.43-1.133,2.453,2.453,0,0,1,2,.789,3.682,3.682,0,0,1,.672,2.359V35H129.2V29.594a1.465,1.465,0,0,0-.312-1.043,1.4,1.4,0,0,0-1.039-.324,1.553,1.553,0,0,0-1.43.813V35h-2.258V26.547Z" transform="translate(1158 24111.422)" fill="#12263f"/>
    <path id="Path_217433" data-name="Path 217433" d="M102.8.5H16.541A16.041,16.041,0,0,0,.5,16.541V84.506a16.041,16.041,0,0,0,16.041,16.041h139a16.041,16.041,0,0,0,16.041-16.041V40.16h16.253" transform="translate(285 24070.375)" fill="none" stroke="#03386e" stroke-miterlimit="10" stroke-width="2"/>
    <path id="Path_217434" data-name="Path 217434" d="M102.8.5H16.541A16.041,16.041,0,0,0,.5,16.541V84.506a16.041,16.041,0,0,0,16.041,16.041h139a16.041,16.041,0,0,0,16.041-16.041V40.16h16.253" transform="translate(500 24070.375)" fill="none" stroke="#0c5e46" stroke-miterlimit="10" stroke-width="2"/>
    <path id="Path_217435" data-name="Path 217435" d="M102.8.5H16.541A16.041,16.041,0,0,0,.5,16.541V84.506a16.041,16.041,0,0,0,16.041,16.041h139a16.041,16.041,0,0,0,16.041-16.041V40.16h16.253" transform="translate(714 24070.375)" fill="none" stroke="#03386e" stroke-miterlimit="10" stroke-width="2"/>
    <path id="Path_217436" data-name="Path 217436" d="M102.8.5H16.541A16.041,16.041,0,0,0,.5,16.541V84.506a16.041,16.041,0,0,0,16.041,16.041h139a16.041,16.041,0,0,0,16.041-16.041V40.16h16.253" transform="translate(929 24070.375)" fill="none" stroke="#0c5e46" stroke-miterlimit="10" stroke-width="2"/>
    <path id="Path_217437" data-name="Path 217437" d="M102.8.5H16.541A16.041,16.041,0,0,0,.5,16.541V84.506a16.041,16.041,0,0,0,16.041,16.041h139a16.041,16.041,0,0,0,16.041-16.041V40.16" transform="translate(1143 24070.375)" fill="none" stroke="#03386e" stroke-miterlimit="10" stroke-width="2"/>
    <path id="Path_213857" data-name="Path 213857" d="M14.846,0,12.184,2.661,20.026,10.5l-7.842,7.843,2.662,2.661,10.5-10.5Z" transform="translate(463.058 24099.383)" fill="#03386e"/>
    <path id="Path_213858" data-name="Path 213858" d="M0,9.581,4.122,13.7,0,17.824l2.661,2.661L9.445,13.7,2.661,6.92Z" transform="translate(468.69 24096.184)" fill="#03386e"/>
    <path id="Path_213857-2" data-name="Path 213857" d="M14.846,0,12.184,2.661,20.026,10.5l-7.842,7.843,2.662,2.661,10.5-10.5Z" transform="translate(677.656 24099.383)" fill="#0c5e46"/>
    <path id="Path_213858-2" data-name="Path 213858" d="M0,9.581,4.122,13.7,0,17.824l2.661,2.661L9.445,13.7,2.661,6.92Z" transform="translate(683.289 24096.184)" fill="#0c5e46"/>
    <path id="Path_213857-3" data-name="Path 213857" d="M14.846,0,12.184,2.661,20.026,10.5l-7.842,7.843,2.662,2.661,10.5-10.5Z" transform="translate(892.255 24099.383)" fill="#03386e"/>
    <path id="Path_213858-3" data-name="Path 213858" d="M0,9.581,4.122,13.7,0,17.824l2.661,2.661L9.445,13.7,2.661,6.92Z" transform="translate(897.888 24096.184)" fill="#03386e"/>
    <path id="Path_213857-4" data-name="Path 213857" d="M14.846,0,12.184,2.661,20.026,10.5l-7.842,7.843,2.662,2.661,10.5-10.5Z" transform="translate(1106.854 24099.383)" fill="#0c5e46"/>
    <path id="Path_213858-4" data-name="Path 213858" d="M0,9.581,4.122,13.7,0,17.824l2.661,2.661L9.445,13.7,2.661,6.92Z" transform="translate(1112.486 24096.184)" fill="#0c5e46"/>
    <path id="Path_609518" data-name="Path 609518" d="M31.5,0A31.5,31.5,0,1,1,0,31.5,31.5,31.5,0,0,1,31.5,0Z" transform="translate(379 24040.023)" fill="#d8e2ec"/>
    <path id="Path_609519" data-name="Path 609519" d="M31.5,0A31.5,31.5,0,1,1,0,31.5,31.5,31.5,0,0,1,31.5,0Z" transform="translate(807 24040.023)" fill="#d8e2ec"/>
    <path id="Path_609520" data-name="Path 609520" d="M31.5,0A31.5,31.5,0,1,1,0,31.5,31.5,31.5,0,0,1,31.5,0Z" transform="translate(1237 24040.023)" fill="#d8e2ec"/>
    <path id="Path_609521" data-name="Path 609521" d="M31.5,0A31.5,31.5,0,1,1,0,31.5,31.5,31.5,0,0,1,31.5,0Z" transform="translate(1022 24040.023)" fill="#cde7d6"/>
    <g id="Group_871707" data-name="Group 871707" transform="translate(395 24052.023)">
      <g id="Group_871706" data-name="Group 871706" transform="translate(0)">
        <path id="Path_217675" data-name="Path 217675" d="M84.728,6.542,78.988.8A2.724,2.724,0,0,0,77.05,0H57.025A2.048,2.048,0,0,0,54.98,2.045V36.861a2.048,2.048,0,0,0,2.045,2.045h26.46a2.048,2.048,0,0,0,2.045-2.045V8.481A2.724,2.724,0,0,0,84.728,6.542Zm-.5,30.319a.741.741,0,0,1-.74.74H57.025a.741.741,0,0,1-.74-.74V2.045a.741.741,0,0,1,.74-.74H77.05a1.427,1.427,0,0,1,1.016.421L83.8,7.466a1.452,1.452,0,0,1,.161.194H78.611a.741.741,0,0,1-.74-.74V3.438a.653.653,0,1,0-1.306,0V6.92a2.048,2.048,0,0,0,2.045,2.045h5.614v27.9Z" transform="translate(-54.98)"/>
      </g>
    </g>
    <g id="Group_871709" data-name="Group 871709" transform="translate(407.534 24070.824)">
      <g id="Group_871708" data-name="Group 871708">
        <path id="Path_217676" data-name="Path 217676" d="M229.624,247.409h-9.052a.653.653,0,1,0,0,1.306h9.052a.653.653,0,1,0,0-1.306Z" transform="translate(-219.919 -247.409)"/>
      </g>
    </g>
    <g id="Group_871711" data-name="Group 871711" transform="translate(407.534 24073.609)">
      <g id="Group_871710" data-name="Group 871710">
        <path id="Path_217677" data-name="Path 217677" d="M233.106,284.063H220.572a.653.653,0,1,0,0,1.306h12.534a.653.653,0,1,0,0-1.306Z" transform="translate(-219.919 -284.063)"/>
      </g>
    </g>
    <g id="Group_871713" data-name="Group 871713" transform="translate(407.534 24061.771)">
      <g id="Group_871712" data-name="Group 871712" transform="translate(0)">
        <path id="Path_217678" data-name="Path 217678" d="M226.839,128.286h-6.267a.653.653,0,0,0,0,1.306h6.267a.653.653,0,0,0,0-1.306Z" transform="translate(-219.919 -128.286)"/>
      </g>
    </g>
    <g id="Group_871715" data-name="Group 871715" transform="translate(407.534 24064.557)">
      <g id="Group_871714" data-name="Group 871714">
        <path id="Path_217679" data-name="Path 217679" d="M233.106,164.94H220.572a.653.653,0,0,0,0,1.306h12.534a.653.653,0,1,0,0-1.306Z" transform="translate(-219.919 -164.94)"/>
      </g>
    </g>
    <g id="Group_871717" data-name="Group 871717" transform="translate(399.178 24078.482)">
      <g id="Group_871716" data-name="Group 871716" transform="translate(0)">
        <path id="Path_217680" data-name="Path 217680" d="M115.487,348.206h-4.178a1.351,1.351,0,0,0-1.349,1.349v4.178a1.351,1.351,0,0,0,1.349,1.349h4.178a1.351,1.351,0,0,0,1.349-1.349v-4.178A1.351,1.351,0,0,0,115.487,348.206Zm.043,5.527a.044.044,0,0,1-.044.044h-4.178a.044.044,0,0,1-.044-.044v-4.178a.044.044,0,0,1,.044-.044h4.178a.044.044,0,0,1,.044.044Z" transform="translate(-109.96 -348.206)"/>
      </g>
    </g>
    <g id="Group_871719" data-name="Group 871719" transform="translate(407.534 24079.875)">
      <g id="Group_871718" data-name="Group 871718">
        <path id="Path_217681" data-name="Path 217681" d="M227.535,366.532h-6.963a.653.653,0,0,0,0,1.306h6.963a.653.653,0,1,0,0-1.306Z" transform="translate(-219.919 -366.532)"/>
      </g>
    </g>
    <g id="Group_871721" data-name="Group 871721" transform="translate(407.534 24082.662)">
      <g id="Group_871720" data-name="Group 871720">
        <path id="Path_217682" data-name="Path 217682" d="M230.32,403.186h-9.748a.653.653,0,1,0,0,1.306h9.748a.653.653,0,1,0,0-1.306Z" transform="translate(-219.919 -403.186)"/>
      </g>
    </g>
    <g id="Group_871723" data-name="Group 871723" transform="translate(399.178 24060.379)">
      <g id="Group_871722" data-name="Group 871722">
        <path id="Path_217683" data-name="Path 217683" d="M117.34,110.847a.653.653,0,0,0-.923,0l-2.324,2.324-.931-.931a.653.653,0,1,0-.923.923l1.393,1.393a.653.653,0,0,0,.923,0l.975-.975v1.906a.044.044,0,0,1-.044.044h-4.178a.044.044,0,0,1-.044-.044v-4.178a.044.044,0,0,1,.044-.044h2.785a.653.653,0,1,0,0-1.306h-2.785a1.351,1.351,0,0,0-1.349,1.349v4.178a1.351,1.351,0,0,0,1.349,1.349h4.178a1.351,1.351,0,0,0,1.349-1.349v-3.211l.505-.505A.653.653,0,0,0,117.34,110.847Z" transform="translate(-109.959 -109.959)"/>
      </g>
    </g>
    <g id="Group_871725" data-name="Group 871725" transform="translate(399.178 24069.432)">
      <g id="Group_871724" data-name="Group 871724">
        <path id="Path_217684" data-name="Path 217684" d="M117.34,229.97a.653.653,0,0,0-.923,0l-2.324,2.324-.931-.931a.653.653,0,1,0-.923.923l1.393,1.393a.653.653,0,0,0,.923,0l.975-.975v1.906a.044.044,0,0,1-.044.044h-4.178a.044.044,0,0,1-.044-.044v-4.178a.044.044,0,0,1,.044-.044h2.785a.653.653,0,1,0,0-1.306h-2.785a1.351,1.351,0,0,0-1.349,1.349v4.178a1.351,1.351,0,0,0,1.349,1.349h4.178a1.351,1.351,0,0,0,1.349-1.349V231.4l.505-.505A.653.653,0,0,0,117.34,229.97Z" transform="translate(-109.959 -229.082)"/>
      </g>
    </g>
    <g id="Group_871728" data-name="Group 871728" transform="translate(820 24054.023)">
      <path id="Path_217691" data-name="Path 217691" d="M154.387,182.17h-9.961a3.268,3.268,0,0,0-3.264,3.264v4.134a3.268,3.268,0,0,0,3.264,3.264h9.961a3.268,3.268,0,0,0,3.264-3.264v-4.134A3.268,3.268,0,0,0,154.387,182.17Zm1.824,7.4a1.826,1.826,0,0,1-1.824,1.823h-9.961a1.826,1.826,0,0,1-1.824-1.823v-4.134a1.826,1.826,0,0,1,1.824-1.823h9.961a1.826,1.826,0,0,1,1.824,1.823Z" transform="translate(-130.996 -169.751)"/>
      <path id="Path_217692" data-name="Path 217692" d="M154.387,354.234h-9.961a3.268,3.268,0,0,0-3.264,3.264v4.134a3.268,3.268,0,0,0,3.264,3.264h9.961a3.268,3.268,0,0,0,3.264-3.264V357.5A3.268,3.268,0,0,0,154.387,354.234Zm1.824,7.4a1.826,1.826,0,0,1-1.824,1.824h-9.961a1.826,1.826,0,0,1-1.824-1.824V357.5a1.826,1.826,0,0,1,1.824-1.824h9.961a1.826,1.826,0,0,1,1.824,1.824Z" transform="translate(-130.996 -329.423)"/>
      <path id="Path_217693" data-name="Path 217693" d="M154.387,9.727h-1.714a.72.72,0,1,0,0,1.44h1.714a1.826,1.826,0,0,1,1.824,1.824v4.134a1.826,1.826,0,0,1-1.824,1.824h-9.961a1.826,1.826,0,0,1-1.824-1.824V12.991a1.826,1.826,0,0,1,1.824-1.824h1.9a.72.72,0,1,0,0-1.44h-1.9a3.268,3.268,0,0,0-3.264,3.264v4.134a3.268,3.268,0,0,0,3.264,3.264h9.961a3.268,3.268,0,0,0,3.264-3.264V12.991A3.268,3.268,0,0,0,154.387,9.727Z" transform="translate(-130.996 -9.727)"/>
      <path id="Path_217694" data-name="Path 217694" d="M394.767,246.188h-2.245a.72.72,0,0,0,0,1.44h2.245a4.256,4.256,0,0,1,4.251,4.251v2.449a4.256,4.256,0,0,1-4.251,4.251h-.506l.751-.752a.72.72,0,0,0-1.019-1.019l-1.981,1.981a.728.728,0,0,0,0,1.019l1.981,1.981a.72.72,0,1,0,1.019-1.019l-.751-.752h.506a5.7,5.7,0,0,0,5.692-5.692V251.88A5.7,5.7,0,0,0,394.767,246.188Z" transform="translate(-363.585 -229.158)"/>
      <path id="Path_217695" data-name="Path 217695" d="M5.692,89.206H6.2l-.752.752a.72.72,0,0,0,0,1.019.731.731,0,0,0,1.019,0L8.446,89a.73.73,0,0,0,0-1.019L6.465,86a.72.72,0,1,0-1.019,1.019l.752.752H5.692A4.256,4.256,0,0,1,1.44,83.515V81.066a4.256,4.256,0,0,1,4.251-4.251H7.936a.72.72,0,1,0,0-1.44H5.692A5.7,5.7,0,0,0,0,81.066v2.449A5.7,5.7,0,0,0,5.692,89.206Z" transform="translate(0 -70.646)"/>
      <path id="Path_217696" data-name="Path 217696" d="M26.407,392.728H22.343l.752-.752a.72.72,0,0,0-1.019-1.019L20.1,392.939a.73.73,0,0,0,0,1.019l1.981,1.981a.731.731,0,0,0,1.019,0,.72.72,0,0,0,0-1.019l-.752-.752h4.063a.72.72,0,1,0,0-1.44Z" transform="translate(-18.456 -363.306)"/>
      <path id="Path_217697" data-name="Path 217697" d="M391.79,43.286a.727.727,0,0,0,.062.947l1.981,1.981a.72.72,0,1,0,1.019-1.019l-.752-.752h4.063a.72.72,0,1,0,0-1.44H394.1l.751-.752a.72.72,0,1,0-1.019-1.019l-1.981,1.981A.745.745,0,0,0,391.79,43.286Z" transform="translate(-363.437 -38.769)"/>
      <path id="Path_217698" data-name="Path 217698" d="M190.722,74.466a.72.72,0,0,0,.72.72h7.993a.72.72,0,0,0,0-1.44h-7.993A.72.72,0,0,0,190.722,74.466Z" transform="translate(-176.986 -69.135)"/>
      <path id="Path_217699" data-name="Path 217699" d="M196.28,246.188h-4.837a.72.72,0,1,0,0,1.44h4.837a.72.72,0,1,0,0-1.44Z" transform="translate(-176.986 -229.158)"/>
      <path id="Path_217700" data-name="Path 217700" d="M199.435,418.632h-7.993a.72.72,0,1,0,0,1.44h7.993a.72.72,0,0,0,0-1.44Z" transform="translate(-176.986 -389.183)"/>
      <path id="Path_217701" data-name="Path 217701" d="M303.107,246.694a.72.72,0,1,0-.292.891A.726.726,0,0,0,303.107,246.694Z" transform="translate(-279.993 -229.224)"/>
      <path id="Path_217702" data-name="Path 217702" d="M247.587,10.743a.72.72,0,1,0,.39-.941A.726.726,0,0,0,247.587,10.743Z" transform="translate(-229.706 -9.747)"/>
    </g>
    <path id="Path_217703" data-name="Path 217703" d="M51.979,18.135h2.576a1.057,1.057,0,0,0,1.056-1.056V14.5a1.057,1.057,0,0,0-1.056-1.056H51.979A1.057,1.057,0,0,0,50.923,14.5v2.576A1.057,1.057,0,0,0,51.979,18.135ZM52,14.529h2.524v2.524H52Zm-.026,10.457h2.576a1.057,1.057,0,0,0,1.056-1.056V21.355A1.057,1.057,0,0,0,54.555,20.3H51.979a1.057,1.057,0,0,0-1.056,1.056V23.93A1.057,1.057,0,0,0,51.979,24.986ZM52,21.38h2.524V23.9H52Zm-7.376-3.245H47.2a1.057,1.057,0,0,0,1.056-1.056V14.5A1.057,1.057,0,0,0,47.2,13.447H44.629A1.057,1.057,0,0,0,43.573,14.5v2.576A1.057,1.057,0,0,0,44.629,18.135Zm.026-3.606h2.524v2.524H44.655ZM32.5,26.829H29.928a1.057,1.057,0,0,0-1.056,1.056v2.576a1.057,1.057,0,0,0,1.056,1.056H32.5a1.057,1.057,0,0,0,1.056-1.056V27.885A1.057,1.057,0,0,0,32.5,26.829Zm-.026,3.606H29.954V27.911h2.524ZM32.5,13.447H29.928A1.057,1.057,0,0,0,28.872,14.5v2.576a1.057,1.057,0,0,0,1.056,1.056H32.5a1.057,1.057,0,0,0,1.056-1.056V14.5A1.057,1.057,0,0,0,32.5,13.447Zm-.026,3.606H29.954V14.529h2.524Zm12.151,7.773H47.2a1.057,1.057,0,0,0,1.056-1.056V21.194A1.057,1.057,0,0,0,47.2,20.138H44.629a1.057,1.057,0,0,0-1.056,1.056V23.77A1.057,1.057,0,0,0,44.629,24.826Zm.026-3.606h2.524v2.524H44.655ZM56.148,2.472H53.836V1.645A1.647,1.647,0,0,0,52.191,0h-.248A1.647,1.647,0,0,0,50.3,1.645v.827H34.186V1.645A1.647,1.647,0,0,0,32.541,0h-.248a1.647,1.647,0,0,0-1.645,1.645v.827H28.335A2.711,2.711,0,0,0,25.627,5.18V34.221a2.708,2.708,0,0,0,2.7,2.7h27.82a2.708,2.708,0,0,0,2.7-2.7V5.18a2.711,2.711,0,0,0-2.708-2.708Zm-4.769-.827a.564.564,0,0,1,.563-.563h.248a.564.564,0,0,1,.563.563v.827H51.379Zm-19.65,0a.564.564,0,0,1,.563-.563h.248a.564.564,0,0,1,.563.563v.827H31.73V1.645ZM57.775,34.221a1.625,1.625,0,0,1-1.623,1.623H28.331a1.625,1.625,0,0,1-1.623-1.623v0a2.694,2.694,0,0,0,1.626.544H50.266a2.69,2.69,0,0,0,1.915-.793l5.594-5.594Zm-6.146-1.23a2.313,2.313,0,0,0,.065-.545V28.835A1.236,1.236,0,0,1,52.929,27.6H56.54a2.313,2.313,0,0,0,.545-.065ZM57.775,10.2H34.727a.541.541,0,1,0,0,1.082H57.775v14a1.236,1.236,0,0,1-1.235,1.235H52.929a2.319,2.319,0,0,0-2.317,2.317v3.611a1.236,1.236,0,0,1-1.235,1.235H28.335a1.628,1.628,0,0,1-1.626-1.626V11.284h5.854a.541.541,0,1,0,0-1.082H26.709V5.18a1.628,1.628,0,0,1,1.626-1.626h2.313v1.59a1.647,1.647,0,0,0,1.645,1.645.541.541,0,0,0,0-1.082.564.564,0,0,1-.563-.563V3.554H50.3v1.59a1.647,1.647,0,0,0,1.645,1.645.541.541,0,0,0,0-1.082.564.564,0,0,1-.563-.563V3.554h4.769A1.628,1.628,0,0,1,57.775,5.18ZM32.5,20.138H29.928a1.057,1.057,0,0,0-1.056,1.056V23.77a1.057,1.057,0,0,0,1.056,1.056H32.5A1.057,1.057,0,0,0,33.56,23.77V21.194A1.057,1.057,0,0,0,32.5,20.138Zm-.026,3.606H29.954V21.22h2.524Zm4.8-5.609h2.576a1.057,1.057,0,0,0,1.056-1.056V14.5a1.057,1.057,0,0,0-1.056-1.056H37.279A1.057,1.057,0,0,0,36.223,14.5v2.576A1.057,1.057,0,0,0,37.279,18.135Zm.026-3.606h2.524v2.524H37.3Zm7.35,15.906a.541.541,0,0,0-1.081.026,1.057,1.057,0,0,0,1.056,1.056H47.2a1.057,1.057,0,0,0,1.056-1.056V27.885A1.057,1.057,0,0,0,47.2,26.829H44.629a1.057,1.057,0,0,0-1.056,1.056v.743a.541.541,0,1,0,1.082,0v-.717h2.524v2.524Zm-7.375-5.609h2.576A1.057,1.057,0,0,0,40.91,23.77V21.194a1.057,1.057,0,0,0-1.056-1.056H37.279a1.057,1.057,0,0,0-1.056,1.056V23.77A1.057,1.057,0,0,0,37.279,24.826ZM37.3,21.22h2.524v2.524H37.3Zm-.026,10.3h2.576a1.057,1.057,0,0,0,1.056-1.056V27.885a1.057,1.057,0,0,0-1.056-1.056H37.279a1.057,1.057,0,0,0-1.056,1.056v2.576A1.057,1.057,0,0,0,37.279,31.517Zm.026-3.606h2.524v2.524H37.3Z" transform="translate(1011.373 24053.021)"/>
    <g id="Group_871729" data-name="Group 871729" transform="translate(1271.074 24065.332)">
      <path id="Path_217704" data-name="Path 217704" d="M42.447,28.763a6.355,6.355,0,0,1-4.574-1.921.557.557,0,0,1-.117-.6,5.072,5.072,0,0,1,9.382.007.556.556,0,0,1-.119.6A6.369,6.369,0,0,1,42.447,28.763Zm-3.5-2.437a5.3,5.3,0,0,0,7,0,3.959,3.959,0,0,0-7,0Z" transform="translate(-37.714 -23.101)"/>
    </g>
    <g id="Group_871741" data-name="Group 871741" transform="translate(1250.631 24074.344)">
      <g id="Group_871740" data-name="Group 871740">
        <g id="Group_871739" data-name="Group 871739">
          <g id="Group_871736" data-name="Group 871736">
            <g id="Group_871734" data-name="Group 871734" transform="translate(6.165 1.305)">
              <g id="Group_871731" data-name="Group 871731">
                <g id="Group_871730" data-name="Group 871730">
                  <path id="Path_217705" data-name="Path 217705" d="M24.394,49a2.526,2.526,0,0,1-.552-.061l-5.463-1.215a.557.557,0,0,1,.242-1.088l5.465,1.216a1.419,1.419,0,0,0,1.666-.958c.012-.052.02-.084.03-.116a1.418,1.418,0,0,0-.969-1.665L17.7,42.927a4.2,4.2,0,0,0-2.152-.084l-2.8.617a.557.557,0,1,1-.24-1.088l2.793-.616a5.325,5.325,0,0,1,2.721.107l7.117,2.187a2.539,2.539,0,0,1,1.715,3.025c-.021.084-.029.116-.038.148A2.54,2.54,0,0,1,24.394,49Z" transform="translate(-12.071 -41.628)"/>
                </g>
              </g>
              <g id="Group_871733" data-name="Group 871733" transform="translate(0.001 1.665)">
                <g id="Group_871732" data-name="Group 871732">
                  <path id="Path_217706" data-name="Path 217706" d="M23.726,57.083a7.2,7.2,0,0,1-2.116-.32l-8.492-2.61-.412.057a.557.557,0,1,1-.152-1.1l.534-.073a.549.549,0,0,1,.24.019L21.937,55.7a6.022,6.022,0,0,0,4.6-.428l14.458-7.6a1.023,1.023,0,0,0-.834-1.864L25.848,49.821a.557.557,0,0,1-.3-1.072l14.269-4a2.136,2.136,0,0,1,1.7,3.907l-14.458,7.6a7.134,7.134,0,0,1-3.329.828Z" transform="translate(-12.073 -44.619)"/>
                </g>
              </g>
            </g>
            <g id="Group_871735" data-name="Group 871735">
              <path id="Path_217707" data-name="Path 217707" d="M5.772,54.036H1.556a.557.557,0,1,1,0-1.114H5.772a1.392,1.392,0,0,0,1.391-1.39V41.788A1.392,1.392,0,0,0,5.772,40.4H1.556a.557.557,0,1,1,0-1.114H5.772a2.507,2.507,0,0,1,2.5,2.5v9.744a2.507,2.507,0,0,1-2.5,2.5Z" transform="translate(-0.999 -39.284)"/>
            </g>
          </g>
          <g id="Group_871738" data-name="Group 871738" transform="translate(1.5 8.45)">
            <g id="Group_871737" data-name="Group 871737" transform="translate(0)">
              <path id="Path_217708" data-name="Path 217708" d="M5.455,57.986a1.764,1.764,0,1,1,1.687-1.246,1.758,1.758,0,0,1-1.687,1.246Zm0-2.414a.65.65,0,1,0,.19.029.643.643,0,0,0-.19-.029Z" transform="translate(-3.693 -54.459)"/>
            </g>
          </g>
        </g>
      </g>
    </g>
    <g id="Group_871744" data-name="Group 871744" transform="translate(1264.259 24053.025)">
      <g id="Group_871742" data-name="Group 871742">
        <path id="Path_217709" data-name="Path 217709" d="M38.816,24.1H35.231a.557.557,0,0,1-.525-.37l-.486-1.367-2.152-.892-1.311.623a.556.556,0,0,1-.633-.109L27.59,19.445a.557.557,0,0,1-.109-.633L28.1,17.5l-.892-2.152-1.367-.486a.557.557,0,0,1-.37-.525V10.754a.557.557,0,0,1,.37-.525l1.367-.486L28.1,7.591,27.481,6.28a.557.557,0,0,1,.109-.633l2.535-2.535A.557.557,0,0,1,30.757,3l1.311.623,2.152-.891.486-1.368A.557.557,0,0,1,35.231,1h3.585a.557.557,0,0,1,.525.37l.486,1.368,2.152.891L43.29,3a.554.554,0,0,1,.633.109c.747.747,2.093,2.072,2.093,2.072a.557.557,0,0,1,.16.477L45.908,7.5l.927,2.239,1.367.486a.557.557,0,0,1,.37.525v3.585a.557.557,0,0,1-.37.525l-1.367.486L45.944,17.5l.623,1.312a.556.556,0,0,1-.109.632L43.923,21.98a.557.557,0,0,1-.633.109l-1.311-.623-2.152.892-.486,1.367a.557.557,0,0,1-.525.37Zm-3.192-1.114h2.8l.437-1.23a.558.558,0,0,1,.312-.328l2.61-1.081a.557.557,0,0,1,.452.011l1.179.561,1.979-1.979-.561-1.179a.558.558,0,0,1-.011-.452L45.9,14.7a.556.556,0,0,1,.328-.312l1.23-.438v-2.8l-1.23-.438A.556.556,0,0,1,45.9,10.4L44.821,7.789a.559.559,0,0,1-.037-.294l.25-1.715c-.344-.339-1.061-1.047-1.62-1.6l-1.18.561a.559.559,0,0,1-.452.011l-2.609-1.08a.558.558,0,0,1-.312-.328l-.437-1.231h-2.8l-.437,1.231a.558.558,0,0,1-.312.328l-2.61,1.08a.557.557,0,0,1-.452-.011l-1.179-.561L28.655,6.157l.561,1.179a.558.558,0,0,1,.011.452L28.146,10.4a.556.556,0,0,1-.328.312l-1.23.438v2.8l1.23.438a.556.556,0,0,1,.328.312L29.227,17.3a.558.558,0,0,1-.011.452l-.561,1.179,1.979,1.979,1.179-.561a.555.555,0,0,1,.452-.011l2.61,1.081a.558.558,0,0,1,.312.328Z" transform="translate(-25.475 -0.997)"/>
      </g>
      <g id="Group_871743" data-name="Group 871743" transform="translate(5.128 5.13)">
        <path id="Path_217710" data-name="Path 217710" d="M41.1,23.051a6.42,6.42,0,1,1,6.42-6.42A6.428,6.428,0,0,1,41.1,23.051Zm0-11.726a5.306,5.306,0,1,0,5.307,5.306A5.312,5.312,0,0,0,41.1,11.325Z" transform="translate(-34.684 -10.211)"/>
      </g>
    </g>
    <g id="Group_871745" data-name="Group 871745" transform="translate(1273.425 24060.494)">
      <path id="Path_217711" data-name="Path 217711" d="M44.318,19.176A2.382,2.382,0,1,1,46.7,16.793,2.385,2.385,0,0,1,44.318,19.176Zm0-3.651a1.269,1.269,0,1,0,1.269,1.269A1.27,1.27,0,0,0,44.318,15.525Z" transform="translate(-41.935 -14.411)"/>
    </g>
    <path id="Path_609522" data-name="Path 609522" d="M31.5,0A31.5,31.5,0,1,1,0,31.5,31.5,31.5,0,0,1,31.5,0Z" transform="translate(593 24040.023)" fill="#cde7d6"/>
    <g id="Group_871727" data-name="Group 871727" transform="translate(604 24051.023)">
      <g id="Group_871726" data-name="Group 871726">
        <path id="Path_217685" data-name="Path 217685" d="M20.565,24.824a.633.633,0,0,0-.843-.3,10.074,10.074,0,0,1-1.6.6.632.632,0,0,0-.45.485L17,28.954a.711.711,0,0,1-.7.57H14.482a.711.711,0,0,1-.7-.57l-.669-3.346a.633.633,0,0,0-.45-.485,10.052,10.052,0,0,1-2.222-.921.633.633,0,0,0-.661.025L6.944,26.12a.711.711,0,0,1-.9-.089L4.758,24.74a.711.711,0,0,1-.089-.9l1.893-2.84a.632.632,0,0,0,.025-.661,10.049,10.049,0,0,1-.921-2.222.632.632,0,0,0-.485-.45L1.835,17a.711.711,0,0,1-.57-.7V14.482a.711.711,0,0,1,.57-.7l3.346-.669a.633.633,0,0,0,.485-.45,10.052,10.052,0,0,1,.921-2.222.633.633,0,0,0-.025-.661L4.67,6.944a.711.711,0,0,1,.089-.9L6.049,4.758a.711.711,0,0,1,.9-.089l2.84,1.893a.633.633,0,0,0,.661.025,10.052,10.052,0,0,1,2.222-.921.632.632,0,0,0,.45-.485l.669-3.346a.711.711,0,0,1,.7-.57h1.826a.711.711,0,0,1,.7.57l.669,3.346a.633.633,0,0,0,.45.485,10.052,10.052,0,0,1,2.222.921.633.633,0,0,0,.661-.025l2.84-1.893a.711.711,0,0,1,.9.089l1.291,1.291a.711.711,0,0,1,.089.9l-1.893,2.84a.632.632,0,0,0-.025.661,10.052,10.052,0,0,1,.921,2.222.632.632,0,0,0,.485.45l3.346.669a.711.711,0,0,1,.57.7v1.826a.711.711,0,0,1-.57.7l-3.346.669a.633.633,0,0,0-.485.45,10.07,10.07,0,0,1-.617,1.638.633.633,0,1,0,1.141.547,11.347,11.347,0,0,0,.582-1.469l2.973-.595a1.98,1.98,0,0,0,1.587-1.936V14.482A1.98,1.98,0,0,0,29.2,12.545l-2.973-.595a11.321,11.321,0,0,0-.738-1.782l1.682-2.523a1.98,1.98,0,0,0-.247-2.492L25.635,3.863a1.98,1.98,0,0,0-2.492-.247L20.62,5.3a11.328,11.328,0,0,0-1.782-.738l-.595-2.973A1.98,1.98,0,0,0,16.308,0H14.482a1.98,1.98,0,0,0-1.936,1.587L11.951,4.56a11.321,11.321,0,0,0-1.782.738L7.646,3.617a1.98,1.98,0,0,0-2.492.247L3.864,5.154a1.98,1.98,0,0,0-.247,2.492L5.3,10.169a11.325,11.325,0,0,0-.738,1.782l-2.973.595A1.98,1.98,0,0,0,0,14.482v1.826a1.98,1.98,0,0,0,1.587,1.936l2.973.595A11.32,11.32,0,0,0,5.3,20.62L3.617,23.143a1.98,1.98,0,0,0,.247,2.492l1.291,1.291a1.98,1.98,0,0,0,2.492.247l2.523-1.682a11.325,11.325,0,0,0,1.782.738l.595,2.973a1.98,1.98,0,0,0,1.936,1.587h1.826A1.98,1.98,0,0,0,18.244,29.2l.595-2.973a11.335,11.335,0,0,0,1.426-.562A.633.633,0,0,0,20.565,24.824Z"/>
        <path id="Path_217686" data-name="Path 217686" d="M141.479,116.471a.632.632,0,0,0,.852-.274,7.112,7.112,0,0,0-11.3-8.334.633.633,0,0,0,.883.906,5.847,5.847,0,0,1,9.286,6.85A.633.633,0,0,0,141.479,116.471Z" transform="translate(-120.604 -97.561)"/>
        <path id="Path_217687" data-name="Path 217687" d="M107.034,161.717a.633.633,0,0,0-.8.392,7.113,7.113,0,0,0,10.893,8.078.633.633,0,1,0-.742-1.025,5.849,5.849,0,0,1-8.955-6.642A.632.632,0,0,0,107.034,161.717Z" transform="translate(-97.562 -149.03)"/>
        <path id="Path_217688" data-name="Path 217688" d="M267.364,256.165l-1.829-.366a7.647,7.647,0,0,0-.4-.968l1.035-1.552a1.519,1.519,0,0,0-.189-1.911l-.848-.848a1.519,1.519,0,0,0-1.911-.189l-1.553,1.035a7.637,7.637,0,0,0-.968-.4l-.366-1.829a1.519,1.519,0,0,0-1.485-1.218h-1.2a1.519,1.519,0,0,0-1.485,1.218l-.366,1.829a7.663,7.663,0,0,0-.968.4l-1.553-1.035a1.519,1.519,0,0,0-1.911.189l-.848.848a1.519,1.519,0,0,0-.189,1.911l1.035,1.552a7.644,7.644,0,0,0-.517,1.344.633.633,0,0,0,1.219.341,6.385,6.385,0,0,1,.585-1.412.633.633,0,0,0-.025-.661l-1.244-1.866a.25.25,0,0,1,.031-.315l.848-.848a.25.25,0,0,1,.315-.031l1.866,1.244a.633.633,0,0,0,.661.025,6.385,6.385,0,0,1,1.412-.585.632.632,0,0,0,.45-.485l.44-2.2a.25.25,0,0,1,.244-.2h1.2a.25.25,0,0,1,.244.2l.44,2.2a.633.633,0,0,0,.45.485,6.385,6.385,0,0,1,1.412.585.633.633,0,0,0,.661-.025l1.866-1.244a.25.25,0,0,1,.315.031l.848.848a.25.25,0,0,1,.031.315l-1.244,1.866a.632.632,0,0,0-.025.661,6.387,6.387,0,0,1,.585,1.412.632.632,0,0,0,.485.45l2.2.44a.25.25,0,0,1,.2.244v1.2a.25.25,0,0,1-.2.244l-2.2.44a.633.633,0,0,0-.485.45,6.383,6.383,0,0,1-.585,1.412.633.633,0,0,0,.025.661l1.244,1.866a.25.25,0,0,1-.031.315l-.848.848a.25.25,0,0,1-.315.031l-1.866-1.244a.633.633,0,0,0-.661-.025,6.386,6.386,0,0,1-1.412.585.632.632,0,0,0-.45.485l-.44,2.2a.25.25,0,0,1-.244.2h-1.2a.25.25,0,0,1-.244-.2l-.44-2.2a.633.633,0,0,0-.45-.485,6.387,6.387,0,0,1-1.412-.585.633.633,0,0,0-.661.025l-1.866,1.244a.25.25,0,0,1-.315-.031l-.848-.848a.25.25,0,0,1-.031-.315l1.244-1.866a.632.632,0,0,0,.025-.661,6.385,6.385,0,0,1-.585-1.412.632.632,0,0,0-.485-.45l-2.2-.44a.25.25,0,0,1-.2-.244v-1.2a.25.25,0,0,1,.2-.244l.135-.027a.633.633,0,1,0-.248-1.241l-.135.027a1.519,1.519,0,0,0-1.217,1.485v1.2a1.519,1.519,0,0,0,1.218,1.485l1.829.366a7.668,7.668,0,0,0,.4.968l-1.035,1.552a1.519,1.519,0,0,0,.189,1.911l.848.848a1.519,1.519,0,0,0,1.911.189l1.553-1.035a7.647,7.647,0,0,0,.968.4l.366,1.829a1.519,1.519,0,0,0,1.485,1.218h1.2a1.519,1.519,0,0,0,1.485-1.218l.366-1.829a7.651,7.651,0,0,0,.968-.4l1.553,1.035a1.519,1.519,0,0,0,1.911-.189l.848-.848a1.519,1.519,0,0,0,.189-1.911l-1.035-1.552a7.639,7.639,0,0,0,.4-.968l1.829-.366a1.519,1.519,0,0,0,1.217-1.485v-1.2A1.518,1.518,0,0,0,267.364,256.165Z" transform="translate(-228.514 -228.515)"/>
        <path id="Path_217689" data-name="Path 217689" d="M338.228,335.951a2.28,2.28,0,0,1,2.278,2.278.633.633,0,0,0,1.265,0,3.543,3.543,0,1,0-3.543,3.543,3.51,3.51,0,0,0,2.165-.738.633.633,0,0,0-.774-1,2.256,2.256,0,0,1-1.391.474,2.278,2.278,0,1,1,0-4.555Z" transform="translate(-308.493 -308.494)"/>
        <path id="Path_217690" data-name="Path 217690" d="M155.172,151.317a3.854,3.854,0,1,0-3.854,3.854A3.859,3.859,0,0,0,155.172,151.317Zm-6.444,0a2.589,2.589,0,1,1,2.589,2.589A2.592,2.592,0,0,1,148.728,151.317Z" transform="translate(-135.923 -135.923)"/>
      </g>
    </g>
  </g>
</svg>
