<svg xmlns="http://www.w3.org/2000/svg" xmlns:xlink="http://www.w3.org/1999/xlink" width="608" height="163" viewBox="0 0 608 163">
  <defs>
    <clipPath id="clip-path">
      <rect id="Rectángulo_291990" data-name="Rectángulo 291990" width="608" height="163" transform="translate(795 20929)" fill="#fff" stroke="#707070" stroke-width="1"/>
    </clipPath>
    <clipPath id="clip-path-2">
      <rect id="Rectángulo_291989" data-name="Rectángulo 291989" width="414.373" height="248.253" fill="none"/>
    </clipPath>
    <clipPath id="clip-path-7">
      <rect id="Rectángulo_291980" data-name="Rectángulo 291980" width="18.347" height="3.078" fill="none"/>
    </clipPath>
  </defs>
  <g id="Grupo_872064" data-name="Grupo 872064" transform="translate(-812 -21161)">
    <g id="Grupo_871974" data-name="Grupo 871974" transform="translate(0 228)">
      <g id="Enmascarar_grupo_154273" data-name="Enmascarar grupo 154273" transform="translate(17 4)" clip-path="url(#clip-path)">
        <path id="Trazado_217424" data-name="Trazado 217424" d="M-7481,9410s-59.072-29.508-42-76.646c13.825-38.183,304.471-104.093,428.283-88.878,73.169,7.6,68.853,70.9,72.775,97.063,10.779,71.915-11.314,144.933-184.908,85.278-236.5-81.272-212.935,44.7-212.935,44.7Z" transform="translate(8359 11696)" fill="#e1fbff"/>
        <g id="Grupo_871588" data-name="Grupo 871588" transform="translate(878 20919.785)">
          <g id="Grupo_871587" data-name="Grupo 871587" clip-path="url(#clip-path-2)">
            <g id="Grupo_871569" data-name="Grupo 871569">
              <g id="Grupo_871568" data-name="Grupo 871568" clip-path="url(#clip-path-2)">
                <path id="Trazado_217039" data-name="Trazado 217039" d="M414.373,327.015c0,8.54-92.76,15.462-207.186,15.462S0,335.555,0,327.015s92.76-15.462,207.186-15.462,207.186,6.923,207.186,15.462" transform="translate(0 -94.224)" fill="#afc1c6"/>
              </g>
            </g>
            <rect id="Rectángulo_291956" data-name="Rectángulo 291956" width="174.868" height="131.28" transform="translate(120.782 2.441)" fill="#fef5e5"/>
            <g id="Grupo_871571" data-name="Grupo 871571">
              <g id="Grupo_871570" data-name="Grupo 871570" clip-path="url(#clip-path-2)">
                <path id="Trazado_217040" data-name="Trazado 217040" d="M349.756,14.3H168.988a2.128,2.128,0,0,1-2.128-2.128V6.139A6.139,6.139,0,0,1,173,0H344.524a8.086,8.086,0,0,1,8.086,8.085v3.361a2.854,2.854,0,0,1-2.854,2.854" transform="translate(-50.464)" fill="#2a3332"/>
                <rect id="Rectángulo_291957" data-name="Rectángulo 291957" width="174.868" height="3.488" transform="translate(120.782 14.3)" fill="#cfcfcf"/>
              </g>
            </g>
            <g id="Grupo_871573" data-name="Grupo 871573">
              <g id="Grupo_871572" data-name="Grupo 871572" clip-path="url(#clip-path-2)">
                <path id="Trazado_217041" data-name="Trazado 217041" d="M347.173,76.931a.349.349,0,0,1-.349-.349V47.25a.348.348,0,0,1,.349-.349h7.062a.349.349,0,1,1,0,.7h-6.713V76.582a.349.349,0,0,1-.349.349" transform="translate(-104.891 -14.184)" fill="#546275"/>
                <path id="Trazado_217042" data-name="Trazado 217042" d="M272.451,80.128c0,.363-.007.718-.021,1.074v.028a36.138,36.138,0,1,1,.021-1.1" transform="translate(-60.458 -13.263)" fill="#fcc15a"/>
                <path id="Trazado_217043" data-name="Trazado 217043" d="M288.181,80.131c0,.37-.007.739-.021,1.1H251.908V43.858a36.272,36.272,0,0,1,36.273,36.273" transform="translate(-76.185 -13.264)" fill="#40668c"/>
                <rect id="Rectángulo_291959" data-name="Rectángulo 291959" width="3.953" height="3.434" transform="translate(148.582 120.644)" fill="#40668c"/>
                <rect id="Rectángulo_291960" data-name="Rectángulo 291960" width="3.953" height="0.95" transform="translate(160.896 123.128)" fill="#ff385e"/>
                <rect id="Rectángulo_291961" data-name="Rectángulo 291961" width="3.953" height="0.95" transform="translate(142.459 123.128)" fill="#ffba59"/>
                <rect id="Rectángulo_291962" data-name="Rectángulo 291962" width="3.953" height="14.892" transform="translate(155.069 109.187)" fill="#4ccdfc"/>
                <rect id="Rectángulo_291963" data-name="Rectángulo 291963" width="36.67" height="2.418" transform="translate(174.16 109.674)" fill="#546275"/>
                <rect id="Rectángulo_291964" data-name="Rectángulo 291964" width="36.67" height="2.418" transform="translate(174.16 114.829)" fill="#546275"/>
                <rect id="Rectángulo_291965" data-name="Rectángulo 291965" width="20.226" height="2.418" transform="translate(174.16 119.982)" fill="#546275"/>
                <rect id="Rectángulo_291966" data-name="Rectángulo 291966" width="6.485" height="25.044" transform="translate(229.506 69.07)" fill="#ffba59"/>
                <rect id="Rectángulo_291967" data-name="Rectángulo 291967" width="6.485" height="33.589" transform="translate(239.039 60.525)" fill="#359547"/>
                <rect id="Rectángulo_291968" data-name="Rectángulo 291968" width="6.485" height="20.862" transform="translate(248.572 73.252)" fill="#659bd1"/>
                <rect id="Rectángulo_291969" data-name="Rectángulo 291969" width="6.485" height="27.766" transform="translate(258.106 66.348)" fill="#3ae3fe"/>
                <rect id="Rectángulo_291970" data-name="Rectángulo 291970" width="6.485" height="24.427" transform="translate(267.64 69.688)" fill="#afafaf"/>
                <rect id="Rectángulo_291971" data-name="Rectángulo 291971" width="44.937" height="1.417" transform="translate(229.506 95.887)" fill="#435e69"/>
                <path id="Trazado_217044" data-name="Trazado 217044" d="M382.779,50.18a13.423,13.423,0,1,1-11.9-13.328,13.545,13.545,0,0,1,11.9,13.328" transform="translate(-107.655 -11.12)" fill="#659bd1"/>
                <path id="Trazado_217045" data-name="Trazado 217045" d="M380.4,42.531l-5.91,4.1-3.777,2.623c-.356.247-.707.538-1.085.753-.571.326-1.23.064-1.884-.008q-5.852-.654-11.7-1.318A13.421,13.421,0,0,1,380.4,42.531" transform="translate(-107.68 -11.123)" fill="#359547"/>
                <path id="Trazado_217046" data-name="Trazado 217046" d="M388.585,52.677a13.051,13.051,0,0,1-.474,3.523l-12.947-3.523,11.022-7.652a13.323,13.323,0,0,1,2.4,7.652" transform="translate(-113.462 -13.617)" fill="#ffba59"/>
                <path id="Trazado_217047" data-name="Trazado 217047" d="M388.111,59.518a13.49,13.49,0,0,1-10.638,9.7q-1.185-6.6-2.309-13.219Z" transform="translate(-113.462 -16.935)" fill="#afafaf"/>
                <path id="Trazado_217048" data-name="Trazado 217048" d="M372.283,69.214A13.53,13.53,0,0,1,358,62.064q5.985-3.034,11.97-6.069,1.126,6.613,2.309,13.219" transform="translate(-108.272 -16.935)" fill="#3ae3fe"/>
                <path id="Trazado_217049" data-name="Trazado 217049" d="M358.848,46.329a2.472,2.472,0,1,1-2.472-2.471,2.472,2.472,0,0,1,2.472,2.471" transform="translate(-107.032 -13.264)" fill="#546275"/>
                <path id="Trazado_217050" data-name="Trazado 217050" d="M348.725,85.694a2.472,2.472,0,1,1-2.471-2.471,2.472,2.472,0,0,1,2.471,2.471" transform="translate(-103.971 -25.169)" fill="#546275"/>
                <rect id="Rectángulo_291972" data-name="Rectángulo 291972" width="17.265" height="1.384" transform="translate(220.873 33.065)" fill="#546275"/>
                <rect id="Rectángulo_291973" data-name="Rectángulo 291973" width="17.265" height="1.384" transform="translate(220.873 35.611)" fill="#546275"/>
                <rect id="Rectángulo_291974" data-name="Rectángulo 291974" width="17.265" height="1.384" transform="translate(220.873 38.158)" fill="#546275"/>
                <rect id="Rectángulo_291975" data-name="Rectángulo 291975" width="17.265" height="1.384" transform="translate(220.873 40.704)" fill="#546275"/>
                <rect id="Rectángulo_291976" data-name="Rectángulo 291976" width="17.265" height="1.384" transform="translate(220.873 43.25)" fill="#546275"/>
                <path id="Trazado_217051" data-name="Trazado 217051" d="M308.229,50.313a3.412,3.412,0,1,1-3.413-3.412,3.412,3.412,0,0,1,3.413,3.412" transform="translate(-91.155 -14.184)" fill="#546275"/>
                <path id="Trazado_217052" data-name="Trazado 217052" d="M242.677,43.855V81.231L221.394,50.754a36.106,36.106,0,0,1,21.283-6.9" transform="translate(-66.957 -13.263)" fill="#3ae3fe"/>
                <path id="Trazado_217053" data-name="Trazado 217053" d="M288.157,97.395v.028a36.191,36.191,0,0,1-10.436,24.38L251.9,97.423q18.123-.021,36.253-.028" transform="translate(-76.184 -29.456)" fill="#359547"/>
              </g>
            </g>
            <g id="Grupo_871584" data-name="Grupo 871584">
              <g id="Grupo_871583" data-name="Grupo 871583" clip-path="url(#clip-path-2)">
                <path id="Trazado_217054" data-name="Trazado 217054" d="M498.108,72.455a23.257,23.257,0,0,1,2.18,6.955c.254,1.74,1.744,11.963-4.983,17.438a12.53,12.53,0,0,1-9.134,2.907A12.008,12.008,0,0,1,476.1,91.138c-.542-2.376.187-3.413,1.35-9.238a55.09,55.09,0,0,0,1.038-9.031,4.29,4.29,0,0,1-.623-3.114c.568-2.305,3.576-3.181,4.775-3.529,6.658-1.936,14.288,5.113,15.466,6.228" transform="translate(-143.934 -19.928)" fill="#2b3238"/>
                <path id="Trazado_217055" data-name="Trazado 217055" d="M503.086,86.053c1.687.961.926,4.9.83,5.4-.633,3.283-2.874,5.845-3.425,5.6-.387-.169.113-1.691-.311-1.868-.661-.277-2.1,3.313-3.114,3.114-1.16-.228-2.285-5.5.207-9.135,1.436-2.095,4.3-3.976,5.813-3.114" transform="translate(-149.94 -25.961)" fill="#1f2529"/>
                <path id="Trazado_217056" data-name="Trazado 217056" d="M484.107,310.367a18.491,18.491,0,0,1-2.566,1.146c-1.151.419-1.533.435-1.854.806-.39.45-.647,1.367.156,3.462a19.453,19.453,0,0,0,6.593-.48,9.242,9.242,0,0,1,3.369-4.574,6.783,6.783,0,0,1,.385,1.393,6.889,6.889,0,0,1-.114,2.746,1.393,1.393,0,0,0,.883.04,1.368,1.368,0,0,0,.565-.331,6.964,6.964,0,0,1-.311-3.256c.205-1.33.737-1.816.893-2.8.153-.963-.045-2.441-1.861-4.524a7.9,7.9,0,0,0-1.556.885c-2.6,1.9-2.228,4.137-4.581,5.484" transform="translate(-144.961 -91.939)" fill="#114158"/>
                <path id="Trazado_217057" data-name="Trazado 217057" d="M476.721,223.569q2.19,9.638,4.054,20.082c2.3,13,3.855,25.363,4.865,36.951l-2.435,5.148a3.933,3.933,0,0,1-.882.739c-.622.381-1.227.506-1.205.662.012.079.174.073.495.257a2.846,2.846,0,0,1,.4.284c.243.18.848.176,1.785-.415,1.613-1.02,2.762-2.889,4.1-4.573.836-1.051,1.584-1.859,2.082-2.374l-.362-.49c1.289-6.183,2.011-11.456,2.439-15.454,1-9.324.57-13.265.191-15.621a43.592,43.592,0,0,0-1.7-6.9q.533-9.065,1.066-18.128l-14.9-.166" transform="translate(-144.176 -67.615)" fill="#e6a893"/>
                <path id="Trazado_217058" data-name="Trazado 217058" d="M497.133,269.338c-1.2-4.38-2.347-9.071-3.368-14.056-.974-4.754-1.74-9.3-2.342-13.617h2.635q1.537,13.836,3.075,27.672" transform="translate(-148.623 -73.088)" fill="#c27e67"/>
                <path id="Trazado_217059" data-name="Trazado 217059" d="M478.7,122.424q-2.121,5.441-4.108,11.331-.877,2.612-1.673,5.166a4.611,4.611,0,0,1-3.645.908,4.345,4.345,0,0,1-3.087-2.7c3.985-16.028,5.89-21.828,6.826-23.419a6.956,6.956,0,0,1,2.769-4.26,5.9,5.9,0,0,1,.893-.484,42.134,42.134,0,0,1,2.026,13.456" transform="translate(-140.991 -32.956)" fill="#1f525e"/>
                <path id="Trazado_217060" data-name="Trazado 217060" d="M499.258,304.154a5.526,5.526,0,0,0-.8,3.044l-.439,3.624a15.829,15.829,0,0,0-.573,2.864,13.509,13.509,0,0,0-.013,2.663,7.953,7.953,0,0,0,7.248-.366,20.124,20.124,0,0,0,.183-2.709,24.168,24.168,0,0,0-.382-3.944c-.2-1.312-.508-3.02-.969-5.022l-4.254-.154" transform="translate(-150.422 -91.986)" fill="#114158"/>
                <path id="Trazado_217061" data-name="Trazado 217061" d="M489.75,224.687q1.873,9.7,3.393,20.2c1.872,13.071,3.022,25.476,3.651,37.09a15.237,15.237,0,0,0-.385,1.673c-.126.742-.7,4.439.4,4.919.47.2.781-.376,1.87-.306.882.057,1.02.46,1.452.343,1.318-.354,1.268-4.423,1.263-4.68a12.6,12.6,0,0,0-.214-2.093c1.158-6.162,1.973-11.527,2.554-15.854,1.065-7.936,1.226-11.492.7-15.607a43.587,43.587,0,0,0-1.469-6.953l1.66-18.084-14.883-.654" transform="translate(-148.117 -67.953)" fill="#e6a893"/>
                <path id="Trazado_217062" data-name="Trazado 217062" d="M474.712,167.362c-.6,2.245-1.127,4.589-1.562,7.028-3.216,18.068-.025,34.2,4,46.122a50.651,50.651,0,0,0,22.158-.635c1.586-6.638,2.538-12.212,3.123-16.2,1.577-10.745,2.333-16.256.781-23.036a38.691,38.691,0,0,0-5.42-12.595l-23.082-.681" transform="translate(-142.698 -50.616)" fill="#235c6b"/>
                <path id="Trazado_217063" data-name="Trazado 217063" d="M478.333,108.081a19.543,19.543,0,0,1,8.492-2.733,20.728,20.728,0,0,1,14.349,4.686c.162,10.89-1.1,16.886-2.391,20.4a32.712,32.712,0,0,0-2.05,8.785,32.087,32.087,0,0,0,0,5.71l3.408,7.844A34.263,34.263,0,0,1,490,155.91a36.966,36.966,0,0,1-11.567-.292,38.041,38.041,0,0,1-4.6-1.131l2.26-10q.1-5.563.195-11.128c-2.714-3.516-3.18-6.32-3.123-8.2.085-2.845,1.331-4.414,2.928-8.785a49.731,49.731,0,0,0,2.245-8.3" transform="translate(-143.098 -31.844)" fill="#235c6b"/>
                <path id="Trazado_217064" data-name="Trazado 217064" d="M486.906,103.07a11.442,11.442,0,0,0-3.221,2.782l-3.807,6.176a6.413,6.413,0,0,1,5.051-.979,5.893,5.893,0,0,1,2.563,1.443,7.67,7.67,0,0,1,5.271-1.15A7.5,7.5,0,0,1,496.5,113.1a16.425,16.425,0,0,0-.146-7.614,9.558,9.558,0,0,0-4.465-2.635l-4.979.22" transform="translate(-145.131 -31.105)" fill="#1b4652"/>
                <path id="Trazado_217065" data-name="Trazado 217065" d="M497.285,89.165a31.108,31.108,0,0,0-.324,11.061l-7.137,7.907a21.512,21.512,0,0,1-1.757-7.174c.062-.472.112-.96.146-1.464a23.5,23.5,0,0,0-.626-7.131l9.7-3.2" transform="translate(-147.463 -26.966)" fill="#de9b85"/>
                <path id="Trazado_217066" data-name="Trazado 217066" d="M488.1,96.681c.255,1.1.882,3.028,2.266,3.439,2.143.636,4.826-2.758,5.948-5.219a11.31,11.31,0,0,0,.971-5.179l-1.543-.021L488.1,96.681" transform="translate(-147.616 -27.128)" fill="#cf8068"/>
                <path id="Trazado_217067" data-name="Trazado 217067" d="M494.657,70.845a18.98,18.98,0,0,1,2,5.906c.382,2.37.85,5.267-.673,8.3s-4.069,4.277-6.589,5.515c-1.889.928-3.043,1.058-4,.684a3.765,3.765,0,0,1-1.513-1.22c-1.567-1.826-3.574-4.167-3.574-7.614a9.176,9.176,0,0,1,.488-2.928,10.388,10.388,0,0,1-.391-2.831,11.431,11.431,0,0,1,2.587-7,9.621,9.621,0,0,1,5.2-1.464,9.843,9.843,0,0,1,6.467,2.66" transform="translate(-145.261 -20.621)" fill="#e6a893"/>
                <path id="Trazado_217080" data-name="Trazado 217080" d="M503.648,84.541a2.55,2.55,0,0,1,2.635-.549c1.078.65.891,2.919-.187,3.967-.439.427-1.4,1.034-2.1.608a1.657,1.657,0,0,1-.642-.93q.146-1.548.294-3.1" transform="translate(-152.231 -25.345)" fill="#e6a893"/>
                <path id="Trazado_217081" data-name="Trazado 217081" d="M504.135,87.912a1.4,1.4,0,0,0,.781.165,1.826,1.826,0,0,0,1.513-1.711c.022-.438-.107-1.169-.585-1.38s-1.191.152-1.513.994a1.355,1.355,0,0,1,.342,1.1,1.22,1.22,0,0,1-.537.828" transform="translate(-152.467 -25.685)" fill="#d9876d"/>
                <path id="Trazado_217083" data-name="Trazado 217083" d="M502.243,121.417q-1.9,5.77-3.71,11.809-.866,2.889-1.679,5.739a5.061,5.061,0,0,0,2.227,2.416,5.568,5.568,0,0,0,5.056-.232,88.875,88.875,0,0,0,5.462-17.722c1.272-6.517,1.123-9.795-.85-12.017a7.838,7.838,0,0,0-4.127-2.306q-.426,2.183-.85,4.37-.771,3.977-1.53,7.942" transform="translate(-150.265 -32.997)" fill="#235c6b"/>
                <path id="Trazado_217092" data-name="Trazado 217092" d="M481.226,69.126a18.438,18.438,0,0,1,6.15,2.491c4.763,3.064,5.744,7.011,10.431,8.641a11.482,11.482,0,0,0,3.815.623q-.7-4.516-1.4-9.031a7.22,7.22,0,0,0-1.012-4.593c-3.494-5.385-15.586-4.617-17.672-.312a3.926,3.926,0,0,0-.311,2.18" transform="translate(-145.528 -19.194)" fill="#2b3238"/>
                <path id="Trazado_217093" data-name="Trazado 217093" d="M496.791,161.009a44.6,44.6,0,0,1-20.864.623l-2.18,10.172a40.55,40.55,0,0,0,27.091-1.661l-4.048-9.134" transform="translate(-143.277 -48.695)" fill="#114158"/>
                <path id="Trazado_217094" data-name="Trazado 217094" d="M483.71,69.16c-.06.558,2.806.64,5.345,2.491,1.4,1.018,2.446,2.39,2.647,2.232.169-.133-.532-1.147-.259-1.4s1.3.538,1.5.311c.19-.21-.575-1.016-.363-1.3.25-.332,1.566.466,1.868.1.26-.312-.51-1.149-.259-1.453.319-.389,1.928.545,2.076.311s-1.534-1.422-1.35-1.765c.165-.306,1.709.294,1.765.156a8.127,8.127,0,0,0-2.906-1.557c-4.422-1.617-8.971-.7-8.979-.363,0,.176,1.214.343,1.194.467-.024.141-1.6-.062-1.661.208-.043.179.624.356.623.675,0,.428-1.207.523-1.246.882" transform="translate(-146.29 -20.071)" fill="#444d57"/>
                <path id="Trazado_217095" data-name="Trazado 217095" d="M488.4,65.258a16.358,16.358,0,0,1,4.411-.156c3.53.441,5.816,2.125,5.968,1.868.111-.188-.966-1.332-2.543-2.024a9.835,9.835,0,0,0-7.836.311" transform="translate(-147.708 -19.438)" fill="#444d57"/>
                <path id="Trazado_217096" data-name="Trazado 217096" d="M467.434,142.563c3.479-.946,7.209-1.8,11.176-2.5q2.115-.375,4.155-.665a3.11,3.11,0,0,1,2.636.979,3.066,3.066,0,0,1-.451,3.991q-1.991.885-4.143,1.732a100.493,100.493,0,0,1-10.2,3.383,4.329,4.329,0,0,1-3.542-1.313,4.372,4.372,0,0,1,.368-5.6" transform="translate(-141 -42.153)" fill="#1f525e"/>
                <path id="Trazado_217097" data-name="Trazado 217097" d="M489.568,142.677a4.8,4.8,0,0,0-.815-3.941l-3.668.272q-.544,1.29-1.087,2.582l5.571,1.087" transform="translate(-146.377 -41.958)" fill="#1b4652"/>
                <path id="Trazado_217098" data-name="Trazado 217098" d="M489.627,138.605c.526-.176,1.351-.458,2.358-.829,2.655-.979,3.083-1.294,4.189-1.332a27.351,27.351,0,0,1,2.741.354,17.4,17.4,0,0,1,2.128.5,2.059,2.059,0,0,1,1.115.513,1.737,1.737,0,0,1,.4.642c.438.151.488.31.495.376.02.175-.2.308-.7.7-.557.435-.551.479-.74.608-.474.324-.97.366-3.154.336-.429-.006-.908-.015-1.429-.027.405.134,1,.321,1.719.526,1.064.3,1.636.42,1.63.569s-.654.248-.88.279c-1.394.193-1.856-.151-3.249-.127a8.527,8.527,0,0,0-2.15.262,5.061,5.061,0,0,1-1.573.31,3.3,3.3,0,0,1-1.276-.3l-1.014.234a3.914,3.914,0,0,1-.617-3.59" transform="translate(-148.022 -41.265)" fill="#e6a893"/>
                <path id="Trazado_217099" data-name="Trazado 217099" d="M473.558,132.689a9.062,9.062,0,0,0-.691-1.971c-.448-.919-.566-.756-1.581-2.372-.443-.707-.645-1.093-.866-1.055-.253.045-.372.612-.376.979a2.126,2.126,0,0,0,.6,1.431l.3.791a5.852,5.852,0,0,0-2.034-.678c-.576-.077-1.143-.144-1.393.188a1,1,0,0,0-.038.866,1.256,1.256,0,0,0-.263.565,1.287,1.287,0,0,0,.151.866,3.261,3.261,0,0,0,.063,1.042,3.409,3.409,0,0,0,1.028,1.745,3.638,3.638,0,0,0,1.243.753l.691.515,3.163-3.666" transform="translate(-141.296 -38.496)" fill="#e6a893"/>
                <path id="Trazado_217100" data-name="Trazado 217100" d="M501.377,132.658a12.767,12.767,0,0,1,2.994-8.416l-2.994,8.416" transform="translate(-151.633 -37.575)" fill="#1b4652"/>
                <path id="Trazado_217101" data-name="Trazado 217101" d="M499.391,152.974a10.643,10.643,0,0,1-5.1,1.214c-5.646-.128-9-5-9.387-5.583l14.486,4.37" transform="translate(-146.652 -44.943)" fill="#1f525e"/>
                <path id="Trazado_217102" data-name="Trazado 217102" d="M496.225,142.791c-3.122-1.158-7.25-2.691-10.371-3.851-3.706-1.378-7.876-2.93-11.58-4.312a3.487,3.487,0,0,0-2.162,1.982,3.376,3.376,0,0,0,0,2.346,53.675,53.675,0,0,0,21.072,10.683,3.623,3.623,0,0,0,4.433-2.465q.048-.181.081-.375a4.572,4.572,0,0,0-1.468-4.008" transform="translate(-142.717 -40.716)" fill="#235c6b"/>
                <path id="Trazado_217103" data-name="Trazado 217103" d="M478.711,136.077a5.963,5.963,0,0,0-4.9,5.5l-2.611-2.887a4.727,4.727,0,0,1,.9-2.259,4.825,4.825,0,0,1,2.711-1.757l3.891,1.406" transform="translate(-142.508 -40.729)" fill="#1b4652"/>
                <path id="Trazado_217106" data-name="Trazado 217106" d="M85.21,310.665h0a2.927,2.927,0,0,1-2.927-2.927V272.087a2.927,2.927,0,0,1,5.854,0v35.651a2.927,2.927,0,0,1-2.927,2.927" transform="translate(-24.885 -81.403)" fill="#48626e"/>
                <rect id="Rectángulo_291978" data-name="Rectángulo 291978" width="35.82" height="2.441" transform="translate(42.415 224.554)" fill="#48626e"/>
                <path id="Trazado_217107" data-name="Trazado 217107" d="M62.273,323.27a4.36,4.36,0,1,1-4.36-4.36,4.36,4.36,0,0,1,4.36,4.36" transform="translate(-16.196 -96.449)" fill="#48626e"/>
                <path id="Trazado_217108" data-name="Trazado 217108" d="M115.626,323.27a4.36,4.36,0,1,1-4.36-4.36,4.36,4.36,0,0,1,4.36,4.36" transform="translate(-32.332 -96.449)" fill="#48626e"/>
                <path id="Trazado_217109" data-name="Trazado 217109" d="M422.273,308.178h0a2.927,2.927,0,0,1-2.927-2.927V269.6a2.927,2.927,0,0,1,5.854,0v35.651a2.927,2.927,0,0,1-2.927,2.927" transform="translate(-126.824 -80.651)" fill="#48626e"/>
                <rect id="Rectángulo_291979" data-name="Rectángulo 291979" width="35.82" height="2.441" transform="translate(277.539 222.819)" fill="#48626e"/>
                <path id="Trazado_217110" data-name="Trazado 217110" d="M399.336,320.783a4.36,4.36,0,1,1-4.36-4.36,4.36,4.36,0,0,1,4.36,4.36" transform="translate(-118.135 -95.697)" fill="#48626e"/>
                <path id="Trazado_217111" data-name="Trazado 217111" d="M452.689,320.783a4.36,4.36,0,1,1-4.36-4.36,4.36,4.36,0,0,1,4.36,4.36" transform="translate(-134.271 -95.697)" fill="#48626e"/>
                <path id="Trazado_217112" data-name="Trazado 217112" d="M433.225,259.34l8.207.9a29.63,29.63,0,0,0,6.922-9.414,30.233,30.233,0,0,0,2.4-16.981l-12.09.092q-2.718,12.7-5.438,25.4" transform="translate(-131.022 -70.723)" fill="#597987"/>
                <path id="Trazado_217113" data-name="Trazado 217113" d="M392.2,276.63l2.215,3.507a62.7,62.7,0,0,0,35.254-.184l1.846-3.507-39.315.185" transform="translate(-118.615 -83.606)" fill="#48626e"/>
                <path id="Trazado_217114" data-name="Trazado 217114" d="M374.255,274.605h41.474a2.873,2.873,0,0,0,2.873-2.873,5.646,5.646,0,0,0-5.646-5.646H379.9a5.646,5.646,0,0,0-5.646,5.646Z" transform="translate(-113.187 -80.473)" fill="#b0784a"/>
                <path id="Trazado_217115" data-name="Trazado 217115" d="M423.861,221.163h29.213a5.032,5.032,0,0,0,4.925-4l11.681-55.9a2.063,2.063,0,0,0-2.019-2.484H444.4a9.237,9.237,0,0,0-9.041,7.347Z" transform="translate(-128.19 -48.019)" fill="#b0784a"/>
                <path id="Trazado_217116" data-name="Trazado 217116" d="M421.216,221.163h27.264a5.984,5.984,0,0,0,5.858-4.76L465.8,161.531a2.287,2.287,0,0,0-2.239-2.755h-22.2a10.19,10.19,0,0,0-9.975,8.105l-11.1,53.134a.954.954,0,0,0,.933,1.148" transform="translate(-127.102 -48.019)" fill="#d6a37a"/>
                <path id="Trazado_217117" data-name="Trazado 217117" d="M398.156,274.605h41.475a2.873,2.873,0,0,0,2.873-2.873,5.646,5.646,0,0,0-5.646-5.646H403.8a5.646,5.646,0,0,0-5.646,5.646Z" transform="translate(-120.416 -80.473)" fill="#d6a37a"/>
                <path id="Trazado_217118" data-name="Trazado 217118" d="M356.849,225.966c-.12.823.844,1.394.887,2.52,0,.1.006.332.129.39.174.081.526-.21.682-.515a1.435,1.435,0,0,0-.089-1.24,1.464,1.464,0,0,0,.451-.459c.417-.686.239-1.773-.272-2-.569-.255-1.671.505-1.788,1.307" transform="translate(-107.92 -67.929)" fill="#eba88b"/>
                <path id="Trazado_217119" data-name="Trazado 217119" d="M368.741,320l.283,1.169a2.4,2.4,0,0,1,.557.741,2.445,2.445,0,0,1,.22,1.336l-4.711.813c-.753.272-1.692.576-2.788.852-.873.22-1.586.357-2.268.478-3.947.7-6.345,1.12-6.762.308a.884.884,0,0,1,.067-.886c.111-.123.294-.16.656-.229.633-.119.95-.179.98-.182.492-.049,2.967-.892,9.361-3.339l.448-1.445,3.957.384" transform="translate(-106.815 -96.661)" fill="#232a2b"/>
                <path id="Trazado_217120" data-name="Trazado 217120" d="M351.5,319.189l.283,1.169a2.406,2.406,0,0,1,.557.741,2.452,2.452,0,0,1,.22,1.336l-4.711.813c-.753.272-1.692.575-2.788.852-.873.22-1.586.357-2.268.478-3.947.7-6.345,1.12-6.762.308A.884.884,0,0,1,336.1,324c.111-.123.294-.16.656-.229.633-.119.95-.179.98-.182.492-.049,2.967-.892,9.361-3.339q.225-.723.448-1.445l3.957.384" transform="translate(-101.601 -96.417)" fill="#232a2b"/>
                <path id="Trazado_217121" data-name="Trazado 217121" d="M403.013,248.879a9.754,9.754,0,0,1,.14,6.421c-1.272,3.335-4.743,4.822-8.882,5.931-10.226,2.742-21.721,2.434-29.087,1.843-1.071,5.746-2.345,11.763-3.864,18.012-1.442,5.933-2.98,11.563-4.567,16.88a9.7,9.7,0,0,1-7.5-.414q1.047-9.618,2.249-19.437,1.391-11.356,2.918-22.395A5.342,5.342,0,0,1,359.162,251l43.85-2.116" transform="translate(-105.627 -75.269)" fill="#2b3436"/>
                <path id="Trazado_217122" data-name="Trazado 217122" d="M420.8,247.348c.615,1.67,1.537,4.939.276,7.972-1.42,3.416-4.9,4.835-8.881,5.931-5,1.376-14.235,3.2-28.1,2.145q-2.434,8.824-4.853,17.71-2.3,8.459-4.566,16.88a6.232,6.232,0,0,1-4.177,1.038,6.441,6.441,0,0,1-3.32-1.452q1.048-9.618,2.249-19.437,1.391-11.356,2.918-22.395a5.341,5.341,0,0,1,4.739-4.724Z" transform="translate(-111.048 -74.806)" fill="#313b3d"/>
                <path id="Trazado_217123" data-name="Trazado 217123" d="M395.3,202.984a5.744,5.744,0,0,0,2.553,1.847,6.27,6.27,0,0,0,5.207-.682q1.114-4.116,2.213-8.287,1.413-5.367,2.758-10.669a14.194,14.194,0,0,0-1.708-4.917c-1.607-2.8-4.708-5.9-6.275-5.2-.349.156-.827.592-1.021,2.031-.668,2.942-1.284,6.036-1.824,9.275a163.5,163.5,0,0,0-1.9,16.607" transform="translate(-119.553 -52.917)" fill="#313b3d"/>
                <path id="Trazado_217125" data-name="Trazado 217125" d="M432.354,229.939c-3.265,2.015-12.372,7.008-23.778,5.237a32.248,32.248,0,0,1-9.341-2.972c-.237-3.309-.518-7.869-.708-13.3-.183-5.242-.426-12.156-.142-19.815a184.248,184.248,0,0,1,2.831-25.9c1.339-.555,2.763-1.209,4.246-1.981a54.16,54.16,0,0,0,4.813-2.831l7.926-.85c1.386.9,2.895,1.809,4.529,2.689a63.474,63.474,0,0,0,9.766,4.246c-.735,5.5-1.362,11.264-1.84,17.268q-.461,5.791-.7,11.3a102.685,102.685,0,0,0,2.4,26.918" transform="translate(-120.446 -50.664)" fill="#313b3d"/>
                <path id="Trazado_217126" data-name="Trazado 217126" d="M428.341,195.687l5.52.425-.354,1.7-5.945-.425.778-1.7" transform="translate(-129.309 -59.182)" fill="#232a2b"/>
                <path id="Trazado_217127" data-name="Trazado 217127" d="M409.407,210.7c-1.262-4.919-2.432-10.267-3.407-16.012-.819-4.827-1.415-9.428-1.839-13.764l4.365-10.42,3.131-1.8q-.443,14.664-.887,29.327-.682,6.337-1.363,12.673" transform="translate(-122.232 -51.021)" fill="#424f52"/>
                <path id="Trazado_217128" data-name="Trazado 217128" d="M411.682,209.9a205.769,205.769,0,0,0,11.711-18.34c2.105-3.717,4.009-7.347,5.733-10.863l-1.076-11.031-6.316-3.4q-2.948,10.164-5.9,20.328l-4.156,23.3" transform="translate(-124.506 -50.284)" fill="#424f52"/>
                <path id="Trazado_217129" data-name="Trazado 217129" d="M411.494,210.237c.993-4.467,2.162-9.109,3.543-13.9a232.076,232.076,0,0,1,9.829-27.474l-2.548-1.7-8.492,1.167-1.062,1.38q-.429,4.257-.743,8.669a294.676,294.676,0,0,0-.528,31.855" transform="translate(-124.387 -50.557)" fill="#ccf4ff"/>
                <path id="Trazado_217130" data-name="Trazado 217130" d="M423.912,156.03c-.066.764-.114,1.559-.136,2.385a40.87,40.87,0,0,0,.293,6.155,20.458,20.458,0,0,1-7.3,7.44,12.354,12.354,0,0,1-3.03-5.983q-.409-5.126-.818-10.253a27.149,27.149,0,0,0,10.994.256" transform="translate(-124.88 -47.111)" fill="#f7b9a5"/>
                <path id="Trazado_217131" data-name="Trazado 217131" d="M413.809,163.526a7,7,0,0,0,1.681,3.41,13.146,13.146,0,0,0,8.669-9.8l-1.167-.638-9.183,7.028" transform="translate(-125.15 -47.33)" fill="#f29d83"/>
                <path id="Trazado_217132" data-name="Trazado 217132" d="M405.925,139.217a4.631,4.631,0,0,0-.513,1.819,5.221,5.221,0,0,0,1.5,3.821l1.173-2.148-2.165-3.492" transform="translate(-122.607 -42.104)" fill="#e0a263"/>
                <path id="Trazado_217133" data-name="Trazado 217133" d="M407.348,141.82a7.462,7.462,0,0,1-1.124-1.41,7.61,7.61,0,0,1-1.073-3.163,2.009,2.009,0,0,1,1.2-1.376l2.513,3.069-1.512,2.88" transform="translate(-122.531 -41.092)" fill="#e8b582"/>
                <path id="Trazado_217134" data-name="Trazado 217134" d="M422.59,138.645c0,.768,0,1.969-.036,3.437-.262,9.924-1.682,11.77-2.42,12.544a9.491,9.491,0,0,1-3.061,1.98c-1.544.755-5.016,2.455-7.62.974a4.765,4.765,0,0,1-1.339-1.185c-2.086-2.451-1.914-5.729-1.735-9.124a32.048,32.048,0,0,1,.416-3.623,33.774,33.774,0,0,1,1.609-6.026,15.557,15.557,0,0,1,4.091-1.083,16.768,16.768,0,0,1,10.1,2.107" transform="translate(-122.873 -41.26)" fill="#fcc6ae"/>
                <path id="Trazado_217142" data-name="Trazado 217142" d="M427.786,147.389a17.574,17.574,0,0,1-1.29-1.817,18.467,18.467,0,0,1-2.594-7.551,14.643,14.643,0,0,1,6.748,1.284,10.735,10.735,0,0,1-1.226,7.726l-1.639.358" transform="translate(-128.202 -41.737)" fill="#dba36b"/>
                <path id="Trazado_217143" data-name="Trazado 217143" d="M426.084,139.7a17.8,17.8,0,0,0-3.917-1.74,19.551,19.551,0,0,0-12.3.518,7.313,7.313,0,0,1-1.363-.785,7.716,7.716,0,0,1-2.518-3.224,12.579,12.579,0,0,1,7.83-3.632,15.993,15.993,0,0,1,12.306,6.594,3.9,3.9,0,0,1-.036,2.268" transform="translate(-122.783 -39.569)" fill="#e8b582"/>
                <path id="Trazado_217147" data-name="Trazado 217147" d="M434.043,238.756l-10.066.033q.184,1.341.368,2.681l9.564-.281.134-2.433" transform="translate(-128.225 -72.208)" fill="#424f52"/>
                <path id="Trazado_217148" data-name="Trazado 217148" d="M396.692,238.955l.218,2.681,5.657-.281.079-2.434-5.954.033" transform="translate(-119.973 -72.258)" fill="#424f52"/>
                <path id="Trazado_217149" data-name="Trazado 217149" d="M421.25,181.739l-4.494-2.335-3.751,1.628,3.609-.956,4.635,1.663" transform="translate(-124.907 -54.258)" fill="#aad5e0"/>
                <path id="Trazado_217151" data-name="Trazado 217151" d="M428.216,150.82a2.671,2.671,0,0,1,1.058-.6,2.338,2.338,0,0,1,.867-.077,4.3,4.3,0,0,1,.776,1.06,5.259,5.259,0,0,1,.55,1.787,4.4,4.4,0,0,1-.744,1.465,3.2,3.2,0,0,1-1.869,1.189,1.236,1.236,0,0,1-.712-.288,1.776,1.776,0,0,1-.52-.758l.592-3.78" transform="translate(-129.328 -45.405)" fill="#fcc6ae"/>
                <path id="Trazado_217152" data-name="Trazado 217152" d="M428.545,153.2a2.9,2.9,0,0,1,.664-.879,2.191,2.191,0,0,1,1.225-.551,2.885,2.885,0,0,1,.608.944,3.409,3.409,0,0,1,.218.852,3.037,3.037,0,0,1-.823,1.09,2.293,2.293,0,0,1-2,.437,1.478,1.478,0,0,0,.337-.732,1.754,1.754,0,0,0-.228-1.161" transform="translate(-129.573 -45.902)" fill="#f2aa94"/>
                <g id="Grupo_871576" data-name="Grupo 871576" transform="translate(284.349 97.238)" opacity="0.15" style="mix-blend-mode: multiply;isolation: isolate">
                  <g id="Grupo_871575" data-name="Grupo 871575">
                    <g id="Grupo_871574" data-name="Grupo 871574" clip-path="url(#clip-path-7)">
                      <path id="Trazado_217159" data-name="Trazado 217159" d="M407.63,142.474l.859-2.3,1.874.894a24.879,24.879,0,0,1,8.459-.963l.675,1.044.222-.8a16.949,16.949,0,0,1,6.258,1.6,18.46,18.46,0,0,0-15.6-1.462l-2.061-1.031q-.344,1.512-.687,3.023" transform="translate(-407.63 -139.396)" fill="#5c3d48"/>
                    </g>
                  </g>
                </g>
                <path id="Trazado_217160" data-name="Trazado 217160" d="M415.3,136.564c.066.05.6-.7,1.236-1.288,2.085-1.925,5.188-2.027,5.152-2.215-.022-.113-1.116.06-1.27-.326-.065-.162.084-.3,0-.412-.18-.237-1.016.218-1.168,0-.082-.117.116-.306.034-.412-.142-.183-.812.287-1.134.034-.135-.106-.086-.243-.172-.343-.3-.355-1.911.2-3.159,1.236a6.66,6.66,0,0,0-2.473,4.568c.074.038.352-.52.755-.481.2.02.218.163.412.172.363.017.535-.472.824-.412.16.033.17.2.31.206.208.016.38-.329.549-.619a4.893,4.893,0,0,1,.962-1.236,13.62,13.62,0,0,0-.859,1.528" transform="translate(-124.699 -39.768)" fill="#fccd9c"/>
                <path id="Trazado_217161" data-name="Trazado 217161" d="M415.421,131.794a9.606,9.606,0,0,0-1.614,1.271,10.141,10.141,0,0,0-2.164,4.19,4.573,4.573,0,0,1,.824-3.159,5.9,5.9,0,0,1,2.954-2.3" transform="translate(-124.478 -39.858)" fill="#fccd9c"/>
                <path id="Trazado_217162" data-name="Trazado 217162" d="M410.664,137.344a3.214,3.214,0,0,1-.343-2.164,4.567,4.567,0,0,1,2.095-3.091,6.56,6.56,0,0,0-1.546,2.542,9.526,9.526,0,0,0-.206,2.713" transform="translate(-124.083 -39.948)" fill="#fccd9c"/>
                <path id="Trazado_217167" data-name="Trazado 217167" d="M449.694,205.244a5.745,5.745,0,0,1-2.552,1.847,6.268,6.268,0,0,1-5.208-.682q-1.114-4.115-2.213-8.286-1.413-5.368-2.757-10.669a14.191,14.191,0,0,1,1.708-4.918c1.607-2.8,4.708-5.9,6.275-5.2.349.156.827.592,1.021,2.031.668,2.942,1.284,6.037,1.824,9.275a163.544,163.544,0,0,1,1.9,16.607" transform="translate(-132.152 -53.601)" fill="#313b3d"/>
                <path id="Trazado_217168" data-name="Trazado 217168" d="M432.581,211.135c.272.684,2.951,7.642-.075,11.068-3.115,3.526-12.13,3.149-19.98-4.266l20.055-6.8" transform="translate(-124.762 -63.854)" fill="#232a2b"/>
                <path id="Trazado_217169" data-name="Trazado 217169" d="M419.307,222.563a52.088,52.088,0,0,0,24.492-5.168,6.338,6.338,0,0,0,.106-2.792c-.646-3.362-3.93-4.912-4.365-5.109-.96.353-2.506.909-4.429,1.547-4.718,1.563-8.329,2.57-9.441,2.871-1.941.526-4.374,1.146-7.207,1.774a6.972,6.972,0,0,0,.845,6.877" transform="translate(-126.392 -63.358)" fill="#313b3d"/>
                <path id="Trazado_217170" data-name="Trazado 217170" d="M418.844,224.841a4.631,4.631,0,0,0,.728-1.9,5.144,5.144,0,0,0-1.205-3.883l-1.994.556a5.938,5.938,0,0,0-.223,1.97,6.143,6.143,0,0,0,1.19,3.258l1.5,0" transform="translate(-125.855 -66.25)" fill="#ccf4ff"/>
                <path id="Trazado_217171" data-name="Trazado 217171" d="M372.859,221.629a52.1,52.1,0,0,0,24.231-6.276,6.339,6.339,0,0,0-.021-2.794c-.8-3.329-4.149-4.728-4.594-4.905-.942.4-2.462,1.022-4.354,1.746-4.642,1.776-8.2,2.946-9.3,3.3-1.916.614-4.318,1.343-7.119,2.1a6.976,6.976,0,0,0,1.156,6.832" transform="translate(-112.286 -62.802)" fill="#313b3d"/>
                <path id="Trazado_217172" data-name="Trazado 217172" d="M372.369,224.307a4.627,4.627,0,0,0,.641-1.934,5.152,5.152,0,0,0-1.38-3.825l-1.968.647a5.946,5.946,0,0,0-.133,1.978,6.144,6.144,0,0,0,1.337,3.2l1.5-.066" transform="translate(-111.749 -66.097)" fill="#ccf4ff"/>
                <path id="Trazado_217173" data-name="Trazado 217173" d="M438.526,192.052c.169,2.571.46,5.33.919,8.247.281,1.784.6,3.489.954,5.11l-1.5.886a11.068,11.068,0,0,1,2.453.068c2.838.4,4.427,1.774,4.565,1.567s-1.411-1.949-3.679-2.453a6.047,6.047,0,0,0-1.023-.136q-1.344-6.644-2.69-13.289" transform="translate(-132.625 -58.083)" fill="#232a2b"/>
                <path id="Trazado_217174" data-name="Trazado 217174" d="M398.657,209.585c-.119-1.9-.173-3.9-.136-6a75.167,75.167,0,0,1,1.908-15.535q-.886,10.766-1.772,21.531" transform="translate(-120.523 -56.874)" fill="#232a2b"/>
                <path id="Trazado_217175" data-name="Trazado 217175" d="M430.108,256.128a17.024,17.024,0,0,1-11.265,2,17.208,17.208,0,0,1-10.833-6.93l-9.6-.52.466-1.252,9.676.409a18.492,18.492,0,0,0,7.107,5.841,19.47,19.47,0,0,0,14.445.454" transform="translate(-120.493 -75.434)" fill="#232a2b"/>
                <path id="Trazado_217176" data-name="Trazado 217176" d="M361.575,224.129a15.05,15.05,0,0,0-1.537.9c-1.242.825-1.345,1.161-1.35,1.376a.765.765,0,0,0,.3.663c.564.331,1.255-.887,3.129-1.559a8.127,8.127,0,0,0,2.13-.758,4.736,4.736,0,0,0,1.128-1.02l.991.042a4.188,4.188,0,0,0-.679-3.991c-.711.076-1.29.158-1.677.217-3.145.48-3.295.917-6.1,1.581a2.533,2.533,0,0,0-1.1.511,4.029,4.029,0,0,0-.863,1.364,5.023,5.023,0,0,0-.676,1.7c-.019.479.128.44.186,1.357.023.368.013.589.167.7.2.136.551,0,.737-.142.691-.534.206-2.079.184-2.146l1.293-1.327,2.008.043,1.731.495" transform="translate(-107.445 -66.469)" fill="#fcc6ae"/>
                <path id="Trazado_217177" data-name="Trazado 217177" d="M407.685,224.713a10.8,10.8,0,0,0,2.4.2,10.618,10.618,0,0,0,1.606-.167l1.027.162a4.389,4.389,0,0,0-.232-4.238c-1.344.188-2.451.285-3.225.341-1.7.122-3.391.41-5.087.606a2.646,2.646,0,0,0-1.21.4c-.136.089-.379.27-1.061,1.318a5.291,5.291,0,0,0-.908,1.7c-.076.5.082.474.033,1.436-.02.386-.057.615.092.744.19.165.574.066.784-.061.783-.474.462-2.142.447-2.214l1.5-1.228,2.086.283,1.744.721" transform="translate(-121.268 -66.738)" fill="#fcc6ae"/>
                <path id="Trazado_217178" data-name="Trazado 217178" d="M402.154,227.726a1.348,1.348,0,0,0,1.028.024c.519-.246.525-.85,1.025-1.514a3.294,3.294,0,0,1,1.327-1.017,4.281,4.281,0,0,0-.617,1.019c-.119.28-.458,1.071-.209,1.274.162.131.516-.034.7-.156.423-.277.483-.658.7-1.023.58-1,1.7-.842,1.746-1.315.051-.555-1.437-1.44-2.91-1.307a3.183,3.183,0,0,0-1.965.893,3.548,3.548,0,0,0-.822,3.121" transform="translate(-121.602 -67.654)" fill="#fcc6ae"/>
                <path id="Trazado_217179" data-name="Trazado 217179" d="M398.991,225.6c-.16-.142-.054-.519.143-1.033a5.865,5.865,0,0,1,1.327-2.517c.681-.556,1.413-.506,3.011-.514,1.113,0,2.737-.038,4.765-.172a22.811,22.811,0,0,1-5.749,1.724,2.227,2.227,0,0,0-1.242.382c-.748.57-.588,1.459-1.435,1.969-.241.145-.65.313-.82.162" transform="translate(-120.645 -66.946)" fill="#fcc6ae"/>
                <path id="Trazado_217180" data-name="Trazado 217180" d="M204.231,143.8a48.382,48.382,0,0,1-4.51,6.72,49.142,49.142,0,0,1-12.987,11.337,8.869,8.869,0,0,1-2.723-1.165,9.25,9.25,0,0,1-3.444-4.153,54.8,54.8,0,0,1,5.319-6.166c1.986-1.979,3.291-2.966,7.953-6.944,2.152-1.836,3.878-3.335,4.94-4.263a6.5,6.5,0,0,1,2.957,1.13,6.65,6.65,0,0,1,2.494,3.5" transform="translate(-54.61 -42.089)" fill="#2d3638"/>
                <path id="Trazado_217181" data-name="Trazado 217181" d="M211.705,143.437a4.95,4.95,0,0,1-2.139-.416,5.506,5.506,0,0,1-2.842-3.293l1.634-1.5a6.359,6.359,0,0,1,1.914.914,6.569,6.569,0,0,1,2.283,2.924l-.85,1.367" transform="translate(-62.52 -41.806)" fill="#ccf4ff"/>
                <path id="Trazado_217182" data-name="Trazado 217182" d="M211.843,128.78c-1.145,1.312-1.306,1.253-1.607,1.823a4.736,4.736,0,0,0-.294,3.329l-1.055,1.33a5.727,5.727,0,0,0,1.291,1.793,5.787,5.787,0,0,0,2.554,1.379l.931-1.145a2.832,2.832,0,0,0,.816.158,3.669,3.669,0,0,0,1.439-.3,7.007,7.007,0,0,0,1.831-.742,2.315,2.315,0,0,0,.654-1.4A1.625,1.625,0,0,0,219.668,133a1.312,1.312,0,0,0,1.5-.886,1.073,1.073,0,0,0-.29-.814c.073-.083.707-.822.465-1.453-.182-.475-.748-.6-1.744-.814-.657-.143-1.168-.246-1.57.058a1.2,1.2,0,0,0-.407.64l-4.827.836q.1-.369.209-.737a3.175,3.175,0,0,0,1.327-2.625c-.029-.23-.075-.608-.291-.7-.368-.151-.877.762-2.193,2.271" transform="translate(-63.174 -38.256)" fill="#fcc6ae"/>
                <path id="Trazado_217183" data-name="Trazado 217183" d="M188.194,148.655a5.4,5.4,0,0,1-2.035,2.324,6.2,6.2,0,0,1-5.618.087q-1.819-4.184-3.629-8.429-2.329-5.462-4.575-10.866a14.836,14.836,0,0,1,1.045-5.47c1.47-3.666,4.7-7.3,6.233-6.708.411.16.843.683,1,2.215,1.173,2.967,2.31,6.148,3.37,9.535a138.25,138.25,0,0,1,4.212,17.311" transform="translate(-52.12 -36.15)" fill="#2d3638"/>
                <path id="Trazado_217184" data-name="Trazado 217184" d="M149.012,82.859a1.532,1.532,0,0,0-1.416-.732c-.74.054-1.355.646-1.27.879.063.172.553.28,2.686-.146" transform="translate(-44.252 -24.837)" fill="#8c5252"/>
                <path id="Trazado_217185" data-name="Trazado 217185" d="M176.15,80.378a6.027,6.027,0,0,1,2.441,2.588c1.154,2.469.35,5.741-2.051,8.2q-.2-5.4-.391-10.791" transform="translate(-53.274 -24.309)" fill="#7a4747"/>
                <path id="Trazado_217186" data-name="Trazado 217186" d="M129.994,317.187a12.735,12.735,0,0,0,2.721.68,13.216,13.216,0,0,0,6.208-.68q-.042-.808-.084-1.616a4.2,4.2,0,0,1-1.021-1.021,4.806,4.806,0,0,1-.681-3.572l-5.018-.426a5.349,5.349,0,0,1-.34,1.616,10.163,10.163,0,0,1-1.191,1.956,5.063,5.063,0,0,0-.6,3.062" transform="translate(-39.308 -93.922)" fill="#232a2b"/>
                <path id="Trazado_217187" data-name="Trazado 217187" d="M171.779,311l-.17,1.276a2.57,2.57,0,0,0-.51.85,2.613,2.613,0,0,0-.085,1.446l5.1.34c.832.205,1.865.424,3.062.6.954.137,1.727.2,2.467.255,4.277.3,6.876.486,7.229-.425a.949.949,0,0,0-.17-.935c-.131-.119-.331-.138-.723-.17-.688-.057-1.032-.085-1.063-.085-.529,0-3.257-.618-10.334-2.509q-.318-.744-.638-1.488l-4.167.85" transform="translate(-51.701 -93.799)" fill="#232a2b"/>
                <path id="Trazado_217188" data-name="Trazado 217188" d="M136.208,203.835q-.5,5.077-.956,10.205-3,33.751-3.827,65.827a8.63,8.63,0,0,0,6.856,0q3.584-17.577,7.653-35.72,4.195-18.674,8.609-36.571l-18.335-3.742" transform="translate(-39.747 -61.647)" fill="#313b3d"/>
                <path id="Trazado_217189" data-name="Trazado 217189" d="M160.951,207.7q-.118,6.173,0,12.587a331.428,331.428,0,0,0,6.635,59.813,18.962,18.962,0,0,0,7.555-1.3q.244-18.948.8-38.441.515-18.013,1.275-35.549L160.951,207.7" transform="translate(-48.659 -61.942)" fill="#313b3d"/>
                <path id="Trazado_217190" data-name="Trazado 217190" d="M134.808,178.067c3.493,2.155,13.236,7.5,25.44,5.6a34.531,34.531,0,0,0,9.994-3.18c.253-3.541.554-8.419.757-14.234.2-5.608.455-13,.151-21.2a197.143,197.143,0,0,0-3.028-27.711c-1.432-.594-2.956-1.293-4.543-2.12a57.586,57.586,0,0,1-5.149-3.028l-8.48-.909c-1.483.966-3.1,1.936-4.846,2.877a67.956,67.956,0,0,1-10.448,4.543c.786,5.888,1.457,12.051,1.969,18.474q.494,6.2.753,12.086a109.889,109.889,0,0,1-2.571,28.8" transform="translate(-40.725 -33.657)" fill="#313b3d"/>
                <path id="Trazado_217191" data-name="Trazado 217191" d="M152.482,156.468a20.19,20.19,0,0,1-3.369,4.907,20.828,20.828,0,0,1-9.375,5.713l-.513-3.442,13.257-7.178" transform="translate(-42.106 -47.321)" fill="#232a2b"/>
                <path id="Trazado_217192" data-name="Trazado 217192" d="M152.063,141.422l-5.906.454.379,1.817,6.36-.454-.833-1.817" transform="translate(-44.203 -42.771)" fill="#232a2b"/>
                <path id="Trazado_217193" data-name="Trazado 217193" d="M168.033,157.968a87.109,87.109,0,0,0,8.745-31.231q-2.235-6.127-4.471-12.256l-3.35-1.931q-.461,15.876-.924,31.752Z" transform="translate(-50.819 -34.039)" fill="#424f52"/>
                <path id="Trazado_217194" data-name="Trazado 217194" d="M161.386,157.18c-2.668-6.464-5.714-13.215-9.2-20.177q-3.034-6.063-6.133-11.622l1.151-11.8,6.757-3.634q2.538,11.227,5.076,22.456Z" transform="translate(-44.172 -33.251)" fill="#424f52"/>
                <path id="Trazado_217195" data-name="Trazado 217195" d="M163.306,157.471c-.529-4.64-1.266-9.537-2.271-14.65a184.449,184.449,0,0,0-8.632-30.1l2.726-1.817,9.085,1.249,1.136,1.476c.361,2.963.635,6.058.8,9.275a132.989,132.989,0,0,1-2.839,34.563" transform="translate(-46.092 -33.542)" fill="#ccf4ff"/>
                <path id="Trazado_217196" data-name="Trazado 217196" d="M154.725,98.86a20,20,0,0,1,.34,2.555,20.457,20.457,0,0,1-.681,6.757,21.868,21.868,0,0,0,7.813,7.96,13.841,13.841,0,0,0,1.783-2.452,13.992,13.992,0,0,0,1.647-4.372l.965-4.429a16.639,16.639,0,0,0-8.007-5.394,15.591,15.591,0,0,0-3.861-.625" transform="translate(-46.691 -29.899)" fill="#f7b9a5"/>
                <path id="Trazado_217197" data-name="Trazado 217197" d="M166.3,107.139a7.512,7.512,0,0,1-1.8,3.649,14.068,14.068,0,0,1-9.275-10.487l1.249-.681,9.825,7.518" transform="translate(-46.945 -30.129)" fill="#f29d83"/>
                <path id="Trazado_217198" data-name="Trazado 217198" d="M154.139,80.519c0,.822,0,2.106.038,3.677.28,10.617,1.8,12.592,2.589,13.42a10.136,10.136,0,0,0,3.275,2.118c1.651.808,5.366,2.628,8.152,1.042a5.114,5.114,0,0,0,1.433-1.267c2.232-2.622,2.047-6.13,1.856-9.762a34.567,34.567,0,0,0-.445-3.877,36.133,36.133,0,0,0-1.721-6.447,16.673,16.673,0,0,0-4.377-1.158,17.934,17.934,0,0,0-10.8,2.254" transform="translate(-46.616 -23.633)" fill="#fcc6ae"/>
                <path id="Trazado_217203" data-name="Trazado 217203" d="M122.55,150.335a5.4,5.4,0,0,0,2.035,2.325,6.2,6.2,0,0,0,5.618.087q1.819-4.184,3.629-8.429,2.329-5.462,4.575-10.866a14.838,14.838,0,0,0-1.045-5.47c-1.47-3.666-4.7-7.3-6.233-6.708-.411.16-.843.683-1,2.216-1.173,2.967-2.31,6.147-3.37,9.534a138.251,138.251,0,0,0-4.212,17.311" transform="translate(-37.063 -36.658)" fill="#313b3d"/>
                <path id="Trazado_217204" data-name="Trazado 217204" d="M158.747,126.5l4.808-2.5,4.013,1.742-3.862-1.023-4.959,1.779" transform="translate(-48.01 -37.502)" fill="#aad5e0"/>
                <path id="Trazado_217206" data-name="Trazado 217206" d="M138.642,208.136c6.446,3.144,12.987,3.342,16.692.059a8.778,8.778,0,0,0,2.087-2.8,6.871,6.871,0,0,0,1.669,3.04c2.353,2.442,6.614,2.882,10.791,1.193a11.551,11.551,0,0,1-7.909,1.888,11.18,11.18,0,0,1-5.246-2.226,15.207,15.207,0,0,1-6.835,2.385,16.063,16.063,0,0,1-11.248-3.537" transform="translate(-41.93 -62.118)" fill="#232a2b"/>
                <path id="Trazado_217207" data-name="Trazado 217207" d="M143.691,186.6l10.769.036-.393,2.868-10.232-.3q-.072-1.3-.144-2.6" transform="translate(-43.457 -56.433)" fill="#424f52"/>
                <path id="Trazado_217208" data-name="Trazado 217208" d="M184.908,186.809q-.143,1.435-.287,2.868l-7.479-.3-.1-2.6,7.871.036" transform="translate(-53.542 -56.486)" fill="#424f52"/>
                <path id="Trazado_217211" data-name="Trazado 217211" d="M169.9,78.89a26.637,26.637,0,0,1-3.809,2.1,29.268,29.268,0,0,1-16.407,2,6.777,6.777,0,0,1-.488-4.395c1.041-3.96,6.256-5.58,9.473-5.713,6.563-.272,10.787,5.391,11.231,6.006" transform="translate(-45.066 -22.04)" fill="#8c5252"/>
                <path id="Trazado_217212" data-name="Trazado 217212" d="M157.12,86.8a4.385,4.385,0,0,1-.684,3.027,4.455,4.455,0,0,1-3.027,1.856l-1.563-.537a5.645,5.645,0,0,1-1.758-4.883l7.031.537" transform="translate(-45.377 -26.087)" fill="#8c5252"/>
                <path id="Trazado_217213" data-name="Trazado 217213" d="M153.9,93.546a2.869,2.869,0,0,0-1.132-.64,2.516,2.516,0,0,0-.928-.083,4.57,4.57,0,0,0-.83,1.134,5.617,5.617,0,0,0-.589,1.913,4.7,4.7,0,0,0,.8,1.567,3.422,3.422,0,0,0,2,1.272,1.318,1.318,0,0,0,.762-.308,1.888,1.888,0,0,0,.555-.811q-.316-2.022-.633-4.044" transform="translate(-45.493 -28.069)" fill="#fcc6ae"/>
                <path id="Trazado_217214" data-name="Trazado 217214" d="M154.024,96.1a3.111,3.111,0,0,0-.71-.94A2.344,2.344,0,0,0,152,94.566a3.093,3.093,0,0,0-.649,1.01,3.657,3.657,0,0,0-.234.912A3.242,3.242,0,0,0,152,97.653a2.451,2.451,0,0,0,2.141.467,1.581,1.581,0,0,1-.361-.783,1.875,1.875,0,0,1,.243-1.242" transform="translate(-45.703 -28.6)" fill="#f2aa94"/>
                <path id="Trazado_217215" data-name="Trazado 217215" d="M148.828,83.318a1.814,1.814,0,0,1-.781,1.9c-.356.205-.915.326-1.025.146s.144-.638,1.807-2.051" transform="translate(-44.458 -25.198)" fill="#8c5252"/>
                <path id="Trazado_217216" data-name="Trazado 217216" d="M169.7,78.571a11.349,11.349,0,0,0-3.565-2.734,12.832,12.832,0,0,0-10.01-.146,18.625,18.625,0,0,1,4.883-.2,19.137,19.137,0,0,1,8.692,3.076" transform="translate(-47.219 -22.6)" fill="#9e5d5d"/>
                <path id="Trazado_217217" data-name="Trazado 217217" d="M169.006,80.585c-.037-.691-2.6-1.1-3.76-1.221-5.066-.527-9.409,1.746-9.326,2.051.054.2,2.077-.24,2.149.049.065.264-1.574.82-1.514,1.025.076.257,2.714-.432,2.832-.1.11.31-2.048,1.178-1.953,1.465.129.39,4.3-.689,5.029-.879,4.086-1.058,6.58-1.7,6.543-2.393" transform="translate(-47.155 -23.978)" fill="#9e5d5d"/>
                <path id="Trazado_217218" data-name="Trazado 217218" d="M137.912,135.158l-2.637,12.6-6.446,4.1,7.91-3.613,1.172-13.086" transform="translate(-38.963 -40.876)" fill="#232a2b"/>
                <path id="Trazado_217219" data-name="Trazado 217219" d="M148.959,155.064a48.3,48.3,0,0,1-6.651,4.61,49.134,49.134,0,0,1-16.23,5.813,8.863,8.863,0,0,1-2.109-2.078,9.235,9.235,0,0,1-1.69-5.124,54.811,54.811,0,0,1,7.2-3.8c2.572-1.117,4.146-1.559,9.939-3.56,2.674-.924,4.828-1.69,6.155-2.165a6.5,6.5,0,0,1,2.341,2.132,6.641,6.641,0,0,1,1.041,4.172" transform="translate(-36.982 -44.99)" fill="#313b3d"/>
                <path id="Trazado_217220" data-name="Trazado 217220" d="M158.56,154.829a4.952,4.952,0,0,1-1.84-1.169,5.506,5.506,0,0,1-1.443-4.1l2.068-.8a6.36,6.36,0,0,1,1.449,1.549,6.572,6.572,0,0,1,1.057,3.556l-1.29.963" transform="translate(-46.958 -44.99)" fill="#ccf4ff"/>
                <path id="Trazado_217221" data-name="Trazado 217221" d="M162.892,141.767a12.81,12.81,0,0,0-2,1.21,5.767,5.767,0,0,0-1.647,2.893l-1.468.854a6.832,6.832,0,0,0,.45,1.671,7.049,7.049,0,0,0,1.972,2.686l1.286-.727a9.17,9.17,0,0,0,1.288-.218,12.789,12.789,0,0,0,3.586-1.5,14.112,14.112,0,0,0,4.441-3.484c.466-.583,1.814-2.27,1.408-2.823-.636-.866-5.376,1.55-5.234,1.452a23.606,23.606,0,0,1,2.092-1.284c1.5-.818,2.589-1.2,2.52-1.6-.038-.224-.414-.345-.617-.41a2.3,2.3,0,0,0-1.635.163,17.748,17.748,0,0,0-3.343,1.976l-2.863,1.153.462-.611a3.173,3.173,0,0,0,2.194-1.959c.058-.225.152-.594-.017-.754-.255-.244-.917.182-2.87,1.313" transform="translate(-47.716 -42.458)" fill="#fcc6ae"/>
                <path id="Trazado_217222" data-name="Trazado 217222" d="M64.176,261.77l-8.238.9a29.754,29.754,0,0,1-6.948-9.449,30.348,30.348,0,0,1-2.409-17.046l12.136.092q2.73,12.75,5.459,25.5" transform="translate(-13.99 -71.428)" fill="#48626e"/>
                <path id="Trazado_217223" data-name="Trazado 217223" d="M96.014,279.127l-2.223,3.521a62.956,62.956,0,0,1-35.389-.186l-1.853-3.521,39.465.186" transform="translate(-17.102 -84.361)" fill="#48626e"/>
                <path id="Trazado_217224" data-name="Trazado 217224" d="M111.839,277.094H70.206a2.884,2.884,0,0,1-2.884-2.884,5.668,5.668,0,0,1,5.668-5.668h33.182a5.668,5.668,0,0,1,5.668,5.668Z" transform="translate(-20.36 -81.216)" fill="#b0784a"/>
                <path id="Trazado_217225" data-name="Trazado 217225" d="M61.384,223.447H32.06a5.05,5.05,0,0,1-4.943-4.017L15.391,163.316a2.07,2.07,0,0,1,2.026-2.494H40.763a9.272,9.272,0,0,1,9.076,7.375Z" transform="translate(-4.641 -48.638)" fill="#b0784a"/>
                <path id="Trazado_217226" data-name="Trazado 217226" d="M64.157,223.447H36.789a6.007,6.007,0,0,1-5.88-4.778L19.4,163.588a2.3,2.3,0,0,1,2.248-2.766h22.29a10.228,10.228,0,0,1,10.012,8.136l11.146,53.336a.957.957,0,0,1-.937,1.153" transform="translate(-5.852 -48.638)" fill="#d6a37a"/>
                <path id="Trazado_217227" data-name="Trazado 217227" d="M133.325,321.9a17.719,17.719,0,0,0,2.556.763c1.135.253,1.5.22,1.845.53.422.375.776,1.207.278,3.277a18.464,18.464,0,0,1-6.263.36,8.77,8.77,0,0,0-3.733-3.89,6.413,6.413,0,0,0-.19,1.358,6.517,6.517,0,0,0,.445,2.571,1.321,1.321,0,0,1-.826.147,1.294,1.294,0,0,1-.573-.241,6.617,6.617,0,0,0-.108-3.1c-.357-1.226-.918-1.618-1.185-2.522-.262-.888-.259-2.3,1.195-4.488a7.491,7.491,0,0,1,1.573.641c2.686,1.47,2.606,3.619,4.986,4.6" transform="translate(-37.937 -95.768)" fill="#203b45"/>
                <path id="Trazado_217228" data-name="Trazado 217228" d="M99.812,250.638l23.791,5.219q-.46,4.041-.834,8.2c-1.032,11.534-1.427,22.57-1.348,33.037l2.924,4.545a3.761,3.761,0,0,0,.921.587c.633.282,1.217.326,1.216.474,0,.077-.154.091-.433.3a2.591,2.591,0,0,0-.339.316c-.206.2-.777.271-1.731-.172-1.643-.761-2.955-2.378-4.424-3.8-.917-.887-1.72-1.554-2.252-1.978l.281-.506c-1.975-5.659-3.3-10.533-4.2-14.242-.963-3.992-1.726-6.469-1.822-9.881a31.7,31.7,0,0,1,.754-7.793L95.5,263.283q2.153-6.323,4.307-12.645" transform="translate(-28.884 -75.801)" fill="#9e6354"/>
                <path id="Trazado_217229" data-name="Trazado 217229" d="M106.435,266.606c1.7-.272,3.531-.633,5.465-1.112s3.738-1.019,5.373-1.574c.449,1.163.969,2.372,1.575,3.613a46.206,46.206,0,0,0,6.393,9.728l-5.652-18.806a10.057,10.057,0,0,0-10.005,1.761,9.9,9.9,0,0,0-3.15,6.392" transform="translate(-32.19 -77.98)" fill="#874e3f"/>
                <path id="Trazado_217230" data-name="Trazado 217230" d="M152.078,305.134a17.535,17.535,0,0,0,2.667-.038c1.159-.1,1.493-.238,1.919-.047.515.232,1.1.919,1.248,3.043a18.46,18.46,0,0,1-5.867,2.22,8.781,8.781,0,0,0-4.727-2.592,6.426,6.426,0,0,0,.225,1.353,6.539,6.539,0,0,0,1.195,2.319,1.328,1.328,0,0,1-.744.387,1.3,1.3,0,0,1-.619-.059,6.61,6.61,0,0,0-1.033-2.928c-.707-1.063-1.36-1.269-1.886-2.051s-.938-2.12-.205-4.639a7.492,7.492,0,0,1,1.693.14c3,.6,3.571,2.672,6.134,2.892" transform="translate(-43.507 -91.365)" fill="#203b45"/>
                <path id="Trazado_217231" data-name="Trazado 217231" d="M99.183,246.015l20.428-1.809a4.286,4.286,0,0,1,4.58,3.408q.441,2.15.915,4.324c2.471,11.313,5.4,21.961,8.614,31.923l4.152,3.46a3.759,3.759,0,0,0,1.054.284c.688.08,1.259-.054,1.3.089.022.073-.12.132-.323.419a2.647,2.647,0,0,0-.228.4c-.137.252-.66.491-1.7.355-1.8-.234-3.532-1.383-5.359-2.3-1.14-.571-2.107-.968-2.741-1.212l.116-.566c-3.58-4.808-6.307-9.06-8.273-12.33-2.116-3.52-3.585-5.654-4.7-8.881a31.763,31.763,0,0,1-1.616-7.66l-15.245,4.193a10.7,10.7,0,0,1-3.057-5.7,11.092,11.092,0,0,1,2.082-8.4" transform="translate(-29.318 -73.851)" fill="#9e6354"/>
                <path id="Trazado_217232" data-name="Trazado 217232" d="M87.847,277.094H46.214a2.884,2.884,0,0,1-2.884-2.884A5.668,5.668,0,0,1,49,268.542H82.18a5.668,5.668,0,0,1,5.668,5.668Z" transform="translate(-13.104 -81.216)" fill="#d6a37a"/>
                <path id="Trazado_217233" data-name="Trazado 217233" d="M89.613,191.326q1.965,5.337,3.8,11.117.808,2.564,1.542,5.071a4.218,4.218,0,0,0,3.461.858,4.326,4.326,0,0,0,2.965-2.686c-3.635-15.744-5.39-21.437-6.266-22.995a6.774,6.774,0,0,0-2.737-4.318,5.646,5.646,0,0,0-1.36-.645c-.4,2.4-.751,4.969-1.009,7.692-.193,2.051-.32,4.022-.393,5.906" transform="translate(-27.102 -53.751)" fill="#1c343d"/>
                <path id="Trazado_217234" data-name="Trazado 217234" d="M85.609,233.617l2.947,5.374,19.408,1.853A44.384,44.384,0,0,1,93.095,260.3a95.41,95.41,0,0,1-17.648.139c-8.634-.739-14.021-1.275-16.351-5.141-1.578-2.619-1.064-5.618-.538-9.08A26.332,26.332,0,0,1,63.7,234.263l21.907-.646" transform="translate(-17.553 -70.654)" fill="#203b45"/>
                <path id="Trazado_217235" data-name="Trazado 217235" d="M88.945,236.927a2.594,2.594,0,0,1,.167,2.317c-.748,1.418-3.789,1.8-7.5.371A13.761,13.761,0,0,1,62.635,237.3a37.975,37.975,0,0,1,26.31-.37" transform="translate(-18.943 -70.998)" fill="#14252b"/>
                <path id="Trazado_217236" data-name="Trazado 217236" d="M83.741,177.355a18.552,18.552,0,0,0-8.06-2.594,19.675,19.675,0,0,0-13.619,4.447c-.153,10.336,1.04,16.026,2.27,19.362a31.052,31.052,0,0,1,1.946,8.338,30.433,30.433,0,0,1,0,5.419L61.971,219a17.505,17.505,0,0,0,10.7,3.751,17.272,17.272,0,0,0,8.736-2.407,5.82,5.82,0,0,0,5.188,1.2,5.361,5.361,0,0,0,2.89-2.271l-3.613-7.365q-.092-5.28-.185-10.561c2.576-3.336,3.018-6,2.965-7.781-.081-2.7-1.263-4.19-2.78-8.338a47.168,47.168,0,0,1-2.13-7.874" transform="translate(-18.742 -52.838)" fill="#203b45"/>
                <path id="Trazado_217237" data-name="Trazado 217237" d="M60.323,194.3q-1.965,5.337-3.8,11.117-.809,2.564-1.542,5.071a4.22,4.22,0,0,1-3.461.858,4.325,4.325,0,0,1-2.964-2.686,121.837,121.837,0,0,1,4.167-16.817c1-3.077,2.073-5.961,3.178-8.648a5.026,5.026,0,0,1,1.155-1.879,5.125,5.125,0,0,1,2.72-1.431c-.03,2.709.013,5.55.151,8.51q.141,3.048.393,5.906" transform="translate(-14.686 -54.403)" fill="#203b45"/>
                <path id="Trazado_217238" data-name="Trazado 217238" d="M51.558,215.358c3.041.43,7.064,1,10.106,1.424,3.612.507,7.677,1.076,11.29,1.58a3.217,3.217,0,0,1,.885,2.557,3.11,3.11,0,0,1-1.025,1.905,49.5,49.5,0,0,1-7.791.911,50.079,50.079,0,0,1-15.711-1.946,3.977,3.977,0,0,1,2.247-6.432" transform="translate(-14.639 -65.131)" fill="#203b45"/>
                <path id="Trazado_217239" data-name="Trazado 217239" d="M79.379,218.98a4.592,4.592,0,0,0-1.39,2.084,4.877,4.877,0,0,0,.508,3.846l3.754-.684a4.79,4.79,0,0,0,.945-1.713,4.956,4.956,0,0,0-.114-3.138l-3.7-.4" transform="translate(-23.526 -66.227)" fill="#b8d6ff"/>
                <path id="Trazado_217240" data-name="Trazado 217240" d="M100.121,212.1c2.989.709,6.942,1.643,9.931,2.349,3.55.838,7.546,1.779,11.1,2.614a3.22,3.22,0,0,1,.646,2.628,3.111,3.111,0,0,1-1.2,1.8,49.474,49.474,0,0,1-7.841.188A50.071,50.071,0,0,1,97.29,218.3a3.977,3.977,0,0,1,2.831-6.2" transform="translate(-29.218 -64.146)" fill="#1c343d"/>
                <path id="Trazado_217241" data-name="Trazado 217241" d="M127.423,218.136a10.288,10.288,0,0,0-1.924,5.825l3.8-.336a4.776,4.776,0,0,0,1.1-1.618,4.96,4.96,0,0,0,.176-3.135l-3.152-.735" transform="translate(-37.955 -65.972)" fill="#b8d6ff"/>
                <path id="Trazado_217242" data-name="Trazado 217242" d="M57.663,215.629c.065-.181-1.011-.958-2.293-1.042-1.089-.072-2.107.37-2.084.556.018.147.687.077,2.432.278,1.451.167,1.906.319,1.946.209" transform="translate(-16.115 -64.896)" fill="#14252b"/>
                <path id="Trazado_217243" data-name="Trazado 217243" d="M143.266,223.6c.235.732-.556,1.4-.423,2.433.012.091.046.3-.058.375-.146.1-.511-.111-.7-.365a1.327,1.327,0,0,1-.11-1.144,1.353,1.353,0,0,1-.481-.349c-.485-.562-.489-1.58-.059-1.867.48-.319,1.6.2,1.83.917" transform="translate(-42.68 -67.319)" fill="#874e3f"/>
                <path id="Trazado_217244" data-name="Trazado 217244" d="M135.324,223.137a13.882,13.882,0,0,1,1.537.581c1.259.562,1.4.853,1.443,1.048a.709.709,0,0,1-.172.651c-.463.389-1.279-.616-3.091-.942a7.5,7.5,0,0,1-2.058-.364,4.377,4.377,0,0,1-1.184-.757l-.9.19a4.906,4.906,0,0,1-.162-1.627,4.98,4.98,0,0,1,.807-2.37c3.313.379,5.718.646,6.725.7a2.315,2.315,0,0,1,1.084.3c.124.073.347.22,1,1.111a4.665,4.665,0,0,1,.877,1.45c.091.434-.05.421.038,1.265.035.339.078.539-.046.659-.16.155-.5.086-.693-.017-.712-.381-.506-1.864-.5-1.929l-1.381-1.011-1.824.346-1.5.716" transform="translate(-39.537 -66.398)" fill="#9e6354"/>
                <path id="Trazado_217245" data-name="Trazado 217245" d="M88.181,223.826a9.507,9.507,0,0,1-2.116.178,9.605,9.605,0,0,1-1.416-.147l-.905.142a3.87,3.87,0,0,1,.2-3.736c1.184.165,2.161.252,2.843.3,1.5.107,2.99.361,4.485.534a2.328,2.328,0,0,1,1.067.353c.12.08.334.239.935,1.163a4.672,4.672,0,0,1,.8,1.494c.067.438-.073.418-.029,1.265.017.34.05.543-.08.656-.168.146-.506.059-.692-.053-.691-.419-.407-1.888-.394-1.952l-1.326-1.083-1.839.25-1.537.635" transform="translate(-25.211 -66.615)" fill="#9e6354"/>
                <path id="Trazado_217246" data-name="Trazado 217246" d="M95.508,226.483a1.189,1.189,0,0,1-.905.022c-.458-.217-.462-.75-.9-1.334a2.909,2.909,0,0,0-1.17-.9,3.776,3.776,0,0,1,.543.9c.106.247.4.945.185,1.123-.144.116-.456-.03-.619-.137-.373-.244-.426-.581-.613-.9-.511-.878-1.5-.743-1.539-1.16-.045-.49,1.266-1.27,2.565-1.152a2.8,2.8,0,0,1,1.733.787,3.128,3.128,0,0,1,.725,2.752" transform="translate(-27.365 -67.422)" fill="#9e6354"/>
                <path id="Trazado_217247" data-name="Trazado 217247" d="M96.939,224.6c.14-.126.047-.458-.126-.911a5.179,5.179,0,0,0-1.171-2.219c-.6-.49-1.246-.446-2.655-.453-.982,0-2.414-.033-4.2-.152a20.088,20.088,0,0,0,5.069,1.519,1.966,1.966,0,0,1,1.1.336c.659.5.519,1.286,1.266,1.737.211.128.572.276.723.142" transform="translate(-26.852 -66.798)" fill="#9e6354"/>
                <path id="Trazado_217248" data-name="Trazado 217248" d="M73.27,199.77l5.367-.143q.108.572.215,1.145l-5.367.215q-.108-.608-.215-1.217" transform="translate(-22.159 -60.374)" fill="#b8d6ff"/>
                <path id="Trazado_217250" data-name="Trazado 217250" d="M67.3,152.2a4.1,4.1,0,0,0-2,4.676,1.68,1.68,0,0,0-1.145,1.336,1.655,1.655,0,0,0,.334,1.192,1.592,1.592,0,0,0-.811,1.48,1.549,1.549,0,0,0,.525,1,1.859,1.859,0,0,0,.143,1.956,1.882,1.882,0,0,0,2.242.549,1.488,1.488,0,0,0,1,.644,1.511,1.511,0,0,0,1.241-.43,2.67,2.67,0,0,0,.095,1.145c1.1,3.434,9.99,4.473,11.259,2.195a1.855,1.855,0,0,0,.048-1.431,1.833,1.833,0,0,0,1.479-.763,1.647,1.647,0,0,0,.239-1,2.454,2.454,0,0,0,1.193-1c.752-1.337-.3-3.175-.811-4.055-2.5-4.344-13.543-7.126-15.028-7.49" transform="translate(-19.257 -46.03)" fill="#3d221d"/>
                <path id="Trazado_217251" data-name="Trazado 217251" d="M70.035,159.916a1.6,1.6,0,0,0-.477,1.24,1.641,1.641,0,0,0,1,1.145,1.031,1.031,0,0,0,.048.668,1.132,1.132,0,0,0,1.049.62,1.522,1.522,0,0,0,.191,1.193,1.461,1.461,0,0,0,1.813.43c.993-.662,0-3.424-.1-3.674-.329-.891-.859-2.324-1.909-2.433a2.166,2.166,0,0,0-1.622.811" transform="translate(-21.033 -48.117)" fill="#291713"/>
                <path id="Trazado_217252" data-name="Trazado 217252" d="M78.588,174.121l5.7,2.779-5.148,7.631-11.25-7.353a16.09,16.09,0,0,1,10.7-3.057" transform="translate(-20.532 -52.646)" fill="#91c0ff"/>
                <path id="Trazado_217253" data-name="Trazado 217253" d="M80.2,172.6a10.876,10.876,0,0,1,3.057,2.64L86.87,181.1a6.088,6.088,0,0,0-4.794-.928,5.589,5.589,0,0,0-2.432,1.369,7.281,7.281,0,0,0-5-1.091,7.117,7.117,0,0,0-3.544,1.668,15.6,15.6,0,0,1,.139-7.226,9.077,9.077,0,0,1,4.238-2.5l4.725.209" transform="translate(-21.394 -52.137)" fill="#b8d6ff"/>
                <path id="Trazado_217254" data-name="Trazado 217254" d="M73.348,159.4a29.513,29.513,0,0,1,.308,10.5l6.773,7.5A20.409,20.409,0,0,0,82.1,170.6a13.909,13.909,0,0,1-.14-1.39,14.23,14.23,0,0,1,.417-4.169,17.748,17.748,0,0,0-5.934-4.995,11.688,11.688,0,0,0-2-.529,10.012,10.012,0,0,0-1.1-.111" transform="translate(-22.183 -48.209)" fill="#9e6354"/>
                <path id="Trazado_217255" data-name="Trazado 217255" d="M82.3,166.957c-.484,1.7-1.186,2.162-1.634,2.316-2.049.7-5.673-2.778-6.6-6.623a9.02,9.02,0,0,1-.21-2.872l1.3.092,7.147,7.087" transform="translate(-22.326 -48.322)" fill="#874e3f"/>
                <path id="Trazado_217256" data-name="Trazado 217256" d="M74.219,142.016a17.977,17.977,0,0,0-1.9,5.6c-.363,2.249-.807,5,.638,7.874s3.862,4.059,6.253,5.235c1.793.881,2.889,1,3.8.648a3.567,3.567,0,0,0,1.436-1.158c1.487-1.733,3.392-3.954,3.391-7.226a8.707,8.707,0,0,0-.463-2.779,9.883,9.883,0,0,0,.371-2.686,10.85,10.85,0,0,0-2.455-6.647,9.134,9.134,0,0,0-4.933-1.39,9.34,9.34,0,0,0-6.137,2.524" transform="translate(-21.763 -42.187)" fill="#9e6354"/>
                <path id="Trazado_217271" data-name="Trazado 217271" d="M69.744,148.252a1.519,1.519,0,0,0,2.13.37,1.31,1.31,0,0,0,.024-1.36,5.9,5.9,0,0,0,.6-1.24,6.124,6.124,0,0,0,.255-2.874,3.98,3.98,0,0,0,1.288-.859,4.148,4.148,0,0,0,1.145-2.338,1.956,1.956,0,0,0,3.1-1.1,4.02,4.02,0,0,0,2.863-.239,3,3,0,0,0,2.481.668,6.078,6.078,0,0,1,2.123,2.7.866.866,0,0,0,.573-.954.689.689,0,0,0-.358-.382,6.254,6.254,0,0,0-.716-1.694,6.921,6.921,0,0,0-3.769-2.862A4.417,4.417,0,0,0,80,134.559c-2.175-1.334-4.725-.117-4.961,0a4.388,4.388,0,0,0-3.96.477,4.155,4.155,0,0,0-1.574,2.624,2.908,2.908,0,0,0-1.145,1.193,3.312,3.312,0,0,0,.429,3.387,1,1,0,0,0-.716.382A1.249,1.249,0,0,0,68.6,144.2a2.376,2.376,0,0,0-.476.811,2.746,2.746,0,0,0,.286,2.195.879.879,0,0,0-.047.716,1.066,1.066,0,0,0,1.383.334" transform="translate(-20.551 -40.508)" fill="#3d221d"/>
                <path id="Trazado_217272" data-name="Trazado 217272" d="M73.735,135.3a3.325,3.325,0,0,1,2.195.1,3.287,3.287,0,0,1,1.431,1.145.876.876,0,0,1,1.383.811,2.591,2.591,0,0,1,3.96.954,1.359,1.359,0,0,0,.19-1,1.309,1.309,0,0,0-.333-.621l.954.334a4.977,4.977,0,0,0-1.241-1.288,6.257,6.257,0,0,0-5.248-.621,2.84,2.84,0,0,0-1.909-.429,2.78,2.78,0,0,0-1.383.62" transform="translate(-22.3 -40.724)" fill="#522e27"/>
                <path id="Trazado_217277" data-name="Trazado 217277" d="M71.163,155.146a2.48,2.48,0,0,0-2.594-.649c-1.013.6-.851,2.764.178,3.765.416.4,1.332.981,1.992.576a1.569,1.569,0,0,0,.61-.882q-.092-1.405-.185-2.811" transform="translate(-20.531 -46.674)" fill="#9e6354"/>
                <path id="Trazado_217278" data-name="Trazado 217278" d="M71.162,158.214a1.319,1.319,0,0,1-.741.157,1.733,1.733,0,0,1-1.436-1.624c-.021-.416.1-1.11.556-1.31s1.131.144,1.436.943a1.286,1.286,0,0,0-.324,1.048,1.155,1.155,0,0,0,.509.786" transform="translate(-20.863 -46.992)" fill="#874e3f"/>
                <path id="Trazado_217285" data-name="Trazado 217285" d="M515.679,310.665h0a2.927,2.927,0,0,1-2.927-2.927V272.087a2.927,2.927,0,0,1,5.854,0v35.651a2.927,2.927,0,0,1-2.927,2.927" transform="translate(-155.073 -81.403)" fill="#48626e"/>
                <rect id="Rectángulo_291981" data-name="Rectángulo 291981" width="35.82" height="2.441" transform="translate(342.696 224.554)" fill="#48626e"/>
                <path id="Trazado_217286" data-name="Trazado 217286" d="M492.742,323.27a4.36,4.36,0,1,1-4.36-4.36,4.36,4.36,0,0,1,4.36,4.36" transform="translate(-146.384 -96.449)" fill="#48626e"/>
                <path id="Trazado_217287" data-name="Trazado 217287" d="M546.094,323.27a4.36,4.36,0,1,1-4.36-4.36,4.36,4.36,0,0,1,4.36,4.36" transform="translate(-162.52 -96.449)" fill="#48626e"/>
                <path id="Trazado_217288" data-name="Trazado 217288" d="M492.773,208.984c-2.633-1.56-6.113-3.624-8.745-5.186-3.124-1.854-6.641-3.943-9.763-5.8a3.207,3.207,0,0,0-2.281,1.437,3.1,3.1,0,0,0-.389,2.12,49.178,49.178,0,0,0,5.491,5.56,49.9,49.9,0,0,0,13.429,8.27,3.963,3.963,0,0,0,2.257-6.4" transform="translate(-142.612 -59.881)" fill="#4396e6"/>
                <path id="Trazado_217289" data-name="Trazado 217289" d="M476.49,198.949a10.242,10.242,0,0,1-2.649,5.507l-2.492-2.87a4.764,4.764,0,0,1,.331-1.921,4.94,4.94,0,0,1,2.043-2.368l2.768,1.653" transform="translate(-142.551 -59.669)" fill="#b8d6ff"/>
                <path id="Trazado_217290" data-name="Trazado 217290" d="M469.749,195.744a1.436,1.436,0,0,0-.5-.7,8.131,8.131,0,0,0-1.605-2.857c-.048-.045-.271-.254-.573-.5-.356-.289-.576-.426-1.069-.853-1.726-1.5-2.337-2.685-2.681-2.517-.22.107-.179.691-.068,1.055.144.473.442.691.924,1.2a11.528,11.528,0,0,1,1.034,1.264c-.312-.139-.794-.355-1.383-.621-1.905-.861-2.116-.977-2.584-1.129-1.317-.426-2.8-.516-2.861-.289-.107.384,3.847,1.8,3.807,1.9s-4.317-1.643-4.615-1.088c-.11.205.345.678.905,1.159a1.57,1.57,0,0,0,.1.7,1.812,1.812,0,0,0,.76.833c1.131.735,2.587,1.5,2.821,1.625-1.646-.339-2.017-.307-2.046-.212-.093.293,3,1.544,4.7,2.235,1.279.518,2.343.915,3.061,1.177a2.289,2.289,0,0,0,1.6-1.055,1.669,1.669,0,0,0,.264-1.337" transform="translate(-138.382 -56.95)" fill="#fcc6ae"/>
                <path id="Trazado_217291" data-name="Trazado 217291" d="M526.63,261.827l8.207.9a29.631,29.631,0,0,0,6.922-9.414,30.232,30.232,0,0,0,2.4-16.981l-12.09.092q-2.718,12.7-5.438,25.4" transform="translate(-159.271 -71.475)" fill="#48626e"/>
                <path id="Trazado_217292" data-name="Trazado 217292" d="M485.608,279.117l2.215,3.507a62.7,62.7,0,0,0,35.254-.184l1.846-3.507-39.315.185" transform="translate(-146.864 -84.358)" fill="#48626e"/>
                <path id="Trazado_217293" data-name="Trazado 217293" d="M467.661,277.092h41.474a2.873,2.873,0,0,0,2.873-2.873,5.646,5.646,0,0,0-5.646-5.646H473.307a5.646,5.646,0,0,0-5.646,5.646Z" transform="translate(-141.436 -81.225)" fill="#b0784a"/>
                <path id="Trazado_217294" data-name="Trazado 217294" d="M517.267,223.65H546.48a5.032,5.032,0,0,0,4.925-4l11.682-55.9a2.063,2.063,0,0,0-2.019-2.485H537.81a9.237,9.237,0,0,0-9.041,7.347Z" transform="translate(-156.439 -48.771)" fill="#b0784a"/>
                <path id="Trazado_217295" data-name="Trazado 217295" d="M514.622,223.65h27.264a5.985,5.985,0,0,0,5.858-4.76l11.466-54.871a2.287,2.287,0,0,0-2.239-2.755h-22.2a10.19,10.19,0,0,0-9.974,8.105l-11.1,53.134a.953.953,0,0,0,.933,1.148" transform="translate(-155.351 -48.771)" fill="#d6a37a"/>
                <path id="Trazado_217296" data-name="Trazado 217296" d="M459.952,321.725a17.446,17.446,0,0,1-2.546.76c-1.131.252-1.49.22-1.837.529-.421.374-.774,1.2-.278,3.265a18.384,18.384,0,0,0,6.239.358,8.745,8.745,0,0,1,3.719-3.874,6.369,6.369,0,0,1,.19,1.353,6.5,6.5,0,0,1-.443,2.561,1.32,1.32,0,0,0,.822.146,1.283,1.283,0,0,0,.571-.241,6.585,6.585,0,0,1,.108-3.091c.355-1.221.914-1.612,1.18-2.513.262-.885.258-2.3-1.19-4.47a7.433,7.433,0,0,0-1.567.638c-2.675,1.464-2.6,3.606-4.967,4.58" transform="translate(-137.622 -95.722)" fill="#313b3d"/>
                <path id="Trazado_217297" data-name="Trazado 217297" d="M485.49,250.738l-23.7,5.2q.458,4.025.83,8.168c1.028,11.49,1.422,22.484,1.343,32.912l-2.913,4.527a3.736,3.736,0,0,1-.917.585c-.63.28-1.213.324-1.211.472,0,.076.153.09.431.3a2.617,2.617,0,0,1,.338.315c.206.2.774.27,1.724-.17,1.637-.759,2.944-2.37,4.406-3.784.914-.883,1.714-1.548,2.243-1.97l-.28-.5c1.967-5.638,3.29-10.494,4.182-14.189.96-3.977,1.72-6.443,1.815-9.843a31.581,31.581,0,0,0-.751-7.763l16.751-1.661-4.291-12.6" transform="translate(-138.793 -75.832)" fill="#f7b9a5"/>
                <path id="Trazado_217298" data-name="Trazado 217298" d="M484.15,266.645c-1.694-.271-3.518-.63-5.445-1.108s-3.722-1.015-5.352-1.569c-.447,1.159-.965,2.363-1.569,3.6a46.034,46.034,0,0,1-6.368,9.69l5.629-18.734a10.018,10.018,0,0,1,9.967,1.753,9.864,9.864,0,0,1,3.138,6.368" transform="translate(-140.757 -78.002)" fill="#f29d83"/>
                <path id="Trazado_217299" data-name="Trazado 217299" d="M440.732,305.026a17.6,17.6,0,0,1-2.657-.038c-1.155-.1-1.487-.237-1.911-.046-.513.23-1.1.915-1.243,3.032a18.381,18.381,0,0,0,5.845,2.211,8.739,8.739,0,0,1,4.709-2.582,6.424,6.424,0,0,1-.225,1.348,6.517,6.517,0,0,1-1.19,2.31,1.321,1.321,0,0,0,.741.385,1.3,1.3,0,0,0,.617-.058,6.59,6.59,0,0,1,1.029-2.917c.705-1.059,1.355-1.264,1.879-2.044s.933-2.112.2-4.621a7.514,7.514,0,0,0-1.686.14c-2.991.6-3.558,2.662-6.111,2.881" transform="translate(-131.535 -91.336)" fill="#313b3d"/>
                <path id="Trazado_217300" data-name="Trazado 217300" d="M480.8,246.132l-20.35-1.8a4.27,4.27,0,0,0-4.562,3.4q-.439,2.142-.912,4.307c-2.462,11.27-5.382,21.877-8.581,31.8l-4.137,3.447a3.734,3.734,0,0,1-1.05.283c-.686.079-1.254-.054-1.3.088-.022.073.119.132.322.417a2.661,2.661,0,0,1,.227.4c.137.25.658.489,1.7.354,1.789-.233,3.518-1.378,5.338-2.289,1.136-.569,2.1-.963,2.73-1.207l-.116-.564c3.566-4.789,6.284-9.026,8.242-12.283,2.107-3.507,3.572-5.632,4.681-8.847A31.605,31.605,0,0,0,464.639,256l15.187,4.177a10.671,10.671,0,0,0,3.046-5.675,11.05,11.05,0,0,0-2.074-8.371" transform="translate(-133.042 -73.888)" fill="#fcc6ae"/>
                <path id="Trazado_217301" data-name="Trazado 217301" d="M491.562,277.092h41.474a2.873,2.873,0,0,0,2.873-2.873,5.646,5.646,0,0,0-5.646-5.646H497.208a5.646,5.646,0,0,0-5.646,5.646Z" transform="translate(-148.665 -81.225)" fill="#d6a37a"/>
                <path id="Trazado_217302" data-name="Trazado 217302" d="M502.223,144.485a97.283,97.283,0,0,1-3.23,35.208,40.1,40.1,0,0,0,29.543.554,97.539,97.539,0,0,0-3.876-29.07,95.978,95.978,0,0,0-3.876-10.8l-18.56,4.107" transform="translate(-150.912 -42.455)" fill="#633828"/>
                <path id="Trazado_217303" data-name="Trazado 217303" d="M503.949,191.792q-1.958,5.316-3.784,11.075-.807,2.554-1.536,5.052a4.2,4.2,0,0,1-3.448.855,4.309,4.309,0,0,1-2.953-2.676c3.621-15.684,5.37-21.355,6.242-22.907L500.1,180.3a9.995,9.995,0,0,1,1.8-1.731,43.011,43.011,0,0,1,2.054,13.22" transform="translate(-148.866 -54.006)" fill="#4396e6"/>
                <path id="Trazado_217304" data-name="Trazado 217304" d="M502.618,143.005a8.791,8.791,0,0,0-2.416,3.489c-1.6,4.331.6,9.915,5.438,14.161-.539-.43-5.462-4.5-5-10.588a11.466,11.466,0,0,1,2.087-5.68q-.058-.692-.114-1.383" transform="translate(-151.122 -43.25)" fill="#633828"/>
                <path id="Trazado_217305" data-name="Trazado 217305" d="M527.143,157.611a3.625,3.625,0,0,1,1.869,3.115c.16,2.262-1.643,4.609-4.568,5.468a4.617,4.617,0,0,0,1.731.208,4.713,4.713,0,0,0,2.423-.9,3.293,3.293,0,0,1-1.662,1.73c-2.221.93-5.786-1.294-6.16-3.945-.461-3.27,4.015-6.577,6.368-5.676" transform="translate(-157.49 -47.621)" fill="#4f2513"/>
                <path id="Trazado_217306" data-name="Trazado 217306" d="M491.455,233.781l-2.935,5.353-19.334,1.846A44.214,44.214,0,0,0,484,260.36a95.121,95.121,0,0,0,17.581.139c8.6-.737,13.967-1.27,16.289-5.122,1.572-2.608,1.06-5.6.536-9.045a26.233,26.233,0,0,0-5.125-11.907l-21.823-.644" transform="translate(-141.897 -70.703)" fill="#313b3d"/>
                <path id="Trazado_217307" data-name="Trazado 217307" d="M498.179,237.078a2.585,2.585,0,0,0-.167,2.308c.746,1.412,3.775,1.789,7.476.369a13.709,13.709,0,0,0,18.9-2.308,37.833,37.833,0,0,0-26.21-.369" transform="translate(-150.559 -71.047)" fill="#232a2b"/>
                <path id="Trazado_217308" data-name="Trazado 217308" d="M503,177.734a18.469,18.469,0,0,1,8.029-2.584,19.6,19.6,0,0,1,13.566,4.43c.153,10.3-1.036,15.965-2.261,19.288a30.9,30.9,0,0,0-1.938,8.306,30.264,30.264,0,0,0,0,5.4l4.291,6.645a17.445,17.445,0,0,1-10.659,3.738,17.2,17.2,0,0,1-8.7-2.4,5.8,5.8,0,0,1-5.168,1.2,5.345,5.345,0,0,1-2.879-2.262l3.6-7.337q.092-5.261.185-10.521c-2.567-3.325-3.007-5.975-2.954-7.753.08-2.69,1.258-4.174,2.769-8.306A46.948,46.948,0,0,0,503,177.734" transform="translate(-150.392 -52.955)" fill="#313b3d"/>
                <path id="Trazado_217309" data-name="Trazado 217309" d="M508.665,198.652a76.121,76.121,0,0,1,14.028-11.259,14.81,14.81,0,0,0-.093-10.059,15.169,15.169,0,0,0-4.245-2.031c-6.305-1.871-11.909,1.051-13.474,1.938-.752,1.634-1.495,3.357-2.215,5.168q-.693,1.74-1.293,3.415a27.878,27.878,0,0,0,7.291,12.828" transform="translate(-151.632 -52.832)" fill="#424f52"/>
                <path id="Trazado_217310" data-name="Trazado 217310" d="M512.508,174.511l-5.675,2.769a23,23,0,0,0-.97,5.26,25.407,25.407,0,0,0,4.307,15.376c.5-.878,1.256-2.181,2.215-3.738,2.247-3.652,3.784-5.744,5.653-8.514,1.288-1.909,3.08-4.654,5.13-8.108a16.031,16.031,0,0,0-10.66-3.046" transform="translate(-152.976 -52.764)" fill="#4396e6"/>
                <path id="Trazado_217311" data-name="Trazado 217311" d="M511.459,172.995a10.807,10.807,0,0,0-3.046,2.631l-3.6,5.839a6.06,6.06,0,0,1,4.776-.925,5.564,5.564,0,0,1,2.423,1.363A7.254,7.254,0,0,1,517,180.817a7.086,7.086,0,0,1,3.53,1.661,15.515,15.515,0,0,0-.138-7.2,9.047,9.047,0,0,0-4.222-2.492l-4.706.208" transform="translate(-152.673 -52.257)" fill="#3a83c9"/>
                <path id="Trazado_217312" data-name="Trazado 217312" d="M517.712,136.839a9.836,9.836,0,0,0-2.723-1.061,11.654,11.654,0,0,0-8.675,1.846,6.066,6.066,0,0,0-1.892,1.107c-6.1,5.311,1.169,21.817,1.569,22.7l11.72-24.595" transform="translate(-151.82 -40.993)" fill="#633828"/>
                <path id="Trazado_217314" data-name="Trazado 217314" d="M521.347,159.849a29.38,29.38,0,0,0-.306,10.459l-6.748,7.475A20.333,20.333,0,0,1,512.632,171a13.8,13.8,0,0,0,.139-1.384,14.159,14.159,0,0,0-.416-4.153,17.681,17.681,0,0,1,5.911-4.975,11.629,11.629,0,0,1,1.987-.527,9.931,9.931,0,0,1,1.094-.111" transform="translate(-154.953 -48.344)" fill="#f7b9a5"/>
                <path id="Trazado_217315" data-name="Trazado 217315" d="M512.667,167.375c.483,1.689,1.181,2.154,1.628,2.307,2.041.7,5.652-2.767,6.574-6.6a8.963,8.963,0,0,0,.209-2.861l-1.292.092-7.119,7.06" transform="translate(-155.048 -48.457)" fill="#f29d83"/>
                <path id="Trazado_217316" data-name="Trazado 217316" d="M517.521,142.528a17.9,17.9,0,0,1,1.892,5.583c.362,2.241.8,4.98-.636,7.845s-3.846,4.044-6.229,5.214c-1.786.878-2.877,1-3.784.646a3.563,3.563,0,0,1-1.431-1.154c-1.481-1.726-3.379-3.939-3.378-7.2a8.689,8.689,0,0,1,.461-2.769,9.842,9.842,0,0,1-.369-2.676,10.813,10.813,0,0,1,2.446-6.622,9.1,9.1,0,0,1,4.914-1.384,9.306,9.306,0,0,1,6.114,2.515" transform="translate(-152.413 -42.345)" fill="#fcc6ae"/>
                <path id="Trazado_217339" data-name="Trazado 217339" d="M526.022,155.476a2.411,2.411,0,0,1,2.492-.519c1.019.615.842,2.76-.177,3.751-.414.4-1.327.978-1.984.574a1.563,1.563,0,0,1-.608-.879q.138-1.464.277-2.927" transform="translate(-159.003 -46.81)" fill="#fcc6ae"/>
                <path id="Trazado_217340" data-name="Trazado 217340" d="M526.483,158.663a1.322,1.322,0,0,0,.738.157,1.728,1.728,0,0,0,1.431-1.618c.021-.414-.1-1.106-.554-1.305s-1.127.144-1.43.94a1.283,1.283,0,0,1,.323,1.044,1.15,1.15,0,0,1-.508.783" transform="translate(-159.226 -47.132)" fill="#f2aa94"/>
                <path id="Trazado_217346" data-name="Trazado 217346" d="M532.854,198.953c-.515-.1-.3-3.238-.138-5.537.335-4.856,1.392-11.678,2.215-11.628.662.04,1.184,4.539.692,8.722-.514,4.376-2.156,8.563-2.769,8.444" transform="translate(-161.055 -54.978)" fill="#4396e6"/>
                <path id="Trazado_217347" data-name="Trazado 217347" d="M533.127,195.107q1.957,5.316,3.784,11.075.807,2.554,1.536,5.052a4.2,4.2,0,0,0,3.447.855,4.309,4.309,0,0,0,2.953-2.676,121.3,121.3,0,0,0-4.152-16.753c-1-3.065-2.065-5.938-3.166-8.614a6.473,6.473,0,0,0-2.349-2.158,43.011,43.011,0,0,0-2.054,13.22" transform="translate(-161.236 -55.009)" fill="#4396e6"/>
                <path id="Trazado_217348" data-name="Trazado 217348" d="M535.943,215.592c-3.03.428-7.037.993-10.067,1.418-3.6.505-7.648,1.072-11.247,1.574a3.207,3.207,0,0,0-.882,2.548,3.1,3.1,0,0,0,1.022,1.9,49.321,49.321,0,0,0,7.761.907A49.858,49.858,0,0,0,538.182,222a3.962,3.962,0,0,0-2.239-6.407" transform="translate(-155.367 -65.202)" fill="#4396e6"/>
                <path id="Trazado_217349" data-name="Trazado 217349" d="M523.628,161.223c2.1-5,1.372-7.7.554-9.137-.8-1.406-3.256-2.752-8.168-5.444-2.765-1.517-4.575-2.342-6.783-4.361a23.3,23.3,0,0,1-2.63-2.838,5.292,5.292,0,0,1,.9-1.661c3.035-3.747,11.891-3.5,15.758.831,1.751,1.962,1.983,4.519,2.377,9.552a64.194,64.194,0,0,1-.347,13.335l-1.661-.277" transform="translate(-153.213 -40.875)" fill="#633828"/>
                <path id="Trazado_217350" data-name="Trazado 217350" d="M504.087,147.313a12.181,12.181,0,0,1,.956-2.706,11.837,11.837,0,0,1,1.549-2.386l-.3.007a22.522,22.522,0,0,0,1.754,1.869c.619.588,1.27,1.152,1.941,1.675.337.262.682.523,1.029.77s.7.5,1.058.723q1.079.692,2.2,1.307t2.278,1.164c.773.361,1.56.673,2.311,1.048a21.584,21.584,0,0,1,2.188,1.257,24.156,24.156,0,0,1,2.044,1.5,18.188,18.188,0,0,0-1.92-1.679,16.473,16.473,0,0,0-2.146-1.4c-.75-.416-1.521-.775-2.273-1.154s-1.5-.767-2.232-1.186-1.45-.857-2.152-1.321-1.4-.934-2.065-1.442-1.315-1.047-1.934-1.616-1.219-1.159-1.791-1.777l-.16-.173-.137.18a11.148,11.148,0,0,0-1.465,2.53,10.822,10.822,0,0,0-.737,2.806" transform="translate(-152.453 -42.884)" fill="#4f2513"/>
                <path id="Trazado_217351" data-name="Trazado 217351" d="M509.081,140.907a16.849,16.849,0,0,0,1.454,1.454c3.037,2.688,5.426,2.835,9.136,4.776,2.272,1.189,4.135,2.163,5.676,4.084a13.116,13.116,0,0,1,2.63,8.1c.359-4.485-.857-7.01-1.938-8.445-1.8-2.383-4.061-2.875-9.275-5.537a86.2,86.2,0,0,1-7.683-4.43" transform="translate(-153.963 -42.615)" fill="#7a4531"/>
                <path id="Trazado_217352" data-name="Trazado 217352" d="M508.916,138.672c.034.274,1.145.083,2.538.6,1.984.736,3.17,2.144,3.323,1.984.092-.1-.326-.634-.381-.7a8.328,8.328,0,0,0-1.488-1.316c.056-.115,2.294,1.344,3.438.589.377-.249.3-.457.692-.831.887-.849,2.765-.135,2.815-.323s-1.657-.647-1.615-.877c.038-.209,1.539-.27,3.092.185a9.328,9.328,0,0,1,2.169.969,12.67,12.67,0,0,0-4.153-2.308c-4.41-1.484-8.641-.116-8.629.093.007.122,1.474.118,1.477.277s-1.7.269-1.708.507c0,.091.246.17.508.231-1.75.493-2.1.765-2.077.923" transform="translate(-153.913 -41.118)" fill="#7a4531"/>
                <path id="Trazado_217353" data-name="Trazado 217353" d="M518.64,145.6a42.614,42.614,0,0,0,4.845,2.354,14.748,14.748,0,0,1,4.476,2.261,9.575,9.575,0,0,1,1.984,2.308,5.775,5.775,0,0,0-1.2-2.815c-.908-1.1-2.326-1.581-5.122-2.492-2.494-.812-4.308-1.4-4.983-1.615" transform="translate(-156.854 -44.035)" fill="#7a4531"/>
                <path id="Trazado_217354" data-name="Trazado 217354" d="M530.084,140.973a12.606,12.606,0,0,1,.785,1.892c.575,1.787.553,3.1.692,3.092a3.461,3.461,0,0,0,.138-2.123,5.266,5.266,0,0,0-1.615-2.861" transform="translate(-160.315 -42.635)" fill="#7a4531"/>
                <path id="Trazado_217355" data-name="Trazado 217355" d="M516.8,219.2a4.572,4.572,0,0,1,1.384,2.077,4.855,4.855,0,0,1-.506,3.832l-3.74-.682a4.773,4.773,0,0,1-.942-1.706,4.94,4.94,0,0,1,.114-3.126l3.689-.394" transform="translate(-155.087 -66.293)" fill="#3a83c9"/>
                <path id="Trazado_217356" data-name="Trazado 217356" d="M505.817,224.027a9.416,9.416,0,0,0,3.518.03l.9.142a3.853,3.853,0,0,0-.2-3.722c-1.18.165-2.152.251-2.832.3-1.5.107-2.978.361-4.469.533a2.323,2.323,0,0,0-1.062.352c-.12.079-.333.238-.933,1.158a4.659,4.659,0,0,0-.8,1.489c-.067.437.073.416.029,1.261-.017.339-.049.541.081.654.167.145.5.059.689-.053.688-.417.406-1.881.393-1.945l1.32-1.079,1.833.248,1.532.633" transform="translate(-151.193 -66.68)" fill="#fcc6ae"/>
                <path id="Trazado_217357" data-name="Trazado 217357" d="M500.959,226.673a1.183,1.183,0,0,0,.9.022c.456-.216.461-.747.9-1.33a2.9,2.9,0,0,1,1.166-.894,3.8,3.8,0,0,0-.542.895c-.1.246-.4.942-.183,1.119.143.115.453-.03.617-.137.372-.243.425-.578.611-.9.509-.874,1.495-.74,1.533-1.155.045-.488-1.262-1.265-2.556-1.147a2.8,2.8,0,0,0-1.726.784,3.115,3.115,0,0,0-.722,2.741" transform="translate(-151.486 -67.484)" fill="#fcc6ae"/>
                <path id="Trazado_217358" data-name="Trazado 217358" d="M498.18,224.8c-.141-.125-.047-.456.126-.908a5.146,5.146,0,0,1,1.166-2.211c.6-.488,1.24-.445,2.645-.451.979,0,2.4-.033,4.185-.151a20.018,20.018,0,0,1-5.049,1.514,1.962,1.962,0,0,0-1.092.335c-.657.5-.516,1.282-1.26,1.73-.211.128-.571.275-.721.142" transform="translate(-150.646 -66.863)" fill="#fcc6ae"/>
                <rect id="Rectángulo_291984" data-name="Rectángulo 291984" width="303.73" height="5.89" transform="translate(64.962 161.844)" fill="#3a494a"/>
                <path id="Trazado_217359" data-name="Trazado 217359" d="M397.887,233.181H87.361a2.063,2.063,0,1,1,0-4.127H397.887a2.063,2.063,0,1,1,0,4.127" transform="translate(-25.797 -69.274)" fill="#d48f6e"/>
                <path id="Trazado_217360" data-name="Trazado 217360" d="M146.2,217.382h-29.5a1.8,1.8,0,0,1-1.8-2.347l4.5-19.171a3.147,3.147,0,0,1,2.9-2.347H151.8a1.8,1.8,0,0,1,1.8,2.347l-4.5,19.171a3.147,3.147,0,0,1-2.9,2.347" transform="translate(-34.734 -58.526)" fill="#85939c"/>
                <path id="Trazado_217361" data-name="Trazado 217361" d="M141.019,228.569H102.352a.559.559,0,0,1,0-1.118h38.668a.559.559,0,0,1,0,1.118" transform="translate(-30.786 -68.789)" fill="#85939c"/>
                <path id="Trazado_217362" data-name="Trazado 217362" d="M145.906,211.079c-.539,1.993-1.908,3.357-3.058,3.046s-1.646-2.179-1.107-4.171,1.908-3.357,3.058-3.046,1.646,2.178,1.107,4.171" transform="translate(-42.801 -62.562)" fill="#aabbc7"/>
                <path id="Trazado_217363" data-name="Trazado 217363" d="M470.965,193.166c.008-.562-.4-.995-1.221-1.86-.751-.793-.91-.733-1.512-1.4-.931-1.025-1.168-1.927-1.4-1.86-.188.055-.164.721-.116,1.1a4.8,4.8,0,0,0,1.511,2.79,6.594,6.594,0,0,0,.116,1.337,6.682,6.682,0,0,0,1.046,2.5c.178-.216.426-.532.7-.93.577-.847.866-1.27.872-1.686" transform="translate(-141.142 -56.872)" fill="#fcc6ae"/>
                <path id="Trazado_217364" data-name="Trazado 217364" d="M506.83,312.8h3.922l2.2-69.092H501.662Z" transform="translate(-151.719 -73.704)" fill="#b3785d"/>
                <path id="Trazado_217365" data-name="Trazado 217365" d="M509.834,312.8h3.922l2.2-69.092H504.666Z" transform="translate(-152.628 -73.704)" fill="#d48f6e"/>
                <path id="Trazado_217366" data-name="Trazado 217366" d="M513.529,243.416l-1.4-5.531H504.77l2.368,5.531Z" transform="translate(-152.659 -71.944)" fill="#627b7d"/>
                <path id="Trazado_217367" data-name="Trazado 217367" d="M504.136,237.885h-1.182l-.279,4.059h2.115l1.714,1.472Z" transform="translate(-152.026 -71.944)" fill="#779496"/>
                <path id="Trazado_217368" data-name="Trazado 217368" d="M449.963,312.8h3.922l2.2-69.092H444.795Z" transform="translate(-134.521 -73.704)" fill="#b3785d"/>
                <path id="Trazado_217369" data-name="Trazado 217369" d="M452.967,312.8h3.922l2.2-69.092H447.8Z" transform="translate(-135.429 -73.704)" fill="#d48f6e"/>
                <path id="Trazado_217370" data-name="Trazado 217370" d="M456.662,243.416l-1.4-5.531H447.9l2.368,5.531Z" transform="translate(-135.461 -71.944)" fill="#627b7d"/>
                <path id="Trazado_217371" data-name="Trazado 217371" d="M447.269,237.885h-1.182l-.28,4.059h2.116l1.714,1.472Z" transform="translate(-134.827 -71.944)" fill="#779496"/>
                <path id="Trazado_217372" data-name="Trazado 217372" d="M108.686,312.8h-3.922l-2.2-69.092h11.294Z" transform="translate(-31.017 -73.704)" fill="#b3785d"/>
                <path id="Trazado_217373" data-name="Trazado 217373" d="M105.682,312.8h-3.922l-2.2-69.092H110.85Z" transform="translate(-30.109 -73.704)" fill="#d48f6e"/>
                <path id="Trazado_217374" data-name="Trazado 217374" d="M103.087,243.416l1.4-5.531h7.363l-2.368,5.531Z" transform="translate(-31.177 -71.944)" fill="#627b7d"/>
                <path id="Trazado_217375" data-name="Trazado 217375" d="M114.616,237.885H115.8l.28,4.059h-2.116l-1.714,1.472Z" transform="translate(-33.948 -71.944)" fill="#779496"/>
                <path id="Trazado_217376" data-name="Trazado 217376" d="M165.553,312.8h-3.922l-2.2-69.092h11.294Z" transform="translate(-48.216 -73.704)" fill="#b3785d"/>
                <path id="Trazado_217377" data-name="Trazado 217377" d="M162.549,312.8h-3.922l-2.2-69.092h11.294Z" transform="translate(-47.307 -73.704)" fill="#d48f6e"/>
                <path id="Trazado_217378" data-name="Trazado 217378" d="M159.954,243.416l1.4-5.531h7.363l-2.368,5.531Z" transform="translate(-48.375 -71.944)" fill="#627b7d"/>
                <path id="Trazado_217379" data-name="Trazado 217379" d="M171.483,237.885h1.182l.28,4.059H170.83l-1.714,1.472Z" transform="translate(-51.146 -71.944)" fill="#779496"/>
                <path id="Trazado_217380" data-name="Trazado 217380" d="M444.93,217.382h29.5a1.8,1.8,0,0,0,1.8-2.347l-4.5-19.171a3.147,3.147,0,0,0-2.9-2.347H439.329a1.8,1.8,0,0,0-1.8,2.347l4.5,19.171a3.147,3.147,0,0,0,2.9,2.347" transform="translate(-132.305 -58.526)" fill="#85939c"/>
                <path id="Trazado_217381" data-name="Trazado 217381" d="M449.693,228.569H488.36a.559.559,0,0,0,0-1.118H449.693a.559.559,0,0,0,0,1.118" transform="translate(-135.833 -68.789)" fill="#85939c"/>
                <path id="Trazado_217382" data-name="Trazado 217382" d="M460.061,211.079c.538,1.993,1.908,3.357,3.058,3.046s1.646-2.179,1.107-4.171-1.908-3.357-3.058-3.046-1.646,2.178-1.107,4.171" transform="translate(-139.072 -62.562)" fill="#aabbc7"/>
                <path id="Trazado_217383" data-name="Trazado 217383" d="M215.165,134.847l10.929-35.214a.814.814,0,0,0-.9-.267l-11.539,34.995a1.061,1.061,0,0,0,.582.581,1.082,1.082,0,0,0,.93-.095" transform="translate(-64.616 -30.039)" fill="#5e4134"/>
              </g>
            </g>
            <g id="Grupo_871586" data-name="Grupo 871586">
              <g id="Grupo_871585" data-name="Grupo 871585" clip-path="url(#clip-path-2)">
                <path id="Trazado_217384" data-name="Trazado 217384" d="M320.474,329.205q-.175.741-.349,1.482a3.843,3.843,0,0,1,0,3.226,24.279,24.279,0,0,1-3.662.087,24.844,24.844,0,0,1-8.72-2.093,1.761,1.761,0,0,1,.174-1.482c.46-.57,1.4-.479,2.006-.436a26.654,26.654,0,0,0,5.145-.174l1.569-1.657,3.837,1.046" transform="translate(-93.047 -99.246)" fill="#1a2530"/>
                <path id="Trazado_217385" data-name="Trazado 217385" d="M286.474,329.205q-.175.741-.349,1.482a3.842,3.842,0,0,1,0,3.226,24.279,24.279,0,0,1-3.662.087,24.845,24.845,0,0,1-8.72-2.093,1.761,1.761,0,0,1,.174-1.482c.46-.57,1.4-.479,2.005-.436a26.655,26.655,0,0,0,5.145-.174l1.57-1.657,3.837,1.046" transform="translate(-82.764 -99.246)" fill="#1a2530"/>
                <path id="Trazado_217386" data-name="Trazado 217386" d="M306.1,266.51a45.492,45.492,0,0,0-6.278,1.046,10.5,10.5,0,0,0-3.313,1.134c-2.287,1.452-3.039,4.126-3.313,5.581q-4.272,17.7-8.545,35.4a4.392,4.392,0,0,0,6.1,1.57c3.063-4.655,6.2-9.885,9.243-15.7a182.97,182.97,0,0,0,9.185-20.52q-1.541-4.258-3.081-8.516" transform="translate(-86.089 -80.602)" fill="#233242"/>
                <path id="Trazado_217387" data-name="Trazado 217387" d="M339.6,266.51a45.491,45.491,0,0,0-6.278,1.046,10.5,10.5,0,0,0-3.313,1.134c-2.287,1.452-3.039,4.126-3.313,5.581q-4.272,17.7-8.545,35.4a4.392,4.392,0,0,0,6.1,1.57c3.063-4.655,6.2-9.885,9.243-15.7a182.975,182.975,0,0,0,9.185-20.52q-1.541-4.258-3.081-8.516" transform="translate(-96.22 -80.602)" fill="#1e2b38"/>
                <path id="Trazado_217388" data-name="Trazado 217388" d="M360.26,270.517a7.272,7.272,0,0,1,.174,4.534,7.151,7.151,0,0,1-1.744,2.965c-11.343.568-23.359.788-35.983.523q-11.288-.236-21.858-.93a10.359,10.359,0,0,1-.058-4.825,10.672,10.672,0,0,1,3.837-5.929,86.646,86.646,0,0,1,55.631,3.662" transform="translate(-90.892 -79.813)" fill="#233242"/>
                <path id="Trazado_217389" data-name="Trazado 217389" d="M373.469,266.367l-1.744,4.011a46.64,46.64,0,0,1-10.115,0,47.843,47.843,0,0,1-19.706-6.8l1.221-2.441Z" transform="translate(-103.403 -78.976)" fill="#15232b"/>
                <path id="Trazado_217390" data-name="Trazado 217390" d="M295.608,217.382H325.1a1.8,1.8,0,0,0,1.8-2.347l-4.5-19.171a3.147,3.147,0,0,0-2.9-2.347H290.007a1.8,1.8,0,0,0-1.8,2.347l4.5,19.171a3.146,3.146,0,0,0,2.9,2.347" transform="translate(-87.145 -58.526)" fill="#85939c"/>
                <path id="Trazado_217391" data-name="Trazado 217391" d="M300.371,228.569h38.668a.559.559,0,0,0,0-1.118H300.371a.559.559,0,0,0,0,1.118" transform="translate(-90.673 -68.789)" fill="#85939c"/>
                <path id="Trazado_217392" data-name="Trazado 217392" d="M322.265,196.6h-33.4l4.713,19.541h33.014Z" transform="translate(-87.361 -59.457)" fill="#41484d"/>
                <path id="Trazado_217393" data-name="Trazado 217393" d="M321.987,226.3a23.643,23.643,0,0,1,12.673-6.046c2.485-.319,8.913-1.146,11.684,2.616a6.741,6.741,0,0,1,1.221,3.43Z" transform="translate(-97.38 -66.52)" fill="#e0a66b"/>
                <path id="Trazado_217394" data-name="Trazado 217394" d="M370.56,178.761c-.464.454-.135,1.756.523,4.36.589,2.333.9,3.506,1.57,3.837,1.717.845,5.578-1.62,5.581-4.011,0-3.08-6.389-5.442-7.673-4.185" transform="translate(-112.004 -53.959)" fill="#f29d83"/>
                <path id="Trazado_217395" data-name="Trazado 217395" d="M369.731,184.558A11.637,11.637,0,0,0,359.965,187q.436,1.395.872,2.79L350.9,195.2q-1.661,10.39-4.011,21.625c-1.624,7.682-3.387,15.007-5.232,21.956a42.048,42.048,0,0,0,9.766,4.709,43.666,43.666,0,0,0,22.439,1.18c1.736-2.507,14.666-21.837,7.208-43.017a43.089,43.089,0,0,0-11.335-17.09" transform="translate(-103.328 -55.745)" fill="#ffd3a6"/>
                <path id="Trazado_217396" data-name="Trazado 217396" d="M367.245,155.993a16.892,16.892,0,0,1-.814,2.674,19.184,19.184,0,0,0-.872,2.221,11.014,11.014,0,0,0-.349,2.006c-.27,2.363-1.165,3.045-1.482,4.709-.338,1.77.021,4.433,1.57,5.668,2.4,1.911,7.465.25,9.766-3.052a8.629,8.629,0,0,0,1.25-6.435c-.806-3.862-4.4-6.948-9.068-7.79" transform="translate(-109.968 -47.178)" fill="#fcc6ae"/>
                <path id="Trazado_217397" data-name="Trazado 217397" d="M391.135,159.965a10.89,10.89,0,0,1-2.2,4.862,13.305,13.305,0,0,1-13.5,4.283l-.007-.007a6.576,6.576,0,0,1-2.225-1.137c-1.828-1.465-.474-2.379-3.286-10.387-1.116-3.16-2.176-5.427-1.1-7.862a6.488,6.488,0,0,1,1.953-2.441c3.578-2.888,8.838-1.472,9.508-1.284a13.308,13.308,0,0,1,8.294,4.3,11.846,11.846,0,0,1,2.56,9.668" transform="translate(-111.408 -43.998)" fill="#59301d"/>
                <path id="Trazado_217398" data-name="Trazado 217398" d="M213.844,329.012h0a2.927,2.927,0,0,0,2.927-2.927V290.434a2.927,2.927,0,0,0-5.854,0v35.651a2.927,2.927,0,0,0,2.927,2.927" transform="translate(-63.788 -86.952)" fill="#48626e"/>
                <rect id="Rectángulo_291986" data-name="Rectángulo 291986" width="35.82" height="2.441" transform="translate(132.146 237.352)" fill="#48626e"/>
                <path id="Trazado_217399" data-name="Trazado 217399" d="M235.54,341.617a4.36,4.36,0,1,0,4.36-4.36,4.359,4.359,0,0,0-4.36,4.36" transform="translate(-71.235 -101.998)" fill="#48626e"/>
                <path id="Trazado_217400" data-name="Trazado 217400" d="M182.187,341.617a4.36,4.36,0,1,0,4.36-4.36,4.36,4.36,0,0,0-4.36,4.36" transform="translate(-55.099 -101.998)" fill="#48626e"/>
                <path id="Trazado_217401" data-name="Trazado 217401" d="M229.408,297.464l-2.215,3.507a62.7,62.7,0,0,1-35.254-.184l-1.846-3.507,39.315.184" transform="translate(-57.49 -89.907)" fill="#48626e"/>
                <path id="Trazado_217402" data-name="Trazado 217402" d="M242.3,295.439H203.7a2.873,2.873,0,0,1-2.873-2.873,5.646,5.646,0,0,1,5.646-5.646h33.056a5.646,5.646,0,0,1,5.646,5.646,2.873,2.873,0,0,1-2.873,2.873" transform="translate(-60.736 -86.774)" fill="#8f491e"/>
                <path id="Trazado_217403" data-name="Trazado 217403" d="M197.673,242H170.409a5.984,5.984,0,0,1-5.858-4.76l-11.466-54.871a2.287,2.287,0,0,1,2.239-2.755h22.2a10.19,10.19,0,0,1,9.975,8.105l11.1,53.134a.954.954,0,0,1-.933,1.148" transform="translate(-46.283 -54.32)" fill="#8f491e"/>
                <path id="Trazado_217404" data-name="Trazado 217404" d="M221.273,295.439H179.8a2.873,2.873,0,0,1-2.873-2.873,5.646,5.646,0,0,1,5.646-5.646h33.056a5.646,5.646,0,0,1,5.646,5.646Z" transform="translate(-53.508 -86.774)" fill="#a16038"/>
                <path id="Trazado_217405" data-name="Trazado 217405" d="M194.91,242H165.7a5.032,5.032,0,0,1-4.925-4l-11.681-55.9a2.063,2.063,0,0,1,2.019-2.484h23.257a9.236,9.236,0,0,1,9.041,7.347Z" transform="translate(-45.077 -54.32)" fill="#a16038"/>
                <path id="Trazado_217406" data-name="Trazado 217406" d="M196.592,280.812l-8.6-.93a55.534,55.534,0,0,1-9.3-14.184,58.464,58.464,0,0,1-3.952-34.413l6.976-.232a306.975,306.975,0,0,0,9.3,34.413q2.678,8.023,5.581,15.346" transform="translate(-52.544 -69.878)" fill="#48626e"/>
                <path id="Trazado_217407" data-name="Trazado 217407" d="M347.924,211.444l-19.946,6.872h-7.906a4.788,4.788,0,0,1-1.173-1.973,6.37,6.37,0,0,1,.239-3.549,14.111,14.111,0,0,1,1.131-3,8.047,8.047,0,0,1,5.327-2.3l14.008-7.779a24.093,24.093,0,0,1,12.9-6.162q-2.294,8.945-4.586,17.892" transform="translate(-96.395 -58.537)" fill="#ffd3a6"/>
                <path id="Trazado_217408" data-name="Trazado 217408" d="M370.092,166.733c.419-.551,1.283-1.173,1.976-.93.842.294,1.023,1.719.931,2.557a4.5,4.5,0,0,1-2.441,3.139c-1.11-1.766-1.319-3.641-.465-4.766" transform="translate(-111.769 -50.128)" fill="#fcc6ae"/>
                <path id="Trazado_217409" data-name="Trazado 217409" d="M370.319,168.54c.046-.629.817-1.3,1.279-1.163.548.159.813,1.488.349,2.384-.334.645-1.054,1.08-1.279.93-.159-.106.05-.427-.058-1.1-.1-.6-.317-.693-.291-1.046" transform="translate(-111.996 -50.615)" fill="#f2aa94"/>
                <path id="Trazado_217410" data-name="Trazado 217410" d="M385.157,151.256a23.541,23.541,0,0,0-2.7-.7,6.381,6.381,0,0,0-4.1,1.308c.236-.534.451-1.194.174-1.482-.5-.516-2.238.506-2.441.174-.176-.287,1.041-1.2.872-1.482-.234-.4-2.843.9-3.139.436-.187-.294.708-1.028.523-1.308-.264-.4-2.377.652-2.442.523a7.336,7.336,0,0,1,3.139-1.831c3.809-1.291,7.849.01,7.848.61,0,.3-1.011.5-.959.785.057.3,1.27.244,1.308.523.036.259-.986.486-.959.785.019.21.536.25,1.221.523.957.383,1.714,1.014,1.657,1.134" transform="translate(-112.476 -44.26)" fill="#693a25"/>
                <path id="Trazado_217411" data-name="Trazado 217411" d="M391.157,151.667a3.523,3.523,0,0,1,1.657-.218c1.026.124,1.627.708,1.744.566s-.334-.929-1.09-1.308c-.539-.27-1.087-.26-1.09-.392s.668-.174.7-.393c.024-.172-.369-.329-1.221-.742a11.878,11.878,0,0,0-1.787-.828c-.678-.2-1.322-.271-1.352-.174-.046.149,1.411.606,1.352,1-.034.223-.52.25-.523.436,0,.253.9.257,1.351.829a1.648,1.648,0,0,1,.262,1.221" transform="translate(-117.56 -44.801)" fill="#693a25"/>
                <path id="Trazado_217412" data-name="Trazado 217412" d="M393.522,165.583a10.89,10.89,0,0,1-2.2,4.862,13.305,13.305,0,0,1-13.5,4.283l-.007-.007a3.125,3.125,0,0,1-1.284-2.414c.1-.781.774-1.109.7-2.093-.1-1.193-1.193-1.807-.928-2.323.237-.474,1.214-.126,1.507-.586.5-.774-1.709-2.686-1.4-3.139.439-.614,4.576,2.965,8.72,2.211a7.729,7.729,0,0,0,4.074-2.323,4.06,4.06,0,0,0,2.9,1.974,2.469,2.469,0,0,0,1.409-.446" transform="translate(-113.795 -49.616)" fill="#452516"/>
                <path id="Trazado_217413" data-name="Trazado 217413" d="M359.9,326.05h0a2.927,2.927,0,0,1-2.927-2.927V287.472a2.927,2.927,0,0,1,5.854,0v35.651a2.927,2.927,0,0,1-2.927,2.927" transform="translate(-107.961 -86.056)" fill="#48626e"/>
                <rect id="Rectángulo_291987" data-name="Rectángulo 291987" width="35.82" height="2.441" transform="translate(234.031 235.286)" fill="#48626e"/>
                <path id="Trazado_217414" data-name="Trazado 217414" d="M336.965,338.655a4.36,4.36,0,1,1-4.36-4.36,4.36,4.36,0,0,1,4.36,4.36" transform="translate(-99.272 -101.102)" fill="#48626e"/>
                <path id="Trazado_217415" data-name="Trazado 217415" d="M390.318,338.655a4.36,4.36,0,1,1-4.36-4.36,4.36,4.36,0,0,1,4.36,4.36" transform="translate(-115.408 -101.102)" fill="#48626e"/>
                <path id="Trazado_217416" data-name="Trazado 217416" d="M329.831,294.5l2.215,3.507a62.7,62.7,0,0,0,35.254-.184l1.846-3.507-39.315.185" transform="translate(-99.752 -89.011)" fill="#48626e"/>
                <path id="Trazado_217417" data-name="Trazado 217417" d="M314.757,292.476h38.6a2.873,2.873,0,0,0,2.873-2.873,5.646,5.646,0,0,0-5.646-5.646H317.53a5.646,5.646,0,0,0-5.646,5.646,2.873,2.873,0,0,0,2.873,2.873" transform="translate(-94.324 -85.878)" fill="#8f491e"/>
                <path id="Trazado_217418" data-name="Trazado 217418" d="M358.845,239.034H386.11a5.984,5.984,0,0,0,5.858-4.76L403.434,179.4a2.287,2.287,0,0,0-2.239-2.755h-22.2a10.19,10.19,0,0,0-9.974,8.105l-11.1,53.134a.954.954,0,0,0,.933,1.148" transform="translate(-108.238 -53.424)" fill="#8f491e"/>
                <path id="Trazado_217419" data-name="Trazado 217419" d="M335.785,292.476H377.26a2.873,2.873,0,0,0,2.873-2.873,5.646,5.646,0,0,0-5.646-5.646H341.431a5.646,5.646,0,0,0-5.646,5.646Z" transform="translate(-101.553 -85.878)" fill="#a16038"/>
                <path id="Trazado_217420" data-name="Trazado 217420" d="M361.49,239.034H390.7a5.032,5.032,0,0,0,4.925-4l11.681-55.9a2.063,2.063,0,0,0-2.019-2.484H382.033a9.237,9.237,0,0,0-9.041,7.347Z" transform="translate(-109.327 -53.424)" fill="#a16038"/>
                <path id="Trazado_217421" data-name="Trazado 217421" d="M369.783,277.849l8.6-.93a55.537,55.537,0,0,0,9.3-14.184,58.464,58.464,0,0,0,3.952-34.413l-6.976-.232a306.974,306.974,0,0,1-9.3,34.413q-2.678,8.023-5.581,15.346" transform="translate(-111.835 -68.982)" fill="#48626e"/>
                <path id="Trazado_217422" data-name="Trazado 217422" d="M351.654,220.187c1.182-.5,2.428-1.076,3.72-1.744,1.628-.841,3.1-1.708,4.418-2.558a6.6,6.6,0,0,1-8.139,4.3" transform="translate(-106.352 -65.291)" fill="#ebb886"/>
                <path id="Trazado_217423" data-name="Trazado 217423" d="M221.614,134.631a6.553,6.553,0,0,0-1.627.116c-.659.131-1.018.209-1.279.523a1.625,1.625,0,0,0-.232,1.337,1.114,1.114,0,0,0-.407.7,1.3,1.3,0,0,0,.93,1.279Z" transform="translate(-65.949 -40.714)" fill="#fcc6ae"/>
              </g>
            </g>
          </g>
        </g>
        <rect id="Rectángulo_292148" data-name="Rectángulo 292148" width="10" height="10" transform="translate(1096 21028)" fill="#3ae3fe"/>
        <rect id="Rectángulo_292149" data-name="Rectángulo 292149" width="10" height="10" transform="translate(1111 21028)" fill="#fcc15a"/>
      </g>
      <rect id="Rectángulo_292147" data-name="Rectángulo 292147" width="559" height="3" rx="1.5" transform="translate(836 21093)" fill="#359547"/>
    </g>
  </g>
</svg>
