<svg xmlns="http://www.w3.org/2000/svg" xmlns:xlink="http://www.w3.org/1999/xlink" width="1030" height="553.686" viewBox="0 0 1030 553.686">
  <defs>
    <linearGradient id="linear-gradient" x1="0.5" x2="0.5" y2="1" gradientUnits="objectBoundingBox">
      <stop offset="0" stop-color="#e1efe3"/>
      <stop offset="1" stop-color="#f1f6fe"/>
    </linearGradient>
    <clipPath id="clip-path">
      <rect id="Rectangle_292110" data-name="Rectangle 292110" width="610" height="328.16" fill="#03386e"/>
    </clipPath>
  </defs>
  <g id="Group_1072243" data-name="Group 1072243" transform="translate(-285 -25787)">
    <g id="Group_1072226" data-name="Group 1072226">
      <path id="Path_609226" data-name="Path 609226" d="M0,0H1030V553.686H0Z" transform="translate(1315 26340.686) rotate(180)" fill="url(#linear-gradient)"/>
      <path id="Path_609293" data-name="Path 609293" d="M8.351,10.762H3.569V14H9.181v2h-8.1V3.914H9.164V5.931H3.569v2.88H8.351Zm1.6.664a5.369,5.369,0,0,1,.942-3.345A3.08,3.08,0,0,1,13.48,6.853a2.758,2.758,0,0,1,2.3,1.1l.158-.938h2.108V19.453H15.639V15.228a2.765,2.765,0,0,1-2.175.938,3.057,3.057,0,0,1-2.557-1.245A5.632,5.632,0,0,1,9.953,11.426Zm2.4.17a3.522,3.522,0,0,0,.452,1.962,1.448,1.448,0,0,0,1.274.673,1.613,1.613,0,0,0,1.561-.881V9.635a1.6,1.6,0,0,0-1.544-.848,1.466,1.466,0,0,0-1.287.673A3.889,3.889,0,0,0,12.352,11.6Zm12.958,3.49a3.008,3.008,0,0,1-2.457,1.079,2.837,2.837,0,0,1-2.2-.83,3.543,3.543,0,0,1-.776-2.432V7.019h2.4v5.809q0,1.4,1.278,1.4a1.732,1.732,0,0,0,1.677-.848V7.019h2.407V16H25.375ZM31.975,16H29.567V7.019h2.407ZM29.426,4.694a1.181,1.181,0,0,1,.361-.888,1.556,1.556,0,0,1,1.963,0,1.175,1.175,0,0,1,.365.888,1.178,1.178,0,0,1-.369.9,1.539,1.539,0,0,1-1.951,0A1.178,1.178,0,0,1,29.426,4.694Zm12.609,6.9a5.387,5.387,0,0,1-.942,3.324,3.021,3.021,0,0,1-2.544,1.249,2.8,2.8,0,0,1-2.2-.946v4.233h-2.4V7.019h2.225l.083.88a2.819,2.819,0,0,1,2.274-1.046,3.041,3.041,0,0,1,2.582,1.229,5.532,5.532,0,0,1,.921,3.387Zm-2.4-.174a3.535,3.535,0,0,0-.444-1.934A1.446,1.446,0,0,0,37.9,8.8a1.571,1.571,0,0,0-1.552.863v3.677a1.6,1.6,0,0,0,1.569.888Q39.636,14.232,39.636,11.418ZM48.726,16a2.664,2.664,0,0,1-.241-.805,2.9,2.9,0,0,1-2.266.971,3.189,3.189,0,0,1-2.187-.764,2.456,2.456,0,0,1-.867-1.926,2.538,2.538,0,0,1,1.058-2.191,5.222,5.222,0,0,1,3.059-.772h1.1V10a1.48,1.48,0,0,0-.32-1,1.257,1.257,0,0,0-1.009-.374,1.429,1.429,0,0,0-.95.291.987.987,0,0,0-.344.8h-2.4a2.41,2.41,0,0,1,.481-1.444A3.182,3.182,0,0,1,45.206,7.23a4.961,4.961,0,0,1,1.976-.378,3.92,3.92,0,0,1,2.635.834,2.918,2.918,0,0,1,.975,2.345v3.893a4.294,4.294,0,0,0,.357,1.934V16Zm-1.984-1.668a2.066,2.066,0,0,0,.979-.237,1.554,1.554,0,0,0,.664-.635V11.916h-.9q-1.8,0-1.917,1.245l-.008.141a.96.96,0,0,0,.315.739A1.225,1.225,0,0,0,46.742,14.332Zm8.143-7.313.075,1a3.156,3.156,0,0,1,2.582-1.17,2.4,2.4,0,0,1,2.382,1.37,3.084,3.084,0,0,1,2.7-1.37A2.679,2.679,0,0,1,64.8,7.7a3.911,3.911,0,0,1,.714,2.561V16H63.1V10.272a1.71,1.71,0,0,0-.3-1.116A1.324,1.324,0,0,0,61.75,8.8a1.5,1.5,0,0,0-1.494,1.029L60.264,16h-2.4V10.281a1.689,1.689,0,0,0-.307-1.129A1.337,1.337,0,0,0,56.512,8.8a1.555,1.555,0,0,0-1.478.847V16h-2.4V7.019Zm15,8.981H67.477V7.019h2.407ZM67.336,4.694a1.181,1.181,0,0,1,.361-.888,1.556,1.556,0,0,1,1.963,0,1.175,1.175,0,0,1,.365.888,1.178,1.178,0,0,1-.369.9,1.539,1.539,0,0,1-1.951,0A1.178,1.178,0,0,1,67.336,4.694Zm8.658,11.472a4.409,4.409,0,0,1-3.217-1.212,4.308,4.308,0,0,1-1.241-3.229v-.232a5.426,5.426,0,0,1,.523-2.42,3.838,3.838,0,0,1,1.482-1.644,4.159,4.159,0,0,1,2.187-.577,3.727,3.727,0,0,1,2.9,1.162,4.722,4.722,0,0,1,1.058,3.3v.979H73.968a2.229,2.229,0,0,0,.7,1.411,2.12,2.12,0,0,0,1.482.531,2.589,2.589,0,0,0,2.167-1l1.179,1.32a3.6,3.6,0,0,1-1.461,1.191A4.793,4.793,0,0,1,75.994,16.166ZM75.72,8.787a1.5,1.5,0,0,0-1.158.484,2.5,2.5,0,0,0-.569,1.384H77.33v-.192A1.786,1.786,0,0,0,76.9,9.224,1.547,1.547,0,0,0,75.72,8.787Zm7.537-1.768.075,1.038a3.136,3.136,0,0,1,2.582-1.2,2.606,2.606,0,0,1,2.125.838,3.912,3.912,0,0,1,.714,2.507V16h-2.4V10.256a1.556,1.556,0,0,0-.332-1.108,1.486,1.486,0,0,0-1.1-.344,1.65,1.65,0,0,0-1.519.863V16H81V7.019ZM93.442,4.811V7.019h1.536v1.76H93.442v4.482a1.07,1.07,0,0,0,.191.714.959.959,0,0,0,.73.216,3.826,3.826,0,0,0,.706-.058V15.95a4.938,4.938,0,0,1-1.453.216,2.29,2.29,0,0,1-2.573-2.548V8.778H89.731V7.019h1.312V4.811Zm2.25,6.616a5.326,5.326,0,0,1,.515-2.382,3.768,3.768,0,0,1,1.482-1.619,4.323,4.323,0,0,1,2.245-.573A4.09,4.09,0,0,1,102.9,7.965a4.464,4.464,0,0,1,1.282,3.021l.017.614a4.694,4.694,0,0,1-1.154,3.316,4.472,4.472,0,0,1-6.2,0,4.777,4.777,0,0,1-1.158-3.387Zm2.4.17a3.357,3.357,0,0,0,.481,1.958,1.73,1.73,0,0,0,2.739.008,3.674,3.674,0,0,0,.49-2.141,3.324,3.324,0,0,0-.49-1.945,1.592,1.592,0,0,0-1.378-.69,1.566,1.566,0,0,0-1.361.686A3.736,3.736,0,0,0,98.09,11.6Z" transform="translate(497 25849)" fill="#12263f"/>
      <path id="Path_609294" data-name="Path 609294" d="M4.333,3.914l3.1,8.766,3.088-8.766H13.8V16H11.3V12.7l.249-5.7L8.284,16H6.574L3.32,7,3.569,12.7V16H1.079V3.914ZM21.018,16a2.664,2.664,0,0,1-.241-.805,2.9,2.9,0,0,1-2.266.971,3.189,3.189,0,0,1-2.187-.764,2.456,2.456,0,0,1-.867-1.926,2.538,2.538,0,0,1,1.058-2.191,5.222,5.222,0,0,1,3.059-.772h1.1V10a1.48,1.48,0,0,0-.32-1,1.257,1.257,0,0,0-1.009-.374,1.429,1.429,0,0,0-.95.291.987.987,0,0,0-.344.8h-2.4a2.41,2.41,0,0,1,.481-1.444A3.182,3.182,0,0,1,17.5,7.23a4.961,4.961,0,0,1,1.976-.378,3.92,3.92,0,0,1,2.635.834,2.918,2.918,0,0,1,.975,2.345v3.893a4.294,4.294,0,0,0,.357,1.934V16Zm-1.984-1.668a2.066,2.066,0,0,0,.979-.237,1.554,1.554,0,0,0,.664-.635V11.916h-.9q-1.8,0-1.917,1.245l-.008.141a.96.96,0,0,0,.315.739A1.225,1.225,0,0,0,19.034,14.332Zm5.52-2.905A5.369,5.369,0,0,1,25.5,8.081a3.08,3.08,0,0,1,2.586-1.229,2.758,2.758,0,0,1,2.3,1.1l.158-.938h2.108V19.453H30.24V15.228a2.765,2.765,0,0,1-2.175.938,3.057,3.057,0,0,1-2.557-1.245A5.632,5.632,0,0,1,24.554,11.426Zm2.4.17a3.522,3.522,0,0,0,.452,1.962,1.448,1.448,0,0,0,1.274.673,1.613,1.613,0,0,0,1.561-.881V9.635A1.6,1.6,0,0,0,28.7,8.787a1.466,1.466,0,0,0-1.287.673A3.889,3.889,0,0,0,26.953,11.6Zm12.958,3.49a3.008,3.008,0,0,1-2.457,1.079,2.837,2.837,0,0,1-2.2-.83,3.543,3.543,0,0,1-.776-2.432V7.019h2.4v5.809q0,1.4,1.278,1.4a1.732,1.732,0,0,0,1.677-.848V7.019h2.407V16H39.977ZM46.576,16H44.168V7.019h2.407ZM44.027,4.694a1.181,1.181,0,0,1,.361-.888,1.556,1.556,0,0,1,1.963,0,1.175,1.175,0,0,1,.365.888,1.178,1.178,0,0,1-.369.9,1.539,1.539,0,0,1-1.951,0A1.178,1.178,0,0,1,44.027,4.694Zm6.732,2.324.075,1.038a3.136,3.136,0,0,1,2.582-1.2,2.606,2.606,0,0,1,2.125.838,3.912,3.912,0,0,1,.714,2.507V16h-2.4V10.256a1.556,1.556,0,0,0-.332-1.108,1.486,1.486,0,0,0-1.1-.344,1.65,1.65,0,0,0-1.519.863V16H48.5V7.019ZM63.277,16a2.664,2.664,0,0,1-.241-.805,2.9,2.9,0,0,1-2.266.971,3.189,3.189,0,0,1-2.187-.764,2.456,2.456,0,0,1-.867-1.926,2.538,2.538,0,0,1,1.058-2.191,5.222,5.222,0,0,1,3.059-.772h1.1V10a1.48,1.48,0,0,0-.32-1,1.257,1.257,0,0,0-1.009-.374,1.429,1.429,0,0,0-.95.291.987.987,0,0,0-.344.8h-2.4A2.41,2.41,0,0,1,58.4,8.272,3.182,3.182,0,0,1,59.757,7.23a4.961,4.961,0,0,1,1.976-.378,3.92,3.92,0,0,1,2.635.834,2.918,2.918,0,0,1,.975,2.345v3.893a4.294,4.294,0,0,0,.357,1.934V16Zm-1.984-1.668a2.066,2.066,0,0,0,.979-.237,1.554,1.554,0,0,0,.664-.635V11.916h-.9q-1.8,0-1.917,1.245l-.008.141a.96.96,0,0,0,.315.739A1.225,1.225,0,0,0,61.293,14.332Zm10.94-5.063A6.517,6.517,0,0,0,71.37,9.2a1.757,1.757,0,0,0-1.785.921V16h-2.4V7.019h2.266l.066,1.071a2.223,2.223,0,0,1,2-1.237,2.514,2.514,0,0,1,.747.108ZM75.919,16H73.512V7.019h2.407ZM73.371,4.694a1.181,1.181,0,0,1,.361-.888,1.556,1.556,0,0,1,1.963,0,1.175,1.175,0,0,1,.365.888,1.178,1.178,0,0,1-.369.9,1.539,1.539,0,0,1-1.951,0A1.178,1.178,0,0,1,73.371,4.694ZM83.1,16a2.664,2.664,0,0,1-.241-.805,2.9,2.9,0,0,1-2.266.971,3.189,3.189,0,0,1-2.187-.764,2.456,2.456,0,0,1-.867-1.926A2.538,2.538,0,0,1,78.6,11.285a5.222,5.222,0,0,1,3.059-.772h1.1V10a1.48,1.48,0,0,0-.32-1,1.257,1.257,0,0,0-1.009-.374,1.429,1.429,0,0,0-.95.291.987.987,0,0,0-.344.8h-2.4a2.41,2.41,0,0,1,.481-1.444A3.182,3.182,0,0,1,79.58,7.23a4.961,4.961,0,0,1,1.976-.378,3.92,3.92,0,0,1,2.635.834,2.918,2.918,0,0,1,.975,2.345v3.893a4.294,4.294,0,0,0,.357,1.934V16Zm-1.984-1.668a2.066,2.066,0,0,0,.979-.237,1.554,1.554,0,0,0,.664-.635V11.916h-.9q-1.8,0-1.917,1.245l-.008.141a.96.96,0,0,0,.315.739A1.225,1.225,0,0,0,81.115,14.332Z" transform="translate(516 26124)" fill="#12263f"/>
      <path id="Path_609295" data-name="Path 609295" d="M4.333,3.914l3.1,8.766,3.088-8.766H13.8V16H11.3V12.7l.249-5.7L8.284,16H6.574L3.32,7,3.569,12.7V16H1.079V3.914ZM19.947,16.166a4.409,4.409,0,0,1-3.217-1.212,4.308,4.308,0,0,1-1.241-3.229v-.232a5.426,5.426,0,0,1,.523-2.42,3.838,3.838,0,0,1,1.482-1.644,4.159,4.159,0,0,1,2.187-.577,3.727,3.727,0,0,1,2.9,1.162,4.722,4.722,0,0,1,1.058,3.3v.979H17.921a2.229,2.229,0,0,0,.7,1.411,2.12,2.12,0,0,0,1.482.531,2.589,2.589,0,0,0,2.167-1l1.179,1.32a3.6,3.6,0,0,1-1.461,1.191A4.793,4.793,0,0,1,19.947,16.166Zm-.274-7.379a1.5,1.5,0,0,0-1.158.484,2.5,2.5,0,0,0-.569,1.384h3.337v-.192a1.786,1.786,0,0,0-.432-1.238A1.547,1.547,0,0,0,19.673,8.787Zm4.956,2.656A5.413,5.413,0,0,1,25.571,8.1a3.057,3.057,0,0,1,2.577-1.245,2.751,2.751,0,0,1,2.167.979V3.25h2.407V16H30.555l-.116-.955a2.823,2.823,0,0,1-2.308,1.121,3.049,3.049,0,0,1-2.544-1.249A5.587,5.587,0,0,1,24.628,11.443Zm2.4.179a3.546,3.546,0,0,0,.44,1.937,1.433,1.433,0,0,0,1.278.673,1.605,1.605,0,0,0,1.569-.939V9.743A1.582,1.582,0,0,0,28.762,8.8Q27.027,8.8,27.027,11.621ZM37.113,16H34.706V7.019h2.407ZM34.564,4.694a1.181,1.181,0,0,1,.361-.888,1.556,1.556,0,0,1,1.963,0,1.175,1.175,0,0,1,.365.888,1.178,1.178,0,0,1-.369.9,1.539,1.539,0,0,1-1.951,0A1.178,1.178,0,0,1,34.564,4.694Zm4.15,6.732a5.327,5.327,0,0,1,.515-2.382,3.767,3.767,0,0,1,1.482-1.619,4.323,4.323,0,0,1,2.245-.573,4.09,4.09,0,0,1,2.968,1.112,4.464,4.464,0,0,1,1.282,3.021l.017.614a4.694,4.694,0,0,1-1.154,3.316,4.472,4.472,0,0,1-6.2,0,4.777,4.777,0,0,1-1.158-3.387Zm2.4.17a3.357,3.357,0,0,0,.481,1.958,1.73,1.73,0,0,0,2.739.008,3.674,3.674,0,0,0,.49-2.141,3.324,3.324,0,0,0-.49-1.945,1.592,1.592,0,0,0-1.378-.69,1.566,1.566,0,0,0-1.361.686A3.735,3.735,0,0,0,41.114,11.6ZM53.905,16a2.664,2.664,0,0,1-.241-.805,2.9,2.9,0,0,1-2.266.971,3.189,3.189,0,0,1-2.187-.764,2.456,2.456,0,0,1-.867-1.926A2.538,2.538,0,0,1,49.4,11.285a5.222,5.222,0,0,1,3.059-.772h1.1V10a1.48,1.48,0,0,0-.32-1,1.257,1.257,0,0,0-1.009-.374,1.429,1.429,0,0,0-.95.291.987.987,0,0,0-.344.8h-2.4a2.41,2.41,0,0,1,.481-1.444A3.182,3.182,0,0,1,50.386,7.23a4.961,4.961,0,0,1,1.976-.378A3.92,3.92,0,0,1,55,7.687a2.918,2.918,0,0,1,.975,2.345v3.893a4.294,4.294,0,0,0,.357,1.934V16Zm-1.984-1.668a2.066,2.066,0,0,0,.979-.237,1.554,1.554,0,0,0,.664-.635V11.916h-.9q-1.8,0-1.917,1.245l-.008.141a.96.96,0,0,0,.315.739A1.225,1.225,0,0,0,51.921,14.332Zm8.143-7.313.075,1a3.156,3.156,0,0,1,2.582-1.17A2.4,2.4,0,0,1,65.1,8.222a3.084,3.084,0,0,1,2.7-1.37,2.679,2.679,0,0,1,2.175.851,3.911,3.911,0,0,1,.714,2.561V16H68.282V10.272a1.71,1.71,0,0,0-.3-1.116A1.324,1.324,0,0,0,66.929,8.8a1.5,1.5,0,0,0-1.494,1.029L65.443,16h-2.4V10.281a1.689,1.689,0,0,0-.307-1.129A1.337,1.337,0,0,0,61.691,8.8a1.555,1.555,0,0,0-1.478.847V16h-2.4V7.019Zm20.561,4.574a5.439,5.439,0,0,1-.921,3.366,3.052,3.052,0,0,1-2.573,1.208A2.8,2.8,0,0,1,74.8,15.045L74.69,16H72.532V3.25h2.4V7.824a2.732,2.732,0,0,1,2.183-.971A3.077,3.077,0,0,1,79.692,8.06a5.446,5.446,0,0,1,.934,3.4Zm-2.4-.174a3.573,3.573,0,0,0-.432-1.988A1.46,1.46,0,0,0,76.508,8.8a1.582,1.582,0,0,0-1.577.938v3.544a1.6,1.6,0,0,0,1.594.946,1.481,1.481,0,0,0,1.527-1.146A5.909,5.909,0,0,0,78.227,11.418ZM84.635,16H82.228V7.019h2.407ZM82.086,4.694a1.181,1.181,0,0,1,.361-.888,1.556,1.556,0,0,1,1.963,0,1.175,1.175,0,0,1,.365.888,1.178,1.178,0,0,1-.369.9,1.539,1.539,0,0,1-1.951,0A1.178,1.178,0,0,1,82.086,4.694Zm8.658,11.472a4.409,4.409,0,0,1-3.217-1.212,4.308,4.308,0,0,1-1.241-3.229v-.232a5.426,5.426,0,0,1,.523-2.42,3.838,3.838,0,0,1,1.482-1.644,4.159,4.159,0,0,1,2.187-.577,3.727,3.727,0,0,1,2.9,1.162,4.722,4.722,0,0,1,1.058,3.3v.979H88.719a2.229,2.229,0,0,0,.7,1.411,2.12,2.12,0,0,0,1.482.531,2.589,2.589,0,0,0,2.167-1l1.179,1.32a3.6,3.6,0,0,1-1.461,1.191A4.793,4.793,0,0,1,90.744,16.166ZM90.47,8.787a1.5,1.5,0,0,0-1.158.484,2.5,2.5,0,0,0-.569,1.384h3.337v-.192a1.786,1.786,0,0,0-.432-1.238A1.547,1.547,0,0,0,90.47,8.787Zm7.537-1.768.075,1.038a3.136,3.136,0,0,1,2.582-1.2,2.606,2.606,0,0,1,2.125.838A3.912,3.912,0,0,1,103.5,10.2V16h-2.4V10.256a1.556,1.556,0,0,0-.332-1.108,1.486,1.486,0,0,0-1.1-.344,1.65,1.65,0,0,0-1.519.863V16h-2.4V7.019Zm10.185-2.208V7.019h1.536v1.76h-1.536v4.482a1.07,1.07,0,0,0,.191.714.959.959,0,0,0,.73.216,3.826,3.826,0,0,0,.706-.058V15.95a4.938,4.938,0,0,1-1.453.216,2.29,2.29,0,0,1-2.573-2.548V8.778h-1.312V7.019h1.312V4.811ZM115.2,16.166a4.409,4.409,0,0,1-3.217-1.212,4.308,4.308,0,0,1-1.241-3.229v-.232a5.426,5.426,0,0,1,.523-2.42,3.838,3.838,0,0,1,1.482-1.644,4.159,4.159,0,0,1,2.187-.577,3.727,3.727,0,0,1,2.9,1.162,4.722,4.722,0,0,1,1.058,3.3v.979h-5.719a2.229,2.229,0,0,0,.7,1.411,2.12,2.12,0,0,0,1.482.531,2.589,2.589,0,0,0,2.167-1l1.179,1.32a3.6,3.6,0,0,1-1.461,1.191A4.793,4.793,0,0,1,115.2,16.166Zm-.274-7.379a1.5,1.5,0,0,0-1.158.484,2.5,2.5,0,0,0-.569,1.384h3.337v-.192a1.786,1.786,0,0,0-.432-1.238A1.547,1.547,0,0,0,114.924,8.787Z" transform="translate(570 25809)" fill="#12263f"/>
      <path id="Path_609296" data-name="Path 609296" d="M4.333,3.914l3.1,8.766,3.088-8.766H13.8V16H11.3V12.7l.249-5.7L8.284,16H6.574L3.32,7,3.569,12.7V16H1.079V3.914ZM21.018,16a2.664,2.664,0,0,1-.241-.805,2.9,2.9,0,0,1-2.266.971,3.189,3.189,0,0,1-2.187-.764,2.456,2.456,0,0,1-.867-1.926,2.538,2.538,0,0,1,1.058-2.191,5.222,5.222,0,0,1,3.059-.772h1.1V10a1.48,1.48,0,0,0-.32-1,1.257,1.257,0,0,0-1.009-.374,1.429,1.429,0,0,0-.95.291.987.987,0,0,0-.344.8h-2.4a2.41,2.41,0,0,1,.481-1.444A3.182,3.182,0,0,1,17.5,7.23a4.961,4.961,0,0,1,1.976-.378,3.92,3.92,0,0,1,2.635.834,2.918,2.918,0,0,1,.975,2.345v3.893a4.294,4.294,0,0,0,.357,1.934V16Zm-1.984-1.668a2.066,2.066,0,0,0,.979-.237,1.554,1.554,0,0,0,.664-.635V11.916h-.9q-1.8,0-1.917,1.245l-.008.141a.96.96,0,0,0,.315.739A1.225,1.225,0,0,0,19.034,14.332ZM27.8,4.811V7.019h1.536v1.76H27.8v4.482a1.07,1.07,0,0,0,.191.714.959.959,0,0,0,.73.216,3.826,3.826,0,0,0,.706-.058V15.95a4.938,4.938,0,0,1-1.453.216A2.29,2.29,0,0,1,25.4,13.618V8.778H24.089V7.019H25.4V4.811Zm7.006,11.355a4.409,4.409,0,0,1-3.217-1.212,4.308,4.308,0,0,1-1.241-3.229v-.232a5.426,5.426,0,0,1,.523-2.42,3.838,3.838,0,0,1,1.482-1.644,4.159,4.159,0,0,1,2.187-.577,3.727,3.727,0,0,1,2.9,1.162,4.722,4.722,0,0,1,1.058,3.3v.979H32.78a2.229,2.229,0,0,0,.7,1.411,2.12,2.12,0,0,0,1.482.531,2.589,2.589,0,0,0,2.167-1l1.179,1.32a3.6,3.6,0,0,1-1.461,1.191A4.793,4.793,0,0,1,34.805,16.166Zm-.274-7.379a1.5,1.5,0,0,0-1.158.484,2.5,2.5,0,0,0-.569,1.384h3.337v-.192a1.786,1.786,0,0,0-.432-1.238A1.547,1.547,0,0,0,34.531,8.787Zm10.376.481a6.517,6.517,0,0,0-.863-.066,1.757,1.757,0,0,0-1.785.921V16h-2.4V7.019h2.266l.066,1.071a2.223,2.223,0,0,1,2-1.237,2.514,2.514,0,0,1,.747.108ZM48.593,16H46.186V7.019h2.407ZM46.044,4.694a1.181,1.181,0,0,1,.361-.888,1.556,1.556,0,0,1,1.963,0,1.175,1.175,0,0,1,.365.888,1.178,1.178,0,0,1-.369.9,1.539,1.539,0,0,1-1.951,0A1.178,1.178,0,0,1,46.044,4.694ZM55.773,16a2.664,2.664,0,0,1-.241-.805,2.9,2.9,0,0,1-2.266.971,3.189,3.189,0,0,1-2.187-.764,2.456,2.456,0,0,1-.867-1.926,2.538,2.538,0,0,1,1.058-2.191,5.222,5.222,0,0,1,3.059-.772h1.1V10a1.48,1.48,0,0,0-.32-1A1.257,1.257,0,0,0,54.1,8.629a1.429,1.429,0,0,0-.95.291.987.987,0,0,0-.344.8h-2.4a2.41,2.41,0,0,1,.481-1.444A3.182,3.182,0,0,1,52.253,7.23a4.961,4.961,0,0,1,1.976-.378,3.92,3.92,0,0,1,2.635.834,2.918,2.918,0,0,1,.975,2.345v3.893a4.294,4.294,0,0,0,.357,1.934V16Zm-1.984-1.668a2.066,2.066,0,0,0,.979-.237,1.554,1.554,0,0,0,.664-.635V11.916h-.9q-1.8,0-1.917,1.245l-.008.141a.96.96,0,0,0,.315.739A1.225,1.225,0,0,0,53.789,14.332ZM62.214,16H59.807V3.25h2.407Zm6.109.166a4.409,4.409,0,0,1-3.217-1.212,4.308,4.308,0,0,1-1.241-3.229v-.232a5.426,5.426,0,0,1,.523-2.42,3.838,3.838,0,0,1,1.482-1.644,4.159,4.159,0,0,1,2.187-.577,3.727,3.727,0,0,1,2.9,1.162,4.722,4.722,0,0,1,1.058,3.3v.979H66.3A2.229,2.229,0,0,0,67,13.7a2.12,2.12,0,0,0,1.482.531,2.589,2.589,0,0,0,2.167-1l1.179,1.32a3.6,3.6,0,0,1-1.461,1.191A4.793,4.793,0,0,1,68.324,16.166ZM68.05,8.787a1.5,1.5,0,0,0-1.158.484,2.5,2.5,0,0,0-.569,1.384H69.66v-.192a1.786,1.786,0,0,0-.432-1.238A1.547,1.547,0,0,0,68.05,8.787Zm10.193,4.731a.773.773,0,0,0-.436-.693,4.95,4.95,0,0,0-1.4-.452Q73.2,11.7,73.2,9.65a2.468,2.468,0,0,1,.992-2,4,4,0,0,1,2.594-.8,4.307,4.307,0,0,1,2.735.805A2.538,2.538,0,0,1,80.551,9.75h-2.4A1.161,1.161,0,0,0,77.82,8.9a1.405,1.405,0,0,0-1.038-.336,1.436,1.436,0,0,0-.938.274.865.865,0,0,0-.332.7.739.739,0,0,0,.378.643,3.885,3.885,0,0,0,1.274.423,10.407,10.407,0,0,1,1.511.4,2.482,2.482,0,0,1,1.9,2.416,2.343,2.343,0,0,1-1.054,1.988,4.548,4.548,0,0,1-2.723.76,4.75,4.75,0,0,1-2-.4,3.363,3.363,0,0,1-1.374-1.1,2.565,2.565,0,0,1-.5-1.515H75.2a1.252,1.252,0,0,0,.473.979,1.877,1.877,0,0,0,1.179.34A1.737,1.737,0,0,0,77.89,14.2.814.814,0,0,0,78.243,13.518Z" transform="translate(606 26164)" fill="#12263f"/>
      <path id="Path_609297" data-name="Path 609297" d="M4.333,3.914l3.1,8.766,3.088-8.766H13.8V16H11.3V12.7l.249-5.7L8.284,16H6.574L3.32,7,3.569,12.7V16H1.079V3.914ZM19.947,16.166a4.409,4.409,0,0,1-3.217-1.212,4.308,4.308,0,0,1-1.241-3.229v-.232a5.426,5.426,0,0,1,.523-2.42,3.838,3.838,0,0,1,1.482-1.644,4.159,4.159,0,0,1,2.187-.577,3.727,3.727,0,0,1,2.9,1.162,4.722,4.722,0,0,1,1.058,3.3v.979H17.921a2.229,2.229,0,0,0,.7,1.411,2.12,2.12,0,0,0,1.482.531,2.589,2.589,0,0,0,2.167-1l1.179,1.32a3.6,3.6,0,0,1-1.461,1.191A4.793,4.793,0,0,1,19.947,16.166Zm-.274-7.379a1.5,1.5,0,0,0-1.158.484,2.5,2.5,0,0,0-.569,1.384h3.337v-.192a1.786,1.786,0,0,0-.432-1.238A1.547,1.547,0,0,0,19.673,8.787Zm.216-5.537H22.5L20.2,5.823H18.253Zm7.985,1.561V7.019H29.41v1.76H27.874v4.482a1.07,1.07,0,0,0,.191.714.959.959,0,0,0,.73.216,3.826,3.826,0,0,0,.706-.058V15.95a4.938,4.938,0,0,1-1.453.216,2.29,2.29,0,0,1-2.573-2.548V8.778H24.164V7.019h1.312V4.811Zm2.25,6.616a5.327,5.327,0,0,1,.515-2.382A3.768,3.768,0,0,1,32.12,7.425a4.323,4.323,0,0,1,2.245-.573,4.09,4.09,0,0,1,2.968,1.112,4.464,4.464,0,0,1,1.282,3.021l.017.614a4.694,4.694,0,0,1-1.154,3.316,4.011,4.011,0,0,1-3.1,1.249,4.031,4.031,0,0,1-3.1-1.245,4.777,4.777,0,0,1-1.158-3.387Zm2.4.17A3.357,3.357,0,0,0,33,13.554a1.73,1.73,0,0,0,2.739.008,3.674,3.674,0,0,0,.49-2.141,3.324,3.324,0,0,0-.49-1.945,1.592,1.592,0,0,0-1.378-.69A1.566,1.566,0,0,0,33,9.472,3.735,3.735,0,0,0,32.522,11.6Zm7.213-.154A5.413,5.413,0,0,1,40.678,8.1a3.057,3.057,0,0,1,2.577-1.245,2.751,2.751,0,0,1,2.167.979V3.25h2.407V16H45.663l-.116-.955a2.823,2.823,0,0,1-2.308,1.121,3.049,3.049,0,0,1-2.544-1.249A5.587,5.587,0,0,1,39.736,11.443Zm2.4.179a3.546,3.546,0,0,0,.44,1.937,1.433,1.433,0,0,0,1.278.673,1.605,1.605,0,0,0,1.569-.939V9.743A1.582,1.582,0,0,0,43.87,8.8Q42.135,8.8,42.135,11.621Zm7.18-.2a5.327,5.327,0,0,1,.515-2.382,3.767,3.767,0,0,1,1.482-1.619,4.323,4.323,0,0,1,2.245-.573,4.09,4.09,0,0,1,2.968,1.112,4.464,4.464,0,0,1,1.282,3.021l.017.614a4.694,4.694,0,0,1-1.154,3.316,4.472,4.472,0,0,1-6.2,0,4.777,4.777,0,0,1-1.158-3.387Zm2.4.17a3.357,3.357,0,0,0,.481,1.958,1.73,1.73,0,0,0,2.739.008,3.674,3.674,0,0,0,.49-2.141,3.324,3.324,0,0,0-.49-1.945,1.592,1.592,0,0,0-1.378-.69,1.566,1.566,0,0,0-1.361.686A3.735,3.735,0,0,0,51.714,11.6Zm12.451,1.922a.773.773,0,0,0-.436-.693,4.95,4.95,0,0,0-1.4-.452q-3.2-.672-3.2-2.723a2.468,2.468,0,0,1,.992-2,4,4,0,0,1,2.594-.8,4.307,4.307,0,0,1,2.735.805A2.538,2.538,0,0,1,66.473,9.75h-2.4a1.161,1.161,0,0,0-.332-.851A1.405,1.405,0,0,0,62.7,8.563a1.436,1.436,0,0,0-.938.274.865.865,0,0,0-.332.7.739.739,0,0,0,.378.643,3.885,3.885,0,0,0,1.274.423A10.407,10.407,0,0,1,64.6,11a2.482,2.482,0,0,1,1.9,2.416,2.343,2.343,0,0,1-1.054,1.988,4.548,4.548,0,0,1-2.723.76,4.75,4.75,0,0,1-2-.4,3.363,3.363,0,0,1-1.374-1.1,2.565,2.565,0,0,1-.5-1.515h2.274a1.252,1.252,0,0,0,.473.979,1.877,1.877,0,0,0,1.179.34,1.737,1.737,0,0,0,1.042-.261A.814.814,0,0,0,64.165,13.518Z" transform="translate(751 26161)" fill="#12263f"/>
      <path id="Path_609298" data-name="Path 609298" d="M3.569,11.742V16H1.079V3.914H5.794a5.455,5.455,0,0,1,2.395.5,3.67,3.67,0,0,1,1.59,1.415,3.946,3.946,0,0,1,.556,2.088,3.47,3.47,0,0,1-1.216,2.8,5.065,5.065,0,0,1-3.366,1.025Zm0-2.017H5.794A2.187,2.187,0,0,0,7.3,9.26a1.691,1.691,0,0,0,.519-1.328A1.994,1.994,0,0,0,7.3,6.5a1.953,1.953,0,0,0-1.444-.564H3.569Zm12.343,6.441A4.409,4.409,0,0,1,12.7,14.954a4.308,4.308,0,0,1-1.241-3.229v-.232a5.426,5.426,0,0,1,.523-2.42A3.838,3.838,0,0,1,13.46,7.429a4.159,4.159,0,0,1,2.187-.577,3.727,3.727,0,0,1,2.9,1.162,4.722,4.722,0,0,1,1.058,3.3v.979H13.887a2.229,2.229,0,0,0,.7,1.411,2.12,2.12,0,0,0,1.482.531,2.589,2.589,0,0,0,2.167-1l1.179,1.32a3.6,3.6,0,0,1-1.461,1.191A4.793,4.793,0,0,1,15.913,16.166Zm-.274-7.379a1.5,1.5,0,0,0-1.158.484,2.5,2.5,0,0,0-.569,1.384h3.337v-.192a1.786,1.786,0,0,0-.432-1.238A1.547,1.547,0,0,0,15.639,8.787Zm10.376.481a6.517,6.517,0,0,0-.863-.066,1.757,1.757,0,0,0-1.785.921V16h-2.4V7.019h2.266L23.3,8.089a2.223,2.223,0,0,1,2-1.237,2.514,2.514,0,0,1,.747.108Zm6.018,4.25a.773.773,0,0,0-.436-.693,4.95,4.95,0,0,0-1.4-.452q-3.2-.672-3.2-2.723a2.468,2.468,0,0,1,.992-2,4,4,0,0,1,2.594-.8,4.307,4.307,0,0,1,2.735.805A2.538,2.538,0,0,1,34.34,9.75h-2.4a1.161,1.161,0,0,0-.332-.851,1.405,1.405,0,0,0-1.038-.336,1.436,1.436,0,0,0-.938.274.865.865,0,0,0-.332.7.739.739,0,0,0,.378.643,3.885,3.885,0,0,0,1.274.423,10.407,10.407,0,0,1,1.511.4,2.482,2.482,0,0,1,1.9,2.416,2.343,2.343,0,0,1-1.054,1.988,4.548,4.548,0,0,1-2.723.76,4.75,4.75,0,0,1-2-.4,3.363,3.363,0,0,1-1.374-1.1,2.565,2.565,0,0,1-.5-1.515h2.274a1.252,1.252,0,0,0,.473.979,1.877,1.877,0,0,0,1.179.34A1.737,1.737,0,0,0,31.68,14.2.814.814,0,0,0,32.033,13.518Zm3.5-2.092a5.327,5.327,0,0,1,.515-2.382,3.767,3.767,0,0,1,1.482-1.619,4.323,4.323,0,0,1,2.245-.573,4.09,4.09,0,0,1,2.968,1.112,4.464,4.464,0,0,1,1.282,3.021l.017.614a4.694,4.694,0,0,1-1.154,3.316,4.472,4.472,0,0,1-6.2,0,4.777,4.777,0,0,1-1.158-3.387Zm2.4.17a3.357,3.357,0,0,0,.481,1.958,1.73,1.73,0,0,0,2.739.008,3.674,3.674,0,0,0,.49-2.141,3.324,3.324,0,0,0-.49-1.945,1.592,1.592,0,0,0-1.378-.69,1.566,1.566,0,0,0-1.361.686A3.735,3.735,0,0,0,37.935,11.6Zm9.795-4.578L47.8,8.056a3.136,3.136,0,0,1,2.582-1.2,2.606,2.606,0,0,1,2.125.838,3.912,3.912,0,0,1,.714,2.507V16h-2.4V10.256a1.556,1.556,0,0,0-.332-1.108,1.486,1.486,0,0,0-1.1-.344,1.65,1.65,0,0,0-1.519.863V16h-2.4V7.019ZM60.247,16a2.664,2.664,0,0,1-.241-.805,2.9,2.9,0,0,1-2.266.971,3.189,3.189,0,0,1-2.187-.764,2.456,2.456,0,0,1-.867-1.926,2.538,2.538,0,0,1,1.058-2.191,5.222,5.222,0,0,1,3.059-.772h1.1V10a1.48,1.48,0,0,0-.32-1,1.257,1.257,0,0,0-1.009-.374,1.429,1.429,0,0,0-.95.291.987.987,0,0,0-.344.8h-2.4a2.41,2.41,0,0,1,.481-1.444A3.182,3.182,0,0,1,56.728,7.23,4.961,4.961,0,0,1,58.7,6.853a3.92,3.92,0,0,1,2.635.834,2.918,2.918,0,0,1,.975,2.345v3.893a4.294,4.294,0,0,0,.357,1.934V16Zm-1.984-1.668a2.066,2.066,0,0,0,.979-.237,1.554,1.554,0,0,0,.664-.635V11.916h-.9q-1.8,0-1.917,1.245l-.008.141a.96.96,0,0,0,.315.739A1.225,1.225,0,0,0,58.263,14.332Zm10.758-.813a.773.773,0,0,0-.436-.693,4.95,4.95,0,0,0-1.4-.452q-3.2-.672-3.2-2.723a2.468,2.468,0,0,1,.992-2,4,4,0,0,1,2.594-.8,4.307,4.307,0,0,1,2.735.805A2.538,2.538,0,0,1,71.329,9.75h-2.4A1.161,1.161,0,0,0,68.6,8.9a1.405,1.405,0,0,0-1.038-.336,1.436,1.436,0,0,0-.938.274.865.865,0,0,0-.332.7.739.739,0,0,0,.378.643,3.885,3.885,0,0,0,1.274.423,10.407,10.407,0,0,1,1.511.4,2.482,2.482,0,0,1,1.9,2.416A2.343,2.343,0,0,1,70.3,15.406a4.548,4.548,0,0,1-2.723.76,4.75,4.75,0,0,1-2-.4,3.363,3.363,0,0,1-1.374-1.1,2.565,2.565,0,0,1-.5-1.515h2.274a1.252,1.252,0,0,0,.473.979,1.877,1.877,0,0,0,1.179.34,1.737,1.737,0,0,0,1.042-.261A.814.814,0,0,0,69.021,13.518Z" transform="translate(747 25817)" fill="#12263f"/>
      <g id="Group_871759" data-name="Group 871759" transform="translate(495 25835.398)" clip-path="url(#clip-path)">
        <path id="Path_217719" data-name="Path 217719" d="M394.909,311.555c32.1-6.545,63.95-19.771,100.234-41.614,37.512-22.585,68.234-46.8,93.918-74.025,27.773-29.439,27.844-36.73.655-65.024C532.844,71.727,470.971,34.061,400.55,15.752c-7.244-1.879-15.621-1.694-17.591.395-2.988,3.178-1.848,5.176,3.628,10.4a42.91,42.91,0,0,1,3.889,4.05c24.006,30.24,37.871,67.6,42.372,114.221.415,4.252-.387,7.414-2.448,9.664-2.132,2.329-5.416,3.4-10.189,3.407-16.2-.122-33.58-.209-50.879-.059h-.2c-9.708,0-11.563-6.316-12.092-11.831l-.572-6.1c-1.445-15.321-2.933-31.168-5.882-46.39-6.016-31.089-23.466-56.149-38.5-74.759-.083.039-.166.079-.249.114a16.943,16.943,0,0,0-3.048,1.662,43.089,43.089,0,0,0-3.841,3.525c2.527,4.232,5.089,8.413,7.639,12.574,6.463,10.541,13.15,21.444,18.772,32.628,12.574,24.982,14.267,52.415,14.867,76.169.1,4.22-.829,7.268-2.858,9.325-2.736,2.771-6.877,3.052-10.162,3.048-17.181-.193-34-.328-50.8.189-5.061.182-8.519-.872-10.955-3.217-3.253-3.131-3.7-7.9-3.727-11.7C267.372,94.482,252.145,48.7,221.175,3.087,220.5,2.1,219.73,1.172,218.853.107L218.767,0a41.779,41.779,0,0,0-3.893,1.978c-1.263.758-2.456,1.642-3.96,2.756-.174.126-.347.253-.529.387q1.19,2.055,2.365,4.106c2.566,4.473,5.223,9.1,8.034,13.454,22.838,35.337,34.926,74.578,36.951,119.961.261,5.72-.794,9.546-3.308,12.045-3.281,3.257-8.389,3.391-11.974,3.206-6.984-.363-14.161-.268-21.089-.174-3.585.051-7.181.122-10.742.087-17.808-.051-19.344-1.445-20.509-18.618-3.225-47.567-30.88-81.7-55.17-106.266a8.848,8.848,0,0,0-1.978,1.011c-1.571,1.3-3.1,2.779-4.864,4.493l-.675.651q3.275,3.968,6.545,7.892c5.906,7.1,12.017,14.445,17.844,21.788C167.9,89,177.157,113,180.13,142.132c.375,3.664.5,8.93-2.7,12.337-2.424,2.574-6.186,3.644-11.895,3.435-12.266-.505-25.755-.482-41.223.055-8.219.284-14.074-2.59-20.292-9.933C77.1,116.246,46.959,95.75,11.879,85.371c-2.538-.754-5.862-.016-9.388.766-.73.162-1.469.324-2.215.478q.2.865.379,1.729c.707,3.257,1.37,6.332,2.89,8.547a119.33,119.33,0,0,1-.821,135.827c-1.358,1.93-1.871,4.789-2.412,7.821-.1.565-.205,1.133-.312,1.694.707.178,1.4.367,2.092.557,3.206.876,6.23,1.705,8.432,1.066,36.245-10.481,67.894-32.111,96.752-66.133,4.256-5.018,11.287-8.863,17.1-9.356,7.84-.659,15.807-.537,23.5-.434,5.926.083,12.06.17,18.033-.1,5.345-.268,8.969.782,11.35,3.249,3.154,3.265,3.21,8.306,2.846,12.8-2.732,33.836-17.094,64.716-43.919,94.4-2.282,2.527-4.512,5.1-7.011,7.982l-2,2.3,7.493,6.581c34.555-35.372,51.653-68.3,55.352-106.46.245-2.538.415-4.714.561-6.585,1.015-13,2.238-14.184,14.7-14.082,2.088.02,4.579.039,7.568-.02,3.853-.083,7.726-.012,11.6.063,5.878.1,11.962.217,17.828-.237,5.519-.426,9.277.517,11.828,2.981,3.415,3.3,3.675,8.65,3.474,13.454-1.9,45.865-15.827,89.046-41.408,128.335-1.674,2.574-3.233,5.227-4.943,8.14-.411.7-.829,1.417-1.263,2.144l8.74,5.274c27.638-41.187,42.526-78.64,46.8-117.668,1.267-11.591,2.017-21.263,2.353-30.441.3-8.136,4.264-12.1,12.116-12.1h.17c17.844.126,36.292.253,54.416-.063,4.019-.039,6.917.805,8.879,2.756,2.748,2.728,2.941,6.869,2.906,10.537-.466,48.6-14.386,88.363-42.545,121.469l7.951,6.968c22.806-27.627,36.312-56.686,41.246-88.746A381.917,381.917,0,0,0,357.038,180c.391-8.646,4.5-12.289,13.1-12.128,15.637.249,32.463.415,49.62-.032,4.986-.134,8.413.924,10.659,3.32,2.992,3.19,2.933,8,2.629,11.346C428.71,230.259,413.807,268.4,387.487,299.1c-1.757,2.049-2.7,5.128-3.7,8.385-.186.6-.371,1.2-.565,1.808.746.217,1.488.45,2.223.679,3.5,1.086,6.81,2.136,9.463,1.579M99.374,172.092C82.217,194.8,58.806,212.324,27.8,225.659L21.44,228.4l2.42-6.49c14.441-38.775,14.532-76.275.276-114.636l-2.381-6.415,6.3,2.653c30.074,12.649,53.39,30.078,71.265,53.283,2.791,3.628,2.819,11.634.047,15.3M408.726,291c47.283-84.431,47.535-167.694.782-254.545l-1.48-2.744,2.823-1.334c.446-.209.817-.426,1.129-.608a5.036,5.036,0,0,1,3.549-.9,56.753,56.753,0,0,1,8.35,2.144,421.557,421.557,0,0,1,162,106.168c18.03,18.945,18.045,28.215.083,47.227-44.535,47.144-99.014,82.927-161.922,106.345a39.83,39.83,0,0,1-7.319,1.7c-1.421.245-3,.517-4.808.888l-6.348,1.3Z" transform="translate(0 0.002)" fill="#03386e"/>
        <path id="Path_217720" data-name="Path 217720" d="M126.668,44.8c.008,8.2,8.729,16.707,17.193,16.778,8.673.067,16.885-8.061,16.924-16.762.04-8.729-7.907-17.05-16.517-17.291-8.444-.237-17.607,8.76-17.6,17.276m5.14,1.934q.124-2.641.245-5.282c4.406-2.527,9.033-7.307,13.15-6.9,3.656.363,9.917,7.145,9.34,9.9-.892,4.26-6.34,9.976-10.406,10.458-3.731.442-8.192-5.211-12.329-8.18" transform="translate(373.39 81.116)" fill="#03386e"/>
      </g>
      <path id="Path_217721" data-name="Path 217721" d="M-7768,13152.692h41.275" transform="translate(8376 12745)" fill="none" stroke="#03386e" stroke-width="1"/>
      <path id="Path_217722" data-name="Path 217722" d="M-7768,13152.692h54.408" transform="translate(8376 12761.692)" fill="none" stroke="#03386e" stroke-width="1"/>
      <path id="Path_217723" data-name="Path 217723" d="M-7768,13152.692h54.408" transform="translate(8376 12778.385)" fill="none" stroke="#03386e" stroke-width="1"/>
      <path id="Path_217724" data-name="Path 217724" d="M-7768,13152.692h64.7" transform="translate(8376 12795.077)" fill="none" stroke="#03386e" stroke-width="1"/>
      <path id="Path_217725" data-name="Path 217725" d="M-7768,13152.692h69.082" transform="translate(8376 12811.77)" fill="none" stroke="#03386e" stroke-width="1"/>
      <path id="Path_217726" data-name="Path 217726" d="M-7768,13152.692h71.359" transform="translate(8376 12828.462)" fill="none" stroke="#03386e" stroke-width="1"/>
      <path id="Path_217721-2" data-name="Path 217721" d="M-7726.725,13152.692H-7768" transform="translate(-7119.725 39253.691) rotate(180)" fill="none" stroke="#03386e" stroke-width="1"/>
      <path id="Path_217722-2" data-name="Path 217722" d="M-7713.592,13152.692H-7768" transform="translate(-7106.592 39237) rotate(180)" fill="none" stroke="#03386e" stroke-width="1"/>
      <path id="Path_217723-2" data-name="Path 217723" d="M-7713.592,13152.692H-7768" transform="translate(-7106.592 39220.305) rotate(180)" fill="none" stroke="#03386e" stroke-width="1"/>
      <path id="Path_217724-2" data-name="Path 217724" d="M-7703.3,13152.692H-7768" transform="translate(-7096.305 39203.613) rotate(180)" fill="none" stroke="#03386e" stroke-width="1"/>
      <path id="Path_217725-2" data-name="Path 217725" d="M-7698.918,13152.692H-7768" transform="translate(-7091.918 39186.922) rotate(180)" fill="none" stroke="#03386e" stroke-width="1"/>
      <path id="Path_217726-2" data-name="Path 217726" d="M-7696.641,13152.692H-7768" transform="translate(-7089.641 39170.23) rotate(180)" fill="none" stroke="#03386e" stroke-width="1"/>
      <path id="Path_217721-3" data-name="Path 217721" d="M-7768,13152.692h48.217" transform="translate(8458 12745)" fill="none" stroke="#03386e" stroke-width="1"/>
      <path id="Path_217722-3" data-name="Path 217722" d="M-7768,13152.692h54.408" transform="translate(8458 12761.692)" fill="none" stroke="#03386e" stroke-width="1"/>
      <path id="Path_217723-3" data-name="Path 217723" d="M-7768,13152.692h62.664" transform="translate(8458 12778.385)" fill="none" stroke="#03386e" stroke-width="1"/>
      <path id="Path_217724-3" data-name="Path 217724" d="M-7768,13152.692h64.7" transform="translate(8458 12795.077)" fill="none" stroke="#03386e" stroke-width="1"/>
      <path id="Path_217725-3" data-name="Path 217725" d="M-7768,13152.692h69.082" transform="translate(8458 12811.77)" fill="none" stroke="#03386e" stroke-width="1"/>
      <path id="Path_217726-3" data-name="Path 217726" d="M-7768,13152.692h71.359" transform="translate(8458 12828.462)" fill="none" stroke="#03386e" stroke-width="1"/>
      <path id="Path_217721-4" data-name="Path 217721" d="M-7719.783,13152.692H-7768" transform="translate(-7030.782 39253.691) rotate(180)" fill="none" stroke="#03386e" stroke-width="1"/>
      <path id="Path_217722-4" data-name="Path 217722" d="M-7713.592,13152.692H-7768" transform="translate(-7024.592 39237) rotate(180)" fill="none" stroke="#03386e" stroke-width="1"/>
      <path id="Path_217723-4" data-name="Path 217723" d="M-7705.335,13152.692H-7768" transform="translate(-7016.335 39220.305) rotate(180)" fill="none" stroke="#03386e" stroke-width="1"/>
      <path id="Path_217724-4" data-name="Path 217724" d="M-7703.3,13152.692H-7768" transform="translate(-7014.305 39203.613) rotate(180)" fill="none" stroke="#03386e" stroke-width="1"/>
      <path id="Path_217725-4" data-name="Path 217725" d="M-7698.918,13152.692H-7768" transform="translate(-7009.918 39186.922) rotate(180)" fill="none" stroke="#03386e" stroke-width="1"/>
      <path id="Path_217726-4" data-name="Path 217726" d="M-7696.641,13152.692H-7768" transform="translate(-7007.641 39170.23) rotate(180)" fill="none" stroke="#03386e" stroke-width="1"/>
      <path id="Path_217721-5" data-name="Path 217721" d="M-7768,13152.692h48.217" transform="translate(8547.32 12745)" fill="none" stroke="#03386e" stroke-width="1"/>
      <path id="Path_217722-5" data-name="Path 217722" d="M-7768,13152.692h54.408" transform="translate(8547.32 12761.692)" fill="none" stroke="#03386e" stroke-width="1"/>
      <path id="Path_217723-5" data-name="Path 217723" d="M-7768,13152.692h62.664" transform="translate(8547.32 12778.385)" fill="none" stroke="#03386e" stroke-width="1"/>
      <path id="Path_217724-5" data-name="Path 217724" d="M-7768,13152.692h64.7" transform="translate(8547.32 12795.077)" fill="none" stroke="#03386e" stroke-width="1"/>
      <path id="Path_217725-5" data-name="Path 217725" d="M-7768,13152.692h69.082" transform="translate(8547.32 12811.77)" fill="none" stroke="#03386e" stroke-width="1"/>
      <path id="Path_217726-5" data-name="Path 217726" d="M-7768,13152.692h71.359" transform="translate(8547.32 12828.462)" fill="none" stroke="#03386e" stroke-width="1"/>
      <path id="Path_217721-6" data-name="Path 217721" d="M-7719.783,13152.692H-7768" transform="translate(-6941.462 39253.691) rotate(180)" fill="none" stroke="#03386e" stroke-width="1"/>
      <path id="Path_217722-6" data-name="Path 217722" d="M-7713.592,13152.692H-7768" transform="translate(-6935.271 39237) rotate(180)" fill="none" stroke="#03386e" stroke-width="1"/>
      <path id="Path_217723-6" data-name="Path 217723" d="M-7705.335,13152.692H-7768" transform="translate(-6927.015 39220.305) rotate(180)" fill="none" stroke="#03386e" stroke-width="1"/>
      <path id="Path_217724-6" data-name="Path 217724" d="M-7703.3,13152.692H-7768" transform="translate(-6924.984 39203.613) rotate(180)" fill="none" stroke="#03386e" stroke-width="1"/>
      <path id="Path_217725-6" data-name="Path 217725" d="M-7698.918,13152.692H-7768" transform="translate(-6920.598 39186.922) rotate(180)" fill="none" stroke="#03386e" stroke-width="1"/>
      <path id="Path_217726-6" data-name="Path 217726" d="M-7696.641,13152.692H-7768" transform="translate(-6918.32 39170.23) rotate(180)" fill="none" stroke="#03386e" stroke-width="1"/>
      <path id="Path_214670" data-name="Path 214670" d="M0,0H14.81L29.62,19.932H14.81Z" transform="translate(285 26192.348) rotate(-90)" fill="#6debff"/>
      <path id="Path_214675" data-name="Path 214675" d="M0,0H14.81L29.62,19.932H14.81Z" transform="translate(285 26125.701) rotate(-90)" fill="#6debff"/>
      <path id="Path_214671" data-name="Path 214671" d="M0,0H14.81L29.62,19.932H14.81Z" transform="translate(285 26170.131) rotate(-90)" fill="#6debff"/>
      <path id="Path_214674" data-name="Path 214674" d="M0,0H14.81L29.62,19.932H14.81Z" transform="translate(285 26103.486) rotate(-90)" fill="#6debff"/>
      <path id="Path_214672" data-name="Path 214672" d="M0,0H14.81L29.62,19.932H14.81Z" transform="translate(285 26147.916) rotate(-90)" fill="#6debff"/>
      <path id="Path_214673" data-name="Path 214673" d="M0,0H14.81L29.62,19.932H14.81Z" transform="translate(285 26081.271) rotate(-90)" fill="#6debff"/>
      <path id="Path_217729" data-name="Path 217729" d="M284.6,11.449H0L10.013,0H276.5Z" transform="translate(1284.6 25798.449) rotate(180)" fill="#2b7e3b"/>
      <g id="Group_871793" data-name="Group 871793" transform="matrix(0.643, 0.766, -0.766, 0.643, 797.437, 25834)">
        <path id="Path_213857" data-name="Path 213857" d="M14.466,0,12.184,2.282l6.723,6.724L12.184,15.73l2.282,2.281,9.005-9.005Z" transform="translate(-6.568 0)" fill="#18b8c4"/>
        <path id="Path_213858" data-name="Path 213858" d="M0,9.2l3.534,3.534L0,16.269,2.281,18.55,8.1,12.735,2.281,6.92Z" transform="translate(0 -3.73)" fill="#18b8c4"/>
      </g>
      <g id="Group_871795" data-name="Group 871795" transform="matrix(0.643, 0.766, -0.766, 0.643, 619.425, 25850.473)">
        <path id="Path_213857-2" data-name="Path 213857" d="M14.466,0,12.184,2.282l6.723,6.724L12.184,15.73l2.282,2.281,9.005-9.005Z" transform="translate(-6.568 0)" fill="#18b8c4"/>
        <path id="Path_213858-2" data-name="Path 213858" d="M0,9.2l3.534,3.534L0,16.269,2.281,18.55,8.1,12.735,2.281,6.92Z" transform="translate(0 -3.73)" fill="#18b8c4"/>
      </g>
      <g id="Group_871794" data-name="Group 871794" transform="matrix(0.643, 0.766, -0.766, 0.643, 703.437, 25816)">
        <path id="Path_213857-3" data-name="Path 213857" d="M14.466,0,12.184,2.282l6.723,6.724L12.184,15.73l2.282,2.281,9.005-9.005Z" transform="translate(-6.568 0)" fill="#18b8c4"/>
        <path id="Path_213858-3" data-name="Path 213858" d="M0,9.2l3.534,3.534L0,16.269,2.281,18.55,8.1,12.735,2.281,6.92Z" transform="translate(0 -3.73)" fill="#18b8c4"/>
      </g>
      <g id="Group_871793-2" data-name="Group 871793" transform="translate(783.639 26151.422) rotate(-50)">
        <path id="Path_213857-4" data-name="Path 213857" d="M2.282,18.011,0,15.729,6.723,9.005,0,2.281,2.282,0l9.005,9.005Z" transform="translate(5.617 0)" fill="#18b8c4"/>
        <path id="Path_213858-4" data-name="Path 213858" d="M0,9.349,3.534,5.815,0,2.281,2.281,0,8.1,5.815,2.281,11.631Z" transform="translate(0 3.19)" fill="#18b8c4"/>
      </g>
      <g id="Group_871795-2" data-name="Group 871795" transform="translate(605.627 26134.949) rotate(-50)">
        <path id="Path_213857-5" data-name="Path 213857" d="M2.282,18.011,0,15.729,6.723,9.005,0,2.281,2.282,0l9.005,9.005Z" transform="translate(5.617 0)" fill="#18b8c4"/>
        <path id="Path_213858-5" data-name="Path 213858" d="M0,9.349,3.534,5.815,0,2.281,2.281,0,8.1,5.815,2.281,11.631Z" transform="translate(0 3.19)" fill="#18b8c4"/>
      </g>
      <g id="Group_871794-2" data-name="Group 871794" transform="translate(689.639 26169.422) rotate(-50)">
        <path id="Path_213857-6" data-name="Path 213857" d="M2.282,18.011,0,15.729,6.723,9.005,0,2.281,2.282,0l9.005,9.005Z" transform="translate(5.617 0)" fill="#18b8c4"/>
        <path id="Path_213858-6" data-name="Path 213858" d="M0,9.349,3.534,5.815,0,2.281,2.281,0,8.1,5.815,2.281,11.631Z" transform="translate(0 3.19)" fill="#18b8c4"/>
      </g>
      <path id="Path_609252" data-name="Path 609252" d="M0,0H152V28H0Z" transform="translate(322 25818)" fill="#03386e"/>
      <path id="Path_609299" data-name="Path 609299" d="M0,0H152V28H0Z" transform="translate(323 25943)" fill="#03386e"/>
      <path id="Path_609300" data-name="Path 609300" d="M0,0H152V28H0Z" transform="translate(1105 25875)" fill="#03386e"/>
      <path id="Path_609301" data-name="Path 609301" d="M0,0H152V28H0Z" transform="translate(1105 26073)" fill="#03386e"/>
      <path id="Path_609302" data-name="Path 609302" d="M5.553,11.576H3.569V16H1.079V3.914H5.57a5.076,5.076,0,0,1,3.3.955,3.3,3.3,0,0,1,1.162,2.7A3.718,3.718,0,0,1,9.5,9.629a3.651,3.651,0,0,1-1.623,1.316l2.615,4.939V16H7.819ZM3.569,9.559H5.578a2.057,2.057,0,0,0,1.453-.477,1.706,1.706,0,0,0,.515-1.316A1.826,1.826,0,0,0,7.06,6.421a2.018,2.018,0,0,0-1.49-.49h-2ZM16.975,16a2.664,2.664,0,0,1-.241-.805,2.9,2.9,0,0,1-2.266.971,3.189,3.189,0,0,1-2.187-.764,2.456,2.456,0,0,1-.867-1.926,2.538,2.538,0,0,1,1.058-2.191,5.222,5.222,0,0,1,3.059-.772h1.1V10a1.48,1.48,0,0,0-.32-1,1.257,1.257,0,0,0-1.009-.374,1.429,1.429,0,0,0-.95.291.987.987,0,0,0-.344.8h-2.4a2.41,2.41,0,0,1,.481-1.444A3.182,3.182,0,0,1,13.456,7.23a4.961,4.961,0,0,1,1.976-.378,3.92,3.92,0,0,1,2.635.834,2.918,2.918,0,0,1,.975,2.345v3.893a4.294,4.294,0,0,0,.357,1.934V16Zm-1.984-1.668a2.066,2.066,0,0,0,.979-.237,1.554,1.554,0,0,0,.664-.635V11.916h-.9q-1.8,0-1.917,1.245l-.008.141a.96.96,0,0,0,.315.739A1.225,1.225,0,0,0,14.991,14.332Zm8.143-7.313.075,1a3.156,3.156,0,0,1,2.582-1.17,2.4,2.4,0,0,1,2.382,1.37,3.084,3.084,0,0,1,2.7-1.37,2.679,2.679,0,0,1,2.175.851,3.911,3.911,0,0,1,.714,2.561V16H31.352V10.272a1.71,1.71,0,0,0-.3-1.116A1.324,1.324,0,0,0,30,8.8,1.5,1.5,0,0,0,28.5,9.833L28.513,16h-2.4V10.281a1.689,1.689,0,0,0-.307-1.129A1.337,1.337,0,0,0,24.761,8.8a1.555,1.555,0,0,0-1.478.847V16h-2.4V7.019ZM40.807,16a2.664,2.664,0,0,1-.241-.805,2.9,2.9,0,0,1-2.266.971,3.189,3.189,0,0,1-2.187-.764,2.456,2.456,0,0,1-.867-1.926A2.538,2.538,0,0,1,36.3,11.285a5.222,5.222,0,0,1,3.059-.772h1.1V10a1.48,1.48,0,0,0-.32-1,1.257,1.257,0,0,0-1.009-.374,1.429,1.429,0,0,0-.95.291.987.987,0,0,0-.344.8h-2.4a2.41,2.41,0,0,1,.481-1.444A3.182,3.182,0,0,1,37.287,7.23a4.961,4.961,0,0,1,1.976-.378,3.92,3.92,0,0,1,2.635.834,2.918,2.918,0,0,1,.975,2.345v3.893a4.294,4.294,0,0,0,.357,1.934V16Zm-1.984-1.668a2.066,2.066,0,0,0,.979-.237,1.554,1.554,0,0,0,.664-.635V11.916h-.9q-1.8,0-1.917,1.245l-.008.141a.96.96,0,0,0,.315.739A1.225,1.225,0,0,0,38.823,14.332Zm10.758-.813a.773.773,0,0,0-.436-.693,4.95,4.95,0,0,0-1.4-.452q-3.2-.672-3.2-2.723a2.468,2.468,0,0,1,.992-2,4,4,0,0,1,2.594-.8,4.307,4.307,0,0,1,2.735.805A2.538,2.538,0,0,1,51.888,9.75h-2.4a1.161,1.161,0,0,0-.332-.851,1.405,1.405,0,0,0-1.038-.336,1.436,1.436,0,0,0-.938.274.865.865,0,0,0-.332.7.739.739,0,0,0,.378.643A3.885,3.885,0,0,0,48.5,10.6a10.407,10.407,0,0,1,1.511.4,2.482,2.482,0,0,1,1.9,2.416,2.343,2.343,0,0,1-1.054,1.988,4.548,4.548,0,0,1-2.723.76,4.75,4.75,0,0,1-2-.4,3.363,3.363,0,0,1-1.374-1.1,2.565,2.565,0,0,1-.5-1.515h2.274a1.252,1.252,0,0,0,.473.979,1.877,1.877,0,0,0,1.179.34,1.737,1.737,0,0,0,1.042-.261A.814.814,0,0,0,49.581,13.518Z" transform="translate(346 25822)" fill="#fff"/>
      <path id="Path_609303" data-name="Path 609303" d="M10.567,11.974a4.277,4.277,0,0,1-1.44,3.071A5.058,5.058,0,0,1,5.7,16.166,4.548,4.548,0,0,1,2.046,14.6a6.416,6.416,0,0,1-1.332-4.3V9.567A7.245,7.245,0,0,1,1.328,6.5,4.6,4.6,0,0,1,3.084,4.458a4.918,4.918,0,0,1,2.652-.71,4.927,4.927,0,0,1,3.37,1.121,4.6,4.6,0,0,1,1.478,3.146H8.093a2.524,2.524,0,0,0-.652-1.7A2.413,2.413,0,0,0,5.736,5.79a2.116,2.116,0,0,0-1.864.892,5,5,0,0,0-.635,2.768v.913a5.352,5.352,0,0,0,.594,2.864,2.077,2.077,0,0,0,1.872.9,2.458,2.458,0,0,0,1.722-.527,2.381,2.381,0,0,0,.652-1.631ZM17.249,16a2.664,2.664,0,0,1-.241-.805,2.9,2.9,0,0,1-2.266.971,3.189,3.189,0,0,1-2.187-.764,2.456,2.456,0,0,1-.867-1.926,2.538,2.538,0,0,1,1.058-2.191,5.222,5.222,0,0,1,3.059-.772h1.1V10a1.48,1.48,0,0,0-.32-1,1.257,1.257,0,0,0-1.009-.374,1.429,1.429,0,0,0-.95.291.987.987,0,0,0-.344.8h-2.4a2.41,2.41,0,0,1,.481-1.444A3.182,3.182,0,0,1,13.729,7.23a4.961,4.961,0,0,1,1.976-.378,3.92,3.92,0,0,1,2.635.834,2.918,2.918,0,0,1,.975,2.345v3.893a4.294,4.294,0,0,0,.357,1.934V16Zm-1.984-1.668a2.066,2.066,0,0,0,.979-.237,1.554,1.554,0,0,0,.664-.635V11.916h-.9q-1.8,0-1.917,1.245l-.008.141a.96.96,0,0,0,.315.739A1.225,1.225,0,0,0,15.265,14.332Zm11.272.755a3.008,3.008,0,0,1-2.457,1.079,2.837,2.837,0,0,1-2.2-.83A3.543,3.543,0,0,1,21.1,12.9V7.019h2.4v5.809q0,1.4,1.278,1.4a1.732,1.732,0,0,0,1.677-.848V7.019h2.407V16H26.6Zm9-1.569a.773.773,0,0,0-.436-.693,4.95,4.95,0,0,0-1.4-.452Q30.5,11.7,30.5,9.65a2.468,2.468,0,0,1,.992-2,4,4,0,0,1,2.594-.8,4.307,4.307,0,0,1,2.735.805A2.538,2.538,0,0,1,37.843,9.75h-2.4a1.161,1.161,0,0,0-.332-.851,1.405,1.405,0,0,0-1.038-.336,1.436,1.436,0,0,0-.938.274.865.865,0,0,0-.332.7.739.739,0,0,0,.378.643,3.885,3.885,0,0,0,1.274.423,10.407,10.407,0,0,1,1.511.4,2.482,2.482,0,0,1,1.9,2.416,2.343,2.343,0,0,1-1.054,1.988,4.548,4.548,0,0,1-2.723.76,4.75,4.75,0,0,1-2-.4,3.363,3.363,0,0,1-1.374-1.1,2.565,2.565,0,0,1-.5-1.515h2.274a1.252,1.252,0,0,0,.473.979,1.877,1.877,0,0,0,1.179.34,1.737,1.737,0,0,0,1.042-.261A.814.814,0,0,0,35.536,13.518ZM44.617,16a2.664,2.664,0,0,1-.241-.805,2.9,2.9,0,0,1-2.266.971,3.189,3.189,0,0,1-2.187-.764,2.456,2.456,0,0,1-.867-1.926,2.538,2.538,0,0,1,1.058-2.191,5.222,5.222,0,0,1,3.059-.772h1.1V10a1.48,1.48,0,0,0-.32-1,1.257,1.257,0,0,0-1.009-.374,1.429,1.429,0,0,0-.95.291.987.987,0,0,0-.344.8h-2.4a2.41,2.41,0,0,1,.481-1.444A3.182,3.182,0,0,1,41.1,7.23a4.961,4.961,0,0,1,1.976-.378,3.92,3.92,0,0,1,2.635.834,2.918,2.918,0,0,1,.975,2.345v3.893a4.294,4.294,0,0,0,.357,1.934V16Zm-1.984-1.668a2.066,2.066,0,0,0,.979-.237,1.554,1.554,0,0,0,.664-.635V11.916h-.9q-1.8,0-1.917,1.245l-.008.141a.96.96,0,0,0,.315.739A1.225,1.225,0,0,0,42.633,14.332Z" transform="translate(346 25946)" fill="#fff"/>
      <path id="Path_213857-7" data-name="Path 213857" d="M14.466,0,12.184,2.282l6.723,6.724L12.184,15.73l2.282,2.281,9.005-9.005Z" transform="translate(501.567 25966.012) rotate(-180)" fill="#18b8c4"/>
      <path id="Path_213858-7" data-name="Path 213858" d="M0,9.2l3.534,3.534L0,16.269,2.281,18.55,8.1,12.735,2.281,6.92Z" transform="translate(495 25969.742) rotate(-180)" fill="#18b8c4"/>
      <path id="Path_609251" data-name="Path 609251" d="M489.945,24881h115.6" transform="translate(0 1076.006)" fill="none" stroke="#18b8c4" stroke-width="2"/>
      <path id="Path_609304" data-name="Path 609304" d="M3.569,11.742V16H1.079V3.914H5.794a5.455,5.455,0,0,1,2.395.5,3.67,3.67,0,0,1,1.59,1.415,3.946,3.946,0,0,1,.556,2.088,3.47,3.47,0,0,1-1.216,2.8,5.065,5.065,0,0,1-3.366,1.025Zm0-2.017H5.794A2.187,2.187,0,0,0,7.3,9.26a1.691,1.691,0,0,0,.519-1.328A1.994,1.994,0,0,0,7.3,6.5a1.953,1.953,0,0,0-1.444-.564H3.569Zm13.364-.457A6.517,6.517,0,0,0,16.07,9.2a1.757,1.757,0,0,0-1.785.921V16h-2.4V7.019h2.266l.066,1.071a2.223,2.223,0,0,1,2-1.237,2.514,2.514,0,0,1,.747.108Zm.481,2.158a5.327,5.327,0,0,1,.515-2.382,3.768,3.768,0,0,1,1.482-1.619,4.323,4.323,0,0,1,2.245-.573,4.09,4.09,0,0,1,2.968,1.112,4.464,4.464,0,0,1,1.282,3.021l.017.614a4.694,4.694,0,0,1-1.154,3.316,4.011,4.011,0,0,1-3.1,1.249,4.031,4.031,0,0,1-3.1-1.245,4.777,4.777,0,0,1-1.158-3.387Zm2.4.17a3.357,3.357,0,0,0,.481,1.958,1.73,1.73,0,0,0,2.739.008,3.674,3.674,0,0,0,.49-2.141,3.324,3.324,0,0,0-.49-1.945,1.592,1.592,0,0,0-1.378-.69,1.566,1.566,0,0,0-1.361.686A3.735,3.735,0,0,0,19.814,11.6Zm15.68,0a5.439,5.439,0,0,1-.921,3.366A3.052,3.052,0,0,1,32,16.166a2.8,2.8,0,0,1-2.333-1.121L29.559,16H27.4V3.25h2.4V7.824a2.732,2.732,0,0,1,2.183-.971A3.077,3.077,0,0,1,34.56,8.06a5.446,5.446,0,0,1,.934,3.4Zm-2.4-.174a3.573,3.573,0,0,0-.432-1.988A1.46,1.46,0,0,0,31.377,8.8a1.582,1.582,0,0,0-1.577.938v3.544a1.6,1.6,0,0,0,1.594.946,1.481,1.481,0,0,0,1.527-1.146A5.909,5.909,0,0,0,33.1,11.418ZM39.5,16H37.1V3.25H39.5Zm6.109.166A4.409,4.409,0,0,1,42.4,14.954a4.308,4.308,0,0,1-1.241-3.229v-.232a5.426,5.426,0,0,1,.523-2.42A3.838,3.838,0,0,1,43.16,7.429a4.159,4.159,0,0,1,2.187-.577,3.727,3.727,0,0,1,2.9,1.162,4.722,4.722,0,0,1,1.058,3.3v.979H43.587a2.229,2.229,0,0,0,.7,1.411,2.12,2.12,0,0,0,1.482.531,2.589,2.589,0,0,0,2.167-1l1.179,1.32a3.6,3.6,0,0,1-1.461,1.191A4.793,4.793,0,0,1,45.613,16.166Zm-.274-7.379a1.5,1.5,0,0,0-1.158.484,2.5,2.5,0,0,0-.569,1.384h3.337v-.192a1.786,1.786,0,0,0-.432-1.238A1.547,1.547,0,0,0,45.339,8.787Zm7.579-1.768.075,1a3.156,3.156,0,0,1,2.582-1.17,2.4,2.4,0,0,1,2.382,1.37,3.084,3.084,0,0,1,2.7-1.37,2.679,2.679,0,0,1,2.175.851,3.911,3.911,0,0,1,.714,2.561V16H61.135V10.272a1.71,1.71,0,0,0-.3-1.116A1.324,1.324,0,0,0,59.782,8.8a1.5,1.5,0,0,0-1.494,1.029L58.3,16H55.9V10.281a1.689,1.689,0,0,0-.307-1.129A1.337,1.337,0,0,0,54.544,8.8a1.555,1.555,0,0,0-1.478.847V16h-2.4V7.019ZM70.59,16a2.664,2.664,0,0,1-.241-.805,2.9,2.9,0,0,1-2.266.971A3.189,3.189,0,0,1,65.9,15.4a2.456,2.456,0,0,1-.867-1.926,2.538,2.538,0,0,1,1.058-2.191,5.222,5.222,0,0,1,3.059-.772h1.1V10a1.48,1.48,0,0,0-.32-1,1.257,1.257,0,0,0-1.009-.374,1.429,1.429,0,0,0-.95.291.987.987,0,0,0-.344.8h-2.4a2.41,2.41,0,0,1,.481-1.444A3.182,3.182,0,0,1,67.07,7.23a4.961,4.961,0,0,1,1.976-.378,3.92,3.92,0,0,1,2.635.834,2.918,2.918,0,0,1,.975,2.345v3.893a4.294,4.294,0,0,0,.357,1.934V16Zm-1.984-1.668a2.066,2.066,0,0,0,.979-.237,1.554,1.554,0,0,0,.664-.635V11.916h-.9q-1.8,0-1.917,1.245l-.008.141a.96.96,0,0,0,.315.739A1.225,1.225,0,0,0,68.606,14.332Z" transform="translate(1120 26077)" fill="#fff"/>
      <path id="Path_609305" data-name="Path 609305" d="M8.351,10.762H3.569V14H9.181v2h-8.1V3.914H9.164V5.931H3.569v2.88H8.351Zm1.6.664a5.369,5.369,0,0,1,.942-3.345A3.08,3.08,0,0,1,13.48,6.853a2.758,2.758,0,0,1,2.3,1.1l.158-.938h2.108V19.453H15.639V15.228a2.765,2.765,0,0,1-2.175.938,3.057,3.057,0,0,1-2.557-1.245A5.632,5.632,0,0,1,9.953,11.426Zm2.4.17a3.522,3.522,0,0,0,.452,1.962,1.448,1.448,0,0,0,1.274.673,1.613,1.613,0,0,0,1.561-.881V9.635a1.6,1.6,0,0,0-1.544-.848,1.466,1.466,0,0,0-1.287.673A3.889,3.889,0,0,0,12.352,11.6Zm12.958,3.49a3.008,3.008,0,0,1-2.457,1.079,2.837,2.837,0,0,1-2.2-.83,3.543,3.543,0,0,1-.776-2.432V7.019h2.4v5.809q0,1.4,1.278,1.4a1.732,1.732,0,0,0,1.677-.848V7.019h2.407V16H25.375ZM31.975,16H29.567V7.019h2.407ZM29.426,4.694a1.181,1.181,0,0,1,.361-.888,1.556,1.556,0,0,1,1.963,0,1.175,1.175,0,0,1,.365.888,1.178,1.178,0,0,1-.369.9,1.539,1.539,0,0,1-1.951,0A1.178,1.178,0,0,1,29.426,4.694Zm12.609,6.9a5.387,5.387,0,0,1-.942,3.324,3.021,3.021,0,0,1-2.544,1.249,2.8,2.8,0,0,1-2.2-.946v4.233h-2.4V7.019h2.225l.083.88a2.819,2.819,0,0,1,2.274-1.046,3.041,3.041,0,0,1,2.582,1.229,5.532,5.532,0,0,1,.921,3.387Zm-2.4-.174a3.535,3.535,0,0,0-.444-1.934A1.446,1.446,0,0,0,37.9,8.8a1.571,1.571,0,0,0-1.552.863v3.677a1.6,1.6,0,0,0,1.569.888Q39.636,14.232,39.636,11.418Zm3.511.008a5.327,5.327,0,0,1,.515-2.382,3.767,3.767,0,0,1,1.482-1.619,4.323,4.323,0,0,1,2.245-.573,4.09,4.09,0,0,1,2.968,1.112,4.464,4.464,0,0,1,1.282,3.021l.017.614A4.694,4.694,0,0,1,50.5,14.917a4.472,4.472,0,0,1-6.2,0,4.777,4.777,0,0,1-1.158-3.387Zm2.4.17a3.357,3.357,0,0,0,.481,1.958,1.73,1.73,0,0,0,2.739.008,3.674,3.674,0,0,0,.49-2.141,3.324,3.324,0,0,0-.49-1.945,1.592,1.592,0,0,0-1.378-.69,1.566,1.566,0,0,0-1.361.686A3.735,3.735,0,0,0,45.546,11.6Z" transform="translate(1134 25878)" fill="#fff"/>
      <rect id="Rectangle_377665" data-name="Rectangle 377665" width="650" height="105" rx="18" transform="translate(475 26211)" fill="#fff"/>
      <path id="Path_609306" data-name="Path 609306" d="M12.75,10.547V15h-1.5V3.625h4.2a4.215,4.215,0,0,1,2.926.953A3.231,3.231,0,0,1,19.43,7.1a3.189,3.189,0,0,1-1.035,2.551,4.4,4.4,0,0,1-2.965.895Zm0-1.227h2.7a2.7,2.7,0,0,0,1.844-.567,2.075,2.075,0,0,0,.641-1.64,2.143,2.143,0,0,0-.641-1.628,2.525,2.525,0,0,0-1.758-.634H12.75ZM26.25,15a3.036,3.036,0,0,1-.2-.891,3.225,3.225,0,0,1-2.406,1.047,2.984,2.984,0,0,1-2.051-.707,2.287,2.287,0,0,1-.8-1.793,2.39,2.39,0,0,1,1-2.051,4.733,4.733,0,0,1,2.824-.73h1.406V9.211A1.623,1.623,0,0,0,25.57,8a1.821,1.821,0,0,0-1.336-.449,2.108,2.108,0,0,0-1.3.391,1.151,1.151,0,0,0-.523.945H20.961a2,2,0,0,1,.449-1.223,3.066,3.066,0,0,1,1.219-.934,4.1,4.1,0,0,1,1.691-.344,3.342,3.342,0,0,1,2.289.73,2.635,2.635,0,0,1,.859,2.012v3.891a4.757,4.757,0,0,0,.3,1.852V15Zm-2.4-1.1a2.54,2.54,0,0,0,1.289-.352,2.127,2.127,0,0,0,.883-.914V10.9H24.891q-2.656,0-2.656,1.555a1.316,1.316,0,0,0,.453,1.063A1.742,1.742,0,0,0,23.852,13.9Zm10.8-1.141a1.064,1.064,0,0,0-.441-.91,4.249,4.249,0,0,0-1.539-.559,7.277,7.277,0,0,1-1.742-.562,2.479,2.479,0,0,1-.953-.781,1.869,1.869,0,0,1-.309-1.078,2.193,2.193,0,0,1,.879-1.758A3.432,3.432,0,0,1,32.8,6.391a3.532,3.532,0,0,1,2.332.742,2.357,2.357,0,0,1,.895,1.9H34.57a1.3,1.3,0,0,0-.5-1.023,1.888,1.888,0,0,0-1.27-.43,1.976,1.976,0,0,0-1.234.344,1.082,1.082,0,0,0-.445.9.877.877,0,0,0,.414.789,5.1,5.1,0,0,0,1.5.508,7.8,7.8,0,0,1,1.754.578,2.558,2.558,0,0,1,1,.809,1.988,1.988,0,0,1,.324,1.152,2.163,2.163,0,0,1-.906,1.816,3.8,3.8,0,0,1-2.352.684,4.257,4.257,0,0,1-1.8-.359,2.922,2.922,0,0,1-1.223-1,2.42,2.42,0,0,1-.441-1.395h1.445a1.5,1.5,0,0,0,.582,1.152,2.258,2.258,0,0,0,1.434.426,2.331,2.331,0,0,0,1.316-.332A1.02,1.02,0,0,0,34.656,12.758ZM37.6,10.7a4.993,4.993,0,0,1,.488-2.234A3.643,3.643,0,0,1,39.449,6.93a3.7,3.7,0,0,1,1.988-.539,3.565,3.565,0,0,1,2.793,1.2,4.6,4.6,0,0,1,1.066,3.18v.1a5.036,5.036,0,0,1-.473,2.215,3.589,3.589,0,0,1-1.352,1.527,3.743,3.743,0,0,1-2.02.547,3.556,3.556,0,0,1-2.785-1.2A4.575,4.575,0,0,1,37.6,10.8Zm1.453.172a3.616,3.616,0,0,0,.652,2.258,2.211,2.211,0,0,0,3.5-.012,3.955,3.955,0,0,0,.648-2.418,3.61,3.61,0,0,0-.66-2.254,2.1,2.1,0,0,0-1.754-.863,2.075,2.075,0,0,0-1.727.852A3.925,3.925,0,0,0,39.055,10.867Zm12.977,1.891a1.064,1.064,0,0,0-.441-.91,4.249,4.249,0,0,0-1.539-.559,7.277,7.277,0,0,1-1.742-.562,2.479,2.479,0,0,1-.953-.781,1.869,1.869,0,0,1-.309-1.078,2.193,2.193,0,0,1,.879-1.758,3.432,3.432,0,0,1,2.246-.719,3.532,3.532,0,0,1,2.332.742,2.357,2.357,0,0,1,.895,1.9H51.945a1.3,1.3,0,0,0-.5-1.023,1.888,1.888,0,0,0-1.27-.43,1.976,1.976,0,0,0-1.234.344,1.082,1.082,0,0,0-.445.9.877.877,0,0,0,.414.789,5.1,5.1,0,0,0,1.5.508,7.8,7.8,0,0,1,1.754.578,2.558,2.558,0,0,1,1,.809,1.988,1.988,0,0,1,.324,1.152,2.163,2.163,0,0,1-.906,1.816,3.8,3.8,0,0,1-2.352.684,4.257,4.257,0,0,1-1.8-.359,2.922,2.922,0,0,1-1.223-1,2.42,2.42,0,0,1-.441-1.395H48.2a1.5,1.5,0,0,0,.582,1.152,2.258,2.258,0,0,0,1.434.426,2.331,2.331,0,0,0,1.316-.332A1.02,1.02,0,0,0,52.031,12.758Zm14.43-1.891a5.062,5.062,0,0,1-.883,3.109,2.829,2.829,0,0,1-2.391,1.18,3.1,3.1,0,0,1-2.422-.977v4.07H59.32V6.547h1.32l.07.938a2.977,2.977,0,0,1,2.453-1.094,2.882,2.882,0,0,1,2.41,1.148,5.117,5.117,0,0,1,.887,3.2ZM65.016,10.7a3.735,3.735,0,0,0-.609-2.258,1.963,1.963,0,0,0-1.672-.828,2.125,2.125,0,0,0-1.969,1.164V12.82a2.129,2.129,0,0,0,1.984,1.156,1.954,1.954,0,0,0,1.652-.824A4.077,4.077,0,0,0,65.016,10.7Zm8.5,4.3a3.036,3.036,0,0,1-.2-.891,3.225,3.225,0,0,1-2.406,1.047,2.984,2.984,0,0,1-2.051-.707,2.288,2.288,0,0,1-.8-1.793,2.39,2.39,0,0,1,1-2.051,4.733,4.733,0,0,1,2.824-.73h1.406V9.211A1.623,1.623,0,0,0,72.836,8,1.821,1.821,0,0,0,71.5,7.555a2.108,2.108,0,0,0-1.3.391,1.151,1.151,0,0,0-.523.945H68.227a2,2,0,0,1,.449-1.223,3.066,3.066,0,0,1,1.219-.934,4.1,4.1,0,0,1,1.691-.344,3.342,3.342,0,0,1,2.289.73,2.635,2.635,0,0,1,.859,2.012v3.891a4.757,4.757,0,0,0,.3,1.852V15Zm-2.4-1.1a2.54,2.54,0,0,0,1.289-.352,2.127,2.127,0,0,0,.883-.914V10.9H72.156q-2.656,0-2.656,1.555a1.316,1.316,0,0,0,.453,1.063A1.742,1.742,0,0,0,71.117,13.9Zm9.969-6.055a4.331,4.331,0,0,0-.711-.055A1.9,1.9,0,0,0,78.445,9v6H77V6.547h1.406l.023.977a2.251,2.251,0,0,1,2.016-1.133,1.477,1.477,0,0,1,.641.109ZM87.32,15a3.036,3.036,0,0,1-.2-.891,3.225,3.225,0,0,1-2.406,1.047,2.984,2.984,0,0,1-2.051-.707,2.288,2.288,0,0,1-.8-1.793,2.39,2.39,0,0,1,1-2.051,4.733,4.733,0,0,1,2.824-.73h1.406V9.211A1.623,1.623,0,0,0,86.641,8,1.821,1.821,0,0,0,85.3,7.555a2.108,2.108,0,0,0-1.3.391,1.151,1.151,0,0,0-.523.945H82.031a2,2,0,0,1,.449-1.223A3.066,3.066,0,0,1,83.7,6.734a4.1,4.1,0,0,1,1.691-.344,3.342,3.342,0,0,1,2.289.73,2.635,2.635,0,0,1,.859,2.012v3.891a4.757,4.757,0,0,0,.3,1.852V15Zm-2.4-1.1a2.54,2.54,0,0,0,1.289-.352,2.127,2.127,0,0,0,.883-.914V10.9H85.961q-2.656,0-2.656,1.555a1.316,1.316,0,0,0,.453,1.063A1.742,1.742,0,0,0,84.922,13.9Zm9.492-3.2a4.952,4.952,0,0,1,.922-3.129,3.137,3.137,0,0,1,4.766-.168V3h1.445V15h-1.328l-.07-.906a2.943,2.943,0,0,1-2.414,1.063,2.887,2.887,0,0,1-2.395-1.2,5.008,5.008,0,0,1-.926-3.141Zm1.445.164a3.749,3.749,0,0,0,.594,2.25,1.92,1.92,0,0,0,1.641.813A2.108,2.108,0,0,0,100.1,12.7V8.813a2.125,2.125,0,0,0-1.992-1.2,1.929,1.929,0,0,0-1.656.82A4.128,4.128,0,0,0,95.859,10.867ZM107.3,15.156a3.693,3.693,0,0,1-2.8-1.129,4.19,4.19,0,0,1-1.078-3.02v-.266A5.073,5.073,0,0,1,103.9,8.5a3.748,3.748,0,0,1,1.344-1.547,3.378,3.378,0,0,1,1.871-.559,3.166,3.166,0,0,1,2.563,1.086,4.7,4.7,0,0,1,.914,3.109v.6h-5.727a3,3,0,0,0,.73,2.02,2.3,2.3,0,0,0,1.777.77,2.517,2.517,0,0,0,1.3-.312,3.259,3.259,0,0,0,.93-.828l.883.688A3.55,3.55,0,0,1,107.3,15.156Zm-.18-7.578a1.928,1.928,0,0,0-1.469.637A3.1,3.1,0,0,0,104.914,10h4.234V9.891a2.753,2.753,0,0,0-.594-1.707A1.815,1.815,0,0,0,107.117,7.578Zm10.07,5.18a1.064,1.064,0,0,0-.441-.91,4.249,4.249,0,0,0-1.539-.559,7.277,7.277,0,0,1-1.742-.562,2.479,2.479,0,0,1-.953-.781,1.869,1.869,0,0,1-.309-1.078,2.193,2.193,0,0,1,.879-1.758,3.432,3.432,0,0,1,2.246-.719,3.532,3.532,0,0,1,2.332.742,2.357,2.357,0,0,1,.895,1.9H117.1a1.3,1.3,0,0,0-.5-1.023,1.888,1.888,0,0,0-1.27-.43,1.976,1.976,0,0,0-1.234.344,1.082,1.082,0,0,0-.445.9.877.877,0,0,0,.414.789,5.1,5.1,0,0,0,1.5.508,7.8,7.8,0,0,1,1.754.578,2.558,2.558,0,0,1,1,.809,1.988,1.988,0,0,1,.324,1.152,2.163,2.163,0,0,1-.906,1.816,3.8,3.8,0,0,1-2.352.684,4.257,4.257,0,0,1-1.8-.359,2.922,2.922,0,0,1-1.223-1,2.42,2.42,0,0,1-.441-1.395h1.445a1.5,1.5,0,0,0,.582,1.152,2.258,2.258,0,0,0,1.434.426,2.331,2.331,0,0,0,1.316-.332A1.02,1.02,0,0,0,117.188,12.758ZM125.734,15a3.036,3.036,0,0,1-.2-.891,3.225,3.225,0,0,1-2.406,1.047,2.984,2.984,0,0,1-2.051-.707,2.288,2.288,0,0,1-.8-1.793,2.39,2.39,0,0,1,1-2.051,4.733,4.733,0,0,1,2.824-.73h1.406V9.211A1.623,1.623,0,0,0,125.055,8a1.821,1.821,0,0,0-1.336-.449,2.108,2.108,0,0,0-1.3.391,1.151,1.151,0,0,0-.523.945h-1.453a2,2,0,0,1,.449-1.223,3.066,3.066,0,0,1,1.219-.934,4.1,4.1,0,0,1,1.691-.344,3.342,3.342,0,0,1,2.289.73,2.635,2.635,0,0,1,.859,2.012v3.891a4.757,4.757,0,0,0,.3,1.852V15Zm-2.4-1.1a2.54,2.54,0,0,0,1.289-.352,2.127,2.127,0,0,0,.883-.914V10.9h-1.133q-2.656,0-2.656,1.555a1.316,1.316,0,0,0,.453,1.063A1.742,1.742,0,0,0,123.336,13.9ZM133.3,7.844a4.331,4.331,0,0,0-.711-.055A1.9,1.9,0,0,0,130.664,9v6h-1.445V6.547h1.406l.023.977a2.251,2.251,0,0,1,2.016-1.133,1.477,1.477,0,0,1,.641.109Zm5.414,0a4.331,4.331,0,0,0-.711-.055A1.9,1.9,0,0,0,136.078,9v6h-1.445V6.547h1.406l.023.977a2.251,2.251,0,0,1,2.016-1.133,1.477,1.477,0,0,1,.641.109Zm.789,2.852A4.993,4.993,0,0,1,140,8.461a3.642,3.642,0,0,1,1.359-1.531,3.7,3.7,0,0,1,1.988-.539,3.565,3.565,0,0,1,2.793,1.2,4.6,4.6,0,0,1,1.066,3.18v.1a5.036,5.036,0,0,1-.473,2.215,3.589,3.589,0,0,1-1.352,1.527,3.743,3.743,0,0,1-2.02.547,3.556,3.556,0,0,1-2.785-1.2,4.575,4.575,0,0,1-1.066-3.164Zm1.453.172a3.616,3.616,0,0,0,.652,2.258,2.211,2.211,0,0,0,3.5-.012,3.954,3.954,0,0,0,.648-2.418,3.61,3.61,0,0,0-.66-2.254,2.1,2.1,0,0,0-1.754-.863,2.075,2.075,0,0,0-1.727.852A3.925,3.925,0,0,0,140.961,10.867ZM150.586,15h-1.445V3h1.445Zm3.883,0h-1.445V3h1.445ZM162,15a3.036,3.036,0,0,1-.2-.891,3.225,3.225,0,0,1-2.406,1.047,2.984,2.984,0,0,1-2.051-.707,2.287,2.287,0,0,1-.8-1.793,2.39,2.39,0,0,1,1-2.051,4.733,4.733,0,0,1,2.824-.73h1.406V9.211A1.623,1.623,0,0,0,161.32,8a1.821,1.821,0,0,0-1.336-.449,2.107,2.107,0,0,0-1.3.391,1.151,1.151,0,0,0-.523.945h-1.453a2,2,0,0,1,.449-1.223,3.066,3.066,0,0,1,1.219-.934,4.1,4.1,0,0,1,1.691-.344,3.342,3.342,0,0,1,2.289.73,2.635,2.635,0,0,1,.859,2.012v3.891a4.757,4.757,0,0,0,.3,1.852V15Zm-2.4-1.1a2.54,2.54,0,0,0,1.289-.352,2.127,2.127,0,0,0,.883-.914V10.9h-1.133q-2.656,0-2.656,1.555a1.316,1.316,0,0,0,.453,1.063A1.742,1.742,0,0,0,159.6,13.9Zm9.969-6.055a4.331,4.331,0,0,0-.711-.055A1.9,1.9,0,0,0,166.93,9v6h-1.445V6.547h1.406l.023.977a2.251,2.251,0,0,1,2.016-1.133,1.477,1.477,0,0,1,.641.109Zm8.8,7.313a3.693,3.693,0,0,1-2.8-1.129,4.19,4.19,0,0,1-1.078-3.02v-.266a5.073,5.073,0,0,1,.48-2.246,3.748,3.748,0,0,1,1.344-1.547,3.378,3.378,0,0,1,1.871-.559,3.166,3.166,0,0,1,2.563,1.086,4.7,4.7,0,0,1,.914,3.109v.6h-5.727a3,3,0,0,0,.73,2.02,2.3,2.3,0,0,0,1.777.77,2.517,2.517,0,0,0,1.3-.312,3.258,3.258,0,0,0,.93-.828l.883.688A3.55,3.55,0,0,1,178.367,15.156Zm-.18-7.578a1.928,1.928,0,0,0-1.469.637A3.1,3.1,0,0,0,175.984,10h4.234V9.891a2.753,2.753,0,0,0-.594-1.707A1.815,1.815,0,0,0,178.188,7.578ZM184.906,15h-1.445V3h1.445Zm5.922-4.3a4.952,4.952,0,0,1,.922-3.129,3.137,3.137,0,0,1,4.766-.168V3h1.445V15h-1.328l-.07-.906a2.943,2.943,0,0,1-2.414,1.063,2.887,2.887,0,0,1-2.395-1.2,5.008,5.008,0,0,1-.926-3.141Zm1.445.164a3.749,3.749,0,0,0,.594,2.25,1.919,1.919,0,0,0,1.641.813,2.108,2.108,0,0,0,2.008-1.234V8.813a2.125,2.125,0,0,0-1.992-1.2,1.929,1.929,0,0,0-1.656.82A4.128,4.128,0,0,0,192.273,10.867Zm9.5,4.133h-1.445V6.547h1.445ZM200.211,4.3a.863.863,0,0,1,.215-.594.807.807,0,0,1,.637-.242.819.819,0,0,1,.641.242.854.854,0,0,1,.219.594.826.826,0,0,1-.219.586.834.834,0,0,1-.641.234.821.821,0,0,1-.637-.234A.834.834,0,0,1,200.211,4.3ZM209.3,15a3.036,3.036,0,0,1-.2-.891,3.225,3.225,0,0,1-2.406,1.047,2.984,2.984,0,0,1-2.051-.707,2.287,2.287,0,0,1-.8-1.793,2.39,2.39,0,0,1,1-2.051,4.733,4.733,0,0,1,2.824-.73h1.406V9.211A1.623,1.623,0,0,0,208.625,8a1.821,1.821,0,0,0-1.336-.449,2.107,2.107,0,0,0-1.3.391,1.151,1.151,0,0,0-.523.945h-1.453a2,2,0,0,1,.449-1.223,3.066,3.066,0,0,1,1.219-.934,4.1,4.1,0,0,1,1.691-.344,3.342,3.342,0,0,1,2.289.73,2.635,2.635,0,0,1,.859,2.012v3.891a4.757,4.757,0,0,0,.3,1.852V15Zm-2.4-1.1a2.54,2.54,0,0,0,1.289-.352,2.127,2.127,0,0,0,.883-.914V10.9h-1.133q-2.656,0-2.656,1.555a1.316,1.316,0,0,0,.453,1.063A1.742,1.742,0,0,0,206.906,13.9Zm5.539-3.2a4.968,4.968,0,0,1,.914-3.145,3.151,3.151,0,0,1,4.836-.074l.07-.937h1.32V14.8a3.439,3.439,0,0,1-.973,2.586,3.589,3.589,0,0,1-2.613.945,4.348,4.348,0,0,1-1.789-.391,3.08,3.08,0,0,1-1.336-1.07l.75-.867a2.826,2.826,0,0,0,2.273,1.148,2.214,2.214,0,0,0,1.645-.594,2.269,2.269,0,0,0,.59-1.672v-.727a2.971,2.971,0,0,1-2.367,1,2.887,2.887,0,0,1-2.4-1.2A5.224,5.224,0,0,1,212.445,10.7Zm1.453.164a3.79,3.79,0,0,0,.586,2.246,1.9,1.9,0,0,0,1.641.816,2.117,2.117,0,0,0,2.008-1.242V8.828a2.142,2.142,0,0,0-1.992-1.211,1.921,1.921,0,0,0-1.648.82A4.128,4.128,0,0,0,213.9,10.867Zm11.953-3.023a4.331,4.331,0,0,0-.711-.055A1.9,1.9,0,0,0,223.211,9v6h-1.445V6.547h1.406l.023.977a2.251,2.251,0,0,1,2.016-1.133,1.477,1.477,0,0,1,.641.109ZM232.086,15a3.036,3.036,0,0,1-.2-.891,3.225,3.225,0,0,1-2.406,1.047,2.984,2.984,0,0,1-2.051-.707,2.287,2.287,0,0,1-.8-1.793,2.39,2.39,0,0,1,1-2.051,4.733,4.733,0,0,1,2.824-.73h1.406V9.211A1.623,1.623,0,0,0,231.406,8a1.821,1.821,0,0,0-1.336-.449,2.107,2.107,0,0,0-1.3.391,1.151,1.151,0,0,0-.523.945H226.8a2,2,0,0,1,.449-1.223,3.066,3.066,0,0,1,1.219-.934,4.1,4.1,0,0,1,1.691-.344,3.342,3.342,0,0,1,2.289.73,2.635,2.635,0,0,1,.859,2.012v3.891a4.757,4.757,0,0,0,.3,1.852V15Zm-2.4-1.1a2.54,2.54,0,0,0,1.289-.352,2.127,2.127,0,0,0,.883-.914V10.9h-1.133q-2.656,0-2.656,1.555a1.316,1.316,0,0,0,.453,1.063A1.742,1.742,0,0,0,229.688,13.9Zm7.242-7.352.039.938a3.122,3.122,0,0,1,2.508-1.094,2.417,2.417,0,0,1,2.414,1.359,3.2,3.2,0,0,1,1.1-.984,3.242,3.242,0,0,1,1.6-.375q2.781,0,2.828,2.945V15h-1.445V9.422a1.941,1.941,0,0,0-.414-1.355,1.823,1.823,0,0,0-1.391-.449,1.917,1.917,0,0,0-1.336.48,1.949,1.949,0,0,0-.617,1.293V15h-1.453V9.461a1.613,1.613,0,0,0-1.8-1.844,1.934,1.934,0,0,0-1.945,1.211V15h-1.445V6.547ZM254.813,15a3.036,3.036,0,0,1-.2-.891,3.225,3.225,0,0,1-2.406,1.047,2.984,2.984,0,0,1-2.051-.707,2.287,2.287,0,0,1-.8-1.793,2.39,2.39,0,0,1,1-2.051,4.733,4.733,0,0,1,2.824-.73h1.406V9.211A1.623,1.623,0,0,0,254.133,8a1.821,1.821,0,0,0-1.336-.449,2.107,2.107,0,0,0-1.3.391,1.151,1.151,0,0,0-.523.945h-1.453a2,2,0,0,1,.449-1.223,3.066,3.066,0,0,1,1.219-.934,4.1,4.1,0,0,1,1.691-.344,3.342,3.342,0,0,1,2.289.73,2.635,2.635,0,0,1,.859,2.012v3.891a4.757,4.757,0,0,0,.3,1.852V15Zm-2.4-1.1a2.54,2.54,0,0,0,1.289-.352,2.127,2.127,0,0,0,.883-.914V10.9h-1.133q-2.656,0-2.656,1.555a1.316,1.316,0,0,0,.453,1.063A1.742,1.742,0,0,0,252.414,13.9Zm9.492-3.2a4.952,4.952,0,0,1,.922-3.129,3.137,3.137,0,0,1,4.766-.168V3h1.445V15h-1.328l-.07-.906a2.943,2.943,0,0,1-2.414,1.063,2.887,2.887,0,0,1-2.395-1.2,5.008,5.008,0,0,1-.926-3.141Zm1.445.164a3.749,3.749,0,0,0,.594,2.25,1.92,1.92,0,0,0,1.641.813,2.109,2.109,0,0,0,2.008-1.234V8.813a2.125,2.125,0,0,0-1.992-1.2,1.929,1.929,0,0,0-1.656.82A4.128,4.128,0,0,0,263.352,10.867Zm11.438,4.289a3.693,3.693,0,0,1-2.8-1.129,4.19,4.19,0,0,1-1.078-3.02v-.266a5.073,5.073,0,0,1,.48-2.246,3.748,3.748,0,0,1,1.344-1.547,3.378,3.378,0,0,1,1.871-.559,3.166,3.166,0,0,1,2.563,1.086,4.7,4.7,0,0,1,.914,3.109v.6h-5.727a3,3,0,0,0,.73,2.02,2.3,2.3,0,0,0,1.777.77,2.517,2.517,0,0,0,1.3-.312,3.259,3.259,0,0,0,.93-.828l.883.688A3.55,3.55,0,0,1,274.789,15.156Zm-.18-7.578a1.928,1.928,0,0,0-1.469.637A3.1,3.1,0,0,0,272.406,10h4.234V9.891a2.753,2.753,0,0,0-.594-1.707A1.815,1.815,0,0,0,274.609,7.578Zm12.5,6.4a2.082,2.082,0,0,0,1.352-.469,1.649,1.649,0,0,0,.641-1.172h1.367a2.621,2.621,0,0,1-.5,1.383,3.293,3.293,0,0,1-1.23,1.047,3.55,3.55,0,0,1-1.629.391A3.482,3.482,0,0,1,284.363,14a4.59,4.59,0,0,1-1.02-3.152v-.242a5.089,5.089,0,0,1,.453-2.2,3.451,3.451,0,0,1,1.3-1.492,3.7,3.7,0,0,1,2-.531,3.39,3.39,0,0,1,2.363.852,3.043,3.043,0,0,1,1,2.211H289.1a1.992,1.992,0,0,0-.621-1.348,1.932,1.932,0,0,0-1.379-.527,2.023,2.023,0,0,0-1.707.793,3.724,3.724,0,0,0-.605,2.293v.273a3.65,3.65,0,0,0,.6,2.25A2.033,2.033,0,0,0,287.109,13.977ZM297.313,15a3.036,3.036,0,0,1-.2-.891,3.225,3.225,0,0,1-2.406,1.047,2.984,2.984,0,0,1-2.051-.707,2.288,2.288,0,0,1-.8-1.793,2.39,2.39,0,0,1,1-2.051,4.733,4.733,0,0,1,2.824-.73h1.406V9.211A1.623,1.623,0,0,0,296.633,8a1.821,1.821,0,0,0-1.336-.449,2.108,2.108,0,0,0-1.3.391,1.151,1.151,0,0,0-.523.945h-1.453a2,2,0,0,1,.449-1.223,3.066,3.066,0,0,1,1.219-.934,4.1,4.1,0,0,1,1.691-.344,3.342,3.342,0,0,1,2.289.73,2.635,2.635,0,0,1,.859,2.012v3.891a4.757,4.757,0,0,0,.3,1.852V15Zm-2.4-1.1a2.54,2.54,0,0,0,1.289-.352,2.126,2.126,0,0,0,.883-.914V10.9h-1.133q-2.656,0-2.656,1.555a1.316,1.316,0,0,0,.453,1.063A1.742,1.742,0,0,0,294.914,13.9Zm11.1.266a3.07,3.07,0,0,1-2.477.992,2.628,2.628,0,0,1-2.059-.785,3.4,3.4,0,0,1-.715-2.324v-5.5h1.445v5.461q0,1.922,1.563,1.922a2.163,2.163,0,0,0,2.2-1.234V6.547h1.445V15h-1.375Zm8.523-1.406a1.064,1.064,0,0,0-.441-.91,4.249,4.249,0,0,0-1.539-.559,7.276,7.276,0,0,1-1.742-.562,2.478,2.478,0,0,1-.953-.781,1.869,1.869,0,0,1-.309-1.078,2.193,2.193,0,0,1,.879-1.758,3.432,3.432,0,0,1,2.246-.719,3.532,3.532,0,0,1,2.332.742,2.357,2.357,0,0,1,.895,1.9h-1.453a1.3,1.3,0,0,0-.5-1.023,1.888,1.888,0,0,0-1.27-.43,1.976,1.976,0,0,0-1.234.344,1.082,1.082,0,0,0-.445.9.877.877,0,0,0,.414.789,5.1,5.1,0,0,0,1.5.508,7.8,7.8,0,0,1,1.754.578,2.559,2.559,0,0,1,1,.809,1.988,1.988,0,0,1,.324,1.152,2.163,2.163,0,0,1-.906,1.816,3.8,3.8,0,0,1-2.352.684,4.257,4.257,0,0,1-1.8-.359,2.922,2.922,0,0,1-1.223-1,2.42,2.42,0,0,1-.441-1.395h1.445a1.5,1.5,0,0,0,.582,1.152,2.258,2.258,0,0,0,1.434.426,2.331,2.331,0,0,0,1.316-.332A1.02,1.02,0,0,0,314.539,12.758ZM323.086,15a3.036,3.036,0,0,1-.2-.891,3.225,3.225,0,0,1-2.406,1.047,2.984,2.984,0,0,1-2.051-.707,2.288,2.288,0,0,1-.8-1.793,2.39,2.39,0,0,1,1-2.051,4.733,4.733,0,0,1,2.824-.73h1.406V9.211A1.623,1.623,0,0,0,322.406,8a1.821,1.821,0,0,0-1.336-.449,2.108,2.108,0,0,0-1.3.391,1.151,1.151,0,0,0-.523.945H317.8a2,2,0,0,1,.449-1.223,3.066,3.066,0,0,1,1.219-.934,4.1,4.1,0,0,1,1.691-.344,3.342,3.342,0,0,1,2.289.73,2.635,2.635,0,0,1,.859,2.012v3.891a4.757,4.757,0,0,0,.3,1.852V15Zm-2.4-1.1a2.54,2.54,0,0,0,1.289-.352,2.126,2.126,0,0,0,.883-.914V10.9h-1.133q-2.656,0-2.656,1.555a1.316,1.316,0,0,0,.453,1.063A1.742,1.742,0,0,0,320.688,13.9ZM333.3,12.883l1.969-6.336h1.547l-3.4,9.758q-.789,2.109-2.508,2.109l-.273-.023-.539-.1V17.117l.391.031a1.923,1.923,0,0,0,1.145-.3,2.149,2.149,0,0,0,.676-1.086l.32-.859-3.016-8.359h1.578Zm12.273,2.273a3.693,3.693,0,0,1-2.8-1.129,4.19,4.19,0,0,1-1.078-3.02v-.266a5.073,5.073,0,0,1,.48-2.246,3.748,3.748,0,0,1,1.344-1.547,3.378,3.378,0,0,1,1.871-.559,3.166,3.166,0,0,1,2.563,1.086,4.7,4.7,0,0,1,.914,3.109v.6h-5.727a3,3,0,0,0,.73,2.02,2.3,2.3,0,0,0,1.777.77,2.517,2.517,0,0,0,1.3-.312,3.259,3.259,0,0,0,.93-.828l.883.688A3.55,3.55,0,0,1,345.57,15.156Zm-.18-7.578a1.928,1.928,0,0,0-1.469.637A3.1,3.1,0,0,0,343.188,10h4.234V9.891a2.753,2.753,0,0,0-.594-1.707A1.815,1.815,0,0,0,345.391,7.578ZM351.25,15V7.664h-1.336V6.547h1.336V5.68a2.878,2.878,0,0,1,.727-2.1,2.745,2.745,0,0,1,2.055-.742,3.816,3.816,0,0,1,.992.132l-.078,1.165a4.151,4.151,0,0,0-.781-.07,1.41,1.41,0,0,0-1.086.411,1.669,1.669,0,0,0-.383,1.18v.893h1.8V7.664h-1.8V15Zm8.164.156a3.693,3.693,0,0,1-2.8-1.129,4.19,4.19,0,0,1-1.078-3.02v-.266a5.073,5.073,0,0,1,.48-2.246,3.748,3.748,0,0,1,1.344-1.547,3.378,3.378,0,0,1,1.871-.559A3.166,3.166,0,0,1,361.8,7.477a4.7,4.7,0,0,1,.914,3.109v.6h-5.727a3,3,0,0,0,.73,2.02,2.3,2.3,0,0,0,1.777.77,2.517,2.517,0,0,0,1.3-.312,3.259,3.259,0,0,0,.93-.828l.883.688A3.55,3.55,0,0,1,359.414,15.156Zm-.18-7.578a1.928,1.928,0,0,0-1.469.637A3.1,3.1,0,0,0,357.031,10h4.234V9.891a2.753,2.753,0,0,0-.594-1.707A1.815,1.815,0,0,0,359.234,7.578Zm8.539,6.4a2.082,2.082,0,0,0,1.352-.469,1.649,1.649,0,0,0,.641-1.172h1.367a2.621,2.621,0,0,1-.5,1.383,3.293,3.293,0,0,1-1.23,1.047,3.55,3.55,0,0,1-1.629.391A3.482,3.482,0,0,1,365.027,14a4.59,4.59,0,0,1-1.02-3.152v-.242a5.089,5.089,0,0,1,.453-2.2,3.451,3.451,0,0,1,1.3-1.492,3.7,3.7,0,0,1,2-.531,3.39,3.39,0,0,1,2.363.852,3.043,3.043,0,0,1,1,2.211h-1.367a1.992,1.992,0,0,0-.621-1.348,1.932,1.932,0,0,0-1.379-.527,2.023,2.023,0,0,0-1.707.793,3.724,3.724,0,0,0-.605,2.293v.273a3.65,3.65,0,0,0,.6,2.25A2.033,2.033,0,0,0,367.773,13.977ZM374.719,4.5V6.547H376.3V7.664h-1.578v5.249a1.173,1.173,0,0,0,.211.763.888.888,0,0,0,.719.254,3.5,3.5,0,0,0,.688-.094V15a4.215,4.215,0,0,1-1.109.155,1.8,1.8,0,0,1-1.461-.586,2.517,2.517,0,0,1-.492-1.664V7.664h-1.539V6.547h1.539V4.5Zm2.727,6.2a4.993,4.993,0,0,1,.488-2.234,3.643,3.643,0,0,1,1.359-1.531,3.7,3.7,0,0,1,1.988-.539,3.565,3.565,0,0,1,2.793,1.2,4.6,4.6,0,0,1,1.066,3.18v.1a5.036,5.036,0,0,1-.473,2.215,3.589,3.589,0,0,1-1.352,1.527,3.743,3.743,0,0,1-2.02.547,3.556,3.556,0,0,1-2.785-1.2,4.575,4.575,0,0,1-1.066-3.164Zm1.453.172a3.616,3.616,0,0,0,.652,2.258,2.211,2.211,0,0,0,3.5-.012A3.955,3.955,0,0,0,383.7,10.7a3.61,3.61,0,0,0-.66-2.254,2.1,2.1,0,0,0-1.754-.863,2.075,2.075,0,0,0-1.727.852A3.925,3.925,0,0,0,378.9,10.867Zm8.086,3.375a.905.905,0,0,1,.223-.625.848.848,0,0,1,.668-.25.874.874,0,0,1,.676.25.887.887,0,0,1,.23.625.839.839,0,0,1-.23.6.89.89,0,0,1-.676.242.8.8,0,0,1-.891-.844Z" transform="translate(600 26225)" fill="#12263f"/>
    </g>
    <g id="Group_1072227" data-name="Group 1072227">
      <g id="Group_1072186" data-name="Group 1072186" transform="translate(413.645 25809.848)">
        <path id="Path_194909" data-name="Path 194909" d="M22.678,0A22.678,22.678,0,1,1,0,22.678,22.678,22.678,0,0,1,22.678,0Z" transform="translate(0 0)" fill="#eeac3a" opacity="0.28"/>
        <path id="Path_191051" data-name="Path 191051" d="M13.9,0A13.9,13.9,0,1,1,0,13.9,13.9,13.9,0,0,1,13.9,0Z" transform="translate(8.613 9.117)" fill="#eeac3a"/>
        <text id="_" data-name="+" transform="translate(16.654 29.235)" fill="#12263f" font-size="20" font-family="Roboto-Bold, Roboto" font-weight="700"><tspan x="0" y="0">+</tspan></text>
      </g>
      <g id="Group_1072187" data-name="Group 1072187" transform="translate(1203.644 25867.043)">
        <path id="Path_194909-2" data-name="Path 194909" d="M22.678,0A22.678,22.678,0,1,1,0,22.678,22.678,22.678,0,0,1,22.678,0Z" transform="translate(0 0)" fill="#eeac3a" opacity="0.28"/>
        <path id="Path_191051-2" data-name="Path 191051" d="M13.9,0A13.9,13.9,0,1,1,0,13.9,13.9,13.9,0,0,1,13.9,0Z" transform="translate(8.613 9.117)" fill="#eeac3a"/>
        <text id="_2" data-name="+" transform="translate(16.654 29.235)" fill="#12263f" font-size="20" font-family="Roboto-Bold, Roboto" font-weight="700"><tspan x="0" y="0">+</tspan></text>
      </g>
      <g id="Group_1072188" data-name="Group 1072188" transform="translate(1210 26064.043)">
        <path id="Path_194909-3" data-name="Path 194909" d="M22.678,0A22.678,22.678,0,1,1,0,22.678,22.678,22.678,0,0,1,22.678,0Z" transform="translate(0 0)" fill="#eeac3a" opacity="0.28"/>
        <path id="Path_191051-3" data-name="Path 191051" d="M13.9,0A13.9,13.9,0,1,1,0,13.9,13.9,13.9,0,0,1,13.9,0Z" transform="translate(8.613 9.117)" fill="#eeac3a"/>
        <text id="_3" data-name="+" transform="translate(16.654 29.235)" fill="#12263f" font-size="20" font-family="Roboto-Bold, Roboto" font-weight="700"><tspan x="0" y="0">+</tspan></text>
      </g>
      <g id="Group_1072189" data-name="Group 1072189" transform="translate(413.645 25936.092)">
        <path id="Path_194909-4" data-name="Path 194909" d="M22.678,0A22.678,22.678,0,1,1,0,22.678,22.678,22.678,0,0,1,22.678,0Z" transform="translate(0 0)" fill="#eeac3a" opacity="0.28"/>
        <path id="Path_191051-4" data-name="Path 191051" d="M13.9,0A13.9,13.9,0,1,1,0,13.9,13.9,13.9,0,0,1,13.9,0Z" transform="translate(8.613 9.117)" fill="#eeac3a"/>
        <text id="_4" data-name="+" transform="translate(16.654 29.235)" fill="#12263f" font-size="20" font-family="Roboto-Bold, Roboto" font-weight="700"><tspan x="0" y="0">+</tspan></text>
      </g>
      <g id="Group_1072190" data-name="Group 1072190" transform="translate(-78 -22)">
        <g id="Group_1072186-2" data-name="Group 1072186" transform="translate(600 26279.043)">
          <path id="Path_194909-5" data-name="Path 194909" d="M22.678,0A22.678,22.678,0,1,1,0,22.678,22.678,22.678,0,0,1,22.678,0Z" transform="translate(0 0)" fill="#eeac3a" opacity="0.28"/>
          <path id="Path_191051-5" data-name="Path 191051" d="M13.9,0A13.9,13.9,0,1,1,0,13.9,13.9,13.9,0,0,1,13.9,0Z" transform="translate(8.613 9.117)" fill="#eeac3a"/>
          <text id="_1" data-name="1" transform="translate(16.654 29.235)" fill="#12263f" font-size="20" font-family="Roboto-Bold, Roboto" font-weight="700"><tspan x="0" y="0">1</tspan></text>
        </g>
        <g id="Group_1072187-2" data-name="Group 1072187" transform="translate(685 26279.043)">
          <path id="Path_194909-6" data-name="Path 194909" d="M22.678,0A22.678,22.678,0,1,1,0,22.678,22.678,22.678,0,0,1,22.678,0Z" transform="translate(0 0)" fill="#eeac3a" opacity="0.28"/>
          <path id="Path_191051-6" data-name="Path 191051" d="M13.9,0A13.9,13.9,0,1,1,0,13.9,13.9,13.9,0,0,1,13.9,0Z" transform="translate(8.613 9.117)" fill="#eeac3a"/>
          <text id="_2-2" data-name="2" transform="translate(16.654 29.235)" fill="#12263f" font-size="20" font-family="Roboto-Bold, Roboto" font-weight="700"><tspan x="0" y="0">2</tspan></text>
        </g>
        <g id="Group_1072188-2" data-name="Group 1072188" transform="translate(770 26279.043)">
          <path id="Path_194909-7" data-name="Path 194909" d="M22.678,0A22.678,22.678,0,1,1,0,22.678,22.678,22.678,0,0,1,22.678,0Z" transform="translate(0 0)" fill="#eeac3a" opacity="0.28"/>
          <path id="Path_191051-7" data-name="Path 191051" d="M13.9,0A13.9,13.9,0,1,1,0,13.9,13.9,13.9,0,0,1,13.9,0Z" transform="translate(8.613 9.117)" fill="#eeac3a"/>
          <text id="_3-2" data-name="3" transform="translate(16.654 29.235)" fill="#12263f" font-size="20" font-family="Roboto-Bold, Roboto" font-weight="700"><tspan x="0" y="0">3</tspan></text>
        </g>
        <g id="Group_1072189-2" data-name="Group 1072189" transform="translate(855 26279.043)">
          <path id="Path_194909-8" data-name="Path 194909" d="M22.678,0A22.678,22.678,0,1,1,0,22.678,22.678,22.678,0,0,1,22.678,0Z" transform="translate(0 0)" fill="#eeac3a" opacity="0.28"/>
          <path id="Path_191051-8" data-name="Path 191051" d="M13.9,0A13.9,13.9,0,1,1,0,13.9,13.9,13.9,0,0,1,13.9,0Z" transform="translate(8.613 9.117)" fill="#eeac3a"/>
          <text id="_4-2" data-name="4" transform="translate(16.654 29.235)" fill="#12263f" font-size="20" font-family="Roboto-Bold, Roboto" font-weight="700"><tspan x="0" y="0">4</tspan></text>
        </g>
        <g id="Group_1072190-2" data-name="Group 1072190" transform="translate(940 26279.043)">
          <path id="Path_194909-9" data-name="Path 194909" d="M22.678,0A22.678,22.678,0,1,1,0,22.678,22.678,22.678,0,0,1,22.678,0Z" transform="translate(0 0)" fill="#eeac3a" opacity="0.28"/>
          <path id="Path_191051-9" data-name="Path 191051" d="M13.9,0A13.9,13.9,0,1,1,0,13.9,13.9,13.9,0,0,1,13.9,0Z" transform="translate(8.613 9.117)" fill="#eeac3a"/>
          <text id="_5" data-name="5" transform="translate(16.654 29.235)" fill="#12263f" font-size="20" font-family="Roboto-Bold, Roboto" font-weight="700"><tspan x="0" y="0">5</tspan></text>
        </g>
        <g id="Group_1072191" data-name="Group 1072191" transform="translate(1025 26279.043)">
          <path id="Path_194909-10" data-name="Path 194909" d="M22.678,0A22.678,22.678,0,1,1,0,22.678,22.678,22.678,0,0,1,22.678,0Z" transform="translate(0 0)" fill="#eeac3a" opacity="0.28"/>
          <path id="Path_191051-10" data-name="Path 191051" d="M13.9,0A13.9,13.9,0,1,1,0,13.9,13.9,13.9,0,0,1,13.9,0Z" transform="translate(8.613 9.117)" fill="#eeac3a"/>
          <text id="_6" data-name="6" transform="translate(16.654 29.235)" fill="#12263f" font-size="20" font-family="Roboto-Bold, Roboto" font-weight="700"><tspan x="0" y="0">6</tspan></text>
        </g>
        <g id="Group_1072192" data-name="Group 1072192" transform="translate(1110 26279.043)">
          <path id="Path_194909-11" data-name="Path 194909" d="M22.678,0A22.678,22.678,0,1,1,0,22.678,22.678,22.678,0,0,1,22.678,0Z" transform="translate(0 0)" fill="#eeac3a" opacity="0.28"/>
          <path id="Path_191051-11" data-name="Path 191051" d="M13.9,0A13.9,13.9,0,1,1,0,13.9,13.9,13.9,0,0,1,13.9,0Z" transform="translate(8.613 9.117)" fill="#eeac3a"/>
          <text id="_5-2" data-name="+" transform="translate(16.654 29.235)" fill="#12263f" font-size="20" font-family="Roboto-Bold, Roboto" font-weight="700"><tspan x="0" y="0">+</tspan></text>
        </g>
      </g>
    </g>
  </g>
</svg>
